<?xml version="1.0" standalone="no"?>
<!DOCTYPE svg PUBLIC "-//W3C//DTD SVG 1.1//EN" "http://www.w3.org/Graphics/SVG/1.1/DTD/svg11.dtd" >
<svg xmlns="http://www.w3.org/2000/svg">
<metadata></metadata>
<defs>
<font id="fs_silas_sans_webbold_italic" horiz-adv-x="1187" >
<font-face units-per-em="2048" ascent="1536" descent="-512" />
<missing-glyph horiz-adv-x="430" />
<glyph unicode="&#xfb01;" horiz-adv-x="1126" d="M160 0l143 809h-143l30 180h144l20 117q17 106 63 182q43 72 105 114q61 42 137 58q79 17 160 17q72 0 171 -13q96 -13 155 -28v-181q-48 13 -143 26q-78 11 -160 11q-112 0 -164 -49q-54 -51 -72 -160l-16 -94h584l-175 -989h-256l144 809h-328l-143 -809h-256z" />
<glyph unicode="&#xfb02;" horiz-adv-x="1120" d="M160 0l143 809h-143l30 180h144l22 127q33 193 138 277t309 84q32 0 69 -3q11 -1 23.5 -2.5t27 -3.5t23.5 -3q35 -4 71 -12q7 -2 28.5 -6.5t31.5 -6.5l183 20l-259 -1460h-256l226 1276q-74 16 -150 16q-109 0 -152 -48q-45 -49 -61 -148l-18 -107h244l-60 -180h-215 l-143 -809h-256z" />
<glyph unicode="&#xfb03;" horiz-adv-x="1710" d="M160 0l143 809h-143l30 180h144l24 139q18 99 55 167q36 67 87 107q48 38 117 57q66 18 145 18q28 0 58 -3q23 -2 59 -8v-180q-44 6 -88 6q-80 0 -122 -45q-43 -46 -59 -145l-20 -113h328l20 117q18 109 62 182q43 71 106 114q61 42 137 58q79 17 160 17q72 0 171 -13 q96 -13 155 -28v-181q-48 13 -143 26q-78 11 -161 11q-111 0 -163 -49q-54 -51 -72 -160l-16 -94h583l-174 -989h-256l143 809h-327l-144 -809h-256l144 809h-328l-143 -809h-256z" />
<glyph unicode="&#xfb04;" horiz-adv-x="1703" d="M160 0l143 809h-143l30 180h144l24 139q18 99 55 167q36 67 87 107q48 38 117 57q66 18 145 18q28 0 58 -3q23 -2 59 -8v-180q-44 6 -88 6q-80 0 -122 -45q-43 -46 -59 -145l-20 -113h328l22 127q33 194 137 277q105 84 309 84q32 0 70 -3q11 -1 23.5 -2.5t27 -3.5 t23.5 -3q35 -4 71 -12q7 -2 28.5 -6.5t31.5 -6.5l182 20l-258 -1460h-256l225 1276q-74 16 -149 16q-109 0 -153 -48t-60 -148l-18 -107h243l-59 -180h-215l-144 -809h-256l144 809h-328l-143 -809h-256z" />
<glyph horiz-adv-x="1228" />
<glyph horiz-adv-x="1228" />
<glyph unicode="&#xd;" horiz-adv-x="430" />
<glyph unicode=" "  horiz-adv-x="430" />
<glyph unicode="&#x09;" horiz-adv-x="430" />
<glyph unicode="&#xa0;" horiz-adv-x="430" />
<glyph unicode="!" horiz-adv-x="497" d="M121 0l41 236l274 24l-45 -260h-270zM207 395l151 1032l285 25l-201 -1028z" />
<glyph unicode="&#x22;" horiz-adv-x="833" d="M291 977l94 536l248 23l-123 -535zM666 977l94 536l248 23l-123 -535z" />
<glyph unicode="#" horiz-adv-x="1206" d="M100 383l58 182h198l82 244h-196l57 182h199l139 420h225l-139 -420h203l139 420h225l-139 -420h199l-60 -182h-198l-82 -244h198l-59 -182h-199l-127 -383h-225l127 383h-203l-127 -383h-225l127 383h-197zM582 565h202l82 244h-202z" />
<glyph unicode="$" horiz-adv-x="1130" d="M127 57l18 211q66 -34 150 -57q86 -23 170 -29l88 486l-18 10q-122 63 -189 137q-65 72 -65 201q0 101 40 175q42 77 105 126q69 53 151 79q92 29 177 36l32 178l189 20l-37 -200q72 -10 147 -26q65 -14 123 -34l-14 -203q-68 24 -143 42q-73 18 -148 24l-78 -430 q72 -40 121 -75q54 -39 91 -83q39 -47 58 -99q19 -53 19 -122q0 -97 -38 -175q-37 -76 -105 -133q-63 -54 -160 -90q-91 -34 -199 -42l-28 -168l-189 -21l33 189q-80 7 -162 26q-75 17 -139 47zM541 1040q0 -48 23 -78q25 -32 93 -71l60 332q-76 -16 -127 -61 q-49 -43 -49 -122zM649 190q85 18 143 68q56 49 56 141q0 63 -32 104q-31 39 -97 77z" />
<glyph unicode="%" horiz-adv-x="1808" d="M244 897q0 51 7 100q10 72 18 104q12 51 27 95q14 43 34 76q52 97 130 131q77 33 175 33q135 0 208 -65q72 -65 72 -187q0 -52 -7 -101q-10 -70 -18 -103q-12 -51 -27 -95q-15 -43 -34 -76q-52 -97 -130 -131q-77 -33 -175 -33q-135 0 -208 65q-72 64 -72 187zM391 78 l1143 1390l156 -122l-1143 -1391zM473 911q0 -92 68 -92q30 0 52 19t38 55q11 26 22 62q10 35 18 74q5 23 11 74q4 32 4 66q0 93 -68 93q-57 0 -90 -74q-9 -22 -22 -64q-10 -34 -18 -72q-5 -23 -11 -74q-4 -32 -4 -67zM1143 231q0 52 7 101q10 70 18 103q12 51 27 95 q15 43 34 76q52 97 130 131q77 33 175 33q137 0 208 -64q73 -65 73 -188q0 -44 -8 -100q-10 -72 -18 -104q-12 -51 -27 -95q-16 -47 -33 -76q-51 -97 -131 -131q-74 -32 -175 -32q-137 0 -208 64q-72 65 -72 187zM1372 246q0 -92 68 -92q31 0 52 18q22 19 38 55q11 24 22 63 q10 35 18 74q5 25 11 73q4 32 4 67q0 92 -67 92q-58 0 -91 -74q-10 -24 -22 -63q-7 -23 -17 -73q-7 -37 -12 -74q-4 -32 -4 -66z" />
<glyph unicode="&#x26;" horiz-adv-x="1394" d="M121 346q0 89 23 151q23 63 72 116q48 53 122 95q78 44 172 83q-71 76 -98 144q-27 69 -27 136q0 89 37 157t99 114t144 70q81 24 169 24q82 0 151 -21q72 -22 121 -58q51 -38 80 -92q28 -53 28 -122q0 -122 -90 -224q-88 -100 -250 -184l207 -260q81 129 121 318l230 34 q-67 -316 -222 -514l172 -200l-192 -146l-148 178q-97 -80 -216 -123q-116 -42 -251 -42q-104 0 -183 23q-84 25 -143 70q-60 47 -94 114q-34 68 -34 159zM401 367q0 -91 60 -136t155 -45q86 0 158 30q69 29 133 77l-278 352q-110 -49 -169 -114t-59 -164zM651 1096 q0 -59 31 -107q28 -44 76 -98q35 17 70 40q40 27 65 53q30 31 47 66q18 36 18 76q0 56 -34 87q-35 32 -103 32q-71 0 -121 -38q-49 -37 -49 -111z" />
<glyph unicode="'" horiz-adv-x="460" d="M291 977l94 536l248 23l-123 -535z" />
<glyph unicode="(" horiz-adv-x="686" d="M209 393q0 292 128 559q128 266 394 523l170 -121q-220 -248 -326 -485q-106 -236 -106 -476q0 -154 38 -288q37 -129 116 -248l-179 -109q-121 143 -178 301q-57 157 -57 344z" />
<glyph unicode=")" horiz-adv-x="686" d="M2 -131q220 249 326 484q106 236 106 476q0 154 -38 288q-38 133 -115 249l178 109q121 -143 178 -301q57 -157 57 -345q0 -292 -128 -559q-127 -264 -394 -522z" />
<glyph unicode="*" horiz-adv-x="806" d="M270 1235l109 233l180 -118l-24 213h276l-92 -213l201 112l51 -229l-240 -21l152 -159l-219 -144l-64 201l-115 -201l-202 144l206 157z" />
<glyph unicode="+" d="M229 424l39 217h316l59 340l254 18l-63 -358h340l-82 -217h-297l-60 -340l-252 -18l62 358h-316z" />
<glyph unicode="," horiz-adv-x="483" d="M23 -244q150 127 178 244h-95l41 236l275 24l-27 -151q-12 -72 -30 -132q-16 -52 -51 -111q-32 -54 -83 -103q-54 -53 -129 -103z" />
<glyph unicode="-" horiz-adv-x="602" d="M145 432l35 201h477l-63 -201h-449z" />
<glyph unicode="." horiz-adv-x="483" d="M106 0l41 236l275 24l-45 -260h-271z" />
<glyph unicode="/" horiz-adv-x="759" d="M53 -20l4 40l660 1416h241l-4 -41l-659 -1415h-242z" />
<glyph unicode="0" horiz-adv-x="1253" d="M203 424q0 89 11 176q13 102 32 185q24 104 47 176q27 84 57 147q80 170 204 249t310 79q231 0 334 -115q102 -114 102 -330q0 -92 -11 -177q-13 -102 -32 -184q-23 -101 -47 -175q-28 -87 -57 -148q-79 -169 -204 -249q-122 -78 -310 -78q-232 0 -334 114t-102 330z M475 420q0 -129 44 -182q45 -54 136 -54q90 0 155 56t114 200q21 60 37 118q18 65 33 140q17 84 25 151q9 76 9 146q0 130 -44 183t-136 53q-91 0 -155 -55q-63 -54 -113 -199q-22 -61 -37 -119q-22 -83 -34 -141q-17 -84 -25 -151q-9 -77 -9 -146z" />
<glyph unicode="1" horiz-adv-x="882" d="M285 1247l422 164h202l-247 -1411h-261l205 1165l-274 -110z" />
<glyph unicode="2" horiz-adv-x="1144" d="M117 152q101 77 224 181q103 87 224 193q191 172 279 291q92 124 92 238q0 176 -211 176q-96 0 -202 -26q-108 -27 -208 -68l62 229q85 33 186 51q106 19 199 19q209 0 318 -103q108 -102 108 -270q0 -79 -26 -157q-24 -73 -79 -154q-54 -80 -138 -164q-92 -91 -202 -185 q-18 -15 -57 -48.5t-60 -51.5q-54 -46 -128 -102h559l-70 -201h-862z" />
<glyph unicode="3" horiz-adv-x="1122" d="M109 61l16 209q101 -45 184 -66q88 -22 185 -22q166 0 248 76q83 77 83 197q0 111 -60 152q-59 40 -185 40h-174l34 197h172q80 0 134 20q58 21 93 55t53 77q17 41 17 91q0 160 -211 160q-83 0 -182 -25q-100 -26 -192 -63l55 207q85 33 183 51q103 19 198 19 q189 0 295 -88t106 -248q0 -109 -58 -203t-190 -147q82 -34 130 -109q47 -74 47 -178q0 -116 -44 -207q-43 -90 -121 -152q-76 -61 -183 -93q-103 -31 -228 -31q-236 0 -405 81z" />
<glyph unicode="4" horiz-adv-x="1249" d="M174 453l674 958h260l-6 -41l-610 -856h364l72 404l258 34l-78 -438h176l-70 -201h-141l-55 -313h-252l55 313h-624z" />
<glyph unicode="5" horiz-adv-x="1181" d="M170 61l16 209q90 -44 186 -66q97 -22 183 -22q164 0 251 78t87 219q0 197 -246 197q-99 0 -176 -14q-90 -16 -168 -41l186 790h738l-74 -201h-485l-84 -350q78 19 166 19q204 0 306 -99q101 -98 101 -284q0 -114 -38 -210q-38 -97 -112 -163q-77 -69 -186 -106 q-110 -37 -254 -37q-109 0 -209 20q-105 21 -188 61z" />
<glyph unicode="6" horiz-adv-x="1191" d="M205 520q0 208 49 376q50 171 143 289t229 185q134 66 304 66q66 0 141 -13q73 -13 119 -28l6 -195q-51 21 -114 33t-134 12q-172 0 -284 -106q-114 -108 -160 -312q80 38 151 57q79 21 166 21q175 0 268 -99t93 -282q0 -261 -139 -403q-138 -141 -390 -141 q-214 0 -331 141t-117 399zM473 524q0 -166 51 -254t146 -88q117 0 180 87t63 247q0 86 -44 133t-134 47q-60 0 -126 -15q-64 -14 -132 -44q-2 -38 -3 -56t-1 -57z" />
<glyph unicode="7" horiz-adv-x="1124" d="M207 88l762 1122h-678l39 201h915l51 -131l-886 -1311z" />
<glyph unicode="8" horiz-adv-x="1210" d="M166 352q0 77 25 137q26 63 72 112q48 51 110 88q68 41 139 67q-80 51 -125 124q-43 70 -43 167q0 93 37 164q39 75 102 122q65 48 155 76q88 27 193 27q193 0 303 -90q109 -90 109 -244q0 -130 -80 -216q-79 -85 -217 -138q116 -55 175 -137t59 -197q0 -94 -37 -172 q-38 -81 -108 -139t-174 -91q-100 -32 -234 -32q-211 0 -336 96t-125 276zM430 352q0 -86 55 -131t160 -45q123 0 196 62q72 62 72 170q0 90 -54 139q-53 48 -161 94q-56 -17 -101 -43q-49 -28 -85 -62q-36 -35 -59 -82q-23 -48 -23 -102zM608 1055q0 -78 39 -126t117 -87 q121 46 172 114q51 67 51 142q0 71 -43 113q-44 42 -129 42q-89 0 -148 -51t-59 -147z" />
<glyph unicode="9" horiz-adv-x="1191" d="M246 215q52 -21 113 -33q63 -12 135 -12q170 0 283 106q114 107 161 310q-74 -35 -152 -56q-76 -20 -165 -20q-175 0 -268 99t-93 282q0 262 138 403q139 142 390 142q214 0 332 -142q117 -141 117 -399q0 -208 -49 -376q-49 -169 -144 -289q-93 -118 -228 -185 q-131 -65 -304 -65q-72 0 -141 12q-73 13 -119 28zM528 899q0 -86 44 -133t135 -47q58 0 124 15q67 15 134 42q1 9 2 28.5t1 29.5q1 19 1 57q0 165 -51 254q-51 88 -146 88q-117 0 -180 -87q-64 -88 -64 -247z" />
<glyph unicode=":" horiz-adv-x="483" d="M106 0l41 236l275 24l-45 -260h-271zM240 752l41 235l274 25l-45 -260h-270z" />
<glyph unicode=";" horiz-adv-x="483" d="M23 -244q150 127 178 244h-95l41 236l275 24l-27 -151q-12 -72 -30 -132q-16 -52 -51 -111q-32 -54 -83 -103q-54 -53 -129 -103zM240 752l41 235l274 25l-45 -260h-270z" />
<glyph unicode="&#x3c;" d="M266 485l21 121l751 414l95 -191l-547 -301l434 -295l-148 -163z" />
<glyph unicode="=" d="M199 233l39 218h905l-82 -218h-862zM274 672l39 217h906l-82 -217h-863z" />
<glyph unicode="&#x3e;" d="M246 260l547 301l-435 295l148 164l608 -416l-20 -121l-754 -413z" />
<glyph unicode="?" horiz-adv-x="940" d="M213 0l41 236l274 24l-45 -260h-270zM248 1151l65 225q60 24 144 42t166 18q227 0 334 -93q106 -92 106 -235q0 -152 -81 -257q-82 -106 -253 -185l-96 -45q-75 -34 -90 -113l-17 -84l-235 -29l22 152q7 45 24 90q15 40 41 70q26 31 61 57t83 51l76 41q88 46 135 100 q45 52 45 140q0 72 -48 109q-49 38 -155 38q-69 0 -152 -23q-86 -24 -175 -69z" />
<glyph unicode="@" horiz-adv-x="1683" d="M139 297q0 183 72 342q73 161 198 280t298 188t372 69q137 0 251 -34q116 -35 199 -104q84 -70 130 -177q47 -109 47 -255q0 -121 -37 -219q-38 -99 -101 -167q-62 -66 -152 -105q-86 -37 -187 -37q-76 0 -122 20q-48 21 -77 56q-52 -36 -107 -56q-56 -20 -124 -20 q-104 0 -167 69t-63 199q0 90 27 173q28 85 76 148q50 65 116 102q68 38 150 38q64 0 106 -20q43 -21 60 -42l24 39l168 11l-75 -406q-8 -49 -8 -51q-3 -22 -3 -39q0 -59 60 -59q36 0 73 25t66 72q27 45 46 113q18 66 18 148q0 197 -108 296t-308 99q-154 0 -275 -56 q-125 -58 -209 -151q-88 -97 -133 -218q-47 -126 -47 -259q0 -210 115 -311q113 -100 342 -100q242 0 457 75l-64 -194q-85 -24 -200 -42q-114 -18 -226 -18q-178 0 -307 42q-127 41 -211 119q-82 76 -121 183t-39 234zM799 356q0 -120 86 -120q26 0 52 10q31 12 54 26v13 q0 22 3 49q4 36 7 55l43 225q-30 27 -73 27q-38 0 -71 -25q-32 -24 -54 -64q-24 -42 -35 -91q-12 -51 -12 -105z" />
<glyph unicode="A" horiz-adv-x="1292" d="M37 0l8 41l703 1364l290 16l226 -1380l-9 -41h-258l-43 301h-505l-146 -301h-266zM547 500h379l-54 372q-9 60 -14 144q-4 64 -4 133h-12q-25 -71 -49 -132q-26 -66 -64 -145z" />
<glyph unicode="B" horiz-adv-x="1257" d="M135 0l248 1411h500q129 0 206 -18q76 -18 123 -56q91 -73 91 -217q0 -244 -222 -362q189 -68 189 -281q0 -221 -140 -350q-136 -127 -495 -127h-500zM432 184h205q200 0 276 76q84 84 84 219q0 150 -237 150h-250zM545 825h178q87 0 143 18q57 19 95 52q75 68 75 192 q0 72 -32 101q-21 18 -55 27q-38 10 -97 10h-238z" />
<glyph unicode="C" horiz-adv-x="1198" d="M193 471q0 340 139 614q91 178 240 264q150 87 380 87q98 0 205 -16q99 -15 172 -36l-6 -208q-186 59 -369 59q-124 0 -212 -49t-148 -154q-59 -104 -91 -244q-32 -142 -32 -305q0 -303 287 -303q98 0 207 20t223 58l-74 -219q-71 -26 -180 -43q-103 -16 -211 -16 q-530 0 -530 491z" />
<glyph unicode="D" horiz-adv-x="1398" d="M135 0l248 1411h430q192 0 323 -28q124 -27 201 -99q59 -52 91 -140t32 -206q0 -54 -8 -131q-6 -56 -24 -147q-16 -78 -37 -148q-22 -71 -50 -137q-51 -117 -112 -186q-62 -71 -150 -114q-87 -43 -197 -59q-108 -16 -253 -16h-494zM434 201h225q87 0 153 12q68 12 117 42 q52 32 88 79q39 51 68 123q40 93 68 220q29 130 29 245q0 71 -15 127q-15 55 -55 92q-46 45 -127 57q-80 12 -199 12h-174z" />
<glyph unicode="E" horiz-adv-x="1081" d="M135 0l248 1411h883l-70 -201h-584l-69 -391h456l-38 -196h-453l-74 -422h625l-70 -201h-854z" />
<glyph unicode="F" horiz-adv-x="1058" d="M135 0l248 1411h883l-70 -201h-584l-67 -391h454l-38 -196h-451l-111 -623h-264z" />
<glyph unicode="G" horiz-adv-x="1413" d="M193 494q0 131 28 270q29 141 78 258q44 104 107 184q62 78 144 129q85 53 189 76q111 25 240 25q130 0 248 -22q104 -19 213 -52l-6 -203q-105 31 -222 53q-124 23 -223 23q-172 0 -274 -78q-103 -79 -164 -239q-37 -97 -58 -211q-22 -118 -22 -213q0 -169 68 -242 q67 -72 215 -72q167 0 307 84l55 320h-248v209h549l-139 -793h-180l-25 74q-72 -43 -164 -69q-90 -25 -213 -25q-249 0 -375 123q-128 125 -128 391z" />
<glyph unicode="H" horiz-adv-x="1384" d="M135 0l248 1401l266 18l-106 -598h587l103 580l266 18l-250 -1419h-264l109 621h-586l-109 -621h-264z" />
<glyph unicode="I" horiz-adv-x="559" d="M147 0l248 1401l267 18l-250 -1419h-265z" />
<glyph unicode="J" horiz-adv-x="860" d="M92 201q46 -12 82 -16q45 -5 80 -5q144 0 205 66q56 60 78 182l172 973l266 18l-180 -1024q-34 -201 -154 -307q-65 -55 -146 -81q-85 -27 -188 -27q-54 0 -103 7q-61 9 -106 19z" />
<glyph unicode="K" horiz-adv-x="1257" d="M135 0l248 1401l266 18l-114 -649l745 633l154 -172l-543 -449l344 -727l-10 -55h-256l-277 616l-215 -176l-78 -440h-264z" />
<glyph unicode="L" horiz-adv-x="1062" d="M135 0l248 1401l266 18l-215 -1218h598l-69 -201h-828z" />
<glyph unicode="M" horiz-adv-x="1732" d="M123 0l315 1403l254 18l242 -1003l571 987l285 16l-180 -1421h-254l119 930l-488 -834h-203l-211 834l-196 -930h-254z" />
<glyph unicode="N" horiz-adv-x="1458" d="M135 0l248 1401l225 16l531 -1016l176 1000l258 18l-250 -1419h-254l-506 971l-172 -971h-256z" />
<glyph unicode="O" horiz-adv-x="1413" d="M190 481q0 45 7 122q7 76 20 139q16 76 36 148q19 69 52 144q96 220 255 311q158 91 378 91q276 0 405 -126q130 -127 130 -376q0 -45 -7 -122q-7 -76 -20 -139q-16 -76 -36 -148q-19 -69 -52 -144q-96 -218 -255 -310q-158 -91 -378 -91q-278 0 -406 125 q-129 126 -129 376zM469 487q0 -165 65 -236t199 -71q82 0 143 23q62 23 104 61q47 42 75 91q32 56 53 112q19 52 32 101q15 57 27 117q13 66 20 123q7 59 7 120q0 165 -65 236t-199 71q-82 0 -143 -23q-62 -23 -104 -61q-47 -42 -75 -91q-32 -56 -53 -112q-19 -52 -32 -101 q-15 -57 -27 -117q-13 -66 -20 -123q-7 -59 -7 -120z" />
<glyph unicode="P" horiz-adv-x="1193" d="M135 0l248 1411h496q129 0 213 -29q81 -28 131 -84q80 -92 80 -262q0 -238 -123 -389q-70 -86 -199 -130q-130 -44 -313 -44h-185l-84 -473h-264zM516 666h184q174 0 254 108q76 100 76 260q0 94 -43 137q-23 23 -60 35q-41 13 -112 13h-201z" />
<glyph unicode="Q" horiz-adv-x="1413" d="M190 481q0 45 7 122q7 76 20 139q16 76 36 148q19 69 52 144q96 220 255 311q158 91 378 91q276 0 405 -126q130 -127 130 -376q0 -45 -7 -122q-7 -76 -20 -139q-16 -76 -36 -148q-19 -69 -52 -144q-70 -161 -170 -249q-102 -90 -234 -124l277 -203l-162 -182l-410 359 q-241 15 -355 139q-114 125 -114 360zM469 487q0 -165 65 -236t199 -71q82 0 143 23q62 23 104 61q47 42 75 91q32 56 53 112q19 52 32 101q15 57 27 117q13 66 20 123q7 59 7 120q0 165 -65 236t-199 71q-82 0 -143 -23q-62 -23 -104 -61q-47 -42 -75 -91q-32 -56 -53 -112 q-19 -52 -32 -101q-15 -57 -27 -117q-13 -66 -20 -123q-7 -59 -7 -120z" />
<glyph unicode="R" horiz-adv-x="1200" d="M135 0l248 1411h494q229 0 335 -102q91 -86 91 -256q0 -102 -31 -195q-31 -92 -90 -160q-90 -103 -264 -141l219 -502l-11 -55h-256l-217 537h-159l-95 -537h-264zM528 739h197q167 0 236 88q69 89 69 226q0 87 -45 127q-49 43 -158 43h-213z" />
<glyph unicode="S" horiz-adv-x="1091" d="M104 57l19 211q77 -40 182 -64t203 -24q69 0 121 11q60 13 101 38q45 28 70 69t25 101q0 72 -40 115t-123 86l-150 78q-120 62 -188 137q-66 73 -66 201q0 110 48 190t125 131t175 75q99 24 201 24q104 0 206 -21q99 -20 173 -45l-15 -203q-98 35 -172 50q-89 18 -178 18 q-63 0 -116 -10q-58 -11 -97 -34q-42 -25 -65 -61q-25 -39 -25 -90q0 -49 29 -84q27 -33 115 -79l118 -62q80 -41 131 -77q61 -43 98 -86q40 -46 61 -101q22 -58 22 -127q0 -108 -45 -190t-124 -139q-77 -55 -186 -86q-103 -29 -229 -29q-108 0 -216 21q-107 21 -188 56z " />
<glyph unicode="T" horiz-adv-x="1101" d="M225 1210l35 201h1077l-69 -201h-383l-213 -1210h-264l213 1210h-396z" />
<glyph unicode="U" horiz-adv-x="1390" d="M209 385q0 90 20 193l146 823l266 18l-154 -872q-18 -108 -18 -156q0 -211 256 -211q170 0 258 94q85 91 123 306l145 821l262 18l-153 -872q-27 -144 -71 -245q-43 -98 -120 -175q-76 -76 -187 -112q-108 -35 -275 -35q-498 0 -498 405z" />
<glyph unicode="V" horiz-adv-x="1294" d="M279 1370l8 41h258l123 -862q9 -60 14 -146q4 -65 4 -135h12q17 49 50 132q31 78 63 145l428 866h266l-8 -41l-706 -1370h-289z" />
<glyph unicode="W" horiz-adv-x="1863" d="M279 1370l6 41h252l79 -799q0 -9 2 -31.5t3 -36.5q1 -25 3 -77q1 -26 1 -76q0 -27 -2 -65h12q8 33 37 129q23 77 53 149l293 742h287l34 -711q2 -44 2 -74v-84q0 -56 -1 -83q-1 -37 -3 -68h13q6 28 19 65q18 52 28 78q4 9 13 35t15 40q4 8 9 21.5t9 22.5t7 16l365 807 h260l-7 -41l-638 -1370h-275l-43 764q-2 42 -2 88q0 34 1 70q3 78 9 135h-12q-10 -42 -16 -60q-3 -9 -10.5 -34t-11.5 -39q-20 -64 -24 -76q-11 -30 -26 -68l-315 -780h-273z" />
<glyph unicode="X" horiz-adv-x="1234" d="M20 0l9 41l575 707l-289 622l7 41h256l215 -459l350 459h270l-6 -41l-514 -633l330 -696l-9 -41h-262l-247 532l-414 -532h-271z" />
<glyph unicode="Y" horiz-adv-x="1222" d="M279 1370l6 41h256l141 -430q18 -53 35 -131q13 -61 20 -139h13q37 89 69 144t78 130l274 426h263l-7 -41l-585 -846l-92 -524h-265l95 532z" />
<glyph unicode="Z" horiz-adv-x="1167" d="M78 0v141l899 1069h-682l70 201h960v-151l-893 -1059h719l-70 -201h-1003z" />
<glyph unicode="[" horiz-adv-x="624" d="M82 -279l305 1727h430v-193h-205l-235 -1341h209l-68 -193h-436z" />
<glyph unicode="\" horiz-adv-x="786" d="M299 1395l8 41h238l192 -1416l-8 -40h-237z" />
<glyph unicode="]" horiz-adv-x="624" d="M14 -86h203l238 1341h-209l67 193h437l-306 -1727h-430v193z" />
<glyph unicode="^" d="M260 850l490 561h165l306 -600l-195 -100l-221 444l-383 -444z" />
<glyph unicode="_" horiz-adv-x="1046" d="M-63 -295l30 178h1088l-51 -178h-1067z" />
<glyph unicode="`" horiz-adv-x="798" d="M324 1393l145 190l399 -311l-106 -146z" />
<glyph unicode="a" horiz-adv-x="1130" d="M145 362q0 91 18 184q19 97 50 171q61 143 164 218q106 77 264 77q161 0 289 -86l26 45l215 24l-131 -741q-6 -35 -6 -47q0 -21 16 -39q15 -16 50 -16q19 0 32 4q5 1 14.5 4t14.5 4l-49 -164q-25 -9 -62 -14q-31 -4 -65 -4q-67 0 -114 22t-72 70q-80 -48 -156 -71 q-75 -23 -162 -23q-336 0 -336 382zM410 369q0 -205 161 -205q90 0 207 59l4 19l95 536q-89 49 -181 49q-157 0 -233 -188q-24 -62 -39 -133q-14 -67 -14 -137z" />
<glyph unicode="b" horiz-adv-x="1128" d="M119 0l252 1432l262 28l-92 -520q133 72 276 72q338 0 338 -381q0 -95 -16 -181q-16 -88 -52 -176q-118 -294 -432 -294q-162 0 -284 83l-27 -63h-225zM414 219q91 -55 192 -55q156 0 232 188q24 62 39 133q14 67 14 144q0 198 -162 198q-96 0 -219 -65z" />
<glyph unicode="c" horiz-adv-x="925" d="M145 367q0 144 49 282q48 135 136 223q140 140 372 140q97 0 169 -18q83 -21 137 -40l-11 -188q-83 32 -145 46q-69 15 -127 15q-73 0 -122 -24q-48 -23 -87 -72q-49 -63 -78 -158q-28 -93 -28 -194q0 -116 43 -165q44 -50 147 -50q66 0 150 18q79 17 170 60l-54 -205 q-66 -25 -142 -41q-77 -16 -173 -16q-113 0 -189 25q-77 25 -125 75q-49 51 -70 122q-22 75 -22 165z" />
<glyph unicode="d" horiz-adv-x="1126" d="M147 360q0 186 68 357q118 295 432 295q146 0 268 -76l89 496l262 28l-258 -1460h-211l-9 68q-145 -88 -303 -88q-338 0 -338 380zM412 362q0 -198 161 -198q97 0 218 63l96 545q-91 55 -191 55q-155 0 -231 -188q-24 -62 -39 -133q-14 -67 -14 -144z" />
<glyph unicode="e" horiz-adv-x="1046" d="M145 381q0 85 17 167q17 81 43 142q131 322 487 322q192 0 291 -90q98 -89 98 -277q0 -47 -6 -102q-6 -60 -22 -119h-637q-2 -10 -3 -27q-1 -11 -1 -32q0 -115 60 -158q59 -43 171 -43q77 0 166 18q83 17 174 60l-53 -205q-147 -57 -332 -57q-235 0 -344 95t-109 306z M446 602h381q7 44 7 72q0 155 -140 155q-92 0 -151 -58q-60 -58 -97 -169z" />
<glyph unicode="f" horiz-adv-x="708" d="M160 0l141 809h-141l30 180h144l24 139q18 99 55 167q36 67 87 107q48 38 117 57q66 18 145 18q39 0 95 -7q50 -6 85 -16v-180q-41 9 -75 13q-47 5 -76 5q-80 0 -122 -45q-43 -46 -59 -145l-20 -113h244l-60 -180h-217l-141 -809h-256z" />
<glyph unicode="g" horiz-adv-x="1126" d="M145 360q0 186 68 357q118 295 432 295q161 0 295 -92l29 51l215 24l-180 -1018q-37 -210 -154 -309q-116 -98 -340 -98q-77 0 -146 11q-76 12 -128 30v184q55 -17 125 -28q72 -11 120 -11q54 0 101 11q45 11 77 35q33 26 56 68t33 105l12 76q-135 -71 -277 -71 q-338 0 -338 380zM410 362q0 -198 161 -198q97 0 220 65l96 543q-95 55 -193 55q-155 0 -231 -188q-24 -62 -39 -133q-14 -67 -14 -144z" />
<glyph unicode="h" horiz-adv-x="1136" d="M119 0l252 1432l262 28l-94 -534q73 41 149 63q80 23 150 23q144 0 223 -78q80 -78 80 -221q0 -35 -4 -63q-5 -33 -15 -83l-100 -567h-256l98 559q2 13 6.5 38.5t6.5 36.5q4 27 4 52q0 133 -133 133q-53 0 -114 -19q-56 -17 -128 -55l-131 -745h-256z" />
<glyph unicode="i" horiz-adv-x="509" d="M127 0l170 967l262 28l-176 -995h-256zM340 1190l39 215l260 20l-43 -235h-256z" />
<glyph unicode="j" horiz-adv-x="509" d="M-201 -227q57 -17 113 -17q94 0 141 45q47 46 62 127l182 1039l262 28l-190 -1075q-17 -99 -54 -165q-38 -68 -91 -107q-57 -43 -125 -60q-70 -18 -154 -18q-35 0 -77 5q-40 5 -69 15v183zM338 1190l39 215l260 20l-43 -235h-256z" />
<glyph unicode="k" horiz-adv-x="1042" d="M119 0l252 1432l262 28l-111 -618q-15 -85 -26 -132q-14 -58 -33 -130l6 -2q43 43 91 86q18 16 91 75l367 285l127 -158l-371 -280l275 -549l-7 -37h-243l-213 442l-154 -114l-57 -328h-256z" />
<glyph unicode="l" horiz-adv-x="493" d="M119 0l252 1432l262 28l-258 -1460h-256z" />
<glyph unicode="m" horiz-adv-x="1751" d="M119 0l170 967l219 28l2 -84q79 47 158 74q80 27 157 27q182 0 258 -127q81 60 180 94q95 33 189 33q144 0 224 -78q79 -78 79 -221q0 -35 -4 -63q-7 -49 -14 -83l-101 -567h-256l99 559q11 69 13 81q5 40 5 65q0 53 -32 83q-33 31 -99 31q-57 0 -117 -20 q-65 -22 -127 -60q2 -8 2 -13v-13q0 -35 -4 -63q-7 -49 -14 -83l-100 -567h-256l98 559q12 69 13 81q5 40 5 65q0 53 -31 83q-33 31 -100 31q-50 0 -110 -18q-58 -17 -119 -51l-131 -750h-256z" />
<glyph unicode="n" horiz-adv-x="1136" d="M119 0l170 967l219 28l2 -86q77 48 164 76q84 27 164 27q144 0 223 -78q80 -78 80 -221q0 -35 -4 -63q-5 -33 -15 -83l-100 -567h-256l98 559q2 13 6.5 38.5t6.5 36.5q4 27 4 52q0 133 -133 133q-53 0 -114 -19q-56 -17 -128 -55l-131 -745h-256z" />
<glyph unicode="o" horiz-adv-x="1101" d="M145 358q0 116 35 236q35 122 94 211q67 105 182 156q114 51 261 51q201 0 308 -94q108 -94 108 -281q0 -117 -35 -239q-34 -118 -92 -208q-69 -107 -184 -159q-114 -51 -261 -51q-199 0 -308 95q-108 95 -108 283zM410 365q-2 -201 172 -201q62 0 115 33t87 94 q43 76 63 161q21 88 21 175q0 101 -44 151q-43 49 -128 49q-63 0 -115 -31q-51 -31 -87 -96q-37 -69 -60 -158q-22 -88 -24 -177z" />
<glyph unicode="p" horiz-adv-x="1128" d="M49 -391l240 1358l219 28l2 -73q150 90 307 90q338 0 338 -381q0 -95 -16 -181q-16 -88 -52 -176q-118 -294 -432 -294q-154 0 -270 75l-76 -426zM414 217q48 -29 95 -41q48 -12 97 -12q156 0 232 188q24 62 39 133q14 67 14 144q0 198 -162 198q-96 0 -219 -65z" />
<glyph unicode="q" horiz-adv-x="1116" d="M143 360q0 186 68 357q118 295 432 295q162 0 289 -88l26 47l216 24l-242 -1366l-258 -20l76 438q-128 -67 -269 -67q-338 0 -338 380zM408 362q0 -198 161 -198q95 0 211 61l97 551q-91 51 -185 51q-155 0 -231 -188q-24 -62 -39 -133q-14 -67 -14 -144z" />
<glyph unicode="r" horiz-adv-x="692" d="M119 0l170 967l219 28l4 -90q63 47 133 77q69 30 141 30q36 0 66 -6l-53 -207q-12 4 -32 6q-26 2 -42 2q-54 0 -111 -15q-51 -13 -108 -47l-131 -745h-256z" />
<glyph unicode="s" horiz-adv-x="858" d="M78 39l22 188q69 -35 147 -53q79 -18 159 -18q102 0 158 33q59 35 59 92q0 35 -28 60q-25 22 -93 50l-111 45q-110 44 -160 103q-51 60 -51 151q0 82 35 143q34 59 93 100q57 39 134 59q78 20 158 20q96 0 179 -17q81 -17 141 -39l-29 -178q-61 23 -133 39 q-76 17 -146 17q-80 0 -133 -27t-53 -82q0 -35 30 -56q31 -22 79 -42l75 -31q70 -28 121 -57q48 -28 80 -61q31 -33 44 -71q13 -39 13 -92q0 -83 -39 -146q-39 -62 -104 -104q-68 -43 -152 -64q-85 -21 -180 -21q-81 0 -167 15q-83 15 -148 44z" />
<glyph unicode="t" horiz-adv-x="724" d="M184 809l31 180h147l84 238l207 14l-45 -252h244l-57 -180h-217l-84 -473q-1 -9 -3.5 -20.5t-4 -18.5t-1.5 -12q-2 -22 -2 -35q0 -50 29 -68q28 -18 76 -18q75 0 147 22l-61 -182q-30 -8 -89 -17q-46 -7 -100 -7q-122 0 -191 54t-69 177q0 38 4 69q1 7 11 70l79 459h-135 z" />
<glyph unicode="u" horiz-adv-x="1110" d="M168 266q0 40 4 73q6 53 14 91l95 537l262 28l-105 -589q-6 -38 -9 -60q-3 -23 -3 -43q0 -135 158 -135q112 0 164 59q50 55 71 181l99 559l258 28l-103 -579q-22 -120 -52 -187q-31 -69 -81 -120q-128 -129 -389 -129q-205 0 -293 78q-90 80 -90 208z" />
<glyph unicode="v" horiz-adv-x="1030" d="M201 952l6 37h256l78 -442q9 -54 16 -122q6 -60 6 -134h12q16 59 39 109t50 100l262 489h245l-6 -37l-534 -952h-234z" />
<glyph unicode="w" horiz-adv-x="1511" d="M209 952l6 37h242l37 -403q8 -94 11 -162q1 -36 1 -69q0 -45 -2 -87h12q15 53 41 126q23 67 45 116l201 444h213l45 -376q8 -72 14 -164q4 -64 4 -146h13q28 97 37 121q14 39 47 115l217 485h252l-7 -37l-458 -952h-254l-45 350q-11 73 -14 143q-2 38 -2 87q0 32 1 69 h-12q-16 -55 -38 -118q-17 -49 -50 -125l-184 -406h-258z" />
<glyph unicode="x" horiz-adv-x="958" d="M16 0l7 37l409 485l-227 430l6 37h231l164 -309l250 309h227l-6 -37l-379 -446l250 -469l-6 -37h-231l-185 348l-282 -348h-228z" />
<glyph unicode="y" horiz-adv-x="1030" d="M186 -336l209 346l-194 942l6 37h256l76 -452q6 -33 17 -117q7 -52 7 -129h12q16 59 39 109t50 100l262 489h245l-6 -37l-776 -1382z" />
<glyph unicode="z" horiz-adv-x="917" d="M80 125l579 684h-452l63 180h746l-21 -121l-579 -688h477l-68 -180h-739z" />
<glyph unicode="{" horiz-adv-x="731" d="M178 502l31 168q83 18 124 59q39 39 56 127l60 336q24 142 107 199q82 57 232 57h136v-193h-74q-74 0 -107 -29q-34 -30 -49 -118l-53 -303q-16 -80 -67 -140q-49 -58 -138 -85q58 -29 91 -76q32 -46 32 -117q0 -25 -3 -52q-2 -22 -11 -75l-31 -174q-7 -46 -8 -53 q-2 -22 -2 -35q0 -84 92 -84h96l-67 -193h-111q-148 0 -212 60t-64 176q0 29 3 51l7 49l41 232q5 27 6 42q2 20 2 34q0 104 -119 137z" />
<glyph unicode="|" horiz-adv-x="516" d="M127 -47l260 1481l250 16l-262 -1481z" />
<glyph unicode="}" horiz-adv-x="733" d="M14 -86h74q38 0 63 6q26 6 44 24q17 17 29 46q13 31 20 71l53 304q15 82 64 140q48 57 141 85q-55 29 -90 75q-33 43 -33 117q0 26 3 53q2 19 11 74l31 174q7 45 8 54q2 22 2 34q0 84 -92 84h-96l67 193h111q149 0 212 -59q64 -60 64 -177q0 -28 -3 -51l-7 -49l-41 -231 q-5 -27 -6 -42q-2 -20 -2 -34q0 -104 119 -137l-31 -168q-81 -17 -124 -60q-39 -39 -56 -127l-60 -336q-24 -141 -107 -198q-84 -58 -232 -58h-136v193z" />
<glyph unicode="~" d="M172 492q61 142 138 204t194 62q66 0 123 -23q49 -20 101 -50q66 -39 87 -50q41 -23 82 -23q59 0 100 35q42 36 82 117l142 -92q-61 -142 -139 -205q-76 -61 -193 -61q-63 0 -116 22q-48 20 -103 50q-86 47 -92 50q-44 23 -82 23q-60 0 -101 -35q-42 -36 -82 -117z" />
<glyph unicode="&#xa1;" horiz-adv-x="495" d="M33 -440l200 1028l236 28l-152 -1032zM240 752l45 260h270l-41 -236z" />
<glyph unicode="&#xa2;" horiz-adv-x="987" d="M184 356q0 361 211 541q64 54 148 82t170 33l30 170l191 20l-37 -207q44 -8 78 -19q6 -2 72 -22l-11 -188q-84 35 -172 51l-114 -643q93 17 208 68l-53 -205q-81 -32 -188 -49l-33 -193l-188 -20l36 207q-348 27 -348 374zM449 367q0 -167 116 -197l115 647 q-76 -21 -125 -88q-106 -139 -106 -362z" />
<glyph unicode="&#xa3;" horiz-adv-x="1118" d="M100 0v162q102 45 161 120q56 71 79 191l27 152h-152l31 182h151l39 215q38 216 154 314q118 100 315 100q90 0 169 -17q77 -17 128 -39l-16 -198q-50 21 -120 36q-71 15 -130 15q-47 0 -84 -10q-39 -10 -71 -38q-30 -25 -55 -76q-23 -45 -38 -124l-33 -178h359l-70 -182 h-319l-35 -199q-15 -75 -46 -129q-32 -55 -93 -96h632l-69 -201h-914z" />
<glyph unicode="&#xa4;" horiz-adv-x="1196" d="M123 352l192 160q-15 29 -23 68q-7 32 -7 69q0 74 26 135q29 67 70 121l-131 160l203 162l135 -162q46 24 100 36q48 11 107 11q55 0 99 -11q47 -12 91 -36l195 166l143 -166l-193 -160q17 -33 24 -67q7 -32 7 -70q0 -74 -26 -135q-29 -67 -70 -121l131 -160l-203 -162 l-135 162q-46 -24 -100 -36q-48 -11 -107 -11q-55 0 -99 11q-47 12 -91 36l-195 -166zM545 666q0 -67 40 -107q41 -41 105 -41q98 0 155 68q56 66 56 166q0 66 -40 106q-41 41 -105 41q-98 0 -155 -68q-56 -66 -56 -165z" />
<glyph unicode="&#xa5;" horiz-adv-x="1234" d="M260 203l33 176h258l20 115h-254l29 176h184l-251 700l6 41h256l213 -649l417 649h263l-7 -41l-485 -700h205l-66 -176h-245l-21 -115h244l-66 -176h-209l-34 -203h-265l35 203h-260z" />
<glyph unicode="&#xa6;" horiz-adv-x="516" d="M127 -47l102 584l250 22l-104 -590zM285 850l102 584l250 16l-102 -580z" />
<glyph unicode="&#xa7;" horiz-adv-x="985" d="M201 25l8 182q62 -25 133 -38q62 -11 137 -11q37 0 68 4q35 5 61 16q25 11 44 33q18 21 18 55q0 41 -35 62q-31 19 -74 37l-98 38q-40 16 -90 43q-39 21 -76 57q-33 31 -51 72q-19 43 -19 93q0 88 48 152q48 65 118 118q-32 28 -55 72q-21 40 -21 94q0 84 34 146 q35 64 91 104q55 39 135 61q77 21 160 21q73 0 150 -11q75 -11 145 -34l-8 -183q-62 25 -133 38q-62 11 -137 11q-38 0 -69 -4q-34 -4 -60 -16q-24 -11 -44 -34q-18 -21 -18 -54q0 -41 35 -62q25 -15 74 -36l98 -39q40 -16 90 -43q41 -23 75 -58q33 -35 51 -72 q20 -42 20 -91q0 -87 -50 -154t-118 -117q35 -33 56 -74t21 -92q0 -86 -33 -146q-35 -64 -91 -104q-55 -39 -135 -61q-73 -20 -160 -20q-80 0 -150 10t-145 35zM473 719q0 -49 38 -75q39 -26 83 -44l86 -39q28 24 56 61q24 32 24 74q0 49 -38 75q-39 26 -83 44l-88 37 q-33 -27 -55 -59q-23 -34 -23 -74z" />
<glyph unicode="&#xa8;" horiz-adv-x="798" d="M266 1190l39 215l260 20l-43 -235h-256zM709 1190l39 215l260 20l-43 -235h-256z" />
<glyph unicode="&#xa9;" horiz-adv-x="1671" d="M197 594q0 191 68 343q69 154 189 265t281 172q163 62 350 62q138 0 256 -44q114 -43 202 -124q84 -78 133 -193q48 -113 48 -252q0 -191 -68 -343q-69 -154 -189 -265t-281 -172t-350 -61q-140 0 -257 43q-119 44 -203 122q-85 79 -132 194t-47 253zM428 590 q0 -96 30 -174t85 -133q57 -57 133 -86q81 -31 174 -31q141 0 261 50q117 49 203 138t132 209q47 123 47 264q0 91 -31 173q-30 79 -86 135q-57 57 -133 86q-78 30 -172 30q-141 0 -261 -50q-117 -49 -203 -138t-132 -209q-47 -123 -47 -264zM631 631q0 103 34 195 q35 95 105 165q53 53 124 76q72 23 146 23q108 0 207 -27l-4 -156q-45 13 -84 20q-41 7 -88 7q-46 0 -88 -20q-41 -20 -68 -60q-31 -49 -43 -101q-12 -54 -12 -110q0 -64 43 -94q45 -31 107 -31q48 0 94 12q44 11 92 29l-43 -162q-55 -20 -117 -28q-72 -9 -118 -9 q-124 0 -206 73q-81 72 -81 198z" />
<glyph unicode="&#xaa;" horiz-adv-x="819" d="M250 1020q0 80 22 155q22 76 65 137t103 98q62 38 140 38q49 0 83 -14t62 -39l35 45h211l-78 -367q-2 -8 -4 -21t-3 -17q-3 -15 -3 -27q0 -31 22 -40q23 -9 62 1l-56 -166q-32 -12 -56 -16q-33 -5 -58 -5q-45 0 -82 15q-39 16 -62 53q-46 -33 -95 -51q-51 -19 -112 -19 q-96 0 -146 66q-50 67 -50 174zM494 1024q0 -49 18 -70q17 -20 47 -20q42 0 70 31l65 309q-23 20 -55 20t-59 -24q-25 -22 -46 -64q-20 -39 -30 -87q-10 -46 -10 -95z" />
<glyph unicode="&#xab;" horiz-adv-x="1048" d="M139 446l8 43l390 418l145 -110l-285 -330l170 -328l-182 -110zM604 446l8 43l389 418l146 -110l-285 -330l170 -328l-182 -110z" />
<glyph unicode="&#xac;" d="M229 424l39 217h908l-89 -500l-243 -18l51 301h-666z" />
<glyph unicode="&#xad;" horiz-adv-x="602" d="M145 432l35 201h477l-63 -201h-449z" />
<glyph unicode="&#xae;" horiz-adv-x="1794" d="M258 594q0 188 69 343t188 265t282 172t350 62q138 0 256 -44q114 -43 202 -124q84 -78 133 -193q48 -113 48 -252q0 -189 -69 -343q-69 -155 -188 -265t-282 -172q-161 -61 -350 -61q-140 0 -257 43q-119 44 -203 122q-85 79 -132 194t-47 253zM489 590q0 -96 30 -174 t85 -133q57 -57 133 -86q81 -31 174 -31q141 0 261 50q117 49 203 138t132 209q47 123 47 264q0 93 -30 173q-30 79 -86 135q-57 57 -133 86q-78 30 -172 30q-142 0 -262 -50q-115 -48 -202 -138q-86 -89 -132 -209q-48 -125 -48 -264zM698 377l125 708h281q96 0 158 -46 q63 -46 63 -146q0 -92 -50 -153q-50 -60 -128 -95l117 -237l-7 -31h-188l-96 229h-35l-39 -229h-201zM965 754h55q47 0 74 34q26 33 26 78q0 38 -19 54t-50 16h-54z" />
<glyph unicode="&#xaf;" horiz-adv-x="798" d="M279 1192l32 192h684l-92 -192h-624z" />
<glyph unicode="&#xb0;" horiz-adv-x="714" d="M283 1196q0 76 26 135q28 64 73 106q47 44 110 68q66 25 137 25q105 0 175 -67q68 -65 68 -173q0 -76 -26 -135q-27 -62 -73 -105q-50 -46 -109 -69q-66 -25 -138 -25q-105 0 -175 67q-68 65 -68 173zM457 1214q0 -41 25 -67q26 -27 67 -27q65 0 107 43t42 109 q0 41 -25 67q-25 27 -67 27q-65 0 -107 -43t-42 -109z" />
<glyph unicode="&#xb1;" d="M156 0l39 217h905l-82 -217h-862zM272 657l37 217h318l51 295l254 23l-58 -318h343l-82 -217h-299l-52 -297l-249 -18l53 315h-316z" />
<glyph unicode="&#xb2;" horiz-adv-x="759" d="M209 795q78 52 161 112q75 53 152 123q38 34 87 85q42 43 42 104q0 37 -28 52q-29 15 -66 15q-60 0 -111 -16q-56 -18 -104 -43l12 182q127 59 267 59q54 0 102 -13t86 -39t58 -65q22 -42 22 -94q0 -83 -45 -152q-45 -68 -109 -122q-112 -91 -221 -154h311l-59 -163h-533 z" />
<glyph unicode="&#xb3;" horiz-adv-x="753" d="M213 694l6 172q47 -19 113 -33q57 -12 117 -12q32 0 57 4q28 4 52 15q24 10 38 29q14 18 14 49q0 42 -38 56q-36 13 -80 13h-97l29 166h106q48 0 86 19q39 20 39 67q0 36 -31 51q-32 15 -69 15q-103 0 -205 -41l12 170q115 34 236 34q60 0 107 -11q50 -12 91 -36 q40 -24 64 -63q25 -41 25 -94q0 -66 -39 -111q-40 -47 -98 -74q41 -29 66 -67q26 -40 26 -90q0 -70 -31 -123q-29 -50 -82 -84q-48 -31 -119 -47q-68 -15 -139 -15q-58 0 -130 10q-67 9 -126 31z" />
<glyph unicode="&#xb4;" horiz-adv-x="798" d="M328 1290l516 299l108 -207l-540 -249z" />
<glyph unicode="&#xb5;" horiz-adv-x="1114" d="M49 -391l240 1358l262 28l-105 -589q-12 -74 -12 -107q0 -131 158 -131q112 0 164 59q48 54 71 181l99 559l258 28l-103 -579q-41 -222 -143 -324q-112 -112 -313 -112q-163 0 -240 77l-76 -428z" />
<glyph unicode="&#xb6;" horiz-adv-x="1247" d="M238 930q0 91 31 172q30 79 96 145q95 95 225 130q127 34 266 34h576l-56 -180h-92l-260 -1475l-258 -14l262 1489h-121l-266 -1505l-258 -17l156 879q-137 23 -218 113q-83 92 -83 229z" />
<glyph unicode="&#xb7;" horiz-adv-x="483" d="M190 471l41 236l275 24l-45 -260h-271z" />
<glyph unicode="&#xb8;" horiz-adv-x="798" d="M145 -428l9 137q75 -35 157 -35q50 0 77 18q28 19 28 48q0 22 -24 36q-23 13 -77 13q-49 0 -106 -12l74 243h166l-41 -126q33 12 77 12q68 0 111 -40t43 -102q0 -48 -22 -90q-21 -41 -60 -71q-40 -31 -92 -47q-54 -17 -117 -17q-50 0 -107 9t-96 24z" />
<glyph unicode="&#xb9;" horiz-adv-x="724" d="M279 1305l321 151h188l-139 -790h-229l96 551l-164 -80z" />
<glyph unicode="&#xba;" horiz-adv-x="784" d="M248 1030q0 76 21 152q20 73 70 134q47 57 124 95q75 37 184 37q283 0 283 -250q0 -73 -22 -152q-21 -76 -69 -134q-47 -57 -124 -95q-75 -37 -185 -37q-282 0 -282 250zM492 1030q0 -84 67 -84q30 0 54 26q23 25 40 64q18 43 25 83q8 46 8 79q0 84 -68 84q-30 0 -54 -27 q-23 -26 -40 -64q-16 -37 -24 -82q-8 -46 -8 -79z" />
<glyph unicode="&#xbb;" horiz-adv-x="1050" d="M66 139l288 328l-170 330l187 110l241 -418l-8 -43l-393 -417zM530 139l289 328l-170 330l187 110l241 -418l-8 -43l-393 -417z" />
<glyph unicode="&#xbc;" horiz-adv-x="1679" d="M252 78l1143 1390l155 -122l-1142 -1391zM262 1305l322 151h188l-139 -790h-230l97 551l-164 -80zM922 285l325 489h226l-7 -33l-276 -411h178l27 151l211 23l-31 -174h96l-51 -168h-74l-28 -162h-207l28 162h-399z" />
<glyph unicode="&#xbd;" horiz-adv-x="1679" d="M260 78l1143 1390l156 -122l-1143 -1391zM262 1305l322 151h188l-139 -790h-230l97 551l-164 -80zM1032 129q55 37 161 113q79 57 153 123q38 34 87 85q42 44 42 103q0 37 -29 52q-30 16 -66 16q-56 0 -110 -17q-59 -18 -105 -43l13 182q129 60 266 60q54 0 102 -13 t86 -39t59 -66q21 -41 21 -93q0 -84 -45 -153q-46 -70 -108 -122q-105 -85 -222 -153h312l-60 -164h-532z" />
<glyph unicode="&#xbe;" horiz-adv-x="1679" d="M215 694l6 172q47 -19 113 -33q57 -12 117 -12q32 0 57 4q28 4 52 15q24 10 38 29q14 18 14 49q0 42 -38 56q-36 13 -80 13h-97l29 166h106q48 0 86 19q39 20 39 67q0 36 -31 51q-32 15 -69 15q-103 0 -205 -41l13 170q115 34 235 34q60 0 107 -11q50 -12 91 -36 q40 -24 64 -63q25 -41 25 -94q0 -66 -39 -111q-40 -47 -98 -74q41 -29 66 -67q26 -40 26 -90q0 -70 -31 -123q-29 -50 -82 -84q-48 -31 -119 -47q-68 -15 -139 -15q-58 0 -130 10q-67 9 -126 31zM322 78l1142 1390l156 -122l-1143 -1391zM946 285l326 489h225l-6 -33 l-277 -411h179l26 151l211 23l-31 -174h97l-51 -168h-74l-29 -162h-207l29 162h-399z" />
<glyph unicode="&#xbf;" horiz-adv-x="942" d="M57 -96q0 152 81 257q82 106 253 185l96 45q75 34 90 113l17 84l235 28l-22 -151q-7 -45 -24 -90q-15 -40 -41 -70q-26 -31 -61 -57t-83 -51l-76 -41q-87 -45 -135 -101q-45 -53 -45 -139q0 -72 48 -110q47 -37 155 -37q69 0 152 23q86 24 175 69l-65 -226 q-61 -24 -143 -42q-79 -17 -166 -17q-229 0 -335 92t-106 236zM592 752l45 260h270l-41 -236z" />
<glyph unicode="&#xc0;" horiz-adv-x="1292" d="M37 0l8 41l703 1364l290 16l226 -1380l-9 -41h-258l-43 301h-505l-146 -301h-266zM500 1772l145 190l399 -311l-106 -146zM547 500h379l-54 372q-9 60 -14 144q-4 64 -4 133h-12q-25 -71 -49 -132q-26 -66 -64 -145z" />
<glyph unicode="&#xc1;" horiz-adv-x="1292" d="M37 0l8 41l703 1364l290 16l226 -1380l-9 -41h-258l-43 301h-505l-146 -301h-266zM547 500h379l-54 372q-9 60 -14 144q-4 64 -4 133h-12q-25 -71 -49 -132q-26 -66 -64 -145zM684 1671l516 299l109 -207l-541 -250z" />
<glyph unicode="&#xc2;" horiz-adv-x="1292" d="M37 0l8 41l703 1364l290 16l226 -1380l-9 -41h-258l-43 301h-505l-146 -301h-266zM547 500h379l-54 372q-9 60 -14 144q-4 64 -4 133h-12q-25 -71 -49 -132q-26 -66 -64 -145zM571 1632l316 312h155l226 -324l-135 -104l-187 219l-252 -219z" />
<glyph unicode="&#xc3;" horiz-adv-x="1292" d="M37 0l8 41l703 1364l290 16l226 -1380l-9 -41h-258l-43 301h-505l-146 -301h-266zM539 1632q41 116 109 175q70 61 155 61q39 0 73 -18q43 -23 66 -36q10 -6 31.5 -18.5t32.5 -18.5q30 -18 63 -18q36 0 76 23q38 22 65 82l119 -78q-46 -120 -110 -173q-66 -54 -148 -54 q-44 0 -79 17q-37 18 -71 37q-23 13 -67 37q-31 17 -66 17q-34 0 -69 -29t-62 -84zM547 500h379l-54 372q-9 60 -14 144q-4 64 -4 133h-12q-25 -71 -49 -132q-26 -66 -64 -145z" />
<glyph unicode="&#xc4;" horiz-adv-x="1292" d="M37 0l8 41l703 1364l290 16l226 -1380l-9 -41h-258l-43 301h-505l-146 -301h-266zM547 500h379l-54 372q-9 60 -14 144q-4 64 -4 133h-12q-25 -71 -49 -132q-26 -66 -64 -145zM565 1573l39 215l260 20l-43 -235h-256zM1008 1573l39 215l260 20l-43 -235h-256z" />
<glyph unicode="&#xc5;" horiz-adv-x="1292" d="M37 0l8 41l703 1364l290 16l226 -1380l-9 -41h-258l-43 301h-505l-146 -301h-266zM547 500h379l-54 372q-9 60 -14 144q-4 64 -4 133h-12q-25 -71 -49 -132q-26 -66 -64 -145zM705 1698q0 112 75 178q77 68 197 68q86 0 143 -48q56 -47 56 -124q0 -112 -76 -179t-197 -67 q-87 0 -143 47q-55 46 -55 125zM864 1718q0 -28 17 -45q16 -16 43 -16q40 0 66 27q26 28 26 71q0 27 -17 42q-16 15 -43 15q-41 0 -66 -26q-26 -28 -26 -68z" />
<glyph unicode="&#xc6;" horiz-adv-x="2009" d="M12 0l8 41l1098 1370h1069l-69 -201h-584l-68 -391h455l-39 -196h-450l-76 -422h624l-69 -201h-854l57 322h-569l-256 -322h-277zM702 518h443l125 692h-13z" />
<glyph unicode="&#xc7;" horiz-adv-x="1198" d="M193 471q0 340 139 614q91 178 240 264q150 87 380 87q98 0 205 -16q99 -15 172 -36l-6 -208q-186 59 -369 59q-124 0 -212 -49t-148 -154q-59 -104 -91 -244q-32 -142 -32 -305q0 -303 287 -303q98 0 207 20t223 58l-74 -219q-71 -26 -180 -43q-103 -16 -211 -16h-22 q-7 0 -21 2l-27 -88q33 12 78 12q68 0 111 -40t43 -102q0 -48 -22 -90q-21 -41 -60 -71q-40 -31 -92 -47q-54 -17 -117 -17q-51 0 -108 9q-55 9 -95 24l8 137q75 -35 158 -35q50 0 77 18q28 19 28 48q0 22 -24 36q-23 13 -77 13q-49 0 -106 -12l67 223q-329 84 -329 471z " />
<glyph unicode="&#xc8;" horiz-adv-x="1081" d="M135 0l248 1411h883l-70 -201h-584l-69 -391h456l-38 -196h-453l-74 -422h625l-70 -201h-854zM489 1772l146 190l399 -311l-106 -146z" />
<glyph unicode="&#xc9;" horiz-adv-x="1081" d="M135 0l248 1411h883l-70 -201h-584l-69 -391h456l-38 -196h-453l-74 -422h625l-70 -201h-854zM643 1671l516 299l109 -207l-541 -250z" />
<glyph unicode="&#xca;" horiz-adv-x="1081" d="M135 0l248 1411h883l-70 -201h-584l-69 -391h456l-38 -196h-453l-74 -422h625l-70 -201h-854zM537 1632l315 312h156l225 -324l-135 -104l-187 219l-252 -219z" />
<glyph unicode="&#xcb;" horiz-adv-x="1081" d="M135 0l248 1411h883l-70 -201h-584l-69 -391h456l-38 -196h-453l-74 -422h625l-70 -201h-854zM510 1573l39 215l260 20l-43 -235h-256zM952 1573l39 215l260 20l-43 -235h-256z" />
<glyph unicode="&#xcc;" horiz-adv-x="559" d="M147 0l248 1401l267 18l-250 -1419h-265zM156 1772l145 190l399 -311l-106 -146z" />
<glyph unicode="&#xcd;" horiz-adv-x="559" d="M147 0l248 1401l267 18l-250 -1419h-265zM418 1671l516 299l108 -207l-540 -250z" />
<glyph unicode="&#xce;" horiz-adv-x="559" d="M147 0l248 1401l267 18l-250 -1419h-265zM221 1632l316 312h155l226 -324l-136 -104l-186 219l-252 -219z" />
<glyph unicode="&#xcf;" horiz-adv-x="559" d="M147 0l248 1401l267 18l-250 -1419h-265zM199 1573l39 215l260 20l-43 -235h-256zM641 1573l39 215l260 20l-43 -235h-256z" />
<glyph unicode="&#xd0;" horiz-adv-x="1458" d="M123 623l39 196h178l104 592h430q192 0 323 -28q125 -27 202 -99q59 -51 91 -139q32 -87 32 -215q0 -40 -9 -121q-8 -74 -22 -140q-17 -80 -37 -149q-23 -80 -49 -145q-46 -117 -113 -188q-69 -74 -158 -113q-95 -42 -202 -58q-108 -16 -242 -16h-493l108 623h-182z M496 201h225q166 0 267 55t161 201q19 47 36 103q16 51 29 121q16 86 21 125q8 67 8 116q0 75 -14 127q-15 55 -55 92q-46 45 -127 57q-80 12 -199 12h-174l-70 -391h311l-81 -196h-265z" />
<glyph unicode="&#xd1;" horiz-adv-x="1458" d="M135 0l248 1401l225 16l531 -1016l176 1000l258 18l-250 -1419h-254l-506 971l-172 -971h-256zM625 1632q41 116 109 175q70 61 155 61q39 0 73 -18q43 -23 66 -36q10 -6 31.5 -18.5t32.5 -18.5q30 -18 63 -18q36 0 76 23q38 22 65 82l119 -78q-46 -120 -110 -173 q-66 -54 -148 -54q-44 0 -79 17q-37 18 -71 37q-23 13 -67 37q-31 17 -66 17q-34 0 -69 -29t-62 -84z" />
<glyph unicode="&#xd2;" horiz-adv-x="1413" d="M190 481q0 45 7 122q7 76 20 139q16 76 36 148q19 69 52 144q96 220 255 311q158 91 378 91q276 0 405 -126q130 -127 130 -376q0 -45 -7 -122q-7 -76 -20 -139q-16 -76 -36 -148q-19 -69 -52 -144q-96 -218 -255 -310q-158 -91 -378 -91q-278 0 -406 125 q-129 126 -129 376zM469 487q0 -165 65 -236t199 -71q82 0 143 23q62 23 104 61q47 42 75 91q32 56 53 112q19 52 32 101q15 57 27 117q13 66 20 123q7 59 7 120q0 165 -65 236t-199 71q-82 0 -143 -23q-62 -23 -104 -61q-47 -42 -75 -91q-32 -56 -53 -112q-19 -52 -32 -101 q-15 -57 -27 -117q-13 -66 -20 -123q-7 -59 -7 -120zM676 1772l145 190l400 -311l-107 -146z" />
<glyph unicode="&#xd3;" horiz-adv-x="1413" d="M190 481q0 45 7 122q7 76 20 139q16 76 36 148q19 69 52 144q96 220 255 311q158 91 378 91q276 0 405 -126q130 -127 130 -376q0 -45 -7 -122q-7 -76 -20 -139q-16 -76 -36 -148q-19 -69 -52 -144q-96 -218 -255 -310q-158 -91 -378 -91q-278 0 -406 125 q-129 126 -129 376zM469 487q0 -165 65 -236t199 -71q82 0 143 23q62 23 104 61q47 42 75 91q32 56 53 112q19 52 32 101q15 57 27 117q13 66 20 123q7 59 7 120q0 165 -65 236t-199 71q-82 0 -143 -23q-62 -23 -104 -61q-47 -42 -75 -91q-32 -56 -53 -112q-19 -52 -32 -101 q-15 -57 -27 -117q-13 -66 -20 -123q-7 -59 -7 -120zM788 1671l517 299l108 -207l-541 -250z" />
<glyph unicode="&#xd4;" horiz-adv-x="1413" d="M190 481q0 45 7 122q7 76 20 139q16 76 36 148q19 69 52 144q96 220 255 311q158 91 378 91q276 0 405 -126q130 -127 130 -376q0 -45 -7 -122q-7 -76 -20 -139q-16 -76 -36 -148q-19 -69 -52 -144q-96 -218 -255 -310q-158 -91 -378 -91q-278 0 -406 125 q-129 126 -129 376zM469 487q0 -165 65 -236t199 -71q82 0 143 23q62 23 104 61q47 42 75 91q32 56 53 112q19 52 32 101q15 57 27 117q13 66 20 123q7 59 7 120q0 165 -65 236t-199 71q-82 0 -143 -23q-62 -23 -104 -61q-47 -42 -75 -91q-32 -56 -53 -112q-19 -52 -32 -101 q-15 -57 -27 -117q-13 -66 -20 -123q-7 -59 -7 -120zM662 1632l315 312h156l225 -324l-135 -104l-187 219l-252 -219z" />
<glyph unicode="&#xd5;" horiz-adv-x="1413" d="M190 481q0 45 7 122q7 76 20 139q16 76 36 148q19 69 52 144q96 220 255 311q158 91 378 91q276 0 405 -126q130 -127 130 -376q0 -45 -7 -122q-7 -76 -20 -139q-16 -76 -36 -148q-19 -69 -52 -144q-96 -218 -255 -310q-158 -91 -378 -91q-278 0 -406 125 q-129 126 -129 376zM469 487q0 -165 65 -236t199 -71q82 0 143 23q62 23 104 61q47 42 75 91q32 56 53 112q19 52 32 101q15 57 27 117q13 66 20 123q7 59 7 120q0 165 -65 236t-199 71q-82 0 -143 -23q-62 -23 -104 -61q-47 -42 -75 -91q-32 -56 -53 -112q-19 -52 -32 -101 q-15 -57 -27 -117q-13 -66 -20 -123q-7 -59 -7 -120zM610 1632q41 115 110 175q70 61 154 61q38 0 73 -18q52 -27 67 -36q8 -5 30 -17.5t33 -19.5q30 -18 64 -18q36 0 76 23q38 22 65 82l119 -78q-45 -119 -111 -173t-147 -54q-44 0 -79 17q-43 21 -72 37q-51 29 -66 37 q-31 17 -66 17q-34 0 -69 -29t-62 -84z" />
<glyph unicode="&#xd6;" horiz-adv-x="1413" d="M190 481q0 45 7 122q7 76 20 139q16 76 36 148q19 69 52 144q96 220 255 311q158 91 378 91q276 0 405 -126q130 -127 130 -376q0 -45 -7 -122q-7 -76 -20 -139q-16 -76 -36 -148q-19 -69 -52 -144q-96 -218 -255 -310q-158 -91 -378 -91q-278 0 -406 125 q-129 126 -129 376zM469 487q0 -165 65 -236t199 -71q82 0 143 23q62 23 104 61q47 42 75 91q32 56 53 112q19 52 32 101q15 57 27 117q13 66 20 123q7 59 7 120q0 165 -65 236t-199 71q-82 0 -143 -23q-62 -23 -104 -61q-47 -42 -75 -91q-32 -56 -53 -112q-19 -52 -32 -101 q-15 -57 -27 -117q-13 -66 -20 -123q-7 -59 -7 -120zM631 1573l39 215l260 20l-43 -235h-256zM1073 1573l39 215l260 20l-43 -235h-256z" />
<glyph unicode="&#xd7;" d="M213 287l311 254l-211 252l181 149l213 -254l309 254l145 -170l-311 -254l211 -252l-180 -149l-213 252l-310 -252z" />
<glyph unicode="&#xd8;" horiz-adv-x="1454" d="M94 -43l187 225q-70 116 -70 299q0 56 6 122q6 68 21 139q19 90 35 148q17 62 53 144q96 220 255 311q158 91 377 91q193 0 324 -70l150 186l161 -125l-166 -200q66 -119 66 -293q0 -56 -6 -122q-6 -68 -21 -139q-19 -90 -35 -148q-17 -62 -53 -144q-96 -218 -255 -310 q-158 -91 -378 -91q-196 0 -319 65l-178 -213zM489 445q0 -17 5 -35l639 770q-65 55 -183 55q-81 0 -142 -23q-64 -24 -105 -61q-45 -40 -74 -91q-35 -61 -54 -112q-16 -43 -31 -101q-19 -73 -28 -117q-11 -54 -19 -123q-8 -67 -8 -120v-42zM575 229q61 -49 179 -49 q81 0 142 23q62 23 104 61q47 42 75 91q32 56 53 112q19 52 32 101q19 73 28 117q11 54 19 123q7 59 7 120q0 24 -1 36q0 5 -0.5 10.5t-1.5 12t-1 10.5z" />
<glyph unicode="&#xd9;" horiz-adv-x="1390" d="M209 385q0 90 20 193l146 823l266 18l-154 -872q-18 -108 -18 -156q0 -211 256 -211q170 0 258 94q85 91 123 306l145 821l262 18l-153 -872q-27 -144 -71 -245q-43 -98 -120 -175q-76 -76 -187 -112q-108 -35 -275 -35q-498 0 -498 405zM567 1772l146 190l399 -311 l-106 -146z" />
<glyph unicode="&#xda;" horiz-adv-x="1390" d="M209 385q0 90 20 193l146 823l266 18l-154 -872q-18 -108 -18 -156q0 -211 256 -211q170 0 258 94q85 91 123 306l145 821l262 18l-153 -872q-27 -144 -71 -245q-43 -98 -120 -175q-76 -76 -187 -112q-108 -35 -275 -35q-498 0 -498 405zM823 1671l516 299l109 -207 l-541 -250z" />
<glyph unicode="&#xdb;" horiz-adv-x="1390" d="M209 385q0 90 20 193l146 823l266 18l-154 -872q-18 -108 -18 -156q0 -211 256 -211q170 0 258 94q85 91 123 306l145 821l262 18l-153 -872q-27 -144 -71 -245q-43 -98 -120 -175q-76 -76 -187 -112q-108 -35 -275 -35q-498 0 -498 405zM631 1632l315 312h156l225 -324 l-135 -104l-186 219l-252 -219z" />
<glyph unicode="&#xdc;" horiz-adv-x="1390" d="M209 385q0 90 20 193l146 823l266 18l-154 -872q-18 -108 -18 -156q0 -211 256 -211q170 0 258 94q85 91 123 306l145 821l262 18l-153 -872q-27 -144 -71 -245q-43 -98 -120 -175q-76 -76 -187 -112q-108 -35 -275 -35q-498 0 -498 405zM612 1575l39 215l260 20 l-43 -235h-256zM1055 1575l39 215l260 20l-43 -235h-256z" />
<glyph unicode="&#xdd;" horiz-adv-x="1222" d="M279 1370l6 41h256l141 -430q18 -53 35 -131q13 -61 20 -139h13q37 89 69 144t78 130l274 426h263l-7 -41l-585 -846l-92 -524h-265l95 532zM698 1671l516 299l109 -207l-541 -250z" />
<glyph unicode="&#xde;" horiz-adv-x="1171" d="M135 0l248 1401l266 18l-39 -219h211q129 0 213 -29q81 -28 131 -84q80 -92 80 -262q0 -237 -123 -389q-70 -87 -198 -130q-130 -44 -314 -44h-166l-45 -262h-264zM479 455h164q175 0 254 108q76 100 76 260q0 95 -43 138q-21 21 -61 34q-41 13 -111 13h-183z" />
<glyph unicode="&#xdf;" horiz-adv-x="1286" d="M84 -195l207 1176q27 146 80 242q51 92 125 149q73 56 163 80q95 25 215 25q216 0 321 -81t105 -208q0 -46 -12 -86q-12 -41 -41 -82q-28 -40 -79 -83q-52 -44 -126 -89q-69 -44 -89 -69q-21 -25 -21 -52q0 -28 29 -52q29 -25 94 -57l41 -20q109 -52 157 -115 q47 -62 47 -149t-35 -151q-35 -65 -97 -111q-60 -45 -141 -69q-78 -23 -171 -23q-78 0 -159 15q-79 15 -138 44l23 188q57 -30 129 -51q69 -20 143 -20q83 0 141 35q60 36 60 102q0 42 -32 68q-36 29 -97 61l-47 24q-87 46 -140 99t-53 141t53 156q50 65 162 133 q51 31 74 50q30 25 44 45q15 22 20 43q5 23 5 46q0 57 -44 96q-43 39 -142 39q-77 0 -124 -20q-49 -21 -87 -62q-36 -39 -62 -102q-26 -64 -44 -168l-197 -1114z" />
<glyph unicode="&#xe0;" horiz-adv-x="1132" d="M145 362q0 91 18 184q19 97 50 171q61 143 164 218q106 77 264 77q161 0 289 -86l26 45l215 24l-131 -741q-6 -35 -6 -47q0 -21 16 -39q15 -16 50 -16q19 0 32 4q5 1 14.5 4t14.5 4l-49 -164q-25 -9 -62 -14q-31 -4 -65 -4q-67 0 -114 22t-72 70q-80 -48 -156 -71 q-75 -23 -162 -23q-336 0 -336 382zM387 1393l145 190l400 -311l-107 -146zM410 369q0 -205 161 -205q90 0 207 59l4 19l95 536q-89 49 -181 49q-157 0 -233 -188q-24 -62 -39 -133q-14 -67 -14 -137z" />
<glyph unicode="&#xe1;" horiz-adv-x="1132" d="M145 362q0 91 18 184q19 97 50 171q61 143 164 218q106 77 264 77q161 0 289 -86l26 45l215 24l-131 -741q-6 -35 -6 -47q0 -21 16 -39q15 -16 50 -16q19 0 32 4q5 1 14.5 4t14.5 4l-49 -164q-25 -9 -62 -14q-31 -4 -65 -4q-67 0 -114 22t-72 70q-80 -48 -156 -71 q-75 -23 -162 -23q-336 0 -336 382zM410 369q0 -205 161 -205q90 0 207 59l4 19l95 536q-89 49 -181 49q-157 0 -233 -188q-24 -62 -39 -133q-14 -67 -14 -137zM596 1290l516 299l109 -207l-541 -249z" />
<glyph unicode="&#xe2;" horiz-adv-x="1132" d="M145 362q0 91 18 184q19 97 50 171q61 143 164 218q106 77 264 77q161 0 289 -86l26 45l215 24l-131 -741q-6 -35 -6 -47q0 -21 16 -39q15 -16 50 -16q19 0 32 4q5 1 14.5 4t14.5 4l-49 -164q-25 -9 -62 -14q-31 -4 -65 -4q-67 0 -114 22t-72 70q-80 -48 -156 -71 q-75 -23 -162 -23q-336 0 -336 382zM410 369q0 -205 161 -205q90 0 207 59l4 19l95 536q-89 49 -181 49q-157 0 -233 -188q-24 -62 -39 -133q-14 -67 -14 -137zM436 1260l316 311h155l226 -324l-136 -104l-186 219l-252 -219z" />
<glyph unicode="&#xe3;" horiz-adv-x="1132" d="M145 362q0 91 18 184q19 97 50 171q61 143 164 218q106 77 264 77q161 0 289 -86l26 45l215 24l-131 -741q-6 -35 -6 -47q0 -21 16 -39q15 -16 50 -16q19 0 32 4q5 1 14.5 4t14.5 4l-49 -164q-25 -9 -62 -14q-31 -4 -65 -4q-67 0 -114 22t-72 70q-80 -48 -156 -71 q-75 -23 -162 -23q-336 0 -336 382zM387 1243q41 115 110 175q70 61 154 61q39 0 73 -18q37 -20 67 -37q11 -6 32 -18t31 -18q30 -18 63 -18q36 0 76 23q39 23 66 82l119 -78q-45 -119 -111 -173q-67 -55 -147 -55q-42 0 -79 18q-43 21 -72 37q-23 13 -67 37q-31 17 -65 17 q-35 0 -70 -29q-34 -28 -61 -84zM410 369q0 -205 161 -205q90 0 207 59l4 19l95 536q-89 49 -181 49q-157 0 -233 -188q-24 -62 -39 -133q-14 -67 -14 -137z" />
<glyph unicode="&#xe4;" horiz-adv-x="1132" d="M145 362q0 91 18 184q19 97 50 171q61 143 164 218q106 77 264 77q161 0 289 -86l26 45l215 24l-131 -741q-6 -35 -6 -47q0 -21 16 -39q15 -16 50 -16q19 0 32 4q5 1 14.5 4t14.5 4l-49 -164q-25 -9 -62 -14q-31 -4 -65 -4q-67 0 -114 22t-72 70q-80 -48 -156 -71 q-75 -23 -162 -23q-336 0 -336 382zM410 369q0 -205 161 -205q90 0 207 59l4 19l95 536q-89 49 -181 49q-157 0 -233 -188q-24 -62 -39 -133q-14 -67 -14 -137zM428 1190l39 215l260 20l-43 -235h-256zM870 1190l39 215l260 20l-43 -235h-256z" />
<glyph unicode="&#xe5;" horiz-adv-x="1132" d="M145 362q0 91 18 184q19 97 50 171q61 143 164 218q106 77 264 77q161 0 289 -86l26 45l215 24l-131 -741q-6 -35 -6 -47q0 -21 16 -39q15 -16 50 -16q19 0 32 4q5 1 14.5 4t14.5 4l-49 -164q-25 -9 -62 -14q-31 -4 -65 -4q-67 0 -114 22t-72 70q-80 -48 -156 -71 q-75 -23 -162 -23q-336 0 -336 382zM410 369q0 -205 161 -205q90 0 207 59l4 19l95 536q-89 49 -181 49q-157 0 -233 -188q-24 -62 -39 -133q-14 -67 -14 -137zM549 1300q0 112 76 179t196 67q88 0 144 -47q55 -46 55 -125q0 -111 -76 -178q-77 -68 -196 -68q-87 0 -144 48 q-55 46 -55 124zM709 1321q0 -29 16 -45t43 -16q42 0 67 27q25 26 25 71q0 27 -16 42q-17 15 -43 15q-42 0 -67 -26t-25 -68z" />
<glyph unicode="&#xe6;" horiz-adv-x="1619" d="M102 276q0 160 113 243t299 83h236l4 19q4 14 7 34q3 21 3 45q0 61 -34 92t-126 31q-73 0 -153 -19q-81 -19 -166 -54l32 208q81 26 172 40q89 14 158 14q99 0 172 -26q72 -26 123 -75q136 101 338 101q192 0 284 -89q91 -88 91 -276q0 -46 -6 -103q-6 -54 -23 -120h-639 q-1 -10 -3 -27q-1 -11 -1 -32q0 -115 61 -158t173 -43q77 0 165 18q83 17 174 60l-53 -205q-147 -57 -329 -57q-245 0 -357 106q-57 -43 -146 -75q-87 -31 -206 -31q-79 0 -143 16q-66 17 -115 52q-51 37 -77 92q-28 59 -28 136zM362 287q0 -68 43 -98q42 -29 113 -29 q67 0 117 20q53 21 96 51q-14 59 -14 140v25q0 8 2 28h-193q-75 0 -119 -35q-45 -36 -45 -102zM1018 602h383q6 38 6 72q0 155 -139 155q-94 0 -153 -58q-60 -58 -97 -169z" />
<glyph unicode="&#xe7;" horiz-adv-x="925" d="M145 356q0 361 211 541q68 60 159 87q95 28 183 28q92 0 169 -18q85 -20 141 -40l-11 -188q-150 61 -282 61q-126 0 -199 -98q-106 -139 -106 -362q0 -203 180 -203q160 0 330 78l-54 -205q-66 -25 -142 -41q-77 -16 -167 -16h-14l-27 -86q33 12 78 12q68 0 111 -40 t43 -102q0 -48 -22 -90q-21 -41 -60 -71t-93 -47t-116 -17q-51 0 -108 9q-55 9 -95 24l8 137q75 -35 158 -35q50 0 77 18t27 48q0 23 -23 36t-77 13q-50 0 -107 -12l68 223q-240 68 -240 356z" />
<glyph unicode="&#xe8;" horiz-adv-x="1046" d="M145 381q0 85 17 167q17 81 43 142q131 322 487 322q192 0 291 -90q98 -89 98 -277q0 -47 -6 -102q-6 -60 -22 -119h-637q-2 -10 -3 -27q-1 -11 -1 -32q0 -115 60 -158q59 -43 171 -43q77 0 166 18q83 17 174 60l-53 -205q-147 -57 -332 -57q-235 0 -344 95t-109 306z M416 1393l145 190l400 -311l-107 -146zM446 602h381q7 44 7 72q0 155 -140 155q-92 0 -151 -58q-60 -58 -97 -169z" />
<glyph unicode="&#xe9;" horiz-adv-x="1046" d="M145 381q0 85 17 167q17 81 43 142q131 322 487 322q192 0 291 -90q98 -89 98 -277q0 -47 -6 -102q-6 -60 -22 -119h-637q-2 -10 -3 -27q-1 -11 -1 -32q0 -115 60 -158q59 -43 171 -43q77 0 166 18q83 17 174 60l-53 -205q-147 -57 -332 -57q-235 0 -344 95t-109 306z M446 602h381q7 44 7 72q0 155 -140 155q-92 0 -151 -58q-60 -58 -97 -169zM514 1290l516 299l109 -207l-541 -249z" />
<glyph unicode="&#xea;" horiz-adv-x="1046" d="M145 381q0 85 17 167q17 81 43 142q131 322 487 322q192 0 291 -90q98 -89 98 -277q0 -47 -6 -102q-6 -60 -22 -119h-637q-2 -10 -3 -27q-1 -11 -1 -32q0 -115 60 -158q59 -43 171 -43q77 0 166 18q83 17 174 60l-53 -205q-147 -57 -332 -57q-235 0 -344 95t-109 306z M391 1260l316 311h155l225 -324l-135 -104l-186 219l-252 -219zM446 602h381q7 44 7 72q0 155 -140 155q-92 0 -151 -58q-60 -58 -97 -169z" />
<glyph unicode="&#xeb;" horiz-adv-x="1046" d="M145 381q0 85 17 167q17 81 43 142q131 322 487 322q192 0 291 -90q98 -89 98 -277q0 -47 -6 -102q-6 -60 -22 -119h-637q-2 -10 -3 -27q-1 -11 -1 -32q0 -115 60 -158q59 -43 171 -43q77 0 166 18q83 17 174 60l-53 -205q-147 -57 -332 -57q-235 0 -344 95t-109 306z M383 1190l39 215l260 20l-43 -235h-256zM446 602h381q7 44 7 72q0 155 -140 155q-92 0 -151 -58q-60 -58 -97 -169zM825 1190l39 215l260 20l-43 -235h-256z" />
<glyph unicode="&#xec;" horiz-adv-x="509" d="M47 1393l146 190l399 -311l-107 -146zM127 0l170 967l262 28l-176 -995h-256z" />
<glyph unicode="&#xed;" horiz-adv-x="509" d="M127 0l170 967l262 28l-176 -995h-256zM274 1290l517 299l108 -207l-541 -249z" />
<glyph unicode="&#xee;" horiz-adv-x="509" d="M127 0l170 967l262 28l-176 -995h-256zM127 1260l315 311h156l225 -324l-135 -104l-186 219l-252 -219z" />
<glyph unicode="&#xef;" horiz-adv-x="509" d="M119 1190l39 215l260 20l-43 -235h-256zM127 0l170 967l262 28l-176 -995h-256zM561 1190l39 215l260 20l-43 -235h-256z" />
<glyph unicode="&#xf0;" horiz-adv-x="1124" d="M158 360q0 136 39 251q40 119 116 208q140 164 349 164q124 0 225 -43q-33 153 -139 248l-113 -141l-137 102l102 125q-101 40 -219 47l174 168q61 -5 98 -15q53 -14 92 -28l115 141l137 -98l-100 -125q130 -95 199 -248t69 -352q0 -195 -44 -351q-43 -153 -130 -261 q-141 -172 -420 -172q-204 0 -309 96q-104 95 -104 284zM422 352q0 -188 168 -188q124 0 196 127q54 93 82 210q29 120 33 263q-93 35 -178 35q-129 0 -203 -109q-98 -144 -98 -338z" />
<glyph unicode="&#xf1;" horiz-adv-x="1136" d="M119 0l170 967l219 28l2 -86q77 48 164 76q84 27 164 27q144 0 223 -78q80 -78 80 -221q0 -35 -4 -63q-5 -33 -15 -83l-100 -567h-256l98 559q2 13 6.5 38.5t6.5 36.5q4 27 4 52q0 133 -133 133q-53 0 -114 -19q-56 -17 -128 -55l-131 -745h-256zM426 1243 q41 115 110 175q70 61 154 61q38 0 73 -18q29 -15 66 -37q11 -6 32.5 -18t31.5 -18q30 -18 63 -18q36 0 76 23q39 23 66 82l119 -78q-45 -119 -111 -173q-67 -55 -148 -55q-40 0 -78 18q-43 21 -72 37q-23 13 -67 37q-31 17 -65 17q-35 0 -70 -29q-34 -28 -61 -84z" />
<glyph unicode="&#xf2;" horiz-adv-x="1101" d="M145 358q0 116 35 236q35 122 94 211q67 105 182 156q114 51 261 51q201 0 308 -94q108 -94 108 -281q0 -117 -35 -239q-34 -118 -92 -208q-69 -107 -184 -159q-114 -51 -261 -51q-199 0 -308 95q-108 95 -108 283zM410 365q-2 -201 172 -201q62 0 115 33t87 94 q43 76 63 161q21 88 21 175q0 101 -44 151q-43 49 -128 49q-63 0 -115 -31q-51 -31 -87 -96q-37 -69 -60 -158q-22 -88 -24 -177zM422 1393l145 190l400 -311l-107 -146z" />
<glyph unicode="&#xf3;" horiz-adv-x="1101" d="M145 358q0 116 35 236q35 122 94 211q67 105 182 156q114 51 261 51q201 0 308 -94q108 -94 108 -281q0 -117 -35 -239q-34 -118 -92 -208q-69 -107 -184 -159q-114 -51 -261 -51q-199 0 -308 95q-108 95 -108 283zM410 365q-2 -201 172 -201q62 0 115 33t87 94 q43 76 63 161q21 88 21 175q0 101 -44 151q-43 49 -128 49q-63 0 -115 -31q-51 -31 -87 -96q-37 -69 -60 -158q-22 -88 -24 -177zM555 1290l516 299l109 -207l-541 -249z" />
<glyph unicode="&#xf4;" horiz-adv-x="1101" d="M145 358q0 116 35 236q35 122 94 211q67 105 182 156q114 51 261 51q201 0 308 -94q108 -94 108 -281q0 -117 -35 -239q-34 -118 -92 -208q-69 -107 -184 -159q-114 -51 -261 -51q-199 0 -308 95q-108 95 -108 283zM410 365q-2 -201 172 -201q62 0 115 33t87 94 q43 76 63 161q21 88 21 175q0 101 -44 151q-43 49 -128 49q-63 0 -115 -31q-51 -31 -87 -96q-37 -69 -60 -158q-22 -88 -24 -177zM440 1260l316 311h155l226 -324l-136 -104l-186 219l-252 -219z" />
<glyph unicode="&#xf5;" horiz-adv-x="1101" d="M145 358q0 116 35 236q35 122 94 211q67 105 182 156q114 51 261 51q201 0 308 -94q108 -94 108 -281q0 -117 -35 -239q-34 -118 -92 -208q-69 -107 -184 -159q-114 -51 -261 -51q-199 0 -308 95q-108 95 -108 283zM410 365q-2 -201 172 -201q62 0 115 33t87 94 q43 76 63 161q21 88 21 175q0 101 -44 151q-43 49 -128 49q-63 0 -115 -31q-51 -31 -87 -96q-37 -69 -60 -158q-22 -88 -24 -177zM410 1243q41 116 109 175q70 61 155 61q38 0 72 -18q37 -20 67 -37q11 -6 32.5 -18t31.5 -18q30 -18 63 -18q36 0 76 23q38 22 65 82l119 -78 q-46 -120 -110 -173q-67 -55 -148 -55q-42 0 -79 18t-71 37q-23 13 -67 37q-31 17 -66 17q-34 0 -69 -29t-62 -84z" />
<glyph unicode="&#xf6;" horiz-adv-x="1101" d="M145 358q0 116 35 236q35 122 94 211q67 105 182 156q114 51 261 51q201 0 308 -94q108 -94 108 -281q0 -117 -35 -239q-34 -118 -92 -208q-69 -107 -184 -159q-114 -51 -261 -51q-199 0 -308 95q-108 95 -108 283zM410 365q-2 -201 172 -201q62 0 115 33t87 94 q43 76 63 161q21 88 21 175q0 101 -44 151q-43 49 -128 49q-63 0 -115 -31q-51 -31 -87 -96q-37 -69 -60 -158q-22 -88 -24 -177zM422 1190l39 215l260 20l-43 -235h-256zM864 1190l39 215l260 20l-43 -235h-256z" />
<glyph unicode="&#xf7;" d="M229 424l39 217h906l-82 -217h-863zM494 51l38 225l254 23l-43 -248h-249zM621 774l38 225l254 23l-43 -248h-249z" />
<glyph unicode="&#xf8;" horiz-adv-x="1126" d="M90 -33l131 158q-63 89 -63 233q0 116 35 236q35 122 94 211q68 105 181 156q114 51 261 51q110 0 197 -31l127 154l141 -111l-121 -147q72 -90 72 -240q0 -117 -35 -239q-34 -118 -92 -208q-69 -108 -183 -159t-262 -51q-129 0 -211 36l-131 -159zM422 346l373 463 q-38 18 -86 18q-64 0 -116 -31q-51 -31 -87 -96q-37 -69 -60 -158q-22 -88 -24 -177v-19zM494 188q39 -24 100 -24q64 0 116 33q53 33 87 94q41 73 62 161q22 93 22 175q0 13 -1 18t-1 19z" />
<glyph unicode="&#xf9;" horiz-adv-x="1110" d="M168 266q0 40 4 73q6 53 14 91l95 537l262 28l-105 -589q-6 -38 -9 -60q-3 -23 -3 -43q0 -135 158 -135q112 0 164 59q50 55 71 181l99 559l258 28l-103 -579q-22 -120 -52 -187q-31 -69 -81 -120q-128 -129 -389 -129q-205 0 -293 78q-90 80 -90 208zM401 1393l146 190 l399 -311l-106 -146z" />
<glyph unicode="&#xfa;" horiz-adv-x="1110" d="M168 266q0 40 4 73q6 53 14 91l95 537l262 28l-105 -589q-6 -38 -9 -60q-3 -23 -3 -43q0 -135 158 -135q112 0 164 59q50 55 71 181l99 559l258 28l-103 -579q-22 -120 -52 -187q-31 -69 -81 -120q-128 -129 -389 -129q-205 0 -293 78q-90 80 -90 208zM530 1290l517 299 l108 -207l-541 -249z" />
<glyph unicode="&#xfb;" horiz-adv-x="1110" d="M168 266q0 40 4 73q6 53 14 91l95 537l262 28l-105 -589q-6 -38 -9 -60q-3 -23 -3 -43q0 -135 158 -135q112 0 164 59q50 55 71 181l99 559l258 28l-103 -579q-22 -120 -52 -187q-31 -69 -81 -120q-128 -129 -389 -129q-205 0 -293 78q-90 80 -90 208zM418 1260l315 311 h156l225 -324l-135 -104l-186 219l-252 -219z" />
<glyph unicode="&#xfc;" horiz-adv-x="1110" d="M168 266q0 40 4 73q6 53 14 91l95 537l262 28l-105 -589q-6 -38 -9 -60q-3 -23 -3 -43q0 -135 158 -135q112 0 164 59q50 55 71 181l99 559l258 28l-103 -579q-22 -120 -52 -187q-31 -69 -81 -120q-128 -129 -389 -129q-205 0 -293 78q-90 80 -90 208zM406 1190l38 215 l261 20l-43 -235h-256zM848 1190l39 215l260 20l-43 -235h-256z" />
<glyph unicode="&#xfd;" horiz-adv-x="1030" d="M186 -336l209 346l-194 942l6 37h256l76 -452q6 -33 17 -117q7 -52 7 -129h12q16 59 39 109t50 100l262 489h245l-6 -37l-776 -1382zM559 1290l516 299l109 -207l-541 -249z" />
<glyph unicode="&#xfe;" horiz-adv-x="1128" d="M49 -391l322 1823l262 28l-92 -520q133 72 276 72q338 0 338 -381q0 -95 -16 -181q-16 -88 -52 -176q-118 -294 -432 -294q-154 0 -270 75l-76 -426zM414 217q48 -29 95 -41q48 -12 97 -12q156 0 232 188q24 62 39 133q14 67 14 144q0 198 -162 198q-96 0 -219 -65z" />
<glyph unicode="&#xff;" horiz-adv-x="1030" d="M186 -336l209 346l-194 942l6 37h256l76 -452q6 -33 17 -117q7 -52 7 -129h12q16 59 39 109t50 100l262 489h245l-6 -37l-776 -1382zM371 1190l39 215l260 20l-43 -235h-256zM813 1190l39 215l260 20l-43 -235h-256z" />
<glyph unicode="&#x152;" horiz-adv-x="1878" d="M190 481q0 54 8 128q9 84 21 141q15 72 36 144q20 70 50 140q96 217 254 309q160 93 369 93q90 0 191 -13q93 -12 157 -12h786l-69 -201h-584l-68 -391h455l-39 -196h-450l-76 -422h624l-69 -201h-709q-98 0 -174 -10t-176 -10q-280 0 -408 124q-129 124 -129 377z M469 481q0 -96 20 -152q21 -58 58 -91q38 -33 89 -45q57 -13 116 -13q50 0 103 4q51 4 112 11l180 1019q-59 11 -100 15q-60 6 -109 6q-155 0 -243 -74q-87 -74 -140 -211q-20 -50 -37 -115q-14 -54 -26 -125q-12 -72 -17 -121q-6 -59 -6 -108z" />
<glyph unicode="&#x153;" horiz-adv-x="1744" d="M145 367q0 111 35 228t96 208q73 110 179 160q104 49 252 49q65 0 118 -11q56 -12 91 -27q42 -18 71 -42q28 -22 57 -53q57 57 143 96q81 37 216 37q198 0 289 -89q90 -89 90 -274q0 -48 -6 -105q-6 -54 -23 -120h-637q-1 -7 -3 -23q-1 -8 -1 -32q0 -112 56 -158 q58 -47 180 -47q166 0 335 78l-53 -205q-147 -57 -334 -57q-132 0 -214 30q-81 30 -148 113q-73 -70 -158 -107q-82 -36 -215 -36q-201 0 -308 94q-108 94 -108 293zM410 369q0 -205 168 -205q60 0 113 29q52 28 93 98q40 67 62 159q22 91 22 173q0 106 -43 155t-129 49 q-75 0 -119 -33q-47 -35 -81 -94q-39 -69 -62 -156q-24 -91 -24 -175zM1147 602h381q6 39 6 72q0 155 -139 155q-93 0 -152 -58q-58 -57 -96 -169z" />
<glyph unicode="&#x178;" horiz-adv-x="1222" d="M279 1370l6 41h256l141 -430q18 -53 35 -131q13 -61 20 -139h13q37 89 69 144t78 130l274 426h263l-7 -41l-585 -846l-92 -524h-265l95 532zM528 1573l39 215l260 20l-43 -235h-256zM971 1573l39 215l260 20l-43 -235h-256z" />
<glyph unicode="&#x2c6;" horiz-adv-x="798" d="M268 1260l316 311h155l226 -324l-136 -104l-186 219l-252 -219z" />
<glyph unicode="&#x2dc;" horiz-adv-x="798" d="M248 1243q41 116 109 175q70 61 155 61q38 0 73 -18q29 -15 66 -37q11 -6 32.5 -18t31.5 -18q30 -18 63 -18q36 0 76 23q39 23 66 82l118 -78q-46 -120 -110 -173q-67 -55 -148 -55q-42 0 -79 18t-71 37q-23 13 -67 37q-31 17 -65 17q-35 0 -70 -29q-34 -28 -61 -84z" />
<glyph unicode="&#x2000;" horiz-adv-x="985" />
<glyph unicode="&#x2001;" horiz-adv-x="1970" />
<glyph unicode="&#x2002;" horiz-adv-x="985" />
<glyph unicode="&#x2003;" horiz-adv-x="1970" />
<glyph unicode="&#x2004;" horiz-adv-x="656" />
<glyph unicode="&#x2005;" horiz-adv-x="492" />
<glyph unicode="&#x2006;" horiz-adv-x="328" />
<glyph unicode="&#x2007;" horiz-adv-x="328" />
<glyph unicode="&#x2008;" horiz-adv-x="246" />
<glyph unicode="&#x2009;" horiz-adv-x="394" />
<glyph unicode="&#x200a;" horiz-adv-x="109" />
<glyph unicode="&#x2010;" horiz-adv-x="602" d="M145 432l35 201h477l-63 -201h-449z" />
<glyph unicode="&#x2011;" horiz-adv-x="602" d="M145 432l35 201h477l-63 -201h-449z" />
<glyph unicode="&#x2012;" horiz-adv-x="602" d="M145 432l35 201h477l-63 -201h-449z" />
<glyph unicode="&#x2013;" horiz-adv-x="1024" d="M129 432l35 201h930l-60 -201h-905z" />
<glyph unicode="&#x2014;" horiz-adv-x="2048" d="M129 432l35 201h1958l-60 -201h-1933z" />
<glyph unicode="&#x2018;" horiz-adv-x="446" d="M244 911l26 152q12 70 30 131q19 62 50 112q33 52 84 102q54 53 129 103l80 -96q-150 -127 -178 -244h94l-41 -235z" />
<glyph unicode="&#x2019;" horiz-adv-x="446" d="M231 1008q151 128 179 243h-95l41 236l275 24l-27 -151q-10 -62 -31 -131q-17 -57 -50 -112q-31 -51 -83 -102q-58 -56 -129 -104z" />
<glyph unicode="&#x201a;" horiz-adv-x="444" d="M10 -244q150 127 178 244h-94l41 236l275 24l-27 -151q-11 -64 -31 -132q-17 -55 -50 -111q-32 -54 -83 -103q-54 -53 -129 -103z" />
<glyph unicode="&#x201c;" horiz-adv-x="835" d="M236 917l26 152q10 62 31 131q17 57 50 112q31 51 83 102q54 53 129 103l80 -96q-150 -127 -178 -243h94l-41 -236zM627 917l26 152q10 62 31 131q17 57 50 112q31 51 83 102q54 53 129 103l80 -96q-150 -127 -178 -243h94l-41 -236z" />
<glyph unicode="&#x201d;" horiz-adv-x="837" d="M240 1008q150 127 178 243h-94l41 236l274 24l-27 -151q-12 -70 -30 -131q-16 -54 -51 -112q-32 -54 -82 -102q-55 -54 -130 -104zM631 1008q150 127 178 243h-94l41 236l274 24l-26 -151q-10 -62 -31 -131q-17 -57 -50 -112q-31 -51 -83 -102q-58 -56 -129 -104z" />
<glyph unicode="&#x201e;" horiz-adv-x="835" d="M10 -244q150 127 178 244h-94l41 236l275 24l-27 -151q-11 -64 -31 -132q-17 -55 -50 -111q-32 -54 -83 -103q-54 -53 -129 -103zM401 -244q151 128 179 244h-95l41 236l275 24l-27 -151q-11 -65 -31 -132q-17 -55 -50 -111q-32 -54 -83 -103q-54 -53 -129 -103z" />
<glyph unicode="&#x2022;" horiz-adv-x="884" d="M160 496q0 94 33 175q34 83 92 138q61 58 141 90q83 33 180 33q68 0 128 -23q61 -23 101 -62q41 -40 65 -95q24 -56 24 -121q0 -97 -33 -176q-35 -84 -92 -138q-60 -57 -142 -90q-80 -32 -180 -32q-71 0 -128 22q-58 22 -100 63q-43 41 -66 95q-23 53 -23 121z" />
<glyph unicode="&#x2026;" horiz-adv-x="1466" d="M106 0l41 236l275 24l-45 -260h-271zM598 0l41 236l274 24l-45 -260h-270zM1090 0l40 236l275 24l-45 -260h-270z" />
<glyph unicode="&#x202f;" horiz-adv-x="394" />
<glyph unicode="&#x2039;" horiz-adv-x="579" d="M139 446l8 43l390 418l141 -110l-283 -346l164 -328l-168 -90z" />
<glyph unicode="&#x203a;" horiz-adv-x="577" d="M66 143l282 344l-164 330l168 90l250 -413l-6 -43l-389 -418z" />
<glyph unicode="&#x205f;" horiz-adv-x="492" />
<glyph unicode="&#x20ac;" horiz-adv-x="1376" d="M162 430l31 178h174q6 62 10 91q7 48 16 87h-139l35 183h157q3 7 11.5 27t13.5 31q10 26 29 58q91 178 240 264q150 87 380 87q98 0 205 -16q99 -15 172 -36l-6 -208q-186 59 -369 59q-124 0 -212 -49t-148 -154q-19 -31 -33 -63h432l-67 -183h-424q-12 -48 -17 -87 q-4 -29 -10 -91h406l-68 -178h-340q24 -250 285 -250q98 0 207 20t223 58l-74 -219q-71 -26 -180 -43q-103 -16 -211 -16q-510 0 -531 450h-198z" />
<glyph unicode="&#x2122;" horiz-adv-x="1460" d="M256 1264l29 161h544l-57 -161h-151l-80 -447h-203l80 447h-162zM764 817l154 596l239 14l23 -391l135 377l254 14l-41 -610h-182l36 410l-141 -379l-184 -10l-23 389l-90 -410h-180z" />
<glyph unicode="&#x25fc;" horiz-adv-x="993" d="M0 0v993h993v-993h-993z" />
</font>
</defs>
</svg>
