<?xml version="1.0" encoding="utf-8"?>
<!-- Generator: Adobe Illustrator 24.2.1, SVG Export Plug-In . SVG Version: 6.00 Build 0)  -->
<svg version="1.1" id="Layer_1" xmlns="http://www.w3.org/2000/svg" xmlns:xlink="http://www.w3.org/1999/xlink" x="0px" y="0px"
	 viewBox="0 0 30 30" style="enable-background:new 0 0 30 30;" xml:space="preserve">
<style type="text/css">
	.st0{fill:#FFFFFF;}
</style>
<g>
	<path class="st0" d="M15,30C6.73,30,0,23.27,0,15C0,6.73,6.73,0,15,0c8.27,0,15,6.73,15,15C30,23.27,23.27,30,15,30z M15,2.39
		C8.05,2.39,2.39,8.05,2.39,15S8.05,27.61,15,27.61c6.95,0,12.61-5.66,12.61-12.61S21.95,2.39,15,2.39z"/>
	<g>
		<path class="st0" d="M10.05,10.32l4.92,8.39l4.92-8.39l2,1.25l-6.17,10.4h-1.5L8.08,11.61L10.05,10.32z"/>
	</g>
</g>
</svg>
