<?xml version="1.0" encoding="utf-8"?>
<svg version="1.1" id="Õ_xBA__x2264__x201E__x5F_1"
	 xmlns="http://www.w3.org/2000/svg" xmlns:xlink="http://www.w3.org/1999/xlink" x="0px" y="0px" viewBox="0 0 56.7 60.7"
	 style="enable-background:new 0 0 56.7 60.7;" xml:space="preserve">
<path d="M35.5,55.6c0,0.7-0.6,1.3-1.3,1.3H22.6c-0.7,0-1.3-0.6-1.3-1.3c0-0.7,0.6-1.3,1.3-1.3h11.6C34.9,54.4,35.5,54.9,35.5,55.6z
	 M31.8,58.2h-7c-0.7,0-1.3,0.6-1.3,1.3c0,0.7,0.6,1.3,1.3,1.3h7c0.7,0,1.3-0.6,1.3-1.3C33.1,58.8,32.5,58.2,31.8,58.2z M35,23.5
	l-6.7,3.4l-6.7-3.4c-0.4-0.2-1-0.2-1.4,0.1C20,24,19.8,24.5,19.9,25L25,44.5c0.1,0.6,0.7,0.9,1.2,0.9c0.1,0,0.2,0,0.3,0
	c0.7-0.2,1.1-0.9,0.9-1.5L23.1,27l4.7,2.4c0,0,0.1,0,0.1,0c0.1,0,0.2,0.1,0.3,0.1c0.1,0,0.1,0,0.2,0c0.1,0,0.2,0,0.2,0
	c0.1,0,0.2,0,0.2-0.1c0,0,0.1,0,0.1,0l4.7-2.4l-4.4,16.8c-0.2,0.7,0.2,1.4,0.9,1.5c0.1,0,0.2,0,0.3,0c0.6,0,1.1-0.4,1.2-0.9L36.8,25
	c0.1-0.5,0-1-0.4-1.3C36,23.3,35.4,23.3,35,23.5z M42.7,38.5c-0.6,0.9-1.3,1.7-2,2.5c-2.1,2.5-4.4,5-4.4,10.6c0,0.7-0.6,1.3-1.3,1.3
	h-6.8h-6.8c-0.7,0-1.3-0.6-1.3-1.3c0-5.5-2.2-8.1-4.4-10.6c-0.7-0.8-1.4-1.6-2-2.5c-2.4-3.2-3.7-7-3.7-11c0-10,8.1-18.1,18.1-18.1
	c10,0,18.1,8.1,18.1,18.1C46.4,31.5,45.1,35.3,42.7,38.5z M41.6,35.6c1.5-2.4,2.3-5.2,2.3-8.1c0-8.6-7-15.6-15.6-15.6
	s-15.6,7-15.6,15.6c0,2.9,0.8,5.7,2.3,8.1l0,0l0.6,1c0.1,0.2,0.2,0.4,0.4,0.5c0,0,0,0,0,0.1c0.5,0.7,1.1,1.5,1.8,2.2
	c2.1,2.4,4.6,5.3,4.9,11h5.5h5.5c0.3-5.6,2.9-8.6,4.9-11c0.7-0.8,1.3-1.5,1.8-2.2c0,0,0,0,0-0.1c0.1-0.2,0.3-0.4,0.4-0.5L41.6,35.6
	L41.6,35.6z M28.3,7.2c0.7,0,1.3-0.6,1.3-1.3V1.3C29.6,0.6,29,0,28.3,0c-0.7,0-1.3,0.6-1.3,1.3V6C27.1,6.7,27.7,7.2,28.3,7.2z
	 M11.6,13.4c0.2,0.2,0.6,0.4,0.9,0.4c0.3,0,0.6-0.1,0.9-0.4c0.5-0.5,0.5-1.3,0-1.8l-3.3-3.3c-0.5-0.5-1.3-0.5-1.8,0
	c-0.5,0.5-0.5,1.3,0,1.8L11.6,13.4z M6,27.1H1.3c-0.7,0-1.3,0.6-1.3,1.3c0,0.7,0.6,1.3,1.3,1.3H6c0.7,0,1.3-0.6,1.3-1.3
	C7.2,27.7,6.7,27.1,6,27.1z M11.6,43.3l-3.3,3.3c-0.5,0.5-0.5,1.3,0,1.8c0.2,0.2,0.6,0.4,0.9,0.4c0.3,0,0.6-0.1,0.9-0.4l3.3-3.3
	c0.5-0.5,0.5-1.3,0-1.8C12.9,42.8,12.1,42.8,11.6,43.3z M50.7,29.6h4.7c0.7,0,1.3-0.6,1.3-1.3c0-0.7-0.6-1.3-1.3-1.3h-4.7
	c-0.7,0-1.3,0.6-1.3,1.3C49.5,29,50,29.6,50.7,29.6z M44.2,13.8c0.3,0,0.6-0.1,0.9-0.4l3.3-3.3c0.5-0.5,0.5-1.3,0-1.8
	c-0.5-0.5-1.3-0.5-1.8,0l-3.3,3.3c-0.5,0.5-0.5,1.3,0,1.8C43.5,13.7,43.8,13.8,44.2,13.8z M43.3,43.3c-0.5,0.5-0.5,1.3,0,1.8
	l3.3,3.3c0.2,0.2,0.6,0.4,0.9,0.4c0.3,0,0.6-0.1,0.9-0.4c0.5-0.5,0.5-1.3,0-1.8l-3.3-3.3C44.6,42.8,43.8,42.8,43.3,43.3z"/>
</svg>
