<?xml version="1.0" encoding="utf-8"?>
<!-- Generator: Adobe Illustrator 24.1.2, SVG Export Plug-In . SVG Version: 6.00 Build 0)  -->
<svg version="1.1" id="Group_1280" xmlns="http://www.w3.org/2000/svg" xmlns:xlink="http://www.w3.org/1999/xlink" x="0px" y="0px"
	 viewBox="0 0 60 60" style="enable-background:new 0 0 60 60;" xml:space="preserve">
<style type="text/css">
	.st0{fill:#0A66C2;}
	.st1{fill:#FFFFFF;}
</style>
<g>
	<path class="st0" d="M55.6,0H4.4C2,0,0,1.9,0,4.3v51.3C0,58.1,2,60,4.4,60h51.1c2.4,0,4.4-1.9,4.4-4.3V4.3C60,1.9,58,0,55.6,0"/>
	<path class="st1" d="M51.1,51.1h-8.9V37.2c0-3.3-0.1-7.6-4.6-7.6c-4.6,0-5.3,3.6-5.3,7.4v14.2h-8.9V22.5h8.5v3.9H32
		c1.7-3,5-4.8,8.4-4.6c9,0,10.7,5.9,10.7,13.6L51.1,51.1z M13.3,18.6c-2.8,0-5.2-2.3-5.2-5.2s2.3-5.2,5.2-5.2c2.8,0,5.2,2.3,5.2,5.2
		S16.2,18.6,13.3,18.6L13.3,18.6 M17.8,51.1H8.9V22.5h8.9V51.1z"/>
</g>
</svg>
