<?xml version="1.0" encoding="utf-8"?>
<svg version="1.1" id="Layer_1" xmlns="http://www.w3.org/2000/svg" xmlns:xlink="http://www.w3.org/1999/xlink" x="0px" y="0px"
	 viewBox="0 0 50 60" style="enable-background:new 0 0 50 60;" xml:space="preserve">
<path d="M50,20.9c0-0.1,0-0.2-0.1-0.3c0,0,0-0.1,0-0.1c0-0.1-0.1-0.2-0.2-0.3c0,0,0,0,0,0l-10-10c0,0,0,0,0,0l-5-5l-5-5
	C29.5,0.1,29.3,0,29,0H5C2.2,0,0,2.2,0,5v40c0,2.8,2.2,5,5,5c0,2.8,2.2,5,5,5c0,2.8,2.2,5,5,5h30c2.8,0,5-2.2,5-5L50,20.9
	C50,21,50,21,50,20.9z M40,13.4l6.6,6.6H40V13.4z M2,45V5c0-1.7,1.3-3,3-3h23.6l3,3H10c-2.8,0-5,2.2-5,5v38C3.3,48,2,46.7,2,45z
	 M7,50v-1V10c0-1.7,1.3-3,3-3h23.6l3,3H15c-2.8,0-5,2.2-5,5v38C8.3,53,7,51.7,7,50z M48,55c0,1.7-1.3,3-3,3H15c-1.7,0-3-1.3-3-3v-1
	V15c0-1.7,1.3-3,3-3h23v9c0,0.6,0.4,1,1,1h9V55z M42,45c0,0.6-0.5,1-1,1H19c-0.6,0-1-0.5-1-1s0.5-1,1-1h22C41.6,44,42,44.4,42,45z
	 M42,39c0,0.6-0.5,1-1,1H19c-0.6,0-1-0.5-1-1s0.5-1,1-1h22C41.6,38,42,38.4,42,39z M42,33c0,0.6-0.5,1-1,1H19c-0.6,0-1-0.5-1-1
	s0.5-1,1-1h22C41.6,32,42,32.4,42,33z M19,26h22c0.6,0,1,0.5,1,1s-0.5,1-1,1H19c-0.6,0-1-0.5-1-1S18.4,26,19,26z"/>
</svg>
