<?xml version="1.0" encoding="utf-8"?>
<!-- Generator: Adobe Illustrator 22.0.0, SVG Export Plug-In . SVG Version: 6.00 Build 0)  -->
<svg version="1.1" id="Layer_1" xmlns="http://www.w3.org/2000/svg" xmlns:xlink="http://www.w3.org/1999/xlink" x="0px" y="0px"
	 viewBox="0 0 384.1 89.3" style="enable-background:new 0 0 384.1 89.3;" xml:space="preserve">
<style type="text/css">
	.st0{fill:#FFFFFF;}
	.st1{fill:#E42823;}
	.st2{fill:#1C2156;}
	.st3{fill:#1CA5DE;}
	.st4{fill:#ABCAE9;}
	.st5{fill:#C8DCF1;}
</style>
<polygon class="st0" points="0,38.4 19.2,28.8 0,19.2 "/>
<polygon class="st1" points="0,38.4 0,57.6 38.4,38.4 19.2,28.8 "/>
<polygon class="st2" points="0,57.6 57.6,57.6 57.6,48 38.4,38.4 "/>
<polygon class="st3" points="0,0 0,19.2 19.2,28.8 38.4,19.2 0,0 "/>
<polygon class="st2" points="0,0 38.4,19.2 57.6,9.6 57.6,0 "/>
<polygon class="st4" points="38.4,19.2 19.2,28.8 57.6,48 57.6,9.6 "/>
<path class="st2" d="M333.1,34.8c-1,0-3.5,0.1-4.9,0.3c-3,0.5-4.6,2-4.6,4.6c0,2.3,1.5,3.5,3.7,3.5c3.1,0,5.8-2.1,5.8-6.1V34.8z
	 M325.2,48.5c-5.5,0-9-3.4-9-8.7c0-4.8,3.1-7.7,8.1-8.9c2.5-0.6,5.6-0.7,8.7-0.7c0-4.1-1.7-5.5-5.9-5.5c-2.5,0-5.1,0.6-7.9,1.9v-5.7
	c2.7-1.1,5.7-1.7,8.8-1.7c8.9,0,12.2,4,12.2,11.7v11.3h3.5v5.7h-10l-0.6-2.9h-0.1C331.6,46.7,329.4,48.5,325.2,48.5 M235.4,34.8
	c-1,0-3.5,0.1-4.9,0.3c-3,0.5-4.6,2-4.6,4.6c0,2.3,1.5,3.5,3.7,3.5c3.1,0,5.8-2.1,5.8-6.1V34.8z M227.5,48.5c-5.5,0-9-3.4-9-8.7
	c0-4.8,3.1-7.7,8.2-8.9c2.5-0.6,5.6-0.7,8.7-0.7c0-4.1-1.7-5.5-5.9-5.5c-2.5,0-5.1,0.6-7.9,1.9v-5.7c2.7-1.1,5.7-1.7,8.8-1.7
	c8.9,0,12.2,4,12.2,11.7v11.3h3.5v5.7h-10l-0.6-2.9h-0.1C233.9,46.7,231.7,48.5,227.5,48.5 M124.8,34.8c-1,0-3.5,0.1-4.9,0.3
	c-3,0.5-4.6,2-4.6,4.6c0,2.3,1.5,3.5,3.7,3.5c3.1,0,5.8-2.1,5.8-6.1V34.8z M117,48.5c-5.5,0-9-3.4-9-8.7c0-4.8,3.1-7.7,8.2-8.9
	c2.5-0.6,5.6-0.7,8.7-0.7c0-4.1-1.7-5.5-5.9-5.5c-2.5,0-5.1,0.6-7.9,1.9v-5.7c2.7-1.1,5.7-1.7,8.8-1.7c8.9,0,12.2,4,12.2,11.7v11.3
	h3.5v5.7h-10L125,45h-0.1C123.4,46.7,121.2,48.5,117,48.5 M270.8,33.8c0-5.2-2.6-8.7-6.6-8.7c-3.9,0-6.5,3.5-6.5,8.7
	c0,5.3,2.5,8.8,6.4,8.8C268,42.5,270.8,39,270.8,33.8 M278.2,33.8c0,8.7-5,14.7-12.2,14.7c-4.3,0-6.9-1.7-8.2-3.5h-0.1v11.8l-7.3,3
	V25.4h-3.7v-5.7h10.4l0.5,3.7h0.1c0.9-1.5,3.1-4.2,8.3-4.2C273.5,19.2,278.2,25,278.2,33.8 M172.1,19.2c-4,0-7.3,1.7-9.1,4.2h-0.1
	l-0.5-3.7h-10.8v5.7h4v22.5h7.3v-13c0-7,3.7-9.6,6.9-9.6c3,0,4.4,1.9,4.4,6.2v16.4h7.3v-18C181.5,22.8,178.2,19.2,172.1,19.2
	 M205.3,41.8c-7.5,0-11.9-5-11.9-13.1c0-7.9,4.4-13.2,11.3-13.2c1.9,0,3.4,0.2,4.9,0.6V24l6.5-2.7v-9.3c-3.4-2-7.1-2.8-11.1-2.8
	c-11.5,0-19.3,7.1-19.3,19.7c0,12,7,19.7,19.3,19.7c4.5,0,8.5-1.3,11.2-2.8l-1.6-6.1C212.2,40.8,209.2,41.8,205.3,41.8 M355,42.2
	V7.4l-7.3,3v37.5h10.9v-5.7H355z M98,36.5c0-3.6-2.6-5.6-7.2-5.6h-7v11.3h7.1C96,42.1,98,39.8,98,36.5 M83.8,25.2h5.9
	c4.2,0,6.2-2,6.2-4.8c0-3.3-2-4.9-5.8-4.9h-6.3V25.2z M105.8,36.9c0,7.3-5.8,11-14.4,11H76.3V15.4h-4.6V9.7h18.4
	c4.9,0,7.5,0.7,9.4,1.9c2.3,1.5,4,3.9,4,7.5c0,4-2.5,7.1-6.5,8.2v0.1C102.5,28.4,105.8,32,105.8,36.9 M280.3,25.4h4v22.5h7.3V19.7
	h-11.3V25.4z M284.3,14.8h7.3V7.9h-7.3V14.8z M136.2,25.4h4v22.5h7.3V19.7h-11.3V25.4z M140.2,14.8h7.3V7.9h-7.3V14.8z M306.8,19.7
	h7.4v5.7h-7.4v12.4c0,3.1,0.7,4.9,3.7,4.9c0.7,0,2.1-0.2,3.3-0.5v5.5c-1.8,0.5-4.1,0.8-5.7,0.8c-5.7,0-8.6-2.8-8.6-8.8V25.4h-4v-5.7
	h4v-4.8l7.3-3V19.7z"/>
<path class="st5" d="M86.4,63.8c-3.5,0-6.1,1.1-8,4.6c-1.3,2.5-2,5.9-2,8.6c0,4.9,2.3,6.9,7.1,6.9c2,0,4.2-0.3,5.6-0.8l0.8-4.4h-2.3
	L87,81.5c-0.9,0.3-2.1,0.4-3.3,0.4c-3.2,0-4.6-1.4-4.6-4.8c0-2.2,0.6-5.3,1.7-7.5c1.1-2.3,2.8-3.6,5.5-3.6c1.2,0,2.3,0.1,3.2,0.3
	l-0.5,2.7h2.3l0.8-4.3C90.2,64.1,88.2,63.8,86.4,63.8 M99.6,71.5c2.2,0,3,1.2,3,3.2c0,1.4-0.4,3.4-1,4.6c-0.8,1.8-1.9,2.7-3.7,2.7
	c-2.2,0-3-1.2-3-3.2c0-1.4,0.4-3.4,1-4.6C96.6,72.4,97.8,71.5,99.6,71.5 M99.8,69.7c-3.2,0-5.1,1.4-6.1,3.7c-0.8,1.8-1.2,4-1.2,5.6
	c0,3.3,1.7,5,5.4,5c3.2,0,5.1-1.4,6.1-3.7c0.8-1.8,1.2-4,1.2-5.6C105.1,71.4,103.4,69.7,99.8,69.7 M115.9,71.8c1.8,0,2.3,1,2.3,2.4
	c0,0.5-0.1,1-0.2,1.8l-1.4,7.7h4.4l0.6-1.9h-2.2l1-5.9c0.1-0.8,0.2-1.5,0.2-2c0-0.3,0-0.5-0.1-0.7c1.5-0.9,2.8-1.3,4-1.3
	c1.8,0,2.4,1,2.4,2.4c0,0.5-0.1,1-0.2,1.8l-1.4,7.7h4.4l0.6-1.9h-2.2l1-5.9c0.1-0.8,0.2-1.5,0.2-2c0-2.8-1.7-4.2-4.1-4.2
	c-1.8,0-3.6,0.7-5.2,1.8c-0.7-1.2-2-1.8-3.5-1.8c-1.5,0-3,0.6-4.4,1.6c-0.1-0.5-0.3-0.9-0.5-1.3h-3.3l-0.6,1.9h2.2l-1.7,9.8h-1.9
	l-0.4,1.9h6.3l0.6-1.9h-2.2l1.6-8.8C113.5,72.1,114.8,71.8,115.9,71.8 M141.7,71.8c1.8,0,2.3,1,2.3,2.4c0,0.5-0.1,1-0.2,1.8
	l-1.4,7.7h4.4l0.6-1.9h-2.2l1-5.9c0.1-0.8,0.2-1.5,0.2-2c0-0.3,0-0.5-0.1-0.7c1.5-0.9,2.8-1.3,4-1.3c1.8,0,2.4,1,2.4,2.4
	c0,0.5-0.1,1-0.2,1.8l-1.4,7.7h4.4l0.6-1.9H154l1-5.9c0.1-0.8,0.2-1.5,0.2-2c0-2.8-1.7-4.2-4.1-4.2c-1.8,0-3.6,0.7-5.2,1.8
	c-0.7-1.2-2-1.8-3.5-1.8c-1.5,0-3,0.6-4.4,1.6c-0.1-0.5-0.3-0.9-0.5-1.3h-3.3l-0.6,1.9h2.2l-1.7,9.8h-1.9l-0.4,1.9h6.3l0.6-1.9h-2.2
	l1.6-8.8C139.4,72.1,140.6,71.8,141.7,71.8 M172,73.4c0.1-0.7,0.2-1.2,0.2-1.6c0-0.7-0.1-1.3-0.5-1.8h-3.5l-0.6,1.9h2.2l-1.6,8.9
	c-0.9,0.7-2.1,1.2-3.5,1.2c-1.8,0-2.8-0.7-2.8-2.3c0-0.4,0.1-1,0.2-1.9l0.8-4.4c0.1-0.7,0.2-1.2,0.2-1.6c0-0.7-0.1-1.3-0.5-1.8h-3.5
	l-0.6,1.9h2.2l-1,5.7c-0.2,1-0.3,1.7-0.3,2.3c0,2.7,1.8,4,4.6,4c1.8,0,3.2-0.6,4.2-1.4c0.2,0.5,0.4,0.8,0.7,1.1h3.1l0.6-1.9h-2.2
	L172,73.4z M184.3,71.8c1.9,0,2.5,1,2.5,2.4c0,0.5-0.1,1-0.2,1.8l-1.4,7.7h4.4l0.6-1.9h-2.2l1-5.9c0.1-0.8,0.2-1.5,0.2-2
	c0-2.8-1.8-4.2-4.2-4.2c-1.5,0-3.1,0.6-4.6,1.6c-0.1-0.5-0.3-0.9-0.5-1.3h-3.3l-0.6,1.9h2.2l-1.7,9.8h-1.9l-0.4,1.9h6.3l0.6-1.9
	h-2.2l1.5-8.8C181.8,72.1,183.1,71.8,184.3,71.8 M194.2,70l-0.6,1.9h2.2l-1.7,9.8h-1.9l-0.3,1.9h6.3l0.6-1.9h-2.2l1.5-8.4
	c0.1-0.8,0.2-1.2,0.2-1.6c0-0.7-0.1-1.3-0.5-1.8H194.2z M196.8,64.6l-0.5,2.6h2.6l0.5-2.8L196.8,64.6z M205.1,66.3l-1,3.7h-2.3
	l-0.3,1.9h2.2l-1.2,7.2c-0.1,0.9-0.2,1.4-0.2,2c0,2,1.3,2.8,3.3,2.8c0.8,0,1.4-0.1,2-0.3l0.7-2.1c-0.7,0.2-1.4,0.4-2.1,0.4
	c-1,0-1.5-0.3-1.5-1.1c0-0.2,0-0.6,0.2-1.4l1.3-7.5h3.5l0.6-1.9h-3.7l0.7-3.8L205.1,66.3z M215.2,71.9h1.9l0.3-1.9h-5.7l-0.6,1.9
	h1.6l3.1,11.7l-3.4,5.5l2.4,0.5l10.1-17.7h1.5l0.3-1.9H221l-0.6,1.9h2l-3.7,6.7c-0.5,0.9-0.9,1.9-1.4,3.1h-0.1
	c-0.1-1.1-0.2-2.2-0.5-3.2L215.2,71.9z M241,76.2c2.5,0,4.6-0.3,6.1-1.9c1.3-1.3,2-3.4,2-5.3c0-2.6-1.1-5-5.7-5h-7.9l-0.6,2h2.3
	l-2.7,15.5h-2l-0.3,2h7.1l0.6-2h-2.8l0.9-5.4H241z M239.7,66.1h3.2c2.5,0,3.6,0.8,3.6,3.1c0,1.4-0.5,2.8-1.4,3.8
	c-0.8,0.9-2,1.3-3.8,1.3h-3.1L239.7,66.1z M262.3,83.6l0.6-1.9h-2.2l2.1-11.8h-1.3c-0.5,0.3-0.8,0.7-1.1,1.3c-0.9-0.9-2.3-1.6-4-1.6
	c-2.2,0-3.7,1-4.9,2.7c-1.2,1.7-1.8,4.1-1.8,6.2c0,3.6,1.9,5.4,5,5.4c1.6,0,2.9-0.5,4.1-1.4c0.2,0.5,0.4,0.8,0.7,1.1H262.3z
	 M256.7,71.5c1,0,2.1,0.4,3.1,1.4l-1.4,7.9c-1.1,0.8-2.2,1.2-3.4,1.2c-2,0-3-1.1-3-3.6c0-1.7,0.5-3.6,1.3-4.8
	C254.2,72.1,255.4,71.5,256.7,71.5 M270,70h-3.3l-0.6,1.9h2.2l-1.7,9.8h-1.9l-0.4,1.9h7.1l0.6-1.9h-2.9l1.5-8.8
	c1.3-0.7,2.6-1.2,3.9-1.2c0.1,0,0.3,0,0.4,0l-0.4,2.4h2.1l0.7-4.2c-0.5-0.2-1.2-0.4-2-0.4c-1.4,0-2.9,0.5-4.5,1.6
	C270.4,70.8,270.2,70.4,270,70 M282,66.3l-1,3.7h-2.3l-0.3,1.9h2.2l-1.2,7.2c-0.1,0.9-0.2,1.4-0.2,2c0,2,1.3,2.8,3.3,2.8
	c0.8,0,1.4-0.1,2-0.3l0.7-2.1c-0.7,0.2-1.4,0.4-2.1,0.4c-1,0-1.5-0.3-1.5-1.1c0-0.2,0-0.6,0.2-1.4l1.3-7.5h3.5L287,70h-3.7l0.7-3.8
	L282,66.3z M296.8,71.8c1.9,0,2.5,1,2.5,2.4c0,0.5-0.1,1-0.2,1.8l-1.4,7.7h4.4l0.6-1.9h-2.2l1-5.9c0.1-0.8,0.2-1.5,0.2-2
	c0-2.8-1.8-4.2-4.2-4.2c-1.5,0-3.1,0.6-4.6,1.6c-0.1-0.5-0.3-0.9-0.5-1.3H289l-0.6,1.9h2.2l-1.7,9.8H287l-0.4,1.9h6.3l0.6-1.9h-2.2
	l1.5-8.8C294.3,72.1,295.6,71.8,296.8,71.8 M316.8,77.4c0.2-1,0.4-2,0.4-2.9c0-2.9-1.3-4.8-5-4.8c-2.4,0-4.1,0.9-5.4,2.7
	c-1.3,1.9-1.9,4.4-1.9,6.4c0,1.6,0.4,3,1.3,3.9c1,0.9,2.5,1.3,4.3,1.3c1.6,0,3.3-0.3,4.2-0.6l0.6-2.1c-1.3,0.4-2.9,0.8-4.4,0.8
	c-2.3,0-3.5-1-3.5-3.3c0-0.4,0-0.8,0.1-1.3H316.8z M308.8,73.6c0.7-1.2,1.8-2.1,3.5-2.1c1.9,0,2.5,1.2,2.5,2.8c0,0.3,0,0.7-0.1,1.3
	H308C308.2,74.8,308.4,74.2,308.8,73.6 M323.6,70h-3.3l-0.6,1.9h2.2l-1.7,9.8h-1.9l-0.4,1.9h7.1l0.6-1.9h-2.9l1.5-8.8
	c1.3-0.7,2.6-1.2,3.9-1.2c0.1,0,0.3,0,0.4,0l-0.4,2.4h2.1l0.7-4.2c-0.5-0.2-1.2-0.4-2-0.4c-1.4,0-2.9,0.5-4.5,1.6
	C324.1,70.8,323.9,70.4,323.6,70 M334.5,83.9c3.8,0,6.2-1.7,6.2-4.5c0-1.7-0.8-2.6-3.1-3.5l-1.3-0.5c-1.3-0.5-1.7-0.9-1.7-1.7
	c0-1.3,1.2-2.1,3.2-2.1c0.6,0,1.2,0.1,1.7,0.2l-0.4,2.1h2.1l0.7-3.6c-1.2-0.3-2.8-0.5-4-0.5c-3.1,0-5.6,1.4-5.6,4.3
	c0,1.7,0.9,2.5,2.8,3.3l1.4,0.5c1.4,0.5,2,0.9,2,1.9c0,1.6-1.7,2.4-3.7,2.4c-0.7,0-1.3-0.1-1.9-0.2l0.4-2.1H331l-0.6,3.5
	C331.7,83.7,333.2,83.9,334.5,83.9 M346,63.4l-0.6,1.9h2.2l-2.9,16.3h-1.9l-0.3,1.9h6.3l0.6-1.9h-2.2l1.5-8.8
	c1.4-0.8,2.7-1.2,3.9-1.2c1.9,0,2.5,1,2.5,2.4c0,0.5-0.1,1-0.2,1.8l-1.4,7.7h4.4l0.6-1.9h-2.2l1-5.9c0.1-0.8,0.3-1.5,0.3-2.1
	c0-2.8-1.8-4.1-4.2-4.1c-1.4,0-2.9,0.5-4.2,1.3l0.7-4.1c0.1-0.8,0.2-1.2,0.2-1.6c0-0.7-0.1-1.3-0.5-1.8H346z M362.4,70l-0.6,1.9h2.2
	l-1.7,9.8h-1.9l-0.3,1.9h6.3l0.6-1.9h-2.2l1.5-8.4c0.1-0.8,0.2-1.2,0.2-1.6c0-0.7-0.1-1.3-0.5-1.8H362.4z M365.1,64.6l-0.5,2.6h2.6
	l0.5-2.8L365.1,64.6z M374.4,70H371l-0.6,1.9h2.2l-2.7,15.5h-1.9l-0.3,1.9h6.9l0.6-1.9h-2.8l0.9-5c1,1,2.4,1.6,4.1,1.6
	c2.1,0,3.8-0.9,4.9-2.6c1.1-1.7,1.9-4.2,1.9-6.3c0-3.6-1.8-5.4-4.8-5.4c-1.7,0-3.1,0.5-4.3,1.5C374.8,70.7,374.6,70.3,374.4,70
	 M376.7,82.1c-1.2,0-2.3-0.5-3.2-1.6l1.3-7.5c1.2-1,2.4-1.5,3.8-1.5c1.9,0,2.9,1.1,2.9,3.6c0,1.6-0.6,3.7-1.3,4.9
	C379.3,81.3,378.1,82.1,376.7,82.1"/>
</svg>
