<?xml version="1.0" encoding="UTF-8" standalone="no"?>
<!-- Created with Inkscape (http://www.inkscape.org/) -->

<svg
   xmlns:dc="http://purl.org/dc/elements/1.1/"
   xmlns:cc="http://creativecommons.org/ns#"
   xmlns:rdf="http://www.w3.org/1999/02/22-rdf-syntax-ns#"
   xmlns:svg="http://www.w3.org/2000/svg"
   xmlns="http://www.w3.org/2000/svg"
   xmlns:sodipodi="http://sodipodi.sourceforge.net/DTD/sodipodi-0.dtd"
   xmlns:inkscape="http://www.inkscape.org/namespaces/inkscape"
   width="273.53159"
   height="65.146912"
   viewBox="0 0 72.371901 17.236787"
   version="1.1"
   id="svg2376"
   inkscape:version="0.92.0 r15299"
   sodipodi:docname="apex tool group.svg">
  <defs
     id="defs2370">
    <clipPath
       id="clipPath966"
       clipPathUnits="userSpaceOnUse">
      <path
         inkscape:connector-curvature="0"
         id="path964"
         d="M 0,0 H 603 V 783 H 0 Z" />
    </clipPath>
    <clipPath
       id="clipPath946"
       clipPathUnits="userSpaceOnUse">
      <path
         inkscape:connector-curvature="0"
         id="path944"
         d="M 0,0 H 603 V 783 H 0 Z" />
    </clipPath>
    <clipPath
       id="clipPath922"
       clipPathUnits="userSpaceOnUse">
      <path
         inkscape:connector-curvature="0"
         id="path920"
         d="M 0,0 H 603 V 783 H 0 Z" />
    </clipPath>
    <clipPath
       id="clipPath886"
       clipPathUnits="userSpaceOnUse">
      <path
         inkscape:connector-curvature="0"
         id="path884"
         d="M 0,0 H 603 V 783 H 0 Z" />
    </clipPath>
  </defs>
  <sodipodi:namedview
     id="base"
     pagecolor="#ffffff"
     bordercolor="#666666"
     borderopacity="1.0"
     inkscape:pageopacity="0.0"
     inkscape:pageshadow="2"
     inkscape:zoom="2.2424998"
     inkscape:cx="170.05149"
     inkscape:cy="-31.354129"
     inkscape:document-units="mm"
     inkscape:current-layer="layer1"
     showgrid="false"
     fit-margin-top="0"
     fit-margin-left="0"
     fit-margin-right="0"
     fit-margin-bottom="0"
     units="px"
     inkscape:window-width="1280"
     inkscape:window-height="744"
     inkscape:window-x="-4"
     inkscape:window-y="-4"
     inkscape:window-maximized="1" />
  <metadata
     id="metadata2373">
    <rdf:RDF>
      <cc:Work
         rdf:about="">
        <dc:format>image/svg+xml</dc:format>
        <dc:type
           rdf:resource="http://purl.org/dc/dcmitype/StillImage" />
        <dc:title></dc:title>
      </cc:Work>
    </rdf:RDF>
  </metadata>
  <g
     inkscape:label="Layer 1"
     inkscape:groupmode="layer"
     id="layer1"
     transform="translate(-59.328633,-194.37893)">
    <g
       id="g2599"
       transform="translate(0.2645809,-0.26457972)">
      <path
         d="m 74.795645,207.34287 -4.280253,-5.82436 c -3.241675,0.59937 -5.978172,2.60773 -8.175625,4.92054 -0.143227,0.24483 -1.129594,1.8348 -1.129594,1.8348 0,0 2.179814,3.16548 6.597297,3.16548 4.664781,0 6.988175,-4.09646 6.988175,-4.09646"
         style="fill:#221e1f;fill-opacity:1;fill-rule:nonzero;stroke:none;stroke-width:0.35277778"
         id="path890"
         inkscape:connector-curvature="0" />
      <g
         transform="matrix(0.35277777,0,0,-0.35277777,74.795645,207.34287)"
         id="g892">
        <path
           inkscape:connector-curvature="0"
           id="path894"
           style="fill:none;stroke:#ffffff;stroke-width:1;stroke-linecap:butt;stroke-linejoin:miter;stroke-miterlimit:10;stroke-dasharray:none;stroke-opacity:1"
           d="m 0,0 -12.133,16.51 c -9.189,-1.699 -16.946,-7.392 -23.175,-13.948 -0.406,-0.694 -3.202,-5.201 -3.202,-5.201 0,0 6.179,-8.973 18.701,-8.973 C -6.586,-11.612 0,0 0,0 Z" />
      </g>
      <g
         transform="matrix(0.35277777,0,0,-0.35277777,61.240547,208.3123)"
         id="g896">
        <path
           inkscape:connector-curvature="0"
           id="path898"
           style="fill:#ffffff;fill-opacity:1;fill-rule:nonzero;stroke:none"
           d="M 0,0 C -0.582,0.749 -1.23,1.45 -1.772,2.375 L 18.274,34.803 39.744,5.328 C 39.337,4.32 38.827,3.485 38.304,2.578 L 26.282,19.091 C 17.104,17.385 9.356,11.665 3.135,5.079 2.868,4.62 0,0 0,0" />
      </g>
      <g
         transform="matrix(0.35277777,0,0,-0.35277777,61.240547,208.3123)"
         id="g900">
        <path
           inkscape:connector-curvature="0"
           id="path902"
           style="fill:none;stroke:#ffffff;stroke-width:1;stroke-linecap:butt;stroke-linejoin:miter;stroke-miterlimit:10;stroke-dasharray:none;stroke-opacity:1"
           d="M 0,0 C -0.582,0.749 -1.23,1.45 -1.772,2.375 L 18.274,34.803 39.744,5.328 C 39.337,4.32 38.827,3.485 38.304,2.578 L 26.282,19.091 C 17.104,17.385 9.356,11.665 3.135,5.079 2.868,4.62 0,0 0,0 Z" />
      </g>
      <path
         d="m 75.250552,206.44675 c 0.392289,-0.96344 0.608894,-2.01859 0.608894,-3.12455 0,-4.54942 -3.661127,-8.23772 -8.177388,-8.23772 -4.516261,0 -8.177036,3.6883 -8.177036,8.23772 0,1.52364 0.410633,2.95134 1.126772,4.17547 l 7.052733,-11.3986 z"
         style="fill:#007cc2;fill-opacity:1;fill-rule:nonzero;stroke:none;stroke-width:0.35277778"
         id="path906"
         inkscape:connector-curvature="0" />
      <g
         transform="matrix(0.35277777,0,0,-0.35277777,75.250552,206.44675)"
         id="g908">
        <path
           inkscape:connector-curvature="0"
           id="path910"
           style="fill:none;stroke:#ffffff;stroke-width:1;stroke-linecap:butt;stroke-linejoin:miter;stroke-miterlimit:10;stroke-dasharray:none;stroke-opacity:1"
           d="m 0,0 c 1.112,2.731 1.726,5.722 1.726,8.857 0,12.896 -10.378,23.351 -23.18,23.351 -12.802,0 -23.179,-10.455 -23.179,-23.351 0,-4.319 1.164,-8.366 3.194,-11.836 l 19.992,32.311 z" />
      </g>
      <path
         d="m 84.319871,197.83287 h 3.768725 l 5.186891,8.02287 h -3.219449 l -0.899231,-1.41887 h -5.866342 l -0.847019,1.41887 h -3.232855 z m 0.05292,4.87539 h 3.701344 l -1.877483,-3.01378 z"
         style="fill:#221e1f;fill-opacity:1;fill-rule:nonzero;stroke:none;stroke-width:0.35277778"
         id="path914"
         inkscape:connector-curvature="0" />
      <path
         d="m 93.785249,197.83286 h 7.886351 c 2.75166,0 3.41559,1.1751 3.41559,2.74814 v 0.68756 c 0,1.19627 -0.61207,2.57034 -2.65924,2.57034 h -5.748512 v 2.01683 h -2.894189 z m 2.894189,4.01108 h 4.497212 c 0.6791,0 0.93803,-0.37676 0.93803,-0.85407 v -0.30974 c 0,-0.54222 -0.31256,-0.85231 -1.18639,-0.85231 h -4.248852 z"
         style="fill:#221e1f;fill-opacity:1;fill-rule:nonzero;stroke:none;stroke-width:0.35277778"
         id="path926"
         inkscape:connector-curvature="0" />
      <path
         d="m 105.87032,197.83287 h 10.32475 v 1.86161 h -7.43127 v 1.28517 h 7.04039 v 1.66229 h -7.04039 v 1.28552 h 7.60095 v 1.92828 h -10.49443 z"
         style="fill:#221e1f;fill-opacity:1;fill-rule:nonzero;stroke:none;stroke-width:0.35277778"
         id="path930"
         inkscape:connector-curvature="0" />
      <path
         d="m 121.59278,201.83316 -4.30177,-4.00015 h 3.74085 l 2.93264,2.80318 2.93441,-2.80318 h 3.7405 l -4.30177,4.00015 4.62703,4.02272 h -3.88478 l -3.11539,-2.91465 -3.11538,2.91465 h -3.88514 z"
         style="fill:#221e1f;fill-opacity:1;fill-rule:nonzero;stroke:none;stroke-width:0.35277778"
         id="path934"
         inkscape:connector-curvature="0" />
      <path
         d="m 79.260033,207.71915 h 2.602089 v 0.53552 h -0.959203 v 1.6196 h -0.682625 v -1.6196 h -0.960261 z"
         style="fill:#221e1f;fill-opacity:1;fill-rule:nonzero;stroke:none;stroke-width:0.35277778"
         id="path938"
         inkscape:connector-curvature="0" />
      <path
         d="m 85.003481,208.47497 c 0,-0.63077 0.365831,-0.78034 0.981428,-0.78034 h 1.094669 c 0.614892,0 0.98037,0.14957 0.98037,0.78034 v 0.64241 c 0,0.63182 -0.365478,0.7807 -0.98037,0.7807 h -1.094669 c -0.615597,0 -0.981428,-0.14888 -0.981428,-0.7807 z m 0.701322,0.43674 c 0,0.31291 0.06703,0.4325 0.391231,0.4325 h 0.873125 c 0.322439,0 0.389819,-0.11959 0.389819,-0.4325 v -0.23178 c 0,-0.2674 -0.06738,-0.43215 -0.426155,-0.43215 H 86.13237 c -0.360539,0 -0.427567,0.16475 -0.427567,0.43215 z"
         style="fill:#221e1f;fill-opacity:1;fill-rule:nonzero;stroke:none;stroke-width:0.35277778"
         id="path950"
         inkscape:connector-curvature="0" />
      <path
         d="m 91.254315,208.47497 c 0,-0.63077 0.366536,-0.78034 0.981428,-0.78034 h 1.094669 c 0.614892,0 0.980722,0.14957 0.980722,0.78034 v 0.64241 c 0,0.63182 -0.36583,0.7807 -0.980722,0.7807 h -1.094669 c -0.614892,0 -0.981428,-0.14888 -0.981428,-0.7807 z m 0.701322,0.43674 c 0,0.31291 0.06809,0.4325 0.390878,0.4325 h 0.872772 c 0.323145,0 0.38982,-0.11959 0.38982,-0.4325 v -0.23178 c 0,-0.2674 -0.06667,-0.43215 -0.427214,-0.43215 h -0.798689 c -0.359481,0 -0.427567,0.16475 -0.427567,0.43215 z"
         style="fill:#221e1f;fill-opacity:1;fill-rule:nonzero;stroke:none;stroke-width:0.35277778"
         id="path954"
         inkscape:connector-curvature="0" />
      <path
         d="m 97.493422,207.71915 h 0.681567 v 1.60091 h 1.534936 v 0.55421 h -2.216503 z"
         style="fill:#221e1f;fill-opacity:1;fill-rule:nonzero;stroke:none;stroke-width:0.35277778"
         id="path958"
         inkscape:connector-curvature="0" />
      <path
         d="m 107.25445,208.39267 c 10e-4,-0.14993 -0.14499,-0.17992 -0.34078,-0.17992 h -0.74013 c -0.34502,0 -0.43427,0.0801 -0.43427,0.45015 v 0.26776 c 0,0.36935 0.0892,0.44908 0.43427,0.44908 h 0.72778 c 0.17886,0 0.35736,-0.0173 0.35736,-0.22578 v -0.0628 h -0.84913 v -0.42404 h 1.53176 v 0.58244 c 0,0.61877 -0.33232,0.6484 -1.10067,0.6484 h -0.82126 c -0.61454,0 -0.98108,-0.14887 -0.98108,-0.78069 v -0.64241 c 0,-0.63077 0.36654,-0.78035 0.98108,-0.78035 h 1.02623 c 0.7754,0 0.88265,0.27482 0.88265,0.69498 z"
         style="fill:#221e1f;fill-opacity:1;fill-rule:nonzero;stroke:none;stroke-width:0.35277778"
         id="path970"
         inkscape:connector-curvature="0" />
      <path
         d="m 110.93857,207.71914 h 2.05952 c 0.52634,0 0.6678,0.25259 0.6678,0.63959 v 0.13687 c 0,0.28893 -0.0677,0.45826 -0.38205,0.52952 v 0.006 c 0.2032,0.036 0.37253,0.12277 0.37253,0.47696 v 0.36618 h -0.68298 v -0.2607 c 0,-0.22508 -0.067,-0.29881 -0.27975,-0.29881 h -1.0728 v 0.55951 h -0.68227 z m 0.68227,1.05939 h 1.12854 c 0.1845,0 0.25223,-0.072 0.25223,-0.22578 v -0.0723 c 0,-0.18908 -0.0988,-0.22577 -0.31397,-0.22577 h -1.0668 z"
         style="fill:#221e1f;fill-opacity:1;fill-rule:nonzero;stroke:none;stroke-width:0.35277778"
         id="path974"
         inkscape:connector-curvature="0" />
      <path
         d="m 116.66285,208.47497 c 0,-0.63077 0.36583,-0.78034 0.98107,-0.78034 h 1.09432 c 0.61595,0 0.98108,0.14957 0.98108,0.78034 v 0.64241 c 0,0.63182 -0.36513,0.7807 -0.98108,0.7807 h -1.09432 c -0.61524,0 -0.98107,-0.14888 -0.98107,-0.7807 z m 0.70132,0.43674 c 0,0.31291 0.0681,0.4325 0.39053,0.4325 h 0.87347 c 0.32244,0 0.39088,-0.11959 0.39088,-0.4325 v -0.23178 c 0,-0.2674 -0.0684,-0.43215 -0.42756,-0.43215 h -0.80081 c -0.35842,0 -0.42651,0.16475 -0.42651,0.43215 z"
         style="fill:#221e1f;fill-opacity:1;fill-rule:nonzero;stroke:none;stroke-width:0.35277778"
         id="path978"
         inkscape:connector-curvature="0" />
      <path
         d="m 122.65485,207.71914 h 0.68227 v 1.2446 c 0,0.2734 0.1016,0.38065 0.38135,0.38065 h 0.67734 c 0.2794,0 0.38065,-0.10725 0.38065,-0.38065 v -1.2446 h 0.68262 v 1.38783 c 0,0.53516 -0.28575,0.79093 -0.91228,0.79093 h -0.97826 c -0.62794,0 -0.91369,-0.25577 -0.91369,-0.79093 z"
         style="fill:#221e1f;fill-opacity:1;fill-rule:nonzero;stroke:none;stroke-width:0.35277778"
         id="path982"
         inkscape:connector-curvature="0" />
      <path
         d="m 128.50613,207.71914 h 1.85984 c 0.64982,0 0.8054,0.31538 0.8054,0.73801 v 0.1845 c 0,0.32209 -0.14394,0.69074 -0.62654,0.69074 h -1.35713 v 0.54187 h -0.68157 z m 0.68157,1.07809 h 1.0608 c 0.16051,0 0.22331,-0.1009 0.22331,-0.23037 v -0.0829 c 0,-0.14605 -0.0744,-0.2293 -0.28011,-0.2293 h -1.004 z"
         style="fill:#221e1f;fill-opacity:1;fill-rule:nonzero;stroke:none;stroke-width:0.35277778"
         id="path986"
         inkscape:connector-curvature="0" />
    </g>
  </g>
</svg>
