<?xml version="1.0" encoding="utf-8"?>
<!-- Generator: Adobe Illustrator 24.1.2, SVG Export Plug-In . SVG Version: 6.00 Build 0)  -->
<svg version="1.1" id="Layer_1" xmlns="http://www.w3.org/2000/svg" xmlns:xlink="http://www.w3.org/1999/xlink" x="0px" y="0px"
	 viewBox="0 0 361 40.4" style="enable-background:new 0 0 361 40.4;" xml:space="preserve">
<style type="text/css">
	.apmgst0{fill:url(#SVGID_1_);}
	.apmgst1{fill:url(#SVGID_2_);}
	.apmgst2{fill:url(#SVGID_3_);}
	.apmgst3{fill:#28348A;}
</style>
<g>
	
		<radialGradient id="SVGID_1_" cx="-60.3548" cy="25.1088" r="15.514" gradientTransform="matrix(1.06 0 0 -1 81.1611 42.6927)" gradientUnits="userSpaceOnUse">
		<stop  offset="1.000000e-02" style="stop-color:#FFFFFF"/>
		<stop  offset="4.000000e-02" style="stop-color:#F1F9FE"/>
		<stop  offset="7.000000e-02" style="stop-color:#DDF0FC"/>
		<stop  offset="0.12" style="stop-color:#BDE3F7"/>
		<stop  offset="0.22" style="stop-color:#8FCFF0"/>
		<stop  offset="0.3" style="stop-color:#6DC1EB"/>
		<stop  offset="0.37" style="stop-color:#58B8E8"/>
		<stop  offset="0.42" style="stop-color:#51B5E7"/>
		<stop  offset="0.63" style="stop-color:#4680C0"/>
		<stop  offset="0.79" style="stop-color:#3F5EA7"/>
		<stop  offset="1" style="stop-color:#28348A"/>
	</radialGradient>
	<path class="apmgst0" d="M3.2,3.7L3.2,3.7 M7.3,1.3C7,1.4,6.7,1.6,6.3,1.7S5.8,2,5.5,2.2L4.8,2.6L4.2,2.9L3.8,3.2L3.5,3.5
		c-0.1,0-0.1,0.1-0.2,0.2L3.2,3.7h0.1h0.1h0.1h0.1c0.5-0.2,1-0.4,1.6-0.5C5.7,3,6.2,2.8,6.8,2.7C7.4,2.6,8,2.6,8.6,2.6
		c0.6,0,1.3,0,1.9,0.1c0.7,0.1,1.4,0.2,2.1,0.4c0.7,0.2,1.4,0.5,2.1,0.8c0.7,0.3,1.4,0.7,2.1,1.2c0.7,0.5,1.4,1,2,1.6
		c0.7,0.6,1.3,1.3,1.8,2c0.6,0.7,1.1,1.5,1.5,2.3c0.9,1.7,1.6,3.5,2,5.4c0.2,0.9,0.3,1.8,0.3,2.8c0,0.9-0.1,1.8-0.2,2.7
		c-0.1,0.8-0.4,1.7-0.6,2.5c-0.3,0.8-0.6,1.5-1,2.2c-0.7,1.2-1.6,2.3-2.7,3.2c-0.9,0.7-1.9,1.3-3,1.8c-0.9,0.3-1.8,0.6-2.8,0.7
		c-0.7,0.1-1.5,0-2.2-0.1h-0.1h-0.1h-0.1h-0.1c-0.3-0.1-0.5-0.1-0.8-0.2s-0.4-0.2-0.6-0.3l-0.5-0.3c-0.2-0.1-0.3-0.2-0.4-0.3
		l-0.4-0.3l-0.3-0.2c0,0-0.1-0.1-0.2-0.1l-0.1-0.1l0,0c0.2,0.4,0.5,0.9,0.8,1.3c0.4,0.4,0.7,0.8,1.2,1.2c0.5,0.4,1,0.7,1.5,1
		c0.6,0.3,1.2,0.6,1.8,0.8l0,0h0.1h0.1l0,0c0.7,0.2,1.5,0.3,2.3,0.4c0.8,0.1,1.7,0,2.5-0.1c0.9-0.1,1.8-0.3,2.7-0.7
		c1-0.4,1.9-0.8,2.7-1.4c0.9-0.6,1.8-1.3,2.5-2.1c0.8-0.9,1.5-1.8,2.1-2.9c1.3-2.3,2.1-4.8,2.3-7.4c0.1-1.4,0-2.7-0.2-4.1
		c-0.2-1.3-0.5-2.6-1-3.8c-0.4-1.2-1-2.3-1.6-3.4c-0.6-1-1.3-2-2.1-2.9c-0.7-0.8-1.5-1.6-2.4-2.3c-0.8-0.6-1.6-1.2-2.5-1.7
		c-0.8-0.5-1.6-0.8-2.5-1.2c-0.8-0.3-1.6-0.5-2.4-0.7c-0.7-0.2-1.5-0.3-2.2-0.3c-0.7,0-1.4,0-2,0c-0.6,0-1.2,0.1-1.8,0.2
		C9.7,0.4,9.2,0.5,8.7,0.7L8.3,0.8L8,1L7.7,1.2L7.3,1.3"/>
	
		<radialGradient id="SVGID_2_" cx="-30.8243" cy="14.3344" r="14.0298" gradientTransform="matrix(1 0 0 -1 0 42.6927)" gradientUnits="userSpaceOnUse">
		<stop  offset="1.000000e-02" style="stop-color:#FFFFFF"/>
		<stop  offset="4.000000e-02" style="stop-color:#F1F9FE"/>
		<stop  offset="7.000000e-02" style="stop-color:#DDF0FC"/>
		<stop  offset="0.12" style="stop-color:#BDE3F7"/>
		<stop  offset="0.22" style="stop-color:#8FCFF0"/>
		<stop  offset="0.3" style="stop-color:#6DC1EB"/>
		<stop  offset="0.37" style="stop-color:#58B8E8"/>
		<stop  offset="0.42" style="stop-color:#51B5E7"/>
		<stop  offset="0.63" style="stop-color:#4680C0"/>
		<stop  offset="0.79" style="stop-color:#3F5EA7"/>
		<stop  offset="1" style="stop-color:#28348A"/>
	</radialGradient>
	<path class="apmgst1" d="M35.1,25.5L35.1,25.5 M7.3,16.3c-0.5,0.1-1,0.2-1.5,0.4c-0.5,0.2-1,0.5-1.4,0.9C4,18,3.6,18.4,3.3,18.9
		c-0.4,0.5-0.7,1.1-0.9,1.7c-0.1,0.3-0.2,0.7-0.3,1c-0.1,0.3-0.2,0.7-0.2,1s-0.1,0.7-0.1,1.1c0,0.4,0,0.8,0,1.1c0,0.4,0,0.8,0.1,1.2
		c0,0.4,0.1,0.8,0.2,1.2c0.1,0.4,0.2,0.8,0.3,1.2s0.2,0.8,0.4,1.2c0.3,0.8,0.6,1.6,1,2.3c0.4,0.8,0.9,1.5,1.4,2.2
		c0.5,0.7,1.2,1.4,1.8,2c0.7,0.6,1.4,1.2,2.2,1.7l0.7,0.4c0.2,0.1,0.5,0.3,0.7,0.4l0.7,0.4l0.8,0.3c0.2,0.1,0.4,0.1,0.6,0.2l0.6,0.2
		l0.6,0.2c0.2,0.1,0.4,0.1,0.6,0.2c0.5,0.1,0.9,0.2,1.4,0.3c0.5,0.1,0.9,0.1,1.4,0.1c0.5,0,0.9,0,1.4,0c0.5,0,0.9,0,1.4-0.1
		c0.9-0.1,1.9-0.3,2.8-0.6c0.9-0.3,1.7-0.6,2.6-1c0.8-0.4,1.6-0.8,2.3-1.4c0.7-0.5,1.4-1,2-1.7c0.6-0.6,1.2-1.2,1.7-1.8
		c0.5-0.6,0.9-1.2,1.3-1.8c0.4-0.6,0.7-1.2,1-1.8c0.3-0.6,0.5-1.1,0.7-1.6s0.3-0.9,0.4-1.3c0.1-0.4,0.2-0.7,0.3-1s0.1-0.5,0.2-0.6
		s0-0.2,0-0.2c-0.7,1.1-1.4,2.2-2.3,3.2c-0.8,1-1.7,1.9-2.6,2.7c-0.9,0.8-1.8,1.6-2.8,2.2c-1,0.6-2,1.1-3,1.6c-1,0.4-2,0.8-3,1
		c-1.9,0.4-3.8,0.5-5.7,0.3c-0.8-0.1-1.7-0.3-2.5-0.5h-0.1l0,0H13H13c-1.5-0.5-2.8-1.2-4-2.2c-0.5-0.4-1.1-0.9-1.5-1.4
		c-0.5-0.6-0.9-1.1-1.3-1.8c-0.2-0.3-0.3-0.6-0.5-0.8s-0.3-0.6-0.4-0.8S5,28.4,4.9,28.1s-0.2-0.6-0.3-0.8c-0.1-0.3-0.2-0.6-0.2-0.8
		s-0.1-0.6-0.1-0.8c0-0.3-0.1-0.5-0.1-0.8c0-0.2,0-0.5,0-0.7c0-0.4,0.1-0.9,0.1-1.3c0.1-0.4,0.2-0.8,0.4-1.2c0.2-0.3,0.3-0.7,0.5-1
		c0.2-0.3,0.4-0.6,0.7-0.8c0.2-0.2,0.4-0.4,0.7-0.6c0.2-0.2,0.5-0.3,0.7-0.4c0.2-0.1,0.5-0.2,0.7-0.2c0.2-0.1,0.4-0.1,0.6-0.1h0.2
		c0.2,0,0.4,0.1,0.6,0.1c0.2,0,0.4,0.1,0.5,0.2c0.2,0.1,0.3,0.1,0.4,0.2l0.4,0.2l0.2,0.2c0.1,0.1,0.1,0.1,0.2,0.2l0.1,0.1l0,0l0,0
		c0-0.4-0.2-0.8-0.4-1.2c-0.4-0.8-1.1-1.5-2-1.8c-0.5-0.2-0.9-0.3-1.4-0.2L7.3,16.3"/>
	
		<radialGradient id="SVGID_3_" cx="-39.2043" cy="22.2188" r="9.06" gradientTransform="matrix(1 0 0 -1 0 42.6927)" gradientUnits="userSpaceOnUse">
		<stop  offset="1.000000e-02" style="stop-color:#FFFFFF"/>
		<stop  offset="4.000000e-02" style="stop-color:#F1F9FE"/>
		<stop  offset="7.000000e-02" style="stop-color:#DDF0FC"/>
		<stop  offset="0.12" style="stop-color:#BDE3F7"/>
		<stop  offset="0.22" style="stop-color:#8FCFF0"/>
		<stop  offset="0.3" style="stop-color:#6DC1EB"/>
		<stop  offset="0.37" style="stop-color:#58B8E8"/>
		<stop  offset="0.42" style="stop-color:#51B5E7"/>
		<stop  offset="0.63" style="stop-color:#4680C0"/>
		<stop  offset="0.79" style="stop-color:#3F5EA7"/>
		<stop  offset="1" style="stop-color:#28348A"/>
	</radialGradient>
	<path class="apmgst2" d="M0.3,26.3L0.3,26.3 M8.4,11.4l-0.5,0.1l-0.5,0.2l-0.5,0.2l-0.5,0.2l-0.5,0.2c-0.2,0.1-0.3,0.2-0.5,0.3L5,12.9
		c-0.1,0.1-0.3,0.2-0.4,0.3c-0.5,0.4-1,0.9-1.5,1.4c-0.4,0.5-0.8,1-1.1,1.5c-0.3,0.5-0.6,1-0.8,1.6c-0.2,0.5-0.4,1-0.5,1.6
		c-0.1,0.5-0.3,1-0.3,1.5c-0.1,0.5-0.1,0.9-0.2,1.4C0,22.6,0,23,0,23.4s0,0.7,0,1s0,0.6,0.1,0.8s0.1,0.4,0.1,0.6s0,0.3,0.1,0.4
		c0,0.1,0,0.1,0,0.2c0-0.7,0-1.5,0.1-2.2c0.1-0.7,0.2-1.4,0.4-2.1c0.2-0.7,0.4-1.4,0.7-2c0.3-0.6,0.6-1.2,1-1.8
		c0.6-0.9,1.4-1.7,2.3-2.3c0.4-0.3,0.9-0.5,1.4-0.7c0.5-0.2,1-0.3,1.5-0.4h0.3h0.3h0.3h0.3c0.7,0.1,1.3,0.3,1.9,0.6
		c0.6,0.3,1.1,0.8,1.6,1.3c0.5,0.5,0.9,1.1,1.2,1.8c0.3,0.7,0.5,1.4,0.6,2.1c0.1,0.6,0.1,1.3-0.1,1.9c-0.1,0.6-0.3,1.1-0.6,1.6
		c-0.3,0.4-0.6,0.8-1,1.1c-0.4,0.3-0.8,0.4-1.2,0.5h-0.2L11,25.7h-0.4c-0.2-0.1-0.5-0.2-0.6-0.3c-0.2-0.1-0.4-0.3-0.6-0.4
		c-0.2-0.2-0.3-0.3-0.4-0.6c-0.1-0.2-0.2-0.4-0.2-0.6c0-0.1,0-0.3,0-0.4c0-0.1,0-0.2,0.1-0.3c0.2-0.3,0.4-0.5,0.6-0.8
		c0-0.1,0.1-0.2,0.1-0.3c0-0.1,0-0.3-0.1-0.4c0-0.1-0.1-0.1-0.1-0.2c-0.1-0.1-0.1-0.1-0.2-0.2c-0.1,0-0.2-0.1-0.2-0.1
		c-0.1,0-0.2,0-0.3,0H8.4l-0.2,0.1c-0.1,0-0.2,0.1-0.2,0.1c-0.1,0-0.2,0.1-0.2,0.1c-0.2,0.1-0.3,0.3-0.5,0.5
		c-0.2,0.2-0.3,0.5-0.4,0.7c-0.2,0.6-0.3,1.2-0.2,1.8c0,0.3,0.1,0.7,0.2,1c0.1,0.3,0.3,0.7,0.4,1c0.2,0.4,0.4,0.7,0.7,1
		c0.3,0.3,0.6,0.6,0.9,0.9c0.2,0.1,0.3,0.2,0.5,0.3c0.2,0.1,0.4,0.2,0.5,0.3c0.2,0.1,0.4,0.2,0.6,0.2c0.2,0.1,0.4,0.1,0.6,0.2
		c0.2,0,0.5,0.1,0.7,0.1c0.2,0,0.5,0,0.7,0c0.2,0,0.5,0,0.7-0.1c0.2,0,0.5-0.1,0.7-0.2c0.5-0.1,0.9-0.3,1.3-0.6
		c0.4-0.3,0.9-0.6,1.2-0.9c0.4-0.4,0.8-0.8,1.1-1.2c0.3-0.5,0.6-1,0.8-1.6c0.2-0.6,0.4-1.2,0.5-1.8C19,22.6,19,22,19,21.4
		c0-0.6-0.1-1.3-0.2-1.9c-0.1-0.6-0.3-1.2-0.5-1.8c-0.2-0.6-0.5-1.1-0.8-1.6c-0.3-0.5-0.6-1-1-1.4c-0.4-0.4-0.8-0.8-1.2-1.2
		c-0.4-0.3-0.8-0.6-1.3-0.9c-0.4-0.3-0.9-0.5-1.3-0.7c-0.4-0.2-0.9-0.3-1.3-0.4c-0.4-0.1-0.9-0.1-1.3-0.2c-0.4,0-0.9,0-1.3,0.1
		L8.4,11.4"/>
	<path class="apmgst3" d="M45.6,33H40L50.8,5.2h4.7L66,33h-5.8L58,27.2H47.8L45.6,33z M53,13.1L49.6,22h6.6L53,13.1z M67.7,33V5.2h6.9
		c3,0,5.1,0.2,6.6,1.2c2.3,1.6,3.7,4.3,3.7,7.1c0,5.1-3.6,8.7-9.7,8.7H73V33H67.7z M74.5,17.6c3.1,0,4.7-1.4,4.7-3.8
		s-1.6-3.7-4.7-3.7H73v7.5L74.5,17.6z M87.3,33V5.2h7.2l7,20.1l7-20.1h7.2V33h-5.3l0.2-20.1l-7,20.1h-4l-7-20.1L92.7,33H87.3z
		 M146.5,19.2c0.1,2.1-0.4,4.3-1.3,6.2c-2.3,5.1-7.4,8.3-13,8.1c-4.1,0-7.9-1.7-10.6-4.8c-2.4-2.7-3.6-6.2-3.6-9.8
		c0-3.9,1.6-7.5,4.4-10.2c2.7-2.7,6.4-4.1,10.2-4c5.9,0,10.4,3,12.8,8.6h-6.6c-1.6-2-4-3.1-6.5-3c-4.9,0-8.8,4-8.8,8.9
		s4,8.8,8.9,8.8l0,0c3.3,0,6.4-2,7.6-5.1h-10.9v-4.6h17.3C146.5,18.5,146.5,18.8,146.5,19.2z M155,33V5.2h2.7V33H155z M164.7,12v2.4
		c1.7-1.9,4.1-2.9,6.6-2.8c3.1,0,5.6,1.2,6.9,3.3c1.2,1.8,1.4,4.1,1.4,7.1v11h-2.6V21.2c0-4.8-1.7-7.1-6-7.1c-2.2-0.1-4.3,1-5.4,2.8
		c-0.9,1.6-0.9,3.4-0.9,5.8V33H162V12H164.7z M185.3,14.7h-4V12h4V5.2h2.7V12h4v2.7h-4V33h-2.7V14.7z M195.3,23.3
		c0.1,4.3,3.7,7.7,8,7.6c3.1,0,5.9-1.8,7.2-4.6h3c-2,4.7-5.6,7.2-10.1,7.2c-6,0-10.9-5-10.9-11c0,0,0,0,0-0.1
		c-0.2-5.9,4.4-10.8,10.3-11c0.2,0,0.5,0,0.7,0c6.2,0,10.7,4.7,10.7,11.7v0.2L195.3,23.3z M203.1,14c-4,0-7.1,2.7-7.8,7.1h15.9
		C210.2,16.4,207.5,14,203.1,14z M216.9,33V12h2.5v2.4c1.1-1.7,2.9-2.7,4.9-2.7v2.9c-3.7,0.3-4.7,2.2-4.7,5.7V33H216.9z M229.7,12
		v2.4c1.7-1.9,4.1-2.9,6.6-2.8c3.1,0,5.6,1.2,6.9,3.3c1.2,1.8,1.4,4.1,1.4,7.1v11h-2.6V21.2c0-4.8-1.7-7.1-6-7.1
		c-2.2-0.1-4.3,1-5.4,2.8c-0.9,1.6-0.9,3.4-0.9,5.8V33h-2.6V12H229.7z M258.1,33.5c-5.9,0.1-10.7-4.6-10.7-10.5c0-0.1,0-0.3,0-0.4
		c-0.1-5.9,4.5-10.9,10.5-11c0.2,0,0.3,0,0.5,0c3.1-0.1,6,1.3,7.8,3.8V12h2.6V33h-2.6v-3.3C264.3,32.1,261.3,33.6,258.1,33.5z
		 M258.3,14.1c-4.6,0.1-8.2,3.9-8.1,8.5c0,0.1,0,0.1,0,0.2c-0.1,4.5,3.5,8.2,8,8.3c4,0,8-3.7,8-8.7
		C266.2,17.8,262.3,14.1,258.3,14.1z M274.5,14.7h-4V12h4V5.2h2.7V12h4v2.7h-4V33h-2.7V14.7z M282.9,9.6V5.2h2.7v4.3H282.9z
		 M282.9,12h2.7V33h-2.7V12z M299,11.4c6.1-0.3,11.3,4.5,11.6,10.6s-4.5,11.3-10.6,11.6c-6.1,0.3-11.3-4.5-11.6-10.6
		c0-0.1,0-0.3,0-0.4C288.3,16.5,293,11.5,299,11.4z M299.2,31c4.4,0,8-3.6,8-8.5s-3.5-8.5-8.2-8.5c-4,0-7.8,3.4-7.8,8.5
		C291.2,27.3,294.7,31,299.2,31L299.2,31z M315.4,12v2.4c1.7-1.9,4.1-2.9,6.6-2.8c3.1,0,5.6,1.2,6.9,3.3c1.2,1.8,1.4,4.1,1.4,7.1v11
		h-2.6V21.2c0-4.8-1.7-7.1-6-7.1c-2.2-0.1-4.3,1-5.4,2.8c-0.9,1.6-0.9,3.4-0.9,5.8V33h-2.6V12H315.4z M343.8,33.5
		c-5.9,0.1-10.7-4.7-10.7-10.5c0-0.1,0-0.3,0-0.4c-0.1-5.9,4.6-10.9,10.5-11c0.2,0,0.3,0,0.5,0c3.1-0.1,6,1.4,7.8,3.8V12h2.6V33
		h-2.6v-3.3C349.9,32.2,346.9,33.6,343.8,33.5z M344,14.1c-4.6,0.1-8.2,3.9-8.1,8.5c0,0.1,0,0.1,0,0.2c-0.1,4.5,3.5,8.2,8,8.3
		c4,0,8-3.7,8-8.7C351.8,17.8,348,14.1,344,14.1z M358.3,5.2h2.7V33h-2.7V5.2z"/>
</g>
</svg>
