<?xml version="1.0" encoding="utf-8"?>
<!-- Generator: Adobe Illustrator 24.1.0, SVG Export Plug-In . SVG Version: 6.00 Build 0)  -->
<svg version="1.1" id="Layer_1" xmlns="http://www.w3.org/2000/svg" xmlns:xlink="http://www.w3.org/1999/xlink" x="0px" y="0px"
	 viewBox="0 0 1148 136" style="enable-background:new 0 0 1148 136;" xml:space="preserve">
<style type="text/css">
	.st0{fill:none;stroke:#000000;stroke-width:0.2552;stroke-miterlimit:10;}
	.st1{fill:#DF001A;}
	.st2{fill:#0055A0;}
</style>
<line class="st0" x1="-654" y1="30" x2="-634" y2="30"/>
<line class="st0" x1="1782" y1="30" x2="1802" y2="30"/>
<line class="st0" x1="-624" y1="0" x2="-624" y2="20"/>
<line class="st0" x1="-624" y1="3411.3" x2="-624" y2="3431.3"/>
<line class="st0" x1="1772" y1="0" x2="1772" y2="20"/>
<line class="st0" x1="1772" y1="3411.3" x2="1772" y2="3431.3"/>
<g>
	<path class="st1" d="M303.5,87.3c0,3.8,0,7.5,0,11.3c0,3.7-1.6,6.1-4.6,7.3c-2.8,1.1-5.6,0.4-7.9-2.4c-1.2-1.6-2.2-1.1-3.5-0.4
		c-17.4,8.6-37.1-0.1-42.6-18.7c-4.8-16.4,7.6-34.5,24.5-36.9c18.2-2.6,34.5,11.8,34.2,30.4c0,3.2,0,6.3,0,9.5
		C303.6,87.3,303.5,87.3,303.5,87.3z M289.3,77c0.1-8.4-6.9-15.8-15.2-15.9c-8.5-0.1-15.8,6.9-16,15.5c-0.2,8.2,7.4,16,15.6,16
		C282.3,92.5,289.2,85.6,289.3,77z M501.6,76.8c0.1,16.1-13.1,29.4-29.2,29.4c-17.1,0-30.1-12.6-30.1-29.3c0-16.4,13.4-29.9,30-29.8
		C491,47.2,502.6,63.9,501.6,76.8z M487.8,77c0.1-8.5-7.1-15.8-15.6-16c-8.6-0.1-15.9,6.9-15.9,15.5c-0.1,8.4,7.3,16,15.5,16.1
		C480.1,92.8,487.7,85.3,487.8,77z M384,55.6c0,8-0.6,16.1,0.1,24c1.1,12.1,8,20.6,19.5,24.7c11.6,4.2,22.5,2.5,31.8-6.2
		c0.9-0.8,1.5-2.1,1.8-3.3c0.8-3.4-0.4-5.9-3.2-7.6c-3-1.8-5.9-1.5-9,1.1c-5.1,4.2-10.8,5-16.7,2.5c-6.1-2.5-9.1-7.5-9.6-13.9
		c-0.3-4.3,0-8.7-0.2-13.1c-0.1-2.4,0.7-3.3,3.2-3.3c6.4,0.1,12.9,0.1,19.4,0c4.7,0,7.8-2.9,7.8-7.1c0-4.7-2.6-7.2-7.8-7.2
		c-6.5,0-12.9-0.1-19.4,0c-2.7,0.1-3.5-0.9-3.3-3.4c0.2-2.8,0.1-5.5,0-8.3c-0.2-4.4-3.2-7.3-7.4-7.2c-4.4,0.1-7,2.8-7,7.4
		c0,6.9,0,13.9,0,20.8C384,55.6,384,55.6,384,55.6z M372.7,67.8c0-4.9,0.1-9.7-0.1-14.6c-0.1-2.9-2.6-5.4-5.4-6
		c-2.5-0.6-5.7,0.6-7.1,3.1c-0.8,1.5-1.2,3.4-1.2,5.1c-0.2,7.1,0,14.3-0.2,21.4c-0.2,9.1-6.9,15.7-15.6,15.7
		c-8.7,0-15.6-7.1-15.7-16.1c-0.1-7-0.1-14.1-0.1-21.1c0-4.8-3-8.2-7.1-8.2c-4.1,0.1-6.9,3.3-6.9,8.1c-0.1,6.9,0.1,13.9-0.2,20.8
		c-0.7,17.8,15.5,30.9,30.1,30.5c17.2-0.5,29.8-14.9,29.6-28.3c-0.1-3.5,0-6.9,0-10.4C372.8,67.8,372.8,67.8,372.7,67.8z"/>
	<path class="st2" d="M808.9,51.3c3.9-1.1,7.2-2.4,10.7-3.1c19.1-3.7,36.5,12.1,34.7,31.3c-1.2,12.4-10.6,23.2-22.8,26
		c-12.2,2.8-25-2.6-31.9-13.4c-3.1-4.9-4.7-10.2-4.6-16c0.1-13.5,0.1-26.9,0.1-40.4c0-4.6,2.5-7.5,6.5-7.7c4.4-0.1,7.2,2.7,7.3,7.5
		C809,40.7,808.9,45.8,808.9,51.3z M824.8,92.9c8.6,0,16-7.5,15.9-16c-0.1-8.5-7.8-16.1-16.1-15.9c-8.3,0.2-16.1,8-15.6,16.9
		C809.4,85.9,816.5,92.9,824.8,92.9z M556.6,51.5c0-5.6,0-10.8,0-16c0-3,1.3-5.4,4.1-6.7c2.3-1.1,4.9-1.2,6.7,0.6
		c1.4,1.5,2.9,3.8,2.9,5.8c0.3,14.2,0.5,28.3,0.2,42.5c-0.3,14.5-13.1,27.5-26.6,28.6c-17.1,1.4-30.3-11.3-32.5-25.5
		c-2.4-16.1,11.7-32.7,28-33c5.2-0.1,10.1,0.7,14.7,3C554.7,51,555.5,51.1,556.6,51.5z M556.5,76.9c0-8.8-7-15.8-15.6-15.9
		c-8.4-0.1-16.1,7.5-16.2,15.9c-0.1,8.5,7.5,16,16.3,16C549.5,92.8,556.6,85.5,556.5,76.9z M1046.8,106.1
		c-14.9,0.5-29.3-11.5-29.4-28.7c-0.1-16.7,13.3-29.9,30.1-29.8c15.7,0.1,29.1,13.6,29.1,29.4
		C1076.5,94.2,1061.7,106.9,1046.8,106.1z M1062.7,77.2c0.1-8.9-7-16.2-15.9-16.2c-8.4-0.1-15.9,7.5-15.8,16.1
		c0,8.3,7.3,15.8,15.4,15.8C1055.6,93,1062.6,86.2,1062.7,77.2z M947.2,40.7c0-1.8,0.1-3.6,0-5.3c-0.3-4.5-3.6-7.7-7.6-7.5
		c-4.2,0.2-6.8,3.2-6.8,7.8c0,11.8-0.1,23.6-0.1,35.3c0,3.6,0,7.4,0.7,10.9c2.1,11.5,9,19.3,20.1,22.8c11.1,3.5,21.6,1.9,30.4-6.3
		c3.1-2.8,2.8-7.2-0.3-9.9c-2.8-2.4-6.6-2.2-10.3,0.7c-5.3,4.2-11.2,4.6-17,1.9c-6-2.8-9-7.8-9-14.5c0-4.2,0.1-8.3-0.1-12.5
		c-0.1-2.6,0.9-3.5,3.4-3.5c6.6,0.1,13.1,0.1,19.7,0c4,0,7.2-3,7.3-6.7c0.1-3.9-3-7-7.2-7.2c-2.1-0.1-4.2,0-6.3,0
		c-5.5,0-11.1,0-17,0C947.2,44.2,947.2,42.4,947.2,40.7z M693.7,60.5c3.4,0,6.8,0.1,10.1-0.1c1.4-0.1,3-0.5,4.1-1.3
		c2.6-1.8,3.4-5,2.4-8c-1-2.9-3.3-4.5-7-4.6c-6.8-0.1-13.5-0.1-20.3,0c-2.2,0-3-0.8-2.9-2.9c0.1-3.1,0.1-6.1,0-9.2
		c-0.2-3.8-3.3-6.7-7-6.7c-4,0-6.9,2.6-6.9,6.6c-0.1,14.6-0.4,29.1,0.1,43.7c0.4,12.5,7,21.4,18.6,25.9c11.6,4.5,22.6,3.2,32.1-5.5
		c0.8-0.7,1.5-1.7,1.8-2.6c1.2-3,0.2-5.9-2.5-7.8c-2.8-1.9-6.4-1.7-9.3,0.7c-9.9,8-24,3-26.2-9.5c-0.9-5.4-0.5-11-0.4-16.6
		c0-0.7,1.6-2,2.5-2C686.5,60.4,690.1,60.6,693.7,60.5C693.7,60.5,693.7,60.5,693.7,60.5z M627.6,105.9c5.2,0,10.4,0.7,15.4-0.2
		c9-1.5,14.7-10,13.8-19.1c-0.8-8.5-8.9-15.7-17.7-15.8c-4.7,0-9.3,0-14-0.1c-2.9-0.1-5-2-5.2-4.7c-0.2-2.6,1.4-4.6,4.2-5.2
		c1.3-0.3,2.7-0.4,4.1-0.4c6.1,0,12.1,0,18.2,0c4.2,0,7.2-2.6,7.3-6.2c0.2-3.6-2.9-7-7-7c-8.2-0.1-16.5-0.2-24.7,0.5
		c-9.6,0.9-15.7,9.4-15,19.8c0.6,8.7,8,15.4,17.2,15.5c2.4,0,4.8-0.1,7.1,0c2.7,0.1,5.4,0,8,0.6c3.5,0.8,4.8,5.4,2.1,7.7
		c-1.1,0.9-2.9,1.4-4.3,1.4c-7.4,0.1-14.9,0-22.3,0.1c-3.8,0-7.1,3.4-7.1,7c0,3.5,2.9,6.2,6.9,6.3c4.3,0.1,8.5,0,12.8,0
		C627.6,106.1,627.6,106,627.6,105.9z M862.6,67.2c0,4.9-0.5,10,0.1,14.8c1.4,11.8,13.5,25.3,30.6,24.3
		c15.7-0.9,28.4-13.5,28.3-29.1c0-7.1,0-14.3-0.1-21.4c0-5-2.6-8.1-6.7-8.1c-4.3-0.1-7.1,3.1-7.1,8.1c0,7.4,0,14.9-0.1,22.3
		c-0.1,9.6-10,16.9-19.4,14.4c-7.6-2.1-12.3-8.3-12.4-16.8c-0.1-7,0-14.1-0.1-21.1c-0.1-4.2-2.7-6.9-6.6-6.9c-4,0-6.7,2.7-6.7,7.1
		c0,4.2,0,8.3,0,12.5C862.5,67.2,862.5,67.2,862.6,67.2z M1145.1,86.6c-0.5-6-0.3-12.2-1.6-17.9c-3.2-13.2-16-22.1-29.9-21.5
		c-13.6,0.6-25.8,10.6-27.4,24.1c-1.2,9.7-0.6,19.5-0.5,29.3c0,1.4,1.4,3,2.6,4c2,1.7,4.5,1.9,7,0.7c2.7-1.4,4-3.8,4.1-6.8
		c0.1-7.3,0.1-14.7,0.1-22c0-6.4,2.7-11.1,8.3-14c5.7-3,11.3-2.4,16.6,1.1c5.4,3.7,6.9,9.2,6.9,15.3c0.1,6.8-0.1,13.7,0.2,20.5
		c0.1,1.8,1.2,3.9,2.6,5.2c1.8,1.8,4.3,1.9,6.7,0.6c2.4-1.3,3.9-3.3,4-6.2c0.1-4.2,0-8.3,0-12.5
		C1144.7,86.7,1144.9,86.6,1145.1,86.6z M725.9,87.3c0,1.9,0,3.8,0,5.6c0,1.9,0,3.8,0,5.6c0.1,4.8,3,8.1,7,8c4.2-0.1,6.8-3.1,6.8-8
		c0-7.3,0-14.7,0.1-22c0-7.5,5.5-13.9,13-15.1c1.7-0.3,3.4-0.3,5-0.8c3-0.8,5-4.1,4.6-6.9c-0.6-3.7-3.7-6.3-7.6-6.1
		c-15.5,1-26.6,12-28.3,24.8c-0.6,4.9-0.6,9.9-0.8,14.8C725.7,87.3,725.8,87.3,725.9,87.3z M782.7,77.7c0-7.3,0-14.6,0-22
		c0-4.8-2.3-7.4-6.2-7.5c-4.5,0-7.1,2.7-7.1,7.6c-0.1,7.2-0.1,14.5-0.1,21.7c0,7.3,0,14.6,0.1,22c0.1,4.3,2.8,7.2,6.7,7.2
		c4.1,0,6.5-2.6,6.6-7.1C782.7,92.3,782.7,85,782.7,77.7C782.7,77.7,782.7,77.7,782.7,77.7z M595.6,54.7c-0.1-4.4-2.9-6.8-7.1-6.4
		c-3.7,0.3-6.1,3.1-6.2,7.4c-0.1,6.6-0.1,13.3-0.1,19.9c0,7.8,0,15.6,0.1,23.5c0.1,4.7,2.9,7.7,6.9,7.7c4.1,0,6.4-2.7,6.4-7.5
		c0-7.1,0-14.3,0-21.4C595.6,70.1,595.7,62.4,595.6,54.7z M994.1,77.4c0,7.6-0.1,15.2,0,22.9c0.1,5.3,5.5,8.2,10,5.5
		c2.7-1.6,3.2-4.1,3.2-6.9c0-14.1,0-28.3,0-42.4c0-0.8-0.1-1.6-0.2-2.3c-1-4.4-3.5-6.3-7.5-5.8c-3.5,0.4-5.6,3-5.6,7.2
		C994,62.8,994,70.1,994.1,77.4C994.1,77.4,994.1,77.4,994.1,77.4z M776.4,28.6c-3.8,0-6.8,2.8-6.9,6.3c-0.1,3.8,3.1,7,7,7
		c3.4,0,6.2-3,6.3-6.6C782.7,31.3,780.2,28.6,776.4,28.6z M994.1,35.1c0,3.9,2.8,6.8,6.6,6.8c3.3,0,6.7-3.5,6.6-6.8
		c0-3.6-3-6.5-6.7-6.5C996.7,28.6,994.1,31.1,994.1,35.1z M589.1,28.6c-3.7,0-6.8,3-6.8,6.4c0.1,3.7,3.2,6.8,6.9,6.8
		c3.5,0,6.4-3.1,6.3-6.8C595.6,31.1,593.1,28.6,589.1,28.6z"/>
	<path d="M573.3,33.5c0.2,1.2,0.5,2.5,0.5,3.7c0,13.6,0.2,27.1,0,40.7c-0.3,14.7-9.6,27-23.6,30.7c-4.3,1.1-9,0.9-13.5,0.7
		c3.6-0.3,7.3-0.3,10.9-1.1c15.9-3.6,25.5-18.7,25-31c-0.6-14.5-0.1-29.1-0.1-43.6C572.7,33.5,573,33.5,573.3,33.5z"/>
	<path d="M376,52.2c0.2,1.3,0.5,2.7,0.5,4c0,7.5,0.3,15.1,0,22.6c-0.8,19.7-17.7,32.4-36,30.4c3.9-0.5,7.4-0.6,10.7-1.5
		c14.1-3.7,23.4-15.6,23.7-30.2c0.1-8.4,0-16.8,0-25.2C375.3,52.2,375.7,52.2,376,52.2z"/>
	<path d="M925,54.4c0,4.4,0.1,8.9,0,13.3c-0.2,5.7,0.2,11.6-0.8,17.2c-3.5,18-21.8,29-39.6,24.2c-0.3-0.1-0.5-0.3-0.6,0.2
		c5.7-0.5,11.6-0.3,17.2-1.7c12.7-3.2,21.8-14.6,22.5-27.6c0.4-7.4,0.4-14.9,0.6-22.3c0-1.1,0-2.1,0-3.2
		C924.4,54.4,924.7,54.4,925,54.4z"/>
	<path d="M613.1,108.8c8.2,0,16.5-0.3,24.7,0.1c10.7,0.5,22.8-8,21.2-22.2c-0.1-0.7,0-1.5,0.3-2.2c1.4,3.4,1.3,6.9,0.6,10.3
		c-1.7,8.4-8.8,14.7-18,15.2c-8.8,0.4-17.7,0.1-26.5,0.1c-0.8,0-1.6-0.3-2.5-0.5C613,109.3,613.1,109.1,613.1,108.8z"/>
	<path d="M817.8,108.6c11,1.6,20.7-0.8,28.8-8.5c8.2-7.7,10.9-17.4,9.9-28.4c2.2,10.4,0,19.8-7.2,27.7
		C840.6,108.8,830,111.7,817.8,108.6z"/>
	<path d="M598.9,53.4c0.2,1.2,0.5,2.4,0.5,3.6c0,14.6,0.1,29.3,0,43.9c0,6.6-4.1,9.9-11.1,8.8c1.1-0.3,1.8-0.4,2.6-0.6
		c5-1.3,7.3-4.3,7.3-9.4c0-14.1,0-28.3-0.1-42.4c0-1.3,0-2.5,0-3.8C598.4,53.5,598.7,53.4,598.9,53.4z"/>
	<path d="M999.4,109.8c7.7-1.4,10.4-4.5,10.3-11.9c-0.3-13.6-0.1-27.3-0.2-40.9c0-1.2,0-2.3,0-3.5c0.2,0,0.5-0.1,0.7-0.1
		c0.2,1.3,0.6,2.6,0.6,3.9c0,14.5,0.1,29.1,0,43.6C1010.8,107.5,1006.9,110.7,999.4,109.8z"/>
	<path d="M503.1,67.8c6.6,17.9-5.6,44.6-35.6,40.6c11.3,1.1,21.1-2.1,28.5-10.8C503.5,89,505.1,78.8,503.1,67.8z"/>
	<path d="M1078.8,72.3c2,12.5-1.3,23-11.3,31c-8.2,6.5-17.6,7.2-27.5,5.3c10.8,1.6,20.5-0.7,28.6-8.2
		C1076.8,92.8,1079.5,83.2,1078.8,72.3z"/>
	<path d="M1117.4,63.6c-9.3,0.4-14.7,5.8-14.7,15.1c0,6.9,0.1,13.8-0.1,20.8c-0.2,6.2-4.1,9.8-9.5,9.3c-0.1,0-0.2-0.1-0.2-0.1
		c5.7-0.9,8.8-4.5,8.8-10.3c0-7.1-0.3-14.2-0.2-21.3c0.1-7.6,4.3-12.3,11.9-13.5C1114.7,63.2,1116.1,63.5,1117.4,63.6z"/>
	<path d="M722.4,92.6c1.4,2.9,0.7,6.2-2.6,9.2c-6.9,6.3-15.1,9-24.4,8.1c-2.8-0.3-5.6-0.9-8.4-1.8c3.7,0.2,7.4,0.7,11.1,0.7
		c8.2,0.1,15.1-3.1,20.7-8.8C720.8,98.1,721.4,94.9,722.4,92.6z"/>
	<path d="M713.6,53.1c1.2,6.5-2.4,11.1-9,11.3c-5.6,0.1-11.1,0-16.7,0.1c-3.4,0-4.3,0.8-4.3,4.2c-0.1,4.2,0,8.4,0,12.6
		c-2-5.8-0.3-11.9-1-18.3c6.5,0,12.5-0.3,18.5,0.1C707.9,63.4,712.2,60.6,713.6,53.1z"/>
	<path d="M950.1,106.9c3.8,0.5,9.1,1.6,14.4,1.9c8.3,0.4,15.3-3,21.1-8.7c1.7-1.6,2.5-4.1,3.6-6.1c0.3,2.6-0.4,5.1-2.4,7.3
		C978.1,110.8,959.8,113,950.1,106.9z"/>
	<path d="M623.1,68c-0.7-4,0-4.9,3.4-5c6.2,0,12.5,0,18.7,0c7.1,0,10-2.3,11.6-9.2c1.6,5.2-2.3,10.2-8.2,10.4
		c-5.9,0.2-11.9,0.1-17.9,0.1C627.9,64.3,624.9,64.1,623.1,68z"/>
	<path d="M295.4,108.9c1.2-0.2,2.3-0.3,3.5-0.6c3.9-0.9,6.6-4.3,6.6-8.4c0-9.4,0-18.8,0.4-28.2c0.3,2,0.7,4.1,0.8,6.1
		c0.1,7.3,0.2,14.6,0,22C306.5,106.8,302.2,110.3,295.4,108.9z"/>
	<path d="M1136.3,108.5c7.3-0.2,10.4-3.5,10.4-9.8c0-9.4,0-18.8,0.5-28.2c0.3,2.3,0.7,4.6,0.7,7c0.1,7,0.1,14.1,0,21.1
		c0,3.2-0.7,6.1-3.1,8.4C1142.6,109,1139.9,109.1,1136.3,108.5z"/>
	<path d="M402.4,82.8c-3.2-6.6-1-13.1-1.8-19.8c2.6,0,4.8,0,7,0c4,0,7.9,0,11.9,0c7.3,0,10.9-3.2,11.9-10.4c1.7,5.6-2,10.9-8.1,11.1
		c-4.8,0.2-9.5,0.1-14.3,0.1c-7.5,0-7.6,0-7.5,7.6C401.7,75,402.1,78.6,402.4,82.8z"/>
	<path d="M412.6,108.9c17.9-1.4,25.6-6.4,27.4-17.8c1.5,3.3,1,6.1-0.8,8.6C434.6,106.2,421,111.1,412.6,108.9z"/>
	<path d="M949.7,65.3c0-0.5-0.1-1.2-0.2-2.4c4.1,0,8.1,0,12,0c1.6,0,3.2,0,4.8,0c8.8,0,8.8,0,13.9-6.6c0.1,4.2-3.6,7.8-8.5,7.9
		c-5.6,0.1-11.1,0-16.7,0.1C953.3,64.4,951.7,65,949.7,65.3z"/>
	<path d="M785.9,55c0.1,0.7,0.2,1.3,0.2,2c0,14.6,0.1,29.3,0,43.9c0,6.6-4,9.9-11.4,8.9c1.4-0.2,2.1-0.3,2.8-0.5
		c5.3-1.1,7.9-4.3,7.9-9.8c0-13.6-0.1-27.3-0.1-40.9c0-1.2,0-2.3,0-3.5C785.5,55,785.7,55,785.9,55z"/>
	<path d="M764.9,57.6c-0.3,3.3-2.6,5.7-6.2,6.5c-1.4,0.3-3,0.4-4.4,0.7c-5.7,1.3-9.5,4.7-11,10.5c-0.2,0.7-0.4,1.4-0.8,2.6
		c-1-6.9,4.2-13,11.5-14.1C760.9,62.7,760.9,62.7,764.9,57.6z"/>
	<path d="M262.1,107c8.7,2.4,17.3,2.4,25.7-1.5c0.6-0.3,1.4,0.1,2.1,0.5C280.6,110.4,271.4,110.8,262.1,107z"/>
	<path d="M331.1,84.3c-0.6-3-1.5-6-1.6-9c-0.2-6.1,0.1-12.2,0.2-18.4c0-1.7,0-3.5,0.3-5.4c0.2,1.1,0.5,2.3,0.5,3.4
		c0.1,5.5-0.1,11.1,0.1,16.6c0.1,4.2,0.7,8.3,1,12.5C331.5,84.1,331.3,84.2,331.1,84.3z"/>
	<path d="M587.9,44.9c6.8-1.3,10.3-3.4,10.5-11.5c1.6,2.5,1.3,5.7-0.8,8.6C595.4,45.1,592.5,46,587.9,44.9z"/>
	<path d="M998,44.3c7.5,0.7,11-2.6,11.8-10.4c1.6,2.6,1,6.4-1.6,9C1005.6,45.6,1002,46.3,998,44.3z"/>
	<path d="M639.6,86.6c-6.9,1.2-17.9,0.4-20.1-1c6.3,0,13.2,0,20.2,0C639.7,86,639.7,86.3,639.6,86.6z"/>
	<path d="M785.8,35.3c0.5,3.9-0.9,7-4.4,9.1c-2.5,1.5-5,1.6-7.5,0.1C780.9,44.7,784.5,41.9,785.8,35.3z"/>
	<path d="M878.7,80.1c0-8.7,0-17.5,0-26.2c0.1,0,0.2,0,0.3,0c0,8.7,0,17.5,0,26.2C878.9,80.1,878.8,80.1,878.7,80.1z"/>
	<path d="M742.3,102c-0.4,6-3.8,8-10.9,7.1C736.6,109.6,740.1,107.3,742.3,102z"/>
	<path d="M829.5,64.8c-11.8,0.3-16.1,3.8-17.8,14.6c-1.6-4.1,0-9,4.2-12.5C820.2,63.2,825.2,62.5,829.5,64.8z"/>
	<path d="M544.8,64.4c-10.7,0.2-16.1,5.4-17,15.6c-1.7-4.5-0.2-8.4,2.7-11.8C533.9,64.1,539.4,62.6,544.8,64.4z"/>
	<path d="M278.6,64.8c-10.4-2-17.5,6.1-17.6,14.6c-1.7-3.4-0.3-8.5,3.3-12.1C268.3,63.3,274,62.3,278.6,64.8z"/>
	<path d="M474.5,63.9c-11.8,1.1-16.8,8.9-13.5,19.9c-2.9-2.9-3.4-8.3-1.2-12.8C462.4,65.5,467.2,63,474.5,63.9z"/>
	<path d="M1051.7,64.9c-10.5-1.8-17.9,6-17.6,15c-1.6-4.8-0.1-8.9,3.2-12.3C1041.1,63.5,1046.6,62.6,1051.7,64.9z"/>
	<path d="M126.9,120.5c6.6,1.3,10.7-1.3,14.5-5.3c17.2-17.5,34.5-34.8,51.7-52.2c0.7-0.7,1.4-1.4,2.4-1.8c-0.5,0.6-1,1.3-1.6,1.8
		c-17.5,18.6-35.1,37.2-52.6,55.9C137.7,122.9,132.2,124.6,126.9,120.5z"/>
	<path d="M130.9,0c40.3,0,80.7,0,121,0c3.8,0,7.9-0.2,9.6,4.2c1.7,4.3-0.4,7.9-3.5,10.9C247,26.2,236,37.4,225,48.5
		c-26.9,27.1-53.8,54.2-80.8,81.3c-8.3,8.3-18.2,8.4-26.4,0C83,94.8,48.3,59.9,13.5,24.9C9.9,21.3,6.3,17.8,2.9,14
		c-1.3-1.5-2.5-3.5-2.8-5.4C-0.7,2.7,2,0,8.4,0c30.9,0,61.8,0,92.7,0C111,0,121,0,130.9,0z M131.3,0.8
		C131.3,0.8,131.3,0.8,131.3,0.8c-40.9,0-81.8,0-122.8,0c-2.8,0-5.8,0.3-7.1,3.3C0,7.2,2.2,9.4,3.9,11.5C4,11.7,4.2,11.8,4.3,12
		c19.8,19.7,39.6,39.5,59.4,59.2c5.6,5.5,11.2,11,16.6,16.6c13,13.5,26,27,39,40.5c3.4,3.6,7.7,5.2,12.6,4.9
		c4.7-0.3,8.4-2.6,11.6-5.9c13-13.6,26-27.3,39.2-40.7c23.2-23.4,46.7-46.5,70-69.7c2.4-2.4,5-4.9,6.9-7.7c2.4-3.5,1.1-6.6-3-7.7
		c-1.7-0.5-3.5-0.5-5.3-0.5C211.4,0.8,171.4,0.8,131.3,0.8z"/>
	<path class="st1" d="M230.1,11.6H31.8c-1.6,0-3,1.3-3,3c0,0.8,0.3,1.5,0.8,2c0,0,68.7,69.4,94.6,95.4c2.2,2.2,4.5,3.3,6.7,3.3
		c2.2,0,4.5-1.1,6.7-3.3c25.9-26.1,94.6-95.4,94.6-95.4c0.5-0.5,0.8-1.2,0.8-2C233.1,12.9,231.7,11.6,230.1,11.6z"/>
	<path d="M235.6,9.1H26.3c-2,0-3.6,1.6-3.6,3.6c0,0.9,0.3,1.8,1,2.5c0.7,0.7,72.8,73.5,99.8,100.7c2.4,2.4,4.9,3.7,7.4,3.7
		c0,0,0,0,0,0c2.5,0,5-1.2,7.4-3.7c27-27.2,99.1-100,99.8-100.7c0.6-0.7,1-1.5,1-2.4C239.2,10.7,237.6,9.1,235.6,9.1z M25.4,14.4
		c-0.4-0.5-0.7-1.1-0.7-1.7c0-1.4,1.1-2.6,2.5-2.6h207.4c1.4,0,2.5,1.2,2.5,2.6c0,0.6-0.2,1.3-0.7,1.7c-0.7,0.7-72.1,72.8-98.9,99.8
		c-2.2,2.2-4.4,3.3-6.7,3.3c0,0,0,0,0,0s0,0,0,0c-2.2,0-4.5-1.1-6.7-3.3C97.5,87.2,26.1,15.1,25.4,14.4z M131,118.5
		C131,118.5,131,118.5,131,118.5C131,118.5,131,118.5,131,118.5c-0.3,0-0.6,0-0.9-0.1C130.3,118.5,130.6,118.5,131,118.5
		C131,118.5,131,118.5,131,118.5c0.3,0,0.6,0,0.9-0.1C131.6,118.5,131.3,118.5,131,118.5z"/>
</g>
</svg>
