<?xml version="1.0" encoding="utf-8"?>
<!-- Generator: Adobe Illustrator 24.1.2, SVG Export Plug-In . SVG Version: 6.00 Build 0)  -->
<svg version="1.1" id="图层_1" xmlns="http://www.w3.org/2000/svg" xmlns:xlink="http://www.w3.org/1999/xlink" x="0px" y="0px"
	 viewBox="0 0 538.6 552.8" style="enable-background:new 0 0 538.6 552.8;" xml:space="preserve">
<style type="text/css">
	.st0{fill:#353F7F;}
	.st1{fill:#B72631;}
</style>
<path class="st0" d="M306.7,198.7c-2.8,0.1-5.8,2.6-10.7,3.8c-4.2,1-4.3,4.2-4.2,5.7c0.1,2.2,3.2,1.6,3.3,3.8c0,1.4-3.7,3.1-3.8,7.3
	c-0.1,6.2,3.7,6.6,5.8,6.6c3.4-0.1,8.2-5.1,10.2-8.9c2.5-4.9,1.9-6.4,2.1-9.5C309.7,203.4,310.3,198.5,306.7,198.7 M224.9,191.6
	c-2.1,0-3.2,0.7-7.1,4.8c-1.2,1.3-2.9,2.4-4.2,3.1c-3.2,1.6-5,3.4-5.5,5.6c-0.7,2.8,0.8,5.5,2.3,7.5c2.4,3.1,5.7,3.8,7.7,3.8
	c4.9,0,4-3.2,7.3-5.1c2.7-1.6,6.5-1.5,8.4-3.8c1.1-1.3,1.6-2.7,1.5-4c-0.1-2.5-2.3-6.2-4.4-8.5C229.5,193.4,227.5,191.6,224.9,191.6
	 M347.5,295.4c-3-0.1-5-3.6-8.1-3.6c-1.9,0-3.5,0.7-4.3,2.2c-2.2,3.8-0.3,4.6,0,8c0.4,4.1-1,5.5,1.4,9.6c0.9,1.5,2.5,2.1,4.2,2.1
	c1.6,0,3.2-0.7,4.8-2.1c6-5.4,9.3-9.7,8.2-13C352.7,295.8,348.9,295.5,347.5,295.4 M269.9,103.4c-93.2,0-169.1,77.9-169.1,173.8
	s75.8,173.8,169.1,173.8S439,373,439,277.2S363.1,103.4,269.9,103.4 M408.3,333c-5.9,3.8-5.7,7.9-9.7,9.8c-3,1.4-7.9,0-12.3,3.3
	c-10.2,7.5-4.9,13.4-9.8,18.4c-4.2,4.3-10.2,4.4-14,3.2c-5.9-1.9-1.7-5.2-3.7-7.2c-1.9-1.9-8.6-1.7-12.4-2.9
	c-8.9-2.7,2.6-12-2.8-14.2c-11.6-4.9-12.9-9.6-18.1-14.6c-3.4-3.3-8.8,3.7-12.9-0.5c-6.7-6.9-8.6-14-12.8-11.1
	c-3.6,2.6,3.2,5.4-3.3,11c-4.7,4-12.3,0.9-17.9,5.9c-1.1,1-2.5,4.4-7.6,4.4c-3.5,0-4.2-1.4-8.3-7.6c-2.2-3.4-13.2-4.2-15.3,1.8
	c-6.2,17.7-9.6,11.3-18.2,7.6c-4-1.7-8.7-1.6-17.8,1.4c-5.1,1.7-12.5,4.2-18.5,10.1c-4.4,4.3-4.5,11-9.1,14
	c-10.2,6.7-13.1-8-19.3-6.7c-4.3,0.9-6.4,0.9-7.4-0.8c-2.6-4.3,2.5-10.7-3.5-15.6c-11.1-9-6.3-13.2-12.7-19.1c-8-7.4-1.5-9-1.5-12.9
	c0-5-8-4-2-17.7c1.1-2.6-2.9-4.7-4.2-7.5c-2.1-4.5-0.3-10.9-5.3-10.9c-5.3,0-5.4-5.6-4.4-11.7c0.9-5.4,0.8-9.6,8.5-8.1
	c4.6,0.9,3.5-8.1,12.4-19.2c10.3-12.9,4.1-21.1,15.8-27.8c3.8-2.2,6.3,1.9,8.2,0.7c2.8-1.7,5.4-6.6,7.9-8.6
	c5.3-4.8,9.3-3.7,17.4-3.6c5.3,0.1,3.8-6.3,5.2-10.3c2.7-8,4.8-10.8,14.8-7.7c5,1.6,9.5-2.7,16.3-1.2c5.2,1.1,8.8,5.1,13.7,3.8
	c3.5-0.9,4.8-5.5,7.9-5.5c5.3,0,2.3,5.8,7.3,6c4.5,0.1,9.7-6.7,16.1-2.2c3.5,2.4,2.2,7.9,5.2,9.7c2,1.2,4,0.7,6.7,0.3
	c7.8-1.3,6.2-7.3,10-9.1c2.7-1.2,7.2-1.6,9.3-1.6c4.7,0,5,2.9,6.7,2.9c2.5,0,1.6-5.8,6.3-5.8c5.1,0,3.9,8.7,6.6,8.7
	c3.6,0,3.4-4.7,5.5-4.7c2.1,0,2.4,3.2,3.8,7.2c1.4,4,2.5,4.3,6.8,5.7c4.1,1.3,5.6-0.7,6-2.3c2.4-8.7,10.1-8.6,14.3-5.7
	c4.2,2.9,2.4,6.8,3.2,9.5c0.9,2.8,4,3,6.8,3.8c16.4,4.2,17.5,8,21.4,13c7.2,9.4,8.7,24,5.6,32.8c-1.4,3.9-5.4,10.9-6.9,15.3
	c-1.2,3.6-0.2,7.6,0.7,9.9c1.8,4.9,8.1,11.4,9.9,16.8c1.2,3.7-2,7,1.5,9.4c1.8,1.2,4.5,0.4,5.5,2c2,3.2-0.6,9.8-0.6,14
	c0,4.7,4.1,6.7,4.5,16.9C413.7,331,410,331.9,408.3,333 M364.7,216.6c-1.8,0-3.6,0.7-4.7,1.9c-0.8,0.9-1.9,2.7-2.8,3.4
	c-1.6,1.5-5.7,0.8-7.3-0.6c-1.5-1.3-2.4-2.6-5-2.6c-2.8,0.1-9.2,5.5-2.5,12.4c1.1,1.1,2.8,2.5,6,2.8c2.3,0.3,8.7,0.8,11.5,0.7
	c4.5-0.1,7.1-2.4,8.5-4.1c4.3-5.3,2.9-9.4,2-11C369.3,217.7,367.1,216.6,364.7,216.6"/>
<path class="st1" d="M269.9,15C129,15,14.8,132.4,14.8,277.2C14.8,422,129,539.4,269.9,539.4S525,422,525,277.2
	C525,132.4,410.8,15,269.9,15 M269.9,529c-135.1,0-245-113-245-251.8c0-138.8,109.9-251.8,245-251.8s245,112.9,245,251.8
	C514.9,416,405,529,269.9,529 M269.9,98.2c-96,0-174.1,80.3-174.1,179c0,98.7,78.1,179,174.1,179S444,375.9,444,277.2
	C444,178.5,365.9,98.2,269.9,98.2 M391.4,208.1l26.1-15.5c13.3,24.3,21,52.3,21.4,82h-42.8c1.2,1.7,2.4,3.5,3.6,5.2h39.3
	c-0.4,29.7-8.1,57.6-21.4,82l-28.7-17c-0.9,0.3-1.7,0.7-2.6,1.4c-0.8,0.6-1.5,1.2-2.2,1.8l30.9,18.3c-14.4,24.6-34.5,45.3-58.4,60
	l-57.3-101.9c-0.3,1.1-1.1,2.4-2.8,3.9c-0.2,0.2-0.4,0.3-0.6,0.4l56.3,100.2c-23.7,13.6-50.9,21.5-79.8,22V338.4
	c-0.5,0.1-0.9,0.1-1.5,0.1c-1.6,0-2.6-0.3-3.6-1.2v113.6c-28.9-0.4-56.1-8.4-79.8-22l47.9-85.3c-1.3-0.6-2.8-1.5-4.5-2.4l-47.8,85.1
	c-23.9-14.8-44-35.4-58.4-60l31.7-18.8c-0.3-1.5-1-3.1-2.6-4.5l-31.6,18.7c-13.3-24.3-21-52.3-21.4-82h30.9c-0.4-2.8-1-5.2-4-5.2
	c-0.2,0-0.4,0-0.6,0h-26.3c0.4-29.7,8.1-57.6,21.4-82l32.6,19.3c1-1.2,2.3-2.4,4.1-3.5l-34.2-20.3c14.4-24.6,34.5-45.3,58.4-60
	l27.9,49.6c0.8,0.2,1.6,0.4,2.5,0.7c1.3,0.4,2.6,0.4,3.9,0.2l-29.8-53.1c23.7-13.6,50.9-21.5,79.8-22v74.8c1.6-0.5,3.3-0.8,5.1-0.2
	v-74.5c28.9,0.4,56.1,8.4,79.8,22l-29.6,52.8c1,2.2,1.3,5.2,2.5,6l31.5-56.1c23.9,14.8,44,35.4,58.4,60l-27.3,16.2
	C389.3,205.5,390.4,206.8,391.4,208.1 M465.6,208.4l-4.2-1.2l4,11.2c0.2,0.5,0.1,1-0.1,1.5c-0.5,0.8-1.5,1.1-2.3,0.6l-6.6-3.9
	l0.3,3.5l-6.3,0l4.8,4.9l-2,3.5l11.6,3.2l-3.8,6.7l12.9-7.6l3,11.6l1.6-0.4l-3-11.6l14.8,0l-6.5-3.8l8.5-8.7l-3.4-2l1.8-6.7
	l-5.4,3.2l-1.4-3.2l-3.8,6.8c-0.5,0.8-1.5,1.1-2.3,0.6c-0.5-0.3-0.7-0.7-0.8-1.2l-2-11.8l-3.1,3.2l-4.8-5.9L465.6,208.4z
	 M260.1,70.8l9.3-0.2l1.8,4.9l7.3-0.2l-10.7-27.2l-7.1,0.2L251.4,76l7.2-0.2L260.1,70.8z M264.4,55.8L264.4,55.8l3.3,9.5l-6.1,0.2
	L264.4,55.8z M207.9,80.6l8.9-2.7l3,4.2l7-2.1l-17.2-23.4l-6.8,2.1l-1.9,29.3l6.9-2.1L207.9,80.6z M208.2,64.9L208.2,64.9l5.6,8.3
	L208,75L208.2,64.9z M184.2,95.8l-6.9-15.6l0.1,0l15.4,11.6l6.5-3.1l-11.1-25l-6,2.8l6.8,15.4l-0.1,0l-15.3-11.4l-6.5,3.1l11.1,25
	L184.2,95.8z M443.9,168.4c0.3,0.4,0.4,0.9,0.2,1.4c-0.2,0.9-1.2,1.5-2.1,1.2l-7.4-2l1.2,3.3l-6.1,1.7l5.9,3.5l-1,3.9h12l-2,7.4
	l10.5-10.8l5.8,10.4l1.4-0.8l-5.8-10.4l14.3-3.9l-7.2-2l6-10.7l-3.8-1l0-7l-4.4,4.6l-2.2-2.7l-2,7.5c-0.3,0.9-1.2,1.5-2.1,1.2
	c-0.5-0.1-0.9-0.5-1.1-0.9l-4.9-10.8l-2.2,3.9L441,151l0.7,7.7l-4.4,0L443.9,168.4z M328.4,85.3c8,2.6,14.4-2,16.8-9.6
	c2.3-7.6-0.4-15.1-8.4-17.7c-8-2.6-14.4,2-16.8,9.6C317.7,75.2,320.4,82.7,328.4,85.3 M326.7,69.7c1.2-3.9,4-7.3,8.3-5.9
	c4.3,1.4,4.7,5.8,3.6,9.7c-1.2,3.9-4,7.3-8.3,5.9C325.9,78.1,325.5,73.6,326.7,69.7 M301.8,78.8c2.4,0.4,5.7,0,7.9-2.3l-0.1,3
	l4.4,0.7l2.4-14.8l-11.1-1.9l-0.8,5.2l4.8,0.8c-0.8,2.4-3.3,3.7-6.7,3.1c-4.4-0.7-5.5-5.1-4.9-9.1c0.6-4,3-7.8,7.4-7
	c2.8,0.5,4.8,2.2,4.6,4.6l6.9,1.2c0.5-6.9-4.9-10.9-10.4-11.8c-8-1.3-14.2,4-15.4,11.9C289.7,70.3,293.8,77.5,301.8,78.8 M384.5,104
	c-1.1,1.7-3.3,1.1-5.1,0c-2.5-1.7-3.6-3.6-2-6.4l-5.8-3.9c-3.7,5.9-0.6,11.3,4.5,14.7c4.9,3.3,11,4.6,14.6-1.2
	c2.6-4.2,0.3-7.9-2.3-11c-2.7-3.1-5.7-5.6-4.6-7.4c1-1.5,2.8-0.9,4.1-0.1c1.8,1.2,3.3,3.2,1.9,5.2l5.8,3.9
	c3.2-5.2,0.2-10.4-4.3-13.4c-4.2-2.8-10.4-4.1-13.6,0.9c-2.7,4.2-0.2,8,2.4,11C382.8,99.5,385.7,102,384.5,104 M353.8,95.6
	c7.6,3.7,14.6,0.1,17.9-7.1c3.3-7.2,1.7-15-5.9-18.8c-7.6-3.7-14.6-0.1-17.9,7.1C344.5,84,346.1,91.8,353.8,95.6 M354.1,79.9
	c1.7-3.7,5-6.6,9-4.6c4.1,2,3.9,6.4,2.2,10.1c-1.7,3.7-5,6.6-9,4.6C352.3,88,352.4,83.6,354.1,79.9 M422.3,126l2.8-2.8l0.8,0.8
	l-1.3,4.4l1.3,1.4l1.2-4.7c1,0.9,2.2,1.2,3.4,0.1c1.4-1.4,1.1-2.9-0.5-4.6l-2.4-2.6l-6.6,6.5L422.3,126z M427.9,120.5l1.1,1.1
	c0.6,0.6,1.2,1.5,0.5,2.2c-0.8,0.8-1.4,0.3-2.2-0.4l-1.1-1.2L427.9,120.5z M420.7,129.6c3.1,3.3,8.1,4,11.7,0.4
	c3.6-3.5,3.2-8.7,0.1-12c-3.1-3.3-8.1-4-11.7-0.5C417.2,121.1,417.6,126.3,420.7,129.6 M431.2,119.3c2.3,2.5,2.3,6.5-0.4,9.1
	c-2.7,2.6-6.6,2.5-8.9,0c-2.4-2.6-2.3-6.5,0.4-9.2C425,116.6,428.9,116.7,431.2,119.3 M404.7,130.3l3.9-4.7l-11.3-9.7l3.3-4l10,8.7
	l3.5-4.2l-10-8.7l3-3.7l11,9.5l3.6-4.4l-16.3-14.1l-17.2,21L404.7,130.3z M284.4,272.7l5.7-2.4l-1.2-2.9l-5.7,2.4
	c-0.5-0.9-1-1.7-1.6-2.5l4.4-4.5l-2.1-2.2l-4.4,4.5c-0.7-0.6-1.5-1.2-2.4-1.7l2.4-5.9l-2.8-1.2l-2.4,5.9c-0.8-0.2-1.5-0.4-2.3-0.5
	v-12.6h-4v12.6c-0.8,0.1-1.6,0.3-2.3,0.5l-2.4-5.9l-2.8,1.2l2.4,5.9c-0.8,0.5-1.6,1-2.4,1.7l-4.4-4.5l-2.1,2.2l4.4,4.5
	c-0.6,0.8-1.2,1.6-1.6,2.5l-5.7-2.4l-1.2,2.9l5.7,2.4c-0.2,0.8-0.4,1.6-0.5,2.4h-12.3v4.2h12.3c0.1,0.8,0.3,1.6,0.5,2.4l-5.7,2.4
	l1.2,2.9l5.7-2.4c0.5,0.9,1,1.7,1.6,2.5l-4.4,4.5l2.1,2.2l4.4-4.5c0.7,0.6,1.5,1.2,2.4,1.7l-2.4,5.9l2.8,1.2l2.4-5.9
	c0.8,0.2,1.5,0.4,2.3,0.5v12.6h4v-12.6c0.8-0.1,1.6-0.3,2.3-0.5l2.4,5.9l2.8-1.2l-2.4-5.9c0.8-0.5,1.6-1,2.4-1.7l4.4,4.5l2.1-2.2
	l-4.4-4.5c0.6-0.8,1.2-1.6,1.6-2.5l5.7,2.4l1.2-2.9l-5.7-2.4c0.2-0.8,0.4-1.6,0.5-2.4h12.3v-4.2h-12.3
	C284.8,274.3,284.7,273.5,284.4,272.7 M269.9,288.6c-6,0-11.1-5.2-11.1-11.4c0-6.2,5.1-11.4,11.1-11.4c6,0,11.1,5.2,11.1,11.4
	C281,283.4,275.9,288.6,269.9,288.6 M239.9,77.9c8-1.3,12.3-6.8,10.9-15.7c-1.2-8.4-6.9-12.7-15-11.4l-11.4,1.8l4,27.2L239.9,77.9z
	 M235.5,57c4.7-0.7,7.7,1.3,8.4,6.2c0.8,5.4-1,7.9-6.2,8.8l-3.3,0.5l-2.2-15L235.5,57z M228.3,473.4c-7.9-1.8-14.4,3.2-16,11
	c-1.7,7.8,2.1,15.2,10,16.9c6.6,1.5,12.4-1.4,14.3-8.3l-6.8-1.5c-0.9,3-3.2,4.5-6.3,3.8c-4.4-1-5.2-5.4-4.4-9.3
	c0.9-4,3.4-7.6,7.8-6.6c2.9,0.7,4.6,2.5,4.4,5.3l6.8,1.5C239.2,479.8,233.9,474.7,228.3,473.4 M313.7,472.9
	c-8.2,1.9-11.5,9.2-9.7,17c1.7,7.8,7.8,12.9,16,10.9c8.2-1.9,11.5-9.2,9.7-17C327.9,476.1,321.9,471,313.7,472.9 M318.6,494.9
	c-4.4,1-6.9-2.5-7.8-6.5c-0.9-4-0.1-8.4,4.3-9.4c4.4-1,7,2.5,7.8,6.5C323.8,489.4,323,493.8,318.6,494.9 M296.9,491.7L296.9,491.7
	c2.7-1.5,3.8-4.4,3.6-7.3c-0.5-5.5-5.3-7.3-10-6.8l-13.6,1.3l2.4,27.4l6.9-0.7l-0.9-10l5.3-0.5c3.2-0.3,3.9,2.5,4.4,5.2
	c0.1,0.8,0.5,3.4,1.2,4.3l6.9-0.6c-1-0.9-1.5-4.9-1.7-6.1C300.9,495.3,299.8,492.1,296.9,491.7 M290.7,489.5l-5.8,0.5l-0.6-6.2
	l5.5-0.5c1.9-0.2,3.6,0.6,3.8,2.6C293.8,488,292.8,489.3,290.7,489.5 M264.6,478.5l-12.7-0.5l-1,27.5l7,0.3l0.3-9.2l5.7,0.2
	c5.9,0.2,9.8-2.3,10-9.1C274.2,481.3,269.6,478.7,264.6,478.5 M263.1,491.3l-4.7-0.2l0.3-7l4.7,0.2c2.1,0.1,3.7,1.2,3.6,3.8
	C266.9,490.5,265.3,491.3,263.1,491.3 M384.5,466.5c-1.4-2.2-3.7-4.6-6.5-3.8l0-0.1c1.9-2.4,1.8-5.5,0.4-8.1
	c-2.6-4.9-7.7-4.5-11.8-2.1l-11.9,6.8l12.9,24.1l6.1-3.5l-4.7-8.8l4.6-2.6c2.9-1.6,4.6,0.6,6.1,3c0.4,0.6,1.8,2.9,2.8,3.4l6-3.4
	C387.1,471,385.1,467.5,384.5,466.5 M371.4,463.2l-5.1,2.9l-2.9-5.4l4.9-2.8c1.7-1,3.5-0.9,4.5,0.8
	C373.7,460.6,373.3,462.2,371.4,463.2 M345.6,476.4l1.9,5l4.5-1.8c0.5,2.5-1.1,4.9-4.3,6.1c-4.2,1.7-7.2-1.5-8.7-5.3
	c-1.4-3.8-1.2-8.3,3-9.9c2.6-1,5.2-0.5,6.2,1.6l6.5-2.6c-3-6.2-9.6-6.9-14.8-4.8c-7.6,3-10.2,10.8-7.5,18.3
	c2.8,7.4,9.9,11.4,17.4,8.5c2.3-0.9,4.9-2.9,5.7-6.1l1.4,2.7l4.2-1.7l-5.3-14.1L345.6,476.4z M496.9,276.1l3.4-6l-6.1,1.7l-0.6-3.5
	l-5.4,5.5c-0.7,0.7-1.7,0.7-2.4,0c-0.4-0.4-0.5-0.9-0.5-1.4l1-11.9l-3.8,2.2l-3.2-7l-3.2,7l-3.8-2.2l1,11.9c0,0.5-0.1,1-0.5,1.4
	c-0.6,0.7-1.7,0.7-2.4,0l-5.4-5.5l-0.6,3.5l-6.1-1.7l3.4,6l-2.8,2.8l10.4,6.2l-5.3,5.4l14.3-3.9v12h1.6v-12l14.3,3.9l-5.3-5.4
	l10.4-6.2L496.9,276.1z M488,331.6l0.3-3.5l-6.6,3.9c-0.8,0.5-1.8,0.2-2.3-0.6c-0.3-0.5-0.3-1-0.1-1.5l4-11.2l-4.2,1.2l-1.3-7.6
	l-4.8,5.9l-3.1-3.2l-2,11.8c-0.1,0.5-0.4,0.9-0.8,1.2c-0.8,0.5-1.8,0.2-2.3-0.6l-3.8-6.8l-1.4,3.2l-5.4-3.2l1.8,6.7l-3.4,2l8.5,8.7
	l-6.5,3.8l14.8,0l-3,11.6l1.6,0.4l3-11.6l12.8,7.6l-3.7-6.7l11.6-3.2l-2-3.5l4.8-4.9L488,331.6z M410.5,417.5l9.2,16.4l-0.1,0.1
	l-15.8-9.8l-7.3,7.4l18.7,19.6l4.7-4.7l-14.2-14.9l0.1-0.1l18.2,10.8l3.8-3.8l-10.2-18.9l0.1-0.1l14.2,14.9l4.7-4.7l-18.7-19.6
	L410.5,417.5z M382.7,441.8l7.8,28.2l5.8-4.3l-1.5-5l7.5-5.7l4.2,3l5.9-4.4l-23.9-16.1L382.7,441.8z M390,445.8l7.9,6l-4.9,3.7
	L390,445.8L390,445.8z M466.8,387.7l1.2-3.3l-7.3,2c-0.9,0.2-1.8-0.3-2.1-1.2c-0.1-0.5,0-1,0.2-1.4l6.7-9.8h-4.4l0.7-7.7l-6.2,4.4
	l-2.2-3.9l-4.9,10.8c-0.2,0.4-0.6,0.8-1.1,0.9c-0.9,0.2-1.8-0.3-2.1-1.2l-2-7.5l-2.2,2.7l-4.4-4.6l0,7l-3.8,1l6,10.7l-7.2,2l14.3,4
	l-5.8,10.4l1.4,0.8l5.8-10.4l10.5,10.8l-1.9-7.4h12l-1-3.9l5.9-3.5L466.8,387.7z M160.1,110l-1.1-5.1l7.9-5.1l4,3.3l6.1-4
	l-22.7-17.8l-6,3.9l5.8,28.7L160.1,110z M155.2,89.7l7.5,6.5l-5.1,3.3L155.2,89.7L155.2,89.7z M59.5,286.6v12h1.6v-12l14.3,3.9
	l-5.3-5.4l10.4-6.2l-2.8-2.8l3.4-6l-6.1,1.7l-0.6-3.5l-5.4,5.5c-0.7,0.7-1.7,0.7-2.4,0c-0.4-0.4-0.5-0.9-0.5-1.4l1-11.9l-3.8,2.2
	l-3.2-7l-3.2,7l-3.8-2.2l1,11.9c0,0.5-0.1,1-0.5,1.4c-0.6,0.7-1.7,0.7-2.4,0l-5.4-5.5l-0.6,3.5l-6.1-1.7l3.4,6l-2.8,2.8l10.4,6.2
	l-5.3,5.4L59.5,286.6z M56,226.5l-6.5,3.8l14.8,0l-3,11.6l1.6,0.4l3-11.6l12.8,7.6l-3.7-6.7l11.6-3.2l-2-3.5l4.8-4.9l-6.3,0l0.3-3.5
	l-6.6,3.9c-0.8,0.5-1.8,0.2-2.3-0.6c-0.3-0.5-0.3-1-0.1-1.5l4-11.2l-4.2,1.2l-1.3-7.6l-4.8,5.9l-3.1-3.2l-2,11.8
	c-0.1,0.5-0.4,0.9-0.8,1.2c-0.8,0.5-1.8,0.2-2.3-0.6l-3.8-6.8l-1.4,3.2l-5.4-3.2l1.8,6.7l-3.4,2L56,226.5z M69.1,342.2l3,11.6
	l1.6-0.4l-3-11.6l14.8,0l-6.5-3.8l8.5-8.7l-3.4-2l1.8-6.7l-5.5,3.2l-1.4-3.2l-3.8,6.8c-0.5,0.8-1.5,1.1-2.3,0.6
	c-0.5-0.3-0.7-0.7-0.8-1.2L70,315l-3.1,3.2l-4.8-5.9l-1.3,7.6l-4.2-1.2l4,11.2c0.2,0.5,0.1,1-0.1,1.5c-0.5,0.8-1.5,1.1-2.3,0.6
	l-6.6-3.9l0.3,3.5l-6.3,0l4.8,4.9l-2,3.5l11.6,3.2l-3.8,6.7L69.1,342.2z M145.7,122c5.2-4.5,6.5-11,2.4-16.7l-5.4,4.6
	c1.8,2.6,1.5,5.3-1,7.5c-3.5,3-7.3,0.9-9.9-2.2c-2.5-3.1-3.7-7.4-0.3-10.4c2.2-1.9,4.8-2.2,6.8-0.3l5.4-4.6c-4.3-5-11.4-3.8-15.9,0
	c-6.2,5.3-6.3,13.6-1.4,19.8C131.4,125.9,139.4,127.3,145.7,122 M83.1,177.2l-5.8,10.4l1.4,0.8l5.8-10.4L95,188.8l-1.9-7.4h12
	l-1-3.9l5.9-3.5l-6.1-1.7l1.2-3.3l-7.3,2c-0.9,0.2-1.8-0.3-2.1-1.2c-0.1-0.5,0-1,0.2-1.4l6.7-9.8l-4.4,0l0.7-7.7l-6.2,4.4l-2.2-3.9
	l-4.9,10.8c-0.2,0.4-0.6,0.8-1.1,0.9c-0.9,0.2-1.8-0.3-2.1-1.2l-2-7.5l-2.2,2.7l-4.4-4.6l0,7l-3.8,1l6,10.7l-7.2,2L83.1,177.2z
	 M126.9,414.8l-26.2,11.8l5,5.3l4.6-2.2l6.5,6.9l-2.3,4.6l5.1,5.4l12.2-26.5L126.9,414.8z M119.4,431.6l-4.2-4.5l8.8-4.5l0.1,0.1
	L119.4,431.6z M201.9,466.5l-21-9.5l-2.4,5.6l7.3,3.3l-8.3,19.5l6.4,2.9l8.3-19.5l7.3,3.3L201.9,466.5z M169.6,449.5
	c-6.9-4.3-14.6-1.7-18.6,5.2c-4,6.8-2.7,15,4.2,19.3c5.8,3.6,12.2,2.7,16.1-3.1l-6-3.7c-1.8,2.6-4.4,3.2-7.2,1.5
	c-3.8-2.4-3.3-6.8-1.2-10.3c2.1-3.5,5.6-6.1,9.4-3.7c2.5,1.6,3.6,3.9,2.5,6.5l6,3.7C178,459.1,174.5,452.6,169.6,449.5 M152.1,448.1
	c3.4-4.3,1.1-9-2.6-12.1l-10.6-8.8l-16.7,21.4l5.4,4.5l6.1-7.8l4.1,3.4c2.5,2.1,1.2,4.6-0.4,6.9c-0.4,0.6-2,2.8-2.1,3.9l5.4,4.4
	c-0.1-1.4,2.2-4.6,2.9-5.6c1.4-2.2,2.8-5.3,1-7.6l0-0.1C147.5,451.7,150.3,450.4,152.1,448.1 M141.6,444.8l-4.6-3.8l3.8-4.8l4.3,3.6
	c1.5,1.3,2.2,3,0.9,4.6C144.8,446,143.2,446.2,141.6,444.8 M205.6,467.5l-8.3,26.1l6.6,2.2l8.3-26.1L205.6,467.5z M108,388.7l-7.2-2
	l6-10.7l-3.8-1l0-7l-4.4,4.6l-2.2-2.7l-2,7.5c-0.3,0.9-1.2,1.5-2.1,1.2c-0.5-0.1-0.9-0.5-1.1-0.9l-4.9-10.8l-2.2,3.9l-6.2-4.4
	l0.7,7.7l-4.4,0l6.7,9.8c0.3,0.4,0.4,0.9,0.2,1.4c-0.2,0.9-1.2,1.5-2.1,1.2l-7.4-2l1.2,3.3l-6.1,1.7l5.9,3.5l-1,3.9h12l-2,7.4
	l10.5-10.8l5.8,10.4l1.4-0.8l-5.8-10.4L108,388.7z"/>
</svg>
