<?xml version="1.0" encoding="UTF-8"?>
<svg version="1.1" id="Layer_1" xmlns="http://www.w3.org/2000/svg" xmlns:xlink="http://www.w3.org/1999/xlink" x="0px" y="0px" viewBox="0 0 427 73" style="enable-background:new 0 0 427 73;" xml:space="preserve">
<style type="text/css">
	.centralsquarest0{fill:#370761;}
	.centralsquarest1{fill:#F4490C;}
	.centralsquarest2{fill:#FF8114;}
	.centralsquarest3{fill:#F76000;}
	.centralsquarest4{fill:#F25E02;}
	.centralsquarest5{fill:#F55F00;}
	.centralsquarest6{fill:#FA4B0C;}
</style>
<g>
	<g>
		<g>
			<path class="centralsquarest0" d="M291.72,60.81h8.44v1.93H297v9.74h-2.1v-9.74h-3.17V60.81z"/>
			<path class="centralsquarest0" d="M303.75,60.81h7.07v1.93h-4.97v2.89h4.54v1.93h-4.54v2.99h4.97v1.93h-7.07V60.81z"/>
			<path class="centralsquarest0" d="M320.62,68.43l2.1,0.35v1.77c0,1.07-0.86,1.93-1.93,1.93h-3.94c-1.07,0-1.91-0.86-1.91-1.93v-7.81     c0-1.07,0.84-1.93,1.91-1.93h3.94c1.07,0,1.93,0.86,1.93,1.93v1.66l-2.1,0.35V63.2c0-0.26-0.21-0.45-0.47-0.45h-2.63     c-0.26,0-0.47,0.19-0.47,0.45v6.9c0,0.26,0.21,0.46,0.47,0.46h2.63c0.26,0,0.47-0.19,0.47-0.46V68.43z"/>
			<path class="centralsquarest0" d="M333.15,67.49h-3.96v4.99h-2.1V60.81h2.1v4.75h3.96v-4.75h2.1v11.66h-2.1V67.49z"/>
			<path class="centralsquarest0" d="M348.28,72.48h-2.03l-4.41-7.55v7.55h-2.03V60.81h2.03l4.41,7.58v-7.58h2.03V72.48z"/>
			<path class="centralsquarest0" d="M352.74,70.55v-7.81c0-1.07,0.84-1.93,1.91-1.93h4.12c1.07,0,1.93,0.86,1.93,1.93v7.81     c0,1.07-0.86,1.93-1.93,1.93h-4.12C353.58,72.48,352.74,71.62,352.74,70.55z M358.59,63.2c0-0.26-0.21-0.45-0.47-0.45h-2.8     c-0.26,0-0.47,0.19-0.47,0.45v6.9c0,0.26,0.21,0.46,0.47,0.46h2.8c0.26,0,0.47-0.19,0.47-0.46V63.2z"/>
			<path class="centralsquarest0" d="M365.16,60.81h2.1v9.74h4.76v1.93h-6.86V60.81z"/>
			<path class="centralsquarest0" d="M375.61,70.55v-7.81c0-1.07,0.84-1.93,1.91-1.93h4.12c1.07,0,1.93,0.86,1.93,1.93v7.81     c0,1.07-0.86,1.93-1.93,1.93h-4.12C376.45,72.48,375.61,71.62,375.61,70.55z M381.46,63.2c0-0.26-0.21-0.45-0.47-0.45h-2.8     c-0.26,0-0.47,0.19-0.47,0.45v6.9c0,0.26,0.21,0.46,0.47,0.46h2.8c0.26,0,0.47-0.19,0.47-0.46V63.2z"/>
			<path class="centralsquarest0" d="M391.58,66.28h4.13v4.27c0,1.07-0.86,1.93-1.93,1.93h-3.94c-1.07,0-1.91-0.86-1.91-1.93v-7.81     c0-1.07,0.84-1.93,1.91-1.93h3.94c1.07,0,1.93,0.86,1.93,1.93v1.3l-2.1,0.35V63.2c0-0.26-0.21-0.45-0.47-0.45h-2.63     c-0.26,0-0.47,0.19-0.47,0.45v6.9c0,0.26,0.21,0.46,0.47,0.46h2.63c0.26,0,0.47-0.19,0.47-0.46v-1.96h-2.03V66.28z"/>
			<path class="centralsquarest0" d="M402.1,72.48H400V60.81h2.1V72.48z"/>
			<path class="centralsquarest0" d="M406.65,60.81h7.07v1.93h-4.97v2.89h4.54v1.93h-4.54v2.99h4.97v1.93h-7.07V60.81z"/>
			<path class="centralsquarest0" d="M419.75,67.03c-1.03-0.32-1.87-0.82-1.87-1.89v-2.4c0-1.07,0.84-1.93,1.91-1.93h3.71     c1.07,0,1.93,0.86,1.93,1.93v1.37l-2.1,0.35V63.2c0-0.26-0.21-0.45-0.47-0.45h-2.4c-0.26,0-0.47,0.19-0.47,0.45v1.45     c0,0.26,0.21,0.44,0.47,0.51c1.03,0.3,1.91,0.53,3.19,0.89c1,0.28,1.82,0.82,1.82,1.89v2.61c0,1.07-0.84,1.93-1.91,1.93h-3.78     c-1.07,0-1.93-0.86-1.93-1.93v-1.33l2.1-0.35v1.23c0,0.26,0.21,0.46,0.47,0.46h2.47c0.26,0,0.47-0.19,0.47-0.46v-1.68     c0-0.26-0.19-0.42-0.47-0.49C421.55,67.56,421.05,67.42,419.75,67.03z"/>
		</g>
	</g>
	<g>
		<path class="centralsquarest0" d="M93.95,29.91v6.49c0,2.85-2.29,5.14-5.14,5.14H78.12c-2.85,0-5.14-2.29-5.14-5.14V15.57    c0-2.85,2.29-5.14,5.14-5.14h10.69c2.85,0,5.14,2.29,5.14,5.14v5.79h-6.63v-4.3c0-0.28-0.19-0.47-0.47-0.47h-6.63    c-0.28,0-0.47,0.19-0.47,0.47v17.84c0,0.28,0.19,0.47,0.47,0.47h6.63c0.28,0,0.47-0.19,0.47-0.47v-5H93.95z"/>
		<path class="centralsquarest0" d="M100.25,10.44h19.33v6.16h-12.56v5.93h11.58v6.16h-11.58v6.68h12.61v6.16h-19.38V10.44z"/>
		<path class="centralsquarest0" d="M149.15,41.54h-6.54l-10.37-18.12v18.12h-6.54v-31.1h6.54l10.37,18.21V10.44h6.54V41.54z"/>
		<path class="centralsquarest0" d="M154.05,10.44h22.84v6.16h-8.03v24.94h-6.77V16.6h-8.03V10.44z"/>
		<path class="centralsquarest0" d="M193.19,30.1h-4.62v11.44h-6.77v-31.1h17.28c2.85,0,5.14,2.29,5.14,5.14v9.39c0,2.34-1.54,4.3-3.69,4.95    l5.51,11.63h-7.43L193.19,30.1z M188.56,16.6v7.33h8.45c0.28,0,0.47-0.19,0.47-0.47v-6.4c0-0.28-0.19-0.47-0.47-0.47H188.56z"/>
		<path class="centralsquarest0" d="M236.66,41.54h-6.91l-1.96-6.16h-9.57l-1.87,6.16h-6.91l10.18-31.1h6.82L236.66,41.54z M220.22,29.4h5.6    l-2.8-10.37L220.22,29.4z"/>
		<path class="centralsquarest0" d="M241.24,10.44h6.77v24.94h12.38v6.16h-19.15V10.44z"/>
		<path class="centralsquarest1" d="M285.75,36.4c0,2.85-2.29,5.14-5.14,5.14h-10.55c-2.85,0-5.14-2.29-5.14-5.14v-4.16h6.63v2.66    c0,0.28,0.19,0.47,0.47,0.47h6.54c0.28,0,0.47-0.19,0.47-0.47v-4.34c0-0.33-0.23-0.51-0.61-0.61c-0.79-0.23-3.27-0.93-9.06-2.57    c-2.76-0.79-4.34-2.01-4.34-4.86v-6.96c0-2.85,2.29-5.14,5.14-5.14h10.27c2.85,0,5.14,2.29,5.14,5.14v4.11h-6.63v-2.62    c0-0.28-0.19-0.47-0.47-0.47h-6.26c-0.28,0-0.47,0.19-0.47,0.47v4.02c0,0.37,0.23,0.51,0.51,0.61c0.47,0.14,3.13,0.89,9.29,2.62    c2.66,0.75,4.2,2.01,4.2,4.86V36.4z"/>
		<path class="centralsquarest1" d="M299.43,41.54h-2.48c-2.85,0-5.14-2.29-5.14-5.14V15.57c0-2.85,2.29-5.14,5.14-5.14h11.49    c2.85,0,5.14,2.29,5.14,5.14V36.4c0,2.85-2.29,5.14-5.14,5.14h-2.48v7.19h-6.54V41.54z M306.34,16.6h-7.29    c-0.28,0-0.47,0.19-0.47,0.47v17.84c0,0.28,0.19,0.47,0.47,0.47h7.29c0.28,0,0.47-0.19,0.47-0.47V17.07    C306.81,16.79,306.62,16.6,306.34,16.6z"/>
		<path class="centralsquarest1" d="M341.46,10.44V36.4c0,2.85-2.29,5.14-5.14,5.14h-11.07c-2.85,0-5.14-2.29-5.14-5.14V10.44h6.77v24.47    c0,0.28,0.19,0.47,0.47,0.47h6.86c0.28,0,0.47-0.19,0.47-0.47V10.44H341.46z"/>
		<path class="centralsquarest1" d="M372.8,41.54h-6.91l-1.96-6.16h-9.57l-1.87,6.16h-6.91l10.18-31.1h6.82L372.8,41.54z M356.36,29.4h5.6    l-2.8-10.37L356.36,29.4z"/>
		<path class="centralsquarest1" d="M388.77,30.1h-4.62v11.44h-6.77v-31.1h17.28c2.85,0,5.14,2.29,5.14,5.14v9.39c0,2.34-1.54,4.3-3.69,4.95    l5.51,11.63h-7.43L388.77,30.1z M384.14,16.6v7.33h8.45c0.28,0,0.47-0.19,0.47-0.47v-6.4c0-0.28-0.19-0.47-0.47-0.47H384.14z"/>
		<path class="centralsquarest1" d="M406.75,10.44h19.33v6.16h-12.56v5.93h11.58v6.16h-11.58v6.68h12.61v6.16h-19.38V10.44z"/>
	</g>
</g>
<g>
	<path class="centralsquarest2" d="M50.17,20.1L31.36,1.29c5.18-1.82,11.18-0.66,15.33,3.48C50.83,8.92,51.99,14.92,50.17,20.1z"/>
	<path class="centralsquarest3" d="M20.28,1.29C15.09-0.53,9.09,0.63,4.95,4.77C0.8,8.92-0.35,14.92,1.47,20.1L20.28,1.29z"/>
	
		<rect x="15.25" y="15.08" transform="matrix(0.7071 -0.7071 0.7071 0.7071 -10.5702 25.7648)" class="centralsquarest4" width="21.13" height="21.13"/>
	<path class="centralsquarest5" d="M31.36,49.99c5.18,1.82,11.18,0.66,15.33-3.48c4.15-4.15,5.3-10.14,3.48-15.33L31.36,49.99z"/>
	<path class="centralsquarest6" d="M4.95,46.51c4.15,4.15,10.14,5.3,15.33,3.48L1.47,31.18C-0.35,36.37,0.8,42.36,4.95,46.51z"/>
</g>
</svg>