<?xml version="1.0" encoding="utf-8"?>
<!-- Generator: Adobe Illustrator 24.1.2, SVG Export Plug-In . SVG Version: 6.00 Build 0)  -->
<svg version="1.1" id="图层_1" xmlns="http://www.w3.org/2000/svg" xmlns:xlink="http://www.w3.org/1999/xlink" x="0px" y="0px"
	 viewBox="0 0 360.4 72.9" style="enable-background:new 0 0 360.4 72.9;" xml:space="preserve">
<style type="text/css">
	.chinadatagroupst0{fill:#E30613;}
	.chinadatagroupst1{fill:#4A4A49;}
</style>
<path class="chinadatagroupst0" d="M145.6,71.3c-1.3,0.8-2.8,1.1-4.5,1.1c-1.9,0-3.5-0.6-4.7-1.8s-1.8-2.8-1.8-4.9c0-2.1,0.6-3.7,1.9-5.1
	c1.3-1.3,3-2,5-2c1.4,0,2.7,0.2,3.7,0.7v1.9c-1.1-0.7-2.3-1-3.8-1c-1.4,0-2.6,0.5-3.6,1.5s-1.4,2.3-1.4,3.9c0,1.7,0.4,3,1.3,3.9
	c0.9,0.9,2,1.4,3.5,1.4c1,0,1.9-0.2,2.6-0.6v-3.6H141v-1.5h4.6V71.3z M165.4,72.2h-2l-2.2-3.7c-0.4-0.7-0.8-1.2-1.2-1.5
	c-0.4-0.3-0.8-0.4-1.3-0.4h-1.2v5.6h-1.7V58.9h4.1c1.3,0,2.3,0.3,3,0.9c0.7,0.6,1.1,1.5,1.1,2.6c0,1.8-1,3-3,3.6v0
	c0.4,0.2,0.7,0.4,0.9,0.7c0.3,0.3,0.6,0.8,1,1.5L165.4,72.2z M157.4,60.4v4.7h2c0.8,0,1.4-0.2,1.9-0.7c0.5-0.5,0.7-1.1,0.7-1.8
	c0-0.7-0.2-1.2-0.7-1.6c-0.4-0.4-1.1-0.6-1.9-0.6H157.4z M174.5,65.8c0-2.1,0.6-3.9,1.7-5.1c1.2-1.3,2.7-1.9,4.7-1.9
	c1.8,0,3.3,0.6,4.5,1.9c1.1,1.2,1.7,2.9,1.7,4.9c0,2.2-0.6,3.9-1.7,5.1c-1.2,1.3-2.7,1.9-4.6,1.9c-1.9,0-3.4-0.6-4.5-1.9
	S174.5,67.7,174.5,65.8z M176.4,65.6c0,1.6,0.4,2.9,1.2,3.9c0.8,1,1.9,1.5,3.2,1.5c1.4,0,2.5-0.5,3.3-1.4c0.8-0.9,1.2-2.2,1.2-3.9
	c0-1.7-0.4-3-1.2-4s-1.9-1.4-3.3-1.4c-1.4,0-2.5,0.5-3.3,1.5S176.4,64,176.4,65.6z M206.2,66.7c0,3.8-1.7,5.6-5.1,5.6
	c-3.3,0-4.9-1.8-4.9-5.4v-8.1h1.7v8c0,2.7,1.1,4,3.3,4c2.2,0,3.2-1.3,3.2-3.9v-8.1h1.7V66.7z M219.1,67.3v5h-1.7V58.9h3.8
	c1.4,0,2.6,0.3,3.3,1c0.8,0.7,1.2,1.7,1.2,3c0,1.3-0.5,2.4-1.4,3.2c-0.9,0.8-2.1,1.2-3.5,1.1H219.1z M219.1,60.5v5.3h1.6
	c1,0,1.8-0.2,2.4-0.7c0.5-0.5,0.8-1.1,0.8-2c0-1.7-1-2.6-3-2.6H219.1z M65.1,46.4c-3.4,1.7-7.9,2.5-13.5,2.5c-7.1,0-12.8-2.1-17-6.4
	c-4.2-4.3-6.3-10-6.3-17.1c0-7.5,2.3-13.6,7-18.4C40,2.4,46.1,0,53.5,0c4.6,0,8.5,0.6,11.6,1.8v9.8c-3.2-1.9-6.8-2.8-10.9-2.8
	c-4.6,0-8.3,1.5-11.1,4.4c-2.8,3-4.2,6.8-4.2,11.6c0,4.6,1.3,8.4,3.9,11.2c2.6,2.8,6.2,4.2,10.7,4.2c4.2,0,8.1-1,11.5-3.1V46.4z
	 M143.2,37.1V21.2c0-3.4-0.1-5.9-0.3-7.6h0.2c0.5,1,1.2,2.3,2.3,3.9l12.3,18.7c5.9-0.3,12-0.5,18.1-0.6V0.8h-9.6v27
	c0,3.2,0.1,5.4,0.3,6.5h-0.2c-0.3-0.5-1.1-1.8-2.4-3.8L144.7,0.8h-11V38C136.8,37.7,140,37.4,143.2,37.1z M294.6,48.1h3.6L309.3,13
	c0.4-1.3,0.7-2.6,0.8-4h0.3c0.1,1.7,0.4,3.1,0.7,4.1l11.3,35.1h11l-17-47.4h-11.9l-16.8,45.9C290.1,47.2,292.4,47.6,294.6,48.1z
	 M273,43.8c3.5,0.6,6.8,1.3,10.1,1.9V9h13.5V0.8h-37.1V9H273V43.8z M236.6,38.6l8.1-25.6c0.4-1.3,0.7-2.6,0.8-4h0.3
	c0.1,1.7,0.4,3.1,0.7,4.1l9,27.9c3.9,0.6,7.7,1.1,11.4,1.8l-15-41.9H240l-13.5,36.8C229.9,37.9,233.3,38.2,236.6,38.6z M127.6,38.6
	V0.8h-10.1v38.9C120.8,39.3,124.2,38.9,127.6,38.6z M81,45.5V28.6h20.2V42c3.3-0.5,6.7-1,10.1-1.5V0.8h-10.1v19.1H81V0.8H70.9v46.8
	C74.2,46.9,77.6,46.2,81,45.5z"/>
<path class="chinadatagroupst1" d="M359.5,71.9c-4.1-2.2-61.3-25.6-142.3-31.3c4.1-4.3,6.2-9.9,6.2-16.7c0-15.4-8.4-23.1-25.2-23.1h-16.4v28.5
	h10.1V9h5.5c4.6,0,8.3,1.3,11.1,4s4.3,6.3,4.3,11c0,4.9-1.4,8.7-4.1,11.6c-2.3,2.4-5.3,3.7-9,4.1c-5.7-0.2-11.5-0.3-17.4-0.3
	C83.4,39.4,6,69.2,1.1,71.9c-1.7,0.9-1.2,1.4,0,0.7C6,69.9,83.4,48.7,182.3,48.7c99,0,172.5,21.4,177.2,23.9
	C360.5,73.1,360.9,72.6,359.5,71.9z"/>
</svg>
