<?xml version="1.0" encoding="utf-8"?>
<!-- Generator: Adobe Illustrator 24.1.2, SVG Export Plug-In . SVG Version: 6.00 Build 0)  -->
<svg version="1.1" id="Layer_1" xmlns="http://www.w3.org/2000/svg" xmlns:xlink="http://www.w3.org/1999/xlink" x="0px" y="0px"
	 viewBox="0 0 500 138.8" style="enable-background:new 0 0 500 138.8;" xml:space="preserve">
<style type="text/css">
	.emcurest0{fill:#EB1821;}
</style>
<g>
	<path class="emcurest0" d="M0,103.3V0h76.6v17.5H20.9v22.9h51.8v17.4H20.9v28.1h57.7v17.4H0z M92.2,28.5h18.2v10.2
		c6.5-7.9,14.3-11.9,23.3-11.9c4.8,0,8.9,1,12.5,3s6.4,5,8.7,8.9c3.3-4,6.8-7,10.6-8.9c3.8-2,7.9-3,12.2-3c5.5,0,10.1,1.1,13.9,3.3
		c3.8,2.2,6.6,5.5,8.5,9.8c1.4,3.2,2,8.4,2,15.5v47.8h-19.8V60.5c0-7.4-0.7-12.2-2-14.4c-1.8-2.8-4.6-4.2-8.5-4.2
		c-2.8,0-5.4,0.8-7.8,2.5c-2.4,1.7-4.2,4.2-5.3,7.4c-1.1,3.3-1.6,8.4-1.6,15.5v35.9h-19.8v-41c0-7.3-0.4-12-1.1-14.1
		c-0.7-2.1-1.8-3.7-3.3-4.7c-1.5-1-3.5-1.5-6-1.5c-3.1,0-5.8,0.8-8.2,2.5c-2.4,1.6-4.2,4-5.2,7.1s-1.6,8.2-1.6,15.4v36.4H92.2V28.5z
		 M284.8,50.6l-19.5,3.5c-0.7-3.9-2.1-6.8-4.5-8.8c-2.3-2-5.3-3-9.1-3c-4.9,0-8.9,1.7-11.8,5.1c-2.9,3.4-4.4,9.1-4.4,17.1
		c0,8.9,1.5,15.1,4.5,18.8c3,3.7,7,5.5,12,5.5c3.8,0,6.8-1.1,9.2-3.2c2.4-2.1,4.1-5.8,5.1-11l19.4,3.3c-2,8.9-5.9,15.7-11.6,20.2
		c-5.7,4.6-13.4,6.8-23,6.8c-10.9,0-19.7-3.5-26.2-10.4c-6.5-6.9-9.8-16.5-9.8-28.7c0-12.4,3.3-22,9.8-28.8
		c6.5-6.9,15.4-10.3,26.5-10.3c9.1,0,16.4,2,21.7,5.9C278.6,36.6,282.5,42.6,284.8,50.6z M346.1,103.3V92.1c-2.7,4-6.3,7.1-10.7,9.4
		c-4.4,2.3-9.1,3.5-14.1,3.5c-5,0-9.5-1.1-13.5-3.3c-4-2.2-6.9-5.3-8.7-9.3c-1.8-4-2.7-9.5-2.7-16.6V28.5h19.8v34.4
		c0,10.5,0.4,17,1.1,19.3c0.7,2.4,2.1,4.3,4,5.6c1.9,1.4,4.4,2.1,7.3,2.1c3.4,0,6.4-0.9,9.1-2.8c2.7-1.9,4.5-4.2,5.5-6.9
		c1-2.7,1.5-9.5,1.5-20.2V28.5h19.8v74.8H346.1z M401.2,103.3h-19.8V28.5h18.4v10.6c3.1-5,6-8.3,8.5-9.9c2.5-1.6,5.4-2.4,8.6-2.4
		c4.5,0,8.9,1.2,13,3.7l-6.1,17.3c-3.3-2.2-6.4-3.2-9.3-3.2c-2.8,0-5.1,0.8-7,2.3c-1.9,1.5-3.4,4.3-4.5,8.3
		c-1.1,4-1.7,12.4-1.7,25.1V103.3z M479.2,79.5l19.7,3.3c-2.5,7.2-6.5,12.7-12,16.5c-5.5,3.8-12.3,5.7-20.5,5.7
		c-13,0-22.6-4.3-28.9-12.8c-4.9-6.8-7.4-15.4-7.4-25.8c0-12.4,3.2-22.1,9.7-29.1c6.5-7,14.7-10.5,24.6-10.5
		c11.1,0,19.9,3.7,26.3,11c6.4,7.4,9.5,18.6,9.2,33.8h-49.6c0.1,5.9,1.7,10.4,4.8,13.7c3.1,3.3,6.9,4.9,11.4,4.9
		c3.1,0,5.7-0.8,7.8-2.5C476.5,85.9,478.1,83.2,479.2,79.5z M480.3,59.5c-0.1-5.7-1.6-10.1-4.4-13.1c-2.8-3-6.2-4.5-10.3-4.5
		c-4.3,0-7.9,1.6-10.7,4.7c-2.8,3.1-4.2,7.4-4.2,12.8H480.3z"/>
	<path d="M141.1,132.4l3-0.4c0.3,2.4,1.4,3.6,3.3,3.6c0.9,0,1.7-0.2,2.2-0.7c0.5-0.5,0.8-1.1,0.8-1.8c0-0.4-0.1-0.8-0.3-1.1
		c-0.2-0.3-0.5-0.5-0.8-0.7s-1.3-0.5-2.8-1c-1.3-0.4-2.3-0.8-2.9-1.3c-0.6-0.5-1.1-1.1-1.5-1.8c-0.4-0.8-0.5-1.6-0.5-2.4
		c0-1,0.2-1.9,0.7-2.7c0.5-0.8,1.1-1.4,1.9-1.8c0.8-0.4,1.8-0.6,3-0.6c1.8,0,3.2,0.5,4.2,1.5c1,1,1.5,2.4,1.6,4.2l-3.1,0.2
		c-0.1-1-0.4-1.7-0.9-2.1c-0.4-0.4-1.1-0.6-1.9-0.6c-0.8,0-1.5,0.2-1.9,0.5c-0.4,0.3-0.7,0.8-0.7,1.3c0,0.5,0.2,0.9,0.6,1.3
		c0.4,0.3,1.3,0.7,2.8,1.1c1.5,0.4,2.7,0.9,3.4,1.4c0.7,0.5,1.2,1.1,1.6,1.9s0.5,1.7,0.5,2.8c0,1.6-0.5,3-1.5,4.1
		c-1,1.1-2.5,1.6-4.7,1.6C143.7,138.8,141.6,136.7,141.1,132.4z M156.2,119.9h3.1v10.1c0,1.6,0,2.6,0.1,3.1c0.1,0.8,0.5,1.5,1,1.9
		c0.5,0.4,1.2,0.7,2,0.7c0.7,0,1.3-0.2,1.7-0.5c0.4-0.3,0.8-0.8,0.9-1.3s0.2-1.8,0.2-3.6v-10.3h3.1v9.8c0,2.5-0.1,4.3-0.4,5.4
		c-0.3,1.1-0.9,2-1.8,2.7c-0.9,0.7-2.2,1-3.7,1c-1.6,0-2.8-0.3-3.7-0.9c-0.9-0.6-1.5-1.4-1.9-2.4c-0.4-1-0.6-2.9-0.6-5.7V119.9z
		 M181.6,131.6l3,1.2c-0.5,2.1-1.2,3.6-2.3,4.6c-1.1,1-2.4,1.4-4,1.4c-2,0-3.6-0.8-4.8-2.3c-1.4-1.8-2.1-4.1-2.1-7.1
		c0-3.2,0.7-5.6,2.1-7.4c1.2-1.6,2.9-2.3,5-2.3c1.7,0,3.1,0.6,4.3,1.7c0.8,0.8,1.4,2.1,1.8,3.7l-3,0.9c-0.2-1-0.6-1.8-1.2-2.3
		c-0.6-0.5-1.3-0.8-2.1-0.8c-1.1,0-2,0.5-2.8,1.5c-0.7,1-1.1,2.6-1.1,4.9c0,2.3,0.3,4,1,5c0.7,1,1.6,1.5,2.7,1.5
		c0.8,0,1.5-0.3,2.1-0.9C180.9,134,181.3,133,181.6,131.6z M196.9,131.6l3,1.2c-0.5,2.1-1.2,3.6-2.3,4.6c-1.1,1-2.4,1.4-4,1.4
		c-2,0-3.6-0.8-4.8-2.3c-1.4-1.8-2.1-4.1-2.1-7.1c0-3.2,0.7-5.6,2.1-7.4c1.2-1.6,2.9-2.3,5-2.3c1.7,0,3.1,0.6,4.3,1.7
		c0.8,0.8,1.4,2.1,1.8,3.7l-3,0.9c-0.2-1-0.6-1.8-1.2-2.3c-0.6-0.5-1.3-0.8-2.1-0.8c-1.1,0-2,0.5-2.8,1.5c-0.7,1-1.1,2.6-1.1,4.9
		c0,2.3,0.3,4,1,5c0.7,1,1.6,1.5,2.7,1.5c0.8,0,1.5-0.3,2.1-0.9C196.2,134,196.7,133,196.9,131.6z M202.6,138.5v-18.6h11.3v3.1h-8.2
		v4.1h7.7v3.1h-7.7v5h8.5v3.1H202.6z M216,132.4l3-0.4c0.3,2.4,1.4,3.6,3.3,3.6c0.9,0,1.7-0.2,2.2-0.7c0.5-0.5,0.8-1.1,0.8-1.8
		c0-0.4-0.1-0.8-0.3-1.1c-0.2-0.3-0.5-0.5-0.8-0.7s-1.3-0.5-2.8-1c-1.3-0.4-2.3-0.8-2.9-1.3c-0.6-0.5-1.1-1.1-1.5-1.8
		c-0.4-0.8-0.5-1.6-0.5-2.4c0-1,0.2-1.9,0.7-2.7c0.5-0.8,1.1-1.4,1.9-1.8c0.8-0.4,1.8-0.6,3-0.6c1.8,0,3.2,0.5,4.2,1.5
		c1,1,1.5,2.4,1.6,4.2l-3.1,0.2c-0.1-1-0.4-1.7-0.9-2.1c-0.4-0.4-1.1-0.6-1.9-0.6c-0.8,0-1.5,0.2-1.9,0.5c-0.4,0.3-0.7,0.8-0.7,1.3
		c0,0.5,0.2,0.9,0.6,1.3c0.4,0.3,1.3,0.7,2.8,1.1c1.5,0.4,2.7,0.9,3.4,1.4c0.7,0.5,1.2,1.1,1.6,1.9s0.5,1.7,0.5,2.8
		c0,1.6-0.5,3-1.5,4.1c-1,1.1-2.5,1.6-4.7,1.6C218.5,138.8,216.5,136.7,216,132.4z M230.6,132.4l3-0.4c0.3,2.4,1.4,3.6,3.3,3.6
		c0.9,0,1.7-0.2,2.2-0.7s0.8-1.1,0.8-1.8c0-0.4-0.1-0.8-0.3-1.1c-0.2-0.3-0.5-0.5-0.8-0.7s-1.3-0.5-2.8-1c-1.3-0.4-2.3-0.8-2.9-1.3
		c-0.6-0.5-1.1-1.1-1.5-1.8c-0.4-0.8-0.5-1.6-0.5-2.4c0-1,0.2-1.9,0.7-2.7c0.5-0.8,1.1-1.4,1.9-1.8c0.8-0.4,1.8-0.6,3-0.6
		c1.8,0,3.2,0.5,4.2,1.5c1,1,1.5,2.4,1.6,4.2l-3.1,0.2c-0.1-1-0.4-1.7-0.9-2.1c-0.4-0.4-1.1-0.6-1.9-0.6c-0.8,0-1.5,0.2-1.9,0.5
		c-0.4,0.3-0.7,0.8-0.7,1.3c0,0.5,0.2,0.9,0.6,1.3c0.4,0.3,1.3,0.7,2.8,1.1c1.5,0.4,2.7,0.9,3.4,1.4c0.7,0.5,1.2,1.1,1.6,1.9
		s0.5,1.7,0.5,2.8c0,1.6-0.5,3-1.5,4.1c-1,1.1-2.5,1.6-4.7,1.6C233.1,138.8,231,136.7,230.6,132.4z M256.2,138.5V123h-4.5v-3.1h12.1
		v3.1h-4.5v15.4H256.2z M266,138.5v-18.6h3.1v7.3h6v-7.3h3.1v18.6h-3.1v-8.1h-6v8.1H266z M281.7,138.5v-18.6h6.5
		c1.7,0,2.8,0.2,3.5,0.5c0.7,0.3,1.3,0.9,1.7,1.7c0.5,0.8,0.7,1.8,0.7,3c0,1.5-0.3,2.6-1,3.5c-0.7,0.9-1.7,1.4-3,1.7
		c0.7,0.5,1.2,1,1.6,1.6s1,1.6,1.8,3l1.8,3.6h-3.7l-2.2-4c-0.8-1.5-1.3-2.4-1.6-2.7c-0.3-0.4-0.6-0.6-0.9-0.8
		c-0.3-0.1-0.8-0.2-1.5-0.2h-0.6v7.8H281.7z M284.8,127.7h2.3c1.4,0,2.3-0.1,2.7-0.2c0.4-0.1,0.7-0.4,0.9-0.7
		c0.2-0.4,0.4-0.9,0.4-1.5c0-0.6-0.1-1.1-0.4-1.4c-0.2-0.4-0.6-0.6-1-0.7c-0.3-0.1-1.1-0.1-2.5-0.1h-2.4V127.7z M296.5,129.3
		c0-2.2,0.3-4,1-5.5c0.7-1.4,1.5-2.5,2.6-3.2c1.1-0.7,2.3-1.1,3.8-1.1c2.2,0,4,0.8,5.3,2.5c1.4,1.7,2.1,4,2.1,7.1
		c0,3.1-0.7,5.5-2.2,7.3c-1.3,1.5-3,2.3-5.2,2.3c-2.2,0-3.9-0.8-5.2-2.3C297.2,134.7,296.5,132.3,296.5,129.3z M299.6,129.2
		c0,2.1,0.4,3.7,1.2,4.8c0.8,1.1,1.8,1.6,3,1.6c1.2,0,2.2-0.5,3-1.6c0.8-1.1,1.2-2.7,1.2-4.9c0-2.2-0.4-3.7-1.2-4.8
		c-0.8-1-1.8-1.5-3-1.5c-1.3,0-2.3,0.5-3.1,1.6C300,125.4,299.6,127,299.6,129.2z M314,119.9h3.1v10.1c0,1.6,0,2.6,0.1,3.1
		c0.1,0.8,0.5,1.5,1,1.9c0.5,0.4,1.2,0.7,2,0.7c0.7,0,1.3-0.2,1.7-0.5c0.4-0.3,0.8-0.8,0.9-1.3c0.2-0.6,0.2-1.8,0.2-3.6v-10.3h3.1
		v9.8c0,2.5-0.1,4.3-0.4,5.4c-0.3,1.1-0.9,2-1.8,2.7c-0.9,0.7-2.2,1-3.7,1c-1.6,0-2.8-0.3-3.7-0.9c-0.9-0.6-1.5-1.4-1.9-2.4
		c-0.4-1-0.6-2.9-0.6-5.7V119.9z M336.6,131.6v-3.1h6.6v7.4c-0.7,0.8-1.6,1.5-2.8,2c-1.2,0.6-2.5,0.8-3.7,0.8c-1.5,0-2.8-0.4-4-1.1
		c-1.1-0.7-2.1-1.8-2.7-3.3c-0.7-1.5-1-3.2-1-5.2c0-2,0.3-3.8,1-5.2c0.7-1.5,1.6-2.5,2.6-3.3s2.4-1.1,3.9-1.1c1.8,0,3.3,0.5,4.4,1.4
		c1.1,0.9,1.8,2.3,2.1,4.1l-3,0.7c-0.2-1-0.6-1.7-1.3-2.2c-0.6-0.5-1.3-0.8-2.2-0.8c-1.3,0-2.4,0.5-3.2,1.5c-0.8,1-1.2,2.6-1.2,4.7
		c0,2.2,0.4,3.9,1.3,5.1c0.8,1,1.8,1.5,3.1,1.5c0.6,0,1.2-0.1,1.9-0.4c0.6-0.3,1.2-0.7,1.7-1.2v-2.3H336.6z M346.5,138.5v-18.6h3.1
		v7.3h6v-7.3h3.1v18.6h-3.1v-8.1h-6v8.1H346.5z M369,138.5v-18.6h3.1v18.6H369z M375.5,138.5v-18.6h3l6.2,12.4v-12.4h2.9v18.6h-3.1
		l-6.1-12.1v12.1H375.5z M391.2,138.5v-18.6h3l6.2,12.4v-12.4h2.9v18.6h-3.1l-6.1-12.1v12.1H391.2z M406.2,129.3c0-2.2,0.3-4,1-5.5
		c0.7-1.4,1.5-2.5,2.6-3.2c1.1-0.7,2.3-1.1,3.8-1.1c2.2,0,4,0.8,5.3,2.5c1.4,1.7,2.1,4,2.1,7.1c0,3.1-0.7,5.5-2.2,7.3
		c-1.3,1.5-3,2.3-5.2,2.3c-2.2,0-3.9-0.8-5.2-2.3C406.9,134.7,406.2,132.3,406.2,129.3z M409.3,129.2c0,2.1,0.4,3.7,1.2,4.8
		c0.8,1.1,1.8,1.6,3,1.6c1.2,0,2.2-0.5,3-1.6c0.8-1.1,1.2-2.7,1.2-4.9c0-2.2-0.4-3.7-1.2-4.8c-0.8-1-1.8-1.5-3-1.5s-2.3,0.5-3.1,1.6
		C409.7,125.4,409.3,127,409.3,129.2z M427.1,138.5l-5.5-18.6h3.3l3.9,13.7l3.7-13.7h3.3l-5.5,18.6H427.1z M450.2,138.5h-3.3
		l-1.3-4.2h-6.1l-1.3,4.2h-3.3l5.9-18.6h3.3L450.2,138.5z M444.6,131.1l-2.1-6.9l-2.1,6.9H444.6z M453.8,138.5V123h-4.5v-3.1h12.1
		v3.1h-4.5v15.4H453.8z M463.6,138.5v-18.6h3.1v18.6H463.6z M469.4,129.3c0-2.2,0.3-4,1-5.5c0.7-1.4,1.5-2.5,2.6-3.2
		c1.1-0.7,2.3-1.1,3.8-1.1c2.2,0,4,0.8,5.3,2.5c1.4,1.7,2.1,4,2.1,7.1c0,3.1-0.7,5.5-2.2,7.3c-1.3,1.5-3,2.3-5.2,2.3
		c-2.2,0-3.9-0.8-5.2-2.3C470.2,134.7,469.4,132.3,469.4,129.3z M472.6,129.2c0,2.1,0.4,3.7,1.2,4.8c0.8,1.1,1.8,1.6,3,1.6
		c1.2,0,2.2-0.5,3-1.6c0.8-1.1,1.2-2.7,1.2-4.9c0-2.2-0.4-3.7-1.2-4.8c-0.8-1-1.8-1.5-3-1.5c-1.3,0-2.3,0.5-3.1,1.6
		C473,125.4,472.6,127,472.6,129.2z M487.1,138.5v-18.6h3l6.2,12.4v-12.4h2.9v18.6h-3.1l-6.1-12.1v12.1H487.1z"/>
</g>
</svg>
