<?xml version="1.0" encoding="utf-8"?>
<!-- Generator: Adobe Illustrator 24.1.2, SVG Export Plug-In . SVG Version: 6.00 Build 0)  -->
<svg version="1.1" id="Livello_1" xmlns="http://www.w3.org/2000/svg" xmlns:xlink="http://www.w3.org/1999/xlink" x="0px" y="0px"
	 viewBox="0 0 146 24" style="enable-background:new 0 0 146 24;" xml:space="preserve">
<style type="text/css">
	.fedrigonist0{fill:#0066B3;}
</style>
<path class="fedrigonist0" d="M66.5,6.8c0,3.4-2.9,5.7-6.1,6.1L67,23.4h-4.2L56,11.7c4.1-0.2,6.5-2.1,6.5-4.6c0-2.5-0.6-4.6-4.6-4.6l-3.1,0
	v19.3l0,0v0.5c0,0.5-0.4,1-1,1h-0.1h-1.2h-1.8V2.9V2.1V1.6c0-0.5,0.4-1,1-1h0.6h0.7h7.3C64.2,0.7,66.5,3.4,66.5,6.8 M114.4,15.5
	c0.6-4.5,0.6-9.8-3.1-12.7c-1.4-1-3.5-1.3-5.2-0.7c-4.3,1.8-4.7,6.7-4.6,11c0.3,3.4,1,7.1,4.4,8.7c2,0.8,4.5,0.6,6-1
	C113.4,19.2,114,17.4,114.4,15.5 M106,0.2c4.2-0.9,8,1.1,10.6,4.3c2.7,3.4,3.2,9,1.3,12.9c-1,2.2-2.8,4.2-5,5.4
	c-3,1.8-7.7,1.4-10.5-0.5c-4.1-2.8-6.1-7.9-5.1-13.1C98.2,5,101.8,1.2,106,0.2 M35.3,21.6c7.5,0,9.5-4.3,9.5-9.5
	c0-5.2-2-9.5-9.5-9.5h-0.9v19H35.3 M37.6,0.7C44.8,0.7,49,5.7,49,12c0,6.3-4.2,11.3-11.4,11.3l-7.3,0V2.9v0V1.6c0-0.5,0.4-1,1-1h1.3
	h0H37.6 M72.9,0.7h-1.8h-0.9h-0.4c-0.5,0-1,0.4-1,1v0.7v0v21.1h1.8h1.1H72c0.5,0,1-0.4,1-1v-1.3v0V0.7z M144.2,0.7h-0.9h-0.4
	c-0.5,0-1,0.4-1,1v0.7v0.6v20.5h1.8h1.1h0.2c0.5,0,1-0.4,1-1v-0.3v-1V0.7H144.2z M16.3,0.7h-0.4c-0.5,0-1,0.4-1,1v0.5v0.8v20.5h1.4
	H28v-1.8H19v-9h6.1c0,0,0,0,0,0h1.3c0.5,0,1-0.4,1-1v-0.1v-0.8H19V2.5H28V0.7H17.2H16.3z M93.1,11.9h-0.4c-0.5,0-1,0.4-1,1V14l0,6.4
	c-0.7,0.5-1.5,1-2.4,1.2c-2.6,0.7-5.6,0.1-7.4-1.8c-3-3.1-3.3-8-2.1-12.1c0.7-2.5,3-5.1,5.7-5.6c3.3-0.8,6.5,0.8,8.3,3.4l1.5-1
	c-0.6-1.1-1.5-1.9-2.4-2.7c-2.9-2.3-7.8-2.3-11.1-0.7c-4.1,2.1-6.8,6.4-6.8,11c-0.2,4.7,2.7,9.1,6.9,10.8c4.6,2,10.2,0.6,13.8-2.5
	v-8.6H94H93.1z M136.5,16.1L124.6,0.7h-1.4h-0.9H122c-0.5,0-1,0.4-1,1v0.3v21.5h2.4V5.5l13.1,17.9h0.9h0.5h0.1c0.5,0,1-0.4,1-1v-0.6
	v-0.7V0.7h-2.4V16.1z M1.6,0.7H1c-0.5,0-1,0.4-1,1v0.3v1v20.5h1.3h0.2H3c0.5,0,1-0.4,1-1v-0.9v-0.4v-8.6h6.9h0.6c0.5,0,1-0.4,1-0.9
	l0,0v-1H4V2.6l0.1,0h9.1V0.7H2.2H1.6z"/>
</svg>
