<?xml version="1.0" encoding="utf-8"?>
<!-- Generator: Adobe Illustrator 24.1.2, SVG Export Plug-In . SVG Version: 6.00 Build 0)  -->
<svg version="1.1" id="Layer_1" xmlns="http://www.w3.org/2000/svg" xmlns:xlink="http://www.w3.org/1999/xlink" x="0px" y="0px"
	 viewBox="0 0 341.9 104.1" style="enable-background:new 0 0 341.9 104.1;" xml:space="preserve">
<style type="text/css">
	.fourkitesst0{fill:#53575A;}
	.fourkitesst1{fill:#FF4438;}
	.fourkitesst2{fill:#00ACD8;}
	.fourkitesst3{fill:#E0DF00;}
	.fourkitesst4{fill:#2D2A26;}
</style>
<polygon class="fourkitesst0" points="55.4,52 71.7,68.2 71.7,68.2 104.5,52 71.7,35.8 71.7,35.8 71.7,35.8 "/>
<polygon class="fourkitesst1" points="32.8,35.8 0,52 32.8,68.2 32.8,68.2 32.8,68.2 49.1,52 32.8,35.8 "/>
<polygon class="fourkitesst2" points="52,55 35.8,71.2 35.8,71.2 52,104.1 68.2,71.2 68.2,71.2 68.2,71.2 52,55 "/>
<polygon class="fourkitesst3" points="52,-0.1 35.8,32.8 35.8,32.8 35.8,32.8 52,49 52,49 68.2,32.8 68.2,32.8 "/>
<g>
	<path class="fourkitesst4" d="M341.5,42.6c-0.3-6.7-4-10.5-9.5-10.5c-5.6,0-9.3,3.5-9.3,9c0,11,15.5,12,15.5,20.8c0,4.1-2.2,6.4-5.7,6.4
		c-4.1,0-6.3-2.8-6.4-7.4h-3.9c0.1,6.5,3.7,10.9,9.8,10.9c6.4,0,9.9-3.7,9.9-9.8c0-12.4-15.5-12.5-15.5-21.2c0-2.9,2.1-5.1,5.3-5.1
		c4,0,5.6,3,5.9,7H341.5z M298,32.7v38.6h18.3v-3.5h-14.1V52.9h9.9v-3.5h-9.9V36.2h13.5v-3.5H298z M271.2,32.7v3.5h7.9v35.1h4.2
		V36.2h7.9v-3.5H271.2z M260.2,71.3h4.2V32.7h-4.2V71.3z M232.6,32.7v38.6h4.2V59.4l5-9h0.1l7.2,20.9h4.5l-8.9-25.1l7.5-13.5h-4.5
		l-10.8,19.7h-0.1V32.7H232.6z M209.7,55.5c1.2,0,2.6-0.1,3.4-0.2l4.7,16h6.7L219,53.8c2.2-1,4.7-3.5,4.7-9.7
		c0-8.2-3.8-11.4-11.2-11.4h-9.3v38.6h6.6V55.5z M209.7,38.1h2.4c3.6,0,4.9,1.3,4.9,5.9s-1.3,5.9-4.9,5.9h-2.4V38.1z M173.9,61.6
		c0,6.6,3.9,10.3,10.2,10.3c6.3,0,10.2-3.6,10.2-10.3V32.7h-6.6v29.2c0,2.8-1.1,4.2-3.5,4.2c-2.4,0-3.5-1.4-3.5-4.2V32.7h-6.6V61.6z
		 M151.5,42.2c0-2.9,0.9-4.3,3.5-4.3c2.7,0,3.5,1.4,3.5,4.3v19.6c0,2.9-0.9,4.3-3.5,4.3c-2.7,0-3.5-1.4-3.5-4.3V42.2z M144.8,61.9
		c0,5.5,3.2,9.9,10.2,9.9c7,0,10.2-4.4,10.2-9.9V42.1c0-5.5-3.2-9.9-10.2-9.9c-7,0-10.2,4.4-10.2,9.9V61.9z M127.1,71.3V54.2h8.9
		v-5.8h-8.9v-10H139v-5.8h-18.5v38.6H127.1z"/>
</g>
</svg>
