<?xml version="1.0" encoding="utf-8"?>
<!-- Generator: Adobe Illustrator 24.1.0, SVG Export Plug-In . SVG Version: 6.00 Build 0)  -->
<svg version="1.1" id="Layer_1" xmlns="http://www.w3.org/2000/svg" xmlns:xlink="http://www.w3.org/1999/xlink" x="0px" y="0px"
	 viewBox="0 0 279 105.7" style="enable-background:new 0 0 279 105.7;" xml:space="preserve">
<style type="text/css">
	.st0{fill:#F49800;}
	.st1{fill:#575756;}
	.st2{fill-rule:evenodd;clip-rule:evenodd;fill:#F49800;}
</style>
<path class="st0" d="M150.3,102.2c0,0,10.1-7.3,31.6-8.2c20.8-0.9,38.2,4.6,62.1,3.5c27.1-1.2,31.6-7.8,31.6-7.8s-4.5,7.7-31.5,9
	c-23.8,1.1-41.3-4.4-62.1-3.5C160.5,96.1,150.3,102.2,150.3,102.2"/>
<path class="st1" d="M96.1,17.6h-1L95,15.1h0c-0.9,2-2.8,2.8-4.8,2.8c-4.4,0-6.6-3.5-6.6-7.3c0-3.8,2.2-7.3,6.6-7.3
	c2.9,0,5.3,1.6,5.8,4.6h-1.3c-0.2-1.6-1.8-3.5-4.5-3.5c-3.7,0-5.3,3.1-5.3,6.2c0,3.1,1.6,6.2,5.3,6.2c3.1,0,4.9-2.2,4.8-5.1h-4.8
	v-1.1h5.9V17.6z M98.4,17.6h1.2v-5.4c0-2.1,1.5-3.7,3.8-3.6V7.4c-1.8-0.1-3.2,0.9-3.8,2.5h0V7.5h-1.1V17.6z M112.8,7.5h-1.2v5.3
	c0,2.1-0.9,4.1-3,4.1c-2,0-2.6-1-2.7-2.8V7.5h-1.2v6.6c0,2.4,1,3.8,3.5,3.8c1.5,0,2.8-0.8,3.5-2.1h0v1.8h1.1V7.5z M115.1,21.3h1.2
	v-5.7h0c0.5,1.5,2,2.2,3.5,2.2c3.1,0,4.5-2.5,4.5-5.4c0-2.9-1.5-5.4-4.5-5.4c-1.6,0-3,0.8-3.6,2.2h0V7.5h-1.1V21.3z M119.9,8.2
	c2.4,0,3.3,2.2,3.3,4.3c0,2.1-1,4.3-3.3,4.3c-2.6,0-3.5-2.2-3.5-4.3C116.4,10.3,117.2,8.2,119.9,8.2 M135.4,12.5
	c0-2.9-1.7-5.4-4.8-5.4c-3.1,0-4.8,2.5-4.8,5.4c0,2.9,1.7,5.4,4.8,5.4C133.7,17.9,135.4,15.4,135.4,12.5 M127.1,12.5
	c0-2.2,1.2-4.3,3.5-4.3c2.4,0,3.5,2.2,3.5,4.3c0,2.2-1.2,4.3-3.5,4.3C128.3,16.9,127.1,14.7,127.1,12.5 M84.4,52.4h2.4V31.1h0.1
	l14.7,21.4h2.7V27.2h-2.4v21.4h-0.1L87.1,27.2h-2.7V52.4z M125.3,43.3c0-5.2-3-9.7-8.6-9.7s-8.6,4.4-8.6,9.7c0,5.2,3,9.7,8.6,9.7
	S125.3,48.5,125.3,43.3 M110.3,43.3c0-3.9,2.1-7.8,6.4-7.8c4.3,0,6.4,3.9,6.4,7.8c0,3.9-2.1,7.8-6.4,7.8
	C112.4,51.1,110.3,47.2,110.3,43.3 M132.2,28.7H130v5.5h-3.2V36h3.2v12.5c0,3.1,1,4.1,4,4.1c0.7,0,1.3-0.1,2-0.1v-1.9
	c-0.6,0.1-1.3,0.1-1.9,0.1c-1.6-0.1-1.8-1-1.8-2.4V36h3.7v-1.9h-3.7V28.7z M139.1,52.4h2.2v-9.7c0-3.8,2.8-6.8,6.8-6.5v-2.2
	c-3.3-0.1-5.8,1.6-6.9,4.5h-0.1v-4.3h-2.1V52.4z M165,43.9c0.2-5.1-2.2-10.3-8-10.3c-5.8,0-8.2,4.8-8.2,9.7c0,5.2,2.4,9.7,8.2,9.7
	c4.6,0,7-2.4,8-6.5h-2.2c-0.7,2.8-2.5,4.7-5.7,4.7c-4.3,0-6-3.9-6-7.2H165z M151,42c0.4-3.3,2.4-6.5,6-6.5c3.6,0,5.7,3.1,5.8,6.5
	H151z M168.5,52.4h8.7c7.6-0.2,11.6-4.4,11.6-12.6c0-8.3-4-12.5-11.6-12.6h-8.7V52.4z M170.9,29.2h5.1c7.3,0,10.4,3,10.4,10.6
	c0,7.5-3.1,10.6-10.4,10.6h-5.1V29.2z M194.3,39.8c0.1-3,2.1-4.2,4.9-4.2c2.6,0,4.8,0.7,4.8,3.8c0,2-1,2.3-2.9,2.5
	c-4.8,0.6-9.8,0.7-9.8,5.9c0,3.7,2.8,5.3,6.1,5.3c3.5,0,5.1-1.3,6.7-3.7h0.1c0,1.9,0.4,3.2,2.6,3.2c0.6,0,1,0,1.5-0.1v-1.9
	c-0.2,0.1-0.5,0.1-0.7,0.1c-0.9,0-1.3-0.5-1.3-1.3v-9.7c0-4.9-3.5-5.9-6.7-5.9c-4.2,0-7.2,1.8-7.4,6.1H194.3z M204,45.4
	c0,3.6-3,5.7-6.4,5.7c-2.1,0-4.1-1.4-4.1-3.6c0-3.6,4.7-3.5,8.5-4.2c0.6-0.1,1.6-0.3,1.9-0.8h0.1V45.4z M210.6,52.4h2.2V42.2
	c0-3.8,1.6-6.7,5.5-6.7c2.8,0,3.9,2.1,3.8,4.5v12.4h2.2V42.1c0-3.4,1.1-6.6,5-6.6c3.2,0,4.3,1.6,4.3,4.6v12.3h2.2V40
	c0-4.3-2.1-6.4-6.1-6.4c-2.4,0-4.7,1.2-5.8,3.6c-0.7-2.4-2.8-3.6-5.2-3.6c-2.9,0-4.8,1.4-6,3.6h-0.1v-3.1h-2.1V52.4z M255.5,43.9
	c0.2-5.1-2.2-10.3-8-10.3c-5.8,0-8.2,4.8-8.2,9.7c0,5.2,2.4,9.7,8.2,9.7c4.6,0,7-2.4,8-6.5h-2.2c-0.7,2.8-2.5,4.7-5.7,4.7
	c-4.3,0-6-3.9-6-7.2H255.5z M241.4,42c0.4-3.3,2.4-6.5,6-6.5c3.6,0,5.7,3.1,5.8,6.5H241.4z M84.6,85.6H87V60.9h-2.4V85.6z
	 M91.7,85.6h2.2V75.2c0.1-3.5,2.1-6.1,5.6-6.1c3.5,0,4.5,2.3,4.5,5.4v11.2h2.2V74.1c0-4.3-1.5-6.9-6.5-6.9c-2.5,0-4.9,1.5-5.7,3.6
	h-0.1v-3.1h-2.2V85.6z M113.8,62.4h-2.2v5.4h-3.1v1.8h3.1v12.2c0,3,1,4,3.9,4c0.7,0,1.3-0.1,1.9-0.1v-1.9c-0.6,0.1-1.2,0.1-1.9,0.1
	c-1.6-0.1-1.8-0.9-1.8-2.4V69.6h3.6v-1.8h-3.6V62.4z M135.6,77.3c0.2-5-2.1-10-7.9-10c-5.7,0-8.1,4.7-8.1,9.5c0,5.1,2.4,9.5,8.1,9.5
	c4.5,0,6.9-2.4,7.8-6.4h-2.2c-0.7,2.7-2.4,4.6-5.6,4.6c-4.2,0-5.9-3.8-5.9-7H135.6z M121.8,75.4c0.3-3.3,2.3-6.4,5.9-6.4
	c3.5,0,5.6,3.1,5.7,6.4H121.8z M138.5,85.6h2.2v-9.5c0-3.7,2.7-6.6,6.7-6.4v-2.2c-3.2-0.1-5.6,1.6-6.8,4.4h-0.1v-4.2h-2V85.6z
	 M149.4,85.6h2.2v-10c0-3.7,1.6-6.6,5.3-6.6c2.8,0,3.8,2,3.7,4.4v12.1h2.2V75.5c0-3.3,1.1-6.4,4.9-6.4c3.1,0,4.2,1.6,4.2,4.5v12h2.2
	V73.5c0-4.2-2-6.3-5.9-6.3c-2.4,0-4.6,1.1-5.7,3.5c-0.7-2.4-2.8-3.5-5.1-3.5c-2.8,0-4.7,1.4-5.9,3.5h-0.1v-3h-2V85.6z M193.3,77.3
	c0.2-5-2.1-10-7.9-10c-5.7,0-8.1,4.7-8.1,9.5c0,5.1,2.4,9.5,8.1,9.5c4.5,0,6.9-2.4,7.8-6.4h-2.2c-0.7,2.7-2.4,4.6-5.6,4.6
	c-4.2,0-5.9-3.8-5.9-7H193.3z M179.6,75.4c0.3-3.3,2.3-6.4,5.9-6.4c3.5,0,5.6,3.1,5.7,6.4H179.6z M189.5,60.4h-2.7l-3.6,4.9h1.8
	L189.5,60.4z M212,60.9h-2.2v10.3h-0.1c-0.9-2.6-3.5-3.9-6.2-3.9c-5.4,0-8,4.4-8,9.5c0,5.1,2.6,9.5,8,9.5c2.6,0,5.4-1.6,6.4-3.9h0.1
	v3.4h2V60.9z M203.5,84.3c-4.2,0-5.9-3.9-5.9-7.6c0-3.7,1.7-7.6,5.9-7.6c4.6,0,6.3,3.9,6.3,7.6C209.8,80.4,208.2,84.3,203.5,84.3
	 M216.2,64.4h2.2v-3.5h-2.2V64.4z M216.2,85.6h2.2V67.7h-2.2V85.6z M237.4,73.3c-0.5-4.1-3.4-6.1-7.2-6.1c-5.5,0-8.5,4.3-8.5,9.5
	c0,5.1,3,9.5,8.5,9.5c4,0,6.8-2.6,7.4-6.9h-2.2c-0.3,3-2.5,5.1-5.2,5.1c-4.2,0-6.3-3.8-6.3-7.6c0-3.8,2.1-7.6,6.3-7.6
	c2.8,0,4.5,1.6,5.1,4.3H237.4z M242.5,73.2c0.1-2.9,2.1-4.2,4.8-4.2c2.6,0,4.7,0.7,4.7,3.7c0,2-1,2.2-2.8,2.4
	c-4.7,0.6-9.6,0.7-9.6,5.8c0,3.6,2.7,5.2,6,5.2c3.4,0,5-1.3,6.5-3.6h0.1c0,1.9,0.3,3.1,2.6,3.1c0.6,0,0.9,0,1.4-0.1v-1.8
	c-0.2,0.1-0.5,0.1-0.7,0.1c-0.9,0-1.3-0.5-1.3-1.3V73c0-4.8-3.4-5.8-6.6-5.8c-4.1,0-7,1.8-7.2,6H242.5z M252,78.7
	c0,3.5-2.9,5.6-6.2,5.6c-2,0-4-1.4-4-3.5c0-3.5,4.6-3.5,8.3-4.1c0.6-0.1,1.6-0.3,1.8-0.8h0.1V78.7z"/>
<path class="st2" d="M36.9,57.1l26.8,12.6c1.5,0.7,1.6,0.7,2.9-0.2l5.7-4.1c1.3-0.9,1.3-1.3,0.4-2.5L39,17.6c-1-1.3-1.2-1.3-2.6-0.4
	L31,21.1c-1.3,0.9-1.4,1.2-0.4,2.5l17.9,24.1l1,1.3c1.4,1.9,2.1,2.7,3.8,4.8l1.8,2.3c-3.9-2.7-5.9-3.8-12-6.7l-29.4-14
	c-1.6-0.8-1.8-0.8-3.1,0.1L6,38.9c-1.3,0.9-1.4,1.2-0.4,2.5l33.7,45.4c1,1.3,1.2,1.3,2.6,0.4l5.4-3.8c1.3-1,1.3-1.3,0.4-2.5
	L30.9,58.4L26.2,52l-1.9-2.4C28.9,52.8,33.3,55.4,36.9,57.1 M39.9,57.5l29.2-5.2c1.6-0.2,1.8-0.4,2.2-1.8l2.2-6.6
	c0.5-1.5,0.3-1.8-1.2-2.3L17.9,24.3c-1.6-0.5-1.8-0.4-2.3,1.1l-2.1,6.3c-0.5,1.5-0.4,1.8,1.2,2.3l29,9.2l1.6,0.5
	c2.3,0.7,3.3,1,5.9,1.7l2.9,0.8c-4.8,0.1-7,0.3-13.7,1.5L8.2,53.3c-1.7,0.3-2,0.4-2.4,1.9l-1.8,5.4c-0.5,1.5-0.4,1.8,1.2,2.3
	l54.5,17.3c1.6,0.5,1.8,0.4,2.3-1.1l2.1-6.2c0.5-1.5,0.3-1.8-1.2-2.2l-27-8.6l-7.7-2.4l-3-0.9C30.8,58.5,36,58.2,39.9,57.5 M42.6,56
	l20.5-21c1.2-1.1,1.2-1.3,0.7-2.8l-2.2-6.6c-0.5-1.5-0.8-1.6-2.3-1.1L4.8,41.8c-1.6,0.5-1.7,0.7-1.2,2.3l2.1,6.3
	C6.2,51.8,6.5,52,8,51.5l29-9.2l1.6-0.5c2.3-0.7,3.3-1.1,5.8-2l2.8-1c-3.9,2.8-5.5,4.3-10.2,9.1l-22.6,23c-1.2,1.3-1.3,1.5-0.9,2.9
	l1.8,5.4c0.5,1.5,0.7,1.6,2.3,1.1L72.1,63c1.6-0.5,1.7-0.7,1.2-2.3l-2.1-6.2c-0.5-1.5-0.8-1.6-2.3-1.1l-27,8.6l-7.7,2.4l-2.9,1
	C35.8,62.1,39.8,58.8,42.6,56 M43.8,53.3l4-28.8c0.3-1.6,0.2-1.8-1.1-2.6L41,17.7c-1.3-1-1.6-0.8-2.5,0.4L4.8,63.6
	c-1,1.3-0.9,1.6,0.4,2.5l5.5,3.9c1.3,0.9,1.6,0.9,2.6-0.4l17.9-24.1l1-1.3c1.4-1.9,2-2.8,3.4-5l1.7-2.4c-1.4,4.5-1.9,6.6-2.8,13.2
	l-4.5,31.7c-0.3,1.7-0.2,2,1,2.9l4.7,3.3c1.3,0.9,1.6,0.9,2.6-0.4l33.7-45.4c1-1.3,0.9-1.6-0.4-2.5l-5.4-3.8
	c-1.3-0.9-1.6-0.8-2.5,0.4L46.9,58.4l-4.7,6.4l-1.7,2.5C42,62.1,43.3,57.2,43.8,53.3 M43.2,50.4L29.1,24.7c-0.7-1.4-0.9-1.5-2.5-1.5
	h-7c-1.6,0-1.8,0.3-1.8,1.8v56.2c0,1.6,0.2,1.8,1.8,1.8h6.8c1.6,0,1.8-0.2,1.8-1.8V51.3v-1.6c0-2.3-0.1-3.4-0.2-6l-0.1-3
	c1.5,4.5,2.5,6.5,5.7,12.3l15.4,28.2c0.8,1.5,1,1.7,2.6,1.7h5.8c1.6,0,1.8-0.2,1.8-1.8V25c0-1.6-0.2-1.8-1.8-1.8h-6.7
	c-1.7,0-1.8,0.3-1.8,1.8v27.8v7.9l0.1,3.1C47,58.5,45.1,53.9,43.2,50.4"/>
</svg>
