<?xml version="1.0" encoding="utf-8"?>
<!-- Generator: Adobe Illustrator 24.1.2, SVG Export Plug-In . SVG Version: 6.00 Build 0)  -->
<svg version="1.1" id="Layer_1" xmlns="http://www.w3.org/2000/svg" xmlns:xlink="http://www.w3.org/1999/xlink" x="0px" y="0px"
	 viewBox="0 0 313.1 55.7" style="enable-background:new 0 0 313.1 55.7;" xml:space="preserve">
<style type="text/css">
	.gynesonicsst0{fill:#A0CF67;}
	.gynesonicsst1{fill:#26BCD7;}
	.gynesonicsst2{fill:#524E86;}
</style>
<path class="gynesonicsst0" d="M29.7,13.9c-1,0-1.7,0.8-1.7,1.8v4.3c-2.3-3.1-6.4-6.5-12.8-6.5C7.9,13.4,0,19.1,0,28.4v0.1
	c0,9.3,7.7,14.9,15.2,14.9c5.1,0,9.5-2.3,12.8-6.7v3.8c0,7.4-4.5,11.9-12,11.9c-4.3,0-8.4-1.4-11.9-4c-0.3-0.1-0.5-0.3-1-0.3
	c-0.9,0-1.8,0.8-1.8,1.6c0,0.6,0.3,1.2,0.8,1.5c4.1,2.9,8.7,4.3,13.8,4.3c4.7,0,8.7-1.5,11.5-4.2c2.6-2.6,4-6.4,4-10.7V15.6
	C31.5,14.7,30.7,13.9,29.7,13.9z M28.2,28.5c0,7.2-6.6,11.6-12.7,11.6C8.9,40.1,3.7,35,3.7,28.4v-0.1c0-6.7,5-11.6,11.8-11.6
	c6.2,0,12.7,4.4,12.7,11.6V28.5z M65.1,13.9c-0.8,0-1.3,0.4-1.7,1.2L52.7,41.7L40.5,15.2c-0.3-0.7-0.7-1.4-1.8-1.4
	c-1,0-1.8,0.8-1.8,1.8c0,0.3,0.1,0.7,0.3,1L51,45.4l-0.1,0.3c-2.1,4.9-4.2,6.8-7.3,6.8c-2,0-3.1-0.3-3.9-0.6l-0.1,0
	c-0.3-0.1-0.6-0.2-0.9-0.2c-0.9,0-1.6,0.7-1.6,1.6c0,0.7,0.4,1.3,1,1.5c1.9,0.7,3.5,1,5.4,1c4.8,0,7.9-2.7,10.6-9l12.7-30.2
	c0.1-0.3,0.2-0.5,0.2-0.9C66.9,14.7,66.1,13.9,65.1,13.9z M86.8,13.4c-4.8,0-8.5,2-11,6v-3.7c0-1-0.7-1.8-1.8-1.8
	c-1,0-1.7,0.8-1.7,1.8v28.6c0,1,0.7,1.8,1.8,1.8c1,0,1.7-0.7,1.7-1.8V27.5c0-6.2,4.6-10.9,10.6-10.9c6,0,9.7,4,9.7,10.4v17.2
	c0,1,0.7,1.8,1.8,1.8c1,0,1.7-0.7,1.7-1.8V26.5C99.5,18.5,94.5,13.4,86.8,13.4z M134.2,29.8c0-9.5-6.1-16.4-14.5-16.4
	c-8.4,0-15,7.2-15,16.5V30c0,9.4,6.7,16.5,15.5,16.5c5,0,8.7-1.5,12.3-5.1c0.5-0.5,0.6-0.9,0.6-1.2c0-0.9-0.8-1.6-1.7-1.6
	c-0.4,0-0.8,0.2-1.1,0.5c-3,2.9-6.1,4.2-9.9,4.2c-6.5,0-11.4-4.9-12-11.8h24.2C133.4,31.4,134.2,30.6,134.2,29.8z M108.3,28.3
	c0.6-6.8,5.3-11.7,11.3-11.7c7.4,0,10.5,6.2,10.9,11.7H108.3z M184.9,32.4c0,2-1.6,3.6-3.5,3.6c-2,0-3.6-1.6-3.6-3.5l0-0.4l0-5.2
	c0.1-7.1-2.5-11.3-2.5-11.3C171.1,8.7,163,8,163,8l-0.2,0c-1.6-0.5-2.6-2.2-2.1-3.8c0.5-1.6,2.2-2.6,3.8-2.1l0,0
	c0,0,9.7,1.7,12.5,10.2c0,0,1.6,3.8,1.5,9.5l0,6.9l0,0c0,1.6,1.3,2.8,2.8,2.8c1.6,0,2.8-1.3,2.8-2.8l0,0l0-6.9v0
	c-0.1-5.7,1.4-9.5,1.4-9.5c2.6-8.5,12.4-10.4,12.4-10.4l0,0c1.6-0.5,3.3,0.4,3.8,2.1c0.5,1.6-0.4,3.3-2.1,3.8l-0.2,0
	c0,0-8.1,0.8-12.1,7.7c0,0-2.6,4.2-2.4,11.3v0l0,5.2L184.9,32.4z"/>
<path class="gynesonicsst1" d="M139.1,41.9c-0.4-0.3-0.7-0.8-0.7-1.4c0-1,0.8-1.8,1.7-1.8c0.5,0,0.9,0.2,1.1,0.4c3,2.5,6,3.7,10,3.7
	c4.2,0,7-2.3,7-5.4v-0.1c0-2.9-1.6-4.6-8.2-6c-7.3-1.6-10.6-3.9-10.6-9.1v-0.1c0-5,4.4-8.6,10.4-8.6c4.2,0,7.2,1,10.1,3.1
	c0.4,0.3,0.8,0.8,0.8,1.4c0,0.9-0.8,1.7-1.7,1.7c-0.4,0-0.7-0.1-1-0.3c-2.7-1.9-5.2-2.8-8.2-2.8c-4.1,0-6.7,2.3-6.7,5.1v0.1
	c0,3,1.6,4.6,8.6,6.1c7,1.5,10.3,4.1,10.3,8.9v0.1c0,5.4-4.5,8.9-10.8,8.9C146.4,46.1,142.6,44.7,139.1,41.9z M202,15.8
	c0-0.9,0.8-1.8,1.8-1.8h0.5c0.8,0,1.3,0.4,1.8,1l19.2,24.4V15.7c0-0.9,0.8-1.8,1.8-1.8c0.9,0,1.7,0.8,1.7,1.8v28.5
	c0,0.9-0.7,1.7-1.6,1.7h-0.2c-0.8,0-1.3-0.5-1.8-1.1l-19.6-25v24.4c0,0.9-0.8,1.8-1.8,1.8c-0.9,0-1.7-0.8-1.7-1.8V15.8z M236.1,15.7
	c0-1,0.8-1.8,1.8-1.8c1,0,1.8,0.8,1.8,1.8v28.4c0,1-0.8,1.8-1.8,1.8c-0.9,0-1.8-0.8-1.8-1.8V15.7z M277.5,41.9
	c-0.4-0.3-0.7-0.8-0.7-1.4c0-1,0.8-1.8,1.7-1.8c0.5,0,0.9,0.2,1.1,0.4c3,2.5,6,3.7,10,3.7c4.2,0,7-2.3,7-5.4v-0.1
	c0-2.9-1.6-4.6-8.2-6c-7.3-1.6-10.6-3.9-10.6-9.1v-0.1c0-5,4.4-8.6,10.4-8.6c4.1,0,7.2,1,10.1,3.1c0.4,0.3,0.8,0.8,0.8,1.4
	c0,0.9-0.8,1.7-1.7,1.7c-0.4,0-0.7-0.1-1-0.3c-2.7-1.9-5.2-2.8-8.2-2.8c-4.1,0-6.7,2.3-6.7,5.1v0.1c0,3,1.6,4.6,8.6,6.1
	c7,1.5,10.3,4.1,10.3,8.9v0.1c0,5.4-4.5,8.9-10.8,8.9C284.8,46.1,281,44.7,277.5,41.9z M301.7,18.1L301.7,18.1
	c0-3.1,2.5-5.8,5.7-5.8c3.2,0,5.7,2.6,5.7,5.7v0c0,3.1-2.5,5.7-5.7,5.7C304.2,23.8,301.7,21.2,301.7,18.1z M312.5,18.1L312.5,18.1
	c0-2.8-2.2-5.1-5-5.1c-2.8,0-5,2.3-5,5.1v0c0,2.8,2.2,5.1,5,5.1C310.3,23.2,312.5,20.8,312.5,18.1z M305.2,15.6
	c0-0.3,0.2-0.6,0.6-0.6h2.1c1.3,0,2.2,0.6,2.2,1.8c0,0.9-0.5,1.5-1.3,1.8l1.1,1.3c0.1,0.2,0.2,0.3,0.2,0.4c0,0.3-0.2,0.6-0.5,0.6
	c-0.2,0-0.4-0.1-0.5-0.3l-1.5-1.8h-1.2v1.5c0,0.3-0.3,0.6-0.6,0.6c-0.3,0-0.6-0.3-0.6-0.6V15.6z M307.7,17.9c0.8,0,1.2-0.4,1.2-0.9
	c0-0.6-0.4-0.9-1.2-0.9h-1.4v1.9H307.7z M244.5,30.4L244.5,30.4c0-8.8,6.6-16.1,15.7-16.1c5,0,8.2,1.6,11.1,4
	c0.4,0.3,0.7,0.8,0.7,1.4c0,0.9-0.8,1.7-1.8,1.7c-0.5,0-0.9-0.2-1.2-0.4c-2.4-2.1-5.1-3.5-8.9-3.5c-6.9,0-12,5.6-12,12.7v0.1
	c0,7.2,5.2,12.8,12,12.8c3.8,0,6.5-1.3,9.2-3.8c0.3-0.3,0.7-0.5,1.1-0.5c0.9,0,1.7,0.8,1.7,1.7c0,0.5-0.3,1-0.6,1.2
	c-3.1,2.8-6.4,4.6-11.5,4.6C251.1,46.3,244.5,39.3,244.5,30.4z M189.9,17L189.9,17c0,0.1-0.6,1-1.1,2.6c2.9,2.4,4.6,6.1,4.6,10.2V30
	c0,7.2-5.1,12.9-12.4,12.9c-7.2,0-12.4-5.9-12.4-13v-0.1c0-4.3,1.9-8.2,5-10.5c-0.5-1.4-0.9-2.1-0.9-2.1l0,0l0,0
	c-0.2-0.3-0.4-0.6-0.6-0.8c-4.4,3-7.1,8.1-7.1,13.6V30c0,8.7,6.4,16.2,16.1,16.2c9.6,0,16.1-7.6,16.1-16.3v-0.1
	c0-5.5-2.5-10.5-6.8-13.4C190.2,16.6,190,16.8,189.9,17L189.9,17z"/>
<path class="gynesonicsst2" d="M181.6,26c0,0.1-0.1,0.3-0.3,0.3c-0.1,0-0.3-0.1-0.3-0.3l0,0c0,0,0.3-17.9-5.4-22.7l-0.1,0
	c1.3-2,3.3-3.2,5.6-3.3c2.2,0,4.2,1.2,5.5,3.1l0,0.2C181.1,8,181.6,26,181.6,26L181.6,26z"/>
</svg>
