<?xml version="1.0" encoding="utf-8"?>
<!-- Generator: Adobe Illustrator 24.1.2, SVG Export Plug-In . SVG Version: 6.00 Build 0)  -->
<svg version="1.1" id="Layer_1" xmlns="http://www.w3.org/2000/svg" xmlns:xlink="http://www.w3.org/1999/xlink" x="0px" y="0px"
	 viewBox="0 0 154 62" style="enable-background:new 0 0 154 62;" xml:space="preserve">
<style type="text/css">
	.habitatinmobiliariast0{fill:#0070BD;}
</style>
<path class="habitatinmobiliariast0" d="M19,62h17.2V39.3c0-6.9,3.9-8.3,6.9-8.3c5,0,5.7,3.5,5.7,8.5V62H66V32.5c0-9.9-7.4-14.6-15.5-14.6
	c-7.3,0-11.1,2.4-14.1,5.7h-0.2V0H19V62z M74.5,48V37.6c0.6-0.7,1.7-1.5,3.3-1.5c1.2,0,1.8,0.6,1.8,2.5V48H83v-9.9
	c0-2.9-1.4-4.8-4.3-4.8c-1.7,0-3.1,0.9-4.2,1.8V28H71v20H74.5z M93.3,43.9c-0.7,0.6-2.1,1.5-3.2,1.5c-1,0-1.7-0.6-1.7-1.7
	c0-2,2.5-2.5,4.8-2.9V43.9z M97,47.7c-0.2-0.6-0.3-1.4-0.3-2.1v-6.8c0-4.3-1.7-5.7-5.6-5.8c-2.1-0.1-4.5,1.1-5.4,2.6l2.2,1.7
	c0.7-0.9,1.6-1.8,3.2-1.8c1.2,0,2.1,0.6,2.1,1.7v1.2c-5.6,0.7-8.3,2.4-8.3,5.7c0,2,1.3,3.8,3.9,3.8c1.8,0,3.1-0.6,4.5-1.5l0.2,1.2
	H97z M103.5,37.2c0.7-0.6,1.6-1.2,2.7-1.2c2.1,0,3.3,1.6,3.3,4.6c0,3-1.2,4.6-3.3,4.6c-1.5,0-2-0.7-2.7-1.3V37.2z M100,47.7h2.7
	l0.4-1.5c1.2,1.2,2.4,1.8,4,1.8c3.9,0,5.9-3.3,5.9-7.8c0-3.5-2.1-7-5.9-7c-1.2,0-2.9,0.7-3.6,1.6h-0.1V28H100V47.7z M117,31.2h3V28
	h-3V31.2z M117,48h3V33.8h-3V48z M122,32.9v2.8h1.9v8.8c0,2.1,1,3.4,3.4,3.4c0.9,0,1.7-0.1,2.6-0.2v-2.9c-0.5,0.1-1,0.3-1.5,0.3
	c-0.8,0-1.2-0.2-1.2-1v-8.4h2.7v-2.8h-2.7V28h-3.3v4.9H122z M140.3,43.9c-0.7,0.6-2.1,1.5-3.2,1.5c-1,0-1.7-0.6-1.7-1.7
	c0-2,2.5-2.5,4.8-2.9V43.9z M144,47.7c-0.2-0.6-0.3-1.4-0.3-2.1v-6.8c0-4.3-1.7-5.7-5.6-5.8c-2.1-0.1-4.5,1.1-5.4,2.6l2.2,1.7
	c0.7-0.9,1.6-1.8,3.2-1.8c1.2,0,2.1,0.6,2.1,1.7v1.2c-5.6,0.7-8.3,2.4-8.3,5.7c0,2,1.3,3.8,3.9,3.8c1.8,0,3.1-0.6,4.5-1.5l0.2,1.2
	H144z M146,32.9v2.8h1.9v8.8c0,2.1,1,3.4,3.4,3.4c0.9,0,1.7-0.1,2.6-0.2v-2.9c-0.5,0.1-1,0.3-1.5,0.3c-0.8,0-1.2-0.2-1.2-1v-8.4h2.7
	v-2.8h-2.7V28h-3.3v4.9H146z M73,53v-2h-2v2L73,53z M71,62h2v-8h-2V62z M77,62v-5.9c0.4-0.3,0.9-0.7,1.3-0.7c0.5,0,0.7,0.3,0.7,0.9
	V62l2,0v-6c0-1.5-0.6-2-1.8-2c-0.8,0-1.5,0.5-2.2,1v-0.9H75V62H77z M82,62h1.9v-5.9c0.2-0.3,0.8-0.7,1.2-0.7c0.3,0,0.5,0.1,0.5,0.7
	v6h1.9v-5.9c0.2-0.3,0.8-0.7,1.2-0.7c0.3,0,0.5,0.1,0.5,0.7v6H91v-5.9c0-1.4-0.6-2.1-1.7-2.1c-0.8,0-1.4,0.6-2,1.2
	c-0.2-0.7-0.7-1.2-1.4-1.2c-0.8,0-1.4,0.5-2,1v-0.9H82V62z M93.6,56.5c0-0.6,0.4-0.9,0.9-0.9c0.6,0,0.9,0.3,0.9,0.9v3.1
	c0,0.6-0.4,0.9-0.9,0.9c-0.5,0-0.9-0.3-0.9-0.9V56.5z M92,59.1c0,2,0.9,2.9,2.5,2.9c1.6,0,2.5-0.9,2.5-2.9v-2.2c0-2-0.9-2.9-2.5-2.9
	c-1.6,0-2.5,0.9-2.5,2.9V59.1z M99.5,61.9V61h0c0.3,0.5,1,1,1.7,1c1.3,0,1.8-1,1.8-3v-1.8c0-1.9-0.5-3-1.8-3c-0.4,0-0.8,0.2-1.6,0.8
	V52H98v9.9L99.5,61.9z M99.6,56.1c0.3-0.4,0.6-0.5,1-0.5c0.4,0,0.8,0.3,0.8,1.8v1.6c0,1.5-0.4,1.8-0.8,1.8c-0.4,0-0.7-0.2-1-0.5
	V56.1z M104,53.5h2V52h-2V53.5z M104,62h2v-7.2h-2V62z M108,62h2V52h-2V62z M114,53.5V52l-2,0v1.5H114z M112,62h2v-7.2h-2V62z
	 M118.4,60c-0.4,0.4-0.7,0.7-1.2,0.7c-0.4,0-0.7-0.3-0.7-0.8c0-0.8,0.9-1.4,1.8-1.8V60z M116.7,56.4c0-0.6,0.4-1,0.9-1
	c0.4,0,0.8,0.3,0.8,0.9v0.6c-1.9,0.7-3.4,1.4-3.4,3.2c0,1.2,0.6,1.8,1.5,1.8c0.8,0,1.4-0.4,1.8-0.9c0,0.3,0.1,0.6,0.1,0.8h1.5
	c0-0.2-0.1-0.4-0.1-0.6v-4.9c0-1.4-0.6-2.3-2.3-2.3c-1.2,0-2.4,0.7-2.5,2.4H116.7z M123,62v-5.4c0-0.4,0.3-0.9,1-0.9
	c0.3,0,0.7,0.1,1.1,0.2v-2c-1,0-1.6,0.4-2,1.2h0v-1H121V62H123z M128,53.5V52l-2,0v1.5H128z M126,62h2v-7.2h-2V62z M133.4,60
	c-0.4,0.4-0.7,0.7-1.2,0.7c-0.4,0-0.7-0.3-0.7-0.8c0-0.8,0.9-1.4,1.8-1.8V60z M131.7,56.4c0-0.6,0.4-1,0.9-1c0.4,0,0.8,0.3,0.8,0.9
	v0.6c-1.9,0.7-3.4,1.4-3.4,3.2c0,1.2,0.6,1.8,1.5,1.8c0.8,0,1.4-0.4,1.8-0.9c0,0.3,0.1,0.6,0.1,0.8h1.5c0-0.2-0.1-0.4-0.1-0.6v-4.9
	c0-1.4-0.6-2.3-2.3-2.3c-1.2,0-2.4,0.7-2.5,2.4H131.7z M7,3l7,12H0L7,3z"/>
</svg>
