<?xml version="1.0" encoding="utf-8"?>
<!-- Generator: Adobe Illustrator 24.1.2, SVG Export Plug-In . SVG Version: 6.00 Build 0)  -->
<svg version="1.1" id="Layer_1" xmlns="http://www.w3.org/2000/svg" xmlns:xlink="http://www.w3.org/1999/xlink" x="0px" y="0px"
	 viewBox="0 0 299 112" style="enable-background:new 0 0 299 112;" xml:space="preserve">
<style type="text/css">
	.hazelst0{fill:#5EC1E9;}
	.hazelst1{fill:#6C6E7E;}
</style>
<g>
	<path class="hazelst0" d="M0,61V35h0.1C1.1,15.5,16.8,0,36,0c19.2,0,34.9,15.5,35.9,35H72v3c19.9,0,36,16.6,36,37s-16.1,37-36,37H49V88
		h23.5C80,88,86,82,86,74.5C86,67,80,61,72.5,61H49V37.5C49,30,43,24,35.5,24C28,24,22,30,22,37.5V61H0L0,61z M0,88h22v24H0V88L0,88
		z"/>
	<path class="hazelst1" d="M167.8,84.8c0-1.8-0.1-3.3-0.4-4.8c-0.3-1.4-0.8-2.6-1.4-3.7c-0.7-1-1.6-1.8-2.7-2.4c-1.2-0.6-2.6-0.9-4.3-0.9
		c-1.3,0-2.5,0.3-3.7,0.8c-1.2,0.5-2.3,1.3-3.2,2.4c-0.9,1.1-1.7,2.4-2.3,4c-0.6,1.6-0.8,3.6-0.8,5.8V101c0,0.6-0.1,1-0.3,1.4
		c-0.2,0.4-0.4,0.6-0.6,0.8c-0.2,0.2-0.5,0.3-0.8,0.4s-0.5,0.1-0.7,0.1s-0.4,0-0.7-0.1c-0.3-0.1-0.5-0.2-0.8-0.4
		c-0.2-0.2-0.4-0.4-0.6-0.8c-0.2-0.4-0.3-0.8-0.3-1.4V51.6c0-0.6,0.1-1,0.3-1.4c0.2-0.4,0.4-0.6,0.6-0.8c0.2-0.2,0.5-0.3,0.8-0.4
		c0.3-0.1,0.5-0.1,0.7-0.1s0.4,0,0.7,0.1c0.3,0.1,0.5,0.2,0.8,0.4c0.2,0.2,0.4,0.4,0.6,0.8c0.2,0.4,0.3,0.8,0.3,1.4v23.8h0.1
		c0.9-1.9,2.4-3.5,4.4-4.6c2.1-1.1,4.3-1.7,6.6-1.7c4.2,0,7.3,1.3,9.4,3.8c2.1,2.5,3.1,5.8,3.1,9.9V101c0,0.6-0.1,1-0.3,1.4
		c-0.2,0.4-0.4,0.6-0.6,0.8c-0.2,0.2-0.5,0.3-0.8,0.4c-0.3,0.1-0.5,0.1-0.7,0.1c-0.2,0-0.4,0-0.7-0.1s-0.5-0.2-0.8-0.4
		c-0.2-0.2-0.4-0.4-0.6-0.8c-0.2-0.4-0.3-0.8-0.3-1.4V84.8L167.8,84.8z M204.3,86.5c-2,0-4,0.1-6,0.2c-2,0.2-3.8,0.5-5.4,1
		c-1.6,0.5-2.9,1.2-4,2.2c-1,0.9-1.6,2.2-1.6,3.8c0,1.2,0.2,2.2,0.7,3c0.4,0.8,1,1.5,1.8,2c0.8,0.5,1.6,0.9,2.5,1.1
		c0.9,0.2,1.8,0.3,2.8,0.3c1.7,0,3.2-0.3,4.5-0.9c1.3-0.6,2.4-1.4,3.3-2.4c0.9-1,1.6-2.2,2-3.5s0.7-2.7,0.7-4.2v-2.5H204.3
		L204.3,86.5z M210.3,95.7c0,0.9,0,1.7,0,2.4c0,0.6,0.1,1.3,0.2,2c0,0.3,0.1,0.5,0.1,0.8s0,0.4,0,0.6c0,0.8-0.2,1.3-0.6,1.7
		c-0.4,0.4-0.9,0.6-1.5,0.6c-0.4,0-0.8-0.1-1.3-0.4c-0.5-0.3-0.8-0.9-1-2c-0.1-1.1-0.2-2.3-0.2-3.5h-0.1c-1.5,2.2-3.2,3.8-5.1,4.8
		c-1.9,1-4.2,1.5-6.9,1.5c-1.3,0-2.6-0.2-3.9-0.5c-1.3-0.4-2.6-0.9-3.7-1.7c-1.1-0.8-2-1.8-2.7-3.1c-0.7-1.3-1.1-2.8-1.1-4.7
		c0-2.6,0.6-4.6,1.9-6.1c1.3-1.5,3-2.6,5.2-3.3c2.2-0.7,4.6-1.2,7.4-1.4c2.8-0.2,5.7-0.3,8.7-0.3v-1.1c0-2.9-0.8-5-2.3-6.5
		c-1.5-1.4-3.7-2.1-6.6-2.1c-3.1,0-5.9,0.9-8.5,2.8c-0.7,0.4-1.2,0.6-1.7,0.6c-0.5,0-1-0.2-1.3-0.5c-0.4-0.4-0.6-0.8-0.6-1.5
		c0-0.6,0.3-1.2,0.9-1.8c1.2-1.1,2.8-2,4.9-2.7c2-0.7,4.3-1,6.8-1c1.8,0,3.5,0.2,5,0.7c1.6,0.5,2.9,1.2,4.1,2.2
		c1.2,1,2.1,2.2,2.7,3.8c0.7,1.5,1,3.3,1,5.3V95.7L210.3,95.7z M220.2,103.1c-1,0-1.6-0.3-1.9-0.8c-0.3-0.5-0.4-1-0.4-1.3
		c0-0.3,0.1-0.6,0.2-1c0.1-0.4,0.4-0.8,0.8-1.3L238.5,74h-17.3c-0.9,0-1.6-0.2-1.8-0.7s-0.4-0.9-0.4-1.3c0-0.3,0.1-0.7,0.4-1.2
		c0.3-0.5,0.9-0.7,1.8-0.7h21.6c1,0,1.6,0.3,1.9,0.8c0.3,0.5,0.4,1,0.4,1.3c0,0.3-0.1,0.6-0.2,1c-0.1,0.4-0.4,0.8-0.8,1.3L224.5,99
		h18.9c1,0,1.7,0.3,1.9,0.8s0.4,1,0.4,1.2c0,0.3-0.1,0.8-0.4,1.3c-0.3,0.5-0.9,0.8-1.9,0.8H220.2L220.2,103.1z M256.4,87.8
		c0,1.7,0.4,3.2,1,4.7c0.6,1.5,1.5,2.7,2.5,3.8c1.1,1.1,2.3,2,3.8,2.6c1.5,0.6,3,1,4.7,1c2.3,0,4.2-0.4,5.8-1.3
		c1.6-0.9,2.8-1.9,3.7-3c0.6-0.6,1.2-0.9,1.8-0.9c0.6,0,1.1,0.2,1.5,0.6c0.4,0.4,0.7,0.9,0.7,1.6c0,0.2,0,0.5-0.1,0.8
		s-0.3,0.6-0.6,0.9c-1.6,1.8-3.6,3.2-5.7,4.2c-2.2,0.9-4.5,1.4-7.1,1.4c-2.4,0-4.7-0.4-6.8-1.3c-2.1-0.9-3.9-2.1-5.4-3.7
		c-1.5-1.6-2.7-3.4-3.6-5.5c-0.9-2.1-1.3-4.4-1.3-7c0-2.5,0.4-4.8,1.3-7c0.8-2.1,2-4,3.5-5.5c1.5-1.6,3.3-2.8,5.3-3.7
		c2-0.9,4.2-1.3,6.6-1.3c2.4,0,4.6,0.4,6.5,1.2c1.9,0.8,3.6,1.9,5,3.3c1.4,1.4,2.5,3.1,3.2,5.1c0.8,2,1.1,4.2,1.1,6.7
		c0,1.7-0.9,2.5-2.6,2.5H256.4L256.4,87.8z M278.9,84c-0.1-3.1-1.1-5.7-3-7.8c-1.9-2.1-4.5-3.1-7.9-3.1c-1.6,0-3.1,0.3-4.4,0.9
		c-1.4,0.6-2.6,1.4-3.6,2.4c-1,1-1.9,2.2-2.5,3.5c-0.6,1.3-1,2.7-1.1,4.1H278.9L278.9,84z M294.2,51.6c0-0.6,0.1-1,0.3-1.4
		c0.2-0.4,0.4-0.6,0.6-0.8c0.2-0.2,0.5-0.3,0.8-0.4c0.3-0.1,0.5-0.1,0.7-0.1c0.2,0,0.4,0,0.7,0.1c0.3,0.1,0.5,0.2,0.8,0.4
		c0.2,0.2,0.4,0.4,0.6,0.8c0.2,0.4,0.3,0.8,0.3,1.4V101c0,0.6-0.1,1-0.3,1.4c-0.2,0.4-0.4,0.6-0.6,0.8c-0.2,0.2-0.5,0.3-0.8,0.4
		s-0.5,0.1-0.7,0.1c-0.2,0-0.4,0-0.7-0.1c-0.3-0.1-0.5-0.2-0.8-0.4c-0.2-0.2-0.4-0.4-0.6-0.8c-0.2-0.4-0.3-0.8-0.3-1.4V51.6
		L294.2,51.6z"/>
</g>
</svg>
