<?xml version="1.0" encoding="utf-8"?>
<!-- Generator: Adobe Illustrator 24.1.0, SVG Export Plug-In . SVG Version: 6.00 Build 0)  -->
<svg version="1.1" id="Layer_1" xmlns="http://www.w3.org/2000/svg" xmlns:xlink="http://www.w3.org/1999/xlink" x="0px" y="0px"
	 viewBox="0 0 500 147.1" style="enable-background:new 0 0 500 147.1;" xml:space="preserve">
<style type="text/css">
	.st0{fill:#425EA7;}
	.st1{fill:#08090A;}
	.st2{fill:#C8DAF0;}
	.st3{fill:#7ECCE4;}
	.st4{fill:#31BDEC;}
</style>
<g>
	<path class="st0" d="M94.6,117.8c12.8-13.6,19.3-29.1,18.8-47.2c-0.5-18.1-7.9-33.3-21.3-46c1.7-0.3,3-0.5,4.4-0.7
		c10.7-0.9,21.1,0.6,30.9,5c0.9,0.4,1.7,1,2.4,1.7c12.4,13.6,18,29.6,16.3,47.9c-0.5,5.8-2.6,11.5-4,17.2c-0.2,0.9-1,1.7-1.7,2.4
		c-12,12.5-26.6,19.1-43.9,19.7C96.1,117.8,95.7,117.8,94.6,117.8z"/>
	<path class="st1" d="M202.4,18.1c5.5,0,10.8,0,16.2,0c0,15.6,0,31,0,46.7c5.6,0,11,0,16.6,0c0-15.5,0-31,0-46.6
		c5.5,0,10.9,0,16.4,0c0,36.6,0,73.3,0,110c-5.4,0-10.8,0-16.3,0c0-15.6,0-31.1,0-46.7c-5.5,0-10.9,0-16.4,0c0,15.5,0,30.9,0,46.6
		c-5.5,0-10.9,0-16.4,0C202.4,91.6,202.4,54.9,202.4,18.1z M268.9,19.6c0,30.6,0,61.2,0,91.9c0,9.7,7.1,16.8,16.9,16.9
		c5,0,10,0,15,0c10.8,0,17.7-6.9,17.7-17.7c0-30,0-60,0-90c0-0.8,0-1.6,0-2.5c-5.6,0-11,0-16.6,0c0,3.1,0,6,0,9
		c0,26.7,0,53.5,0,80.2c0,3.5-1,4.5-4.4,4.5c-2.4,0-4.7,0-7.1,0c-4.2,0-5.1-0.9-5.1-5.1c0-28.7,0-57.4,0-86.2c0-0.8,0-1.6,0-2.5
		c-5.6,0-10.8,0-16.4,0C268.9,18.7,268.9,19.2,268.9,19.6z M350.7,18.1c-1,0-2.1,0.3-3.1,0.6c-7.4,2.1-11.9,8.5-11.9,16.9
		c0,25.1,0,50.1,0,75.2c0,0.6,0,1.2,0.1,1.8c0.7,9.3,7.5,15.6,16.8,15.7c5.1,0,10.2,0,15.3,0c10.5,0,17.4-6.9,17.4-17.5
		c0-14.7,0-29.3,0-44c0-0.6,0-1.2,0-1.8c-5.6,0-11,0-16.5,0c0,14.3,0,28.4,0,42.6c0,3-1.1,4.1-4.1,4.1c-2.7,0-5.5,0-8.2,0
		c-3.1,0-4.2-1.1-4.2-4.3c0-22.9,0-45.9,0-68.8c0-3.1,1.1-4.3,4.2-4.3c6,0,12,0,18,0c2.2,0,4.4,0,6.6,0c0-5.6,0-10.9,0-16.4
		C370.7,18.1,360.7,18.1,350.7,18.1z M416.9,34.4c8.2,0,16.4,0,24.6,0c0-5.6,0-10.9,0-16.3c-13.7,0-27.3,0-41,0
		c0,36.8,0,73.4,0,110.1c13.7,0,27.3,0,41,0c0-5.5,0-10.8,0-16.4c-8.2,0-16.3,0-24.6,0c0-10.2,0-20.2,0-30.5c8.3,0,16.4,0,24.6,0
		c0-5.6,0-10.9,0-16.4c-8.3,0-16.4,0-24.6,0C416.9,54.7,416.9,44.7,416.9,34.4z M475.3,18.1c-5.6,0-10.9,0-16.3,0
		c0,36.8,0,73.4,0,110c13.8,0,27.4,0,41,0c0-5.5,0-10.8,0-16.3c-8.2,0-16.3,0-24.7,0C475.3,80.5,475.3,49.3,475.3,18.1z"/>
	<path class="st2" d="M79.5,128.4c-5.8,5.8-12.6,9-19.2,12.2c-1.6,0.8-3.3,1.2-4.8,1.9c-2.4,1.2-4.7,0.8-7-0.1
		c-3.9-1.5-7.3-3.5-10-7c-7.1-9.2-11.4-19.5-14.1-30.6c-0.7-3-1.5-5.9-2.2-8.9c-0.1-0.3,0.1-0.7,0.4-1.4
		C36.4,114.2,55.1,125.7,79.5,128.4z"/>
	<path class="st3" d="M19.2,82.1c0,0-4.9-13.1-5.4-25.1s1.6-27.1,1.6-27.1s4.1-6.6,10.7-12.7S42.5,6,52.1,3.2c1-0.3,2.4-0.3,3.3,0.1
		c6.5,3.3,20.4,10.8,21.3,11.4C43.6,25.6,24.3,47.5,19.2,82.1z M103.5,140.8c15.1-6.8,26.9-17.1,34.3-32.1c-2.1,1.3-3.9,3-5.9,4.5
		c-13.7,9.9-28.8,15.6-46,15.2c-1.8,0-3.1,0.7-4.4,1.8c-2.9,2.5-6,4.9-9.2,6.9c-4.5,2.8-9.2,5.1-14,7.7
		C65.4,149.2,89.6,147,103.5,140.8z"/>
	<path class="st4" d="M121.2,16.8c-0.1,0.2-0.2,0.4-0.4,0.7c0,0-10.8-3.6-20.3-4.4c-9.3-0.8-19.6,0.7-19.6,0.7S61.7,2.9,59.2,1.8
		c5-1.9,20.5-3.2,36.7,1.3C108.5,6.5,119.2,15.5,121.2,16.8z M23.2,112.8c-3.2-9.9-3.5-18.9-3.7-23.5C11.2,71.6,9.9,59,10.8,48.7
		c0.4-5,1-10.1,1.5-15.1c-0.1-0.1-0.1-0.1-0.2-0.2c-0.3,0.3-0.7,0.6-0.9,1C6.8,41,3.9,48.2,2,55.8c-2.6,10.4-3,24.4,0.5,37.6
		c4.9,18.3,22.9,35.6,31.9,41.8l0.1-0.1C33.1,133.1,26.4,122.7,23.2,112.8z M12.3,33.1c-0.1,0.1-0.2,0.2-0.3,0.3
		c0.1,0.1,0.1,0.1,0.2,0.2C12.3,33.5,12.3,33.3,12.3,33.1z"/>
	<path class="st3" d="M34.5,135.2c0.1,0.1,0.1,0.2,0.2,0.2C34.6,135.4,34.5,135.3,34.5,135.2C34.4,135.3,34.5,135.2,34.5,135.2z"/>
</g>
</svg>
