<?xml version="1.0" encoding="utf-8"?>
<!-- Generator: Adobe Illustrator 24.1.2, SVG Export Plug-In . SVG Version: 6.00 Build 0)  -->
<svg version="1.1" id="Layer_1" xmlns="http://www.w3.org/2000/svg" xmlns:xlink="http://www.w3.org/1999/xlink" x="0px" y="0px"
	 viewBox="0 0 81.8 26.4" style="enable-background:new 0 0 81.8 26.4;" xml:space="preserve">
<style type="text/css">
	.jwdst0{fill:#0E357F;}
	.jwdst1{fill:#8DC21F;}
	.jwdst2{fill:#231815;}
</style>
<path class="jwdst0" d="M16.7,0c2.5,8.2-1,12.3-6,15.4c-5.2,3.2-8.9,5.8-8.7,8.9l-0.5,0.2C-3.9,6.8,6.4,3.1,16.7,0z M17.3,2
	C17.2,2,17.2,2,17.3,2c1.9,7.5-1.6,11.5-6.3,14.4c-4.6,2.8-8,5.2-8.6,7.8L3.1,24c1.2-2.2,4.2-4.2,8.1-6.6
	C16.2,14.3,19.7,10.2,17.3,2z"/>
<path class="jwdst1" d="M23.1,7.3c0,8.5-4.5,11.5-10.2,13c-5.9,1.6-10.2,3-10.9,6.1H1.4C1.4,7.9,12.4,7.3,23.1,7.3z M23.1,9.3
	C23.1,9.3,23,9.3,23.1,9.3c-0.4,7.7-4.8,10.5-10.2,12c-5.2,1.4-9.1,2.7-10.5,5h0.8c1.8-1.7,5.3-2.8,9.6-4
	C18.5,20.9,23.1,17.9,23.1,9.3z"/>
<path class="jwdst2" d="M38.7,20.2c-0.1,0.6,0.1,5.3-8.5,5.2c-8.5-0.1-7.3-7-7.3-7h3.7c0,2.4,0.4,3.8,1.1,4.2c0.7,0.5,1.9,0.8,4.8,0.5
	c2.8-0.4,2.7-3.5,2.7-3.5v-12h3.6C38.8,7.6,38.8,19.7,38.7,20.2z M45.8,25.4h3.1l2.9-13.1h0.4l2.8,13.1h3.2l3.6-17.7h-3.5l-1.8,11.2
	H56L53.7,7.6h-3.4L48,18.8h-0.4L45.8,7.6h-3.5L45.8,25.4z M81.8,16.6c0.1,9.1-10.3,8.6-10.3,8.6h-6.6V7.6c0,0,6,0.1,6.7,0.1
	C74.2,8,81.7,7.5,81.8,16.6z M78,16.6c0,0,0.9-6.9-6.4-6.9c-2.9,0-3,0-3,0v13.6h3C71.6,23.3,78.3,23.5,78,16.6z M27.8,1.6h-1.5
	c-0.5,0-0.7,0-0.7,0.2c0,0.2,0.2,0.2,0.3,0.3c0,0.1,0.1,0.4,0.1,1.1c0,0.8,0,1.3-0.1,1.3c-0.1,0.1-0.3,0.1-0.3,0.3
	C25.6,5,25.8,5,26.3,5c0,0,0,0,0.1,0h1.6c0.2,0,0.3,0.1,0.4,0.1c0.1,0,0.3-0.4,0.3-0.9c0-0.2-0.1-0.3-0.2-0.3
	c-0.2,0-0.2,0.3-0.3,0.5c-0.1,0.2-0.4,0.2-0.8,0.2c-0.3,0-0.4,0-0.5-0.2c0-0.1-0.1-0.3-0.1-0.7c0,0,0-0.1,0-0.1c0-0.2,0-0.2,0.2-0.2
	c0,0,0,0,0,0c0.3,0,0.4,0,0.5,0.2c0,0.2,0,0.3,0.2,0.3c0.2,0,0.2-0.2,0.2-0.7c0-0.5-0.1-0.7-0.2-0.7c-0.2,0-0.2,0.2-0.2,0.3
	C27.5,3,27.4,3,27,3c-0.3,0-0.3,0-0.3-0.2c0-0.4,0-0.7,0-0.7C26.8,2,27,2,27.3,2c0.3,0,0.5,0,0.7,0.1c0.1,0.1,0.2,0.3,0.3,0.3
	c0.1,0,0.2-0.1,0.2-0.2c0-0.4-0.1-0.6-0.3-0.6C28.2,1.6,28,1.6,27.8,1.6z M30.1,2.8c0-0.1,0-0.2-0.2-0.2c-0.2,0-0.5,0.1-0.8,0.2
	C29,2.9,29,2.9,29,3c0,0.2,0.2,0.1,0.3,0.2c0.1,0.1,0.1,0.3,0.1,0.7c0,0.4,0,0.6-0.1,0.7C29.2,4.7,29,4.7,29,4.8C29,5,29.2,5,29.7,5
	c0.5,0,0.7,0,0.7-0.2c0-0.2-0.2-0.2-0.2-0.2c0-0.1,0-0.2,0-0.5c0-0.6,0.1-0.9,0.5-0.9c0.4,0,0.4,0.3,0.4,0.9c0,0.3,0,0.5-0.1,0.5
	c-0.1,0.1-0.2,0.1-0.2,0.2C30.7,5,30.9,5,31.4,5C31.8,5,32,5,32,4.8c0-0.2-0.2-0.2-0.2-0.2c0,0,0-0.2,0-0.5c0-0.2,0-0.4,0-0.4
	c0-0.8-0.2-1.1-0.9-1.1c-0.3,0-0.5,0.1-0.6,0.3C30.2,2.9,30.2,3,30.1,3c0,0,0,0,0-0.1V2.8z M34.5,3.9c0.2,0,0.2-0.1,0.2-0.3
	c0-0.5-0.4-0.9-1.1-0.9c-0.7,0-1.3,0.5-1.3,1.3c0,0.7,0.5,1.2,1.2,1.2c0.3,0,0.6-0.1,0.8-0.3c0.1-0.1,0.2-0.2,0.2-0.3
	c0-0.1-0.1-0.1-0.2-0.1c-0.1,0-0.3,0.2-0.7,0.2c-0.4,0-0.6-0.3-0.6-0.6c0-0.1,0-0.1,0.1-0.1H34.5z M33.3,3.5
	C33.2,3.5,33.2,3.5,33.3,3.5C33.2,3.2,33.4,3,33.6,3C33.8,3,34,3.2,34,3.4c0,0.1,0,0.1-0.1,0.1H33.3z M35.5,4.1c0,0.3,0,0.5-0.1,0.5
	c-0.1,0.1-0.2,0.1-0.2,0.2C35.2,5,35.4,5,35.8,5c0.5,0,0.7,0,0.7-0.2c0-0.2-0.2-0.2-0.3-0.2c-0.1-0.1-0.1-0.2-0.1-0.5
	c0-0.5,0-0.8,0.2-0.8c0.1,0,0.2,0.2,0.4,0.2c0.2,0,0.4-0.2,0.4-0.4c0-0.3-0.2-0.4-0.4-0.4c-0.2,0-0.3,0.1-0.4,0.3
	C36.3,2.9,36.3,3,36.3,3c-0.1,0,0-0.1-0.1-0.3c0-0.1-0.1-0.1-0.2-0.1c-0.1,0-0.5,0.1-0.8,0.2c-0.1,0.1-0.2,0.1-0.2,0.2
	c0,0.2,0.2,0.1,0.3,0.2C35.4,3.3,35.5,3.6,35.5,4.1z M37.9,4.9c-0.2,0.1-0.3,0.2-0.3,0.4C37.6,5.7,38,6,38.7,6
	c0.8,0,1.4-0.4,1.4-0.9c0-0.3-0.2-0.5-0.7-0.5c-0.3,0-0.5,0.1-0.8,0.1c-0.3,0-0.4-0.1-0.4-0.2c0,0,0-0.1,0.1-0.1
	c0.1,0.1,0.3,0.1,0.5,0.1c0.7,0,1.1-0.4,1.1-1c0-0.1,0-0.2-0.1-0.4C39.9,2.9,40,2.8,40,2.7c0-0.1,0-0.2-0.1-0.2
	c-0.2,0.2-0.4,0.2-0.5,0.2c-0.1,0-0.3-0.1-0.6-0.1c-0.7,0-1.1,0.4-1.1,0.9c0,0.3,0.1,0.5,0.3,0.6c-0.2,0.1-0.4,0.2-0.4,0.4
	C37.6,4.7,37.7,4.9,37.9,4.9z M38.2,5.1c0.1,0,0.2,0,0.4,0c0.3,0,0.5,0,0.6,0c0.2,0,0.2,0.1,0.2,0.2c0,0.2-0.2,0.3-0.6,0.3
	c-0.4,0-0.6-0.2-0.6-0.4C38.2,5.1,38.2,5.1,38.2,5.1z M38.8,4c-0.2,0-0.4-0.2-0.4-0.6c0-0.3,0.2-0.4,0.4-0.4c0.2,0,0.4,0.2,0.4,0.6
	C39.1,3.8,39,4,38.8,4z M41.6,3.1c0-0.1,0.2-0.1,0.2-0.2c0-0.2-0.2-0.2-0.6-0.2c-0.5,0-0.7,0-0.7,0.2C40.4,3,40.5,3,40.6,3
	c0.1,0,0.1,0.1,0.2,0.2c0.1,0.1,0.3,0.5,0.5,1.2c0.1,0.2,0.2,0.4,0.2,0.7c0,0.3-0.1,0.4-0.3,0.4c-0.1,0-0.1-0.1-0.2-0.1
	c-0.1-0.1-0.2-0.1-0.3-0.1c-0.2,0-0.3,0.2-0.3,0.3C40.5,5.8,40.7,6,41,6c0.4,0,0.8-0.3,1-0.8c0.4-1,0.6-1.6,0.8-1.9
	C42.9,3.2,42.9,3.1,43,3c0.1-0.1,0.2-0.1,0.2-0.2c0-0.2-0.2-0.2-0.5-0.2c-0.4,0-0.5,0.1-0.5,0.2c0,0.1,0,0.1,0.1,0.2
	c0.1,0,0.1,0,0.1,0.1c0,0.1-0.1,0.3-0.3,0.8c0,0.1-0.1,0.1-0.1,0.1c0,0-0.1-0.2-0.3-0.5C41.7,3.3,41.6,3.1,41.6,3.1z M46.9,2.8h-0.3
	c0-0.4-0.3-0.6-0.3-0.8c0-0.1,0.1-0.2,0.2-0.2c0.1,0,0.2,0.1,0.2,0.2c0.1,0.2,0.2,0.3,0.3,0.3c0.2,0,0.3-0.1,0.3-0.3
	c0-0.3-0.3-0.5-0.7-0.5c-0.5,0-0.9,0.3-0.9,0.8c0,0.2,0,0.3,0,0.4c0,0.1,0,0.1-0.2,0.1c-0.1,0-0.2,0-0.2,0.1c0,0.2,0,0.2,0.1,0.2
	l0.1,0c0.1,0,0.1,0,0.1,0.1v0.5c0,0.5,0,0.7-0.1,0.8c-0.1,0.1-0.2,0.1-0.2,0.2C45.5,5,45.7,5,46.2,5c0.5,0,0.7-0.1,0.7-0.2
	c0-0.2-0.2-0.2-0.3-0.2c0-0.1-0.1-0.3-0.1-0.8V3.3c0-0.1,0-0.1,0.1-0.1h0.2c0.1,0,0.2,0,0.2-0.3C47,2.8,46.9,2.8,46.9,2.8z
	 M47.5,3.9c0,0.7,0.5,1.2,1.3,1.2c0.4,0,0.7-0.1,0.9-0.4C49.9,4.5,50,4.1,50,3.8c0-0.7-0.5-1.2-1.2-1.2c-0.4,0-0.7,0.1-0.9,0.4
	C47.6,3.2,47.5,3.5,47.5,3.9z M48.8,4.7c-0.3,0-0.5-0.4-0.5-1.1c0-0.4,0.1-0.6,0.3-0.6c0.3,0,0.6,0.5,0.6,1.1
	C49.2,4.5,49.1,4.7,48.8,4.7z M50.8,4.1c0,0.3,0,0.5-0.1,0.5c-0.1,0.1-0.2,0.1-0.2,0.2C50.5,5,50.8,5,51.2,5c0.5,0,0.7,0,0.7-0.2
	c0-0.2-0.2-0.2-0.3-0.2c-0.1-0.1-0.1-0.2-0.1-0.5c0-0.5,0-0.8,0.2-0.8c0.1,0,0.2,0.2,0.4,0.2c0.2,0,0.4-0.2,0.4-0.4
	c0-0.3-0.2-0.4-0.4-0.4c-0.2,0-0.3,0.1-0.4,0.3C51.7,2.9,51.7,3,51.6,3c-0.1,0,0-0.1-0.1-0.3c0-0.1-0.1-0.1-0.2-0.1
	c-0.2,0-0.5,0.1-0.8,0.2c-0.1,0.1-0.2,0.1-0.2,0.2c0,0.2,0.2,0.1,0.3,0.2C50.8,3.3,50.8,3.6,50.8,4.1z M57.5,1.6h-1.9
	c-0.2,0-0.3-0.1-0.4-0.1c-0.1,0-0.3,0.4-0.3,0.9c0,0.2,0.1,0.2,0.2,0.2c0.2,0,0.2-0.1,0.3-0.3C55.5,2.2,55.6,2,55.9,2
	c0.2,0,0.3,0,0.3,0.2c0,0,0,0.3,0,0.8c0,0.9,0,1.4-0.1,1.5c-0.1,0.1-0.3,0.1-0.3,0.3C55.8,5,56,5,56.6,5c0.5,0,0.8,0,0.8-0.2
	c0-0.1-0.1-0.2-0.2-0.2c-0.1,0-0.1-0.1-0.1-0.1C57,4.4,57,3.9,57,3.1c0-0.5,0-0.8,0-0.8C57,2.1,57.1,2,57.3,2c0.3,0,0.4,0.1,0.5,0.3
	c0.1,0.2,0.1,0.3,0.3,0.3c0.1,0,0.2-0.1,0.2-0.2c0-0.5-0.2-0.9-0.3-0.9C57.9,1.5,57.8,1.6,57.5,1.6z M58.4,3.9
	c0,0.7,0.5,1.2,1.3,1.2c0.4,0,0.7-0.1,0.9-0.4c0.2-0.2,0.4-0.6,0.4-0.9c0-0.7-0.5-1.2-1.2-1.2c-0.4,0-0.7,0.1-0.9,0.4
	C58.5,3.2,58.4,3.5,58.4,3.9z M59.7,4.7c-0.3,0-0.5-0.4-0.5-1.1c0-0.4,0.1-0.6,0.3-0.6c0.3,0,0.6,0.5,0.6,1.1
	C60.1,4.5,59.9,4.7,59.7,4.7z M62.5,2.8c0-0.1,0-0.2-0.2-0.2c-0.2,0-0.5,0.1-0.8,0.2c-0.1,0.1-0.2,0.1-0.2,0.2
	c0,0.2,0.2,0.1,0.3,0.2c0.1,0.1,0.1,0.3,0.1,0.7c0,0.4,0,0.6-0.1,0.7c-0.1,0.1-0.2,0.1-0.2,0.2C61.5,5,61.7,5,62.2,5
	c0.5,0,0.7,0,0.7-0.2c0-0.2-0.2-0.2-0.2-0.2c0-0.1,0-0.2,0-0.6c0-0.6,0.1-0.8,0.4-0.8c0.3,0,0.4,0.3,0.4,0.9c0,0.3,0,0.5-0.1,0.5
	C63.2,4.7,63,4.7,63,4.8C63,5,63.2,5,63.7,5s0.7,0,0.7-0.2c0-0.2-0.2-0.2-0.2-0.2c0-0.1,0-0.3,0-0.6c0-0.5,0.1-0.8,0.4-0.8
	c0.3,0,0.4,0.3,0.4,0.9c0,0.3,0,0.5-0.1,0.5c-0.1,0.1-0.2,0.1-0.2,0.2C64.6,5,64.8,5,65.3,5c0.5,0,0.7,0,0.7-0.2
	c0-0.2-0.2-0.2-0.2-0.2c0-0.1,0-0.2,0-0.5c0-0.1,0-0.2,0-0.4c0-0.4,0-0.7-0.2-0.9c-0.1-0.2-0.4-0.3-0.6-0.3c-0.2,0-0.5,0.1-0.7,0.3
	C64.1,2.9,64.1,3,64,3c0,0-0.1-0.1-0.2-0.2c-0.2-0.2-0.4-0.2-0.6-0.2c-0.2,0-0.4,0.1-0.5,0.2C62.7,2.9,62.6,3,62.6,3c0,0,0,0,0-0.1
	V2.8z M66.3,3.9c0,0.7,0.5,1.2,1.2,1.2c0.4,0,0.7-0.1,0.9-0.4c0.2-0.2,0.4-0.6,0.4-0.9c0-0.7-0.5-1.2-1.2-1.2
	c-0.4,0-0.7,0.1-0.9,0.4C66.5,3.2,66.3,3.5,66.3,3.9z M67.7,4.7c-0.3,0-0.5-0.4-0.5-1.1c0-0.4,0.1-0.6,0.3-0.6C67.8,3,68,3.4,68,4.1
	C68,4.5,67.9,4.7,67.7,4.7z M69.8,4.1c0,0.3,0,0.5-0.1,0.5c-0.1,0.1-0.2,0.1-0.2,0.2C69.5,5,69.7,5,70.2,5c0.5,0,0.7,0,0.7-0.2
	c0-0.2-0.2-0.2-0.3-0.2c-0.1-0.1-0.1-0.2-0.1-0.5c0-0.5,0-0.8,0.2-0.8c0.1,0,0.2,0.2,0.4,0.2c0.2,0,0.4-0.2,0.4-0.4
	c0-0.3-0.2-0.4-0.4-0.4c-0.2,0-0.3,0.1-0.4,0.3C70.6,2.9,70.6,3,70.6,3c-0.1,0,0-0.1-0.1-0.3c0-0.1-0.1-0.1-0.2-0.1
	c-0.1,0-0.5,0.1-0.8,0.2c-0.1,0.1-0.2,0.1-0.2,0.2c0,0.2,0.2,0.1,0.3,0.2C69.7,3.3,69.8,3.6,69.8,4.1z M72.3,4.1
	c0,0.3,0,0.5-0.1,0.5c-0.1,0.1-0.2,0.1-0.2,0.2C72.1,5,72.3,5,72.7,5c0.5,0,0.7,0,0.7-0.2c0-0.2-0.2-0.2-0.3-0.2
	c-0.1-0.1-0.1-0.2-0.1-0.5c0-0.5,0-0.8,0.2-0.8c0.1,0,0.2,0.2,0.4,0.2c0.2,0,0.4-0.2,0.4-0.4c0-0.3-0.2-0.4-0.4-0.4
	c-0.2,0-0.3,0.1-0.4,0.3C73.2,2.9,73.2,3,73.2,3c-0.1,0,0-0.1-0.1-0.3c0-0.1-0.1-0.1-0.2-0.1c-0.2,0-0.5,0.1-0.8,0.2
	C72,2.9,72,2.9,72,3c0,0.2,0.2,0.1,0.3,0.2C72.3,3.3,72.3,3.6,72.3,4.1z M74.5,3.9c0,0.7,0.5,1.2,1.3,1.2c0.4,0,0.7-0.1,0.9-0.4
	C76.9,4.5,77,4.1,77,3.8c0-0.7-0.5-1.2-1.2-1.2c-0.4,0-0.7,0.1-0.9,0.4C74.6,3.2,74.5,3.5,74.5,3.9z M75.9,4.7
	c-0.3,0-0.5-0.4-0.5-1.1c0-0.4,0.1-0.6,0.3-0.6c0.3,0,0.6,0.5,0.6,1.1C76.2,4.5,76.1,4.7,75.9,4.7z M79.5,3.7
	c0.4,0.9,0.6,1.3,0.8,1.3c0.2,0,0.4-0.6,1-1.7c0.1-0.2,0.1-0.3,0.3-0.4c0.1-0.1,0.2-0.1,0.2-0.2c0-0.1-0.2-0.2-0.5-0.2
	c-0.4,0-0.5,0.1-0.5,0.2c0,0.2,0.2,0.2,0.2,0.3c0,0.1-0.1,0.3-0.3,0.7c-0.1,0.2-0.1,0.3-0.2,0.3c0,0-0.1-0.2-0.3-0.5
	C80.1,3.3,80,3.1,80,3.1C80,3,80.2,3,80.2,2.8c0-0.2-0.2-0.2-0.6-0.2c-0.5,0-0.7,0-0.7,0.2C78.9,3,79,3,79.1,3
	c0.1,0,0.1,0.1,0.2,0.3c-0.2,0.5-0.3,0.8-0.4,0.8c0,0-0.1-0.2-0.3-0.5c-0.1-0.3-0.2-0.4-0.2-0.5c0-0.1,0.2-0.1,0.2-0.2
	c0-0.2-0.2-0.2-0.6-0.2c-0.5,0-0.7,0-0.7,0.2C77.4,3,77.4,3,77.6,3c0.1,0.1,0.2,0.1,0.2,0.3c0.5,1.1,0.7,1.7,0.9,1.7
	C78.9,5.1,79.1,4.6,79.5,3.7z"/>
</svg>
