<?xml version="1.0" encoding="utf-8"?>
<!-- Generator: Adobe Illustrator 24.1.2, SVG Export Plug-In . SVG Version: 6.00 Build 0)  -->
<svg version="1.1" id="Layer_1" xmlns="http://www.w3.org/2000/svg" xmlns:xlink="http://www.w3.org/1999/xlink" x="0px" y="0px"
	 viewBox="0 0 122.3 55.7" style="enable-background:new 0 0 122.3 55.7;" xml:space="preserve">
<style type="text/css">
	.mkmbsst0{fill:#FFD600;}
	.mkmbsst1{fill:none;}
	.mkmbsst2{fill:#004899;}
	.mkmbsst3{fill:#FFFFFF;}
</style>
<rect x="1.5" y="1.5" class="mkmbsst0" width="119.3" height="52.7"/>
<rect class="mkmbsst1" width="122.3" height="55.5"/>
<path class="mkmbsst2" d="M0,0v55.7h122.3V0H0z M120.8,54.2H97L83.4,37.7h6.9V21.4l6.5,10.9l6.5-10.9v16.1h13.1V5.4h-13.8l-5.8,11.3
	L91,5.4h-9.5l0.2-0.2H65.4l-6.9,11.6V5.1H44.2v0.2h-13l-5.8,11.3L19.6,5.4H5.8v32.1h13.1V21.4l6.5,10.9l6.5-10.9v16.3h12.4v0.2h14.2
	l0.1-11.6l21.3,27.9H1.5V1.5h119.3V54.2z M77.2,11.1v19l-7.4-9L77.2,11.1z"/>
<polygon class="mkmbsst3" points="45,5.9 57.7,5.9 57.8,19.4 65.9,5.9 80.1,5.9 68.9,21.1 96.2,54.6 81,54.6 57.8,24.2 57.7,37.2 
	45,37.2 "/>
<path class="mkmbsst2" d="M12.7,45.5v-1.1h0.2c0.4,0,0.9,0,0.9,0.5s-0.4,0.6-0.8,0.6H12.7z M10.2,50.2h3.6c1.3,0,2.7-0.5,2.7-2.1
	c0-0.9-0.5-1.5-1.3-1.8v-0.1c0.6-0.2,1-0.9,1-1.5c0-1.8-1.4-2.1-2.8-2.1h-3.1v7.6H10.2z M12.7,47.1H13c0.4,0,1.1,0,1.1,0.6
	s-0.6,0.6-1.1,0.6h-0.3V47.1z M21,42.5v4.3c0,0.6,0,1.1-0.7,1.1s-0.7-0.5-0.7-1.1v-4.3H17V47c0,2.2,1.3,3.2,3.4,3.2s3.4-1,3.4-3.2
	v-4.5H21z M24.5,50.2h2.6v-7.6h-2.6V50.2z M28.1,50.2H33v-2.5h-2.2v-5.2h-2.6L28.1,50.2L28.1,50.2z M35.9,44.9h0.2
	c1,0,1.6,0.5,1.6,1.5s-0.7,1.4-1.6,1.4h-0.2V44.9z M33.3,50.2h3.3c2.1,0,3.7-1.4,3.7-3.7c0-2.8-1.9-3.9-4.3-3.9h-2.7V50.2z
	 M40.9,50.2h2.6v-7.6h-2.6V50.2z M44.4,50.2H47v-2.5c0-0.5-0.1-1-0.2-1.5h0.1l2.3,4h2.5v-7.6h-2.5v2.3c0,0.6,0.1,1.3,0.2,1.9h-0.1
	L47,42.5h-2.5L44.4,50.2L44.4,50.2z M56.1,45.7v1.8h1.2c-0.1,0.5-0.7,0.7-1.1,0.7c-0.9,0-1.4-0.8-1.4-1.6c0-0.9,0.5-1.8,1.5-1.8
	c0.4,0,0.8,0.2,1,0.6l2.5-1c-0.6-1.3-2.3-2-3.6-2c-2.3,0-4,1.5-4,4s1.8,3.9,4,3.9c1.1,0,2.3-0.5,3.1-1.4c0.9-1,0.9-2,0.9-3.3
	L56.1,45.7L56.1,45.7z M64.1,49.6c0.8,0.4,1.9,0.7,2.8,0.7c1.6,0,3.2-0.9,3.2-2.7c0-1.3-0.8-1.9-1.9-2.2l-0.6-0.1
	c-0.2-0.1-0.5-0.1-0.5-0.4c0-0.3,0.3-0.4,0.6-0.4c0.6,0,1.1,0.3,1.5,0.6l0.7-2c-0.7-0.5-1.5-0.7-2.3-0.7c-1.6,0-3.2,1-3.2,2.8
	c0,1.2,0.9,1.8,1.9,2l0.5,0.1c0.2,0.1,0.6,0.1,0.6,0.4c0,0.3-0.4,0.5-0.7,0.5c-0.6,0-1.2-0.3-1.6-0.7L65,47.4L64.1,49.6z M74.6,42.5
	v4.3c0,0.6,0,1.1-0.7,1.1s-0.7-0.5-0.7-1.1v-4.3h-2.6V47c0,2.2,1.3,3.2,3.4,3.2c2,0,3.4-1,3.4-3.2v-4.5H74.6z M80.6,44.6h0.3
	c0.4,0,1,0,1,0.6s-0.5,0.7-1,0.7h-0.3V44.6z M78,50.2h2.5v-2.3h1.4c1.5,0,2.4-1,2.4-2.5c0-1.9-1.3-2.8-3-2.8H78V50.2z M87.2,44.6
	h0.3c0.4,0,1,0,1,0.6s-0.5,0.7-1,0.7h-0.3V44.6z M84.7,50.2h2.5v-2.3h1.4c1.5,0,2.4-1,2.4-2.5c0-1.9-1.3-2.8-3-2.8h-3.3V50.2z
	 M91.4,50.2h4.9v-2.5H94v-5.2h-2.6V50.2z M96.6,50.2h2.6v-7.6h-2.6V50.2z M100.1,50.2h5v-2.1h-2.3v-0.7h2v-2h-2v-0.7h2.2v-2.1h-4.9
	C100.1,42.6,100.1,50.2,100.1,50.2z M105.5,49.6c0.8,0.4,1.9,0.7,2.8,0.7c1.6,0,3.2-0.9,3.2-2.7c0-1.3-0.8-1.9-1.9-2.2l-0.6-0.1
	c-0.2-0.1-0.5-0.1-0.5-0.4c0-0.3,0.3-0.4,0.6-0.4c0.6,0,1.1,0.3,1.5,0.6l0.7-2c-0.7-0.5-1.5-0.7-2.3-0.7c-1.6,0-3.2,1-3.2,2.8
	c0,1.2,0.9,1.8,1.9,2l0.5,0.1c0.2,0.1,0.6,0.1,0.6,0.4c0,0.3-0.4,0.5-0.7,0.5c-0.6,0-1.2-0.3-1.6-0.7l-0.1-0.1L105.5,49.6z"/>
</svg>
