<?xml version="1.0" encoding="utf-8"?>
<!-- Generator: Adobe Illustrator 24.1.2, SVG Export Plug-In . SVG Version: 6.00 Build 0)  -->
<svg version="1.1" id="Layer_1" xmlns="http://www.w3.org/2000/svg" xmlns:xlink="http://www.w3.org/1999/xlink" x="0px" y="0px"
	 viewBox="0 0 97.8 28.6" style="enable-background:new 0 0 97.8 28.6;" xml:space="preserve">
<style type="text/css">
	.netsst0{fill:#005776;}
	.netsst1{fill:#00BEF0;}
</style>
<path class="netsst0" d="M0.5,28.2C0.2,28.2,0,28,0,27.7v-19c0-0.2,0.1-0.5,0.3-0.6c2.3-1,5-1.6,7.9-1.6c5.5,0,9.2,2.6,9.2,8.9v12.4
	c0,0.3-0.2,0.5-0.5,0.5h-2.4c-0.3,0-0.5-0.2-0.5-0.5V15.4c0-4.3-2.2-5.9-5.9-5.9c-1.7,0-3.6,0.3-4.8,0.7v17.4c0,0.3-0.2,0.5-0.5,0.5
	L0.5,28.2L0.5,28.2z M39.4,18.7c0,0.3-0.2,0.5-0.5,0.5H25.6v1.7c0,3.1,2.3,4.7,5.3,4.7c2.8,0,4.8-1.1,6.3-2.3
	c0.2-0.2,0.5-0.1,0.7,0.1L39,25c0.2,0.2,0.2,0.5-0.1,0.7c-2.1,1.7-4.7,3-8.1,3c-4.4,0-8.7-2.5-8.7-7.7v-6.2c0-5.6,4.2-8.2,8.7-8.2
	c4.5,0,8.6,2.5,8.6,8.2C39.4,14.7,39.4,18.7,39.4,18.7z M30.9,9.5c-3.1,0-5.3,1.6-5.3,5.1v1.7h10.6v-1.7
	C36.2,11.2,33.9,9.5,30.9,9.5z M51.3,25.5c0.5,0,1.2,0,2-0.1c0.3,0,0.5,0.2,0.5,0.5V28c0,0.2-0.1,0.5-0.4,0.5
	c-0.7,0-1.7,0.1-2.2,0.1c-4.1,0-7.1-2.2-7.1-7.3V2.2c0-0.3,0.2-0.5,0.5-0.5h2.1c0.2,0,0.4,0.2,0.5,0.5l0.3,5h5.3
	c0.3,0,0.5,0.2,0.5,0.5v2.1c0,0.3-0.2,0.5-0.5,0.5h-5.3v11C47.4,23.9,48.8,25.5,51.3,25.5z M64.3,28.6c-2.8,0-5.7-0.8-8.1-2.6
	c-0.2-0.2-0.2-0.4-0.1-0.7l1.1-1.9c0.2-0.3,0.4-0.3,0.7-0.1c2,1.5,4.2,2.3,6.6,2.3c2.7,0,4.8-1.1,4.8-3.3c0-2.3-2.5-2.8-4.8-3.3
	c-3-0.6-8-1.8-8-6.5c0-4.2,4-6,8.1-6c2.6,0,4.9,0.7,7.1,1.9c0.3,0.1,0.3,0.4,0.2,0.6l-1.1,1.8c-0.1,0.2-0.4,0.3-0.6,0.2
	c-1.7-0.9-3.7-1.5-5.7-1.5c-2.9,0-4.6,1.1-4.6,3c0,2.3,2.4,2.9,5.3,3.4c3.3,0.7,7.6,1.6,7.6,6.2C72.6,26.3,69.1,28.6,64.3,28.6z"/>
<path class="netsst1" d="M83.5,0c2.6,0,4.8,2.1,4.8,4.8s-2.1,4.8-4.8,4.8c-2.6,0-4.8-2.1-4.8-4.8S80.8,0,83.5,0z M93.6,1.7
	c1.7,0,3.1,1.4,3.1,3.1s-1.4,3.1-3.1,3.1s-3.1-1.4-3.1-3.1S91.9,1.7,93.6,1.7z M93.6,10.7c2.3,0,4.2,1.9,4.2,4.2s-1.9,4.2-4.2,4.2
	s-4.2-1.9-4.2-4.2S91.3,10.7,93.6,10.7z M83.5,21.4c2,0,3.6,1.6,3.6,3.6s-1.6,3.6-3.6,3.6c-2,0-3.6-1.6-3.6-3.6S81.5,21.4,83.5,21.4
	z"/>
</svg>
