<?xml version="1.0" encoding="utf-8"?>
<svg version="1.1" id="Layer_1" xmlns="http://www.w3.org/2000/svg" xmlns:xlink="http://www.w3.org/1999/xlink" x="0px" y="0px"
	 viewBox="0 0 198.4 58.4" style="enable-background:new 0 0 198.4 58.4;" xml:space="preserve">
<style type="text/css">
	.onlyaboutchildrenst0{fill:#03AD96;}
</style>
<path class="onlyaboutchildrenst0" d="M44.7,8.8c-0.2,0-0.4-0.2-0.4-0.4s0.2-0.4,0.4-0.4c0.2,0,0.4,0.2,0.4,0.4S44.9,8.8,44.7,8.8 M45.6,8.9
	c-0.1-0.1,0-0.2,0-0.5c0.1-0.7-0.7-1.2-1.3-1.3C43.1,7,42.6,7.9,42,8.7c0.1-0.3,0.2-0.7,0.1-1.1C42,7.2,41.8,7,41.5,7.1
	C41.2,7.3,41,7.8,41,8.3c-0.3-0.2-1.5-0.4-1.4,0.3c0.1,0.7,1.3,0.9,1.8,0.8l-0.1,0.1c-0.7,0.5-2.3,0-1.9,0.5
	c0.4,0.5,0.4,0.9,1.2,1.3c0.4,0.2,0.6,0.2,1,0.3l-0.3,0.6c-0.1,0.2-0.1,0.4-0.1,0.4c0,0,0.2,0.2,0.4-0.1l0.5-0.8l0.2,0l-0.2,0.7
	c0,0-0.1,0.3,0,0.3c0,0,0.3,0.1,0.3-0.2l0.3-1l0.1,0c0.8-0.2,1.4-0.8,1.9-1.5c0.2-0.3,0.2-0.5,0.5-0.5c0.2,0,0.3,0,0.5,0
	C46.2,9.4,45.7,9,45.6,8.9 M7.8,14.3c-0.2,0-0.3-0.1-0.3-0.3c0-0.2,0.1-0.3,0.3-0.3c0.2,0,0.3,0.1,0.3,0.3C8.1,14.2,8,14.3,7.8,14.3
	 M12.1,15.8c-1,0.3-1.6,0.8-2,0.1c-0.5-1,0-2.3-1.4-2.8c-0.5-0.2-1.3,0-1.6,0.5C7,13.7,7,14,6.9,14c-0.2,0-0.4,0.1-0.5,0.2
	c0.1,0.1,0.3,0.2,0.4,0.2C7.1,14.6,7,14.8,7,15.1c0.1,0.7,0.4,1.4,0.9,1.9c0.2,0.2,0.4,0.4,0.7,0.5l-0.1,1.3c0,0-0.1,0.2,0.2,0.2
	c0,0,0.1,0,0.1-0.2L9,17.7l0.2,0.1l0,1.3c0,0.2,0.1,0.3,0.1,0.3c0.3,0.1,0.3-0.2,0.3-0.3l0-1.3C10.9,17.8,11.8,16.9,12.1,15.8
	 M47.9,28.3c-0.2,0-0.4-0.2-0.3-0.4c0-0.2,0.2-0.4,0.4-0.3c0.2,0,0.4,0.2,0.3,0.4C48.3,28.1,48.1,28.3,47.9,28.3 M48.7,27.8
	c0.3-0.4,0.4-0.7,0.2-0.8c-0.1-0.1-0.4,0-0.6,0.2c-0.1-0.5-0.3-0.7-0.5-0.6c-0.2,0.1-0.3,0.4-0.3,0.8c-0.6-0.1-1-0.1-0.8,0.3
	c0.1,0.2,0.2,0.3,0.5,0.4c-0.4,0.4-0.5,0.7-0.1,0.8c0.2,0,0.3,0,0.5-0.1c0.1,0.5,0.3,0.8,0.6,0.5c0.2-0.1,0.2-0.5,0.2-0.7
	c0.6,0.1,0.9,0,0.9-0.2C49.3,28.1,49.1,27.9,48.7,27.8 M41.8,35c0.2-0.2,0.4-0.4,0.5-0.5c0.3-0.2,1.6-0.8,2.4-1.1
	c0.7-0.2,0.8-1,0.8-1.3c0-0.2-0.1-0.2-0.1-0.2l0,0l-0.1,0c-0.2,0-0.4,0-0.6,0.2c-0.2,0.2-0.9,0.6-1.1,0.6h0l0.1-0.1
	c0.1-0.1,0.2-0.2,0.2-0.4c0.1-0.2,0.1-0.4,0.1-0.5l-0.1-0.1c-0.1,0-0.2,0.1-0.3,0.2c-0.2,0.2-0.3,0.4-0.4,0.6
	c-0.1,0.2-0.3,0.4-0.5,0.7c-0.3,0.5-2.2,1.4-3,1.8c-0.1-0.2-0.1-0.3-0.1-0.3l-0.2,0.1c-0.4,0.2-0.9,0.5-1.2,0.6
	c-0.2,0.1-0.4,0.2-0.7,0.4c-0.6,0.3-1.3,0.7-1.9,0.7l-0.1,0c-0.3,0-0.3-0.1-0.3-0.1l0.3-0.4c0.2-0.2,0.3-0.5,0.4-0.9
	c0.1-0.2,0.2-0.5,0.3-0.6c0.2-0.3,0.2-0.4,0.1-0.9c0-0.2-0.1-0.4-0.1-0.8c-0.1-1.2-0.8-1.4-1.2-1.4l-0.1,0l-0.1,0
	c-0.1,0-0.2,0-0.4,0c-0.2,0-0.5-0.1-0.8-0.2c-0.2-0.1-0.5-0.1-0.7-0.1c-0.3,0-0.6,0.1-0.6,0.1c-0.1,0-0.2,0-0.3,0.1
	c-0.2,0-0.3,0.1-0.3,0.2c0,0.1-0.1,0.3-0.3,0.7c-0.6,1,0.1,2.7,0.2,2.8c0.2,0.4,0.5,0.7,0.7,0.9c0.1,0.1,0.3,0.3,0.3,0.4l0,0.2
	c0,0.1-0.3,0.1-0.4,0.1l-0.1,0l-0.1,0c-0.3,0-1-0.2-1.6-0.3c-0.6-0.2-2.1-1-2.1-1l-0.1,0l0,0l-0.1,0.2c-0.5-0.2-1.9-1-2.7-1.5
	c-0.9-0.6-1.1-0.7-1.3-1.1c-0.2-0.4-0.6-0.9-1-1c-0.2-0.1-0.4-0.1-0.5,0.1l0.1,0.3c0.6,0.6,0.5,0.7,0.5,0.7l0,0
	c-0.2,0-0.8-0.4-1.1-0.6c-0.2-0.1-0.4-0.2-0.5-0.2c-0.2,0-0.3,0.1-0.4,0.2l0,0.3c0.1,0.2,0.7,1.2,1.6,1.5c0.2,0,0.3,0.1,0.4,0.1
	c0.5,0.1,0.8,0.2,1.3,0.5c0.4,0.3,1.8,1.6,2.6,2.3c-0.3,0.5-0.5,1.1-0.2,1.2c0.9,0.6,2,1.2,2.5,1.3c0.6,0.2,1.1,1.2,1,2.9
	c-0.1,1.8-1.1,4.6-1.5,5.9l0,0.1l0.1,0c0.2,0,0.4,0.1,0.7,0.1l0.1,0c-0.4,1.2-1.3,4.3-1.5,4.9c-0.3,0.7-1.1,2.4-1.1,2.5l0,0.1
	l1.1,0.1c0,0.2-0.1,0.4-0.4,0.6c-0.3,0.1-0.6,0.2-0.9,0.3c-0.3,0.1-0.6,0.1-1,0.3c-0.5,0.2-0.9,0.5-0.9,0.7l0.1,0.2
	c0.1,0.1,0.6,0.2,1.1,0.2c0.2,0,0.4,0,0.6,0c0.2,0,0.5,0,0.8,0c0.9,0,2.2,0.1,2.6,0.1l0.1,0c0.2,0,0.4-0.1,0.5-0.3
	c0.1-0.2,0.1-0.6-0.1-0.8c-0.2-0.3-0.2-0.6-0.1-0.8l0.4,0l0,0c0.1-0.2,2.1-4.7,2.5-6.4c0.2,0.5,0.5,1.2,0.8,1.8
	c0.5,1.1,0.9,2.2,1,2.3c0.1,0.3,0.5,2.3,0.5,2.3l0,0.1l0.9-0.2c0,0.1,0.1,0.3,0,0.5c0,0.1-0.1,0.2-0.1,0.3c-0.1,0.3-0.3,0.8,0,1
	c0.3,0.2,0.9,0.3,1.6,0.3c0.3,0,0.5,0,0.7-0.1c0.2,0,0.3,0,0.5,0c0.3,0,0.6,0,0.9,0.1c0.3,0,0.5,0.1,0.7,0.1h0c0.9,0,1.3,0,1.3-0.2
	c0-0.1-0.1-0.6-0.9-0.8c-0.7-0.1-1.5-0.3-1.7-0.5l0,0c-0.2-0.1-0.4-0.2-0.9-1l0.6-0.1l0.8-0.2l0-0.1c0,0-2.6-4.4-2.9-6.1
	c-0.2-1-0.3-1.9-0.3-2.5c0.3-0.1,0.6-0.2,0.6-0.2l0.1,0l0-0.1c0,0-0.2-0.8-0.7-2.1c-0.4-1.1-0.2-2.1,0.1-3c0-0.2,0.1-0.3,0.1-0.5
	c0.2-0.8,0.6-1.5,0.7-1.6c1.4-0.5,2-1.3,2.5-1.9l0.2-0.2l0,0l0,0c-0.1-0.3-0.3-0.6-0.4-0.9c0.2-0.1,0.4-0.3,0.6-0.4
	C41.1,35.7,41.4,35.3,41.8,35 M3.2,22.3l0.1,0.2c0.4,0.2,1.1,0.6,1.3,0.6C4.8,23.2,5,23.5,5,23.9l0,0.3c0,0.4,0,0.8,0.3,0.9l0,0
	c0.2,0,0.3-0.2,0.5-0.5C6,24.4,6.1,24.2,6.3,24c0.1-0.2,0.2-0.3,0.3-0.4c0.1-0.2,0.2-0.3,0.3-0.3c0.1,0,0.2,0,0.3,0.1l0.1,0
	c0.3,0.1,0.7,0.2,1,0.2c0.1,0,0.2,0,0.3-0.1c0-0.1,0-0.2-0.1-0.3c-0.1-0.2-0.3-0.3-0.5-0.4c-0.3-0.2-0.5-0.4-0.5-0.7
	c0.1-0.5,0.4-0.9,0.6-1.2l0,0c0.1-0.2,0.2-0.3,0.1-0.4c0-0.1-0.2-0.1-0.4-0.1c-0.1,0-0.2,0.1-0.3,0.1c-0.2,0.1-0.4,0.2-0.7,0.2
	l-0.2,0c-0.2,0-0.4-0.2-0.6-0.4l-0.1,0L5.6,20c-0.2-0.1-0.3-0.3-0.4-0.3c-0.1,0-0.2,0.2-0.3,0.3c0,0.2-0.1,0.3-0.1,0.6
	c0,0.4-0.1,0.9-0.4,1.1c-0.1,0.1-0.3,0.1-0.4,0.2C3.5,22,3.2,22.2,3.2,22.3 M20.8,19.3c-0.1,0.1-0.3,0.2-0.2,0.3l0.2,0.1l0.1,0
	c0.1,0,0.2,0,0.3,0l0.2,0l0.1,0c0.1,0,0.1,0,0.1,0.1l0,0c0.1,0.2,0.2,0.4,0.2,0.4l0.1-0.1l0-0.2c0-0.1,0-0.2,0.1-0.3
	c0.1-0.1,0.3-0.1,0.4-0.1l0.1,0l0,0l0.1,0l-0.1-0.1l-0.1-0.1c-0.1-0.1-0.2-0.1-0.2-0.2c0-0.1,0-0.2,0-0.3l0,0l0-0.1l0-0.2l-0.1,0
	l-0.2,0.1c-0.1,0.1-0.2,0.1-0.3,0.1l-0.1,0l-0.1-0.1c-0.1-0.1-0.2-0.1-0.3-0.1l0,0l0,0.1c0,0.2,0.1,0.5,0.1,0.5L20.8,19.3L20.8,19.3
	z M52.8,9.6C53.5,9.4,55,7.8,55,7.8s-0.3-0.1-0.6-0.1s-4.2-0.3-4.2-0.3S51.9,9.1,52.8,9.6 M53.4,10c0.4,0.3,2.5,2.4,2.9,2.5
	c0.2-0.4-1-4.3-1-4.3S54.1,9.5,53.4,10 M51.6,11.4c-0.5,0.4-0.9,0.7-0.6,1c0.3,0.3,1.9,0.4,2.7,0.4c0.9,0,1.9-0.1,1.9-0.1L53,10.4
	C53,10.4,52,11,51.6,11.4 M52.4,10.1c-0.2-0.1-2.5-2.4-2.5-2.4c-0.1,1.1,0.7,4.1,0.7,4.1s0.4-0.6,1-1C52.2,10.3,52.5,10.1,52.4,10.1
	 M20.7,27.8c-0.1,0-0.3,0-0.5,0.3c-0.2,0.2-0.2,0.3-0.3,0.4l-1-0.4l0.2-0.8l0.6-0.4l0.7,0L20.7,27.8z M18.8,28.4L18.8,28.4
	L18.8,28.4L18.8,28.4L18.8,28.4l1.2,0.5c0.2,0.1,0.8,0.4,1.1,0.4l0.2-0.1c0.1-0.2,0.1-0.4,0-0.6l0-0.1c0-0.1-0.1-0.3-0.2-0.4
	l-0.4-1.2l-6.2-6.2c0-0.1-0.4-0.6-0.9-0.7c-0.1,0-0.3,0-0.4,0.1c-0.6,0.4-1,0.8-1,0.8c0,0-0.3,0.5,0.5,1.2
	C13.7,23.2,18.6,28.3,18.8,28.4L18.8,28.4z M13.6,29.9c0.7-0.1,1.4-0.2,2.1-0.2c1.7,0,3.5,0.4,5.6,1.3l0.6,0.3l-0.5-0.4
	c0,0-3-2.3-6.7-2.3c-1.5,0-2.9,0.4-4.2,1.1c-0.5,0.2-0.9,0.9-0.8,1.2c0,0.1,0.1,0.3,0.4,0.3l0.1,0c0.4-0.1,0.7-0.2,1.1-0.5
	C11.9,30.4,12.5,30.1,13.6,29.9 M12.4,32.4c0.1,0.2,0.3,0.3,0.6,0.3c0.2,0,0.4,0,0.7-0.1c0.4-0.2,0.8-0.4,1.3-0.7
	c0.8-0.5,1.7-1.1,3-1.1c0,0-0.5-0.2-1.3-0.2c-0.9,0-2.1,0.1-3.1,0.7C12.7,31.7,12.3,32.1,12.4,32.4 M6.6,25.8c-0.2,0.2-0.2,0.6,0,1
	c0.3,0.7,1.3,1.5,3.3,1.5c0.9,0,2-0.2,3.2-0.5l0.5-0.2l-0.5,0l0,0c-0.3,0-2.9,0-4.8-1.6c-0.4-0.3-0.7-0.5-1-0.5
	C6.9,25.6,6.8,25.7,6.6,25.8 M57.1,12.8c0.4-0.2,1.2-0.3,1.3-0.8c0.1-0.5-0.3-1-0.8-1.3c-0.5-0.3-0.3-0.1-0.5,0.5
	c-0.2,0.6-0.5,1.5-0.5,1.5C56.6,13.1,56.7,13,57.1,12.8 M55.8,14.7c0.1-0.3,0.5-1.5,0.5-1.5s-1.5,0.1-2,0.5
	c-0.5,0.4,0.2,0.6,0.4,0.9C55,14.9,55.7,15,55.8,14.7 M57.3,15.5c-0.6,1-0.5,1.6-0.3,1.9c0.2,0.2,0.5,0.4,0.8,0.3c0.2,0,0.3,0,0.3,0
	L58,17.9c-0.4,0.5-0.5,0.9-0.3,1.2c0.1,0.1,0.2,0.3,0.6,0.3l0.1,0c0.2,0,0.6,0.1,0.7,0.1c0.2,0,0.3,0.2,0.3,0.6
	c-0.2,0.9,0.3,1.5,1.4,1.8c0.6,0.2,1.1,0.9,1.1,1.9c-0.1,1.1-0.4,1.5-1.4,1.6c-1.4,0.1-1.3,1.6-1.3,2c0,0.1,0,0.3,0.1,0.3l0.2,0
	c0.1,0,0.2,0,0.2-0.2c0.1-0.5-0.3-1.6,0.8-1.7c1-0.1,1.7-0.6,1.8-2.1c0.1-1.4-0.7-2.3-1.4-2.5c-1.1-0.3-1.1-0.7-1-1.1
	c0.1-0.4,0.1-0.7-0.1-0.9c-0.2-0.3-0.8-0.3-1.1-0.3l-0.3,0c-0.1,0-0.1-0.1-0.1-0.1c0,0,0-0.2,0.3-0.6c0.1-0.1,0.3-0.5,0.2-0.7
	c-0.2-0.3-0.6-0.3-0.9-0.2c-0.1,0-0.2,0-0.3-0.1c-0.1-0.1-0.2-0.4,0.3-1.4c0.5-1-0.7-2.3-0.7-2.3c-0.1-0.1-0.3-0.1-0.4,0
	c-0.1,0.1-0.1,0.3,0,0.4C56.9,14.1,57.6,15,57.3,15.5 M41.2,13.1l-4.2,2l0.5,3.6l-0.2,0c-0.3,0-0.8,0.1-1.1,0.9
	c-0.1,0.3-0.1,0.7,0.1,1c0.2,0.3,0.7,0.5,1.1,0.5c0.3,0,0.6-0.1,0.8-0.2c0.3-0.2,0.4-0.4,0.5-0.7c0.1-0.6-0.3-1.3-0.3-1.3l-0.4-3
	l2.6-1.2c0.1,0.4,0.3,2.2,0.5,3.1c-0.1-0.1-0.2-0.1-0.4-0.1c-0.5,0-1.1,0.5-1.2,1.3c0,0.4,0.1,0.7,0.3,0.9c0.2,0.2,0.5,0.3,0.8,0.3
	c0.3,0,0.6-0.1,0.8-0.2c0.8-0.3,0.7-1.5,0.6-1.6L41.2,13.1z M28.4,30.9c-0.4,0.2-1,0.6-1.6,0.1c-0.6-0.5-0.7-1.3,0.1-1.9
	c0,0,0.7-0.4,1.4,0.1C28.9,29.7,28.7,30.7,28.4,30.9 M30.4,29.8c0.4-0.1,0.3-0.3,0.3-0.3s-0.1-0.3-0.1-0.6c0-0.4-0.4-0.3-0.4-0.3
	l-0.6,0.2l-0.4-0.4c0,0,0.1-0.1,0.3-0.4c0.2-0.3-0.1-0.4-0.1-0.4s-0.4-0.3-0.7-0.4c-0.3-0.1-0.4,0.1-0.4,0.1L28,27.8
	c-0.4-0.1-0.5,0-0.5,0s0-0.3,0-0.5c0-0.3-0.2-0.3-0.2-0.3s-0.6,0-1,0.2c-0.4,0.1-0.1,0.6-0.1,0.6l0.1,0.4L26,28.5
	c0,0-0.2-0.2-0.3-0.3c-0.3-0.3-0.6,0-0.6,0s-0.3,0.2-0.5,0.6c-0.2,0.4,0.1,0.4,0.1,0.4s0.2,0.1,0.5,0.2c-0.1,0.2,0,0.6,0,0.6
	s-0.1,0.1-0.5,0.2c-0.4,0.1-0.2,0.4-0.2,0.4s0.1,0.3,0.2,0.6c0.1,0.3,0.5,0.1,0.5,0.1l0.4-0.3l0.4,0.6c0,0-0.1,0.1-0.3,0.4
	c-0.2,0.3,0.1,0.4,0.1,0.4s0.2,0.1,0.6,0.2c0.4,0.2,0.5-0.2,0.5-0.2l0.2-0.5l0.5,0.1c0,0-0.1,0.2,0,0.5c0.1,0.4,0.4,0.3,0.4,0.3
	s0.8-0.1,1-0.2c0.3-0.1,0-0.5,0-0.5l-0.2-0.4l0.4-0.3c0,0,0,0,0.3,0.2c0.4,0.2,0.5,0,0.5,0s0.3-0.6,0.5-0.9c0.1-0.3-0.2-0.4-0.2-0.4
	s-0.2-0.1-0.5-0.2c0.1-0.3,0.1-0.6,0.1-0.6S30,29.9,30.4,29.8 M26,24.2c0,0,0.1-0.6,0.7-0.7c0.5-0.1,1,0.4,1,0.8
	c0,0.3-0.2,0.8-0.7,0.9C26.4,25.2,25.9,24.9,26,24.2 M25,25.5c0,0,0.1-0.1,0.4-0.2c0.1,0.2,0.3,0.3,0.3,0.3s0,0.1-0.1,0.4
	c-0.1,0.3,0.1,0.3,0.1,0.3s0.2,0.1,0.4,0.2s0.3-0.2,0.3-0.2l0.1-0.4l0.5,0.1c0,0,0,0.1,0.1,0.4c0.1,0.3,0.3,0.2,0.3,0.2
	s0.2-0.1,0.4-0.2c0.3-0.2,0.1-0.4,0.1-0.4l-0.2-0.4l0.3-0.2c0,0,0.1,0.1,0.3,0.2c0.3,0.1,0.3,0,0.3,0s0.3-0.5,0.4-0.7
	c0.1-0.2-0.2-0.2-0.2-0.2l-0.3-0.1l0-0.4c0,0,0,0,0.2-0.1c0.3-0.1,0.2-0.3,0.2-0.3s-0.2-0.5-0.3-0.7c-0.1-0.2-0.3-0.1-0.3-0.1
	s-0.1,0.1-0.3,0.2c-0.1-0.2-0.3-0.4-0.3-0.4s0,0,0.2-0.3c0.2-0.3-0.1-0.3-0.1-0.3s-0.2-0.1-0.4-0.2c-0.2-0.1-0.3,0.1-0.3,0.1
	L27,22.5l-0.4,0c0,0,0-0.1-0.1-0.3c-0.1-0.2-0.3-0.1-0.3-0.1s-0.4,0.1-0.5,0.2c-0.2,0.1-0.1,0.3-0.1,0.3l0.2,0.4
	c-0.2,0.2-0.2,0.3-0.2,0.3s-0.1-0.2-0.3-0.2c-0.2-0.2-0.3,0-0.3,0s-0.3,0.3-0.4,0.6c-0.1,0.3,0.3,0.3,0.3,0.3l0.3,0.1l0,0.4
	c0,0-0.2,0-0.3,0c-0.3,0-0.3,0.4-0.3,0.4s0,0.3,0.1,0.5C24.8,25.7,25,25.5,25,25.5 M21,5.8L21,5.8L21,5.8c0.1-0.1,0.4-1.9-1.4-2.4
	c-0.3-0.1-0.9-0.1-0.9-0.1l-0.1,0l0,0.1C18.6,3.4,18.8,5.7,21,5.8 M30.7,1.7c0,0,1.2,0.2,1.5-1.1c0.1-0.2,0-0.6,0-0.6l0,0l0,0
	C32.2,0,30.6,0.2,30.7,1.7L30.7,1.7L30.7,1.7z M30,2L30,2L30,2c0-0.1-0.3-1.2-1.5-0.9c-0.2,0.1-0.5,0.2-0.5,0.2l0,0l0,0
	C27.9,1.4,28.8,2.6,30,2 M30.2,2.5c-0.2-0.1-0.4-0.1-0.7-0.1c-0.2,0-0.5,0.1-0.7,0.3c-0.4,0.4-0.6,1-0.5,1.7
	c0.1,0.8,0.7,1.4,1.3,1.6c0.3,0.1,0.5,0.2,0.7,0.1c0.2,0,0.3-0.2,0.3-0.3l0.2-0.2l0.1,0c0.2,0,0.4,0.1,0.6,0c0.3,0,0.5-0.2,0.7-0.4
	c0.4-0.5,1-2.4,0.1-3.1c-0.3-0.2-0.7-0.4-1-0.3c-0.3,0-0.7,0.2-0.9,0.5c0-0.7-0.2-1.4-0.3-1.5c-0.2-0.1-0.4,0.1-0.5,0.3
	C30.2,1.8,30.3,2.2,30.2,2.5 M22.9,26.8l0.1-0.1c0,0,0.7-0.9,0.8-1c0.1-0.1,0-0.2,0-0.2s-0.5-0.6-0.7-0.8l-0.1-0.1l-0.1,0.1
	c0,0-0.6,0.7-0.8,1L22,25.8l0.1,0.1L22.9,26.8z M21.8,25.7l0.9-1.3l-1,0.2c0,0-0.2,0-0.3,0.1c-0.1,0.1-0.9,0.9-0.9,0.9l-0.1,0.1
	l0.1,0L21.8,25.7z M21.7,27l0.8,0l0.1,0l-0.1-0.1L21.8,26L21.7,26l-0.1,0l-0.8,0l-0.1,0l0.1,0.1c0,0,0.6,0.7,0.7,0.8
	C21.6,27,21.7,27,21.7,27 M8.5,28.9c-2.1,0.2-2.8-0.6-3.3-1.3c-0.6-1-0.9-2-1.7-1.5c-0.7,0.4,0,1.5,0,1.5s0.8,1.3,2.2,1.7
	c2.8,0.8,4.9-0.6,4.9-0.6S9.7,28.8,8.5,28.9 M54.7,32.1l0.2,0c0.2,0,0.3-0.1,0.3-0.2c0.1-0.3-0.2-0.9-0.6-1.1
	c-1.2-0.8-2.6-1.2-4.1-1.2c-3,0-5.5,1.6-5.5,1.6l-0.5,0.3l0.5-0.2c1.6-0.6,3-0.8,4.4-0.8c0.8,0,1.6,0.1,2.4,0.3
	c0.9,0.2,1.5,0.6,1.9,0.9C54.1,31.8,54.3,32,54.7,32.1 M48.8,31.2c-1.7,0-2.3,0.2-2.3,0.2c-1.1,0.2,2.3,0.1,3.9,1.1
	c0.4,0.3,0.7,0.5,1.1,0.7c0.2,0.1,0.5,0.2,0.6,0.2c0.2,0,0.4-0.1,0.5-0.2c0.1-0.3-0.2-0.6-0.8-1C50.6,31.4,49.5,31.2,48.8,31.2
	 M55.1,28.6c2,0,2.9-0.8,3.1-1.4c0.2-0.4,0.1-0.7,0-0.9c-0.1-0.2-0.3-0.2-0.5-0.2c-0.3,0-0.7,0.2-1,0.5c-1.9,1.2-2.5,1.3-3.5,1.6
	l-2.9,0.7l2.8-0.1C53.8,28.6,54.2,28.6,55.1,28.6 M60,28.2c-0.4,0.7-1.2,1.3-3,1.2c-1.3,0-3.7-0.3-3.7-0.3s3.4,2,6.3,1.6
	c1.4-0.1,2.1-1.5,2.1-1.5s0.6-1.2,0.1-1.8C61,26.7,60.3,27.5,60,28.2 M38.7,4c0.3,0,0.5,0.2,0.5,0.5c0,0.3-0.2,0.5-0.5,0.5
	c-0.3,0-0.5-0.2-0.5-0.5C38.2,4.3,38.4,4,38.7,4 M40,7c1.1,0,2-0.7,2.7-1.7c0.1,0.4,0.3,0.7,0.6,1c0.4,0.4,1,0.5,1.5,0.4
	c0-0.5-0.2-1.1-0.6-1.4C44,5.1,43.8,5,43.7,5c0.1-0.1,0.2-0.1,0.3-0.2c0.4-0.4,0.6-0.9,0.6-1.4c-0.5-0.1-1,0-1.5,0.4
	c-0.3,0.3-0.5,0.6-0.6,0.9C42,3.6,41,2.9,40,2.9c-1.2,0-2.2,0.8-2.9,2C37.8,6.2,38.8,7,40,7 M63.7,23.6c-0.5,0-1,0.4-1,1
	c0,0.5,0.4,1,1,1c0.5,0,1-0.4,1-1C64.6,24.1,64.2,23.6,63.7,23.6 M12.2,23.7c0.3-0.2,0-0.2,0-0.2s-0.1,0-0.5-0.2
	c-0.4-0.2-1.1-0.9-1.3-2.1c-0.1-1.2,0.6-1.9,0.6-1.9c0.2-0.1,0.2-0.3-0.1-0.2c-2,0.7-2.3,2.5-1.6,3.9C9.8,24.3,11.9,23.8,12.2,23.7
	 M28.1,15.8l0.4,4.6l0,0.2l0.1-0.1c0,0,0.4-0.4,1.7-0.4c0.7,0,1.6,0.2,2.5,0.4l0.1,0l0-0.1c0.1-2-0.2-5.4-0.2-5.4l0,0l0,0
	c0,0-0.6-0.1-1.4-0.1C30.5,14.7,29.2,14.9,28.1,15.8L28.1,15.8z M23.2,16.2L23.2,16.2c0,0.1,0.6,3,1.1,5.5l0,0.1l0.1-0.1
	c1.1-1.1,2.2-1.3,2.9-1.3c0.5,0,0.8,0.1,0.8,0.1l0.1,0l0-0.1c0,0-0.4-3.1-0.5-4.5l0,0l0,0c-0.5-0.4-1-0.6-1.7-0.6
	C24.6,15.4,23.3,16.2,23.2,16.2L23.2,16.2z M28.2,20.9l0-0.1c0,0-2.1-0.2-3.8,1.4c0,0.3-0.2,0.6-0.2,0.6s1-0.8,2-1.2
	C27.1,21.3,28.2,20.9,28.2,20.9 M28.6,20.7c0,0.1-0.1,0.2,0.2,0.2c1.9-0.2,4,0.3,4.7,0.3c0,0,0.1,0,0-0.1c-0.1-0.1-0.3-0.2-0.5-0.3
	C30.6,20,28.6,20.7,28.6,20.7 M33.2,20.6c0.2,0.1,0.4,0.3,0.4,0.3s0.4-3.6-0.1-5.4c-0.3-0.3-0.5-0.2-0.5-0.2S33.5,17.5,33.2,20.6
	 M23.9,23l0-0.1l0.1-0.7l-1.2-5.5l-0.3,0.2L23.9,23L23.9,23z M30.9,8.7c0,0-0.2,0.6-0.2,1.4c0,0.8,0.5,1.4,0.6,1.4l0.1,0h0
	c0,0,0.7,0,1.3-0.2l0.1-0.1c0.1-1.2-0.3-2.5-0.3-2.7l0,0c0.5-1.7,2.5-1.8,2.9-1.8l0,0h0c0.8,0,1.4,1.2,1.5,1.4
	c0,0.2-0.1,1.5,0.3,2.7l0.1,0.1h0.1c0.6,0,1.2-0.1,1.2-0.1l0.1-0.1c0,0,0.4-0.7,0.2-1.5c-0.1-0.8-0.5-1.3-0.5-1.3l-0.1-0.1l-0.7,0.1
	c-0.2-1.5-1.1-2.5-2.5-2.5c-0.2,0-0.4,0-0.6,0c-1.9,0.3-2.4,0.9-2.8,1.7c-0.3,0.5-0.2,1-0.1,1.3L31,8.6L30.9,8.7z M21,7.4l0.2,1.1
	l0.1,0.1l0.8-0.1l0.2,0.9l0.1,0.1l1.2-0.2l0.1-0.1l-0.2-0.9L24.3,8l0.1-0.1l-0.2-1.1L24,6.8l-0.8,0.1l-0.1-0.9L23,6l-1.2,0.2
	l-0.1,0.1l0.1,0.9l-0.8,0.1L21,7.4z M16.4,13.8c0,0-1.3,0.7-1.2,1.6c0.1,0.9,0.7,1.2,1.1,1.1c0.4-0.2,0.8-0.8,1.2-0.6
	c0.4,0.3,0.5,0.7,0.2,1.3c-0.3,0.5-0.7,1-0.5,1.4c0.2,0.4,0.5,0.6,0.5,0.6s0.5,0,1-0.2c0.5-0.2,1.9-0.8,1.9-0.8s0.3-0.2,0.2-0.9
	c-0.1-0.7-0.3-1.1-0.3-1.1s-0.1-0.3-0.7,0.1c-0.5,0.3-0.7,0.4-0.5-0.5C19.5,15,19,12.5,16.4,13.8 M13.5,15.2c0,0-0.6,0.4-0.7,0.6
	c-0.1,0.2-0.4,1-0.3,1.5c0.1,0.5,1.1,1.1,1.2,0.4c0.1-0.7,1.2,1.5,1.2,1.5s0.3,0.5,0.7,0.2c0.4-0.2,0.7-0.4,0.7-0.4s0.4-0.2,0-0.8
	c-0.5-0.7-1.8-2.6-1.8-2.6S14,14.8,13.5,15.2 M19.8,11.3c-1.1,0.5-1.1,1.6-1.1,1.6c0,0.6,0.4,0.7,0.6,0.7c0.3,0,0.6-0.1,0.7-0.2
	c0.1-0.1,0.1-0.2,0.2-0.3c0.1-0.2,0.1-0.5,0.4-0.6l0.2-0.1c0.2,0,0.4,0.3,0.4,0.5c0,0.2-0.4,0.5-0.8,0.8l-0.1,0.1L20,13.9
	c0,0.1,0.1,0.3,0.2,0.4l0.1,0.1c0.1,0.1,0.2,0.1,0.3,0.1c0.1,0,0.3-0.1,0.4-0.1c0.6-0.2,0.8,0.1,0.8,0.2c0,0.1-0.1,0.1-0.2,0.2
	c-0.5,0.3-0.7,0.3-0.9,0.3c-0.4,0.1-0.2,0.4-0.2,0.4l0.6,1l0.4-0.1c0.5-0.2,0.7-0.3,1-0.5c1.1-0.6,0.9-1.4,0.7-1.8
	c-0.2-0.4-0.6-0.5-0.8-0.5l-0.1,0c0.1-0.1,0.2-0.3,0.3-0.5c0.2-0.8,0.1-1.1-0.2-1.7c-0.2-0.3-0.7-0.5-1.3-0.5
	C20.6,11.1,20.2,11.2,19.8,11.3 M31.9,11.7c0,0.1,0.2,2.1,1.3,2.8c0.6,0.4,1,0.7,1.3,0.9c0.2,0.2,0.4,0.4,0.7,0.6
	c0.9,0.6,0.6,1.1,0.1,2c-0.4,0.8-1.2,1.9-0.6,3.1l0.4-0.1c-0.3-0.8,0.1-2.1,0.5-2.8c0.4-0.7,0.7-1.4,0.3-2.1
	c0.1-0.3,0.7-1.5,1.6-2.1c1.3-0.8,1.3-2.1,0.9-3L38,11.1c0.4,0.7,0.4,2-0.6,2.6c-0.9,0.5-1.5,1.6-1.7,2.1l-0.2-0.2
	c-0.2-0.2-0.4-0.3-0.7-0.5c-0.3-0.3-0.7-0.6-1.3-1c-0.9-0.6-1.1-2.5-1.1-2.5L31.9,11.7z M18.6,10.4c0.8,0.1,1.9-0.1,2-0.5
	c0.1-0.4,0.3-1.2-0.5-1.2c-1.1-0.1-1.1-0.9-0.5-1.1c0.6-0.2,1.1-0.2,1-0.7c-0.1-0.4-0.2-1.1-1.5-1.1c0,0-2,0.1-2,1.8
	C17,9.5,17.8,10.3,18.6,10.4 M15.4,12.7c0,0,0.3,0.7,1,0.5c0.7-0.3,1.6-1,1.7-1.5c0.1-0.5-0.5-1.6-1.5-1.2c0.8-0.7,0.4-1.7-0.4-1.9
	c-0.8-0.2-1.3,0.1-1.9,0.5c0,0-0.7,0.4-0.4,1.2C14.3,11.1,15.4,12.7,15.4,12.7 M12.2,15.1c0.4-0.2,0.3-0.7,0.3-1
	c0.1-0.9,0.4,0,0.6,0.2c0.4,0.4,0.8,0.3,1.1,0c0.3-0.3,0.6-1-0.1-1.8c-0.7-0.9-1.6-2-2.8-1.7c0,0-0.8,0.1-0.8,0.9
	c-0.1,0.8-0.1,3,0.1,3.3C10.8,15.2,11.8,15.4,12.2,15.1 M39.7,22l1-0.1c2.5-0.4,2.3-1.2,2.3-1.2s-0.7-0.4-2,0.2
	C39.7,21.5,39.7,22,39.7,22 M45.3,25.7c-1.4,1-3.6,1.4-3.6,1.4c0.5,0.2,1.4,0.2,2,0C44.6,26.8,45.1,26.2,45.3,25.7 M45.1,22.1
	c-0.6-0.9-1.6-1.2-1.6-1.2s0,0.5-0.7,0.8c0.5,0.2,2.3,1.2,1.6,4.3c0.4-0.2,0.8-0.6,1-0.9C45.5,24.7,46,23.7,45.1,22.1 M41.1,22.2
	c0.1,0.8,0.1,2.1,1.9,4.3c0.6-0.1,1.1-0.4,1.1-0.4s0-2-0.5-2.9c-0.5-0.9-1.1-1.3-1.1-1.3S41.8,22.1,41.1,22.2 M39.5,22.3
	c-0.3,0.6-0.9,3.5,1.8,4.6c0.4,0,1.2-0.3,1.2-0.3s-2-1.7-1.8-4.3C40.7,22.3,40,22.5,39.5,22.3 M34,11.2c0.2,0.3,0.2,0.5,0.2,0.8
	c0,0.3,0.3,0.2,0.3,0.2s0.9,0,1.2,0c0.3,0,0.3-0.3,0.3-0.4c0-0.1,0-0.4,0-0.5c0-0.2,0.3-0.3,0.4-1.1c0.1-0.8-0.4-1.3-0.7-1.5
	c-0.4-0.2-1.4-0.2-2,0.5C33,9.9,33.7,10.9,34,11.2 M35.8,12.9c0,0-0.8,0-0.9,0l-0.2,0L34.5,13c0,0.1-0.1,0.2,0,0.2
	c0.2,0,1.3-0.1,1.3-0.1S36,12.8,35.8,12.9 M35.8,12.4c0,0-0.9,0-1,0l-0.3,0l-0.2,0.1c0,0.1,0,0.2,0.1,0.2c0.2,0,1.4-0.1,1.5-0.1
	C35.9,12.7,36,12.4,35.8,12.4 M35.6,13.3l-0.8,0l-0.1,0l0,0.2c0,0,0,0.1,0.2,0.1c0.1,0,0.7,0,0.8,0c0.1,0,0.1,0,0.1-0.1
	C35.7,13.4,35.8,13.3,35.6,13.3 M36,7.7c-0.1,0-0.2,0-0.2,0.2l-0.1,0.6c0,0,0.1,0,0.3,0.1C35.9,8.4,36,8.2,36.1,8
	C36.1,7.8,36.1,7.7,36,7.7 M34.7,8.5c0-0.2-0.1-0.5-0.1-0.6c-0.1-0.4-0.2-0.4-0.3-0.3c-0.1,0-0.2,0.2-0.1,0.4l0.2,0.6
	C34.4,8.5,34.6,8.5,34.7,8.5 M35.3,8c0-0.1,0-0.2-0.1-0.2c-0.1,0-0.1,0.1-0.1,0.1s0,0.4,0,0.5l0.3,0C35.3,8.5,35.3,8.2,35.3,8
	 M33.2,8.4c-0.1,0-0.1,0.1,0,0.2c0,0.1,0.3,0.3,0.4,0.4l0.1-0.2l-0.3-0.4L33.2,8.4z M33.9,8.7l0.3-0.1c-0.1-0.1-0.2-0.4-0.2-0.4
	s-0.1-0.1-0.2,0c-0.1,0.1-0.1,0.1-0.1,0.2C33.8,8.4,33.9,8.7,33.9,8.7 M36.4,8.5C36.3,8.6,36,8.8,36,8.8L36.2,9c0,0,0.2-0.2,0.3-0.3
	c0.1-0.1,0.1-0.1,0-0.2C36.5,8.5,36.5,8.5,36.4,8.5 M36.4,9.1L36.4,9.1l0,0.1l0.1,0.1l0.2-0.1c0,0,0.1,0,0-0.2
	C36.5,8.9,36.5,9,36.4,9.1 M36.8,10.1c0-0.2-0.1-0.1-0.2-0.1l-0.1,0l0,0.1l0,0.1l0.2,0C36.8,10.2,36.9,10.2,36.8,10.1 M32.9,9.2
	c0,0.1,0.1,0.2,0.1,0.2l0.3,0.1c0-0.1,0.1-0.2,0.1-0.2L33,9.1C33,9.1,32.9,9.1,32.9,9.2 M36.4,9.5l0,0.2c0.1,0,0.3,0,0.4,0l0-0.2
	L36.4,9.5z M32.9,9.9l0,0.2l0.3-0.1l0-0.2L32.9,9.9z M33.1,10.6c0,0,0.1-0.1,0.2-0.2l-0.1-0.2c0,0-0.3,0.1-0.3,0.2L33.1,10.6z
	 M33.7,11.5c0,0,0.1-0.1,0.2-0.2l-0.1-0.1l-0.2,0.3L33.7,11.5z M36.2,11.2l-0.1,0.1c0.1,0.1,0.1,0.2,0.2,0.2l0.2-0.1L36.2,11.2z
	 M36.9,10.7l-0.1-0.2l-0.4-0.1l0,0.2c0.1,0.1,0.4,0.2,0.4,0.2L36.9,10.7z M33.2,11.2l0.1,0l0.2-0.3l-0.1-0.1c0,0-0.2,0.2-0.3,0.3
	C33.1,11.1,33.1,11.2,33.2,11.2 M36.7,11c0-0.1,0-0.1-0.1-0.2l-0.2-0.1L36.3,11l0.2,0.1C36.5,11.1,36.7,11.2,36.7,11 M53.7,22.7
	c-0.2,0.1-1.5,0.6-1.5,0.6s-0.6,0.3-0.7,0.2c-0.1-0.1-0.2-0.4-0.2-0.4s0-0.2-0.3-0.1c-0.3,0.1-1.1,0.4-1.1,0.4s-0.4,0.1-0.3,0.3
	c0,0.1,0,0.3,0.7,0l0.6-0.1c0.1,0,0.2,0,0.2,0.2l0.5,1.3l0.6,0l0.8-0.4l1.6-0.8c0,0-0.2-0.9-0.3-1C54.2,22.7,54,22.7,53.7,22.7
	 M51.2,25.4l-0.3-1.1c0,0,0-0.2-0.2-0.1l-1,0.3L49.3,26c0,0,0.5,1.3,0.6,1.4c0,0.1,0,0.1,0.2,0.1c0.2-0.1,0.6-0.2,0.6-0.2
	s-0.6-1,0-1.6C50.9,25.6,51.2,25.4,51.2,25.4 M51.6,26.2c0.2-0.1,0.3,0,0.4,0.2c0.1,0.2,0,0.4-0.2,0.4c-0.2,0.1-0.3,0-0.4-0.2
	C51.3,26.5,51.4,26.3,51.6,26.2 M52,27.5c0.5-0.2,0.7-0.7,0.6-1.2c-0.2-0.5-0.7-0.8-1.2-0.6c-0.5,0.2-0.7,0.7-0.6,1.2
	C51,27.3,51.5,27.6,52,27.5 M53.9,25.4c0.2-0.1,0.3,0,0.4,0.2c0.1,0.2,0,0.4-0.2,0.4c-0.2,0.1-0.3,0-0.4-0.2
	C53.6,25.7,53.7,25.5,53.9,25.4 M53.1,26c0.2,0.5,0.7,0.8,1.2,0.6c0.5-0.2,0.7-0.7,0.6-1.2c-0.2-0.5-0.7-0.8-1.2-0.6
	C53.2,25,52.9,25.5,53.1,26 M53,25.2c-0.2,0.1-0.8,0.3-0.8,0.3s0.3,0.1,0.4,0.3c0.2,0,0.3-0.1,0.3-0.1S52.9,25.3,53,25.2 M17.5,22.1
	L17.5,22.1c0.1,0.5,0.3,0.9,0.6,1.2c0.4,0.4,0.9,0.6,1.4,0.6c0.3,0,0.6-0.1,0.9-0.2l0.1,0l-0.1,0c-0.6-0.2-1.1-0.4-1.7-0.7
	C18.3,22.7,17.5,22.1,17.5,22.1 M23,24L23,24L23,24c0.3,0,0.4-0.1,0.4-0.2c0-0.1,0-0.2-0.1-0.4c-0.2-0.3-0.6-0.7-1.3-1.1
	c-0.1-0.1-0.2-0.1-0.3-0.2l0,0l0,0.1l-0.1,0.2l0,0l0,0c0.1,0.1,0.2,0.1,0.3,0.2l0.2,0.2c0.1,0.1,0.1,0.2,0.1,0.3
	c0,0-0.1,0.1-0.3,0.1c-0.2,0-0.5-0.1-0.8-0.2c-0.5-0.2-1.1-0.4-1.8-0.7c-0.6-0.3-1.2-0.7-1.7-1c-0.6-0.4-0.8-0.7-0.7-0.8l0.1,0
	c0.1-0.1,0.3-0.1,0.7,0l0,0l0,0l0.1-0.2l0,0l-0.1,0c-0.3-0.1-0.5-0.2-0.8-0.3c-0.7-0.2-1.2-0.2-1.4-0.1l0,0l0,0.1
	c-0.2,0.5,1.4,1.5,1.9,1.8c0.5,0.3,1,0.6,1.6,0.9c0.6,0.3,1.1,0.5,1.6,0.7C21.7,23.8,22.5,24,23,24 M17.8,20.7L17.8,20.7L17.6,21
	l0,0l0,0c0.4,0.3,1,0.6,1.6,0.9c0.7,0.3,1.4,0.6,1.9,0.8l0,0l0,0c0.1-0.1,0.2-0.3,0.2-0.5l0-0.1l0-0.1c0-0.1,0-0.2,0-0.4
	c0-0.5-0.2-1-0.6-1.4c-0.4-0.4-0.9-0.6-1.4-0.6c-0.3,0-0.5,0.1-0.8,0.2l-0.3,0.1l-0.1,0.1l0,0l-0.1,0.1l0,0l-0.1,0l0,0l0,0l0,0
	l-0.1,0.1l0,0l0,0l0,0l0,0l-0.1,0.1l0,0.1L17.8,20.7L17.8,20.7L17.8,20.7L17.8,20.7z M21.9,5L22,5.1c0.1,0.1,0.2,0.2,0.4,0.3l0.2,0
	c0.2,0,0.5-0.2,0.7-0.3c0.2-0.2,0.5-0.6,0.5-0.6l0.1-0.1c0,0.1,0,0.2-0.1,0.4c0,0.1-0.2,0.5-0.1,0.6l0,0c0.1,0,0.1-0.1,0.3-0.3l0,0
	L24,4.3l0.1,0.5l0,0.2c0,0,0,0.5,0,0.7c0,0.1,0.1,0.2,0.2,0.2l0.1,0.1C24.6,6,25,6,25,6h0h0c0,0,0.4-0.1,0.7-0.1
	c0.2,0,0.3-0.2,0.3-0.4L26,5.3l0.1-0.1c0.1-0.1,0.1-0.2,0-0.4c-0.1-0.1-0.3-0.4-0.4-0.5c0,0,0.4,0,0.6,0c0.2,0,0.3-0.1,0.3-0.3
	c0-0.1,0.1-0.3,0.2-0.4L27,3.5l0.2-0.1c0.1-0.1,0.3-0.2,0.3-0.3c0.1-0.2,0-0.3-0.1-0.4c-0.1-0.1-0.3-0.3-0.7-0.3l-0.2,0
	c-0.2,0-0.5,0.1-0.9,0.2c-0.4,0.2-1.1,0.7-1.2,0.8l0-0.1l0,0L24.5,3c0.2-0.3,0.7-0.6,0.7-0.6l0.1-0.2c-0.1-0.2-0.2,0-0.3,0.1
	c-0.2,0.1-0.5,0.5-0.6,0.7l-0.1,0c0-0.3,0-0.7,0-1c-0.1-0.3-0.2-0.2-0.2-0.1l0,0.2c0,0,0,0.1,0,0.3c0,0.1,0,0.5,0,0.7l-0.1,0.2l0,0
	c-0.1-0.4-0.4-1.2-0.8-1.7c-0.4-0.5-0.7-0.8-1-0.7l-0.1,0c0,0-0.4,0.2-0.4,0.3c0,0.1,0,0.3,0.1,0.5l0.1,0.2l0,0.2l0,0.2
	c0,0.1,0,0.2,0,0.4l0,0.1c0,0.3,0.3,0.4,0.5,0.4l0.2,0c-0.3,0-0.7,0.1-0.8,0.2l-0.1,0.2L21.5,4l0,0.2C21.5,4.5,21.8,4.9,21.9,5
	 M33.6,4.7L33.6,4.7L33.6,4.7l0.1,0c0.2,0,0.3,0,0.5,0c0.2,0,0.3,0,0.5,0l0,0c0.1,0,0.8,0,0.9,0c0.9-0.2,1.1-0.5,1.1-0.5
	c0.3-0.4,0.5-0.9,0.4-1.2c0-0.3-0.2-0.4-0.3-0.5l0,0l-0.3-0.1l-0.2,0c0.2-0.2,0.7-0.7,1.2-0.9l0,0l0,0c0-0.1-0.1-0.2-0.4-0.3
	l-0.2-0.1l0,0l0,0c-0.1,0.4-0.4,0.8-0.7,1.1l-0.1,0l0,0l0-0.3c0.1-0.4-0.2-0.6-0.2-0.6l-0.3-0.1h0C35,1,34.4,1.3,34.4,1.4
	C34,1.7,33.9,2,33.8,2.3l-0.1,0.2c-0.1,0.3-0.1,1.5-0.1,1.6c0,0.1,0,0.3,0,0.4C33.6,4.7,33.6,4.7,33.6,4.7 M12.7,25L12.7,25
	c-0.3-0.2-0.5-0.3-0.8-0.3c-0.3,0-0.7,0.1-0.9,0.2c-0.6-0.3-1.8-0.8-2.6-0.8c0,0-0.8-0.1-1.2,0c0.3,0.5,1.1,1.1,2.7,1.5
	c0.3,0.1,0.5,0.1,0.7,0.2c0.1,0.2,0.6,1,1.4,1l0.1,0l0.1,0c0-0.1,0-0.2-0.2-0.4c-0.1-0.2-0.2-0.4-0.3-0.5c0.3,0,0.4,0,0.4-0.1l0-0.1
	c0-0.1-0.1-0.3-0.3-0.4c0.1-0.1,0.3-0.2,0.5-0.2C12.5,25.2,12.7,25.1,12.7,25 M16.8,27.9L16.8,27.9L16.8,27.9c0-0.2-0.5-0.5-1.7-1.1
	c-0.5-0.2-0.8-0.3-1-0.4c0.5,0.1,1.4,0.2,1.8,0.3l0.1,0l0.1,0c0-0.1-1.3-0.5-1.4-0.6c-0.1,0-0.2-0.1-0.2-0.1c0,0,0.1,0,0.4,0l0.2,0
	l0.1,0l0,0l0,0c0-0.1-0.9-0.5-1.3-0.5c-0.5,0-1.4,0-1.4,0l0,0l0,0c0,0,0.2,0.4,0.1,0.6l-0.1,0.2l0,0l0,0
	C13.6,26.7,16.5,27.7,16.8,27.9L16.8,27.9z M4.4,16.3c0,0-0.3,1.5,0.8,2.4c1.1,0.9,1.9,0.7,2.9,0.7c0.4,0,0-1-0.6-1.5
	c-0.3-0.3-1.5-1.1-2.1-1.3C4.8,16.4,4.4,16.3,4.4,16.3 M63,22.4c-0.1,0.2-0.4,1-0.2,0.9c0.6-0.1,1.1-0.1,1.6-0.7
	c0.5-0.6,0.2-1.5,0.2-1.5s-0.2,0.1-0.5,0.3C63.7,21.6,63.1,22.2,63,22.4 M63,25.9c-0.2-0.1-1-0.3-1-0.1c0.2,0.5,0.2,1.1,0.8,1.5
	c0.7,0.5,1.5,0.1,1.5,0.1s-0.1-0.2-0.3-0.5C63.9,26.6,63.2,26,63,25.9 M3.5,21.2c0.3-0.1-0.7-0.6-1-0.7c-0.3-0.1-1.4-0.1-1.8,0
	C0.3,20.6,0,20.7,0,20.7s0.4,1,1.4,1.2C2.4,22.1,2.9,21.6,3.5,21.2 M37.2,22.7c0.6,0.6,0.6,1,0.5,1.7c-0.7-0.8-0.7-1.6-2.9-2
	C34.9,22.4,36,21.6,37.2,22.7 M33.4,30c0.7-1.1,0.8-2.3,3.4-3.3c1.9-0.9,1.7-2.3,1.6-3.4c-0.2-1.4-3.1-3-4.6-0.8
	c0,0-1.2-1.4-3.1-0.7c-1.9,0.6-1.6,3.4-0.5,4.4C31.3,27.2,33,28.1,33.4,30 M46.3,13.4c0.1,0.2,0.2,0.6,0.2,0.6s-0.3,0-0.6-0.1
	c0-0.6-0.6-1-1.2-1.4C44.7,12.6,45.8,12.4,46.3,13.4 M42.5,13.6c-0.4,0.8-0.3,1.9,0.2,2.7c0.6,0.9,1.2,1.9,2.2,2
	c-0.3,0.2-0.8,0.5-0.8,0.9c0,0.2,0.1,0.5,0.2,0.8c0.4,0.7,0.8,1.1,1.1,1.4c0.3,0.3,0.5,0.6,0.7,1.3c0.2,0.5,0.3,1.2,0.3,1.8
	c0,1.1-0.3,2.3-1.2,3.2c-1,1-1.2,1-1.9,1.7c-0.4,0.3-1.2,1.4-1.6,1.7c-0.1,0.1-0.5,0.4-0.6,0.5c-0.3,0.2-0.8,0.6-1.9,0.7
	c-0.5,0-1.2,0-1.6-0.5C37,31,37,31,36.8,30.5c-0.2-0.4-0.2-0.7-0.2-0.8c0-0.4,0-0.6,0.1-0.9c0.2-0.4,0.4-0.8,0.8-1l0.4-0.2
	c0.3-0.1,0.6-0.2,1.2-0.1c0.8,0.1,1.4,0.4,1.6,0.9c0.2,0.3,0.3,0.7,0.3,1.1c0,0.2,0,0.4-0.1,0.6l0,0.1c-0.1,0.5-0.3,0.7-0.7,0.9
	c-0.5,0.2-1.1,0.3-1.8,0c-0.7-0.4-0.8-0.7-0.9-1.1l0-0.1c0-0.1,0-0.2,0-0.3c0-0.2,0-0.4,0.2-0.7c0.3-0.5,0.5-0.6,0.9-0.6
	c0.3,0,0.8,0,1,0.1c0.2,0.2,0.6,0.3,0.7,0.9c0.1,0.5-0.1,0.8-0.2,0.9c-0.2,0.3-0.6,0.5-1,0.3c-0.5-0.2-0.6-0.3-0.7-0.6
	c0-0.1-0.1-0.3-0.1-0.4c0-0.2,0-0.3,0.1-0.3c0.2-0.2,0.4-0.3,0.6-0.3c0.2,0,0.5,0.1,0.5,0.3l0,0.1c0,0.2,0,0.3-0.1,0.3l-0.2,0l0-0.1
	l0-0.1l0-0.1l-0.1-0.1c-0.1,0-0.3,0-0.4,0.1l-0.1,0.3l0,0.1c0,0,0,0.4,0.4,0.5c0.2,0,0.4,0,0.5-0.1c0.5-0.2,0.4-0.7,0.4-0.8
	c0-0.4-0.5-0.7-0.7-0.8C39,28.5,38.4,28.4,38,29c-0.1,0.2-0.1,0.5-0.1,0.7c0,0.4,0.2,0.7,0.5,1c0.4,0.2,1.5,0.5,1.9-0.2
	c0.5-0.8,0.2-1.4,0.2-1.4c-0.1-0.7-0.7-1-0.9-1.1c-0.2-0.1-1.3-0.2-2,0.2c-1,0.7-0.6,1.7-0.6,1.8c0,0.6,0.5,1.3,1.1,1.6
	c0.9,0.4,2.3,0.2,2.9-0.6c0.4-0.6,0.6-1.1,0.5-1.7c-0.1-1.6-1.1-2-1.6-2.2c-0.5-0.2-2.4-0.5-3.4,0.4c-0.5,0.4-0.9,0.9-1,1.5
	c-0.1,0.9,0.2,1.5,0.2,1.6c0,0.3,0.8,1.7,1.9,2.1c2.4,0.8,3.9-0.8,4.2-1.1c0,0,1.4-1.4,1.9-1.8c0.7-0.6,0.9-0.8,1.8-1.7
	c1.1-1.1,1.4-2.4,1.4-3.6c0-0.8-0.1-1.5-0.3-2c-0.2-0.8-0.5-1.2-0.9-1.5c-0.4-0.3-0.7-0.6-1-1.2c-0.1-0.2-0.1-0.4-0.1-0.5
	c0-0.6,0.5-0.8,0.6-0.8l0,0l0,0l0,0l-0.1,0.1c-0.1,0.2,0.1,0.3,0.4,0.2c0.3-0.1,0.6-0.2,0.4-0.4c-0.2-0.1-0.3-0.2-0.3-0.3
	c0.8-0.3,1.3-1.2,1.4-2.6c0.1-0.9-0.2-1.9-0.8-2.6c-0.5-0.6-1.3-0.9-2.2-0.7C43.2,12.4,42.7,13.1,42.5,13.6 M49,13
	c0,0,0.2,0.2,0.2,0.5c0,0.2-0.3,0.4-0.5,0.3C49.2,13.6,49,13,49,13 M48.8,12.1L48.8,12.1c-0.1,0.1-0.7,1-0.7,1.4
	c0,0.4,0.3,0.7,0.7,0.7c0,0,0.3,0,0.6-0.2c0.1-0.1,0.2-0.3,0.2-0.5C49.5,13.2,48.8,12.2,48.8,12.1L48.8,12.1z M60.4,15.6
	c-0.3,0.1-0.5,0.5-0.3,0.8c-0.1,0-0.3,0-0.4,0.1c-0.2,0.1-0.3,0.4-0.2,0.7c-0.2,0.2-0.3,0.3-0.2,0.6c0.1,0.3,0.4,0.5,0.7,0.5l0,0.1
	c0.1,0.2,0.3,0.3,0.6,0.3c0,0.2,0,0.2,0.1,0.3c0.1,0.1,0.1,0.1,0.3,0.1c-0.1,0.1-0.1,0.3-0.1,0.4c0,0.1,0.1,0.2,0.3,0.3
	c-0.1,0.2-0.1,0.4,0,0.5c0.1,0.3,0.4,0.4,0.7,0.4l0.1,0.2c0.2,0.3,0.5,0.3,0.8,0.2l0.1,0.1c0.2,0.2,0.5,0.2,0.6,0l0,0l0,0l0.2,0
	l0-0.2l-0.1-0.1c0-0.2,0-0.3-0.1-0.4c-0.1-0.1-0.3-0.2-0.4-0.1l-0.1-0.1C62.7,20,62.5,20,62.3,20l0-0.1l-0.2-0.2
	c0.1-0.2,0.1-0.4,0.1-0.6c-0.1-0.1-0.2-0.3-0.3-0.4c0.2-0.2,0.1-0.5,0-0.7c-0.1-0.2-0.4-0.2-0.6-0.2l0-0.2c-0.1-0.2-0.2-0.3-0.6-0.3
	l0.2,0l0.1,0c0.4-0.1,0.7-0.5,0.6-0.9l0.6-0.3l0.1-0.1L62,15.9l-0.6,0.3c0-0.1-0.1-0.2-0.2-0.3l0.4-0.5l0-0.2l-0.2,0L61,15.7
	C60.8,15.6,60.6,15.5,60.4,15.6 M58.2,16.7c0.5-0.2,1-0.2,1.4-0.5c-0.1-0.1-0.2-0.2-0.2-0.4c0-0.2,0.2-0.4,0.4-0.4l0,0l0-0.2
	c0-0.3,0.2-0.5,0.5-0.5l0.1,0c0.4,0,0.3-0.2,0.3-0.3c0-0.6-0.2-1-0.2-1s-0.6,0.2-1,0.4c-0.4,0.3-0.9,0.8-1.1,1.4
	C58.3,15.6,57.9,16.8,58.2,16.7 M45.8,11.1c0.2,1.1,0.8,0.8,1.2,0.5c0.2,0.3,1.1,0.9,1.7,0c0.5,0.3,1.2-0.1,1.1-0.8
	c0-0.6-0.4-1.1-1.2-0.6c0,0-0.2-0.9-1.1-0.8c-0.9,0.1-1,0.6-1,0.6S45.6,10,45.8,11.1 M26.2,8.6c0,0,2.5,0.2,2.9,0.2
	c0.4,0,0.3,0.6,0.3,0.6L29.4,12l0,0.6c0,0.6-0.5,0.5-0.5,0.5S26.5,13.1,26,13c-0.5-0.1-0.4-0.5-0.4-0.5s0.2-3.1,0.2-3.6
	C25.9,8.5,26.2,8.6,26.2,8.6 M27.8,13.8c-0.1,0.2-0.2,0.3-0.4,0.2c-0.2-0.1-0.3-0.2-0.2-0.4c0.1-0.2,0.2-0.3,0.4-0.2
	C27.8,13.5,27.9,13.7,27.8,13.8 M25.2,8.2c-0.1,0.7-0.5,5.5-0.5,5.5s-0.1,0.6,0.6,0.7c0.6,0.1,4,0.2,4,0.2s0.7,0.1,0.8-0.8
	c0-0.9,0-1.6,0-1.6l0.1-3.4c0,0,0.1-0.8-0.5-0.8c-0.5,0-4-0.3-4-0.3S25.2,7.5,25.2,8.2 M26.5,12.5c0,0,1.1,0,1.8,0
	c0.7,0.1,0.6-0.4,0.6-0.4S29,10.3,29,9.9c0-0.4-0.2-0.4-0.2-0.4l-2.1-0.1c-0.5-0.1-0.4,0.4-0.4,0.4s-0.1,1.6-0.1,2.2
	C26.1,12.6,26.5,12.5,26.5,12.5 M49.1,20.3C49,19.9,49,19.7,49,19.7c-1.2,1.6-1.3,3.7-1.2,4.6c0.1,1,0.4,1.7,0.7,1.9
	c-0.7-3.5,0.8-5.6,0.8-5.6S49.2,20.5,49.1,20.3 M47,19.1c-0.3-0.2-0.7-0.3-0.7-0.3s-0.5,2,1.5,2.5C47.8,21.4,48.5,19.8,47,19.1
	 M51.6,22c0.3-0.3,0.5-0.6,0.5-0.6s-2.1-1-3,1C49,22.3,50.5,23.4,51.6,22 M23,30.6c1.1-3.8,2.4-3.8,2.4-3.8c-1.3-1-2.4,0.3-2.6,1.5
	c-0.3,0.9-0.4,1.5-0.9,0.9c-0.2-0.3-0.3,0.6,0.1,1.1C21.9,30.3,22.7,31.3,23,30.6 M51.2,18.7c-0.7,0-1.3-0.6-1.3-1.3
	c0-0.7,0.6-1.3,1.3-1.3c0.7,0,1.3,0.6,1.3,1.3C52.5,18.1,51.9,18.7,51.2,18.7 M54.2,15.7c-0.4-0.2-0.8-0.2-1.1-0.1
	c0.2-0.3,0.2-0.8-0.1-1.1c-0.4-0.6-1.1-0.8-1.7-0.5c-0.4,0.2-0.6,0.5-0.6,0.9c-0.2-0.3-0.6-0.5-1-0.5c-0.7,0-1.3,0.5-1.3,1.2
	c0,0.4,0.2,0.8,0.5,1c-0.4,0-0.8,0.2-1,0.6c-0.4,0.6-0.2,1.3,0.5,1.7c0.4,0.2,0.8,0.2,1.1,0.1c-0.2,0.3-0.2,0.8,0.1,1.1
	c0.3,0.6,1.1,0.8,1.7,0.5c0.4-0.2,0.6-0.5,0.6-0.9c0.2,0.3,0.6,0.5,1,0.5c0.7,0,1.3-0.5,1.3-1.2c0-0.4-0.2-0.8-0.5-1
	c0.4,0,0.8-0.2,1-0.6C55,16.9,54.8,16.1,54.2,15.7 M23.2,12.8L23,13.1l0.1,0.4l0.3,0.2l0.4,0l0.3-0.2l0.1-0.4l-0.2-0.3l-0.4-0.1
	L23.2,12.8z M4.2,25.2L4,23.7l-0.1-0.1l-1.5-0.3l-0.1,0.1l-0.7,1.3l0,0.1l1,1.1l0.1,0l1.4-0.6L4.2,25.2z M43.8,30.7
	c-0.2,0.2-0.4,0.4,0.1,0.2c0.3-0.1,3-1.7,3-1.7s-0.4-0.1-0.5-0.5C46.3,28.8,44.6,30.1,43.8,30.7 M56,23.9c0,0.2,0,0.5,0.1,0.8
	c0.1,0.2,0.2,0.8,0.2,0.9c0,0.2,0.5-0.5,0.8-0.8c0.3-0.3,0.4-0.3,0.3-0.7c0,0,0-0.2-0.3-0.3L57,23.7l0,0l0-0.2c0.1,0,0.2,0,0.2-0.1
	c0-0.1,0-0.2-0.3-0.2c-0.1,0-0.3-0.2-0.3,0c0,0.2,0.2,0.1,0.1,0.3C56.4,23.6,56.1,23.6,56,23.9 M55.5,24.7c-0.4,0-0.2,0.2,0,0.3
	c0.4,0.2,0.7,0.7,0.8,0.6C56.2,25.6,55.8,24.7,55.5,24.7 M56.9,25.4c0.2-0.1,0.6-0.2,0.8-0.2c0.1,0,0.3,0.1,0.4,0
	c0.1-0.1,0-0.3-0.2-0.4C57.4,24.7,56.9,25.4,56.9,25.4 M11.6,20.6c0,0,0.6-0.9,1-1.1c0.2,0.2,0.3,0.3,0.3,0.3s0.2,0.3,0.4-0.5
	c0.1-0.4,0.2-0.6,0.1-0.8c-0.1-0.2-0.3-0.2-0.6-0.2c-0.8,0-0.9,0.1-1.1,0.1c-0.2,0.1,0,0.4,0.3,0.6c0,0-0.8,0.3-1,1.4
	C11.1,20.5,10.9,21.5,11.6,20.6 M24.2,9.6c-0.4-0.1-1,0.3-1.2,0.4c-0.3,0.1-0.2,0.7-0.2,0.7s0.3,1.5,0.3,1.7c0,0.2,0.2,0.2,0.2,0.2
	s0.2-0.1,0.4-0.1c0.1,0,0.3,0.1,0.3-0.1c0-0.2,0.3-2.2,0.3-2.4C24.4,9.6,24.2,9.6,24.2,9.6 M47.7,4.1c-0.8,0-1.4,0.6-1.4,1.4
	c0,0.8,0.6,1.4,1.4,1.4c0.8,0,1.4-0.6,1.4-1.4C49.2,4.8,48.5,4.1,47.7,4.1 M4.4,15.8c0,0,0.8,0.1,1.1,0c0.3-0.1,0.2-0.5,0-0.7
	c-0.1-0.2,0.4-0.3,0.5-0.4c0.1-0.1-0.9-0.4-1.1-0.1c-0.3,0.3,0,0.5,0.1,0.7C4.8,15.3,4,15.7,4.4,15.8 M5.1,13.7c0.1,0.4,1,0.6,1,0.5
	c0-0.1-0.4-0.5-0.2-0.6c0.3-0.1,0.5-0.4,0.3-0.6c-0.2-0.2-1-0.5-1-0.5C5,12.3,5.4,13,5.5,13.2C5.4,13.3,5.1,13.3,5.1,13.7
	 M56.3,19.4c-0.2-0.1-0.3,0.2-0.3,0.6c0,0,0.2,0.7-0.4,0.7c-1.5,0-1,0.7-0.8,0.9c0.3,0.6,1.1-0.4,1.3,0.7c0,0.3-0.1,0.7-0.1,0.9
	c0,0.2,0.2,0.1,0.7-0.5c0.3-0.4,0.4,0.5,0.7,0.5c0.3,0,0.9-0.4,0.6-1c-0.3-0.5,0-0.5-0.1-1.1c-0.1-0.6-0.1-0.4-0.4-0.5
	c-0.3-0.1-0.2-0.5-0.4-0.8c-0.1-0.3-0.3,0-0.5,0.2C56.4,20.2,56.5,19.4,56.3,19.4 M58.7,22.1c0,0-0.3,0.2,0,0.5
	c0.4,0.3,0.5,0.4,0.7,0.7c0.2,0.3,0.8,0.3,0.8-0.2c0-0.5,0.1-0.8-0.4-0.9C59.3,22.1,59.2,22,58.7,22.1 M59,24.7
	c0.2-0.2,0.4-0.7,0.1-1c-0.3-0.4-0.5-1-0.9-0.7c0,0-0.3,0.2-0.3,0.6c0,0.4,0.4,0.4,0.5,0.9C58.6,25,58.9,24.9,59,24.7 M58.4,20
	c0,0-0.7,0.1-0.4,0.6c0.2,0.5,0.6,0.1,0.7,0C58.7,20.4,58.8,20,58.4,20 M57.7,19.7c0-0.2,0-0.4-0.4-0.4c0,0-0.2,0.2-0.1,0.4
	C57.2,20,57.6,19.9,57.7,19.7 M59.1,21.2c-0.2,0-0.6-0.1-0.8-0.1c-0.2,0-0.3,0.1,0,0.2c0.3,0.1,0.4,0.2,0.8,0.3
	c0.4,0.1,0.5,0,0.4-0.2C59.3,21.3,59.1,21.2,59.1,21.2 M56.1,15.5c0,0-0.5-0.2-0.7,0.4c-0.2,0.6-0.1,0.7-0.1,1.2
	c0.1,0.5,0.2,0.6,0.3,1c0.1,0.4,0.3,0.8,0.6,0.9c0.2,0.1,0.2-0.3,0.1-0.8c-0.1-0.5-0.2-0.7-0.2-1c0-0.3,0.4-0.6,0.4-1
	C56.4,15.8,56.3,15.4,56.1,15.5 M53.7,20.8c0,0-0.6-0.2-0.9-0.1c-0.3,0.1-0.4,0.6,0,0.7c0.3,0.1,0,0.3-0.1,0.5
	c-0.1,0.2-0.2,0.5,0.3,0.4c0.5-0.2,0.8-0.4,1-0.5c0.2-0.1,0.3-0.1,0.3-0.3C54.3,21.1,54.5,20.9,53.7,20.8 M55.5,20.3
	c0.2-0.1,0.1-0.4,0.3-0.6c0.1-0.2,0.1-0.3-0.1-0.4c-0.1-0.1-0.1-0.3-0.3-0.4c-0.2-0.1-0.3,0-0.4,0.2c0,0-0.5,0.5-0.2,0.8
	S55.2,20.4,55.5,20.3 M57.1,18c0,0-0.4-0.4-0.5,0.1c-0.1,0.4,0,0.6,0,0.8c0,0.2,0.3,0,0.4-0.3C57.1,18.4,57.3,18.2,57.1,18
	 M27.1,7.2c0,0.2,0.1,0.3,0.3,0.3c0.2,0,0.3-0.1,0.3-0.3c0-0.2-0.1-0.3-0.3-0.3C27.2,6.9,27.1,7,27.1,7.2 M28,7.1
	c0.1,0.2,0.1,0.3,0.3,0.3c0.2,0,0.2-0.3,0-0.5c-0.1-0.2-0.4-0.7-0.9-0.7c-0.5,0-0.6,0.2-0.9,0.5c0,0-0.2,0.2-0.1,0.4
	c0.1,0.1,0.2,0.2,0.3,0c0.1-0.2,0.3-0.6,0.7-0.5C27.9,6.7,28,7,28,7.1 M26.1,6.2c0,0-0.3,0.3-0.2,0.5c0.1,0.2,0.3,0.2,0.4,0
	c0.2-0.2,0.6-0.8,1.2-0.7c0.7,0.1,0.8,0.5,1,0.7c0.1,0.2,0.3,0.5,0.6,0.4c0.1,0,0-0.4-0.2-0.7c-0.2-0.3-0.5-1-1.4-0.9
	C26.6,5.5,26.6,5.7,26.1,6.2 M6.9,14.9c0.3,0.1,0.6-0.2,0.6-0.2l-0.4-0.2c0,0-0.3,0.1-0.5,0.3C6.5,14.9,6.7,14.9,6.9,14.9 M46.1,9.1
	c0.7,0.5,1.3-0.4,1.5-0.6c-0.3,0-0.6-0.3-1.1-0.2C46,8.4,46.1,9.1,46.1,9.1 M44.8,11.8c0,0,0.1-1,0.8-2.1c-0.1,0-0.2,0-0.2,0
	s-0.8,0.8-1,1.9C44.6,11.6,44.8,11.8,44.8,11.8 M41.8,27.8c0.4,0.4,0.5,0.9,0.5,1.5c0.7-0.8,1.5-0.8,2-1.9
	C44.3,27.4,43.1,28.1,41.8,27.8 M46.9,4c0,0,0.3-0.1,0.4-0.1L47,3.1l-0.1,0.4C46.9,3.6,46.8,4,46.9,4 M47.5,3.9c0.1,0,0.4,0,0.4,0
	L48,3.8l-0.2-0.6L47.7,3l-0.1,0.2L47.5,3.9C47.5,3.8,47.4,3.9,47.5,3.9 M48.1,3.9l0.4,0.1c0,0,0.1,0,0.1-0.1c0-0.3,0.1-0.6,0.1-0.7
	l-0.1-0.1l-0.5,0.7L48.1,3.9z M48.6,7.1c0,0-0.3,0.1-0.4,0.2L48.8,8l0-0.4C48.8,7.5,48.7,7.1,48.6,7.1 M48,8.2L48.1,8l0.1-0.6
	c0,0,0-0.1-0.1-0.1c-0.1,0-0.4,0-0.4,0l-0.1,0.1L47.8,8L48,8.2z M47,8.1l0.5-0.7l0-0.1L47,7.2c0,0-0.1,0-0.1,0.1c0,0.3,0,0.6,0,0.7
	L47,8.1z M46.2,7.8l0.6-0.5l0-0.1l-0.4-0.2c0,0-0.1,0-0.1,0.1c-0.1,0.3-0.2,0.6-0.2,0.7L46.2,7.8z M48.7,4.2
	c0.1,0.1,0.4,0.3,0.4,0.3s0.1,0.1,0.1,0c0.1-0.1,0.3-0.8,0.3-0.8V3.7L48.8,4C48.8,4,48.6,4.1,48.7,4.2 M46,6.4
	C45.9,6.5,45.5,7,45.5,7l0,0.1l0.8-0.1c0,0,0.3,0,0.2-0.2c-0.1-0.1-0.3-0.4-0.3-0.4S46.1,6.2,46,6.4 M49.2,4.6l0,0.1l0.2,0.4
	c0,0,0.1,0.2,0.3,0c0.2-0.1,0.5-0.4,0.5-0.5c0.1-0.1,0.1-0.1-0.1-0.1c-0.2,0-0.7,0-0.7,0L49.2,4.6z M45.2,5.1l0.7,0.4l0.1,0l0.1-0.5
	c0,0,0-0.1-0.1-0.1C45.6,5,45.3,5,45.2,5.1L45.2,5.1z M46.1,4.9c0.1-0.1,0.2-0.4,0.2-0.4s0.1-0.1-0.1-0.1c-0.1,0-0.7-0.1-0.7-0.1
	l-0.1,0l0.5,0.5C45.9,4.8,46.1,5,46.1,4.9 M46.2,4.1l0.1,0.2l0.1,0l0.3-0.2c0,0,0.2-0.1,0-0.3c-0.1-0.2-0.6-0.4-0.6-0.5
	C46.1,3.3,46,3.3,46,3.5C46,3.7,46.2,4.1,46.2,4.1 M45.2,6c0.2,0,0.7,0.2,0.7,0.2l0.2,0l0-0.1L46,5.7c0,0,0-0.2-0.2-0.1
	C45.5,5.7,45.2,5.9,45.2,6C45,5.9,45,6,45.2,6 M49.5,6l-0.1,0l-0.2,0.4c0,0,0,0.1,0.1,0.1c0.3,0.1,0.7,0.1,0.8,0.1l0.1-0.1L49.5,6z
	 M49.5,7.4L49.5,7.4l-0.3-0.6c0,0-0.1-0.2-0.2-0.1C48.9,6.8,48.8,7,48.8,7s-0.1,0.1,0,0.1C48.9,7.2,49.5,7.4,49.5,7.4 M49.4,5.3
	l-0.1,0.1l0,0.4c0,0,0,0.2,0.2,0.1c0.2,0,0.6-0.1,0.7-0.1c0.1,0,0.1,0,0-0.1c-0.2-0.1-0.7-0.4-0.7-0.4L49.4,5.3z M76.2,18.6
	L76.2,18.6c0-4.6,3.5-8.3,8.3-8.3c4.8,0,8.2,3.7,8.2,8.2v0c0,4.5-3.5,8.2-8.3,8.2C79.7,26.7,76.2,23.1,76.2,18.6z M89.2,18.6
	L89.2,18.6c0-2.8-2-5-4.7-5c-2.8,0-4.7,2.2-4.7,4.9v0c0,2.7,2,5,4.7,5C87.3,23.5,89.2,21.3,89.2,18.6z M95.1,15.9
	c0-1,0.8-1.7,1.7-1.7c0.9,0,1.7,0.8,1.7,1.7V16c0.8-1,1.8-2,3.5-2c2.6,0,4,1.7,4,4.5v6.3c0,1-0.8,1.7-1.7,1.7
	c-0.9,0-1.7-0.8-1.7-1.7v-5.2c0-1.6-0.8-2.5-2-2.5c-1.3,0-2.1,0.8-2.1,2.5v5.2c0,1-0.8,1.7-1.7,1.7c-0.9,0-1.7-0.8-1.7-1.7V15.9z
	 M108.6,11.5c0-1,0.8-1.7,1.7-1.7c0.9,0,1.7,0.8,1.7,1.7v13.4c0,1-0.8,1.7-1.7,1.7c-0.9,0-1.7-0.8-1.7-1.7V11.5z M114.9,29.8
	c-0.5-0.2-1.1-0.6-1.1-1.4s0.6-1.4,1.3-1.4c0.3,0,0.4,0,0.6,0.1c0.3,0.1,0.5,0.1,0.7,0.1c0.6,0,0.9-0.1,1.2-0.7l0.1-0.3l-4.1-9.6
	c-0.1-0.2-0.2-0.6-0.2-0.8c0-1,0.7-1.7,1.7-1.7c0.8,0,1.3,0.5,1.6,1.3l2.6,7.1l2.5-7.1c0.3-0.7,0.8-1.3,1.6-1.3
	c0.9,0,1.6,0.7,1.6,1.6c0,0.3-0.1,0.7-0.2,0.8l-4.2,10.2c-1,2.5-2,3.4-4,3.4C116,30.1,115.5,30,114.9,29.8z M132.6,24.2l5.4-12.5
	c0.4-0.9,1.1-1.4,2-1.4h0.2c0.9,0,1.6,0.5,2,1.4l5.4,12.5c0.1,0.2,0.2,0.5,0.2,0.7c0,0.9-0.7,1.7-1.6,1.7c-0.8,0-1.3-0.5-1.6-1.2
	l-1-2.5h-6.8l-1.1,2.6c-0.3,0.7-0.9,1.1-1.6,1.1c-0.9,0-1.6-0.7-1.6-1.6C132.4,24.7,132.5,24.5,132.6,24.2z M142.3,19.8l-2.2-5.2
	l-2.2,5.2H142.3z M149.5,11.5c0-1,0.8-1.7,1.7-1.7c0.9,0,1.7,0.8,1.7,1.7V16c0.8-1.1,2-2,3.7-2c2.8,0,5.4,2.2,5.4,6.3v0
	c0,4.1-2.6,6.3-5.4,6.3c-1.8,0-2.9-0.8-3.7-1.8v0c0,0.9-0.8,1.7-1.7,1.7c-0.9,0-1.7-0.8-1.7-1.7V11.5z M158.7,20.4L158.7,20.4
	c0-2.1-1.3-3.4-2.9-3.4c-1.6,0-2.9,1.3-2.9,3.4v0c0,2,1.3,3.4,2.9,3.4C157.4,23.7,158.7,22.4,158.7,20.4z M163.4,20.4L163.4,20.4
	c0-3.5,2.8-6.4,6.5-6.4c3.7,0,6.4,2.8,6.4,6.3v0c0,3.5-2.8,6.3-6.5,6.3C166.2,26.7,163.4,23.9,163.4,20.4z M173,20.4L173,20.4
	c0-1.8-1.3-3.4-3.1-3.4c-1.9,0-3.1,1.5-3.1,3.3v0c0,1.8,1.3,3.4,3.1,3.4C171.8,23.7,173,22.2,173,20.4z M189,24.9
	c0,1-0.8,1.7-1.7,1.7c-0.9,0-1.7-0.8-1.7-1.7v-0.1c-0.8,1-1.8,2-3.5,2c-2.6,0-4-1.7-4-4.5v-6.3c0-1,0.8-1.7,1.7-1.7
	c0.9,0,1.7,0.8,1.7,1.7v5.2c0,1.6,0.8,2.5,2,2.5c1.3,0,2.1-0.8,2.1-2.5v-5.2c0-1,0.8-1.7,1.7-1.7c0.9,0,1.7,0.8,1.7,1.7V24.9z
	 M192.1,23v-5.8H192c-0.8,0-1.4-0.7-1.4-1.5c0-0.8,0.6-1.5,1.4-1.5h0.1v-1.5c0-1,0.8-1.7,1.7-1.7c0.9,0,1.7,0.8,1.7,1.7v1.5h1.5
	c0.8,0,1.4,0.7,1.4,1.5c0,0.8-0.6,1.5-1.4,1.5h-1.5v5.2c0,0.8,0.3,1.2,1.1,1.2c0.1,0,0.3,0,0.4,0c0.8,0,1.4,0.6,1.4,1.4
	c0,0.6-0.4,1.1-0.9,1.3c-0.6,0.2-1.2,0.3-1.9,0.3C193.5,26.7,192.1,25.8,192.1,23z M76.2,44.3L76.2,44.3c0-6.3,4.6-11.4,11.2-11.4
	c3.2,0,5.4,0.9,7.2,2.2c0.5,0.4,0.9,1.1,0.9,1.9c0,1.3-1,2.3-2.3,2.3c-0.6,0-1.1-0.3-1.4-0.5c-1.3-1-2.7-1.6-4.4-1.6
	c-3.6,0-6.2,3.1-6.2,6.8v0.1c0,3.8,2.5,6.9,6.2,6.9c2,0,3.3-0.6,4.7-1.7c0.4-0.3,0.9-0.5,1.4-0.5c1.2,0,2.2,1,2.2,2.2
	c0,0.8-0.4,1.3-0.8,1.7c-1.9,1.7-4.2,2.8-7.6,2.8C80.9,55.6,76.2,50.6,76.2,44.3z M98.5,34.6c0-1.3,1-2.4,2.3-2.4s2.3,1.1,2.3,2.4
	v6.3c1.1-1.4,2.5-2.7,4.8-2.7c3.5,0,5.6,2.4,5.6,6.2V53c0,1.3-1,2.4-2.3,2.4c-1.3,0-2.3-1.1-2.3-2.4v-7.2c0-2.3-1-3.4-2.8-3.4
	c-1.8,0-2.9,1.2-2.9,3.4V53c0,1.3-1,2.4-2.3,2.4s-2.3-1.1-2.3-2.4V34.6z M116.7,34.4c0-1.4,1.1-2.2,2.6-2.2s2.6,0.8,2.6,2.2v0.1
	c0,1.4-1.1,2.3-2.6,2.3S116.7,35.9,116.7,34.4L116.7,34.4z M117,40.6c0-1.3,1-2.4,2.3-2.4s2.3,1.1,2.3,2.4V53c0,1.3-1,2.4-2.3,2.4
	S117,54.3,117,53V40.6z M125.4,34.6c0-1.3,1-2.4,2.3-2.4c1.3,0,2.3,1.1,2.3,2.4V53c0,1.3-1,2.4-2.3,2.4c-1.3,0-2.3-1.1-2.3-2.4V34.6
	z M150.2,53c0,1.3-1,2.4-2.3,2.4c-1.3,0-2.3-1.1-2.3-2.4v-0.2c-1.1,1.6-2.7,2.7-5.1,2.7c-3.8,0-7.5-3.1-7.5-8.7v-0.1
	c0-5.6,3.6-8.7,7.5-8.7c2.5,0,4,1.2,5.1,2.5v-6.1c0-1.3,1-2.4,2.3-2.4c1.3,0,2.3,1.1,2.3,2.4V53z M137.6,46.8L137.6,46.8
	c0,2.8,1.8,4.7,4,4.7s4-1.8,4-4.6v-0.1c0-2.8-1.8-4.6-4-4.6S137.6,44,137.6,46.8z M153.8,40.6c0-1.3,1-2.4,2.3-2.4
	c1.3,0,2.3,1.1,2.3,2.4v0.8c0.7-1.6,1.8-3.1,3.2-3.1c1.4,0,2.3,1,2.3,2.3c0,1.3-0.8,2-1.7,2.2c-2.4,0.6-3.7,2.4-3.7,5.8V53
	c0,1.3-1,2.4-2.3,2.4c-1.3,0-2.3-1.1-2.3-2.4V40.6z M173.2,55.6c-4.9,0-8.6-3.5-8.6-8.7v-0.1c0-4.8,3.3-8.7,8.1-8.7
	c5.5,0,7.9,4.6,7.9,8.1c0,1.4-1,2.3-2.2,2.3h-9.2c0.5,2.2,1.9,3.3,4,3.3c1.3,0,2.4-0.4,3.3-1.1c0.3-0.2,0.6-0.4,1.1-0.4
	c1,0,1.8,0.8,1.8,1.9c0,0.6-0.3,1.1-0.6,1.4C177.4,54.8,175.6,55.6,173.2,55.6z M176.2,45.5c-0.3-2.1-1.5-3.6-3.5-3.6
	c-1.9,0-3.2,1.4-3.6,3.6H176.2z M183.4,40.6c0-1.3,1-2.4,2.3-2.4s2.3,1.1,2.3,2.4v0.2c1.1-1.4,2.5-2.7,4.8-2.7
	c3.5,0,5.6,2.4,5.6,6.2V53c0,1.3-1,2.4-2.3,2.4c-1.3,0-2.3-1.1-2.3-2.4v-7.2c0-2.3-1-3.4-2.8-3.4c-1.8,0-2.9,1.2-2.9,3.4V53
	c0,1.3-1,2.4-2.3,2.4s-2.3-1.1-2.3-2.4V40.6z"/>
</svg>
