<?xml version="1.0" encoding="UTF-8"?>
<svg width="313px" height="70px" viewBox="0 0 313 70" version="1.1" xmlns="http://www.w3.org/2000/svg" xmlns:xlink="http://www.w3.org/1999/xlink">
    <!-- Generator: Sketch 52.2 (67145) - http://www.bohemiancoding.com/sketch -->
    <title>Asset 1</title>
    <desc>Created with Sketch.</desc>
    <defs>
        <linearGradient x1="44.1733231%" y1="74.0369615%" x2="82.1315242%" y2="11.2864515%" id="linearGradient-1">
            <stop stop-color="#2D4464" offset="0%"/>
            <stop stop-color="#335474" offset="16%"/>
            <stop stop-color="#3A6584" offset="40%"/>
            <stop stop-color="#3E6F8E" offset="67%"/>
            <stop stop-color="#3F7291" offset="100%"/>
        </linearGradient>
        <linearGradient x1="39.4636015%" y1="28.7771511%" x2="52.8626163%" y2="90.6036241%" id="linearGradient-2">
            <stop stop-color="#6395AC" offset="0%"/>
            <stop stop-color="#5D8FA8" offset="7%"/>
            <stop stop-color="#4C7F9B" offset="34%"/>
            <stop stop-color="#427593" offset="63%"/>
            <stop stop-color="#3F7291" offset="100%"/>
        </linearGradient>
        <linearGradient x1="-181.059603%" y1="188.48898%" x2="26.1810155%" y2="76.0583479%" id="linearGradient-3">
            <stop stop-color="#395A69" offset="0%"/>
            <stop stop-color="#2E6486" offset="17%"/>
            <stop stop-color="#266B9E" offset="34%"/>
            <stop stop-color="#2071AF" offset="53%"/>
            <stop stop-color="#1C74B9" offset="74%"/>
            <stop stop-color="#1B75BC" offset="100%"/>
        </linearGradient>
        <linearGradient x1="43.0771445%" y1="53.2284159%" x2="110.621762%" y2="-51.0663333%" id="linearGradient-4">
            <stop stop-color="#395A69" offset="0%"/>
            <stop stop-color="#2E6486" offset="17%"/>
            <stop stop-color="#266B9E" offset="34%"/>
            <stop stop-color="#2071AF" offset="53%"/>
            <stop stop-color="#1C74B9" offset="74%"/>
            <stop stop-color="#1B75BC" offset="100%"/>
        </linearGradient>
        <linearGradient x1="-0.0157903048%" y1="50%" x2="100%" y2="50%" id="linearGradient-5">
            <stop stop-color="#2D4464" offset="0%"/>
            <stop stop-color="#335474" offset="16%"/>
            <stop stop-color="#3A6584" offset="40%"/>
            <stop stop-color="#3E6F8E" offset="67%"/>
            <stop stop-color="#3F7291" offset="100%"/>
        </linearGradient>
        <linearGradient x1="44.2850585%" y1="48.625945%" x2="71.5285747%" y2="74.9789992%" id="linearGradient-6">
            <stop stop-color="#95A5AF" offset="0%"/>
            <stop stop-color="#93A4AE" offset="1%"/>
            <stop stop-color="#7592A4" offset="18%"/>
            <stop stop-color="#5D849B" offset="35%"/>
            <stop stop-color="#4C7A96" offset="54%"/>
            <stop stop-color="#427492" offset="75%"/>
            <stop stop-color="#3F7291" offset="100%"/>
        </linearGradient>
        <linearGradient x1="-65.5772618%" y1="50.0127244%" x2="236.73454%" y2="50.0127244%" id="linearGradient-7">
            <stop stop-color="#2D4464" offset="0%"/>
            <stop stop-color="#335474" offset="16%"/>
            <stop stop-color="#3A6584" offset="40%"/>
            <stop stop-color="#3E6F8E" offset="67%"/>
            <stop stop-color="#3F7291" offset="100%"/>
        </linearGradient>
        <linearGradient x1="-65.3846154%" y1="50.0423036%" x2="161.83432%" y2="50.0423036%" id="linearGradient-8">
            <stop stop-color="#2D4464" offset="0%"/>
            <stop stop-color="#335474" offset="16%"/>
            <stop stop-color="#3A6584" offset="40%"/>
            <stop stop-color="#3E6F8E" offset="67%"/>
            <stop stop-color="#3F7291" offset="100%"/>
        </linearGradient>
        <linearGradient x1="-126.144221%" y1="49.9930871%" x2="152.025025%" y2="49.9930871%" id="linearGradient-9">
            <stop stop-color="#2D4464" offset="0%"/>
            <stop stop-color="#335474" offset="16%"/>
            <stop stop-color="#3A6584" offset="40%"/>
            <stop stop-color="#3E6F8E" offset="67%"/>
            <stop stop-color="#3F7291" offset="100%"/>
        </linearGradient>
        <linearGradient x1="-373.090158%" y1="50.0209381%" x2="208.327598%" y2="50.0209381%" id="linearGradient-10">
            <stop stop-color="#2D4464" offset="0%"/>
            <stop stop-color="#335474" offset="16%"/>
            <stop stop-color="#3A6584" offset="40%"/>
            <stop stop-color="#3E6F8E" offset="67%"/>
            <stop stop-color="#3F7291" offset="100%"/>
        </linearGradient>
        <linearGradient x1="-11.1621406%" y1="49.9725727%" x2="269.66853%" y2="49.9725727%" id="linearGradient-11">
            <stop stop-color="#2D4464" offset="0%"/>
            <stop stop-color="#335474" offset="16%"/>
            <stop stop-color="#3A6584" offset="40%"/>
            <stop stop-color="#3E6F8E" offset="67%"/>
            <stop stop-color="#3F7291" offset="100%"/>
        </linearGradient>
    </defs>
    <g id="Website" stroke="none" stroke-width="1" fill="none" fill-rule="evenodd">
        <g id="Appoved-Homepage" transform="translate(-10.000000, -10.000000)">
            <g id="Header" transform="translate(10.000000, 10.000000)">
                <g id="Asset-1">
                    <path d="M96.0131737,28.8928144 C96.0131737,31.7319361 95.0449102,33.9143713 93.1083832,35.4401198 C91.1718563,36.9658683 88.4011976,37.7273453 84.7964072,37.7245509 L81.5017964,37.7245509 L81.5017964,48.7443114 L78.2407186,48.7443114 L78.2407186,20.7275449 L85.508982,20.7275449 C92.508982,20.7275449 96.0103792,23.4493014 96.0131737,28.8928144 Z M81.5017964,34.9329341 L84.4359281,34.9329341 C87.3225549,34.9329341 89.4183633,34.4662675 90.7233533,33.5329341 C92.0283433,32.5996008 92.6654691,31.1045908 92.6347305,29.0479042 C92.6347305,27.1952096 92.0269461,25.8147705 90.8113772,24.9065868 C89.5958084,23.997006 87.7095808,23.548503 85.1401198,23.548503 L81.4976048,23.548503 L81.5017964,34.9329341 Z" id="Shape" fill="#004B78" fill-rule="nonzero"/>
                    <path d="M107.90479,37.1 L107.90479,48.7526946 L104.647904,48.7526946 L104.647904,20.7275449 L112.335329,20.7275449 C115.772455,20.7275449 118.312575,21.3856287 119.955689,22.7017964 C121.598802,24.0179641 122.420359,25.9992016 122.420359,28.645509 C122.420359,32.3508982 120.541118,34.8560878 116.782635,36.1610778 L124.394611,48.7359281 L120.542515,48.7359281 L113.756287,37.0832335 L107.90479,37.1 Z M107.90479,34.3 L112.373054,34.3 C114.67006,34.3 116.356487,33.8431138 117.432335,32.9293413 C118.508184,32.0155689 119.044711,30.6449102 119.041916,28.8173653 C119.041916,26.9646707 118.495609,25.6289421 117.402994,24.8101796 C116.310379,23.9914172 114.556886,23.5834331 112.142515,23.5862275 L107.90479,23.5862133 L107.90479,34.3 Z" id="Shape" fill="#004B78" fill-rule="nonzero"/>
                    <polygon id="Shape" fill="#004B78" fill-rule="nonzero" points="147.305988 48.7526946 131.683832 48.7526946 131.683832 20.7275449 147.305988 20.7275449 147.305988 23.6239521 134.940719 23.6239521 134.940719 32.6526946 146.555689 32.6526946 146.555689 35.5239521 134.940719 35.5239521 134.940719 45.839521 147.305988 45.839521"/>
                    <path d="M168.28503,23.2383234 C165.211178,23.2383234 162.78004,24.2638723 160.991617,26.3149701 C159.203194,28.3660679 158.311776,31.1744511 158.317365,34.7401198 C158.317365,38.4091816 159.178044,41.2427146 160.899401,43.2407186 C162.620758,45.2387226 165.068663,46.2391218 168.243114,46.2419162 C170.515832,46.194956 172.771778,45.8410545 174.949701,45.1898204 L174.949701,48.0443114 C173.010379,48.7736527 170.614172,49.1369261 167.761078,49.1341317 C163.633733,49.1341317 160.448104,47.8766467 158.204192,45.3616766 C155.960279,42.8467066 154.842515,39.288024 154.850898,34.6856287 C154.791399,32.0637881 155.345454,29.4643241 156.468862,27.0946108 C157.48537,24.9846941 159.115973,23.2313577 161.146707,22.0646707 C163.346818,20.8487504 165.830683,20.2397189 168.343713,20.3 C171.002939,20.2491984 173.638446,20.8084193 176.047904,21.9347305 L174.647904,24.7305389 C172.664207,23.7664247 170.490531,23.2566562 168.28503,23.2383234 Z" id="Shape" fill="#004B78" fill-rule="nonzero"/>
                    <path d="M217.729341,48.7526946 L214.007186,48.7526946 L198.682635,25.2335329 L198.527545,25.2335329 C198.731537,27.9972056 198.833533,30.5275449 198.833533,32.8245509 L198.833533,48.7526946 L195.823952,48.7526946 L195.823952,20.7275449 L199.520958,20.7275449 L214.799401,44.1502994 L214.950299,44.1502994 C214.92515,43.8065868 214.866467,42.6958084 214.778443,40.8305389 C214.690419,38.9652695 214.656886,37.6155689 214.682036,36.8107784 L214.682036,20.7275449 L217.733533,20.7275449 L217.729341,48.7526946 Z" id="Shape" fill="#004B78" fill-rule="nonzero"/>
                    <path d="M238.922156,48.7526946 L229.398802,23.9131737 L229.243713,23.9131737 C229.425349,25.8692615 229.51477,28.2067864 229.511976,30.9257485 L229.511976,48.7526946 L226.502395,48.7526946 L226.502395,20.7275449 L231.410778,20.7275449 L240.284431,43.848503 L240.439521,43.848503 L249.401198,20.7275449 L254.271856,20.7275449 L254.271856,48.7526946 L251.010778,48.7526946 L251.010778,30.6952096 C251.010778,28.6245509 251.1002,26.3764471 251.279042,23.9508982 L251.128144,23.9508982 L241.541916,48.7526946 L238.922156,48.7526946 Z" id="Shape" fill="#004B78" fill-rule="nonzero"/>
                    <path d="M282.896407,48.7526946 L279.408982,39.8413174 L268.175449,39.8413174 L264.725749,48.7526946 L261.426946,48.7526946 L272.509581,20.6143713 L275.246707,20.6143713 L286.287425,48.7526946 L282.896407,48.7526946 Z M278.390419,36.9071856 L275.133533,28.2221557 C274.711577,27.1295409 274.277046,25.7826347 273.82994,24.1814371 C273.506948,25.5508018 273.10386,26.9000281 272.622754,28.2221557 L269.323952,36.9071856 L278.390419,36.9071856 Z" id="Shape" fill="#004B78" fill-rule="nonzero"/>
                    <path d="M304.88982,23.2383234 C301.815968,23.2383234 299.38483,24.2638723 297.596407,26.3149701 C295.807984,28.3660679 294.916567,31.1744511 294.922156,34.7401198 C294.922156,38.4091816 295.781437,41.2427146 297.5,43.2407186 C299.218563,45.2387226 301.669261,46.2391218 304.852096,46.2419162 C307.124818,46.1950072 309.380771,45.8411046 311.558683,45.1898204 L311.558683,48.0443114 C309.619361,48.7736527 307.223154,49.1369261 304.37006,49.1341317 C300.245509,49.1341317 297.061277,47.8766467 294.817365,45.3616766 C292.573453,42.8467066 291.455689,39.288024 291.464072,34.6856287 C291.404572,32.0637881 291.958627,29.4643241 293.082036,27.0946108 C294.096993,24.9849902 295.726181,23.2316045 297.755689,22.0646707 C299.956169,20.8496944 302.439774,20.2407265 304.952695,20.3 C307.611261,20.2418797 310.247917,20.7924376 312.661078,21.9095808 L311.256886,24.7305389 C309.271725,23.7663518 307.096671,23.256596 304.88982,23.2383234 Z" id="Shape" fill="#004B78" fill-rule="nonzero"/>
                    <rect id="Rectangle-2" fill="#FFFFFF" transform="translate(33.340620, 34.340620) rotate(44.000000) translate(-33.340620, -34.340620) " x="10.1482323" y="11.1482323" width="46.384776" height="46.384776"/>
                    <path d="M183.806587,37.1419162 C184.812575,36.3958084 186.627545,34.6017964 187.050898,32.811976 C187.050898,36.2365269 187.050898,49.1592814 187.050898,49.1592814 L183.802395,49.1592814 L183.806587,37.1419162 Z" id="Shape" fill="#004B78"/>
                    <path d="M183.806587,36.6808383 L183.806587,33.7467066 C183.806587,33.7467066 185.181437,30.4982036 186.501796,28.951497 C187.084431,29.7898204 187.050898,31.7179641 187.050898,31.7179641 C187.050898,31.7179641 186.870659,34.2203593 183.806587,36.6808383 Z" id="Shape" fill="#004B78"/>
                    <path d="M183.806587,29.2197605 C184.120958,27.4844311 186.149701,26.5622754 187.05509,23.7203593 C187.05509,24.9568862 187.05509,27.5892216 187.05509,27.5892216 C187.05509,27.5892216 184.699401,30.548503 183.806587,33.0886228 L183.806587,29.2197605 Z" id="Shape" fill="#004B78"/>
                    <path d="M184.313772,27.1071856 C183.634731,26.0592814 183.819162,24.1730539 183.819162,24.1730539 C184.235987,22.9414852 184.781097,21.7571354 185.445509,20.639521 C185.898204,21.6832335 187.05509,21.3982036 187.05509,22.3413174 C187.05509,23.8922156 185.043114,26.8682635 184.313772,27.1071856 Z" id="Shape" fill="#004B78"/>
                    <path d="M183.810778,23.5946108 C183.759384,22.9278064 183.794608,22.2571533 183.915569,21.5994012 C184.049701,21.2431138 184.456287,21.2137725 185.11018,20.7610778 C184.521495,21.6261977 184.082254,22.5840253 183.810778,23.5946108 Z" id="Shape" fill="#004B78"/>
                    <path d="M12.5035928,38.7892216 L26.8850299,38.7892216 L26.8850299,31.1479042 L12.5035928,31.1479042 L17.0137725,26.4365269 L38.2904192,26.4365269 C37.1838323,10.0598802 33.3904192,0 33.3904192,0 L0,34.9287425 L33.3904192,69.857485 C33.3904192,69.857485 37.2215569,59.2275449 38.3071856,43.5005988 L17.0137725,43.5005988 L12.5035928,38.7892216 Z" id="Shape" fill="url(#linearGradient-1)" fill-rule="nonzero"/>
                    <path d="M12.5035928,31.1479042 L17.0137725,26.4365269 L38.2904192,26.4365269 C37.1838323,10.0598802 33.3904192,0 33.3904192,0 L0,34.9287425 L26.8850299,34.9287425 L26.8850299,31.1562874 L12.5035928,31.1479042 Z" id="Shape" fill="url(#linearGradient-2)" fill-rule="nonzero"/>
                    <path d="M33.3904192,0 C33.7259803,2.14375565 33.894153,4.3103803 33.8934132,6.48023952 C33.9012291,13.4553156 32.1480609,20.3194881 28.7964072,26.4365269 L38.2904192,26.4365269 C37.1838323,10.0598802 33.3904192,0 33.3904192,0 Z" id="Shape" fill="url(#linearGradient-3)" fill-rule="nonzero" opacity="0.2" style="mix-blend-mode: multiply;"/>
                    <path d="M14.9640719,41.3586826 C13.1245419,42.5680157 11.191695,43.6290491 9.18383234,44.5317365 L33.3904192,69.857485 C33.3904192,69.857485 37.2215569,59.2275449 38.3071856,43.5005988 L17.0137725,43.5005988 L14.9640719,41.3586826 Z" id="Shape" fill="url(#linearGradient-4)" fill-rule="nonzero" opacity="0.2" style="mix-blend-mode: multiply;"/>
                    <path d="M38.0431138,51.6113772 C37.2961578,57.3619278 36.0992733,63.045027 34.4634731,68.6083832 L66.860479,34.7191617 L34.497006,0.863473054 C36.1591713,6.45789835 37.3523204,12.1810887 38.0640719,17.9736527 L42.3562874,17.9736527 L50.7646707,26.7760479 L17.2317365,26.7760479 L13.7694611,30.4017964 L54.2353293,30.4017964 L54.2353293,39.2041916 L13.8994012,39.2041916 L17.3658683,42.8257485 L50.6221557,42.8257485 L42.2137725,51.6281437 L38.0431138,51.6113772 Z" id="Shape" fill="url(#linearGradient-5)" fill-rule="nonzero"/>
                    <path d="M33.3904192,0 L0,34.9287425 L36.5257485,12.294012 C34.8407186,3.94431138 33.3904192,0 33.3904192,0 Z" id="Shape" fill="url(#linearGradient-6)" fill-rule="nonzero"/>
                    <polygon id="Rectangle-path" fill="#FFFFFF" fill-rule="nonzero" points="26.8850299 31.1479042 52.805988 31.1479042 52.805988 38.7892216 26.8850299 38.7892216"/>
                    <path d="M33.6293413,31.7850299 C33.6293413,31.7850299 35.6706587,31.7850299 39.845509,35.3688623 C41.4400935,36.5812621 43.1212257,37.6753989 44.8754491,38.642515 C44.8754491,38.642515 42.9598802,39.9 38.0473054,37.4688623 C36.3402195,36.640826 34.8416351,35.4388066 33.6628743,33.9520958 C33.3401198,33.5329341 32.7365269,32.5269461 33.6293413,31.7850299 Z" id="Shape" fill="url(#linearGradient-7)" fill-rule="nonzero"/>
                    <path d="M51.2550898,38.642515 C50.1632019,38.0456823 49.1065649,37.3865088 48.0904192,36.6682635 C44.9634731,34.2664671 40.4407186,30.1041916 35.6706587,31.3532934 C35.6706587,31.3532934 37.4143713,31.6634731 44.3808383,37.2550898 C47.0802395,39.4011976 50.5467066,38.8856287 51.2550898,38.642515 Z" id="Shape" fill="url(#linearGradient-8)" fill-rule="nonzero"/>
                    <path d="M41.5389222,31.5670659 C41.5389222,31.5670659 44.1754491,29.6263473 48.0568862,31.9401198 C51.8293413,34.1952096 52.3113772,35.3227545 54.2688623,35.9053892 L54.2688623,38.642515 C54.2688623,38.642515 51.4982036,38.5461078 47.5035928,35.0377246 C44.5401198,32.4389222 42.0964072,31.7221557 41.5389222,31.5670659 Z" id="Shape" fill="url(#linearGradient-9)" fill-rule="nonzero"/>
                    <path d="M48.2035928,31.3239521 C48.2035928,31.3239521 50.5508982,31.9694611 51.9760479,33.2688623 C52.6791202,33.9444812 53.4567755,34.537918 54.294012,35.0377246 L54.294012,32.1035928 C52.4586114,31.0139077 50.2542959,30.7317311 48.2035928,31.3239521 Z" id="Shape" fill="url(#linearGradient-10)" fill-rule="nonzero"/>
                    <path d="M33.1934132,31.1479042 L25.791018,31.1479042 C23.6930639,33.9907171 21.2454653,36.5580199 18.505988,38.7892216 L39.4976048,38.7892216 C39.4976048,38.7892216 30.4353293,35.3772455 33.1934132,31.1479042 Z" id="Shape" fill="url(#linearGradient-11)" fill-rule="nonzero"/>
                </g>
            </g>
        </g>
    </g>
</svg>