<svg xmlns="http://www.w3.org/2000/svg" viewBox="0 0 648 105.6"><style>.st0{fill:#77787b}.st3{fill:#f7901e}</style><g id="Capa_6"><path class="st0" d="M132.3 27.9h20c7.1 0 13.8 7.6 13.8 17.1 0 8.9-6.7 16.8-13.8 16.8h-14.5v18.3c-.8.1-1.7.1-2.4.1-1.2 0-2.3-.1-3.1-.1V27.9zm28 17.1c0-7.2-4.2-12.6-9.6-12.6h-13v25.1h13c5.4 0 9.6-5.8 9.6-12.5zm29.2.4c.2.8.2 1.5.2 2.1 0 .8-.1 1.4-.2 1.9 0 0-2.7-.2-5.2-.2-3.8 0-6.8.4-6.8.4v30.6c-1.1.1-1.7.1-2.5.1-1 0-2.1-.1-2.7-.1V45.6s5.9-.4 10.9-.4c3.7-.1 6.3.2 6.3.2zm5.9 17.9c0 8.4 4.5 13.1 12.6 13.1 5.5 0 9.3-1.2 10.8-2 1.4 1.8 1.2 4.1 1.2 4.1s-3.7 1.9-12.1 1.9c-12.5 0-17.9-6.6-17.9-17.9 0-12 6.1-17.4 16.3-17.4 9.5 0 14.7 4.3 15.1 14.9l.1 3.2h-26.1zm0-3.8h20.5c.1-6.6-2.3-10.4-9.6-10.4-7.2.1-10.9 3.9-10.9 10.4zM249 47.9s-1.2 2.1-3.5 3c0 0-3.2-1.9-7.4-1.9-5.1 0-7.5 2.1-7.5 5.3 0 4.9 3.6 5.9 10 6.4 5.4.5 10.3 3.5 10.3 9.4 0 7.7-4.7 10.5-14.4 10.5-7.2 0-11.1-3.3-11.1-3.3s1.2-2 3.5-2.9c0 0 3.6 2.4 7.7 2.4 7.2 0 9.5-2.2 9.5-5.9 0-5.2-4.4-6.2-10.4-6.9-5.8-.7-9.9-2.7-9.9-8.9 0-7.6 4.2-10 12.4-10 6.8 0 10.8 2.8 10.8 2.8zm11.9 15.4c0 8.4 4.5 13.1 12.6 13.1 5.5 0 9.3-1.2 10.8-2 1.4 1.8 1.2 4.1 1.2 4.1s-3.7 1.9-12.1 1.9c-12.5 0-17.9-6.6-17.9-17.9 0-12 6.1-17.4 16.3-17.4 9.5 0 14.7 4.3 15.1 14.9l.1 3.2h-26.1zm0-3.8h20.5c.1-6.6-2.3-10.4-9.6-10.4-7.2.1-10.9 3.9-10.9 10.4zM298 80.1c-1 .1-1.7.1-2.5.1-1.1 0-2.2-.1-2.8-.1V45.8l12.1-.6c12.7-.6 15.7 4.4 15.7 15v19.9s-1.5.1-2.8.1c-.6 0-1.6-.1-2.4-.1V59.5c0-7.1-1.8-10.8-10.4-10.2l-6.8.4v30.4zm50.5-4c.1.7.2 1.3.2 1.9 0 .8 0 1.7-.1 2.1 0 0-4.1.3-7.1.3-10.1 0-15.1-5.1-15.1-17.2 0-10.6 2.8-18 14.3-18 4.2 0 7.8.3 7.8.3.1.7.1 1.4.1 2 0 .8 0 1.7-.1 2.2 0 0-4.7-.3-7.8-.3-7.9 0-8.8 5.9-8.8 13.8 0 9.5 2.2 13.1 9.5 13.1 3 0 5.7-.1 7.1-.2zm7.8-12.8c0 8.4 4.5 13.1 12.6 13.1 5.5 0 9.3-1.2 10.8-2 1.4 1.8 1.2 4.1 1.2 4.1s-3.7 1.9-12.1 1.9c-12.5 0-17.9-6.6-17.9-17.9 0-12 6.1-17.4 16.3-17.4 9.5 0 14.7 4.3 15.1 14.9l.1 3.2h-26.1zm0-3.8h20.5c.1-6.6-2.3-10.4-9.6-10.4-7.2.1-10.9 3.9-10.9 10.4z"/><linearGradient id="SVGID_1_" gradientUnits="userSpaceOnUse" x1="10.276" y1="40.889" x2="31.377" y2="71.024"><stop offset="0" stop-color="#fecf9e"/><stop offset="1" stop-color="#f7901e"/></linearGradient><path d="M20.3 68.3l-1.2-.9c-4-3.1-6.6-7.8-7.2-12.8-1.1-8.8 5.2-20 14.5-21.7-11.9 1.7-21 11.9-21 24.2 0 9.8 5.8 18.3 14.2 22.2-.5-3.7-.2-7.4.7-11z" fill="url(#SVGID_1_)"/><path class="st3" d="M27.9 32.8c1.6-.7 3.1-1.1 4.6-3.2 1.6-2.2 2.1-3.6 2.7-6.5.1-1.5-.9-1.2-5.6-1.2C13.3 21.8 0 35.1 0 51.4 0 64.2 8 75 19.3 79.2c-1.2-.6-2.4-1.4-3.5-2.3-5-4-8.4-9.9-9.2-16.3-.9-6.6 1-13.4 5.2-18.6 3.5-4.5 10.1-9.1 16.1-9.2z"/><circle class="st3" cx="21.4" cy="49.9" r="6.2"/><linearGradient id="SVGID_2_" gradientUnits="userSpaceOnUse" x1="253.923" y1="236.588" x2="275.024" y2="266.724" gradientTransform="rotate(180 174.823 150.211)"><stop offset="0" stop-color="#fecf9e"/><stop offset="1" stop-color="#f7901e"/></linearGradient><path d="M85.2 36.9l1.2.9c4 3.1 6.6 7.8 7.3 12.8 1.2 8.8-5.1 20-14.4 21.7 11.9-1.7 21-12 20.9-24.3 0-9.8-5.9-18.3-14.3-22.2.4 3.7.1 7.5-.7 11.1z" fill="url(#SVGID_2_)"/><path class="st3" d="M77.8 72.4c-1.6.7-3.1 1.1-4.6 3.3-1.6 2.2-2.1 3.6-2.7 6.5 0 1.5.9 1.2 5.6 1.2 16.3-.1 29.5-13.4 29.5-29.7-.1-12.7-8.2-23.6-19.5-27.7 1.2.6 2.4 1.4 3.6 2.3 5.1 4 8.4 9.9 9.3 16.3.9 6.6-1 13.4-5.1 18.6-3.6 4.4-10.1 9.1-16.1 9.2z"/><circle class="st3" cx="84.1" cy="55.2" r="6.2"/><linearGradient id="SVGID_3_" gradientUnits="userSpaceOnUse" x1="220.765" y1="7.532" x2="241.865" y2="37.666" gradientTransform="rotate(-90.298 175.05 140.368)"><stop offset="0" stop-color="#b1b3b6"/><stop offset="1" stop-color="#77787b"/></linearGradient><path d="M69.3 85.2l-.9 1.2c-3.1 4-7.8 6.6-12.8 7.3-8.8 1.2-20-5-21.7-14.4 1.7 11.9 12 21 24.4 20.9 9.8-.1 18.3-5.9 22.1-14.3-3.8.4-7.5.1-11.1-.7z" fill="url(#SVGID_3_)"/><path class="st0" d="M33.8 77.8c-.7-1.6-1.1-3.1-3.3-4.6-2.2-1.6-3.6-2.1-6.5-2.6-1.5 0-1.2.9-1.2 5.6.1 16.3 13.4 29.5 29.8 29.4 12.7-.1 23.6-8.2 27.7-19.5-.6 1.2-1.4 2.4-2.3 3.6-4 5.1-9.9 8.4-16.3 9.3-6.6.9-13.4-1-18.6-5.1-4.5-3.6-9.2-10.1-9.3-16.1z"/><circle class="st0" cx="50.9" cy="84.2" r="6.2"/><linearGradient id="SVGID_4_" gradientUnits="userSpaceOnUse" x1="42.422" y1="267.683" x2="64.121" y2="298.673" gradientTransform="matrix(.0098 1 -1 .0098 333.271 -35.045)"><stop offset="0" stop-color="#b1b3b6"/><stop offset="1" stop-color="#77787b"/></linearGradient><path d="M37.6 20.5l.9-1.2c3.1-4 7.7-6.7 12.8-7.4 8.8-1.2 21.3 5 23.1 14.3C72.5 14.3 62.2 5.3 49.9 5.4c-9.8.1-19.6 6-23.4 14.4 3.7-.4 7.5-.2 11.1.7z" fill="url(#SVGID_4_)"/><path class="st0" d="M73.1 27.7c.7 1.6 1.2 3.1 3.3 4.6 2.2 1.6 3.7 2.1 6.5 2.6 1.5 0 1.2-.9 1.2-5.6C83.9 13 70.6-.2 54.2 0 41.5.1 30.7 8.3 26.6 19.6c.6-1.2 1.4-2.4 2.3-3.6 4-5.1 9.8-8.5 16.2-9.4 6.6-.9 13.4.9 18.7 5 4.5 3.6 9.2 10.1 9.3 16.1z"/><circle class="st0" cx="55.9" cy="21.4" r="6.2"/><path class="st3" d="M398.8 72.1h18.8c.2 1.4.2 2.8.2 4 0 2.6-.2 4.2-.2 4.2h-29V28c1.7-.1 3.4-.2 5-.2 3.1 0 5.2.2 5.2.2v44.1zm31.5-6.1c0 5.3 3.7 7.3 9 7.3 6.4 0 10.7-1.9 10.7-1.9 1.9 3.5 2.4 7.2 2.4 7.2s-4.7 2.1-13.1 2.1c-13.1 0-18.4-6-18.4-18 0-11.8 6.1-17.6 17-17.6 10.2 0 16.1 6.5 16.1 16.8 0 2.5-.3 4.1-.3 4.1h-23.4zm.1-6.7h13.7v-1c0-2.7-1.7-5.8-6.3-5.8-5.2 0-7.3 2.8-7.4 6.8zm28.3 10.6c0-6.8 3.6-10.6 13.4-10.6h7v-1.8c0-4-2.8-4.8-6.6-4.8-5.1 0-10.1 1.4-10.1 1.4s-1.1-3.9-.7-7.5c0 0 3.8-1.4 10.8-1.4 10.6 0 16 3 16 11.9v23.2s-8.7.3-17.1.3c-9.2-.1-12.7-3.9-12.7-10.7zm20.4 3.8v-8.1l-6.3-.1c-4.5-.1-5 2.2-5 4.3 0 2.2.7 4 4.3 4 3.1.1 7-.1 7-.1zM517 45.4s.2 1.7.2 3.9c0 1.1-.1 2.4-.2 3.6h-10.3v27.3s-2.1.2-4.9.2c-1.4 0-3-.1-4.5-.2V45.6s3.8-.5 9.8-.5c5.5.1 9.9.3 9.9.3zm13.6 7.5v27.3s-2.1.2-4.8.2c-1.4 0-3-.1-4.6-.2V45.6s6.5-.5 14.2-.5c12.2 0 16 3.9 16 14.7v20.3s-2.1.2-4.8.2c-1.4 0-3-.1-4.6-.2V59.3c0-5-1.6-6.4-6.6-6.4h-4.8zM559.8 36c0-2.2.2-4 .2-4 1.5-.1 3.1-.2 4.5-.2 2.8 0 5.1.2 5.1.2s.2 1.7.2 4c0 1.1-.1 2.4-.2 3.6 0 0-2.2.2-5.1.2-1.5 0-3-.1-4.5-.2-.1-1.2-.2-2.4-.2-3.6zm9.7 44.2c-1.5.1-3.1.2-4.4.2-2.8 0-4.9-.2-4.9-.2V45.4c1.6-.1 3.1-.2 4.5-.2 2.8 0 4.8.2 4.8.2v34.8zm18.6-27.3v27.3s-2.1.2-4.8.2c-1.4 0-3-.1-4.6-.2V45.6s6.5-.5 14.2-.5c12.2 0 16 3.9 16 14.7v20.3s-2.1.2-4.8.2c-1.4 0-3-.1-4.6-.2V59.3c0-5-1.6-6.4-6.6-6.4h-4.8zm43.1 27.5c-11.3 0-16.1-5.3-16.1-18 0-9.9 5.5-17.2 16.8-17.2 8.3 0 16.1.2 16.1.2V77c0 11.3-4.4 18.3-17.1 18.3-8 0-13.3-2.4-13.3-2.4s.5-3.7 2.4-7.2c0 0 4.9 2.2 10.9 2.2 5.3 0 7.7-2.7 7.7-7.9 0 0-4 .4-7.4.4zm7.4-7.3V52.8h-6c-5.4 0-7.9 4.2-7.9 9.5 0 7.2 1.8 10.8 7.2 10.8h6.7z"/></g></svg>