<?xml version="1.0" encoding="utf-8"?>
<svg version="1.1" id="Layer_1" xmlns="http://www.w3.org/2000/svg" xmlns:xlink="http://www.w3.org/1999/xlink" x="0px" y="0px"
	 viewBox="0 0 49.1 67.7" style="enable-background:new 0 0 49.1 67.7;" xml:space="preserve">
<path d="M0,67.7h49.1V0H0V67.7z M1.3,1.3H47L32.3,16.6h-31C1.3,16.6,1.3,1.3,1.3,1.3z M47.8,2.3v47.4H2.2L47.8,2.3
	L47.8,2.3z M1.3,17.9h29.8l-29.8,31L1.3,17.9L1.3,17.9z M25.2,51.1h22.6v15.4H25.2V51.1L25.2,51.1z M1.3,51.1h22.6v15.4H1.3V51.1
	L1.3,51.1z M14.9,8.8V6.3h2.2c0.8,0,1.2,0.6,1.2,1.3s-0.4,1.2-1.2,1.2H14.9z M19.6,7.6c0-1.4-0.9-2.4-2.4-2.4h-3.4v7.5H15V10h1.7
	l1.8,2.7h1.4l-1.8-2.8C18.9,9.6,19.5,8.6,19.6,7.6L19.6,7.6z M10.8,56.1H13c0.8,0,1.2,0.6,1.2,1.3s-0.4,1.2-1.2,1.2h-2.2V56.1
	L10.8,56.1z M10.8,59.7h1.7l1.8,2.7h1.4l-1.8-2.8c1-0.3,1.6-1.3,1.6-2.3c0-1.4-0.9-2.4-2.4-2.4H9.7v7.5h1.2L10.8,59.7L10.8,59.7z
	 M35.9,31.1v6.4h1.2v-6.4h2.6V30h-6.5v1.1H35.9z"/>
</svg>
