<?xml version="1.0" encoding="utf-8"?>
<!-- Generator: Adobe Illustrator 24.1.2, SVG Export Plug-In . SVG Version: 6.00 Build 0)  -->
<svg version="1.1" id="Layer_1" xmlns="http://www.w3.org/2000/svg" xmlns:xlink="http://www.w3.org/1999/xlink" x="0px" y="0px"
	 viewBox="0 0 167.9 51.9" style="enable-background:new 0 0 167.9 51.9;" xml:space="preserve">
<style type="text/css">
	.ruralsourcingst0{fill:#EB0029;}
	.ruralsourcingst1{fill:#002B49;}
</style>
<g>
	<path class="ruralsourcingst0" d="M71,31.9l8.4,2.7L74,36.9c3.3,1.6,6.8,3.6,10.5,6v-8.7c-3.9-2.2-8.5-4.6-13.6-6.9L71,31.9z M0,33.6
		c0,0,14.9-21.4,44.8-17.1c8.9,1.3,17.1,3.6,24,6.3l2-2.5l0,3.3c5.3,2.1,9.9,4.4,13.6,6.4v-9.9c-7.9-0.4-20.9-2-37.5-7
		C18.9,4.7,0,18.9,0,18.9V33.6z M72.6,50.9l-8.7-11l-13.2,6.1l6.7-9.6c-21.2-0.8-35.6,15.6-35.6,15.6h62.7v-5.1
		c-4.4-3.3-8.6-5.6-12.8-7.3L72.6,50.9z M84.5,16.4V7.4c-13.6,3.4-26.9,4.5-37.2,0.4C13-5.7,0,2.4,0,2.4v10.2c0,0,18.4-11.5,51.4,0
		C61.2,16.1,72.9,16.9,84.5,16.4 M51.9,23.4l12.4,5.1l2.4-3c-8.4-3.4-17.6-6-26.2-6.1C16.4,18.9,0,42.9,0,42.9v9h12.2
		c0,0,13.9-26.6,45-20.8L51.9,23.4z"/>
	<path class="ruralsourcingst1" d="M159.9,38.5c0-0.7,0.1-1.3,0.4-1.8c0.2-0.5,0.5-0.9,0.9-1.3c0.4-0.3,0.8-0.6,1.3-0.8c0.5-0.2,1-0.3,1.4-0.3
		c0.5,0,1,0.1,1.4,0.3c0.5,0.2,0.9,0.4,1.3,0.8c0.4,0.3,0.7,0.8,0.9,1.3c0.2,0.5,0.4,1.1,0.4,1.8v0.9h-2.4v-0.9c0-0.6-0.2-1-0.5-1.3
		c-0.3-0.3-0.7-0.4-1.1-0.4c-0.4,0-0.8,0.1-1.1,0.4c-0.3,0.3-0.5,0.7-0.5,1.3v8.9c0,0.6,0.2,1,0.5,1.3c0.3,0.3,0.7,0.4,1.1,0.4
		c0.4,0,0.8-0.1,1.1-0.4c0.3-0.3,0.5-0.7,0.5-1.3v-3.2h-1.9v-2.1h4.3v5.3c0,0.7-0.1,1.3-0.4,1.8c-0.2,0.5-0.5,0.9-0.9,1.3
		c-0.4,0.3-0.8,0.6-1.3,0.8c-0.5,0.2-1,0.3-1.4,0.3c-0.5,0-1-0.1-1.4-0.3c-0.5-0.2-0.9-0.4-1.3-0.8c-0.4-0.3-0.7-0.8-0.9-1.3
		c-0.2-0.5-0.4-1.1-0.4-1.8V38.5z M149.5,34.5h2.3l3.6,10.1h0V34.5h2.4v16.8h-2.2l-3.7-10.1h0v10.1h-2.4V34.5z M144.9,51.3h2.4V34.5
		h-2.4V51.3z M142.9,47.6c0,0.5-0.1,1-0.3,1.5c-0.2,0.5-0.5,0.9-0.8,1.2c-0.3,0.4-0.7,0.6-1.2,0.8c-0.5,0.2-1,0.3-1.5,0.3
		c-0.5,0-0.9-0.1-1.4-0.2c-0.5-0.1-0.9-0.3-1.3-0.6c-0.4-0.3-0.7-0.7-0.9-1.2c-0.2-0.5-0.4-1.1-0.4-1.9v-9.3c0-0.6,0.1-1.1,0.3-1.5
		c0.2-0.5,0.5-0.9,0.8-1.2c0.3-0.3,0.8-0.6,1.2-0.8c0.5-0.2,1-0.3,1.6-0.3c0.5,0,1.1,0.1,1.5,0.3c0.5,0.2,0.9,0.5,1.2,0.8
		c0.3,0.4,0.6,0.8,0.8,1.3c0.2,0.5,0.3,1,0.3,1.6v0.9h-2.4v-0.8c0-0.5-0.1-0.9-0.4-1.2c-0.3-0.3-0.6-0.5-1.1-0.5
		c-0.6,0-1,0.2-1.2,0.6c-0.2,0.4-0.3,0.8-0.3,1.4v8.6c0,0.5,0.1,0.9,0.3,1.2c0.2,0.3,0.6,0.5,1.1,0.5c0.2,0,0.3,0,0.5-0.1
		c0.2-0.1,0.3-0.1,0.5-0.3c0.1-0.1,0.3-0.3,0.4-0.5c0.1-0.2,0.1-0.5,0.1-0.8v-0.8h2.4V47.6z M125.3,34.5h3.8c2.8,0,4.2,1.6,4.2,4.9
		c0,1-0.2,1.8-0.5,2.5c-0.3,0.7-0.8,1.3-1.6,1.7l2.6,7.7h-2.5l-2.2-7.2h-1.4v7.2h-2.4V34.5z M127.7,42h1.4c0.4,0,0.8-0.1,1-0.2
		c0.2-0.1,0.4-0.3,0.6-0.5c0.1-0.2,0.2-0.5,0.3-0.8c0-0.3,0.1-0.7,0.1-1.1c0-0.4,0-0.8-0.1-1.1c0-0.3-0.1-0.6-0.3-0.8
		c-0.1-0.2-0.4-0.4-0.6-0.5c-0.3-0.1-0.6-0.2-1.1-0.2h-1.2V42z M123.1,47.5c0,0.6-0.1,1.1-0.3,1.5c-0.2,0.5-0.5,0.9-0.8,1.2
		c-0.4,0.4-0.8,0.6-1.2,0.8c-0.5,0.2-1,0.3-1.5,0.3c-0.5,0-1-0.1-1.5-0.3c-0.5-0.2-0.9-0.5-1.2-0.8c-0.4-0.4-0.6-0.8-0.8-1.2
		c-0.2-0.5-0.3-1-0.3-1.5v-13h2.4v12.8c0,0.6,0.1,1,0.4,1.3c0.3,0.3,0.6,0.4,1.1,0.4c0.4,0,0.8-0.1,1.1-0.4c0.3-0.3,0.4-0.7,0.4-1.3
		V34.5h2.4V47.5z M105.2,38.5c0-0.7,0.1-1.3,0.4-1.8c0.2-0.5,0.5-0.9,0.9-1.3c0.4-0.3,0.8-0.6,1.3-0.8c0.5-0.2,1-0.3,1.4-0.3
		c0.5,0,1,0.1,1.4,0.3c0.5,0.2,0.9,0.4,1.3,0.8c0.4,0.3,0.7,0.8,0.9,1.3c0.2,0.5,0.4,1.1,0.4,1.8v8.9c0,0.7-0.1,1.3-0.4,1.8
		c-0.2,0.5-0.5,0.9-0.9,1.3c-0.4,0.3-0.8,0.6-1.3,0.8c-0.5,0.2-1,0.3-1.4,0.3c-0.5,0-1-0.1-1.4-0.3s-0.9-0.4-1.3-0.8
		c-0.4-0.3-0.7-0.8-0.9-1.3c-0.2-0.5-0.4-1.1-0.4-1.8V38.5z M107.6,47.4c0,0.6,0.2,1,0.5,1.3c0.3,0.3,0.7,0.4,1.1,0.4
		s0.8-0.1,1.1-0.4c0.3-0.3,0.5-0.7,0.5-1.3v-8.9c0-0.6-0.2-1-0.5-1.3c-0.3-0.3-0.7-0.4-1.1-0.4s-0.8,0.1-1.1,0.4
		c-0.3,0.3-0.5,0.7-0.5,1.3V47.4z M103.6,39.4h-2.4v-0.5c0-0.5-0.1-1-0.4-1.4c-0.3-0.4-0.7-0.6-1.3-0.6c-0.3,0-0.6,0.1-0.8,0.2
		c-0.2,0.1-0.4,0.3-0.5,0.5c-0.1,0.2-0.2,0.4-0.2,0.7c0,0.3-0.1,0.5-0.1,0.8c0,0.3,0,0.6,0,0.8c0,0.2,0.1,0.4,0.2,0.6
		c0.1,0.2,0.2,0.3,0.4,0.4c0.2,0.1,0.4,0.3,0.7,0.4l1.8,0.7c0.5,0.2,1,0.4,1.3,0.7c0.3,0.3,0.6,0.6,0.8,1c0.2,0.4,0.3,0.8,0.4,1.3
		c0.1,0.5,0.1,1,0.1,1.6c0,0.7-0.1,1.4-0.2,2c-0.1,0.6-0.4,1.1-0.7,1.6c-0.3,0.4-0.7,0.8-1.3,1c-0.5,0.3-1.2,0.4-1.9,0.4
		c-0.6,0-1.1-0.1-1.6-0.3c-0.5-0.2-0.9-0.5-1.3-0.8c-0.4-0.4-0.6-0.8-0.9-1.3c-0.2-0.5-0.3-1-0.3-1.6v-0.9h2.4v0.8
		c0,0.4,0.1,0.8,0.4,1.2c0.3,0.4,0.7,0.5,1.3,0.5c0.4,0,0.7-0.1,1-0.2c0.2-0.1,0.4-0.3,0.5-0.5c0.1-0.2,0.2-0.5,0.2-0.8
		c0-0.3,0-0.7,0-1c0-0.4,0-0.8,0-1.1c0-0.3-0.1-0.5-0.2-0.7c-0.1-0.2-0.2-0.3-0.4-0.4c-0.2-0.1-0.4-0.2-0.7-0.4l-1.7-0.7
		c-1-0.4-1.7-1-2.1-1.7c-0.4-0.7-0.5-1.6-0.5-2.6c0-0.6,0.1-1.2,0.3-1.8c0.2-0.6,0.4-1.1,0.8-1.5c0.3-0.4,0.8-0.7,1.3-1
		c0.5-0.2,1.1-0.4,1.8-0.4c0.6,0,1.1,0.1,1.6,0.3c0.5,0.2,0.9,0.5,1.3,0.9c0.4,0.4,0.6,0.8,0.8,1.2c0.2,0.4,0.3,0.9,0.3,1.4V39.4z
		 M135.3,11h2.4v14.4h4.7v2.4h-7.1V11z M128.4,11h2l3.7,16.8h-2.4l-0.7-3.6h-3.3l-0.7,3.6h-2.4L128.4,11z M129.4,15.8L129.4,15.8
		l-1.2,6.1h2.4L129.4,15.8z M115.8,11h3.8c2.8,0,4.2,1.6,4.2,4.9c0,1-0.2,1.8-0.5,2.5c-0.3,0.7-0.8,1.3-1.6,1.7l2.6,7.7h-2.5
		l-2.2-7.2h-1.4v7.2h-2.4V11z M118.2,18.5h1.4c0.4,0,0.8-0.1,1-0.2c0.2-0.1,0.4-0.3,0.6-0.5c0.1-0.2,0.2-0.5,0.3-0.8
		c0-0.3,0.1-0.7,0.1-1.1c0-0.4,0-0.8-0.1-1.1c0-0.3-0.1-0.6-0.3-0.8c-0.1-0.2-0.4-0.4-0.6-0.5c-0.3-0.1-0.6-0.2-1.1-0.2h-1.2V18.5z
		 M113.5,24c0,0.6-0.1,1.1-0.3,1.5c-0.2,0.5-0.5,0.9-0.8,1.2c-0.4,0.4-0.8,0.6-1.2,0.8c-0.5,0.2-1,0.3-1.5,0.3c-0.5,0-1-0.1-1.5-0.3
		c-0.5-0.2-0.9-0.5-1.2-0.8c-0.4-0.4-0.6-0.8-0.8-1.2s-0.3-1-0.3-1.5V11h2.4v12.8c0,0.6,0.1,1,0.4,1.3c0.3,0.3,0.6,0.4,1.1,0.4
		c0.4,0,0.8-0.1,1.1-0.4c0.3-0.3,0.4-0.7,0.4-1.3V11h2.4V24z M95.8,11h3.8c2.8,0,4.2,1.6,4.2,4.9c0,1-0.2,1.8-0.5,2.5
		c-0.3,0.7-0.8,1.3-1.6,1.7l2.6,7.7h-2.5l-2.2-7.2h-1.4v7.2h-2.4V11z M98.2,18.5h1.4c0.4,0,0.8-0.1,1-0.2c0.2-0.1,0.4-0.3,0.6-0.5
		c0.1-0.2,0.2-0.5,0.3-0.8c0-0.3,0.1-0.7,0.1-1.1c0-0.4,0-0.8-0.1-1.1c0-0.3-0.1-0.6-0.3-0.8c-0.1-0.2-0.4-0.4-0.6-0.5
		c-0.3-0.1-0.6-0.2-1.1-0.2h-1.2V18.5z"/>
</g>
</svg>
