<?xml version="1.0" encoding="UTF-8" standalone="no"?>
<!-- Created with Inkscape (http://www.inkscape.org/) -->

<svg
   xmlns:dc="http://purl.org/dc/elements/1.1/"
   xmlns:cc="http://creativecommons.org/ns#"
   xmlns:rdf="http://www.w3.org/1999/02/22-rdf-syntax-ns#"
   xmlns:svg="http://www.w3.org/2000/svg"
   xmlns="http://www.w3.org/2000/svg"
   xmlns:sodipodi="http://sodipodi.sourceforge.net/DTD/sodipodi-0.dtd"
   xmlns:inkscape="http://www.inkscape.org/namespaces/inkscape"
   width="305.23862"
   height="40.696011"
   viewBox="0 0 80.761054 10.767485"
   version="1.1"
   id="svg46927"
   inkscape:version="0.92.0 r15299"
   sodipodi:docname="varsity brands.svg">
  <defs
     id="defs46921" />
  <sodipodi:namedview
     id="base"
     pagecolor="#ffffff"
     bordercolor="#666666"
     borderopacity="1.0"
     inkscape:pageopacity="0.0"
     inkscape:pageshadow="2"
     inkscape:zoom="2.6447817"
     inkscape:cx="151.61932"
     inkscape:cy="19.348004"
     inkscape:document-units="mm"
     inkscape:current-layer="layer1"
     showgrid="false"
     fit-margin-top="0"
     fit-margin-left="0"
     fit-margin-right="0"
     fit-margin-bottom="0"
     units="px"
     inkscape:window-width="1280"
     inkscape:window-height="744"
     inkscape:window-x="-4"
     inkscape:window-y="-4"
     inkscape:window-maximized="1" />
  <metadata
     id="metadata46924">
    <rdf:RDF>
      <cc:Work
         rdf:about="">
        <dc:format>image/svg+xml</dc:format>
        <dc:type
           rdf:resource="http://purl.org/dc/dcmitype/StillImage" />
        <dc:title></dc:title>
      </cc:Work>
    </rdf:RDF>
  </metadata>
  <g
     inkscape:label="Layer 1"
     inkscape:groupmode="layer"
     id="layer1"
     transform="translate(-27.91977,-94.048105)">
    <g
       id="g46978"
       transform="translate(0.26458037,-0.26458243)">
      <path
         d="m 43.20492,102.48196 c -0.52634,0 -0.96837,-0.0914 -1.33703,-0.40957 l 0.46496,-0.81774 c 0.20426,0.22048 0.56268,0.29774 0.87736,0.29774 0.38171,0 0.56339,-0.13723 0.56339,-0.38135 0,-0.10125 -0.0226,-0.18415 -0.0776,-0.24977 -0.0497,-0.054 -0.1323,-0.0956 -0.25894,-0.11359 l -0.47519,-0.0716 c -0.34749,-0.0533 -0.61243,-0.17851 -0.78917,-0.37536 -0.18238,-0.20214 -0.27058,-0.488594 -0.27058,-0.851955 0,-0.7747 0.54116,-1.340908 1.43545,-1.340908 0.48084,0 0.86184,0.104422 1.17228,0.362302 l -0.45473,0.799395 c -0.2487,-0.268111 -0.57432,-0.25012 -0.74506,-0.25012 -0.3369,0 -0.47519,0.208845 -0.47519,0.3937 0,0.05327 0.0166,0.131234 0.0773,0.196498 0.0497,0.05362 0.13265,0.107244 0.27059,0.125236 l 0.47483,0.07126 c 0.35313,0.05397 0.60749,0.172862 0.77294,0.351722 0.2099,0.22048 0.29245,0.53622 0.29245,0.92957 0,0.86395 -0.69003,1.33455 -1.518,1.33455"
         style="fill:#231f20;fill-opacity:1;fill-rule:nonzero;stroke:none;stroke-width:0.35277778"
         id="path43116"
         inkscape:connector-curvature="0" />
      <path
         inkscape:connector-curvature="0"
         id="path43118"
         style="fill:#231f20;fill-opacity:1;fill-rule:nonzero;stroke:none;stroke-width:0.35277778"
         d="m 46.60394,102.44633 h 0.96597 v -4.242504 h -0.96597 z" />
      <path
         d="m 51.18652,99.133394 v 3.313286 h -0.96591 v -3.313286 h -0.96625 v -0.929216 h 2.89842 v 0.929216 h -0.96626"
         style="fill:#231f20;fill-opacity:1;fill-rule:nonzero;stroke:none;stroke-width:0.35277778"
         id="path43122"
         inkscape:connector-curvature="0" />
      <path
         d="m 33.82809,99.953251 -1.25659,2.491319 h -1.10984 l 2.35479,-4.242862 h 0.97825 v 4.242862 h -0.96661 v -2.491319"
         style="fill:#231f20;fill-opacity:1;fill-rule:nonzero;stroke:none;stroke-width:0.35277778"
         id="path43126"
         inkscape:connector-curvature="0" />
      <path
         d="m 30.14333,98.201708 -1.25659,2.490962 v -2.490962 h -0.96697 v 4.242502 h 0.97861 l 2.35444,-4.242502 h -1.10949"
         style="fill:#231f20;fill-opacity:1;fill-rule:nonzero;stroke:none;stroke-width:0.35277778"
         id="path43130"
         inkscape:connector-curvature="0" />
      <path
         d="m 39.33001,100.67186 c 0.30551,-0.16933 0.63077,-0.53305 0.63077,-1.103843 0,-0.696736 -0.46955,-1.364191 -1.34162,-1.364191 h -1.55681 v 4.242854 h 0.96662 v -3.313286 h 0.5461 c 0.26493,0 0.4198,0.20814 0.4198,0.428625 0,0.220487 -0.15487,0.449791 -0.4198,0.449791 h -0.5461 l 1.2072,2.4324 h 1.10984 l -1.016,-1.77235"
         style="fill:#231f20;fill-opacity:1;fill-rule:nonzero;stroke:none;stroke-width:0.35277778"
         id="path43134"
         inkscape:connector-curvature="0" />
      <path
         d="m 55.723951,98.201708 -0.75212,1.527529 -0.751771,-1.527529 h -1.10278 l 1.37406,2.516722 v 1.7279 h 0.966261 v -1.7279 l 1.368779,-2.516722 h -1.102429"
         style="fill:#231f20;fill-opacity:1;fill-rule:nonzero;stroke:none;stroke-width:0.35277778"
         id="path43138"
         inkscape:connector-curvature="0" />
      <path
         d="m 86.57613,100.67292 c 0.305512,-0.16934 0.63041,-0.53305 0.63041,-1.103492 0,-0.697089 -0.469189,-1.364545 -1.34161,-1.364545 h -1.556459 v 4.242857 h 0.966258 v -3.313287 h 0.54646 c 0.264933,0 0.419452,0.208139 0.419452,0.428625 0,0.220486 -0.154519,0.449792 -0.419452,0.449792 h -0.54646 l 1.207561,2.4324 h 1.10984 l -1.016,-1.77235"
         style="fill:#231f20;fill-opacity:1;fill-rule:nonzero;stroke:none;stroke-width:0.35277778"
         id="path43142"
         inkscape:connector-curvature="0" />
      <path
         d="m 106.63366,102.48337 c -0.52634,0 -0.96837,-0.0914 -1.33703,-0.40957 l 0.46461,-0.81774 c 0.20426,0.22048 0.56303,0.29774 0.87771,0.29774 0.38135,0 0.56339,-0.13723 0.56339,-0.38135 0,-0.10125 -0.0226,-0.18415 -0.0776,-0.25012 -0.0498,-0.0536 -0.1323,-0.0953 -0.25894,-0.11324 l -0.47519,-0.0716 c -0.34784,-0.0533 -0.61243,-0.17851 -0.78917,-0.37536 -0.18274,-0.20214 -0.27058,-0.488593 -0.27058,-0.852307 0,-0.774347 0.54116,-1.340555 1.43545,-1.340555 0.48084,0 0.86184,0.104422 1.17228,0.362301 l -0.45508,0.799396 c -0.24835,-0.268111 -0.57397,-0.250121 -0.74507,-0.250121 -0.33654,0 -0.47519,0.208846 -0.47519,0.3937 0,0.05327 0.0169,0.131235 0.0776,0.196499 0.0498,0.05327 0.13265,0.107244 0.27059,0.125236 l 0.47483,0.07126 c 0.35313,0.05397 0.60749,0.172511 0.77294,0.351361 0.20955,0.22084 0.29245,0.53658 0.29245,0.92957 0,0.86431 -0.69003,1.33492 -1.518,1.33492"
         style="fill:#231f20;fill-opacity:1;fill-rule:nonzero;stroke:none;stroke-width:0.35277778"
         id="path43146"
         inkscape:connector-curvature="0" />
      <path
         d="m 79.353712,98.194653 h 1.472139 c 0.411339,0 0.74119,0.09737 0.968729,0.287161 0.232482,0.18415 0.35701,0.465667 0.35701,0.827617 0,0.32773 -0.140761,0.660753 -0.465309,0.856189 0.64417,0.2413 0.6604,0.81033 0.6604,0.98849 0,0.33901 -0.124531,0.71296 -0.3683,0.92533 -0.367951,0.32703 -0.633241,0.3676 -1.30951,0.3676 h -1.315159 z m 1.385358,1.6764 c 0.0765,0 0.191561,0 0.298101,-0.04657 0.130519,-0.06491 0.19685,-0.183798 0.19685,-0.35419 0,-0.204963 -0.104431,-0.297038 -0.19262,-0.337608 -0.0991,-0.04586 -0.216611,-0.04586 -0.302331,-0.04586 h -0.424389 v 0.784225 z m 0.11924,1.683807 c 0.0681,0 0.208841,0 0.32843,-0.0575 0.110421,-0.0497 0.242361,-0.16192 0.242361,-0.4124 0,-0.18274 -0.0804,-0.31397 -0.231421,-0.37817 -0.115009,-0.0515 -0.25541,-0.0515 -0.33937,-0.0515 h -0.543629 v 0.89958 h 0.543629"
         style="fill:#231f20;fill-opacity:1;fill-rule:nonzero;stroke:none;stroke-width:0.35277778"
         id="path43150"
         inkscape:connector-curvature="0" />
      <path
         d="m 89.989962,102.44527 h -1.109491 l 1.585389,-4.25238 h 0.88229 l 1.5367,4.25238 h -1.120069 l -0.189441,-0.61454 h -1.401228 z m 0.87136,-2.959451 -0.432861,1.482371 h 0.881589 l -0.448728,-1.482371"
         style="fill:#231f20;fill-opacity:1;fill-rule:nonzero;stroke:none;stroke-width:0.35277778"
         id="path43154"
         inkscape:connector-curvature="0" />
      <path
         d="m 96.92804,100.78439 -0.02151,-2.5915 h 0.979659 v 4.25203 H 96.99861 l -1.53212,-2.562578 0.02191,2.562578 h -0.979311 v -4.25203 h 0.881952 l 1.537049,2.5915"
         style="fill:#231f20;fill-opacity:1;fill-rule:nonzero;stroke:none;stroke-width:0.35277778"
         id="path43158"
         inkscape:connector-curvature="0" />
      <path
         d="m 100.10445,98.192889 h 1.32609 c 0.44873,0 1.24954,0 1.76953,0.793044 0.27588,0.402167 0.3676,0.856192 0.3676,1.321857 0,1.16099 -0.54116,2.13748 -2.06163,2.13748 h -1.40159 z m 1.46121,3.360211 c 0.67133,0 1.04104,-0.43604 1.04104,-1.22838 0,-0.18026 -0.0265,-0.525987 -0.20426,-0.820203 -0.17709,-0.282223 -0.44908,-0.419453 -0.83114,-0.419453 h -0.50588 v 2.468036 h 0.50024"
         style="fill:#231f20;fill-opacity:1;fill-rule:nonzero;stroke:none;stroke-width:0.35277778"
         id="path43162"
         inkscape:connector-curvature="0" />
      <path
         d="m 60.00455,104.81559 h 3.49744 c 2.918179,-5.486756 4.7625,-8.949622 5.449001,-10.238319 h -3.537299 c -0.672751,1.287638 -2.486023,4.745566 -5.409142,10.238319"
         style="fill:#5fa6db;fill-opacity:1;fill-rule:nonzero;stroke:none;stroke-width:0.35277778"
         id="path43166"
         inkscape:connector-curvature="0" />
      <path
         d="m 66.484381,104.81559 h 3.49709 C 72.9,99.328834 74.743971,95.865968 75.430121,94.577271 H 71.89352 c -0.6731,1.287638 -2.48602,4.745213 -5.409139,10.238319"
         style="fill:#231f20;fill-opacity:1;fill-rule:nonzero;stroke:none;stroke-width:0.35277778"
         id="path43170"
         inkscape:connector-curvature="0" />
    </g>
  </g>
</svg>
