<?xml version="1.0" encoding="utf-8"?>
<!-- Generator: Adobe Illustrator 24.1.2, SVG Export Plug-In . SVG Version: 6.00 Build 0)  -->
<svg version="1.1" id="Layer_1" xmlns="http://www.w3.org/2000/svg" xmlns:xlink="http://www.w3.org/1999/xlink" x="0px" y="0px"
	 viewBox="0 0 70.9 60.7" style="enable-background:new 0 0 70.9 60.7;" xml:space="preserve">
<style type="text/css">
	.witturst0{fill:#009A9F;}
	.witturst1{fill:#727773;}
</style>
<polygon class="witturst0" points="35.4,19.2 35.3,19.2 35.2,19.3 25,43.4 25,43.5 25,43.5 25.1,43.7 25.2,43.8 45.6,43.8 45.7,43.7 
	45.9,43.5 45.9,43.5 45.9,43.4 35.6,19.3 35.6,19.2 35.5,19.2 "/>
<path class="witturst1" d="M22.9,24.6L22.9,24.6l-0.1-0.1L12.5,0.4l0,0l0-0.1l0.1-0.2L12.7,0h20.4l0.1,0.1l0.1,0.2l0,0.1l0,0L23.1,24.5
	l-0.1,0.1l-0.1,0H22.9z M48,24.6L48,24.6l0.1-0.1L58.4,0.4l0,0l0-0.1l-0.1-0.2L58.1,0H37.7l-0.1,0.1l-0.1,0.2l0,0.1l0,0l10.2,24.1
	l0.1,0.1l0.1,0H48z M10.4,19.2L10.4,19.2l-0.1,0.1L0,43.4l0,0.1l0,0.1l0.1,0.2l0.1,0.1h20.4l0.1-0.1l0.1-0.2l0-0.1l0-0.1L10.6,19.3
	l-0.1-0.1l-0.1,0H10.4z M60.4,19.2L60.4,19.2l-0.1,0.1L50,43.4l0,0.1l0,0.1l0.1,0.2l0.1,0.1h20.4l0.1-0.1l0.1-0.2l0-0.1l0-0.1
	L60.6,19.3l-0.1-0.1l-0.1,0H60.4z M26.5,52.4h-1l-1.2,6.4h0l-2-6.4h-1l-2,6.4h0l-1.2-6.4h-1.2l1.6,8.2h1.3l2-6.4h0l2,6.4H25
	L26.5,52.4z M27.6,60.6h1.3v-8.2h-1.3V60.6z M35.2,52.4h-5.3v0.8h2v7.4h1.3v-7.4h2V52.4z M41,52.4h-5.3v0.8h2v7.4H39v-7.4h2V52.4z
	 M47.4,52.4h-1.3v5.3c0,1.3-0.1,2.3-1.5,2.3c-1.4,0-1.5-1-1.5-2.3v-5.3h-1.3v5.3c0,1.5,0.2,3,2.8,3c2.5,0,2.8-1.5,2.8-3V52.4z
	 M50.6,52.4c1.4,0,3.2,0.2,3.2,2.1c0,1.3-1.1,1.8-1.8,1.9v0c1.2,0.2,1.4,1,1.6,2l0.4,2.1h-1.3l-0.5-2.2c-0.2-0.7-0.4-1.5-1.7-1.5
	h-0.5v3.6h-1.3v-8.2H50.6 M50.6,56.2c0.8,0,1.9-0.3,1.9-1.5c0-1.1-0.7-1.4-1.9-1.4h-0.5v3H50.6z"/>
</svg>
