<?xml version="1.0" encoding="utf-8"?>
<!-- Generator: Adobe Illustrator 24.1.2, SVG Export Plug-In . SVG Version: 6.00 Build 0)  -->
<svg version="1.1" id="Layer_1" xmlns="http://www.w3.org/2000/svg" xmlns:xlink="http://www.w3.org/1999/xlink" x="0px" y="0px"
	 viewBox="0 0 102.9 54.2" style="enable-background:new 0 0 102.9 54.2;" xml:space="preserve">
<style type="text/css">
	.zellisst0{fill:#000032;}
	.zellisst1{fill:#E5554F;}
</style>
<path class="zellisst0" d="M8.1,48.5h13.3v5.5H0v-5.5l12.5-14H0v-5.5h20.6v5.5l0,0L8.1,48.5z M95.9,38.9L95.9,38.9
	c-1.8-0.2-2.6-0.3-3.8-0.4H92c-0.4-0.1-0.8-0.1-1.3-0.2c-1.7-0.2-2.5-0.8-2.5-1.9c0-1,0.6-1.8,1.6-2.2c0.8-0.4,1.6-0.4,2.4-0.4
	c1.2,0,2.4,0.4,3,1c0.4,0.5,0.7,1,0.8,1.6h6.4c-0.1-1.7-1-3.3-2.3-4.7c-1.7-1.8-4.7-2.8-7.9-2.8c-3.1,0-5.8,0.8-7.7,2.4
	c-1.8,1.5-2.6,3.4-2.6,5.6c0,3.2,2.4,6,5.9,6.6c1.3,0.3,2.8,0.4,4.3,0.6c0.9,0.1,1.7,0.2,2.5,0.4c1.4,0.1,2.1,1,2.1,2.1
	c0,2.2-2.5,2.6-4.6,2.6c-1.6,0-2.6-0.2-3.5-1c-0.6-0.4-1-1.3-1.2-2.1h-6.3c0.1,1.9,1.1,3.9,2.7,5.4c2,1.9,4.9,2.8,8.2,2.8
	c3.7,0,6.7-1,8.7-2.8c1.5-1.4,2.2-3.2,2.2-5.5C102.9,42.3,100.2,39.6,95.9,38.9z M67,46.5L67,46.5V18l-5.9,3v26.6
	c0,4.6,2.7,6.5,6.7,6.5c0.7,0,1,0,1.5-0.1v-5.1C67.3,48.8,67,47.9,67,46.5z M56,46.5L56,46.5V23.6l-5.9,3v20.9
	c0,4.6,2.7,6.5,6.7,6.5c0.7,0,1,0,1.4-0.1v-5.1C56.3,48.8,56,47.9,56,46.5z M72.3,53.9L72.3,53.9h5.9v-25h-5.9V53.9z M47.3,41.2
	c0,1.1-0.1,2.1-0.3,2.9H28.8c1,2.7,3.4,4.6,6.2,4.6c2.1,0,4-1,5.2-2.8h6.4c-1.4,4.3-5.9,8.3-11.4,8.3c-7.1,0-12.6-5.7-12.6-12.6
	c0-6.7,5.2-12.9,12.5-12.9l0,0C42.6,28.7,47.3,35.2,47.3,41.2z M41.2,38.7c-1-2.8-3.4-4.7-6.2-4.7c-2.8,0-5.3,1.9-6.3,4.7l0,0H41.2z
	"/>
<polygon class="zellisst1" points="102.4,0 102.4,0 72.3,15.3 102.4,15.3 "/>
</svg>
