<?xml version="1.0" encoding="UTF-8"?>
<svg id="Layer_1" xmlns="http://www.w3.org/2000/svg" width="358.38" height="87.67" viewBox="0 0 358.38 87.67">
  <defs>
    <style>
      .cls-1 {
        fill: #fff;
      }

      .cls-2 {
        fill: #ed1c24;
      }

      .cls-3 {
        fill: #a4caeb;
      }

      .cls-4 {
        fill: #242359;
      }

      .cls-5 {
        fill: #1ba7e0;
      }

      .cls-6 {
        fill: #1c2156;
      }
    </style>
  </defs>
  <polygon class="cls-1" points="0 38.4 19.2 28.8 0 19.2 0 38.4"/>
  <polygon class="cls-2" points="0 38.4 0 57.6 38.4 38.4 19.2 28.8 0 38.4"/>
  <polygon class="cls-4" points="0 57.6 57.6 57.6 57.6 48 38.4 38.4 0 57.6"/>
  <polygon class="cls-5" points="0 0 0 19.2 19.2 28.8 38.4 19.2 0 0"/>
  <polygon class="cls-4" points="0 0 38.4 19.2 57.6 9.6 57.6 0 0 0"/>
  <polygon class="cls-3" points="38.4 19.2 19.2 28.8 38.4 38.4 57.6 48 57.6 28.8 57.6 9.6 38.4 19.2"/>
  <path class="cls-4" d="M306.72,19.7h7.42v5.71h-7.42v12.44c0,3.11,.68,4.97,3.68,4.97,1.12-.06,2.23-.22,3.32-.47v5.45c-1.87,.47-3.78,.74-5.71,.79-5.71,0-8.57-2.76-8.57-8.82v-14.35h-3.98v-5.7h3.98v-4.83l7.27-2.98v7.79Zm-166.49-4.87h7.32V7.93h-7.32v6.9h0Zm-3.98,10.57h3.98v22.47h7.32V19.71h-11.3v5.7h0Zm147.89-10.59h7.29V7.93h-7.32v6.9h.03Zm-3.98,10.56h3.98v22.47h7.29V19.71h-11.27v5.68Zm-174.42,11.44c0,7.31-5.76,10.99-14.42,10.99h-15.05V15.45h-4.57v-5.71h18.37c4.97,0,7.48,.68,9.45,1.92,2.58,1.61,4.09,4.48,3.98,7.52,0,3.98-2.49,7.06-6.54,8.15v.11c5.45,.94,8.77,4.52,8.77,9.45m-21.95-11.68h5.92c4.21,0,6.23-1.99,6.23-4.82,0-3.27-1.99-4.97-5.81-4.97h-6.34v9.8h0Zm14.22,11.25c0-3.63-2.65-5.61-7.21-5.61h-6.96v11.27h7.06c5.08,0,7.16-2.29,7.16-5.66m256.79,5.72V7.37l-7.31,2.98V47.88h10.84v-5.7h-3.53Zm-149.57-.35c-7.47,0-11.88-5.03-11.88-13.13s4.41-13.23,11.25-13.23c1.66,0,3.31,.19,4.92,.57v7.96l6.5-2.7V11.92c-3.38-1.92-7.22-2.89-11.1-2.79-11.47,0-19.3,7.05-19.3,19.67,0,11.94,6.96,19.73,19.3,19.73,3.92,0,7.77-.97,11.23-2.81l-1.6-6.12c-2.88,1.48-6.08,2.25-9.32,2.24m-33.21-22.64c-3.53-.15-6.91,1.42-9.08,4.21h-.11l-.47-3.68h-10.83v5.7h4.05v22.47h7.32v-13.02c0-6.96,3.68-9.54,6.84-9.54,2.98,0,4.36,1.92,4.36,6.23v16.33h7.26V29.88c0-7.05-3.21-10.69-9.38-10.69m106.07,14.56c0,8.72-4.97,14.75-12.2,14.75-4.31,0-6.85-1.72-8.15-3.48h-.14v11.81l-7.26,2.98V25.41h-3.68v-5.7h10.38l.47,3.68h.1c.94-1.45,3.11-4.21,8.25-4.21,7.52,0,12.2,5.76,12.2,14.58m-7.39,0c0-5.23-2.59-8.71-6.59-8.71s-6.54,3.52-6.54,8.66,2.54,8.76,6.39,8.76,6.74-3.53,6.74-8.72m-153.72,14.76c-5.5,0-8.95-3.43-8.95-8.67,0-4.77,3.06-7.69,8.15-8.88,2.85-.55,5.76-.79,8.66-.73,0-4.1-1.65-5.49-5.92-5.49-2.73,.05-5.42,.69-7.89,1.87v-5.69c2.8-1.15,5.8-1.73,8.82-1.71,8.95,0,12.2,4.05,12.2,11.68v11.28h3.53v5.7h-9.95l-.58-2.84h-.1c-2,2.29-4.92,3.57-7.96,3.48m7.82-13.72c-1.63,0-3.26,.12-4.88,.31-2.99,.47-4.62,1.99-4.62,4.63,0,2.29,1.51,3.53,3.74,3.53,3.06,0,5.76-2.08,5.76-6.13v-2.34Zm102.65,13.71c-5.5,0-8.95-3.43-8.95-8.66,0-4.77,3.06-7.69,8.15-8.88,2.86-.55,5.76-.79,8.67-.73,0-4.1-1.66-5.49-5.91-5.49-2.73,.05-5.42,.69-7.89,1.87v-5.68c2.8-1.15,5.8-1.73,8.82-1.71,8.95,0,12.2,4.05,12.2,11.68v11.28h3.52v5.7h-9.95l-.57-2.84h-.1c-2,2.29-4.92,3.57-7.96,3.48m7.8-13.72c-1.63,0-3.25,.12-4.86,.31-2.98,.47-4.63,1.99-4.63,4.63,0,2.29,1.5,3.53,3.73,3.53,3.06,0,5.76-2.08,5.76-6.13v-2.34h0Zm89.85,13.71c-5.5,0-8.95-3.43-8.95-8.66,0-4.77,3.06-7.69,8.15-8.88,2.86-.55,5.76-.79,8.67-.73,0-4.1-1.66-5.49-5.92-5.49-2.73,.05-5.42,.69-7.89,1.87v-5.68c2.8-1.15,5.8-1.73,8.82-1.71,8.95,0,12.19,4.05,12.19,11.68v11.28h3.53v5.7h-9.95l-.55-2.84h-.11c-1.99,2.3-4.92,3.58-7.96,3.48m7.81-13.72c-1.63,0-3.26,.12-4.87,.31-2.98,.47-4.63,1.99-4.63,4.63,0,2.29,1.5,3.53,3.74,3.53,3.06,0,5.76-2.08,5.76-6.13v-2.34Z"/>
  <path class="cls-6" d="M173.27,78.02c0,3.71-1.91,6.44-5.28,6.44s-5.28-2.75-5.28-6.44,1.91-6.41,5.28-6.41,5.28,2.73,5.28,6.41m3.74,.03c0-5.65-3.51-9.48-9.02-9.48s-9.02,3.83-9.02,9.48,3.51,9.51,9.02,9.51,9.02-3.86,9.02-9.51m-19.25-6.32v-2.87h-14.15v2.87h5.28v15.54h3.62v-15.54h5.25Zm-19.69,3.1c0,1.28-.43,2.03-1.13,2.55-.72,.52-1.42,.64-2.67,.64h-2v-6.38h2.03c1.22,0,1.94,.14,2.64,.67,.72,.52,1.13,1.28,1.13,2.52m3.65,0c0-2.15-.7-3.6-1.97-4.58-1.3-1.01-3.13-1.39-4.87-1.39h-6.26v18.41h3.65v-6.47h2.61c1.59,0,3.6-.38,4.87-1.36,1.3-1.01,1.97-2.46,1.97-4.61m-15.95-5.97h-3.97l-4.15,8.06-4.18-8.06h-4.03l6.35,10.9v7.51h3.65v-7.51l6.32-10.9Zm-21.78,5.65c0,.99-.46,1.83-1.1,2.26-.64,.43-1.33,.61-2.38,.61h-2.55v-5.74h2.58c1.01,0,1.71,.17,2.35,.61,.64,.43,1.1,1.28,1.1,2.26m4.73,12.76l-4.87-7.74c2.23-.75,3.77-2.55,3.77-5.16,0-1.88-.84-3.33-2.03-4.26-1.13-.87-2.78-1.25-4.64-1.25h-6.64v18.41h3.65v-7.16h2.29l4.29,7.16h4.18Zm-17.81-15.43c-.09-.14-2.03-3.28-6.73-3.28s-8.93,3.39-8.93,9.48,3.8,9.51,8.79,9.51,6.93-3.36,6.93-3.36l-1.88-2.46s-1.59,2.52-4.78,2.52-5.34-2.49-5.34-6.26,2.2-6.23,5.39-6.23,4.64,2.49,4.64,2.49l1.91-2.41Z"/>
</svg>