<?xml version="1.0" encoding="utf-8"?>
<!-- Generator: Adobe Illustrator 24.1.2, SVG Export Plug-In . SVG Version: 6.00 Build 0)  -->
<svg version="1.1" id="Layer_1" xmlns="http://www.w3.org/2000/svg" xmlns:xlink="http://www.w3.org/1999/xlink" x="0px" y="0px"
	 viewBox="0 0 243 33" style="enable-background:new 0 0 243 33;" xml:space="preserve">
<style type="text/css">
	.acloudguruwst0{opacity:0.5;}
</style>
<path class="acloudguruwst0" d="M75.9,15l-2.5,6.9h5L75.9,15z M80.4,27.6l-1-2.7h-6.9l-1,2.7h-3.8l6.2-16h4.3l6.2,16H80.4L80.4,27.6z
	 M91.2,19.6c0-5,3.7-8.3,8.5-8.3c3.5,0,5.6,1.9,6.7,3.9l-2.9,1.4c-0.7-1.3-2.1-2.3-3.8-2.3c-2.9,0-5,2.2-5,5.2c0,3,2.1,5.2,5,5.2
	c1.6,0,3.1-1.1,3.8-2.3l2.9,1.4c-1.1,2-3.2,3.9-6.7,3.9C94.8,27.9,91.2,24.5,91.2,19.6 M108.2,27.6v-16h3.4v13h6.8v3H108.2
	 M132.2,19.6c0-3-1.9-5.2-4.8-5.2c-3,0-4.9,2.2-4.9,5.2c0,2.9,1.9,5.2,4.9,5.2C130.3,24.9,132.2,22.5,132.2,19.6z M118.9,19.6
	c0-4.9,3.6-8.3,8.4-8.3c4.8,0,8.3,3.4,8.3,8.3c0,4.8-3.6,8.3-8.3,8.3C122.5,27.9,118.9,24.4,118.9,19.6L118.9,19.6z M137.9,21.2
	v-9.6h3.4v9.5c0,2.2,1.3,3.8,3.8,3.8c2.5,0,3.8-1.6,3.8-3.8v-9.5h3.5v9.6c0,3.9-2.4,6.7-7.2,6.7C140.2,27.9,137.9,25.1,137.9,21.2
	 M166.6,19.5c0-2.8-1.7-4.9-5-4.9h-2.9v10h2.9C164.8,24.6,166.6,22.3,166.6,19.5z M155.4,27.6v-16h6.3c5,0,8.5,3.1,8.5,7.9
	c0,4.9-3.5,8.1-8.5,8.1H155.4L155.4,27.6z M177.9,19.6c0-5.1,3.9-8.3,8.6-8.3c3.3,0,5.4,1.7,6.6,3.6l-2.8,1.6
	c-0.8-1.2-2.1-2.1-3.8-2.1c-2.9,0-5.1,2.2-5.1,5.2c0,3,2.2,5.2,5.1,5.2c1.4,0,2.8-0.6,3.4-1.2v-1.9h-4.2v-3h7.7v6.1
	c-1.7,1.8-3.9,3-6.8,3C181.8,27.9,177.9,24.6,177.9,19.6 M195.8,21.2v-9.6h3.5v9.5c0,2.2,1.2,3.8,3.8,3.8c2.4,0,3.8-1.6,3.8-3.8
	v-9.5h3.4v9.6c0,3.9-2.4,6.7-7.2,6.7C198.1,27.9,195.8,25.1,195.8,21.2 M222.7,16.7c0-1.3-1.1-2.1-2.4-2.1h-3.6v4.3h3.6
	C221.6,18.9,222.7,18.1,222.7,16.7z M222.4,27.6l-3.2-5.7h-2.5v5.7h-3.4v-16h7.5c3.3,0,5.4,2.1,5.4,5.1c0,2.8-1.8,4.4-3.6,4.8
	l3.7,6.1H222.4L222.4,27.6z M228.4,21.2v-9.6h3.5v9.5c0,2.2,1.3,3.8,3.8,3.8c2.5,0,3.8-1.6,3.8-3.8v-9.5h3.5v9.6
	c0,3.9-2.4,6.7-7.2,6.7C230.8,27.9,228.4,25.1,228.4,21.2"/>
<path d="M18.9,24.7c0.1-0.4,0.2-0.8,0.2-1.2l0.8,0.1c0,0.5-0.2,1.1-0.4,1.6L18.8,25C18.9,25,18.9,24.9,18.9,24.7L18.9,24.7
	L18.9,24.7L18.9,24.7L18.9,24.7L18.9,24.7L18.9,24.7L18.9,24.7C18.9,24.8,18.9,24.8,18.9,24.7L18.9,24.7L18.9,24.7L18.9,24.7
	L18.9,24.7L18.9,24.7L18.9,24.7L18.9,24.7L18.9,24.7L18.9,24.7L18.9,24.7L18.9,24.7L18.9,24.7L18.9,24.7L18.9,24.7L18.9,24.7
	C18.9,24.8,18.9,24.8,18.9,24.7L18.9,24.7L18.9,24.7L18.9,24.7L18.9,24.7L18.9,24.7L18.9,24.7L18.9,24.7L18.9,24.7L18.9,24.7
	L18.9,24.7L18.9,24.7L18.9,24.7L18.9,24.7L18.9,24.7L18.9,24.7L18.9,24.7z M19.1,18.6L18.5,19c-0.2-0.5-0.5-0.9-0.8-1.4l0.6-0.5
	C18.6,17.6,18.9,18.1,19.1,18.6z M17.2,15.9l-0.6,0.6c-0.4-0.4-0.8-0.7-1.2-1l0.4-0.6C16.4,15.1,16.8,15.5,17.2,15.9z M18.2,26.5
	l0.7,0.3c-0.3,0.5-0.6,1-0.9,1.4l-0.6-0.5l0,0l0,0l0,0l0,0l0,0l0,0l0,0l0,0l0,0l0,0c0,0,0,0,0,0l0,0l0,0l0,0l0,0l0,0l0,0l0,0l0,0
	c0-0.1,0-0.1,0-0.1l0,0l0,0l0,0l0,0l0,0l0,0l0,0l0,0l0,0l0,0l0,0l0,0l0,0l0,0l0,0c0.1,0,0.1,0,0.1,0v0l0,0l0,0l0,0l0,0l0,0l0,0l0,0
	l0,0l0,0l0,0l0,0l0,0l0,0l0,0l0,0l0,0l0,0l0,0l0,0c0,0,0,0,0-0.1l0,0l0,0l0,0c0,0,0,0,0,0l0,0l0,0l0,0l0,0l0,0l0,0l0,0l0,0l0,0
	c0,0,0,0,0-0.1c0.2-0.2,0.3-0.4,0.4-0.7l-0.4,0.4c-0.4-0.4-0.7-0.8-1.1-1.2l0.6-0.4c0.1,0.1,0.2,0.2,0.4,0.4l0,0l0,0l0,0l0,0l0,0
	l0,0l0,0c0,0,0,0,0,0l0,0l0,0l0,0c0,0,0,0,0,0l0,0l0,0l0,0l0,0l0,0l0,0l0,0l0,0l0,0l0,0l0,0l0,0V26l0,0l0,0l0,0l0,0l0,0l0,0l0,0l0,0
	l0,0l0,0l0,0l0,0c0.1,0,0.1,0,0.1,0l0,0l0,0l0,0l0,0l0,0l0,0l0,0c0,0,0,0,0,0l0,0l0,0l0,0l0,0l0,0l0,0l0,0l0,0l0,0l0,0l0,0l0,0l0,0
	l0,0c0,0,0,0,0,0l0,0l0,0l0,0l0,0c0,0,0,0,0,0l0,0l0,0l0,0l0,0l0,0l0,0c0,0,0,0,0.1,0l0,0v0.1l0,0l0,0c0,0,0,0,0,0h0l0,0l0,0l0,0
	l0,0l0,0l0,0v0.1l0,0l0,0c0,0,0,0,0,0l0,0l0,0l0,0l0,0l0,0l0,0l0,0l0,0l0,0l0,0l0,0v0l0,0l0,0l0,0l0,0h0.1l0,0l0,0l0,0l0,0l0,0l0,0
	l0,0l0,0l0,0l0,0l0,0v0l0,0l0,0l0,0l0,0l0,0l0,0l0,0l0,0l0,0l0,0c0,0,0,0,0,0l0,0l0,0l0,0l0,0l0,0l0,0l0,0l0,0c0,0,0,0,0,0.1l0,0
	l0,0l0,0l0,0l0,0l0,0l0,0c0,0,0,0,0.1,0l0,0l0,0l0,0l0,0l0,0C18,26.5,18,26.5,18.2,26.5L18.2,26.5L18.2,26.5L18.2,26.5L18.2,26.5
	L18.2,26.5L18.2,26.5L18.2,26.5L18.2,26.5L18.2,26.5L18.2,26.5L18.2,26.5L18.2,26.5L18.2,26.5L18.2,26.5L18.2,26.5L18.2,26.5
	L18.2,26.5L18.2,26.5L18.2,26.5L18.2,26.5L18.2,26.5L18.2,26.5L18.2,26.5L18.2,26.5L18.2,26.5L18.2,26.5L18.2,26.5L18.2,26.5
	C18.2,26.5,18.2,26.5,18.2,26.5z M15.1,29.8c0.4-0.3,0.8-0.6,1.2-0.9l0.5,0.5c-0.4,0.4-0.9,0.7-1.4,1L15.1,29.8z M37.8,10.6
	L37.8,10.6l-0.4-0.8h0c0.5-0.2,1-0.4,1.5-0.6h0l0.2,0.9h0C38.8,10.1,38.3,10.3,37.8,10.6z M36.3,11.4L36.3,11.4L36.3,11.4L36.3,11.4
	L36.3,11.4L36.3,11.4L36.3,11.4L36.3,11.4l-0.1,0.1v0.1h0l-0.1,0.1l0,0h0l0,0c0,0.1,0,0.1,0,0.1h0l0,0c0,0,0,0,0,0h0l0,0
	c0,0,0,0,0,0l-0.1,0.1l0,0h0l0,0v0.1l0,0l0,0h0l0,0l0,0.1v0h0l0,0l0,0l0,0l-0.1,0.1h0l0,0.1l0,0l0,0h0v0.1l0,0l0,0
	c0,0.1-0.2,0.1-0.2,0.1l0,0.1l-0.6-0.6l0.1-0.1c0.4-0.4,0.8-0.7,1.3-1l0-0.1l0.5,0.8l0,0.1v0.1H36.3L36.3,11.4L36.3,11.4z
	 M33.2,14.6L33.2,14.6l-0.8-0.5v0c0.3-0.5,0.7-1,1-1.4l0-0.1l0.7,0.6h0v0.1l0,0l0,0l0,0l0,0l0,0l-0.1,0v0.1l0,0l0,0h0v0.1h0
	C33.8,13.9,33.5,14.2,33.2,14.6L33.2,14.6z M32,17.4L32,17.4l-0.9-0.2v-0.1c0.1-0.5,0.4-1.1,0.6-1.6v-0.1l0.8,0.4v0
	c-0.2,0.5-0.4,1-0.5,1.4L32,17.4L32,17.4z M31.6,20.4L31.6,20.4l-0.9,0.1v0c0-0.2,0-0.6,0-0.8c0-0.4,0-0.7,0.1-1v0l0.9,0.1l0,0.1
	c0,0.3-0.1,0.5-0.1,0.8v0.1c0,0,0,0,0,0l0,0C31.6,20,31.6,20.2,31.6,20.4z M32.2,23.5L32.2,23.5l-0.9,0.2v0
	c-0.2-0.6-0.3-1.1-0.4-1.6V22l0.1,0l0.8-0.1l0,0.1C31.9,22.5,32,23,32.2,23.5L32.2,23.5z M33.2,25.8c0,0.2,0.2,0.3,0.2,0.4v0
	l-0.8,0.5v0c-0.3-0.5-0.6-1-0.9-1.5v0l0.8-0.4v0.1c0,0.1,0,0.1,0.1,0.2l0,0h0l0,0l0,0v0l0,0l0,0h0.1v0.1l0,0l0,0l0,0.1l0,0l0,0.1
	l0,0l0,0.1h0l0,0l0,0v0.1l0,0v0h0.1l0,0l0,0l0,0l0,0l0,0l0,0l0,0L33.2,25.8L33.2,25.8L33.2,25.8L33.2,25.8L33.2,25.8L33.2,25.8
	L33.2,25.8L33.2,25.8L33.2,25.8z M37.8,29.9c0.2,0,0.3,0.1,0.5,0.2h0l-0.3,0.9l-0.1,0c-0.5-0.2-1-0.5-1.5-0.8h0l0.5-0.8l0.2,0.2l0,0
	h0l0,0l0.1,0l0,0l0,0h0l0,0l0,0l0,0.1l0,0h0v0l0,0l0,0h0h0.1v0.1h0l0,0l0,0h0l0,0l0,0l0,0h0v0L37.8,29.9L37.8,29.9L37.8,29.9
	L37.8,29.9z M42.2,16.1l0.8-0.1c0,0.3,0,0.7,0,1c0,0.2,0,0.5,0,0.6h-0.8c0,0,0,0,0,0l0,0l0,0l0,0l0,0l0,0l0,0c0-0.1,0-0.1,0-0.1l0,0
	l0,0l0,0l0,0l0,0l0,0l0,0l0,0l0,0v0l0,0l0,0l0,0l0,0l0,0l0,0l0,0l0,0l0,0c0,0,0,0,0,0l0,0l0,0l0,0l0,0l0,0l0,0l0,0l0,0l0,0v-0.1l0,0
	l0,0l0,0l0,0l0,0l0,0l0,0l0,0l0,0c0,0,0,0,0,0l0,0l0,0l0,0l0,0l0,0l0,0l0,0l0,0l0,0c0-0.1,0-0.1,0-0.1l0,0l0,0l0,0l0,0l0,0l0,0l0,0
	l0,0l0,0c0,0,0,0,0,0l0,0l0,0l0,0l0,0l0,0l0,0l0,0l0,0l0,0c0,0,0,0,0,0l0,0l0,0l0,0l0,0l0,0l0,0l0,0l0,0l0,0v-0.1l0,0l0,0l0,0l0,0
	l0,0l0,0l0,0l0,0l0,0v0l0,0l0,0l0,0l0,0l0,0c0,0,0,0,0,0l0,0l0,0l0,0c0-0.1,0-0.1,0-0.1l0,0l0,0l0,0l0,0l0,0l0,0l0,0l0,0l0,0
	c0,0,0,0,0,0l0,0l0,0l0,0l0,0l0,0l0,0l0,0l0,0l0,0l0,0c0,0,0,0,0,0l0,0l0,0l0,0l0,0l0,0l0,0l0,0l0,0l0,0l0,0l0,0l0,0l0,0
	c0-0.1,0-0.1,0-0.1l0,0l0,0l0,0l0,0l0,0c0,0,0,0,0,0l0,0l0,0l0,0l0,0l0,0l0,0l0,0c0,0,0,0,0,0l0,0l0,0l0,0l0,0l0,0l0,0l0,0l0,0l0,0
	l0,0c0,0,0,0,0-0.1l0,0l0,0l0,0l0,0l0,0l0,0l0,0c0,0,0,0,0,0l0,0c0-0.1,0-0.2,0-0.4l0,0c0,0,0,0,0,0l0,0l0,0l0,0l0,0l0,0l0,0l0,0
	l0,0l0,0c0,0,0,0,0-0.1l0,0l0,0l0,0l0,0l0,0l0,0l0,0l0,0l0,0l0,0l0,0C42.2,16.2,42.2,16.1,42.2,16.1z M16.3,24.1l-0.6,0.4
	c-0.3-0.4-0.5-0.9-0.8-1.4l0.7-0.3C15.8,23.2,16,23.7,16.3,24.1z M40.5,23.5c0.2-0.4,0.5-0.9,0.7-1.4l0.7,0.3
	c-0.2,0.5-0.5,1-0.7,1.4L40.5,23.5z M40.8,10.8L40.8,10.8c-0.2-0.2-0.2-0.4-0.3-0.6l0.7-0.4c0.2,0.5,0.5,1,0.7,1.5l-0.7,0.3
	C41,11.4,40.9,11.1,40.8,10.8L40.8,10.8C40.8,10.9,40.8,10.9,40.8,10.8L40.8,10.8L40.8,10.8L40.8,10.8L40.8,10.8L40.8,10.8
	L40.8,10.8L40.8,10.8L40.8,10.8L40.8,10.8L40.8,10.8L40.8,10.8L40.8,10.8L40.8,10.8L40.8,10.8L40.8,10.8L40.8,10.8L40.8,10.8
	L40.8,10.8L40.8,10.8L40.8,10.8L40.8,10.8L40.8,10.8L40.8,10.8L40.8,10.8C40.8,10.8,40.8,10.8,40.8,10.8L40.8,10.8L40.8,10.8
	L40.8,10.8L40.8,10.8z M14.3,17.2c0,0.4,0.1,0.8,0.1,1.1l-0.8,0c-0.1-0.4-0.1-0.9-0.1-1.4v-0.2l0.8,0c0,0,0,0,0,0.1l0,0l0,0l0,0l0,0
	c0,0,0,0,0,0.1l0,0l0,0l0,0l0,0l0,0v0l0,0l0,0l0,0l0,0l0,0l0,0l0,0l0,0l0,0l0,0l0,0l0,0l0,0l0,0c0,0,0,0,0,0l0,0l0,0l0,0l0,0l0,0
	l0,0l0,0l0,0l0,0l0,0l0,0l0,0l0,0l0,0l0,0v0.1l0,0l0,0l0,0l0,0l0,0l0,0l0,0l0,0l0,0l0,0l0,0l0,0l0,0V17.2L14.3,17.2L14.3,17.2
	L14.3,17.2L14.3,17.2C14.3,17.1,14.3,17.1,14.3,17.2L14.3,17.2L14.3,17.2L14.3,17.2z M41.7,20.7c0.1-0.5,0.2-1,0.3-1.5l0.8,0.1
	c0,0.6-0.2,1.1-0.3,1.6L41.7,20.7z M13.6,15.1c0.1-0.2,0.1-0.3,0.1-0.5c-0.4-0.2-0.8-0.2-1.1-0.4l0.2-0.8c0.3,0.1,0.8,0.2,1.1,0.4
	c0-0.1,0.1-0.2,0.1-0.3l0.8,0.1c-0.1,0.5-0.2,1-0.3,1.6L13.6,15.1z M22,29.5L22,29.5c0.4,0.2,0.9,0.4,1.3,0.5L23,30.8
	c-0.5-0.2-1-0.4-1.5-0.6l0.4-0.7l0,0L22,29.5L22,29.5L22,29.5L22,29.5L22,29.5L22,29.5L22,29.5L22,29.5L22,29.5L22,29.5L22,29.5
	L22,29.5L22,29.5C21.9,29.4,21.9,29.4,22,29.5C22,29.4,22,29.4,22,29.5L22,29.5L22,29.5L22,29.5L22,29.5z M41.6,13.1
	C41.6,13.1,41.6,13.1,41.6,13.1l0.8-0.2c0.2,0.5,0.3,1,0.4,1.5L42,14.6c0-0.1,0-0.2,0-0.2l0,0l0,0l0,0l0,0l0,0l0,0l0,0l0,0l0,0
	c0-0.1,0-0.1,0-0.1l0,0l0,0l0,0l0,0l0,0l0,0l0,0l0,0l0,0l0,0l0,0l0,0l0,0l0,0l0,0c0,0,0,0,0-0.1l0,0l0,0l0,0l0,0l0,0l0,0l0,0l0,0
	l0,0l0,0l0,0l0,0l0,0v-0.1l0,0l0,0l0,0l0,0l0,0l0,0C41.8,13.8,41.8,13.5,41.6,13.1L41.6,13.1L41.6,13.1L41.6,13.1L41.6,13.1
	L41.6,13.1L41.6,13.1L41.6,13.1L41.6,13.1C41.7,13.1,41.7,13.1,41.6,13.1L41.6,13.1L41.6,13.1L41.6,13.1L41.6,13.1L41.6,13.1
	L41.6,13.1L41.6,13.1L41.6,13.1L41.6,13.1L41.6,13.1L41.6,13.1L41.6,13.1L41.6,13.1L41.6,13.1L41.6,13.1z M39.4,25.4
	c0.1-0.1,0.2-0.3,0.3-0.5l0.6,0.4c-0.3,0.5-0.6,0.9-1,1.3l-0.5-0.5c0.2-0.2,0.4-0.5,0.5-0.6l0,0l0,0l0,0l0,0l0,0l0,0l0,0
	C39.3,25.4,39.3,25.4,39.4,25.4L39.4,25.4L39.4,25.4L39.4,25.4L39.4,25.4L39.4,25.4L39.4,25.4L39.4,25.4L39.4,25.4L39.4,25.4
	L39.4,25.4L39.4,25.4L39.4,25.4L39.4,25.4L39.4,25.4L39.4,25.4L39.4,25.4L39.4,25.4C39.4,25.4,39.4,25.4,39.4,25.4L39.4,25.4
	L39.4,25.4L39.4,25.4L39.4,25.4z M37.3,27.6c0.1-0.1,0.2-0.2,0.4-0.4l0.5,0.6c-0.4,0.4-0.8,0.7-1.2,1.1l-0.5-0.6
	c0.2-0.1,0.3-0.2,0.5-0.4l0,0l0,0l0,0l0,0l0,0c0,0,0-0.1,0-0.1l0,0l0,0l0,0l0,0l0,0l0,0l0,0l0,0l0,0l0,0l0,0l0,0c0,0,0,0,0,0l0,0
	l0,0l0,0l0,0l0,0l0,0l0,0l0,0l0,0c0.1,0,0.1,0,0.1,0l0,0c0,0,0,0,0,0l0,0l0,0l0,0l0,0l0,0l0,0l0,0c0,0,0,0,0,0l0,0l0,0l0,0l0,0l0,0
	l0,0l0,0C37.2,27.6,37.2,27.6,37.3,27.6L37.3,27.6L37.3,27.6L37.3,27.6L37.3,27.6L37.3,27.6L37.3,27.6L37.3,27.6
	C37.2,27.6,37.2,27.6,37.3,27.6L37.3,27.6z M35,29.1c0,0,0.1,0,0.2-0.1l0.3,0.7c-0.4,0.3-0.9,0.5-1.4,0.8l-0.3-0.7
	c0.1,0,0.2-0.1,0.4-0.1l0,0l0,0l0,0h0l0,0l0,0l0,0c0,0,0,0,0-0.1l0,0l0,0l0,0l0,0l0,0l0,0l0,0l0,0l0,0l0,0l0,0c0,0,0,0,0,0l0,0l0,0
	l0,0l0,0l0,0l0,0C34.5,29.4,34.8,29.3,35,29.1L35,29.1c-0.5-0.4-0.9-0.8-1.2-1.1l0,0h0l0.6-0.6l0,0c0.1,0.1,0.2,0.3,0.4,0.5h0.1l0,0
	v0h0V28h0l0,0l0,0v0l0,0l0,0c0.2,0.1,0.3,0.3,0.5,0.5l0,0L35,29.1z M20.2,28.4L20.2,28.4c0.1,0.1,0.2,0.1,0.3,0.2l-0.4,0.6
	c-0.5-0.3-0.9-0.6-1.3-1l0.5-0.5l0,0l0,0l0,0l0,0l0,0l0,0l0,0l0,0l0,0l0,0l0,0c0.1,0,0.1,0,0.1,0l0,0l0,0l0,0l0,0l0,0l0,0
	c0.2,0.2,0.5,0.4,0.8,0.6l0,0l0,0l0,0l0,0l0,0C20.1,28.3,20.1,28.3,20.2,28.4L20.2,28.4L20.2,28.4L20.2,28.4L20.2,28.4L20.2,28.4
	L20.2,28.4L20.2,28.4L20.2,28.4L20.2,28.4L20.2,28.4L20.2,28.4L20.2,28.4L20.2,28.4L20.2,28.4L20.2,28.4L20.2,28.4
	C20.1,28.4,20.1,28.4,20.2,28.4L20.2,28.4L20.2,28.4L20.2,28.4L20.2,28.4L20.2,28.4L20.2,28.4L20.2,28.4L20.2,28.4L20.2,28.4
	L20.2,28.4z M20.8,15.3c0-0.4-0.1-0.7-0.1-0.9l0.7-0.2c0.2,0.6,0.2,1.2,0.2,1.8h-0.8c0-0.1,0-0.2,0-0.3l0,0l0,0c0,0,0,0,0-0.1l0,0
	l0,0l0,0l0,0l0,0l0,0l0,0l0,0c0,0,0,0,0-0.1l0,0l0,0l0,0l0,0l0,0l0,0l0,0l0,0l0,0l0,0l0,0l0,0l0,0l0,0l0,0c0-0.1,0-0.1,0-0.1l0,0
	l0,0l0,0l0,0l0,0l0,0l0,0l0,0l0,0l0,0l0,0l0,0l0,0l0,0l0,0l0,0C20.9,15.4,20.9,15.4,20.8,15.3L20.8,15.3L20.8,15.3L20.8,15.3
	L20.8,15.3L20.8,15.3L20.8,15.3L20.8,15.3L20.8,15.3L20.8,15.3L20.8,15.3L20.8,15.3L20.8,15.3L20.8,15.3L20.8,15.3L20.8,15.3
	C20.8,15.4,20.8,15.4,20.8,15.3L20.8,15.3L20.8,15.3L20.8,15.3L20.8,15.3L20.8,15.3L20.8,15.3L20.8,15.3L20.8,15.3L20.8,15.3
	L20.8,15.3L20.8,15.3L20.8,15.3C20.8,15.3,20.8,15.3,20.8,15.3L20.8,15.3L20.8,15.3L20.8,15.3L20.8,15.3L20.8,15.3L20.8,15.3
	L20.8,15.3z M19,20.8c-0.4,0.3-0.8,0.5-1.1,0.7l-0.3-0.8c0.4-0.2,0.8-0.4,1.1-0.6l0,0l0,0l0,0l0,0l0,0l0,0l0,0l0,0h0.1l0,0l0,0l0,0
	l0,0l0,0l0,0l0,0c0-0.1,0-0.1,0-0.1l0,0l0,0l0,0l0,0l0,0l0,0l0,0l0,0l0,0l0,0l0,0h0l0,0l0,0c0,0,0.1-0.1,0.1-0.1l0.3,0.4l0.5-0.1
	c0,0.1,0.1,0.4,0.1,0.5c0.1,0.4,0.2,0.8,0.2,1.1L19.2,22c-0.1-0.1-0.1-0.1-0.1-0.1l0,0l0,0l0,0c0-0.1,0-0.1,0-0.1l0,0l0,0l0,0l0,0
	l0,0l0,0l0,0l0,0l0,0l0,0l0,0c0,0,0,0,0,0l0,0l0,0l0,0l0,0l0,0l0,0l0,0l0,0l0,0l0,0l0,0l0,0c0,0,0,0,0,0l0,0l0,0l0,0l0,0l0,0l0,0
	l0,0l0,0c0-0.1,0-0.1,0-0.1l0,0l0,0c0-0.2,0-0.4-0.1-0.6c0,0,0,0,0,0l0,0l0,0l0,0l0,0l0,0c0,0,0,0,0,0l0,0l0,0l0,0l0,0l0,0l0,0l0,0
	l0,0l0,0l0,0l0,0c0,0,0,0,0-0.1l0,0c0,0,0,0,0,0l0,0C19,20.9,19,20.8,19,20.8z M19.4,12.1L19.4,12.1c-0.1-0.1-0.2-0.2-0.4-0.3
	l0.5-0.6c0.4,0.4,0.8,0.9,1.2,1.4L20,12.9c-0.1-0.1-0.2-0.2-0.3-0.3c0-0.1,0-0.1,0-0.1l0,0l0,0l0,0l0,0l0,0l0,0l0,0l0,0l0,0l0,0
	c-0.1,0-0.1-0.1-0.1-0.1l0,0l0,0l0,0l0,0l0,0l0,0l0,0l0,0l0,0l0,0l0,0l0,0l0,0l0,0l0,0l0,0l0,0l0,0l0,0l0,0c0,0,0,0,0-0.1l0,0l0,0
	l0,0l0,0l0,0c0,0,0,0,0,0l0,0l0,0l0,0l0,0l0,0l0,0l0,0l0,0l0,0l0,0l0,0l0,0l0,0l0,0l0,0v-0.1l0,0l0,0l0,0l0,0l0,0l0,0l0,0l0,0h-0.1
	l0,0l0,0l0,0l0,0l0,0l0,0l0,0l0,0l0,0l0,0l0,0l0,0v0l0,0l0,0l0,0l0,0l0,0l0,0l0,0l0,0l0,0l0,0l0,0h0l0,0l0,0l0,0l0,0l0,0l0,0l0,0
	l0,0l0,0v-0.1l0,0l0,0l0,0l0,0l0,0l0,0l0,0l0,0l0,0l0,0l0,0l0,0l0,0l0,0h0l0,0l0,0l0,0l0,0l0,0l0,0v-0.1l0,0l0,0l0,0l0,0l0,0l0,0
	l0,0l0,0l0,0l0,0l0,0l0,0l0,0l0,0l0,0c-0.1,0-0.1,0-0.1,0l0,0l0,0C19.4,12.2,19.4,12.2,19.4,12.1L19.4,12.1L19.4,12.1L19.4,12.1
	L19.4,12.1L19.4,12.1L19.4,12.1L19.4,12.1L19.4,12.1L19.4,12.1L19.4,12.1L19.4,12.1L19.4,12.1L19.4,12.1L19.4,12.1L19.4,12.1
	L19.4,12.1C19.4,12.2,19.4,12.2,19.4,12.1L19.4,12.1z M15.6,21.9c-0.4,0-0.8,0-1.2-0.1l0-0.2l-0.1,0.1c-0.1-0.5-0.3-1.1-0.4-1.6
	l0.8-0.1c0.1,0.4,0.2,0.8,0.3,1.2c0.2,0,0.3,0.1,0.4,0.1l0,0l0,0l0,0l0,0l0,0l0,0c0.1,0,0.1,0,0.1,0l0,0l0,0l0,0l0,0l0,0l0,0l0,0
	l0,0l0,0l0,0l0,0l0,0l0,0c0,0,0,0,0,0l0,0l0,0l0,0l0,0l0,0l0,0l0,0l0,0l0,0l0,0l0,0l0,0l0,0l0,0l0,0l0,0l0,0h0.1l0,0l0,0l0,0l0,0
	l0,0l0,0l0,0l0,0l0,0l0,0l0,0l0,0l0,0l0,0l0,0l0,0l0,0l0,0l0,0l0,0l0,0h0.1l0,0l0,0l0,0l0,0l0,0l0,0l0,0l0,0l0,0l0,0l0,0l0,0l0,0
	l0,0l0,0l0,0l0,0l0,0l0,0l0,0l0,0l0,0l0,0c0,0,0,0,0.1,0l0,0l0,0l0,0l0,0l0,0l0,0l0,0l0,0l0,0l0,0l0,0l0,0l0,0l0,0l0,0l0,0l0,0l0,0
	l0,0l0,0l0,0l0,0l0,0c0.1,0,0.1,0,0.1,0l0,0l0,0l0,0l0,0l0,0l0,0l0,0l0,0l0,0l0,0l0,0l0,0l0,0h0l0,0l0,0l0,0l0,0l0,0l0,0
	c0,0,0,0,0.1,0c0.1,0,0.2,0,0.3,0l0.1,0.8C15.9,21.9,15.8,21.9,15.6,21.9z M20.6,17.4L20.6,17.4l0.8,0.2c-0.1,0.1-0.1,0.3-0.1,0.5
	c-0.2,0.4-0.4,0.8-0.7,1.1L20,18.8c0.1-0.2,0.2-0.4,0.3-0.6c0-0.1,0-0.1,0-0.1l0,0l0,0l0,0l0,0l0,0v0l0,0l0,0l0,0c0,0,0,0,0.1,0l0,0
	l0,0l0,0l0,0l0,0l0,0V18l0,0l0,0l0,0l0,0l0,0l0,0l0,0l0,0l0,0l0,0l0,0l0,0l0,0l0,0l0,0c0,0,0,0,0,0l0,0l0,0l0,0l0,0l0,0l0,0l0,0h0
	l0,0l0,0l0,0l0,0l0,0l0,0v0l0,0l0,0l0,0l0,0l0,0l0,0l0,0l0,0l0,0l0,0l0,0l0,0l0,0l0,0l0,0l0,0v-0.1l0,0l0,0l0,0l0,0l0,0l0,0l0,0l0,0
	l0,0l0,0l0,0l0,0l0,0l0,0c0,0,0,0,0.1,0l0,0v0l0,0l0,0l0,0l0,0l0,0l0,0l0,0l0,0l0,0l0,0l0,0l0,0l0,0l0,0l0,0l0,0v-0.1l0,0l0,0l0,0
	l0,0l0,0l0,0l0,0l0,0l0,0l0,0l0,0l0,0l0,0l0,0l0,0l0,0l0,0l0,0c0,0,0,0,0,0l0,0l0,0l0,0l0,0l0,0l0,0l0,0c0,0,0,0,0,0l0,0l0,0l0,0
	l0,0l0,0l0,0l0,0l0,0l0,0l0,0l0,0l0,0l0,0l0,0l0,0l0,0c0,0,0,0,0,0l0,0l0,0l0,0l0,0l0,0l0,0l0,0l0,0l0,0l0,0l0,0l0,0l0,0l0,0l0,0
	l0,0l0,0l0,0l0,0l0,0c0,0,0,0,0-0.1l0,0l0,0l0,0l0,0l0,0l0,0l0,0C20.5,17.5,20.5,17.5,20.6,17.4L20.6,17.4L20.6,17.4L20.6,17.4z
	 M9.6,17l0.8-0.1c0.1,0.5,0.3,1,0.5,1.4l-0.6,0.4C9.9,18.1,9.8,17.5,9.6,17z M12.1,19.8L12.1,19.8c0.3,0.3,0.6,0.5,1,0.7l-0.4,0.7
	c-0.5-0.3-1-0.6-1.4-1l0.6-0.6l0,0l0,0l0,0l0,0l0,0l0,0l0,0l0,0v0.1l0,0c0,0,0,0,0,0l0,0l0,0l0,0l0,0l0,0l0,0l0,0l0,0l0,0l0,0l0,0
	l0,0l0,0l0,0l0,0l0,0l0,0l0,0l0,0l0,0c0,0,0,0,0.1,0l0,0l0,0l0,0l0,0l0,0l0,0l0,0l0,0l0,0l0,0l0,0l0,0l0,0l0,0l0,0l0,0l0,0l0,0l0,0
	l0,0l0,0l0,0l0,0L12.1,19.8L12.1,19.8L12.1,19.8L12.1,19.8L12.1,19.8L12.1,19.8L12.1,19.8L12.1,19.8L12.1,19.8L12.1,19.8L12.1,19.8
	L12.1,19.8L12.1,19.8L12.1,19.8L12.1,19.8L12.1,19.8L12.1,19.8L12.1,19.8L12.1,19.8L12.1,19.8L12.1,19.8L12.1,19.8L12.1,19.8
	C12.1,19.7,12.1,19.7,12.1,19.8L12.1,19.8C12.1,19.8,12.1,19.8,12.1,19.8L12.1,19.8L12.1,19.8L12.1,19.8L12.1,19.8L12.1,19.8
	L12.1,19.8z M42.5,30.9c5.6-0.1,10.2-4.5,10.5-10.2c0.3-5.9-4.3-10.9-10.2-11.2c-0.1,0-0.3,0-0.5,0c-0.8,0-1.5,0.1-2.2,0.2
	c-0.3-0.4-0.6-0.9-0.9-1.3C39.1,8.3,39,8.2,39,8.2C36.5,5.1,32.6,3,28.2,3C23.6,3,19.5,5.3,17,8.8c-0.1,0.1-0.1,0.1-0.2,0.2
	c-0.1,0.2-0.3,0.5-0.5,0.8c0.6,0,1.1,0.2,1.6,0.4l0.1,0.1L17.6,11c0,0,0-0.1-0.1-0.1l0,0l0,0l0,0l0,0l0,0l0,0l0,0l0,0c0,0,0,0,0,0
	l0,0l0,0l0,0l0,0l0,0l0,0l0,0v-0.1c0,0,0,0,0,0c-0.1,0-0.1,0-0.2,0c0,0,0,0,0,0l0,0l0,0l0,0l0,0l0,0l0,0l0,0l0,0l0,0l0,0l0,0l0,0
	c0,0,0,0,0,0l0,0l0,0l0,0l0,0v-0.1l0,0l0,0l0,0l0,0l0,0l0,0l0,0l0,0l0,0l0,0l0,0l0,0h-0.1l0,0l0,0l0,0l0,0l0,0l0,0l0,0l0,0l0,0l0,0
	l0,0l0,0l0,0l0,0l0,0l0,0c0,0,0,0,0,0l0,0l0,0l0,0l0,0l0,0c-0.3-0.1-0.6-0.2-1-0.2l0.1-0.6c-0.1,0.2-0.2,0.4-0.3,0.6
	c-0.1,0-0.2,0-0.3,0c-0.1,0-0.2,0.1-0.3,0.1l0.4,0.2c0,0.1,0,0.1-0.1,0.1l0,0l0,0l0,0l0,0l0,0l0,0c0,0.1,0,0.1,0,0.1l0,0l0,0l0,0
	l0,0l0,0l0,0l0,0l0,0l0,0l0,0l0,0l0,0l0,0l0,0l0,0c0,0,0,0.1-0.1,0.1l0,0c-0.1,0.4-0.3,0.8-0.5,1.2l-0.8-0.3
	c0.2-0.4,0.4-0.9,0.6-1.3c-2,0.2-3.7,1.6-4.4,3.4c0,0,0,0,0,0l0,0l0,0l0,0l0,0l0,0l0,0l0,0l0,0l0,0l0,0l0,0v0.1l0,0l0,0l0,0l0,0l0,0
	l0,0l0,0l0,0l0,0l0,0l0,0l0,0l0,0l0,0l0,0l0,0l0,0c0,0,0,0,0,0l0,0l0,0l0,0l0,0l0,0l0,0l0,0l0,0l0,0l0,0l0,0l0,0l0,0c0,0,0,0,0,0.1
	l0,0h-0.1l0,0l0,0l0,0l0,0l0,0l0,0l0,0l0,0l0,0l0,0l0,0c0,0.1,0,0.1,0,0.1l0,0l0,0l0,0l0,0l0,0l0,0l0,0l0,0l0,0c0,0,0,0,0,0.1l0,0
	l0,0l0,0l0,0l0,0l0,0c0,0,0,0,0,0.1c-0.1,0.1-0.1,0.3-0.2,0.5c0,0,0,0,0,0l0,0l0,0l0,0l0,0l0,0c0,0,0,0,0,0.1l0,0l0,0l0,0l0,0l0,0
	l0,0l0,0l0,0l0,0l0,0c0,0.1,0,0.1,0,0.1l0,0l0,0l0,0c0,0,0,0,0,0l0,0l0,0l0,0l0,0l0,0l0,0l0,0l0,0v0.1l0,0l0,0l0,0l0,0l0,0l0,0l0,0
	l0,0l0,0l0,0l0,0l0,0l0,0l0,0l0,0l0,0l0,0v0.1l0,0l0,0l0,0l0,0l0,0l0,0l0,0l0,0l0,0l0,0l0,0l0,0l0,0l0,0l0,0l0,0l0,0v0l0,0l0,0l0,0
	l0,0l0,0l0,0l0,0l0,0l0,0l0,0l0,0l0,0l0,0l0,0l0,0c0,0.1,0,0.1,0,0.1l0,0l0,0l0,0c0,0.1,0,0.1,0,0.1l-0.8-0.1
	c0.1-0.3,0.1-0.8,0.2-1.1c-4.2,0.5-7.5,4-7.5,8.4c0,4.6,3.9,8.4,8.4,8.5h-0.1h1.4v-0.2l0,0l0,0l0,0c0.1,0,0.1,0,0.1,0l0,0h0.1l0,0
	l0,0l0,0l0,0l0,0l0,0l0,0l0,0l0,0l0,0l0,0l0,0c0.1,0,0.1,0,0.1,0l0,0l0,0l0,0l0,0h0c0.4-0.1,0.9-0.2,1.2-0.4l0.2,0.6h10.8l0.1-0.5
	c0.2,0,0.5,0.1,0.8,0.1l0,0l0,0l0,0l0,0l0,0l0,0l0,0h0l0,0l0,0l0,0l0,0l0,0l0,0l0,0l0,0l0,0l0,0l0,0l0,0l0,0h0.1l0,0l0,0l0,0
	c0,0.1,0,0.1,0,0.1l0,0l0,0l0,0l0,0l0,0l0,0l0,0l0,0l0,0l0,0l0,0l0,0l0,0c0,0,0,0,0,0l0,0l0,0l0,0l0,0l0,0l0,0c0.2,0,0.4,0,0.6,0.1
	l0,0.2h1.5v-0.1c0.1,0,0.1,0,0.2,0.1l0,0l0,0l0,0l0,0l0,0l0,0l0,0l0,0l0,0l0,0c0,0,0,0,0,0l0,0l0,0l0,0l0,0l0,0l0,0c0,0,0,0,0.1,0
	l0,0l0,0l0,0l0,0l0,0l0,0l0,0l0,0l0,0l0,0l0,0l0,0l0,0l0,0c0,0,0,0,0,0l0,0l0,0l0,0l0,0l0,0l0,0l0,0l0,0l0,0l0,0l0,0l0,0l0,0l0,0
	h0.1l0,0l0,0l0,0l0,0l0,0l0,0l0,0l0,0l0,0l0,0l0,0l0,0l0,0l0,0h0l0,0l0,0l0,0l0,0l0,0l0,0l0,0l0,0l0,0l0,0l0,0h0l0,0l0,0l0,0l0,0
	l0,0l0,0l0,0l0,0l0,0l0,0c0,0,0,0,0.1,0l0,0l0,0l0,0l0,0l0,0l0,0l0,0l0,0l0,0l0,0c0,0,0,0,0,0l0,0l0,0l0,0l0,0l0,0l0,0l0,0l0,0l0,0
	l0,0l0,0h0.1l0,0l0,0l0,0l0,0l0,0l0,0l0,0l0,0c0,0,0,0,0,0l0,0l0,0l0,0l0,0l0,0l0,0l0,0l0,0l0,0c0,0,0,0,0,0l0,0l0,0l0,0l0,0l0,0
	v-0.1l0,0l0,0l0,0c0,0,0,0,0.1,0l0,0l0,0l0,0l0,0l0,0l0,0l0,0l0,0c0,0,0,0,0,0l0,0l0,0l0,0l0,0l0,0h0.1l0,0l0,0l0,0
	c0.2,0,0.4,0,0.6,0V31H31l-0.1-0.2c0.4-0.1,0.8-0.2,1.2-0.3l0,0l0,0l0,0l0,0l0,0l0,0l0,0l0,0l0,0l0,0l0,0l0,0l0,0l0,0l0,0h0.1l0,0
	l0,0l0,0l0,0l0,0l0,0c0,0,0,0,0,0c0.1,0,0.1-0.1,0.2-0.1l0.2,0.7H42L42.5,30.9z M42.9,7.2c7.2,0.3,12.8,6.4,12.4,13.6
	c-0.3,6.8-5.8,12.3-12.7,12.5H42H10.7l0,0C4.8,33.2,0,28.4,0,22.5c0-5.4,4-9.9,9.1-10.6c1.2-1.9,3.2-3.2,5.4-3.6
	c3-4.7,8.1-7.6,13.8-7.6c5.2,0,9.9,2.4,13,6.4c0.3,0,0.8,0,1.1,0C42.5,7.2,42.7,7.2,42.9,7.2z"/>
</svg>
