<?xml version="1.0" encoding="utf-8"?>
<!-- Generator: Adobe Illustrator 24.1.2, SVG Export Plug-In . SVG Version: 6.00 Build 0)  -->
<svg version="1.1" id="Layer_1" xmlns="http://www.w3.org/2000/svg" xmlns:xlink="http://www.w3.org/1999/xlink" x="0px" y="0px"
	 viewBox="0 0 76 18.7" style="enable-background:new 0 0 76 18.7;" xml:space="preserve">
<style type="text/css">
	.adkwst0{opacity:0.5;}
</style>
<path d="M21.6,9.4V1.2c0-0.4,0-0.4,0.4-0.4h8.4c1.7,0,3.4,0.2,5,0.8c2.2,0.7,3.9,2.5,4.5,4.7c0.6,2.1,0.6,4.3,0,6.4
	c-0.6,2.3-2.4,4.1-4.8,4.7c-1.8,0.5-3.6,0.7-5.4,0.7H22c-0.3,0-0.4-0.1-0.4-0.4L21.6,9.4L21.6,9.4z M25.4,9.4v5.3
	c0,0.4,0,0.4,0.4,0.4h4.5c0.7,0,1.3-0.1,2-0.2c1.8-0.2,3.2-1.6,3.6-3.3c0.4-1.5,0.4-3.1-0.1-4.6c-0.4-1.3-1.4-2.4-2.7-2.8
	c-0.8-0.3-1.5-0.4-2.3-0.4h-5c-0.3,0-0.4,0.1-0.4,0.4C25.4,5.8,25.4,7.6,25.4,9.4L25.4,9.4z M47.1,7.8L60.5,0v3.7
	c0,0.2-0.1,0.4-0.3,0.5c-2.4,1.3-4.8,2.6-7.2,3.9c-0.3,0.1-0.5,0.3-0.7,0.5c-0.4,0.4-0.4,1,0,1.4c0,0,0,0,0,0
	c0.3,0.3,0.7,0.6,1.1,0.8c2.2,1.2,4.5,2.4,6.7,3.6c0.2,0.1,0.4,0.3,0.3,0.6v3.7l-13.5-7.8v6.7c0,0.4,0,0.4-0.4,0.4h-3.1
	c-0.3,0-0.4,0-0.4-0.3V1.1c0-0.3,0.1-0.3,0.3-0.3h3.1c0.4,0,0.4,0,0.4,0.4v6.2C47.1,7.5,47.1,7.6,47.1,7.8z M19.4,18h-3.8
	c-0.2,0-0.5-0.1-0.5-0.3c-1.3-2.9-2.7-5.8-4-8.7c-0.1-0.4-0.3-0.7-0.6-1c-0.3-0.4-0.8-0.6-1.3-0.3C9.1,7.8,9,7.9,8.9,8
	C8.7,8.3,8.5,8.5,8.4,8.8c-1.3,2.9-2.7,5.8-4,8.7C4.3,17.8,4,18.1,3.6,18H0c0-0.1,0.1-0.2,0.1-0.3c2.8-5.5,5.5-11,8.3-16.5
	C8.5,0.9,8.8,0.6,9,0.3c0.3-0.4,0.9-0.4,1.2-0.1c0,0,0.1,0.1,0.1,0.1c0.3,0.3,0.5,0.6,0.7,1c1.5,2.9,2.9,5.8,4.4,8.7l3.8,7.6
	C19.3,17.8,19.3,17.9,19.4,18z"/>
<path class="adkwst0" d="M76,0.1v3.5c0.1,0.4-0.2,0.7-0.5,0.8c-2.7,1.2-5.4,2.5-8.2,3.7c-0.3,0.1-0.6,0.3-0.9,0.6
	c-0.4,0.3-0.6,0.8-0.3,1.3c0.1,0.1,0.2,0.2,0.3,0.3c0.3,0.2,0.6,0.4,0.9,0.5c2.8,1.3,5.5,2.6,8.3,3.8c0.2,0.1,0.4,0.3,0.3,0.6v3.6
	l-0.3-0.1c-5.3-2.6-10.5-5.3-15.8-7.9c-0.3-0.2-0.6-0.4-0.8-0.6c-0.4-0.3-0.4-0.8-0.1-1.2c0,0,0.1-0.1,0.1-0.1
	c0.3-0.2,0.5-0.5,0.9-0.6l15.9-7.9L76,0.1z"/>
</svg>
