<?xml version="1.0" encoding="utf-8"?>
<!-- Generator: Adobe Illustrator 24.1.0, SVG Export Plug-In . SVG Version: 6.00 Build 0)  -->
<svg version="1.1"
	 id="svg2376" xmlns:cc="http://creativecommons.org/ns#" xmlns:dc="http://purl.org/dc/elements/1.1/" xmlns:inkscape="http://www.inkscape.org/namespaces/inkscape" xmlns:rdf="http://www.w3.org/1999/02/22-rdf-syntax-ns#" xmlns:sodipodi="http://sodipodi.sourceforge.net/DTD/sodipodi-0.dtd" xmlns:svg="http://www.w3.org/2000/svg"
	 xmlns="http://www.w3.org/2000/svg" xmlns:xlink="http://www.w3.org/1999/xlink" x="0px" y="0px" viewBox="0 0 273.5 65.1"
	 style="enable-background:new 0 0 273.5 65.1;" xml:space="preserve">
<style type="text/css">
	.apexst0{}
	.apexst1{opacity:0.5;}
</style>
<sodipodi:namedview  bordercolor="#666666" borderopacity="1.0" fit-margin-bottom="0" fit-margin-left="0" fit-margin-right="0" fit-margin-top="0" id="base" inkscape:current-layer="layer1" inkscape:cx="170.05149" inkscape:cy="-31.354129" inkscape:document-units="mm" inkscape:pageopacity="0.0" inkscape:pageshadow="2" inkscape:window-height="744" inkscape:window-maximized="1" inkscape:window-width="1280" inkscape:window-x="-4" inkscape:window-y="-4" inkscape:zoom="2.2424998" pagecolor="#ffffff" showgrid="false" units="px">
	</sodipodi:namedview>
<path class="apexst0" d="M12.9,45c-0.6,1-3.2,5.2-4,6.5c1.5,1.9,9.6,11.3,24.1,11.3c15.5,0,24.1-12.5,25.6-14.8L43,26.7
	C32.6,28.7,22.5,34.9,12.9,45z"/>
<path class="apexst1" d="M62.8,32.8C62.8,16,49.2,2.3,32.6,2.3C15.9,2.3,2.3,16,2.3,32.8c0,5.1,1.2,10,3.6,14.5l26.6-43L61,43.2
	C62.2,39.9,62.8,36.4,62.8,32.8z"/>
<path id="path914" inkscape:connector-curvature="0" class="apexst0" d="M95.5,12.1h14.2l19.6,30.3h-12.2l-3.4-5.4H91.6l-3.2,5.4H76.1
	L95.5,12.1z M95.7,30.5h14l-7.1-11.4L95.7,30.5z"/>
<path id="path926" inkscape:connector-curvature="0" class="apexst0" d="M131.2,12.1H161c10.4,0,12.9,4.4,12.9,10.4V25
	c0,4.5-2.3,9.7-10.1,9.7h-21.7v7.6h-10.9V12.1z M142.2,27.2h17c2.6,0,3.5-1.4,3.5-3.2v-1.2c0-2-1.2-3.2-4.5-3.2h-16.1L142.2,27.2z"
	/>
<path id="path930" inkscape:connector-curvature="0" class="apexst0" d="M176.9,12.1h39v7h-28.1v4.9h26.6v6.3h-26.6v4.9h28.7v7.3h-39.7
	L176.9,12.1z"/>
<path id="path934" inkscape:connector-curvature="0" class="apexst0" d="M236.3,27.2l-16.3-15.1h14.1l11.1,10.6l11.1-10.6h14.1
	l-16.3,15.1l17.5,15.2h-14.7l-11.8-11l-11.8,11h-14.7L236.3,27.2z"/>
<path id="path938" inkscape:connector-curvature="0" class="apexst0" d="M76.3,49.4h9.8v2h-3.6v6.1H80v-6.1h-3.6V49.4z"/>
<path id="path950" inkscape:connector-curvature="0" class="apexst0" d="M98,52.3c0-2.4,1.4-2.9,3.7-2.9h4.1c2.3,0,3.7,0.6,3.7,2.9v2.4
	c0,2.4-1.4,3-3.7,3h-4.1c-2.3,0-3.7-0.6-3.7-3V52.3z M100.7,53.9c0,1.2,0.3,1.6,1.5,1.6h3.3c1.2,0,1.5-0.5,1.5-1.6v-0.9
	c0-1-0.3-1.6-1.6-1.6h-3c-1.4,0-1.6,0.6-1.6,1.6V53.9z"/>
<path id="path954" inkscape:connector-curvature="0" class="apexst0" d="M121.7,52.3c0-2.4,1.4-2.9,3.7-2.9h4.1c2.3,0,3.7,0.6,3.7,2.9
	v2.4c0,2.4-1.4,3-3.7,3h-4.1c-2.3,0-3.7-0.6-3.7-3V52.3z M124.3,53.9c0,1.2,0.3,1.6,1.5,1.6h3.3c1.2,0,1.5-0.5,1.5-1.6v-0.9
	c0-1-0.3-1.6-1.6-1.6h-3c-1.4,0-1.6,0.6-1.6,1.6L124.3,53.9z"/>
<path id="path958" inkscape:connector-curvature="0" class="apexst0" d="M145.2,49.4h2.6v6.1h5.8v2.1h-8.4V49.4z"/>
<path id="path970" inkscape:connector-curvature="0" class="apexst0" d="M182.1,52c0-0.6-0.5-0.7-1.3-0.7h-2.8c-1.3,0-1.6,0.3-1.6,1.7v1
	c0,1.4,0.3,1.7,1.6,1.7h2.8c0.7,0,1.4-0.1,1.4-0.9v-0.2h-3.2V53h5.8v2.2c0,2.3-1.3,2.5-4.2,2.5h-3.1c-2.3,0-3.7-0.6-3.7-3v-2.4
	c0-2.4,1.4-2.9,3.7-2.9h3.9c2.9,0,3.3,1,3.3,2.6L182.1,52z"/>
<path id="path974" inkscape:connector-curvature="0" class="apexst0" d="M196.1,49.4h7.8c2,0,2.5,1,2.5,2.4v0.5c0,1.1-0.3,1.7-1.4,2v0
	c0.8,0.1,1.4,0.5,1.4,1.8v1.4h-2.6v-1c0-0.9-0.3-1.1-1.1-1.1h-4.1v2.1h-2.6V49.4z M198.6,53.4h4.3c0.7,0,1-0.3,1-0.9v-0.3
	c0-0.7-0.4-0.9-1.2-0.9h-4L198.6,53.4z"/>
<path id="path978" inkscape:connector-curvature="0" class="apexst0" d="M217.7,52.3c0-2.4,1.4-2.9,3.7-2.9h4.1c2.3,0,3.7,0.6,3.7,2.9
	v2.4c0,2.4-1.4,3-3.7,3h-4.1c-2.3,0-3.7-0.6-3.7-3V52.3z M220.3,53.9c0,1.2,0.3,1.6,1.5,1.6h3.3c1.2,0,1.5-0.5,1.5-1.6v-0.9
	c0-1-0.3-1.6-1.6-1.6h-3c-1.4,0-1.6,0.6-1.6,1.6L220.3,53.9z"/>
<path id="path982" inkscape:connector-curvature="0" class="apexst0" d="M240.3,49.4h2.6v4.7c0,1,0.4,1.4,1.4,1.4h2.6
	c1.1,0,1.4-0.4,1.4-1.4v-4.7h2.6v5.2c0,2-1.1,3-3.4,3h-3.7c-2.4,0-3.5-1-3.5-3V49.4z"/>
<path id="path986" inkscape:connector-curvature="0" class="apexst0" d="M262.5,49.4h7c2.5,0,3,1.2,3,2.8v0.7c0,1.2-0.5,2.6-2.4,2.6H265
	v2h-2.6V49.4z M265,53.5h4c0.6,0,0.8-0.4,0.8-0.9v-0.3c0-0.6-0.3-0.9-1.1-0.9H265L265,53.5z"/>
</svg>
