<?xml version="1.0" encoding="utf-8"?>
<!-- Generator: Adobe Illustrator 24.1.2, SVG Export Plug-In . SVG Version: 6.00 Build 0)  -->
<svg version="1.1" id="Layer_1" xmlns="http://www.w3.org/2000/svg" xmlns:xlink="http://www.w3.org/1999/xlink" x="0px" y="0px"
	 viewBox="0 0 361 40.4" style="enable-background:new 0 0 361 40.4;" xml:space="preserve">
<path d="M3.1,3.7L3.1,3.7 M7.2,1.2c-0.3,0.1-0.7,0.3-1,0.4S5.7,2,5.4,2.1S4.9,2.4,4.7,2.5L4.2,2.9C4.1,3,4,3.1,3.8,3.2L3.5,3.4
	L3.2,3.6c0,0-0.1,0.1-0.1,0.1l0.1,0h0.1h0.1h0.1c0.5-0.2,1-0.4,1.6-0.5s1.1-0.3,1.7-0.4C7.4,2.7,8,2.6,8.6,2.6c0.6,0,1.3,0,1.9,0.1
	c0.7,0.1,1.4,0.2,2.1,0.4c0.7,0.2,1.4,0.5,2.1,0.8c0.7,0.3,1.4,0.7,2.1,1.1c0.7,0.5,1.4,1,2,1.6c0.7,0.6,1.3,1.3,1.8,2
	c0.6,0.7,1.1,1.5,1.6,2.3c0.9,1.7,1.6,3.5,2,5.4c0.2,0.9,0.3,1.9,0.3,2.8c0,0.9-0.1,1.8-0.3,2.7c-0.1,0.8-0.4,1.7-0.6,2.5
	c-0.3,0.8-0.6,1.5-1,2.2c-0.7,1.2-1.6,2.3-2.7,3.3c-0.9,0.7-1.9,1.3-3,1.8c-0.9,0.3-1.8,0.6-2.8,0.7c-0.7,0.1-1.5,0-2.2-0.1h-0.1
	h-0.1h-0.1h-0.1c-0.3-0.1-0.5-0.1-0.8-0.2c-0.2-0.1-0.4-0.2-0.6-0.3l-0.6-0.3L9.2,31l-0.3-0.2l-0.3-0.2l-0.2-0.1l-0.1,0l0,0
	c0.3,0.4,0.6,0.8,0.9,1.2c0.4,0.4,0.7,0.8,1.2,1.2c0.5,0.4,1,0.7,1.5,1c0.6,0.3,1.2,0.6,1.9,0.8h0.1h0.1l0,0
	c0.8,0.3,1.5,0.4,2.3,0.5c0.8,0.1,1.7,0,2.5-0.1c0.9-0.1,1.8-0.4,2.7-0.7c1-0.4,1.9-0.8,2.7-1.4c0.9-0.6,1.8-1.3,2.5-2.1
	c0.8-0.9,1.5-1.8,2.1-2.9c1.3-2.3,2.1-4.8,2.3-7.4c0.1-1.4,0-2.7-0.2-4.1c-0.2-1.3-0.5-2.6-1-3.8c-0.8-2.3-2.1-4.5-3.7-6.3
	c-0.7-0.8-1.5-1.6-2.4-2.3c-0.8-0.6-1.6-1.2-2.5-1.7c-0.8-0.4-1.7-0.8-2.5-1.1c-0.8-0.3-1.6-0.5-2.4-0.7C15.7,0.2,15,0.1,14.2,0
	c-0.7,0-1.3,0-2,0c-0.6,0-1.2,0.1-1.8,0.2C9.9,0.4,9.3,0.5,8.8,0.7L8.3,0.9L8,1L7.6,1.1L7.2,1.2 M35.1,25.5L35.1,25.5 M7.2,16.3
	c-0.5,0-1,0.2-1.5,0.4c-0.5,0.2-1,0.5-1.4,0.9c-0.4,0.4-0.8,0.8-1.1,1.3c-0.4,0.5-0.7,1.1-0.9,1.7c-0.1,0.3-0.2,0.7-0.3,1
	c-0.1,0.3-0.2,0.7-0.2,1s-0.1,0.7-0.1,1.1c0,0.4,0,0.8,0,1.1c0,0.4,0,0.8,0.1,1.2c0,0.4,0.1,0.8,0.2,1.2s0.2,0.8,0.3,1.2
	s0.2,0.8,0.4,1.2c0.3,0.8,0.6,1.6,1,2.3C4,32.6,4.5,33.3,5.1,34c0.5,0.7,1.2,1.4,1.8,2c0.7,0.6,1.4,1.2,2.2,1.7l0.7,0.4
	c0.2,0.1,0.5,0.3,0.7,0.4l0.7,0.4c0.2,0.1,0.5,0.2,0.8,0.3l0.6,0.2l0.6,0.2l0.6,0.2l0.6,0.1c0.5,0.1,0.9,0.2,1.4,0.3
	s0.9,0.1,1.4,0.1s0.9,0,1.4,0s0.9,0,1.4-0.1c0.9-0.1,1.8-0.3,2.7-0.6c0.9-0.3,1.8-0.6,2.6-1c0.8-0.4,1.6-0.8,2.4-1.4
	c0.7-0.5,1.4-1,2-1.6c0.6-0.6,1.2-1.2,1.7-1.8c0.5-0.6,0.9-1.2,1.3-1.8c0.4-0.6,0.7-1.2,1-1.8c0.3-0.6,0.5-1.1,0.7-1.6
	s0.3-0.9,0.4-1.3s0.2-0.7,0.3-1s0.1-0.5,0.2-0.6s0-0.2,0-0.2c-0.7,1.1-1.4,2.2-2.3,3.2c-0.8,1-1.7,1.9-2.6,2.7
	c-0.9,0.8-1.9,1.5-2.9,2.1c-1,0.6-2,1.1-3,1.5c-1,0.4-2,0.8-3,1c-1.9,0.4-3.8,0.5-5.7,0.3c-0.8-0.1-1.7-0.3-2.5-0.5H13l0,0H13h-0.1
	c-0.7-0.2-1.5-0.6-2.2-0.9c-0.7-0.4-1.3-0.8-1.9-1.2c-0.5-0.4-1.1-0.9-1.5-1.5c-0.4-0.5-0.9-1-1.2-1.6c-0.2-0.3-0.3-0.5-0.5-0.8
	S5.3,29.3,5.2,29S5,28.4,4.9,28.2c-0.1-0.3-0.2-0.6-0.3-0.9c-0.1-0.3-0.2-0.6-0.2-0.8s-0.1-0.5-0.2-0.8c0-0.3-0.1-0.5-0.1-0.8
	c0-0.2,0-0.5,0-0.7c0-0.5,0-1,0.1-1.5c0.1-0.4,0.2-0.8,0.4-1.2c0.2-0.4,0.3-0.7,0.5-1c0.2-0.3,0.4-0.6,0.7-0.8
	C6,19.3,6.2,19.1,6.5,19c0.2-0.2,0.5-0.3,0.7-0.4c0.2-0.1,0.5-0.2,0.7-0.2c0.2-0.1,0.4-0.1,0.6-0.1h0.2c0.2,0,0.4,0,0.6,0.1
	c0.2,0,0.4,0.1,0.5,0.2c0.2,0.1,0.3,0.1,0.4,0.2c0.1,0.1,0.2,0.2,0.4,0.2l0.2,0.2c0.1,0.1,0.1,0.1,0.2,0.2c0,0,0.1,0.1,0.1,0.1v0
	l0,0c0-0.4-0.2-0.8-0.4-1.2c-0.2-0.4-0.5-0.8-0.8-1.1c-0.3-0.3-0.7-0.6-1.2-0.8c-0.5-0.2-0.9-0.3-1.4-0.2L7.2,16.3 M0.2,26.3
	L0.2,26.3 M8.3,11.4l-0.5,0.1l-0.6,0.2l-0.5,0.2L6.3,12c-0.2,0.1-0.3,0.2-0.5,0.3c-0.2,0.1-0.3,0.2-0.5,0.3l-0.4,0.3l-0.4,0.3
	c-0.5,0.4-1,0.9-1.5,1.4c-0.4,0.5-0.8,1-1.1,1.5c-0.3,0.5-0.6,1-0.8,1.6c-0.2,0.5-0.4,1-0.5,1.6c-0.1,0.5-0.2,1-0.3,1.5
	c-0.1,0.5-0.1,0.9-0.2,1.4s0,0.8,0,1.2s0,0.7,0,1s0,0.5,0.1,0.8s0.1,0.4,0.1,0.6s0,0.3,0.1,0.4c0,0.1,0,0.1,0,0.2
	c0-0.7,0-1.5,0.1-2.2c0.1-0.7,0.2-1.4,0.4-2.1c0.2-0.7,0.4-1.4,0.7-2c0.3-0.6,0.6-1.2,1-1.8c0.3-0.5,0.7-0.9,1.1-1.3
	c0.4-0.4,0.8-0.7,1.3-1c0.4-0.3,0.9-0.5,1.4-0.7c0.5-0.2,1-0.3,1.6-0.4H8h0.3h0.3H9c0.7,0.1,1.3,0.3,1.9,0.6
	c0.6,0.3,1.2,0.8,1.6,1.3c0.5,0.5,0.9,1.1,1.2,1.8c0.3,0.7,0.5,1.4,0.6,2.1c0.1,0.6,0.1,1.3-0.1,1.9c-0.1,0.6-0.3,1.1-0.7,1.6
	c-0.3,0.4-0.6,0.8-1,1.1c-0.3,0.3-0.8,0.4-1.2,0.5h-0.2h-0.4h-0.2c-0.3,0-0.5-0.1-0.7-0.2c-0.2-0.1-0.4-0.3-0.6-0.4
	c-0.1-0.2-0.3-0.4-0.4-0.6c-0.1-0.2-0.2-0.4-0.2-0.6c0-0.1,0-0.3,0-0.4c0-0.1,0-0.2,0.1-0.3c0.2-0.3,0.4-0.5,0.6-0.8
	c0-0.1,0.1-0.2,0.1-0.3c0-0.1,0-0.3-0.1-0.4c0-0.1-0.1-0.1-0.1-0.2c-0.1-0.1-0.1-0.1-0.2-0.2c-0.1,0-0.2-0.1-0.2-0.1
	c-0.1,0-0.2,0-0.3,0c-0.1,0-0.2,0-0.2,0c-0.2,0-0.3,0.1-0.5,0.1c-0.1,0-0.2,0.1-0.2,0.1c-0.2,0.1-0.3,0.3-0.5,0.5
	c-0.2,0.2-0.3,0.4-0.4,0.7c-0.2,0.6-0.3,1.2-0.2,1.8c0,0.4,0.1,0.7,0.2,1c0.1,0.4,0.2,0.7,0.4,1.1c0.2,0.4,0.4,0.7,0.7,1
	c0.3,0.3,0.6,0.6,0.9,0.9c0.2,0.1,0.3,0.2,0.5,0.4c0.2,0.1,0.4,0.2,0.5,0.3c0.2,0.1,0.4,0.2,0.6,0.2c0.2,0.1,0.4,0.1,0.6,0.2
	c0.2,0,0.5,0.1,0.7,0.1c0.2,0,0.5,0,0.7,0c0.2,0,0.5,0,0.7-0.1c0.2,0,0.5-0.1,0.7-0.2c0.5-0.1,0.9-0.3,1.3-0.6
	c0.4-0.3,0.9-0.6,1.2-0.9c0.4-0.4,0.8-0.8,1.1-1.3c0.3-0.5,0.6-1,0.8-1.5c0.2-0.6,0.4-1.2,0.5-1.8c0.1-0.6,0.2-1.3,0.1-1.9
	c0-0.6-0.1-1.3-0.2-1.9c-0.1-0.6-0.3-1.2-0.5-1.8c-0.2-0.6-0.5-1.1-0.8-1.6c-0.3-0.5-0.6-1-1-1.4c-0.3-0.4-0.7-0.8-1.1-1.2
	c-0.4-0.3-0.8-0.6-1.3-0.9c-0.4-0.3-0.9-0.5-1.3-0.6c-0.4-0.2-0.9-0.3-1.4-0.4c-0.4-0.1-0.9-0.1-1.3-0.2c-0.4,0-0.9,0-1.3,0.1
	L8.3,11.4L8.3,11.4 M45.6,32.9h-5.6L50.7,5.2h4.7L66,32.9h-5.8L58,27.1H47.7L45.6,32.9z M52.9,13L49.6,22h6.7L52.9,13z M67.6,32.9
	V5.2h6.9c3,0,5.1,0.2,6.6,1.2c2.3,1.6,3.7,4.3,3.7,7.1c0,5.1-3.6,8.7-9.7,8.7h-2v10.7H67.6z M74.5,17.6c3.1,0,4.7-1.4,4.7-3.8
	S77.6,10,74.4,10H73v7.5L74.5,17.6z M87.2,32.9V5.2h7.2l7,20.1l7-20.1h7.2v27.7h-5.3l0.2-20.1l-7,20.1h-4.1l-7-20.1l0.2,20.1H87.2z
	 M146.5,19.1c0.1,2.1-0.4,4.3-1.3,6.2c-2.3,5.1-7.4,8.3-13,8.2c-4.1,0.1-7.9-1.7-10.6-4.8c-2.4-2.7-3.7-6.2-3.6-9.8
	c0-3.9,1.6-7.6,4.4-10.2c2.7-2.7,6.4-4.1,10.2-4c5.9,0,10.4,3,12.8,8.6h-6.6c-1.6-2-4-3.1-6.5-3c-4.8,0.1-8.6,4-8.5,8.7
	c0,0,0,0.1,0,0.1c-0.1,4.8,3.6,8.7,8.4,8.8c0.1,0,0.2,0,0.2,0c3.3,0,6.4-2,7.6-5.1h-10.8v-4.7h17.3
	C146.4,18.5,146.5,18.8,146.5,19.1z M155,32.9V5.2h2.7v27.7H155z M164.6,12v2.4c1.7-1.9,4.1-2.9,6.6-2.8c3.1,0,5.6,1.2,6.9,3.3
	c1.2,1.8,1.4,4,1.4,7.1v11h-2.7V21.2c0-4.8-1.7-7.1-6-7.1c-2.2-0.1-4.3,1-5.4,2.8c-0.9,1.6-0.9,3.4-0.9,5.8v10.2H162V12H164.6z
	 M185.2,14.7h-4V12h4V5.2h2.7V12h4v2.7h-4v18.2h-2.7V14.7z M195.2,23.3c0.1,4.3,3.7,7.7,8,7.6c3.1,0,5.9-1.8,7.2-4.6h3
	c-1.9,4.7-5.6,7.2-10.1,7.2c-6,0-10.9-5-10.9-11c0,0,0,0,0-0.1c-0.2-5.9,4.4-10.8,10.3-11c0.2,0,0.5,0,0.7,0
	c6.2,0,10.7,4.7,10.7,11.7v0.2L195.2,23.3z M203.1,13.9c-4,0-7.1,2.6-7.8,7.1h15.9C210.2,16.3,207.5,13.9,203.1,13.9L203.1,13.9z
	 M216.8,32.9V12h2.5v2.4c1-1.7,2.9-2.7,4.9-2.7v2.9c-3.7,0.3-4.7,2.2-4.7,5.7v12.6H216.8z M229.7,12v2.4c1.7-1.9,4.1-2.9,6.6-2.8
	c3.1,0,5.6,1.2,6.9,3.3c1.2,1.8,1.4,4,1.4,7.1v11h-2.6V21.2c0-4.8-1.7-7.1-6-7.1c-2.2-0.1-4.3,1-5.4,2.8c-0.9,1.6-0.9,3.4-0.9,5.8
	v10.2H227V12H229.7z M258.1,33.5c-5.9,0.1-10.7-4.6-10.7-10.5c0-0.1,0-0.3,0-0.4c-0.1-5.9,4.6-10.9,10.5-11c0.2,0,0.3,0,0.5,0
	c3.1-0.1,6,1.3,7.8,3.8V12h2.6v20.9h-2.6v-3.3C264.2,32.1,261.2,33.5,258.1,33.5z M258.2,14c-4.6,0.1-8.2,3.9-8.1,8.5
	c0,0,0,0.1,0,0.1c-0.1,4.5,3.5,8.2,8,8.3c4,0,8-3.7,8-8.7C266.1,17.7,262.2,14,258.2,14z M274.4,14.7h-4V12h4V5.2h2.7V12h4v2.7h-4
	v18.2h-2.7V14.7z M282.9,9.5V5.2h2.7v4.3H282.9z M282.9,12h2.7v20.9h-2.7V12z M299,11.3c6,0,10.9,4.9,11,10.9
	c0,6-4.9,10.8-10.9,10.7S288.3,28,288.4,22C288.4,16.2,293.1,11.4,299,11.3z M299.2,30.9c4.4,0,8-3.6,8-8.5s-3.5-8.5-8.2-8.5
	c-4,0-7.8,3.4-7.8,8.5C291.2,27.3,294.6,30.9,299.2,30.9z M315.3,12v2.4c1.7-1.9,4.1-2.9,6.6-2.8c3.1,0,5.6,1.2,6.9,3.3
	c1.2,1.8,1.4,4,1.4,7.1v11h-2.6V21.2c0-4.8-1.7-7.1-6-7.1c-2.2-0.1-4.2,1-5.3,2.8c-0.9,1.6-0.9,3.4-0.9,5.8v10.2h-2.6V12H315.3z
	 M343.8,33.5c-5.9,0.1-10.7-4.6-10.7-10.5c0-0.1,0-0.3,0-0.4c-0.1-5.9,4.6-10.9,10.5-11c0.2,0,0.3,0,0.5,0c3.1-0.1,6,1.3,7.8,3.8V12
	h2.6v20.9h-2.6v-3.3C349.9,32.1,346.9,33.5,343.8,33.5z M343.9,14c-4.6,0.1-8.2,3.9-8.1,8.5c0,0,0,0.1,0,0.1c-0.1,4.5,3.5,8.2,8,8.3
	c4,0,8-3.7,8-8.7C351.8,17.7,347.9,14,343.9,14z M358.3,5.2h2.7v27.7h-2.7V5.2z"/>
</svg>
