<?xml version="1.0" encoding="utf-8"?>
<!-- Generator: Adobe Illustrator 24.1.0, SVG Export Plug-In . SVG Version: 6.00 Build 0)  -->
<svg version="1.1" id="Canada_Goose" xmlns="http://www.w3.org/2000/svg" xmlns:xlink="http://www.w3.org/1999/xlink" x="0px" y="0px"
	 viewBox="0 0 538.6 552.8" style="enable-background:new 0 0 538.6 552.8;" xml:space="preserve">
<style type="text/css">
	.canadagoosest0{}
</style>
<path class="canadagoosest0" d="M230.3,194.2c2.1,2.3,4.3,6,4.4,8.5c0.1,1.3-0.4,2.7-1.5,4c-1.9,2.3-5.7,2.2-8.4,3.8c-3.3,1.9-2.4,5.1-7.3,5.1
	c-2,0-5.3-0.7-7.7-3.8c-1.5-2-3-4.7-2.3-7.5c0.5-2.2,2.3-4,5.5-5.6c1.3-0.7,3-1.8,4.2-3.1c3.9-4.1,5-4.8,7.1-4.8
	C226.9,190.8,228.9,192.6,230.3,194.2z M306.1,197.9c-2.8,0.1-5.8,2.6-10.7,3.8c-4.2,1-4.3,4.2-4.2,5.7c0.1,2.2,3.2,1.6,3.3,3.8
	c0,1.4-3.7,3.1-3.8,7.3c-0.1,6.2,3.7,6.6,5.8,6.6c3.4-0.1,8.2-5.1,10.2-8.9c2.5-4.9,1.9-6.4,2.1-9.5
	C309.1,202.6,309.7,197.7,306.1,197.9z M346.9,294.6c-3-0.1-5-3.6-8.1-3.6c-1.9,0-3.5,0.7-4.3,2.2c-2.2,3.8-0.3,4.6,0,8
	c0.4,4.1-1,5.5,1.4,9.6c0.9,1.5,2.5,2.1,4.2,2.1c1.6,0,3.2-0.7,4.8-2.1c6-5.4,9.3-9.7,8.2-13C352.1,295,348.3,294.7,346.9,294.6z
	 M364.1,215.8c-1.8,0-3.6,0.7-4.7,1.9c-0.8,0.9-1.9,2.7-2.8,3.4c-1.6,1.5-5.7,0.8-7.3-0.6c-1.5-1.3-2.4-2.6-5-2.6
	c-2.8,0.1-9.2,5.5-2.5,12.4c1.1,1.1,2.8,2.5,6,2.8c2.3,0.3,8.7,0.8,11.5,0.7c4.5-0.1,7.1-2.4,8.5-4.1c4.3-5.3,2.9-9.4,2-11
	C368.7,216.9,366.5,215.8,364.1,215.8z M269.3,14.2c140.9,0,255.1,117.4,255.1,262.2S410.2,538.6,269.3,538.6S14.2,421.2,14.2,276.4
	S128.4,14.2,269.3,14.2 M269.3,528.2c135.1,0,245-113,245-251.8c0-138.9-109.9-251.8-245-251.8s-245,113-245,251.8
	S134.2,528.2,269.3,528.2 M466.5,200.1l4.8,5.9l3.1-3.2l2,11.8c0.1,0.5,0.3,0.9,0.8,1.2c0.8,0.5,1.8,0.2,2.3-0.6l3.8-6.8l1.4,3.2
	l5.4-3.2l-1.8,6.7l3.4,2l-8.5,8.7l6.5,3.8h-14.8l3,11.6l-1.6,0.4l-3-11.6l-12.9,7.6l3.8-6.7l-11.6-3.2l2-3.5l-4.8-4.9h6.3l-0.3-3.5
	l6.6,3.9c0.8,0.5,1.8,0.2,2.3-0.6c0.2-0.5,0.3-1,0.1-1.5l-4-11.2l4.2,1.2L466.5,200.1z M258,75l-7.2,0.2l9.3-27.7l7.1-0.2l10.7,27.2
	l-7.3,0.2l-1.8-4.9l-9.3,0.2L258,75z M261,64.7l6.1-0.2l-3.3-9.5l0,0L261,64.7z M207.2,85.1l-6.9,2.1l1.9-29.3l6.8-2.1l17.2,23.4
	l-7,2.1l-3-4.2l-8.9,2.7L207.2,85.1z M207.4,74.2l5.8-1.8l-5.6-8.3l0,0L207.4,74.2z M177.6,97.8l-11.1-25l6.5-3.1l15.3,11.4h0.1
	l-6.8-15.4l6-2.8l11.1,25l-6.5,3.1l-15.4-11.6h-0.1l6.9,15.6L177.6,97.8z M436.7,157.9h4.4l-0.7-7.7l5.9,4.4l2.2-3.9l4.9,10.8
	c0.2,0.4,0.6,0.8,1.1,0.9c0.9,0.3,1.8-0.3,2.1-1.2l2-7.5l2.2,2.7l4.4-4.6v7l3.8,1l-6,10.7l7.2,2l-14.3,3.9l5.8,10.4l-1.4,0.8
	l-5.8-10.4L444,188l2-7.4h-12l1-3.9l-5.9-3.5l6.1-1.7l-1.2-3.3l7.4,2c0.9,0.3,1.9-0.3,2.1-1.2c0.2-0.5,0.1-1-0.2-1.4L436.7,157.9z
	 M327.8,84.5c-8-2.6-10.7-10.1-8.4-17.7c2.4-7.6,8.8-12.2,16.8-9.6c8,2.6,10.7,10.1,8.4,17.7C342.2,82.5,335.8,87.1,327.8,84.5
	 M326.1,68.9c-1.2,3.9-0.8,8.4,3.6,9.7c4.3,1.4,7.1-2,8.3-5.9c1.1-3.9,0.7-8.3-3.6-9.7C330.1,61.6,327.3,65,326.1,68.9 M301.2,78
	c-8-1.3-12.1-8.5-11-16.4c1.2-7.9,7.4-13.2,15.4-11.9c5.5,0.9,10.9,4.9,10.4,11.8l-6.9-1.2c0.2-2.4-1.8-4.1-4.6-4.6
	c-4.4-0.8-6.8,3-7.4,7s0.5,8.4,4.9,9.1c3.4,0.6,5.9-0.7,6.7-3.1l-4.8-0.8l0.8-5.2l11.1,1.9l-2.4,14.8l-4.4-0.7l0.1-3
	C306.9,78,303.6,78.4,301.2,78 M383.9,103.2c1.2-2-1.7-4.5-4.4-7.7c-2.6-3-5.1-6.8-2.4-11c3.2-5,9.4-3.7,13.6-0.9
	c4.5,3,7.5,8.2,4.3,13.4l-5.8-3.9c1.4-2-0.1-4-1.9-5.2c-1.3-0.8-3.1-1.4-4.1,0.1c-1.1,1.8,1.9,4.3,4.6,7.4c2.6,3.1,4.9,6.8,2.3,11
	c-3.6,5.8-9.7,4.5-14.6,1.2c-5.1-3.4-8.2-8.8-4.5-14.7l5.8,3.9c-1.6,2.8-0.5,4.7,2,6.4C380.6,104.3,382.8,104.9,383.9,103.2
	 M353.2,94.8c-7.7-3.8-9.3-11.6-5.9-18.8c3.3-7.2,10.3-10.8,17.9-7.1c7.6,3.8,9.2,11.6,5.9,18.8S360.8,98.5,353.2,94.8 M353.5,79.1
	c-1.7,3.7-1.8,8.1,2.2,10.1c4,2,7.3-0.9,9-4.6c1.7-3.7,1.9-8.1-2.2-10.1C358.5,72.5,355.2,75.4,353.5,79.1 M420.4,123.7l6.6-6.5
	l2.4,2.6c1.6,1.7,1.9,3.2,0.5,4.6c-1.2,1.1-2.4,0.8-3.4-0.1l-1.2,4.7l-1.3-1.4l1.3-4.4l-0.8-0.8l-2.8,2.8L420.4,123.7z M425.6,121.4
	l1.1,1.2c0.8,0.7,1.4,1.2,2.2,0.4c0.7-0.7,0.1-1.6-0.5-2.2l-1.1-1.1L425.6,121.4z M420.1,128.8c-3.1-3.3-3.5-8.5,0.1-12.1
	c3.6-3.5,8.6-2.8,11.7,0.5s3.5,8.5-0.1,12C428.2,132.8,423.2,132.1,420.1,128.8 M430.6,118.5c-2.3-2.6-6.2-2.7-8.9-0.1
	c-2.7,2.7-2.8,6.6-0.4,9.2c2.3,2.5,6.2,2.6,8.9,0C432.9,125,432.9,121,430.6,118.5 M387.6,115.2l17.2-21l16.3,14.1l-3.6,4.4l-11-9.5
	l-3,3.7l10,8.7l-3.5,4.2l-10-8.7l-3.3,4l11.3,9.7l-3.9,4.7L387.6,115.2z M283.8,271.9c0.3,0.8,0.4,1.6,0.5,2.4h12.3v4.2h-12.3
	c-0.1,0.8-0.3,1.6-0.5,2.4l5.7,2.4l-1.2,2.9l-5.7-2.4c-0.4,0.9-1,1.7-1.6,2.5l4.4,4.5l-2.1,2.2l-4.4-4.5c-0.8,0.7-1.6,1.2-2.4,1.7
	l2.4,5.9l-2.8,1.2l-2.4-5.9c-0.7,0.2-1.5,0.4-2.3,0.5v12.6h-4v-12.6c-0.8-0.1-1.5-0.3-2.3-0.5l-2.4,5.9l-2.8-1.2l2.4-5.9
	c-0.9-0.5-1.7-1.1-2.4-1.7l-4.4,4.5l-2.1-2.2l4.4-4.5c-0.6-0.8-1.1-1.6-1.6-2.5l-5.7,2.4l-1.2-2.9l5.7-2.4c-0.2-0.8-0.4-1.6-0.5-2.4
	h-12.3v-4.2h12.3c0.1-0.8,0.3-1.6,0.5-2.4l-5.7-2.4l1.2-2.9l5.7,2.4c0.4-0.9,1-1.7,1.6-2.5l-4.4-4.5l2.1-2.2l4.4,4.5
	c0.8-0.7,1.6-1.2,2.4-1.7l-2.4-5.9l2.8-1.2l2.4,5.9c0.7-0.2,1.5-0.4,2.3-0.5v-12.6h4v12.6c0.8,0.1,1.5,0.3,2.3,0.5l2.4-5.9l2.8,1.2
	l-2.4,5.9c0.9,0.5,1.7,1.1,2.4,1.7l4.4-4.5l2.1,2.2l-4.4,4.5c0.6,0.8,1.1,1.6,1.6,2.5l5.7-2.4l1.2,2.9L283.8,271.9 M269.3,287.8
	c6,0,11.1-5.2,11.1-11.4s-5.1-11.4-11.1-11.4s-11.1,5.2-11.1,11.4C258.2,282.6,263.3,287.8,269.3,287.8 M227.8,79l-4-27.2l11.4-1.8
	c8.1-1.3,13.8,3,15,11.4c1.4,8.9-2.9,14.4-10.9,15.7L227.8,79z M231.6,56.7l2.2,15l3.3-0.5c5.2-0.9,7-3.4,6.2-8.8
	c-0.7-4.9-3.7-6.9-8.4-6.2L231.6,56.7z M227.7,472.6c5.6,1.3,10.9,6.4,9.8,12.8l-6.8-1.5c0.2-2.8-1.5-4.6-4.4-5.3
	c-4.4-1-6.9,2.6-7.8,6.6c-0.8,3.9,0,8.3,4.4,9.3c3.1,0.7,5.4-0.8,6.3-3.8l6.8,1.5c-1.9,6.9-7.7,9.8-14.3,8.3
	c-7.9-1.7-11.7-9.1-10-16.9C213.3,475.8,219.8,470.8,227.7,472.6 M313.1,472.1c8.2-1.9,14.2,3.2,16,10.9c1.8,7.8-1.5,15.1-9.7,17
	c-8.2,2-14.3-3.1-16-10.9C301.6,481.3,304.9,474,313.1,472.1 M318,494.1c4.4-1.1,5.2-5.5,4.3-9.4c-0.8-4-3.4-7.5-7.8-6.5
	s-5.2,5.4-4.3,9.4S313.6,495.1,318,494.1 M296.3,490.9c2.9,0.4,4,3.6,4.5,6.2c0.2,1.2,0.7,5.2,1.7,6.1l-6.9,0.6
	c-0.7-0.9-1.1-3.5-1.2-4.3c-0.5-2.7-1.2-5.5-4.4-5.2l-5.3,0.5l0.9,10l-6.9,0.7l-2.4-27.4l13.6-1.3c4.7-0.5,9.5,1.3,10,6.8
	C300.1,486.5,299,489.4,296.3,490.9L296.3,490.9 M290.1,488.7c2.1-0.2,3.1-1.5,2.9-3.6c-0.2-2-1.9-2.8-3.8-2.6l-5.5,0.5l0.6,6.2
	L290.1,488.7 M264,477.7c5,0.2,9.6,2.8,9.3,9.2c-0.2,6.8-4.1,9.3-10,9.1l-5.7-0.2l-0.3,9.2l-7-0.3l1-27.5L264,477.7 M262.5,490.5
	c2.2,0,3.8-0.8,3.9-3.2c0.1-2.6-1.5-3.7-3.6-3.8l-4.7-0.2l-0.3,7L262.5,490.5 M383.9,465.7c0.6,1,2.6,4.5,4,4.9l-6,3.4
	c-1-0.5-2.4-2.8-2.8-3.4c-1.5-2.4-3.2-4.6-6.1-3l-4.6,2.6l4.7,8.8l-6.1,3.5l-12.9-24.1l11.9-6.8c4.1-2.4,9.2-2.8,11.8,2.1
	c1.4,2.6,1.5,5.7-0.4,8.1v0.1C380.2,461.1,382.5,463.5,383.9,465.7 M370.8,462.4c1.9-1,2.3-2.6,1.4-4.5c-1-1.7-2.8-1.8-4.5-0.8
	l-4.9,2.8l2.9,5.4L370.8,462.4 M355.2,471.5l5.3,14.1l-4.2,1.7l-1.4-2.7c-0.8,3.2-3.4,5.2-5.7,6.1c-7.5,2.9-14.6-1.1-17.4-8.5
	c-2.7-7.5-0.1-15.3,7.5-18.3c5.2-2.1,11.8-1.4,14.8,4.8l-6.5,2.6c-1-2.1-3.6-2.6-6.2-1.6c-4.2,1.6-4.4,6.1-3,9.9
	c1.5,3.8,4.5,7,8.7,5.3c3.2-1.2,4.8-3.6,4.3-6.1l-4.5,1.8l-1.9-5L355.2,471.5z M498.7,278.1l-10.4,6.2l5.3,5.4l-14.3-3.9v12h-1.6
	v-12l-14.3,3.9l5.3-5.4l-10.4-6.2l2.8-2.8l-3.4-6l6.1,1.7l0.6-3.5l5.4,5.5c0.7,0.7,1.8,0.7,2.4,0c0.4-0.4,0.5-0.9,0.5-1.4l-1-11.9
	l3.8,2.2l3.2-7l3.2,7l3.8-2.2l-1,11.9c0,0.5,0.1,1,0.5,1.4c0.7,0.7,1.7,0.7,2.4,0l5.4-5.5l0.6,3.5l6.1-1.7l-3.4,6L498.7,278.1z
	 M493.9,330.7l-4.8,4.9l2,3.5l-11.6,3.2l3.7,6.7l-12.8-7.6l-3,11.6l-1.6-0.4l3-11.6H454l6.5-3.8l-8.5-8.7l3.4-2l-1.8-6.7l5.4,3.2
	l1.4-3.2l3.8,6.8c0.5,0.8,1.5,1.1,2.3,0.6c0.4-0.3,0.7-0.7,0.8-1.2l2-11.8l3.1,3.2l4.8-5.9l1.3,7.6l4.2-1.2l-4,11.2
	c-0.2,0.5-0.2,1,0.1,1.5c0.5,0.8,1.5,1.1,2.3,0.6l6.6-3.9l-0.3,3.5L493.9,330.7z M417.3,409.3l18.7,19.6l-4.7,4.7l-14.2-14.9
	l-0.1,0.1l10.2,18.9l-3.8,3.8l-18.2-10.8l-0.1,0.1l14.2,14.9l-4.7,4.7l-18.7-19.6l7.3-7.4l15.8,9.8l0.1-0.1l-9.2-16.4L417.3,409.3z
	 M387.9,436.7l23.9,16.1l-5.9,4.4l-4.2-3l-7.5,5.7l1.5,5l-5.8,4.3l-7.8-28.2L387.9,436.7z M389.4,445l3,9.7l4.9-3.7L389.4,445
	L389.4,445z M472.3,388.6l-5.9,3.5l1,3.9h-12l1.9,7.4l-10.5-10.8L441,403l-1.4-0.8l5.8-10.4l-14.3-4l7.2-2l-6-10.7l3.8-1v-7l4.4,4.6
	l2.2-2.7l2,7.5c0.3,0.9,1.2,1.4,2.1,1.2c0.5-0.1,0.9-0.5,1.1-0.9l4.9-10.8l2.2,3.9l6.2-4.4l-0.7,7.7h4.4l-6.7,9.8
	c-0.2,0.4-0.3,0.9-0.2,1.4c0.3,0.9,1.2,1.4,2.1,1.2l7.3-2l-1.2,3.3L472.3,388.6z M153.5,113.1l-5.8-28.7l6-3.9l22.7,17.8l-6.1,4
	l-4-3.3l-7.9,5.1l1.1,5.1L153.5,113.1z M154.6,88.9l2.4,9.8l5.1-3.3L154.6,88.9L154.6,88.9z M44.2,289.7l5.3-5.4l-10.4-6.2l2.8-2.8
	l-3.4-6l6.1,1.7l0.6-3.5l5.4,5.5c0.7,0.7,1.8,0.7,2.4,0c0.4-0.4,0.5-0.9,0.5-1.4l-1-11.9l3.8,2.2l3.2-7l3.2,7l3.8-2.2l-1,11.9
	c0,0.5,0.1,1,0.5,1.4c0.7,0.7,1.7,0.7,2.4,0l5.4-5.5l0.6,3.5l6.1-1.7l-3.4,6l2.8,2.8l-10.4,6.2l5.3,5.4l-14.3-3.9v12h-1.6v-12
	L44.2,289.7z M47.1,216.9l3.4-2l-1.8-6.7l5.4,3.2l1.4-3.2l3.8,6.8c0.5,0.8,1.5,1.1,2.3,0.6c0.4-0.3,0.7-0.7,0.8-1.2l2-11.8l3.1,3.2
	l4.8-5.9l1.3,7.6l4.2-1.2l-4,11.2c-0.2,0.5-0.2,1,0.1,1.5c0.5,0.8,1.5,1.1,2.3,0.6l6.6-3.9l-0.3,3.5h6.3l-4.8,4.9l2,3.5l-11.6,3.2
	l3.7,6.7l-12.8-7.6l-3,11.6l-1.6-0.4l3-11.6H48.9l6.5-3.8L47.1,216.9z M55.6,349.1l3.8-6.7l-11.6-3.2l2-3.5l-4.8-4.9h6.3l-0.3-3.5
	l6.6,3.9c0.8,0.5,1.8,0.2,2.3-0.6c0.2-0.5,0.3-1,0.1-1.5l-4-11.2l4.2,1.2l1.3-7.6l4.8,5.9l3.1-3.2l2.1,11.8c0.1,0.5,0.3,0.9,0.8,1.2
	c0.8,0.5,1.8,0.2,2.3-0.6l3.8-6.8l1.4,3.2l5.5-3.2l-1.8,6.7l3.4,2l-8.5,8.7l6.5,3.8H70.1l3,11.6l-1.6,0.4l-3-11.6L55.6,349.1z
	 M145.1,121.2c-6.3,5.3-14.3,3.9-19.3-2.3c-4.9-6.2-4.8-14.5,1.4-19.8c4.5-3.8,11.6-5,15.9,0l-5.4,4.6c-2-1.9-4.6-1.6-6.8,0.3
	c-3.4,3-2.2,7.3,0.3,10.4c2.6,3.1,6.4,5.2,9.9,2.2c2.5-2.2,2.8-4.9,1-7.5l5.4-4.6C151.6,110.2,150.3,116.7,145.1,121.2 M68.2,172.4
	l7.2-2l-6-10.7l3.8-1v-7l4.4,4.6l2.2-2.7l2,7.5c0.3,0.9,1.2,1.4,2.1,1.2c0.5-0.1,0.9-0.5,1.1-0.9l4.9-10.8l2.2,3.9l6.2-4.4l-0.7,7.7
	h4.4l-6.7,9.8c-0.2,0.4-0.3,0.9-0.2,1.4c0.3,0.9,1.2,1.4,2.1,1.2l7.3-2l-1.2,3.3l6.1,1.7l-5.9,3.5l1,3.9h-12l1.9,7.4l-10.5-10.8
	l-5.8,10.4l-1.4-0.8l5.8-10.4L68.2,172.4z M131.2,419.3L119,445.8l-5.1-5.4l2.3-4.6l-6.5-6.9l-4.6,2.2l-5-5.3l26.2-11.8L131.2,419.3
	z M123.5,421.9l-0.1-0.1l-8.8,4.5l4.2,4.5L123.5,421.9z M198.9,471.3l-7.3-3.3l-8.3,19.5l-6.4-2.9l8.3-19.5l-7.3-3.3l2.4-5.6l21,9.5
	L198.9,471.3z M169,448.7c4.9,3.1,8.4,9.6,5.2,15.4l-6-3.7c1.1-2.6,0-4.9-2.5-6.5c-3.8-2.4-7.3,0.2-9.4,3.7s-2.6,7.9,1.2,10.3
	c2.8,1.7,5.4,1.1,7.2-1.5l6,3.7c-3.9,5.8-10.3,6.7-16.1,3.1c-6.9-4.3-8.2-12.5-4.2-19.3C154.4,447,162.1,444.4,169,448.7
	 M151.5,447.3c-1.8,2.3-4.6,3.6-7.5,2.5v0.1c1.8,2.3,0.4,5.4-1,7.6c-0.7,1-3,4.2-2.9,5.6l-5.4-4.4c0.1-1.1,1.7-3.3,2.1-3.9
	c1.6-2.3,2.9-4.8,0.4-6.9l-4.1-3.4l-6.1,7.8l-5.4-4.5l16.7-21.4l10.6,8.8C152.6,438.3,154.9,443,151.5,447.3 M141,444
	c1.6,1.4,3.2,1.2,4.4-0.4c1.3-1.6,0.6-3.3-0.9-4.6l-4.3-3.6l-3.8,4.8L141,444 M211.6,468.9l-8.3,26.1l-6.6-2.2l8.3-26.1L211.6,468.9
	z M92.9,391.9l5.8,10.4l-1.4,0.8l-5.8-10.4L81,403.5l2-7.4H71l1-3.9l-5.9-3.5l6.1-1.7l-1.2-3.3l7.4,2c0.9,0.3,1.9-0.3,2.1-1.2
	c0.2-0.5,0.1-1-0.2-1.4l-6.7-9.8H78l-0.7-7.7l6.2,4.4l2.2-3.9l4.9,10.8c0.2,0.4,0.6,0.8,1.1,0.9c0.9,0.3,1.8-0.3,2.1-1.2l2-7.5
	l2.2,2.7l4.4-4.6v7l3.8,1l-6,10.7l7.2,2L92.9,391.9z M416.9,191.8l-26,15.4c0.7,0.9,1.3,1.8,2.1,2.8c7.2,9.4,8.7,24,5.6,32.8
	c-1.4,3.9-5.4,10.9-6.9,15.3c-1.2,3.6-0.2,7.6,0.7,9.9c0.6,1.8,1.9,3.7,3.3,5.8h42.6C437.9,244.1,430.2,216.1,416.9,191.8z
	 M271.9,102.7v74.5c0.8,0.2,1.6,0.6,2.5,1.2c3.5,2.4,2.2,7.9,5.2,9.7c2,1.2,4,0.7,6.7,0.3c7.8-1.3,6.2-7.3,10-9.1
	c2.7-1.2,7.2-1.6,9.3-1.6c4.7,0,5,2.9,6.7,2.9c2.5,0,1.6-5.8,6.3-5.8c1.9,0,2.9,1.2,3.5,2.6l29.6-52.7
	C328,111.1,300.8,103.1,271.9,102.7z M187,124.6l29.8,53.1c-0.8,0.1-1.5,0.2-2.3,0.1c4.5,0.5,8.7-2.8,14.9-1.5
	c5.2,1.1,8.8,5.1,13.7,3.8c3.5-0.9,4.8-5.5,7.9-5.5c5.3,0,2.3,5.8,7.3,6c2.6,0.1,5.5-2.2,8.7-3.3c-0.1,0-0.2,0-0.2,0.1v-74.8
	C237.9,103.1,210.7,111,187,124.6z M262.1,330.1c-2.2-3.4-13.2-4.2-15.3,1.8c-6.2,17.7-9.6,11.3-18.2,7.6c-4-1.7-8.7-1.6-17.8,1.4
	c-5.1,1.7-12.5,4.2-18.5,10.1c-4.4,4.3-4.5,11-9.1,14c-10.2,6.7-13.1-8-19.3-6.7c-4.3,0.9-6.4,0.9-7.4-0.8
	c-2.6-4.3,2.5-10.7-3.5-15.6c-11.1-9-6.3-13.2-12.7-19.1c-8-7.4-1.5-9-1.5-12.9c0-5-8-4-2-17.7c1.1-2.6-2.9-4.7-4.2-7.5
	c-1.9-4-0.7-9.5-3.9-10.7c1.6,0.7,2.1,2.7,2.4,4.9h-30.9c0.4,29.7,8.1,57.7,21.4,82l31.6-18.7c1.6,1.4,2.3,3,2.6,4.5l-31.7,18.8
	c14.4,24.6,34.5,45.2,58.4,60l47.8-85.1c1.7,0.9,3.2,1.8,4.5,2.4l-47.9,85.3c23.7,13.6,50.9,21.6,79.8,22V336.5
	c0.6,0.5,1.2,0.8,1.9,1C266.5,337,265.4,335.1,262.1,330.1z M356.1,127.4l-31.4,56c0.2,0.1,0.3,0.1,0.5,0.1c3.6,0,3.4-4.7,5.5-4.7
	c2.1,0,2.4,3.2,3.8,7.2c1.4,4,2.5,4.3,6.8,5.7c4.1,1.3,5.6-0.7,6-2.3c2.4-8.7,10.1-8.6,14.3-5.7c4.2,2.9,2.4,6.8,3.2,9.5
	c0.9,2.8,4,3,6.8,3.8c8.6,2.2,13,4.3,15.8,6.5l27.1-16.1C400.1,162.8,380,142.2,356.1,127.4z M158.3,207.5c-1.8,1.1-3.1,2.3-4.1,3.5
	l-32.6-19.3c-13.3,24.4-21,52.3-21.4,82h26c-4.2-0.7-4.2-6-3.3-11.6c0.9-5.4,0.8-9.6,8.5-8.1c4.6,0.9,3.5-8.1,12.4-19.2
	c10.3-12.9,4.1-21.1,15.8-27.8c3.8-2.2,6.3,1.9,8.2,0.7c2.8-1.7,5.4-6.6,7.9-8.6c5.3-4.8,9.3-3.7,17.4-3.6c5.3,0.1,3.8-6.3,5.2-10.3
	c2.4-7.2,4.4-10.2,12.1-8.4l-27.9-49.6c-23.9,14.7-44,35.4-58.4,60L158.3,207.5z M383.5,347.2c0.7-0.6,1.4-1.2,2.2-1.8
	c0.9-0.7,1.7-1.1,2.6-1.4l28.7,17c13.3-24.4,21-52.3,21.4-82h-39.2c1.3,2,2.4,4,3.1,5.8c1.2,3.7-2,7,1.5,9.4c1.8,1.2,4.5,0.4,5.5,2
	c2,3.2-0.6,9.8-0.6,14c0,3.6,2.4,5.6,3.7,10.9c-1.1,3.6-2.4,7.1-3.7,10.6c-0.4,0.2-0.7,0.3-1,0.5c-5.9,3.8-5.7,7.9-9.7,9.8
	c-3,1.4-7.9,0-12.3,3.3c-10.2,7.5-4.9,13.4-9.8,18.4c-4.2,4.3-10.2,4.4-14,3.2c-5.9-1.9-1.7-5.2-3.7-7.2c-1.9-1.9-8.6-1.7-12.4-2.9
	c-8.9-2.7,2.6-12-2.8-14.2c-11.6-4.9-12.9-9.6-18.1-14.6c-3.4-3.3-8.8,3.7-12.9-0.5c-6.7-6.9-8.6-14-12.8-11.1
	c-3.6,2.6,3.2,5.4-3.3,11c-4.7,4-12.3,0.9-17.9,5.9c-1.1,1-2.5,4.4-7.6,4.4c0.5,0,0.9,0,1.4-0.1v112.5c28.9-0.5,56.1-8.4,79.8-22
	l-56.3-100.2c0.2-0.1,0.4-0.2,0.6-0.4c1.7-1.5,2.5-2.8,2.8-3.9L356,425.5c23.9-14.7,44-35.4,58.4-60L383.5,347.2z M270.3,337.7
	C270.3,337.7,270.4,337.7,270.3,337.7c0,0,0,0-0.1,0C270.2,337.7,270.3,337.7,270.3,337.7z M269.5,337.7c-0.2,0-0.5-0.1-0.7-0.1
	C269,337.6,269.2,337.6,269.5,337.7z"/>
</svg>
