<?xml version="1.0" encoding="utf-8"?>
<!-- Generator: Adobe Illustrator 24.1.2, SVG Export Plug-In . SVG Version: 6.00 Build 0)  -->
<svg version="1.1" id="Layer_1" xmlns="http://www.w3.org/2000/svg" xmlns:xlink="http://www.w3.org/1999/xlink" x="0px" y="0px"
	 viewBox="0 0 133.2 79.9" style="enable-background:new 0 0 133.2 79.9;" xml:space="preserve">
<path class="centrientwst0" d="M46.6,33.2h8v3.4h-4.1v1.7h3.8v3.4h-3.8v1.8h4.1v3.4h-8V33.2z M65.8,40.7l-5.9-7.5h-3.8v13.6h3.9v-7.5l5.9,7.5
	h3.8V33.2h-3.9V40.7z M70.9,36.6h2.8v10.2h3.9V36.6h2.8v-3.4h-9.5V36.6z M85.6,39.1h0.4c0.6,0,1.1-0.1,1.4-0.4
	c0.3-0.2,0.4-0.6,0.4-1c0-0.4-0.1-0.8-0.4-1c-0.3-0.2-0.8-0.4-1.4-0.4h-0.4V39.1z M88.9,41.4l4.2,5.4h-4.7l-2.9-4.1v4.1h-3.9V33.2
	h5.6c0.8,0,1.4,0.1,2,0.3c0.6,0.2,1.1,0.5,1.4,0.9c0.4,0.4,0.7,0.9,0.9,1.4c0.2,0.5,0.3,1.1,0.3,1.7c0,1.1-0.3,1.9-0.8,2.6
	c-0.4,0.6-1.1,1-1.9,1.3L88.9,41.4z M93.7,46.8h3.9V33.2h-3.9V46.8z M99.5,46.8h8v-3.4h-4.1v-1.8h3.8v-3.4h-3.8v-1.7h4.1v-3.4h-8
	V46.8z M118.7,40.7l-5.9-7.5h-3.8v13.6h3.9v-7.5l5.9,7.5h3.8V33.2h-3.9V40.7z M123.7,33.2v3.4h2.8v10.2h3.9V36.6h2.8v-3.4H123.7z
	 M42.5,42.2l-0.2,0.2c-0.6,0.6-1.5,1-2.4,1c-1.8,0-3.3-1.5-3.3-3.3c0-1.8,1.5-3.3,3.3-3.3c0.9,0,1.7,0.3,2.4,1l0.2,0.2l2.8-2.8
	l-0.2-0.2c-1.4-1.4-3.2-2.1-5.1-2.1c-4,0-7.3,3.3-7.3,7.3c0,4,3.3,7.3,7.3,7.3c1.9,0,3.8-0.8,5.1-2.1l0.1-0.1L42.5,42.2z
	 M130.3,30.6l0.4,0l0-1.3l0.5,0l0-0.3l-1.3,0l0,0.3l0.5,0L130.3,30.6z M131.3,30.6l0.4,0l0-1.3h0l0.4,1.3l0.3,0l0.4-1.3h0l0,1.3
	l0.4,0l0-1.7l-0.6,0l-0.4,1.1h0l-0.4-1.1l-0.6,0L131.3,30.6z M67,69.4c0.1-0.1,0.2-0.2,0.3-0.3l-8.7-8.7c-5.1,4.7-11.7,7.2-18.7,7.2
	c-7.4,0-14.4-2.9-19.6-8.1c-3.8-3.8-6.5-8.7-7.5-14c0,0,0,0.1,0,0.1c0,2.4,0.4,4.9,1,7.2c1.2,5,3.6,9.6,7,13.5
	c5.1,5.8,12,9.7,19.6,10.9c4.3,0.7,8.7,0.5,12.9-0.6C58.3,75.4,63,72.8,67,69.4 M39.9,79.9c0.4,0,0.7,0,1.1,0
	c-0.4,0-0.7-0.1-1.1-0.1c-1.5-0.2-3.1-0.6-4.5-1C29,76.9,23.2,73.2,18.8,68c-3.6-4.2-6.2-9.1-7.5-14.4c-0.7-2.8-1.1-5.6-1.1-8.5
	c0-5.3,1.1-10.4,3.4-15.2c2.1-4.5,5.3-8.8,9.3-11.9c3.7-2.9,8-4.7,12.5-5.5c-0.3,0-0.5,0-0.8,0c-18,0-32.6,14.6-32.6,32.6
	c0,2.8,0.4,5.6,1.1,8.3c0.6,2.4,1.5,4.7,2.6,6.8c1.7,3.2,3.9,6.1,6.5,8.6c2.4,2.4,5.2,4.4,8.2,6.1c2.9,1.6,6.1,2.9,9.4,3.8
	C33.1,79.5,36.5,79.9,39.9,79.9 M11.7,11.7C4,19.3,0.1,29.3,0,39.4c0-0.1,0-0.1,0-0.2c0.3-1.5,0.6-3,1.1-4.5
	c1.6-5.1,4.3-9.6,7.3-12.9c3.3-3.6,7.2-6.6,11.6-8.6c4.6-2.1,9.6-3.2,14.6-3.2c1.8,0,3.6,0.1,5.4,0.4c6.7,1,12.9,4,18,8.5
	c0.2,0.2,0.4,0.4,0.6,0.5l8.7-8.7C59.8,3.8,50.2,0,39.9,0C29.2,0,19.2,4.2,11.7,11.7 M69.8,56.7h1v-2.2h1.1c0.4,0,0.8-0.1,1.1-0.2
	c0.3-0.1,0.5-0.2,0.7-0.4c0.2-0.2,0.3-0.4,0.3-0.6c0.1-0.2,0.1-0.5,0.1-0.7c0-0.2,0-0.5-0.1-0.7c-0.1-0.2-0.2-0.4-0.3-0.6
	c-0.2-0.2-0.4-0.3-0.7-0.4c-0.3-0.1-0.7-0.1-1.1-0.1h-2V56.7z M70.8,53.6v-2h1c0.2,0,0.4,0,0.6,0.1c0.2,0,0.3,0.1,0.4,0.2
	c0.1,0.1,0.2,0.2,0.2,0.3c0,0.1,0.1,0.3,0.1,0.4c0,0.2,0,0.3-0.1,0.4c0,0.1-0.1,0.2-0.2,0.3c-0.1,0.1-0.2,0.2-0.4,0.2
	c-0.2,0-0.4,0.1-0.6,0.1H70.8z M74.7,50.8v5.8h0.9v-2.5c0-0.1,0-0.3,0.1-0.4c0.1-0.1,0.1-0.2,0.2-0.3c0.1-0.1,0.2-0.2,0.4-0.2
	c0.1-0.1,0.3-0.1,0.5-0.1c0.2,0,0.4,0.1,0.6,0.2c0.1,0.1,0.2,0.4,0.2,0.7v2.7h0.9v-2.8c0-1-0.5-1.6-1.4-1.6c-0.3,0-0.5,0.1-0.8,0.2
	c-0.2,0.1-0.4,0.3-0.6,0.5l0-2.2H74.7z M81.8,56.7h0.9V54c0-0.3,0-0.5-0.1-0.7c-0.1-0.2-0.1-0.4-0.3-0.5c-0.1-0.2-0.3-0.3-0.5-0.4
	c-0.2-0.1-0.5-0.1-0.8-0.1c-0.5,0-0.9,0.1-1.2,0.3c-0.3,0.2-0.5,0.5-0.6,0.9l0.9,0.1c0-0.2,0.1-0.3,0.3-0.4C80.5,53,80.7,53,81,53
	c0.3,0,0.5,0.1,0.6,0.2c0.2,0.1,0.2,0.3,0.2,0.7V54l-0.6,0c-0.3,0-0.5,0-0.8,0.1c-0.3,0-0.5,0.1-0.7,0.2c-0.2,0.1-0.4,0.2-0.5,0.4
	c-0.1,0.2-0.2,0.4-0.2,0.7c0,0.2,0,0.4,0.1,0.6c0.1,0.2,0.2,0.3,0.3,0.4c0.1,0.1,0.3,0.2,0.5,0.2c0.2,0.1,0.4,0.1,0.6,0.1
	c0.3,0,0.6-0.1,0.8-0.2c0.2-0.1,0.4-0.3,0.6-0.5V56.7z M81.8,54.6v0.2c0,0.4-0.1,0.6-0.3,0.8C81.3,55.9,81,56,80.6,56
	c-0.2,0-0.4-0.1-0.5-0.2c-0.1-0.1-0.2-0.2-0.2-0.4c0-0.1,0-0.2,0-0.3c0-0.1,0.1-0.2,0.2-0.2c0.1-0.1,0.2-0.1,0.4-0.2
	c0.2,0,0.4-0.1,0.7-0.1L81.8,54.6z M83.5,52.4v4.3h0.9v-2.5c0-0.1,0-0.2,0.1-0.4c0-0.1,0.1-0.2,0.2-0.3s0.2-0.2,0.3-0.2
	c0.1-0.1,0.3-0.1,0.5-0.1c0.1,0,0.2,0,0.2,0c0.1,0,0.1,0,0.2,0l0.1-0.9c-0.1,0-0.1,0-0.2,0c-0.1,0-0.1,0-0.2,0
	c-0.2,0-0.5,0.1-0.7,0.2c-0.2,0.1-0.4,0.3-0.5,0.5v-0.6H83.5z M86.5,52.4v4.3h0.9v-2.5c0-0.2,0-0.4,0.1-0.5c0.1-0.1,0.2-0.2,0.3-0.3
	c0.1-0.1,0.2-0.1,0.3-0.2c0.1,0,0.2-0.1,0.3-0.1c0.2,0,0.3,0.1,0.5,0.2c0.1,0.1,0.2,0.4,0.2,0.8v2.6H90v-2.6c0-0.1,0-0.3,0.1-0.4
	c0-0.1,0.1-0.2,0.2-0.3c0.1-0.1,0.2-0.2,0.3-0.2c0.1-0.1,0.3-0.1,0.4-0.1c0.1,0,0.2,0,0.3,0c0.1,0,0.1,0.1,0.2,0.2
	c0.1,0.1,0.1,0.2,0.1,0.3c0,0.1,0,0.3,0,0.5v2.6h0.9v-2.8c0-0.6-0.1-1-0.3-1.2c-0.2-0.3-0.5-0.4-1-0.4c-0.6,0-1,0.3-1.4,0.8
	c-0.1-0.2-0.2-0.4-0.4-0.5c-0.2-0.1-0.4-0.2-0.7-0.2c-0.1,0-0.2,0-0.3,0c-0.4,0.1-0.8,0.3-1,0.7v-0.6H86.5z M96.1,56.7H97V54
	c0-0.3,0-0.5-0.1-0.7c-0.1-0.2-0.1-0.4-0.3-0.5c-0.1-0.2-0.3-0.3-0.5-0.4c-0.2-0.1-0.5-0.1-0.8-0.1c-0.5,0-0.9,0.1-1.2,0.3
	c-0.3,0.2-0.5,0.5-0.6,0.9l0.9,0.1c0-0.2,0.1-0.3,0.3-0.4c0.1-0.1,0.4-0.1,0.6-0.1c0.3,0,0.5,0.1,0.6,0.2c0.2,0.1,0.2,0.3,0.2,0.7
	V54l-0.6,0c-0.3,0-0.5,0-0.8,0.1c-0.3,0-0.5,0.1-0.7,0.2c-0.2,0.1-0.4,0.2-0.5,0.4c-0.1,0.2-0.2,0.4-0.2,0.7c0,0.2,0,0.4,0.1,0.6
	c0.1,0.2,0.2,0.3,0.3,0.4c0.1,0.1,0.3,0.2,0.5,0.2c0.2,0.1,0.4,0.1,0.6,0.1c0.3,0,0.6-0.1,0.8-0.2c0.2-0.1,0.4-0.3,0.6-0.5V56.7z
	 M96.1,54.6v0.2c0,0.4-0.1,0.6-0.3,0.8c-0.2,0.2-0.5,0.3-0.9,0.3c-0.2,0-0.4-0.1-0.5-0.2c-0.1-0.1-0.2-0.2-0.2-0.4
	c0-0.1,0-0.2,0-0.3c0-0.1,0.1-0.2,0.2-0.2c0.1-0.1,0.2-0.1,0.4-0.2c0.2,0,0.4-0.1,0.7-0.1L96.1,54.6z M100.6,55.2
	c0,0.3-0.1,0.5-0.3,0.6c-0.1,0.2-0.4,0.2-0.6,0.2c-0.2,0-0.4,0-0.5-0.1c-0.1-0.1-0.2-0.2-0.3-0.3c-0.1-0.1-0.1-0.3-0.2-0.5
	c0-0.2-0.1-0.4-0.1-0.6c0-0.2,0-0.4,0.1-0.5c0-0.2,0.1-0.3,0.2-0.5s0.2-0.3,0.3-0.3c0.1-0.1,0.3-0.1,0.5-0.1c0.3,0,0.5,0.1,0.6,0.2
	c0.1,0.2,0.2,0.4,0.2,0.6l0.9-0.1c0-0.2-0.1-0.4-0.2-0.5c-0.1-0.2-0.2-0.3-0.3-0.5c-0.1-0.1-0.3-0.2-0.5-0.3
	c-0.2-0.1-0.5-0.1-0.8-0.1c-0.3,0-0.6,0.1-0.9,0.2c-0.3,0.1-0.5,0.3-0.7,0.5c-0.2,0.2-0.3,0.4-0.4,0.7s-0.1,0.6-0.1,0.9
	c0,0.3,0,0.6,0.1,0.9c0.1,0.3,0.2,0.5,0.4,0.7c0.2,0.2,0.4,0.3,0.6,0.5c0.3,0.1,0.6,0.2,0.9,0.2c0.6,0,1-0.1,1.3-0.4
	c0.3-0.3,0.5-0.7,0.5-1.2H100.6z M105.1,55.4c-0.1,0.2-0.1,0.4-0.3,0.5c-0.1,0.1-0.4,0.2-0.7,0.2c-0.4,0-0.7-0.1-0.8-0.4
	c-0.2-0.2-0.3-0.6-0.3-0.9h3.1v-0.4c0-0.3,0-0.6-0.1-0.8c-0.1-0.3-0.2-0.5-0.4-0.7c-0.2-0.2-0.4-0.3-0.6-0.4
	c-0.2-0.1-0.5-0.2-0.9-0.2c-0.3,0-0.6,0-0.8,0.2c-0.3,0.1-0.5,0.2-0.7,0.4c-0.2,0.2-0.3,0.4-0.4,0.7c-0.1,0.3-0.2,0.6-0.2,1
	c0,0.7,0.2,1.3,0.5,1.7c0.4,0.4,0.9,0.6,1.5,0.6c0.6,0,1-0.1,1.3-0.4c0.3-0.2,0.5-0.6,0.6-1H105.1z M103,54.1c0-0.3,0.1-0.6,0.3-0.8
	c0.2-0.2,0.4-0.3,0.8-0.3c0.4,0,0.6,0.1,0.8,0.3c0.2,0.2,0.2,0.5,0.2,0.8H103z M106.7,52.4l0,2.8c0,0.5,0.1,0.9,0.3,1.2
	c0.2,0.3,0.6,0.4,1.1,0.4c0.3,0,0.5-0.1,0.7-0.2c0.2-0.1,0.4-0.3,0.6-0.6v0.6h0.9l0-4.3l-0.9,0l0,2.5c0,0.2,0,0.3-0.1,0.4
	s-0.1,0.2-0.3,0.3c-0.1,0.1-0.2,0.2-0.4,0.2c-0.1,0-0.3,0.1-0.4,0.1c-0.2,0-0.4-0.1-0.5-0.2c-0.1-0.1-0.2-0.4-0.2-0.7l0-2.7
	L106.7,52.4z M111.6,53.1l0,2.1c0,0.5,0.1,0.8,0.3,1.1c0.2,0.2,0.5,0.4,1,0.4c0.3,0,0.6,0,0.9-0.1l-0.1-0.7c-0.1,0-0.2,0-0.3,0.1
	c-0.1,0-0.2,0-0.3,0c-0.2,0-0.3,0-0.4-0.1c-0.1-0.1-0.1-0.3-0.1-0.5l0-2.2l1.1,0l0-0.7l-1.1,0l0-1.1h-0.9l0,1.1h-0.7v0.7H111.6z
	 M114.4,50.8l0,0.9h1l0-0.9L114.4,50.8z M114.4,52.4l0,4.3h0.9l0-4.3L114.4,52.4z M119,55.2c0,0.3-0.1,0.5-0.3,0.6
	c-0.1,0.2-0.4,0.2-0.6,0.2c-0.2,0-0.4,0-0.5-0.1c-0.1-0.1-0.2-0.2-0.3-0.3c-0.1-0.1-0.1-0.3-0.2-0.5c0-0.2-0.1-0.4-0.1-0.6
	c0-0.2,0-0.4,0.1-0.5c0-0.2,0.1-0.3,0.2-0.5c0.1-0.1,0.2-0.3,0.3-0.3c0.1-0.1,0.3-0.1,0.5-0.1c0.3,0,0.5,0.1,0.6,0.2
	c0.1,0.2,0.2,0.4,0.3,0.6l0.9-0.1c0-0.2-0.1-0.4-0.2-0.5c-0.1-0.2-0.2-0.3-0.3-0.5c-0.1-0.1-0.3-0.2-0.5-0.3
	c-0.2-0.1-0.5-0.1-0.8-0.1c-0.3,0-0.6,0.1-0.9,0.2c-0.3,0.1-0.5,0.3-0.7,0.5c-0.2,0.2-0.3,0.4-0.4,0.7c-0.1,0.3-0.1,0.6-0.1,0.9
	c0,0.3,0,0.6,0.1,0.9s0.2,0.5,0.4,0.7c0.2,0.2,0.4,0.3,0.6,0.5c0.3,0.1,0.6,0.2,0.9,0.2c0.6,0,1-0.1,1.3-0.4
	c0.3-0.3,0.5-0.7,0.5-1.2H119z M123.4,56.6l0.9,0l0-2.7c0-0.3,0-0.5-0.1-0.7s-0.1-0.4-0.3-0.5c-0.1-0.2-0.3-0.3-0.5-0.4
	c-0.2-0.1-0.5-0.1-0.8-0.1c-0.5,0-0.9,0.1-1.2,0.3c-0.3,0.2-0.5,0.5-0.6,0.9l0.9,0.1c0-0.2,0.1-0.3,0.3-0.4c0.1-0.1,0.4-0.1,0.6-0.1
	c0.3,0,0.5,0.1,0.6,0.2c0.2,0.1,0.2,0.3,0.2,0.7V54l-0.6,0c-0.3,0-0.5,0-0.8,0.1c-0.3,0-0.5,0.1-0.7,0.2c-0.2,0.1-0.4,0.2-0.5,0.4
	c-0.1,0.2-0.2,0.4-0.2,0.7c0,0.2,0,0.4,0.1,0.6c0.1,0.2,0.2,0.3,0.3,0.4c0.1,0.1,0.3,0.2,0.5,0.2c0.2,0.1,0.4,0.1,0.6,0.1
	c0.3,0,0.6-0.1,0.8-0.2c0.2-0.1,0.4-0.3,0.6-0.5V56.6z M123.3,54.6v0.2c0,0.4-0.1,0.6-0.3,0.8c-0.2,0.2-0.5,0.3-0.9,0.3
	c-0.2,0-0.4-0.1-0.5-0.2c-0.1-0.1-0.2-0.2-0.2-0.4c0-0.1,0-0.2,0-0.3c0-0.1,0.1-0.2,0.2-0.2c0.1-0.1,0.2-0.1,0.4-0.2
	c0.2,0,0.4-0.1,0.7-0.1L123.3,54.6z M125.1,50.8l0,5.8l0.9,0l0-5.8L125.1,50.8z M126.6,55.3c0,0.3,0.1,0.5,0.2,0.7
	c0.1,0.2,0.3,0.3,0.4,0.4c0.2,0.1,0.4,0.2,0.6,0.2c0.2,0,0.5,0.1,0.7,0.1c0.6,0,1.1-0.1,1.3-0.4c0.3-0.2,0.4-0.6,0.4-0.9
	c0-0.2,0-0.3-0.1-0.5c0-0.1-0.1-0.3-0.2-0.4c-0.1-0.1-0.3-0.2-0.5-0.3c-0.2-0.1-0.4-0.1-0.7-0.2l-0.5-0.1c-0.1,0-0.3-0.1-0.4-0.1
	c-0.1,0-0.2-0.1-0.2-0.1c-0.1,0-0.1-0.1-0.1-0.1c0-0.1,0-0.1,0-0.2c0-0.1,0-0.1,0-0.2c0-0.1,0.1-0.1,0.1-0.2
	c0.1-0.1,0.2-0.1,0.3-0.1c0.1,0,0.3-0.1,0.4-0.1c0.3,0,0.5,0.1,0.7,0.2c0.1,0.1,0.2,0.3,0.3,0.5l0.8-0.1c0-0.2-0.1-0.3-0.2-0.5
	c-0.1-0.1-0.2-0.3-0.3-0.4c-0.1-0.1-0.3-0.2-0.5-0.3c-0.2-0.1-0.5-0.1-0.8-0.1c-0.3,0-0.5,0-0.7,0.1c-0.2,0.1-0.4,0.1-0.6,0.3
	c-0.2,0.1-0.3,0.2-0.4,0.4c-0.1,0.2-0.1,0.3-0.1,0.5c0,0.3,0,0.5,0.1,0.6c0.1,0.2,0.2,0.3,0.4,0.4c0.2,0.1,0.4,0.2,0.6,0.2
	c0.3,0.1,0.6,0.1,0.9,0.2c0.3,0,0.4,0.1,0.5,0.2c0.1,0.1,0.1,0.2,0.1,0.4c0,0.2-0.1,0.3-0.2,0.4c-0.1,0.1-0.4,0.1-0.7,0.1
	c-0.1,0-0.3,0-0.4,0c-0.1,0-0.2-0.1-0.3-0.1c-0.1-0.1-0.2-0.1-0.2-0.2c-0.1-0.1-0.1-0.2-0.1-0.3L126.6,55.3z"/>
</svg>
