<?xml version="1.0" encoding="utf-8"?>
<!-- Generator: Adobe Illustrator 24.1.2, SVG Export Plug-In . SVG Version: 6.00 Build 0)  -->
<svg version="1.1" id="Layer_1" xmlns="http://www.w3.org/2000/svg" xmlns:xlink="http://www.w3.org/1999/xlink" x="0px" y="0px"
	 viewBox="0 0 427 73" style="enable-background:new 0 0 427 73;" xml:space="preserve">
<style type="text/css">
	.centralsquarewst0{opacity:0.5;}
</style>
<path d="M291.7,60.8h8.4v1.9H297v9.7h-2.1v-9.7h-3.2L291.7,60.8L291.7,60.8z M303.8,60.8h7.1v1.9h-5v2.9h4.5v1.9h-4.5v3h5v1.9h-7.1
	V60.8z M320.6,68.4l2.1,0.3v1.8c0,1.1-0.9,1.9-1.9,1.9h-3.9c-1.1,0-1.9-0.9-1.9-1.9v-7.8c0-1.1,0.8-1.9,1.9-1.9h3.9
	c1.1,0,1.9,0.9,1.9,1.9v1.7l-2.1,0.3v-1.5c0-0.3-0.2-0.5-0.5-0.5h-2.6c-0.3,0-0.5,0.2-0.5,0.5v6.9c0,0.3,0.2,0.5,0.5,0.5h2.6
	c0.3,0,0.5-0.2,0.5-0.5V68.4z M333.1,67.5h-4v5h-2.1V60.8h2.1v4.7h4v-4.8h2.1v11.7h-2.1V67.5z M348.3,72.5h-2l-4.4-7.6v7.6h-2V60.8
	h2l4.4,7.6v-7.6h2V72.5z M352.7,70.6v-7.8c0-1.1,0.8-1.9,1.9-1.9h4.1c1.1,0,1.9,0.9,1.9,1.9v7.8c0,1.1-0.9,1.9-1.9,1.9h-4.1
	C353.6,72.5,352.7,71.6,352.7,70.6z M358.6,63.2c0-0.3-0.2-0.5-0.5-0.5h-2.8c-0.3,0-0.5,0.2-0.5,0.5v6.9c0,0.3,0.2,0.5,0.5,0.5h2.8
	c0.3,0,0.5-0.2,0.5-0.5V63.2z M365.2,60.8h2.1v9.7h4.8v1.9h-6.9L365.2,60.8L365.2,60.8z M375.6,70.6v-7.8c0-1.1,0.8-1.9,1.9-1.9h4.1
	c1.1,0,1.9,0.9,1.9,1.9v7.8c0,1.1-0.9,1.9-1.9,1.9h-4.1C376.5,72.5,375.6,71.6,375.6,70.6z M381.5,63.2c0-0.3-0.2-0.5-0.5-0.5h-2.8
	c-0.3,0-0.5,0.2-0.5,0.5v6.9c0,0.3,0.2,0.5,0.5,0.5h2.8c0.3,0,0.5-0.2,0.5-0.5V63.2z M391.6,66.3h4.1v4.3c0,1.1-0.9,1.9-1.9,1.9
	h-3.9c-1.1,0-1.9-0.9-1.9-1.9v-7.8c0-1.1,0.8-1.9,1.9-1.9h3.9c1.1,0,1.9,0.9,1.9,1.9V64l-2.1,0.3v-1.2c0-0.3-0.2-0.5-0.5-0.5h-2.6
	c-0.3,0-0.5,0.2-0.5,0.5v6.9c0,0.3,0.2,0.5,0.5,0.5h2.6c0.3,0,0.5-0.2,0.5-0.5v-2h-2V66.3z M402.1,72.5H400V60.8h2.1V72.5z
	 M406.6,60.8h7.1v1.9h-5v2.9h4.5v1.9h-4.5v3h5v1.9h-7.1V60.8z M419.8,67c-1-0.3-1.9-0.8-1.9-1.9v-2.4c0-1.1,0.8-1.9,1.9-1.9h3.7
	c1.1,0,1.9,0.9,1.9,1.9v1.4l-2.1,0.3v-1.3c0-0.3-0.2-0.5-0.5-0.5h-2.4c-0.3,0-0.5,0.2-0.5,0.5v1.5c0,0.3,0.2,0.4,0.5,0.5
	c1,0.3,1.9,0.5,3.2,0.9c1,0.3,1.8,0.8,1.8,1.9v2.6c0,1.1-0.8,1.9-1.9,1.9h-3.8c-1.1,0-1.9-0.9-1.9-1.9v-1.3l2.1-0.3v1.2
	c0,0.3,0.2,0.5,0.5,0.5h2.5c0.3,0,0.5-0.2,0.5-0.5v-1.7c0-0.3-0.2-0.4-0.5-0.5C421.5,67.6,421,67.4,419.8,67z M93.9,29.9v6.5
	c0,2.8-2.3,5.1-5.1,5.1H78.1c-2.8,0-5.1-2.3-5.1-5.1V15.6c0-2.9,2.3-5.1,5.1-5.1h10.7c2.8,0,5.1,2.3,5.1,5.1v5.8h-6.6v-4.3
	c0-0.3-0.2-0.5-0.5-0.5h-6.6c-0.3,0-0.5,0.2-0.5,0.5v17.8c0,0.3,0.2,0.5,0.5,0.5h6.6c0.3,0,0.5-0.2,0.5-0.5v-5L93.9,29.9L93.9,29.9z
	 M100.2,10.4h19.3v6.2H107v5.9h11.6v6.2H107v6.7h12.6v6.2h-19.4C100.3,41.5,100.3,10.4,100.2,10.4z M149.1,41.5h-6.5l-10.4-18.1
	v18.1h-6.5V10.4h6.5l10.4,18.2V10.4h6.5V41.5z M154.1,10.4h22.8v6.2h-8v24.9h-6.8V16.6h-8L154.1,10.4L154.1,10.4z M193.2,30.1h-4.6
	v11.4h-6.8V10.4h17.3c2.9,0,5.1,2.3,5.1,5.1V25c0,2.3-1.5,4.3-3.7,5l5.5,11.6h-7.4L193.2,30.1z M188.6,16.6v7.3h8.4
	c0.3,0,0.5-0.2,0.5-0.5v-6.4c0-0.3-0.2-0.5-0.5-0.5L188.6,16.6L188.6,16.6z M236.7,41.5h-6.9l-2-6.2h-9.6l-1.9,6.2h-6.9l10.2-31.1
	h6.8L236.7,41.5z M220.2,29.4h5.6L223,19L220.2,29.4z M241.2,10.4h6.8v24.9h12.4v6.2h-19.1L241.2,10.4L241.2,10.4z"/>
<path class="centralsquarewst0" d="M285.8,36.4c0,2.8-2.3,5.1-5.1,5.1h-10.5c-2.9,0-5.1-2.3-5.1-5.1v-4.2h6.6v2.7c0,0.3,0.2,0.5,0.5,0.5h6.5
	c0.3,0,0.5-0.2,0.5-0.5v-4.3c0-0.3-0.2-0.5-0.6-0.6c-0.8-0.2-3.3-0.9-9.1-2.6c-2.8-0.8-4.3-2-4.3-4.9v-7c0-2.8,2.3-5.1,5.1-5.1h10.3
	c2.9,0,5.1,2.3,5.1,5.1v4.1h-6.6V17c0-0.3-0.2-0.5-0.5-0.5h-6.3c-0.3,0-0.5,0.2-0.5,0.5v4c0,0.4,0.2,0.5,0.5,0.6
	c0.5,0.1,3.1,0.9,9.3,2.6c2.7,0.8,4.2,2,4.2,4.9L285.8,36.4L285.8,36.4z M299.4,41.5h-2.5c-2.9,0-5.1-2.3-5.1-5.1V15.6
	c0-2.9,2.3-5.1,5.1-5.1h11.5c2.9,0,5.1,2.3,5.1,5.1v20.8c0,2.8-2.3,5.1-5.1,5.1H306v7.2h-6.5L299.4,41.5L299.4,41.5z M306.3,16.6
	H299c-0.3,0-0.5,0.2-0.5,0.5v17.8c0,0.3,0.2,0.5,0.5,0.5h7.3c0.3,0,0.5-0.2,0.5-0.5V17.1C306.8,16.8,306.6,16.6,306.3,16.6z
	 M341.5,10.4v26c0,2.8-2.3,5.1-5.1,5.1h-11.1c-2.9,0-5.1-2.3-5.1-5.1v-26h6.8v24.5c0,0.3,0.2,0.5,0.5,0.5h6.9c0.3,0,0.5-0.2,0.5-0.5
	V10.4H341.5z M372.8,41.5h-6.9l-2-6.2h-9.6l-1.9,6.2h-6.9l10.2-31.1h6.8L372.8,41.5z M356.4,29.4h5.6L359.2,19L356.4,29.4z
	 M388.8,30.1h-4.6v11.4h-6.8V10.4h17.3c2.9,0,5.1,2.3,5.1,5.1V25c0,2.3-1.5,4.3-3.7,5l5.5,11.6h-7.4L388.8,30.1z M384.1,16.6v7.3
	h8.5c0.3,0,0.5-0.2,0.5-0.5v-6.4c0-0.3-0.2-0.5-0.5-0.5L384.1,16.6L384.1,16.6z M406.8,10.4h19.3v6.2h-12.6v5.9h11.6v6.2h-11.6v6.7
	h12.6v6.2h-19.4L406.8,10.4L406.8,10.4z M50.2,20.1L31.4,1.3c5.2-1.8,11.2-0.7,15.3,3.5C50.8,8.9,52,14.9,50.2,20.1z M20.3,1.3
	C15.1-0.5,9.1,0.6,4.9,4.8C0.8,8.9-0.3,14.9,1.5,20.1L20.3,1.3z M10.9,25.5l15-14.8l14.8,15l-15,14.8L10.9,25.5z M31.4,50
	c5.2,1.8,11.2,0.7,15.3-3.5c4.2-4.2,5.3-10.1,3.5-15.3L31.4,50z M4.9,46.5c4.2,4.2,10.1,5.3,15.3,3.5L1.5,31.2
	C-0.3,36.4,0.8,42.4,4.9,46.5z"/>
</svg>
