<?xml version="1.0" encoding="utf-8"?>
<!-- Generator: Adobe Illustrator 24.1.3, SVG Export Plug-In . SVG Version: 6.00 Build 0)  -->
<svg version="1.1" id="Artwork" xmlns="http://www.w3.org/2000/svg" xmlns:xlink="http://www.w3.org/1999/xlink" x="0px" y="0px"
	 viewBox="0 0 895.9 315.4" style="enable-background:new 0 0 895.9 315.4;" xml:space="preserve">
<path d="M527.5,169.4c-13.3,0-24.5,5.2-32.3,15.1c-7.4,9.3-11.2,22-11.2,36.8c0,31.8,17.5,51.5,45.6,51.5c15.4,0,29.2-6.4,37.1-17.1
	c1.1-1.5,1-3-0.3-4.4l-5.3-5.7c-0.8-0.8-1.6-1.2-2.5-1.2c-0.9,0-1.7,0.4-2.4,1.2c-7.1,7.1-15.1,10.5-24.6,10.5
	c-8.2,0-14.8-2.5-19.5-7.4c-5.3-5.5-8.2-13.8-8.5-24.3h60.6c2.1,0,3.3-1.3,3.4-3.2c1.1-17.1-2.7-31.1-11.4-40.4
	C549.1,173.3,539,169.4,527.5,169.4z M527.3,186c6.1,0,11,1.8,14.6,5.4c3.9,3.9,6.2,10,6.8,17.4h-44.5
	C506,193.2,516.4,186,527.3,186z M398.5,176.5l-5.2,9.6c-0.9,1.7-2.1,2.2-3.9,1.7c-2.9-0.7-5.7-1.1-8.3-1.1
	c-11.3,0-23.5,8.4-23.5,30.8v50.6c0,2-1.5,3.4-3.4,3.4h-12.9c-1.9,0-3.4-1.4-3.4-3.4v-52.4c0-21.1-3.2-33.6-11.1-41
	c-1-0.9-2.2-1.6-1.9-2.8c0.3-1.5,2.2-2.2,3.9-2.3c10.8-1,20,6.4,24.3,16.3c6.6-10.4,17.6-16.4,30.6-16.4c4.5,0,8.9,0.7,13,2.1
	c1.3,0.4,2,1,2.4,1.9C399.4,174.5,399,175.6,398.5,176.5z M475.6,241.7c0,9.4-3.6,17.1-10.1,22.6c-6.6,5.5-16.7,8.5-28.4,8.5
	c-17.1,0-31.4-5.6-40.6-15.3c-1.2-1.3-1.3-3.1,0-4.6l6-6.7c1.4-1.7,3-1.5,4.5-0.3c8.1,6.7,18.4,10,29.5,10c12.8,0,19.6-5,19.6-13.2
	c0-4.9-2.4-8.5-7.6-10.8c-7.1-3.2-18.1-4-28.8-7.1c-13.1-3.8-20.5-11.7-20.5-24.7c0-8.3,3.7-16.3,10.8-22.1c7-5.8,15.5-8.7,26.8-8.7
	c14.2,0,26.7,4.9,35.5,12.8c0.8,0.7,1.1,1.5,1.2,2.4c0.1,1-0.3,1.8-0.9,2.5l-6.1,6.6c-1.2,1.3-3.1,1.4-4.4,0.4
	c-6.5-5.1-15.4-8.2-24.6-8.2c-12,0-19,4.8-19,12.7c0,4.8,3.5,7.8,9.2,9.6c9.2,2.8,20.2,3.3,30.5,7.5
	C470.1,220.4,475.6,229.4,475.6,241.7z M662,175.3c-0.3,0.9-31.9,84.1-35.7,93.7c-7.1,18.3-11,26.9-20.5,35.4
	c-11.8,10.5-28.9,12.2-40.9,10.5c-1.2-0.2-2.1-0.5-2.6-1.4c-0.5-0.8-0.7-1.8-0.2-3.1l2.9-8c0.6-1.7,1.9-2.4,3.5-2.3
	c9.2,0.8,17.2-1.3,23.8-6.5c5.4-4.2,9.8-10.8,13.1-20.8l-37.1-97.4c-0.4-1.1-0.4-2.3,0.2-3.3c0.6-0.9,1.8-1.4,3-1.4h13.8
	c1.8,0,2.7,0.9,3.2,2.3l27.2,73.7l27.2-73.7c0.4-1.2,1.4-2.3,3.2-2.3h12.7c1.4,0,2.3,0.4,3,1.3C662.4,172.9,662.4,174.2,662,175.3z
	 M154.6,265.6c0.4,1.8,0.2,2.4-1.4,3.5c-3.2,2.2-7.9,3.6-12.7,3.6c-8.9,0-19.5-3.6-19.5-20.9v-77.7c0-2,1.5-3.4,3.4-3.4h12.9
	c2.1,0,3.4,1.5,3.4,3.4v73.6c0,4.5,0.9,7.6,2.8,9.4c1.4,1.3,3.9,2,6.7,1.9c1.2,0,1.9,0,2.4,0.4c0.6,0.4,0.8,1.2,1,2.3L154.6,265.6z
	 M89.2,144.5c13.4,12.9,19.8,30.9,19.8,54.8c0,23.5-4.9,40.8-16,53.4c-11.5,13-27.5,18.9-52.1,18.9H3.8c-2,0-3.4-1.4-3.4-3.4V159.5
	c0-6.9,6.3-7.8,16.3-8.5c1.2-0.1,2.1,0,2.9,0.7c0.6,0.5,1,1.4,1,2.7v99.7h18.7c17.8,0,29.3-4,37.6-13.6c7.3-8.4,11.7-21.5,11.7-41.3
	c0-17.4-4.5-31.2-13.4-40.9c-10-10.9-25.5-16.5-46-16.5c-6.4,0-16.4,0.6-25.1,2.3c-1,0.2-2.2,0.3-3.1-0.5c-0.9-0.7-1-1.9-1-2.9v-7
	c0-2.2,1-3.7,3-4.2c9.4-2.8,19.4-3.9,32.3-3.9C59.2,125.6,76,131.8,89.2,144.5z M117.6,142.2c0-7.1,6-12.9,13.3-12.9
	c7.3,0,13.3,5.8,13.3,12.9s-6,12.9-13.3,12.9C123.6,155.1,117.6,149.3,117.6,142.2z M191.8,272c-5.2,0-7.3-1.1-9.3-6.4l-34.3-90.4
	c-0.4-1-0.3-2.2,0.3-3.1c0.6-1,1.6-1.4,3-1.4h13.8c1.4,0,2.7,0.9,3.2,2.3l27.2,73.9l27.2-73.9c0.5-1.4,1.8-2.3,3.2-2.3h12.7
	c1.3,0,2.4,0.4,3,1.3c0.6,0.9,0.7,2.2,0.2,3.3l-34.2,90.1c-2,5.3-4.2,6.4-9.3,6.4H191.8z M283.9,169.5c-13.3,0-24.5,5.2-32.3,15.1
	c-7.4,9.3-11.2,22-11.2,36.8c0,31.8,17.5,51.5,45.6,51.5c15.4,0,29.2-6.4,37.1-17.1c1.1-1.5,1-3-0.3-4.4l-5.3-5.6
	c-0.8-0.8-1.6-1.2-2.5-1.2c-0.9,0-1.7,0.4-2.4,1.1c-7.1,7.1-15.1,10.5-24.6,10.5c-8.2,0-14.8-2.5-19.5-7.4
	c-5.3-5.5-8.2-13.8-8.5-24.3h60.6c2.1,0,3.3-1.3,3.4-3.2c1.1-17.1-2.7-31.1-11.5-40.4C305.4,173.4,295.4,169.5,283.9,169.5z
	 M283.6,186c6.1,0,11,1.8,14.6,5.4c3.9,3.9,6.3,10,6.8,17.4h-44.5C262.3,193.2,272.8,186,283.6,186z M629.1,45.7
	c-0.2-1.5,0.2-2,1.7-2c29.6,0.6,56.2,10.2,72.5,29.8c0.9,1.1-0.6,2.7-1.9,1.7C682.2,60.3,660.9,53,638,52c0.6,8.6,3,20.8,8.9,32.8
	c0.7,1.5-1.4,2.6-2.3,1.4C637,76.3,630.9,61.6,629.1,45.7z M694,140.1c-44.7,1.1-67.1-15.7-80.7-35.5c17.5-6.2,45.4-9.5,73.5-0.1
	c1.6,0.5,2.4-1.5,1.2-2.3c-23.8-14.7-60.1-12.4-84.9-2.3c-1.6,0.6-1.6,1.4-0.8,2.8c24,39.8,62.1,45.7,91.9,40
	C695.8,142.5,695.8,140,694,140.1z M895.4,116.5c-1.1-1.1-2.2-1.8-3.4-2.7c-18.7-12.8-41.3-20.8-65.8-22.6
	c-6.7-0.5-8.2-2.3-16.5-9.4c-10.4-9-20.3-12.4-32.6-12c-10.9,0.4-22,5.2-29.6,11c-12.1-35.7-38-64.1-68.3-80.6
	c-1.1-0.6-1.6-0.2-2,0.9c-3.8,11.4-4.2,30.8-1.4,45.6c0.3,1.7,2.8,1.5,2.8-0.2c0.2-15,1.5-28.9,4.3-34.9
	c25.8,16.2,46.8,41.7,57.6,72.3c0,0,0,0,0,0c1,3,2,6.1,2.7,9.1c0.1-0.1,0.2-0.1,0.2-0.2v0c11-9.1,22.7-15.1,35-15.3
	c16.4-0.2,23.9,8,31.6,13.7c-20.1,1-44.7,9.8-62.7,21.1c6.5,50-16.4,94.1-54.3,113.8c-1.8-38.1,12.1-88.7,34.7-118.2
	c1-1.3-1-3-2.3-1.7c-30.2,30.1-45,83.4-40,129.2c0.2,2,0.8,2.3,2.6,1.6c46.1-18,72.9-65.5,67.6-120.7c16-8.7,38-17.9,64.1-18.2
	c25-0.3,47.8,5.6,70.4,18.3c1.3,0.7,2.4,1.4,3.7,2.1C895.2,119.5,896.7,117.7,895.4,116.5z"/>
</svg>
