<?xml version="1.0" encoding="utf-8"?>
<!-- Generator: Adobe Illustrator 24.1.2, SVG Export Plug-In . SVG Version: 6.00 Build 0)  -->
<svg version="1.1" id="Layer_1" xmlns="http://www.w3.org/2000/svg" xmlns:xlink="http://www.w3.org/1999/xlink" x="0px" y="0px"
	 viewBox="0 0 646.5 92.1" style="enable-background:new 0 0 646.5 92.1;" xml:space="preserve">
<style type="text/css">
	.dynavaxst0{opacity:0.5;}
</style>
<path d="M348.2,56.8l-16.7-37.9l-16.7,37.9l-6.3,14.4l-9.2,20.9h-16.6L323.2,0h16.6l40.6,92.1h-16.6l-9.2-20.9L348.2,56.8z
	 M429.9,92.1h-17.4L375.5,0h17.4l28.3,68.8L449.5,0h17.4L429.9,92.1z"/>
<path class="dynavaxst0" d="M487.8,71.1l-9.2,20.9h-16.6L502.5,0h16.6l40.6,92.1h-16.6l-9.2-20.9H487.8z M527.5,56.8l-16.7-37.9l-16.7,37.9
	H527.5z M69.7,12.1c8.9,8,13.3,19.2,13.3,33.5c0,14.3-4.3,25.6-12.9,34c-8.6,8.3-21.8,12.5-39.5,12.5H0V0h31.6
	C48.1,0,60.8,4,69.7,12.1z M67.3,46c0-21.1-12.1-31.6-36.2-31.6H15.5v63.1h17.3c11.2,0,19.7-2.7,25.6-8C64.4,64.2,67.3,56.3,67.3,46
	z M139.3,92.1h-15.8V55.7L89.2,0h17l25.2,41.9L156.5,0h17l-34.3,55.7V92.1z M254.3,0h15.5v92.1H253l-52.2-67.2v67.2h-15.5V0h15.5
	l53.5,68.8V0z M627.1,92.1l-22.7-34.6h-0.7l-22.7,34.6h-19.4l31.6-47.3L564,0h19.2l20.6,31.1h0.7L625,0h19.2l-29.4,44.8l31.6,47.3
	H627.1z"/>
</svg>
