<?xml version="1.0" encoding="utf-8"?>
<!-- Generator: Adobe Illustrator 24.1.2, SVG Export Plug-In . SVG Version: 6.00 Build 0)  -->
<svg version="1.1" id="Layer_1" xmlns="http://www.w3.org/2000/svg" xmlns:xlink="http://www.w3.org/1999/xlink" x="0px" y="0px"
	 viewBox="0 0 234.4 51.9" style="enable-background:new 0 0 234.4 51.9;" xml:space="preserve">
<style type="text/css">
	.healthdrivewst0{opacity:0.5;}
</style>
<path d="M219.8,13.6c-0.8,0.9-1.3,2-1.6,3.5h10.1c-0.1-1.6-0.6-2.7-1.6-3.5c-0.9-0.8-2.1-1.2-3.5-1.2
	C221.8,12.3,220.6,12.7,219.8,13.6 M228.6,8.5c1.6,0.7,2.8,1.8,3.9,3.3c0.9,1.3,1.5,2.9,1.8,4.6c0.2,1,0.2,2.5,0.2,4.4h-16.3
	c0.1,2.2,0.9,3.8,2.3,4.7c0.9,0.6,2,0.8,3.2,0.8c1.3,0,2.4-0.3,3.2-1c0.5-0.4,0.9-0.9,1.2-1.5h6c-0.2,1.3-0.9,2.7-2.2,4
	c-2,2.2-4.8,3.3-8.4,3.3c-3,0-5.6-0.9-7.9-2.8c-2.3-1.8-3.4-4.8-3.4-9c0-3.9,1-6.8,3.1-8.9c2.1-2.1,4.7-3.1,8-3.1
	C225.2,7.5,227,7.8,228.6,8.5 M204,8.1h6.3l-8.1,22.4H196l-8-22.4h6.6l4.7,16.5L204,8.1z M178.2,8.1h5.9v22.4h-5.9V8.1z M184.1,5.4
	h-5.9V0h5.9V5.4z M173.7,7.5c0.1,0,0.2,0,0.5,0v6c-0.4,0-0.7-0.1-1-0.1c-0.3,0-0.5,0-0.7,0c-2.4,0-3.9,0.8-4.7,2.3
	c-0.5,0.9-0.7,2.2-0.7,4v10.7h-5.9V8.1h5.6V12c0.9-1.5,1.7-2.5,2.4-3.1c1.1-0.9,2.5-1.4,4.3-1.4C173.6,7.5,173.7,7.5,173.7,7.5
	 M137.1,5.4v19.7h5.8c3,0,5.1-1.5,6.2-4.4c0.6-1.6,1-3.5,1-5.8c0-3.1-0.5-5.4-1.4-7.1c-1-1.6-2.9-2.5-5.8-2.5H137.1z M148.7,0.8
	c2.1,0.7,3.8,2,5.2,3.8c1.1,1.5,1.8,3.1,2.2,4.9c0.4,1.8,0.6,3.4,0.6,5c0,4-0.8,7.4-2.4,10.2c-2.2,3.8-5.6,5.6-10.1,5.6h-13V0.2h13
	C145.9,0.2,147.5,0.4,148.7,0.8 M120.5,8.2c1.1,0.5,2,1.2,2.8,2.2c0.6,0.8,1,1.7,1.1,2.6c0.1,0.9,0.2,2.3,0.2,4.3v13.1h-6V16.8
	c0-1.2-0.2-2.2-0.6-2.9c-0.5-1-1.5-1.6-3-1.6c-1.5,0-2.7,0.5-3.5,1.6s-1.2,2.5-1.2,4.4v12.1h-5.8V0.3h5.8V11
	c0.8-1.3,1.8-2.2,2.9-2.7c1.1-0.5,2.3-0.8,3.5-0.8C118.1,7.5,119.4,7.7,120.5,8.2 M87.7,12.4V8.3h3.1V2h5.8v6.2h3.6v4.2h-3.6v11.8
	c0,0.9,0.1,1.5,0.3,1.7c0.2,0.2,0.9,0.3,2.1,0.3c0.2,0,0.4,0,0.6,0c0.2,0,0.4,0,0.6,0v4.4l-2.8,0.1c-2.8,0.1-4.7-0.4-5.7-1.4
	c-0.7-0.7-1-1.7-1-3.1V12.4H87.7z M83.9,30.4h-5.8V0.2h5.8V30.4z M66.6,19.6c-0.4,0.2-0.8,0.4-1.1,0.6c-0.4,0.1-0.9,0.3-1.6,0.4
	l-1.3,0.2c-1.2,0.2-2.1,0.5-2.7,0.8c-0.9,0.5-1.4,1.4-1.4,2.5c0,1,0.3,1.7,0.8,2.2c0.6,0.4,1.2,0.7,2.1,0.7c1.3,0,2.5-0.4,3.5-1.1
	c1.1-0.7,1.6-2.1,1.7-4V19.6z M63,16.8c1.1-0.1,1.9-0.3,2.3-0.5c0.8-0.4,1.3-0.9,1.3-1.7c0-0.9-0.3-1.5-1-1.9
	c-0.6-0.3-1.6-0.5-2.8-0.5c-1.4,0-2.4,0.3-3,1c-0.4,0.5-0.7,1.2-0.8,2.1h-5.6c0.1-2,0.7-3.6,1.6-4.8c1.6-2,4.2-3,8-3
	c2.5,0,4.6,0.5,6.6,1.5c1.9,1,2.9,2.8,2.9,5.5v10.3c0,0.7,0,1.6,0,2.6c0,0.8,0.2,1.3,0.3,1.6c0.2,0.3,0.5,0.5,0.9,0.7v0.9h-6.4
	c-0.2-0.5-0.3-0.9-0.4-1.3c-0.1-0.4-0.1-0.8-0.2-1.4c-0.8,0.9-1.7,1.6-2.8,2.2c-1.3,0.7-2.7,1.1-4.3,1.1c-2,0-3.7-0.6-5-1.7
	c-1.3-1.2-2-2.8-2-4.9c0-2.8,1.1-4.7,3.2-6c1.2-0.7,2.9-1.1,5.2-1.4L63,16.8z M36.2,13.6c-0.8,0.9-1.3,2-1.6,3.5h10.1
	c-0.1-1.6-0.6-2.7-1.6-3.5c-0.9-0.8-2.1-1.2-3.5-1.2C38.2,12.3,37,12.7,36.2,13.6 M44.9,8.5c1.6,0.7,2.8,1.8,3.9,3.3
	c0.9,1.3,1.5,2.9,1.8,4.6c0.2,1,0.2,2.5,0.2,4.4H34.5c0.1,2.2,0.9,3.8,2.3,4.7c0.9,0.6,2,0.8,3.2,0.8c1.3,0,2.4-0.3,3.2-1
	c0.5-0.4,0.9-0.9,1.2-1.5h6c-0.2,1.3-0.9,2.7-2.2,4c-2,2.2-4.8,3.3-8.4,3.3c-3,0-5.6-0.9-7.9-2.8c-2.3-1.8-3.4-4.8-3.4-9
	c0-3.9,1-6.8,3.1-8.9c2.1-2.1,4.7-3.1,8-3.1C41.6,7.5,43.4,7.8,44.9,8.5 M0,30.4V0.2h6.3v11.5H18V0.2h6.3v30.2H18V16.9H6.3v13.5H0z"
	/>
<path class="healthdrivewst0" d="M228.1,40.3l-1.1,5.4c-0.1,0.4-0.1,0.8,0,1c0.1,0.5,0.5,0.7,1.2,0.7c1,0,1.7-0.4,2.2-1.3
	c0.3-0.5,0.5-1.1,0.7-1.9l0.9-4h1.4l-1.7,8.1h-1.3l0.3-1.2c-0.2,0.3-0.5,0.6-0.8,0.8c-0.6,0.4-1.3,0.6-2,0.6c-1.2,0-1.9-0.4-2.1-1.2
	c-0.1-0.4-0.1-1,0-1.7l1.2-5.5H228.1z M223.3,44.2c0.2-0.8,0.2-1.4,0-1.9c-0.2-0.8-0.8-1.1-1.8-1.1c-0.8,0-1.5,0.3-2,1
	c-0.5,0.6-0.9,1.4-1.1,2.3c-0.2,0.9-0.1,1.6,0.1,2.2c0.3,0.6,0.8,0.9,1.6,0.9c0.9,0,1.6-0.3,2.1-1C222.8,45.8,223.2,45.1,223.3,44.2
	 M224.8,44.2c-0.3,1.3-0.8,2.4-1.6,3.2c-0.8,0.9-1.9,1.3-3.2,1.3c-1.1,0-1.9-0.4-2.4-1.1c-0.5-0.8-0.6-1.8-0.3-3
	c0.3-1.4,0.9-2.5,1.7-3.3c0.9-0.8,1.9-1.2,3.1-1.2c1,0,1.9,0.3,2.4,1C224.9,41.8,225.1,42.8,224.8,44.2 M216.4,40.3h1.5
	c-0.3,0.5-1,1.7-2,3.6c-0.8,1.4-1.4,2.5-2,3.4c-1.2,2.1-2.1,3.3-2.5,3.8c-0.4,0.5-1,0.7-1.8,0.7c-0.2,0-0.3,0-0.4,0
	c-0.1,0-0.2,0-0.4-0.1l0.3-1.2c0.2,0.1,0.4,0.1,0.5,0.1c0.1,0,0.2,0,0.3,0c0.3,0,0.4,0,0.6-0.1c0.1-0.1,0.3-0.2,0.4-0.3
	c0,0,0.2-0.2,0.4-0.6c0.2-0.4,0.4-0.7,0.5-0.8l-1.2-8.4h1.5l0.8,6.6L216.4,40.3z M204.2,44.2c0.2-0.8,0.2-1.4,0-1.9
	c-0.2-0.8-0.8-1.1-1.8-1.1c-0.8,0-1.5,0.3-2,1c-0.5,0.6-0.9,1.4-1.1,2.3c-0.2,0.9-0.1,1.6,0.1,2.2c0.3,0.6,0.8,0.9,1.6,0.9
	c0.9,0,1.6-0.3,2.1-1C203.7,45.8,204,45.1,204.2,44.2 M205.6,44.2c-0.3,1.3-0.8,2.4-1.6,3.2c-0.8,0.9-1.9,1.3-3.2,1.3
	c-1.1,0-1.9-0.4-2.4-1.1c-0.5-0.8-0.6-1.8-0.3-3c0.3-1.4,0.9-2.5,1.7-3.3c0.9-0.8,1.9-1.2,3.1-1.2c1,0,1.9,0.3,2.4,1
	C205.8,41.8,205.9,42.8,205.6,44.2 M196.4,38h1.4l-0.5,2.3h1.3l-0.2,1.1h-1.3l-1.1,5.3c-0.1,0.3,0,0.5,0.2,0.6
	c0.1,0.1,0.3,0.1,0.5,0.1c0.1,0,0.1,0,0.2,0c0.1,0,0.2,0,0.3,0l-0.2,1.1c-0.2,0-0.3,0.1-0.5,0.1c-0.2,0-0.4,0-0.6,0
	c-0.6,0-1-0.2-1.2-0.5c-0.2-0.3-0.2-0.8-0.1-1.3l1.1-5.4h-1.1l0.2-1.1h1.1L196.4,38z M188.6,43.7c0.1-0.6,0-1.1-0.1-1.4
	c-0.2-0.7-0.8-1-1.7-1c-0.6,0-1.2,0.2-1.7,0.7c-0.5,0.5-0.9,1-1,1.7H188.6z M189.8,41.6c0.2,0.4,0.3,0.9,0.2,1.4
	c0,0.4-0.1,1-0.3,1.8h-6c-0.2,0.8-0.1,1.5,0.2,2c0.3,0.5,0.8,0.7,1.5,0.7c0.7,0,1.3-0.2,1.9-0.7c0.3-0.3,0.5-0.6,0.7-0.9h1.3
	c-0.1,0.3-0.3,0.6-0.6,1c-0.3,0.4-0.6,0.7-0.9,0.9c-0.5,0.4-1.1,0.7-1.7,0.8c-0.3,0.1-0.7,0.1-1.1,0.1c-1,0-1.8-0.4-2.3-1.1
	c-0.5-0.7-0.7-1.8-0.4-3.1c0.3-1.3,0.9-2.4,1.7-3.2c0.9-0.8,1.9-1.2,3-1.2c0.6,0,1.1,0.1,1.6,0.4C189.2,40.8,189.6,41.1,189.8,41.6
	 M179.1,40.3h1.3l-0.3,1.4c0.2-0.3,0.5-0.6,1-1c0.5-0.4,1-0.6,1.6-0.6c0,0,0.1,0,0.1,0c0.1,0,0.2,0,0.3,0l-0.3,1.4
	c-0.1,0-0.2,0-0.2,0c-0.1,0-0.1,0-0.2,0c-0.7,0-1.3,0.2-1.7,0.7c-0.5,0.4-0.8,1-0.9,1.5l-1,4.7h-1.4L179.1,40.3z M171.9,47.5
	c0.5,0,1-0.1,1.5-0.3c0.8-0.4,1.3-1,1.5-1.8l0.2-1.1c-0.2,0.1-0.4,0.2-0.7,0.3c-0.3,0.1-0.5,0.1-0.8,0.2l-0.9,0.1
	c-0.5,0.1-0.9,0.2-1.2,0.3c-0.5,0.2-0.8,0.6-0.9,1.1c-0.1,0.4,0,0.7,0.2,0.9C171.2,47.4,171.5,47.5,171.9,47.5 M174.6,43.5
	c0.3,0,0.6-0.2,0.7-0.4c0.1-0.1,0.2-0.3,0.2-0.5c0.1-0.5,0-0.8-0.3-1c-0.3-0.2-0.7-0.3-1.4-0.3c-0.7,0-1.3,0.2-1.6,0.6
	c-0.2,0.2-0.4,0.5-0.5,0.9h-1.3c0.2-1,0.7-1.7,1.4-2.1c0.7-0.4,1.5-0.6,2.3-0.6c1,0,1.7,0.2,2.2,0.5c0.5,0.4,0.7,0.9,0.5,1.7l-1,4.7
	c0,0.1,0,0.3,0,0.3c0,0.1,0.2,0.1,0.3,0.1c0.1,0,0.1,0,0.2,0c0.1,0,0.2,0,0.3,0l-0.2,1c-0.2,0.1-0.4,0.1-0.5,0.1s-0.3,0-0.5,0
	c-0.5,0-0.8-0.2-0.9-0.5c-0.1-0.2-0.1-0.4-0.1-0.8c-0.4,0.4-0.8,0.7-1.4,0.9c-0.6,0.3-1.2,0.4-1.8,0.4c-0.8,0-1.3-0.2-1.7-0.7
	c-0.4-0.5-0.5-1-0.4-1.7c0.2-0.8,0.5-1.3,1.1-1.8c0.6-0.4,1.2-0.7,2-0.8L174.6,43.5z M169.5,43h-1.3c0-0.5-0.1-0.9-0.3-1.2
	c-0.2-0.3-0.6-0.5-1.3-0.5c-0.9,0-1.6,0.4-2.1,1.3c-0.4,0.6-0.6,1.2-0.8,2c-0.2,0.8-0.2,1.5,0.1,2.1c0.2,0.6,0.7,0.8,1.4,0.8
	c0.6,0,1.1-0.2,1.5-0.5c0.4-0.3,0.7-0.8,1-1.4h1.3c-0.4,1.1-0.9,1.9-1.6,2.4c-0.7,0.5-1.5,0.7-2.5,0.7c-1.1,0-1.8-0.4-2.3-1.2
	s-0.6-1.7-0.3-2.9c0.3-1.4,0.9-2.5,1.8-3.3c0.9-0.8,1.8-1.2,2.9-1.2c0.9,0,1.6,0.2,2.1,0.7C169.5,41.2,169.7,41.9,169.5,43
	 M156.2,37.2h1.4l-0.9,4.2c0.4-0.4,0.8-0.7,1.1-0.9c0.5-0.3,1.1-0.4,1.7-0.4c1.2,0,1.9,0.4,2.1,1.2c0.1,0.5,0.1,1.1-0.1,1.9
	l-1.1,5.2h-1.4l1.1-5.1c0.1-0.6,0.1-1,0.1-1.3c-0.2-0.4-0.6-0.7-1.3-0.7c-0.6,0-1.1,0.2-1.7,0.6c-0.5,0.4-0.9,1.1-1.2,2.2l-0.9,4.3
	h-1.4L156.2,37.2z M152.6,38h1.4l-0.5,2.3h1.3l-0.2,1.1h-1.3l-1.1,5.3c-0.1,0.3,0,0.5,0.2,0.6c0.1,0.1,0.3,0.1,0.5,0.1
	c0.1,0,0.1,0,0.2,0c0.1,0,0.2,0,0.3,0l-0.2,1.1c-0.2,0-0.3,0.1-0.5,0.1s-0.4,0-0.6,0c-0.6,0-1-0.2-1.2-0.5c-0.2-0.3-0.2-0.8-0.1-1.3
	l1.1-5.4h-1.1l0.2-1.1h1.1L152.6,38z M149.6,37.3h1.4l-2.4,11.2h-1.4L149.6,37.3z M141.7,47.5c0.5,0,1-0.1,1.5-0.3
	c0.8-0.4,1.3-1,1.5-1.8l0.2-1.1c-0.2,0.1-0.4,0.2-0.7,0.3c-0.3,0.1-0.5,0.1-0.8,0.2l-0.8,0.1c-0.5,0.1-0.9,0.2-1.2,0.3
	c-0.5,0.2-0.8,0.6-0.9,1.1c-0.1,0.4,0,0.7,0.2,0.9C141,47.4,141.3,47.5,141.7,47.5 M144.4,43.5c0.3,0,0.6-0.2,0.7-0.4
	c0.1-0.1,0.2-0.3,0.2-0.5c0.1-0.5,0-0.8-0.3-1c-0.3-0.2-0.7-0.3-1.4-0.3c-0.7,0-1.3,0.2-1.6,0.6c-0.2,0.2-0.4,0.5-0.5,0.9h-1.3
	c0.2-1,0.7-1.7,1.4-2.1c0.7-0.4,1.5-0.6,2.3-0.6c1,0,1.7,0.2,2.2,0.5c0.5,0.4,0.7,0.9,0.5,1.7l-1,4.7c0,0.1,0,0.3,0,0.3
	c0,0.1,0.1,0.1,0.3,0.1c0.1,0,0.1,0,0.2,0c0.1,0,0.2,0,0.3,0l-0.2,1c-0.2,0.1-0.4,0.1-0.5,0.1s-0.3,0-0.5,0c-0.5,0-0.8-0.2-0.9-0.5
	c-0.1-0.2-0.1-0.4-0.1-0.8c-0.4,0.4-0.8,0.7-1.4,0.9c-0.6,0.3-1.2,0.4-1.8,0.4c-0.8,0-1.3-0.2-1.7-0.7c-0.4-0.5-0.5-1-0.4-1.7
	c0.2-0.8,0.5-1.3,1.1-1.8c0.6-0.4,1.2-0.7,2-0.8L144.4,43.5z M137.5,43.7c0.1-0.6,0-1.1-0.1-1.4c-0.2-0.7-0.8-1-1.7-1
	c-0.6,0-1.2,0.2-1.7,0.7c-0.5,0.5-0.9,1-1,1.7H137.5z M138.7,41.6c0.2,0.4,0.3,0.9,0.2,1.4c0,0.4-0.1,1-0.3,1.8h-6
	c-0.2,0.8-0.1,1.5,0.2,2c0.3,0.5,0.8,0.7,1.5,0.7c0.7,0,1.3-0.2,1.9-0.7c0.3-0.3,0.5-0.6,0.7-0.9h1.3c-0.1,0.3-0.3,0.6-0.6,1
	c-0.3,0.4-0.6,0.7-0.9,0.9c-0.5,0.4-1.1,0.7-1.7,0.8c-0.3,0.1-0.7,0.1-1.1,0.1c-1,0-1.8-0.4-2.3-1.1c-0.5-0.7-0.7-1.8-0.4-3.1
	c0.3-1.3,0.9-2.4,1.7-3.2c0.9-0.8,1.9-1.2,3-1.2c0.6,0,1.1,0.1,1.6,0.4C138.1,40.8,138.5,41.1,138.7,41.6 M125.2,37.2h1.4l-0.9,4.2
	c0.4-0.4,0.8-0.7,1.1-0.9c0.5-0.3,1.1-0.4,1.7-0.4c1.2,0,1.9,0.4,2.1,1.2c0.1,0.5,0.1,1.1-0.1,1.9l-1.1,5.2H128l1.1-5.1
	c0.1-0.6,0.1-1,0.1-1.3c-0.2-0.4-0.6-0.7-1.3-0.7c-0.6,0-1.1,0.2-1.7,0.6c-0.5,0.4-0.9,1.1-1.2,2.2l-0.9,4.3h-1.4L125.2,37.2z
	 M114.3,47.5c0.6,0,1.2-0.3,1.7-0.8c0.5-0.5,0.9-1.3,1.1-2.3c0.2-1,0.2-1.8-0.1-2.3c-0.3-0.5-0.8-0.7-1.4-0.7
	c-0.7,0-1.3,0.3-1.8,0.8c-0.5,0.5-0.9,1.3-1.1,2.3c-0.2,0.9-0.2,1.6,0.1,2.2C112.9,47.2,113.4,47.5,114.3,47.5 M117,40.5
	c0.2,0.2,0.4,0.4,0.7,0.8l0.9-4.1h1.3l-2.4,11.2h-1.2l0.2-1.1c-0.4,0.5-0.9,0.9-1.4,1.1c-0.5,0.2-1,0.3-1.6,0.3
	c-0.9,0-1.6-0.4-2.1-1.1s-0.6-1.8-0.3-3c0.2-1.2,0.8-2.2,1.6-3.1c0.8-0.9,1.7-1.3,2.9-1.3C116.2,40.1,116.7,40.3,117,40.5
	 M109.3,43.7c0.1-0.6,0-1.1-0.1-1.4c-0.2-0.7-0.8-1-1.7-1c-0.6,0-1.2,0.2-1.7,0.7c-0.5,0.5-0.9,1-1,1.7H109.3z M110.5,41.6
	c0.2,0.4,0.3,0.9,0.2,1.4c0,0.4-0.1,1-0.3,1.8h-6c-0.2,0.8-0.1,1.5,0.2,2c0.3,0.5,0.8,0.7,1.5,0.7c0.7,0,1.3-0.2,1.9-0.7
	c0.3-0.3,0.5-0.6,0.7-0.9h1.3c-0.1,0.3-0.3,0.6-0.6,1c-0.3,0.4-0.6,0.7-0.9,0.9c-0.5,0.4-1.1,0.7-1.7,0.8c-0.3,0.1-0.7,0.1-1.1,0.1
	c-1,0-1.8-0.4-2.3-1.1c-0.5-0.7-0.7-1.8-0.4-3.1c0.3-1.3,0.9-2.4,1.7-3.2c0.9-0.8,1.9-1.2,3-1.2c0.6,0,1.1,0.1,1.6,0.4
	S110.3,41.1,110.5,41.6 M101.4,38h1.4l-0.5,2.3h1.3l-0.2,1.1h-1.3l-1.1,5.3c-0.1,0.3,0,0.5,0.2,0.6c0.1,0.1,0.3,0.1,0.5,0.1
	c0.1,0,0.1,0,0.2,0c0.1,0,0.2,0,0.3,0l-0.2,1.1c-0.2,0-0.3,0.1-0.5,0.1c-0.2,0-0.4,0-0.6,0c-0.6,0-1-0.2-1.2-0.5
	c-0.2-0.3-0.2-0.8-0.1-1.3l1.1-5.4h-1.1l0.2-1.1h1.1L101.4,38z M93.5,47.5c0.5,0,1-0.1,1.5-0.3c0.8-0.4,1.3-1,1.5-1.8l0.2-1.1
	c-0.2,0.1-0.4,0.2-0.7,0.3c-0.3,0.1-0.5,0.1-0.8,0.2l-0.8,0.1c-0.5,0.1-0.9,0.2-1.2,0.3c-0.5,0.2-0.8,0.6-0.9,1.1
	c-0.1,0.4,0,0.7,0.2,0.9C92.8,47.4,93.1,47.5,93.5,47.5 M96.2,43.5c0.3,0,0.6-0.2,0.7-0.4c0.1-0.1,0.2-0.3,0.2-0.5
	c0.1-0.5,0-0.8-0.3-1c-0.3-0.2-0.7-0.3-1.4-0.3c-0.7,0-1.3,0.2-1.6,0.6c-0.2,0.2-0.4,0.5-0.5,0.9h-1.3c0.2-1,0.7-1.7,1.4-2.1
	c0.7-0.4,1.5-0.6,2.3-0.6c1,0,1.7,0.2,2.2,0.5c0.5,0.4,0.7,0.9,0.5,1.7l-1,4.7c0,0.1,0,0.3,0,0.3c0,0.1,0.2,0.1,0.3,0.1
	c0.1,0,0.1,0,0.2,0c0.1,0,0.2,0,0.3,0l-0.2,1c-0.2,0.1-0.4,0.1-0.5,0.1c-0.1,0-0.3,0-0.5,0c-0.5,0-0.8-0.2-0.9-0.5
	c-0.1-0.2-0.1-0.4-0.1-0.8c-0.4,0.4-0.8,0.7-1.4,0.9c-0.6,0.3-1.2,0.4-1.8,0.4c-0.8,0-1.3-0.2-1.7-0.7c-0.4-0.5-0.5-1-0.4-1.7
	c0.2-0.8,0.5-1.3,1.1-1.8c0.6-0.4,1.2-0.7,2-0.8L96.2,43.5z M88,40.3h1.3L89,41.7c0.2-0.3,0.5-0.6,1-1c0.5-0.4,1-0.6,1.6-0.6
	c0,0,0.1,0,0.1,0c0.1,0,0.2,0,0.3,0l-0.3,1.4c-0.1,0-0.2,0-0.2,0c-0.1,0-0.1,0-0.2,0c-0.7,0-1.3,0.2-1.7,0.7c-0.5,0.4-0.8,1-0.9,1.5
	l-1,4.7h-1.4L88,40.3z M82.7,41.3c-1,0-1.7,0.5-2.3,1.4c-0.3,0.5-0.5,1.1-0.7,1.9c-0.2,0.9-0.2,1.6,0.1,2.1c0.3,0.5,0.7,0.7,1.3,0.7
	c1,0,1.8-0.4,2.4-1.3c0.3-0.5,0.6-1.1,0.7-1.8c0.2-1,0.2-1.8-0.1-2.2C83.8,41.6,83.3,41.3,82.7,41.3 M84.3,40.6
	c0.2,0.2,0.4,0.4,0.6,0.8l0.2-1h1.3l-1.6,7.4c-0.2,1-0.5,1.8-1,2.4c-0.8,1.1-2,1.7-3.6,1.7c-0.9,0-1.6-0.2-2.1-0.6
	c-0.5-0.4-0.7-1-0.6-1.8H79c0,0.4,0.1,0.6,0.2,0.8c0.2,0.3,0.7,0.5,1.4,0.5c1,0,1.8-0.4,2.3-1.1c0.3-0.4,0.5-1.2,0.8-2.3
	c-0.4,0.4-0.8,0.7-1.2,0.9c-0.4,0.2-1,0.3-1.6,0.3c-0.9,0-1.6-0.3-2.1-0.9s-0.6-1.7-0.3-3.1c0.3-1.4,0.8-2.4,1.7-3.2
	c0.8-0.8,1.7-1.1,2.7-1.1C83.3,40.1,83.9,40.3,84.3,40.6 M76.5,43.7c0.1-0.6,0-1.1-0.1-1.4c-0.2-0.7-0.8-1-1.7-1
	c-0.6,0-1.2,0.2-1.7,0.7c-0.5,0.5-0.9,1-1,1.7H76.5z M77.7,41.6c0.2,0.4,0.3,0.9,0.2,1.4c0,0.4-0.1,1-0.3,1.8h-6
	c-0.2,0.8-0.1,1.5,0.2,2c0.3,0.5,0.8,0.7,1.5,0.7c0.7,0,1.3-0.2,1.9-0.7c0.3-0.3,0.5-0.6,0.7-0.9h1.3c-0.1,0.3-0.3,0.6-0.6,1
	c-0.3,0.4-0.6,0.7-0.9,0.9c-0.5,0.4-1.1,0.7-1.7,0.8c-0.3,0.1-0.7,0.1-1.1,0.1c-1,0-1.8-0.4-2.3-1.1c-0.5-0.7-0.7-1.8-0.4-3.1
	c0.3-1.3,0.9-2.4,1.7-3.2c0.9-0.8,1.9-1.2,3-1.2c0.6,0,1.1,0.1,1.6,0.4S77.5,41.1,77.7,41.6 M68.6,38H70l-0.5,2.3h1.3l-0.2,1.1h-1.3
	l-1.1,5.3c-0.1,0.3,0,0.5,0.2,0.6c0.1,0.1,0.3,0.1,0.5,0.1c0.1,0,0.1,0,0.2,0c0.1,0,0.2,0,0.3,0l-0.2,1.1c-0.2,0-0.3,0.1-0.5,0.1
	c-0.2,0-0.4,0-0.6,0c-0.6,0-1-0.2-1.2-0.5c-0.2-0.3-0.2-0.8-0.1-1.3l1.1-5.4h-1.1l0.2-1.1h1.1L68.6,38z M59.8,40.3h1.3l-0.2,1.2
	c0.5-0.5,1-0.8,1.4-1c0.5-0.2,1-0.3,1.5-0.3c1.2,0,1.8,0.4,2.1,1.2c0.1,0.4,0.1,1.1-0.1,1.9l-1.1,5.2h-1.4l1.1-5.1
	c0.1-0.5,0.1-0.9,0-1.2c-0.1-0.5-0.5-0.8-1.2-0.8c-0.3,0-0.6,0-0.8,0.1c-0.4,0.1-0.8,0.3-1.1,0.7c-0.3,0.3-0.5,0.5-0.6,0.8
	c-0.1,0.3-0.2,0.7-0.4,1.2l-0.9,4.3H58L59.8,40.3z M57.5,37.3h1.4l-0.3,1.5h-1.4L57.5,37.3z M56.8,40.3h1.4l-1.7,8.1h-1.4L56.8,40.3
	z M47.8,41.3c-1,0-1.7,0.5-2.3,1.4c-0.3,0.5-0.5,1.1-0.7,1.9c-0.2,0.9-0.2,1.6,0.1,2.1s0.7,0.7,1.3,0.7c1,0,1.8-0.4,2.4-1.3
	c0.3-0.5,0.6-1.1,0.7-1.8c0.2-1,0.2-1.8-0.1-2.2S48.5,41.3,47.8,41.3 M49.4,40.6c0.2,0.2,0.4,0.4,0.6,0.8l0.2-1h1.3l-1.6,7.4
	c-0.2,1-0.5,1.8-1,2.4c-0.8,1.1-2,1.7-3.6,1.7c-0.9,0-1.6-0.2-2.1-0.6c-0.5-0.4-0.7-1-0.6-1.8h1.4c0,0.4,0.1,0.6,0.2,0.8
	c0.2,0.3,0.7,0.5,1.4,0.5c1,0,1.8-0.4,2.3-1.1c0.3-0.4,0.5-1.2,0.8-2.3c-0.4,0.4-0.8,0.7-1.2,0.9c-0.4,0.2-1,0.3-1.6,0.3
	c-0.9,0-1.6-0.3-2.1-0.9c-0.5-0.6-0.6-1.7-0.3-3.1c0.3-1.4,0.8-2.4,1.7-3.2c0.8-0.8,1.7-1.1,2.7-1.1C48.5,40.1,49,40.3,49.4,40.6
	 M36.8,40.3h1.3l-0.2,1.2c0.5-0.5,1-0.8,1.4-1c0.5-0.2,1-0.3,1.5-0.3c1.2,0,1.8,0.4,2.1,1.2c0.1,0.4,0.1,1.1-0.1,1.9l-1.1,5.2h-1.4
	l1.1-5.1c0.1-0.5,0.1-0.9,0-1.2c-0.1-0.5-0.5-0.8-1.2-0.8c-0.3,0-0.6,0-0.8,0.1c-0.4,0.1-0.8,0.3-1.1,0.7c-0.3,0.3-0.5,0.5-0.6,0.8
	s-0.2,0.7-0.4,1.2l-0.9,4.3h-1.4L36.8,40.3z M34.5,37.3h1.4l-0.3,1.5h-1.4L34.5,37.3z M33.9,40.3h1.4l-1.7,8.1h-1.4L33.9,40.3z
	 M28.7,41.3c-1,0-1.7,0.5-2.3,1.4c-0.3,0.5-0.5,1.1-0.7,1.9c-0.2,0.9-0.2,1.6,0.1,2.1s0.7,0.7,1.3,0.7c1,0,1.8-0.4,2.4-1.3
	c0.3-0.5,0.6-1.1,0.7-1.8c0.2-1,0.2-1.8-0.1-2.2C29.8,41.6,29.3,41.3,28.7,41.3 M30.2,40.6c0.2,0.2,0.4,0.4,0.6,0.8l0.2-1h1.3
	l-1.6,7.4c-0.2,1-0.5,1.8-1,2.4c-0.8,1.1-2,1.7-3.6,1.7c-0.9,0-1.6-0.2-2.1-0.6c-0.5-0.4-0.7-1-0.6-1.8h1.4c0,0.4,0.1,0.6,0.2,0.8
	c0.2,0.3,0.7,0.5,1.4,0.5c1,0,1.8-0.4,2.3-1.1c0.3-0.4,0.5-1.2,0.8-2.3c-0.4,0.4-0.8,0.7-1.2,0.9c-0.4,0.2-1,0.3-1.6,0.3
	c-0.9,0-1.6-0.3-2.1-0.9c-0.5-0.6-0.6-1.7-0.3-3.1c0.3-1.4,0.8-2.4,1.7-3.2c0.8-0.8,1.7-1.1,2.7-1.1C29.3,40.1,29.8,40.3,30.2,40.6
	 M17.6,40.3h1.3l-0.2,1.2c0.5-0.5,1-0.8,1.4-1c0.5-0.2,1-0.3,1.5-0.3c1.2,0,1.8,0.4,2.1,1.2c0.1,0.4,0.1,1.1-0.1,1.9l-1.1,5.2h-1.4
	l1.1-5.1c0.1-0.5,0.1-0.9,0-1.2c-0.1-0.5-0.5-0.8-1.2-0.8c-0.3,0-0.6,0-0.8,0.1c-0.4,0.1-0.8,0.3-1.1,0.7c-0.3,0.3-0.5,0.5-0.6,0.8
	c-0.1,0.3-0.2,0.7-0.4,1.2l-0.9,4.3h-1.4L17.6,40.3z M15.4,37.3h1.4l-0.3,1.5H15L15.4,37.3z M14.7,40.3h1.4l-1.7,8.1H13L14.7,40.3z
	 M10.1,40.3h1.3l-0.3,1.4c0.2-0.3,0.5-0.6,1-1c0.5-0.4,1-0.6,1.6-0.6c0,0,0.1,0,0.1,0c0.1,0,0.2,0,0.3,0l-0.3,1.4
	c-0.1,0-0.2,0-0.2,0c-0.1,0-0.1,0-0.2,0c-0.7,0-1.3,0.2-1.7,0.7c-0.5,0.4-0.8,1-0.9,1.5l-1,4.7H8.4L10.1,40.3z M6.8,44.3
	c0.2-0.9,0.1-1.6-0.1-2.1c-0.2-0.6-0.7-0.8-1.4-0.8c-0.6,0-1.2,0.2-1.8,0.7c-0.6,0.5-1,1.2-1.2,2.3c-0.2,0.8-0.2,1.4-0.1,1.9
	c0.2,0.9,0.7,1.3,1.7,1.3c0.7,0,1.4-0.3,1.8-0.9C6.2,46,6.6,45.2,6.8,44.3 M2.5,37.2h1.3l-0.9,4c0.4-0.4,0.8-0.7,1.3-0.9
	c0.5-0.2,0.9-0.3,1.4-0.3c1,0,1.8,0.3,2.2,1c0.5,0.7,0.6,1.7,0.3,3.1c-0.3,1.3-0.8,2.4-1.6,3.2c-0.8,0.9-1.8,1.3-2.9,1.3
	c-0.6,0-1.1-0.1-1.5-0.4c-0.2-0.2-0.4-0.5-0.6-0.9l-0.2,1H0.1L2.5,37.2z"/>
</svg>
