<?xml version="1.0" encoding="utf-8"?>
<svg version="1.1" id="Layer_1" xmlns:sketch="http://www.bohemiancoding.com/sketch/ns"
	 xmlns="http://www.w3.org/2000/svg" xmlns:xlink="http://www.w3.org/1999/xlink" x="0px" y="0px" viewBox="0 0 456.6 69.4"
	 style="enable-background:new 0 0 456.6 69.4;" xml:space="preserve">
<g id="Page-1" sketch:type="MSPage">
	<path id="homebase" sketch:type="MSShapeGroup" class="homebasewst0" d="M0,68.2h12.2V45.8c0-2.3,0.2-4.4,0.8-6.3c1.8-6,6.8-10.2,13.3-10.2
		c6.2,0,7.8,4,7.8,10v29h12.1V36.7c0-13-6.2-18.6-17-18.6c-8.6,0-14.5,5-16.9,9.7H12c0,0,0.2-1.7,0.2-4.1V0H0V68.2z M55.3,43.7
		c0,15.1,12,25.7,27,25.7c14.9,0,26.9-10.6,26.9-25.7c0-15-12-25.7-27-25.7C67.3,18.1,55.3,28.7,55.3,43.7L55.3,43.7z M67.7,43.7
		c0-9,6.6-15.3,14.6-15.3c7.9,0,14.5,6.2,14.5,15.3c0,9.1-6.6,15.3-14.5,15.3C74.3,59,67.7,52.9,67.7,43.7L67.7,43.7z M119,68.2
		h12.2V46.7c0-2.2,0.1-4.4,0.6-6.2c1.5-6.2,5.7-11.2,12-11.2c5.8,0,6.6,4.5,6.6,9.8v29.2h12.2V46.7c0-2.3,0.1-4.4,0.6-6.3
		c1.4-6.2,5.6-11.1,11.8-11.1c5.7,0,6.7,4.2,6.7,9.8v29.2H194V36.7c0-12.9-5.9-18.6-16.1-18.6c-7.7,0-14,4.8-16.7,10.1H161
		c-2-6.6-6.8-10.1-14.3-10.1c-7.7,0-13.6,5.4-16,10.2h-0.2c0,0,0.2-1.5,0.2-3.4v-5.7H119V68.2z M203.3,43.7
		c0,13.9,10.1,25.7,26.3,25.7c12.2,0,19.7-7,19.7-7l-4.7-8.7c0,0-6.2,5.4-14.1,5.4c-7.3,0-13.9-4.4-14.7-13h33.8
		c0,0,0.3-3.3,0.3-4.7c0-13-7.6-23.3-21.7-23.3C213.6,18.1,203.3,28.6,203.3,43.7L203.3,43.7z M216.2,37.7
		c1.2-6.3,5.5-10.2,11.7-10.2c5.4,0,9.5,3.6,9.7,10.2H216.2z M260,68.2h11.5v-2.8c0-1.9-0.2-3.4-0.2-3.4h0.2c0,0,4.4,7.3,14.6,7.3
		c13,0,22.5-10.1,22.5-25.7c0-15.2-8.5-25.7-21.7-25.7c-10.4,0-14.7,7.1-14.7,7.1H272c0,0,0.2-1.7,0.2-4.1V0H260V68.2z M271.8,44
		c0-10.9,6-15.5,12.3-15.5c7.2,0,12.2,6.1,12.2,15.4c0,9.7-5.6,15.2-12.3,15.2C275.8,59.1,271.8,51.6,271.8,44L271.8,44z
		 M314.6,54.1c0,9.8,7.9,15.3,16.6,15.3c11.1,0,15-8.7,14.9-8.7h0.2c0,0-0.2,1.5-0.2,3.5v4h11.2V37.6c0-12.4-7.5-19.5-20.4-19.5
		c-11.6,0-19.2,6.1-19.2,6.1l4.6,8.7c0,0,6.4-4.7,13.5-4.7c5.4,0,9.4,2.2,9.4,8.7v0.7h-1.6C335.6,37.5,314.6,38.5,314.6,54.1
		L314.6,54.1z M326.9,53.5c0-6.8,10.1-7.7,16.3-7.7h2.1V47c0,6-4.6,12.9-11.1,12.9C329.3,59.9,326.9,56.8,326.9,53.5L326.9,53.5z
		 M365.9,62.2c0,0,6.8,7.2,19,7.2c11.6,0,18.7-6.5,18.7-14.7c0-15.8-23.8-14.9-23.8-21.8c0-3.1,3.1-4.4,6.2-4.4c7.5,0,12,4.2,12,4.2
		l4.5-9c0,0-5.4-5.6-16.4-5.6c-10.6,0-18.7,5.3-18.7,14.4c0,15.8,23.8,14.8,23.8,22.1c0,2.9-3,4.4-6.4,4.4c-8,0-13.4-5.4-13.4-5.4
		L365.9,62.2z M410,43.7c0,13.9,10.1,25.7,26.3,25.7c12.2,0,19.7-7,19.7-7l-4.7-8.7c0,0-6.2,5.4-14.1,5.4c-7.3,0-13.9-4.4-14.7-13
		h33.8c0,0,0.3-3.3,0.3-4.7c0-13-7.6-23.3-21.7-23.3C420.3,18.1,410,28.6,410,43.7L410,43.7z M422.9,37.7
		c1.2-6.3,5.5-10.2,11.7-10.2c5.4,0,9.5,3.6,9.7,10.2H422.9z"/>
</g>
</svg>
