<?xml version="1.0" encoding="utf-8"?>
<!-- Generator: Adobe Illustrator 24.1.2, SVG Export Plug-In . SVG Version: 6.00 Build 0)  -->
<svg version="1.1" id="Layer_1" xmlns="http://www.w3.org/2000/svg" xmlns:xlink="http://www.w3.org/1999/xlink" x="0px" y="0px"
	 viewBox="0 0 576 220.5" style="enable-background:new 0 0 576 220.5;" xml:space="preserve">
<style type="text/css">
	.imperialdadewst0{opacity:0.5;}
</style>
<path d="M301.9,202.2c-75.7,8.6-145.9,5.2-197.5-7c49.9,15.8,113.9,25.3,183.7,25.3c159.1,0,288-49.4,288-110.2
	c0-19.6-13.3-37.9-36.6-53.8c6.7,6.8,10.9,14.2,12.3,22.2C560.8,130.2,448.9,185.5,301.9,202.2 M335.3,86.5h22.5
	c13.5,0,23.6,8.5,23.6,25.8c0,15.1-7.7,26.4-23.6,26.4h-22.5V86.5z M346.7,129h10.2c6.6,0,13-4.1,13-15.6c0-10.5-3.6-17.2-15-17.2
	h-8.2L346.7,129L346.7,129z M385,112.5c0.6-9.7,9.3-12.6,17.7-12.6c7.5,0,16.6,1.7,16.6,10.7v19.6c0,3.4,0.4,6.9,1.3,8.4h-10.5
	c-0.4-1.2-0.6-2.4-0.7-3.6c-3.3,3.4-8.1,4.7-12.7,4.7c-7.2,0-12.9-3.6-12.9-11.3c0-8.5,6.4-10.6,12.9-11.5s12.3-0.7,12.3-5
	c0-4.5-3.1-5.1-6.7-5.1c-3.9,0-6.5,1.6-6.9,5.7L385,112.5L385,112.5z M409,120.2c-1.8,1.5-5.4,1.6-8.6,2.2s-6.1,1.8-6.1,5.5
	s3,4.8,6.4,4.8c8.1,0,8.4-6.4,8.4-8.7L409,120.2L409,120.2z M452.3,133.8h-0.2c-2.4,4.1-6.6,5.8-11.5,5.8
	c-11.4,0-16.9-9.8-16.9-20.2c0-10.1,5.6-19.6,16.7-19.6c4.5,0,8.8,1.9,11.2,5.6h0.2v-19h10.4v52.1h-9.9L452.3,133.8L452.3,133.8z
	 M443.3,107.7c-6.8,0-9.1,5.8-9.1,12c0,5.9,2.7,12.1,9.1,12.1c6.9,0,8.9-6,8.9-12.2S450,107.6,443.3,107.7 M476.7,122.3
	c0.3,6.6,3.5,9.6,9.3,9.6c4.2,0,7.5-2.6,8.2-4.9h9.1c-2.9,8.9-9.1,12.7-17.7,12.7c-11.9,0-19.3-8.2-19.3-19.9
	c0-11.3,7.8-19.9,19.3-19.9c12.8,0,19,10.8,18.3,22.4L476.7,122.3L476.7,122.3z M493.6,115.7c-1-5.2-3.2-8-8.2-8
	c-6.6,0-8.5,5.1-8.6,8H493.6z"/>
<path class="imperialdadewst0" d="M274.1,18.2C349.8,9.7,420,13,471.7,25.3C421.8,9.5,357.8,0,288,0C128.9,0,0,49.4,0,110.2
	c0,19.5,13.3,37.9,36.6,53.8c-6.6-6.8-10.9-14.2-12.3-22.2C15.2,90.2,127.1,34.9,274.1,18.2 M72,86.5h11.5v52.1H72V86.5z
	 M88.9,100.9h9.8v5.1h0.1c2.6-3.9,6.9-6.2,11.5-6.1c4.7,0,9,1.8,11,6.3c2.5-3.9,6.8-6.2,11.4-6.3c8,0,13.8,3.7,13.8,13.5v25.3h-10.3
	v-21.4c0-5-0.4-9.2-6.4-9.2s-6.9,4.8-6.9,9.6v21h-10.4v-21.1c0-4.4,0.3-9.4-6.3-9.4c-2,0-7,1.3-7,8.7v21.9H88.9V100.9z M152.1,100.9
	h9.9v4.8h0.1c2.5-4,6.6-5.8,11.2-5.8c11.8,0,17.2,9.6,17.2,20.3c0,10.1-5.5,19.5-16.6,19.5c-4.5,0.1-8.7-2-11.3-5.7h-0.1v18h-10.4
	V100.9L152.1,100.9z M180.1,119.9c0-6-2.4-12.2-9.1-12.2s-9,6.1-9,12.2s2.3,12,9.1,12S180.1,126.1,180.1,119.9 M235.9,100.9h9.9v7
	h0.1c2.1-4.8,6.8-7.9,12-8c0.8,0,1.5,0.1,2.3,0.4v9.6c-1.2-0.2-2.5-0.4-3.7-0.4c-7.6,0-10.2,5.5-10.2,12.1v17h-10.3V100.9z
	 M279.7,112.5c0.6-9.7,9.3-12.6,17.7-12.6c7.5,0,16.6,1.7,16.6,10.7v19.6c0,3.4,0.4,6.9,1.3,8.4h-10.5c-0.4-1.2-0.6-2.4-0.7-3.6
	c-3.3,3.4-8.1,4.7-12.7,4.7c-7.1,0-12.9-3.6-12.9-11.3c0-8.5,6.4-10.6,12.9-11.5s12.3-0.7,12.3-5c0-4.5-3.1-5.1-6.7-5.1
	c-4,0-6.5,1.6-6.9,5.7L279.7,112.5L279.7,112.5z M303.6,120.2c-1.8,1.5-5.4,1.6-8.6,2.2s-6.1,1.8-6.1,5.5s3,4.8,6.4,4.8
	c8.1,0,8.4-6.4,8.4-8.7L303.6,120.2L303.6,120.2z M319.4,86.5h10.4v52.1h-10.4V86.5z M264.7,100.9h10.4v37.7h-10.4V100.9z
	 M269.9,88.4c2.9,0,5.2,2.3,5.2,5.2s-2.3,5.2-5.2,5.2s-5.2-2.3-5.2-5.2S267,88.4,269.9,88.4z M204.2,122.3c0.3,6.6,3.5,9.6,9.3,9.6
	c4.2,0,7.5-2.5,8.2-4.9h9.1c-2.9,8.9-9.1,12.7-17.7,12.7c-11.9,0-19.3-8.2-19.3-19.9c0-11.3,7.8-19.9,19.3-19.9
	c12.9,0,19,10.8,18.3,22.4L204.2,122.3L204.2,122.3z M221.1,115.7c-1-5.2-3.2-8-8.2-8c-6.6,0-8.5,5.1-8.6,8H221.1z"/>
</svg>
