<?xml version="1.0" encoding="utf-8"?>
<!-- Generator: Adobe Illustrator 24.1.0, SVG Export Plug-In . SVG Version: 6.00 Build 0)  -->
<svg version="1.1"
	 id="logo" xmlns:cc="http://creativecommons.org/ns#" xmlns:dc="http://purl.org/dc/elements/1.1/" xmlns:rdf="http://www.w3.org/1999/02/22-rdf-syntax-ns#"
	 xmlns="http://www.w3.org/2000/svg" xmlns:xlink="http://www.w3.org/1999/xlink" x="0px" y="0px" viewBox="0 0 256 44.5"
	 style="enable-background:new 0 0 256 44.5;" xml:space="preserve">
<style type="text/css">
	.iqviast0{}
	.iqviast1{opacity:0.75;}
	.iqviast2{opacity:0.5;}
</style>
<path class="iqviast0" d="M191.1,41c-1.3,0-2.4-1.1-2.4-2.4V2.5c0-1.3,1.1-2.4,2.4-2.4c1.3,0,2.4,1.1,2.4,2.4v36.1
	C193.6,39.9,192.5,41,191.1,41z M156.5,41c-0.9,0-1.8-0.5-2.1-1.3L135.5,3.7c-0.6-1.2-0.2-2.7,1-3.3c1.2-0.6,2.7-0.2,3.3,1l16.8,32
	l17.1-32c0.6-1.2,2.1-1.6,3.3-1c1.2,0.6,1.6,2.1,1,3.3l-19.3,36.1C158.2,40.5,157.4,41,156.5,41z M233.5,32.8h-11.7
	c-1.3,0-2.4-1.1-2.4-2.4s1.1-2.4,2.4-2.4h11.7c1.3,0,2.4,1.1,2.4,2.4S234.9,32.8,233.5,32.8L233.5,32.8z M246.7,41
	c-0.9,0-1.7-0.5-2.1-1.3l-16.8-32l-17.1,32c-0.6,1.2-2.1,1.6-3.3,1c-1.2-0.6-1.6-2.1-1-3.3l19.3-36.1c0.4-0.8,1.3-1.3,2.1-1.3
	c0.9,0,1.7,0.5,2.1,1.3l18.9,36.1c0.6,1.2,0.2,2.7-1,3.3C247.5,40.9,247.1,41,246.7,41z M247.1,6.1h-0.9V0.9h-1.9V0.1h4.7v0.7h-1.9
	V6.1z M253,4.7l1.8-4.6h1.3v6h-0.9v-5l-2,5h-0.5l-2-5v5h-0.8v-6h1.3L253,4.7z M59.2,34.3H47.3c-0.9,1.5-1.8,2.9-2.9,4.1h14.8
	c1.2,0,2.1-0.9,2.1-2.1C61.3,35.2,60.4,34.3,59.2,34.3z M59.2,26.4h-9.1c-0.3,1.5-0.7,2.8-1.2,4.1h10.2c1.2,0,2.1-0.9,2.1-2.1
	C61.2,27.3,60.4,26.4,59.2,26.4z M59.2,18.5h-8.6c0.1,0.7,0.1,1.3,0.1,1.9c0,0.7,0,1.5-0.1,2.2h8.6c1.2,0,2.1-0.9,2.1-2.1
	C61.3,19.4,60.4,18.5,59.2,18.5z M59.2,10.6H49.1c0.5,1.3,0.9,2.7,1.1,4.1h9c1.2,0,2.1-0.9,2.1-2.1C61.3,11.6,60.4,10.6,59.2,10.6z
	 M59.2,2.7H44.6c1,1.2,2,2.6,2.8,4.1h11.8c1.2,0,2.1-0.9,2.1-2.1S60.4,2.7,59.2,2.7z"/>
<path class="iqviast1" d="M107.3,0C96,0.6,87.3,10.3,87.9,21.7c0.6,11.3,10.3,20,21.6,19.4c1.6-0.1,3.2-0.4,4.7-0.8l1.5,2.9
	c0.6,1.2,2.1,1.6,3.3,1c1.2-0.6,1.6-2.1,1-3.3l-1.4-2.6c6.4-3.8,10.6-10.9,10.2-18.9C128.4,8.2,118.7-0.6,107.3,0z M116.5,34
	l-1.8-3.3c-0.6-1.2-2.1-1.6-3.3-1c-1.2,0.6-1.6,2.1-1,3.3l1.5,2.9c-0.9,0.2-1.8,0.3-2.7,0.4c-8.6,0.4-16-6.2-16.5-14.9
	c-0.4-8.6,6.2-16,14.9-16.5c8.6-0.4,16,6.2,16.5,14.9C124.4,25.7,121.3,31.1,116.5,34L116.5,34z M75.7,41c-1.3,0-2.4-1.1-2.4-2.4
	V2.5c0-1.3,1.1-2.4,2.4-2.4c1.3,0,2.4,1.1,2.4,2.4v36.1C78.2,39.9,77.1,41,75.7,41z M19.8,36.3c0-1.2,0.9-2.1,2.1-2.1h-8.1
	c-1.2,0-2.1,0.9-2.1,2.1s0.9,2.1,2.1,2.1h8.1C20.8,38.4,19.8,37.4,19.8,36.3z M14,28.9c-0.3-1.3,0.7-2.5,2-2.5H7.9
	c-1.2,0-2.1,0.9-2.1,2.1c0,1.2,0.9,2.1,2.1,2.1h8.2C15.1,30.5,14.2,29.9,14,28.9z M8.2,21c-0.3-1.3,0.7-2.5,2-2.5H2.1
	c-1.2,0-2.1,0.9-2.1,2.1c0,1.2,0.9,2.1,2.1,2.1h8.2C9.3,22.6,8.4,22,8.2,21z M11.1,12.7c0-1.2,0.9-2.1,2.1-2.1H5
	c-1.2,0-2.1,0.9-2.1,2.1s0.9,2.1,2.1,2.1h8.1C12,14.7,11.1,13.8,11.1,12.7z M26.1,5.3c-0.3-1.3,0.7-2.5,2-2.5h-8.1
	c-1.2,0-2.1,0.9-2.1,2.1s0.9,2.1,2.1,2.1h8.2C27.2,6.9,26.3,6.2,26.1,5.3z"/>
<path class="iqviast2" d="M47.3,34.3H21.9c-1.2,0-2.1,0.9-2.1,2.1s0.9,2.1,2.1,2.1h22.5C45.5,37.1,46.5,35.8,47.3,34.3z M50.2,26.4H16
	c-1.3,0-2.3,1.2-2,2.5c0.2,1,1.1,1.6,2.1,1.6H49C49.5,29.2,49.9,27.8,50.2,26.4z M8.2,21c0.2,1,1.1,1.6,2.1,1.6h40.3
	c0.1-0.7,0.1-1.5,0.1-2.2c0-0.7,0-1.3-0.1-1.9H10.3C9,18.5,8,19.6,8.2,21z M49.1,10.6h-36c-1.2,0-2.1,0.9-2.1,2.1s0.9,2.1,2.1,2.1
	h37C49.9,13.3,49.6,11.9,49.1,10.6z M44.6,2.7H28.1c-1.3,0-2.3,1.2-2,2.5c0.2,1,1.1,1.6,2.1,1.6h19.3C46.6,5.4,45.7,4,44.6,2.7z"/>
</svg>
