<?xml version="1.0" encoding="utf-8"?>
<!-- Generator: Adobe Illustrator 24.1.2, SVG Export Plug-In . SVG Version: 6.00 Build 0)  -->
<svg version="1.1" id="Layer_1" xmlns="http://www.w3.org/2000/svg" xmlns:xlink="http://www.w3.org/1999/xlink" x="0px" y="0px"
	 viewBox="0 0 180 32.1" style="enable-background:new 0 0 180 32.1;" xml:space="preserve">
<path d="M16,0C7.2,0,0,7.2,0,16c0,8.9,7.2,16.1,16,16.1S32,24.8,32,16C32,7.2,24.8,0,16,0z M16,30.1L23,18h3.9l2.3-4H18.3L16,18h4.7
	l-6.9,11.9C7.1,28.8,2,23,2,16C2,9.8,6.1,4.5,11.7,2.7L2.9,18h10.8l2.3-4H7.5l6.8-11.9C14.9,2,15.4,2,16,2c7.7,0,14,6.3,14,14
	C30,23.8,23.7,30.1,16,30.1z M40.5,19.4h4l-0.4,1.7H38l2.2-10.7h2.2L40.5,19.4z M52.6,15.3c0,0.9-0.4,1.8-0.9,2.6l-1.5-2.2
	c1.4-0.5,2.8-1.3,2.8-3c0-1.7-1.7-2.4-3-2.4c-1.6,0-3.2,0.9-3.2,2.7c0,0.9,0.3,1.4,0.8,2c-1.6,0.5-2.9,1.5-2.9,3.3
	c0,2.2,1.8,3,3.7,3c0.1,0,0.3,0,0.4,0c0,0,0.1,0.1,0.1,0.1c0.2-0.1,0.5-0.1,0.7-0.2c0.6-0.1,1.3-0.4,1.7-0.7l0.3,0.6h2.3l-1.2-1.8
	c1.1-1.1,1.7-2.5,1.8-4H52.6z M50,11.8c0.6-0.1,1.2,0.1,1.2,0.9c0,1-1.1,1.5-1.9,1.7c-0.3-0.4-0.6-0.9-0.6-1.3
	C48.7,12.3,49.3,11.8,50,11.8z M46.6,18.2c0-1.1,0.9-1.5,1.8-1.9l1.7,2.6c-0.2,0-0.3-0.1-0.5-0.1c-0.6,0-1.1,0.3-1.2,0.9
	C47.4,19.7,46.6,19.3,46.6,18.2z M54.6,10.4h7.8L62,12.1h-2.7l-1.9,9h-2.2l1.9-9h-2.9L54.6,10.4z M68.1,14.7h3.6l-0.3,1.7h-3.6
	l-1,4.7h-2.1l2.2-10.7h5.9l-0.4,1.7h-3.7L68.1,14.7z M76,11.8h-2.1l0.4-2h2.1L76,11.8z M75.7,13.2L74,21.1h-2.1l1.7-7.9H75.7z
	 M83.8,15.5c0,0.6-0.2,1.2-0.3,1.7L82.7,21h-2.1l0.8-3.7c0.1-0.5,0.2-1.1,0.2-1.7c0-0.7-0.5-1.1-1.1-1.1c-1.4,0-1.9,1.3-2.2,2.5
	l-0.8,4h-2.1l1.5-6.7c0.1-0.5,0.2-0.9,0.2-1.1h2L79,14c0.6-0.5,1.3-1,2.2-1C82.8,13,83.8,14,83.8,15.5z M88.5,13
	c-0.9,0-1.8,0.2-2.7,0.5l-0.3,1.6c0.8-0.4,1.7-0.6,2.6-0.6c0.7,0,1.6,0.2,1.6,1c0,0.3,0,0.5-0.1,0.7h-0.7c-1.9,0-4.8,0.2-4.8,2.8
	c0,1.5,1,2.3,2.4,2.3c1.2,0,1.9-0.5,2.6-1.4L88.9,21h1.7c0.2-1.4,1-4.5,1-5.6C91.6,13.6,90.1,13,88.5,13z M87.1,19.8
	c-0.5,0-1-0.3-1.1-0.8c0-1.3,1.7-1.5,2.7-1.5h0.7C89.1,18.7,88.6,19.8,87.1,19.8z M100.7,15.5c0,0.6-0.2,1.2-0.3,1.7L99.6,21h-2.1
	l0.8-3.7c0.1-0.5,0.2-1.1,0.2-1.7c0-0.7-0.5-1.1-1.1-1.1c-1.4,0-1.9,1.3-2.2,2.5l-0.8,4h-2.1l1.5-6.7c0.1-0.5,0.2-0.9,0.2-1.1h2
	L95.9,14c0.6-0.5,1.3-1,2.2-1C99.6,13,100.7,14,100.7,15.5z M105.5,19.7c0.5,0,1.1-0.1,1.7-0.4l-0.2,1.6c-0.6,0.3-1.3,0.4-2,0.4
	c-2,0-3.4-1.4-3.4-3.4c0-2.8,1.8-4.9,4.7-4.9c0.8,0,1.5,0.1,2.1,0.3l-0.5,1.7c-0.4-0.3-0.9-0.4-1.5-0.4c-1.6,0-2.6,1.5-2.6,3
	C103.8,18.6,104.1,19.7,105.5,19.7z M111.7,13.2l-1.7,7.9h-2.1l1.7-7.9H111.7z M112,11.8h-2.1l0.4-2h2.1L112,11.8z M115.9,13
	c-0.9,0-1.8,0.2-2.7,0.5l-0.3,1.6c0.8-0.4,1.7-0.6,2.6-0.6c0.7,0,1.6,0.2,1.6,1c0,0.3,0,0.5-0.1,0.7h-0.7c-1.9,0-4.8,0.2-4.8,2.8
	c0,1.5,1,2.3,2.4,2.3c1.2,0,1.9-0.5,2.6-1.4l-0.2,1.1h1.7c0.2-1.4,1-4.5,1-5.6C119,13.6,117.5,13,115.9,13z M114.5,19.8
	c-0.5,0-1.1-0.3-1.1-0.8c0-1.3,1.7-1.5,2.7-1.5h0.7C116.5,18.7,116,19.8,114.5,19.8z M121.8,9.6h2l-2.4,11.5h-2.1L121.8,9.6z
	 M131.6,13.1c0,1.7,3.6,1.6,3.6,4.6c0,2.6-2.1,3.6-4.4,3.6c-1,0-2.1-0.2-3.1-0.6l0.6-1.8c0.8,0.4,1.7,0.7,2.6,0.7c1,0,2-0.5,2-1.7
	c0-1.9-3.6-1.6-3.6-4.5c0-2.3,1.9-3.2,4-3.2c0.9,0,1.9,0.1,2.8,0.5l-0.5,1.8c-0.6-0.3-1.4-0.6-2.2-0.6S131.6,12.2,131.6,13.1z
	 M143.5,17.7c0.1-0.6,0.2-1.2,0.2-1.8c0-2-1.3-3-3.2-3c-2.6,0-4.5,2.3-4.5,4.8c0,2.4,1.5,3.5,3.8,3.5c0.8,0,1.7-0.2,2.5-0.4l0.3-1.6
	c-0.7,0.4-1.6,0.6-2.4,0.6c-1.4,0-2.2-0.5-2.2-2v-0.1H143.5z M140.4,14.6c0.9,0,1.3,0.5,1.3,1.3c0,0.1,0,0.3,0,0.5v0.1h-3.5
	C138.6,15.4,139.1,14.6,140.4,14.6z M157.2,13.2l-4.6,7.9h-2.3l-1.1-6.3c-0.1,0-0.1,0-0.2,0c-1.5,0-2.2,1.2-2.5,2.7l-0.7,3.5h-2.1
	l1.4-6.8c0.1-0.4,0.1-0.7,0.2-1.1h2l-0.3,1.5c0.3-0.8,1.3-1.5,2.3-1.5h1.7l0.8,5.9l3.1-5.8H157.2z M159.8,13.2l-1.7,7.9H156l1.7-7.9
	H159.8z M160.1,11.8H158l0.4-2h2.1L160.1,11.8z M163.7,19.7c0.5,0,1.1-0.1,1.7-0.4l-0.2,1.6c-0.6,0.3-1.3,0.4-2,0.4
	c-2,0-3.4-1.4-3.4-3.4c0-2.8,1.8-4.9,4.7-4.9c0.8,0,1.5,0.1,2.1,0.3l-0.5,1.7c-0.4-0.3-0.9-0.4-1.5-0.4c-1.6,0-2.6,1.5-2.6,3
	C162,18.6,162.3,19.7,163.7,19.7z M167.8,17.8v-0.1h5.5c0.1-0.6,0.2-1.2,0.2-1.8c0-2-1.3-3-3.2-3c-2.6,0-4.5,2.3-4.5,4.8
	c0,2.4,1.5,3.5,3.8,3.5c0.8,0,1.7-0.2,2.5-0.4l0.3-1.6c-0.7,0.4-1.6,0.6-2.4,0.6C168.6,19.8,167.8,19.3,167.8,17.8z M170.3,14.6
	c0.9,0,1.3,0.5,1.3,1.3c0,0.1,0,0.3,0,0.5v0.1h-3.5C168.5,15.4,169,14.6,170.3,14.6z M176.5,15.3c0,1,2.7,1.4,2.7,3.3
	c0,2.1-1.8,2.7-3.6,2.7c-0.8,0-1.7-0.1-2.4-0.5l0.4-1.6c0.6,0.3,1.2,0.6,2,0.6c0.7,0,1.4-0.2,1.4-0.9c0-1.3-2.7-1.4-2.7-3.4
	c0-1.9,1.8-2.5,3.4-2.5c0.8,0,1.5,0.1,2.2,0.3l-0.3,1.6c-0.5-0.2-1.1-0.4-1.7-0.4C177.3,14.5,176.5,14.7,176.5,15.3z"/>
</svg>
