<?xml version="1.0" encoding="utf-8"?>
<!-- Generator: Adobe Illustrator 24.1.2, SVG Export Plug-In . SVG Version: 6.00 Build 0)  -->
<svg version="1.1" id="Layer_1" xmlns="http://www.w3.org/2000/svg" xmlns:xlink="http://www.w3.org/1999/xlink" x="0px" y="0px"
	 viewBox="0 0 203.5 44.5" style="enable-background:new 0 0 203.5 44.5;" xml:space="preserve">
<style type="text/css">
	.miraklwst0{fill:#FFFFFF;}
	.miraklwst1{fill:url(#SVGID_1_);}
	.miraklwst2{fill:none;}
	.miraklwst3{fill:url(#SVGID_2_);}
	.miraklwst4{fill:url(#SVGID_3_);}
</style>
<g>
	<path class="miraklwst0" d="M135.2,27.4c1.2-3.2,2.4-6.5,3.7-9.9h0.1l3.5,9.9H135.2z M118.1,24.4c-1,0.8-2.5,1.1-4.5,1.1h-1.5V15.2
		c0-1,0.1-1.5,0.4-1.7c0.3-0.2,0.8-0.4,1.7-0.4c0.1,0,0.3,0,0.4,0c2.8,0,5.5,1.6,5.5,6.2c0,0.3,0,0.5,0,0.8
		C120,21.9,119.4,23.3,118.1,24.4 M125.6,35.4l-5.6-9.8c2.6-1.1,4.8-2.8,5.3-5.7c0.1-0.4,0.1-0.8,0.1-1.3c0-2.6-1.1-4.5-2.8-5.6
		c-1.7-1.2-3.8-1.5-7.3-1.5h-7.8c0,0,0,2,0,5.5v16.6c0,0.3,0,0.5,0,0.8h0c0,1.9-1.6,3.5-3.5,3.5c-1.9,0-3.5-1.6-3.5-3.5h0
		c0-0.2,0-0.5,0-0.7V16.9c0-3.6,0.4-3.9,3.7-4.1v-1.4H91.8v1.4c3.3,0.3,3.7,0.5,3.7,4.1v16.6c0,0.3,0,0.5,0,0.7l0,0
		c0,1.9-1.6,3.5-3.5,3.5c-1.9,0-3.5-1.6-3.5-3.5h0c0-0.4,0-0.9,0-1.4l-0.4-15.6C88,13.4,88,11.4,88,11.4h-4.3l-9.1,19.7l-8.9-19.7
		h-8.1v1.4c3.8,0.3,4.1,0.8,3.7,5.9l-0.6,8.5c-0.3,4.5-0.6,6.5-0.8,7.9c-0.3,1.6-1.2,2.3-3.6,2.5V39h10.2v-1.4
		c-2.8-0.3-3.8-0.6-3.9-2.6c-0.1-1.5-0.1-3.5,0-6.9l0.6-11.5h0.1l9.2,22.2h1l10-22.6h0.2l0.1,16.7c0,4.2-0.2,4.5-3.5,4.9V39h11.6
		h0.5h11.3h0.4h11.8v-1.3c-3.3-0.3-3.7-0.7-3.7-4.2v-6.4h1c1.8,0,2.5,0.5,3.3,1.8c1.3,2.2,2.2,5.2,3.5,7.1c0.2,0.2,0.3,0.5,0.5,0.7
		c0.1,0.3,0.3,0.5,0.5,0.7c1,1.3,2.5,2.2,4.1,2.5c0.4,0.1,0.8,0.1,1.2,0.1c0.2,0,0.3,0,0.5,0c2.5-0.2,4.6-1.7,5.7-3.8
		c0.1-0.1,0.1-0.3,0.2-0.4l0-0.1l0,0l0-0.1l0,0l0,0.1l0-0.1l0.1-0.2c0-0.1,0.1-0.2,0.1-0.2l0,0c0.6-1.6,1.2-4.1,1.7-5.6h8.6
		c0.8,2.1,1.5,4.1,2,5.5c0.6,1.7,0.3,2.2-2.3,2.6V39h11.1h12.1v-1.3c-3.4-0.3-3.8-0.6-3.8-4.3v-7.8c0.7-0.1,1.2,0.1,2.2,1.4
		c3.4,4.4,6.9,9,9.5,12h7.7h0.1H202c0.4-1.2,1.3-5.4,1.5-7l-1.4-0.4c-0.8,2.1-1.5,3.5-2.3,4.3c-1,1.1-2.5,1.3-4.6,1.3
		c-1.5,0-2.8,0-3.6-0.4c-0.8-0.4-1-1.2-1-3.3V16.9c0-3.7,0.4-3.9,3.7-4.1v-1.4h-8.6v5.6v4.4v12.1c0,0.3,0,0.5,0,0.8h0
		c0,1.9-1.6,3.5-3.5,3.5c-0.2,0-0.4,0-0.5,0l-0.1,0c-1.8-0.3-2.9-0.9-4.9-3.2c-2.7-3.2-6.6-7.8-9.5-11.9c2.3-2.4,4.7-4.8,6.9-6.8
		c2.5-2.3,4-2.8,6.9-3v-1.4h-10.9v1.4l0.9,0.1c2,0.2,2,0.8,0.9,2.2c-1.6,2-3.8,4.4-6.5,7.1c-1.3,1.3-2.3,1.9-3.2,2.2V17
		c0-3.7,0.4-4,3.5-4.2v-1.4h-12v1.4c3.3,0.3,3.7,0.5,3.7,4.2v16.4c0,0.3,0,0.6,0,0.8h0l0,0c0,1.9-1.6,3.5-3.5,3.5
		c-1.2,0-2.3-0.6-2.9-1.6c-0.5-0.6-0.9-1.6-1.4-3c-2.8-7.3-5.5-14.9-8.2-22.3l-1.9,0.5l-9.4,24.2c-0.3,0.8-1.3,1.3-2.3,1.3
		C127.9,36.7,126.4,36.8,125.6,35.4"/>
	<g>
		<linearGradient id="SVGID_1_" gradientUnits="userSpaceOnUse" x1="0.6637" y1="17.6538" x2="43.2906" y2="17.6538">
			<stop  offset="0" style="stop-color:#FFFFFF;stop-opacity:0.25"/>
			<stop  offset="1" style="stop-color:#FFFFFF"/>
		</linearGradient>
		<path class="miraklwst1" d="M42.9,6.6L42.9,6.6l0-0.1l0-0.1l0,0l0-0.1h0c0-0.1-0.1-0.1-0.1-0.2l0,0l0,0c-0.4-0.7-1-1.3-1.7-1.7
			C35.8,1.5,29.6,0,23,0C17.2,0,11.7,1.2,6.9,3.5c-1.6,0.8-3,2-4.3,4.3L0.7,11c0.2-0.3,0.4-0.6,0.6-0.8c0.3-0.3,0.7-0.6,1.1-0.9
			C2.5,9.2,2.7,9.1,2.9,9l0,0L3,8.9l0,0l0.2-0.1l0,0l0.2-0.1l0,0l0.2-0.1l0,0l0.2-0.1l0,0L4,8.4l0,0c1.5-0.7,3-1.2,4.5-1.7v0l0,0
			l0.2,0h0C9,6.6,9.2,6.6,9.5,6.5l0,0l0.1,0l0.1,0l0.1,0l0.1,0l0.1,0c2.5-0.6,5.4-0.9,8.4-0.9c11.5,0,16.5,2.4,16.3,8.2
			c0,0.1,0,0.1,0,0.2h0c-0.3,5.5-3,13.7-11.6,20.1l0.2,0.1c4.9,3.1,9.5-0.1,15.3-10l0,0c1.5-2.5,2.5-5.1,3.3-7.5l0-0.2
			c0.1-0.5,0.3-0.9,0.4-1.4l0,0c0.3-1.1,0.5-2.1,0.6-3.2l0-0.1c0-0.1,0-0.2,0-0.3l0-0.2c0-0.2,0-0.3,0-0.5c0-0.1,0-0.2,0-0.3
			c0.1-0.7,0.1-1.3,0.1-2C43.3,7.7,43.1,7.1,42.9,6.6"/>
		<path class="miraklwst2" d="M6.9,3.5c-1.6,0.8-3,2-4.3,4.3l-1.7,3l0,0l0.1-0.1l0-0.1l0,0C1.3,10,1.8,9.6,2.3,9.3C2.9,9,3.5,8.7,4.1,8.4
			c0.1,0,0.2-0.1,0.3-0.1c0.1-0.1,0.3-0.1,0.4-0.2L5,8c0.1,0,0.2-0.1,0.3-0.1l0.1,0c1-0.4,2.1-0.8,3.1-1.1l0,0
			C9.1,6.6,9.5,6.5,10,6.4l0.2,0c2.5-0.5,5.2-0.9,8.1-0.9h0h0h0.1c11.3,0,16.4,2.3,16.4,7.9c0,0.1,0,0.2,0,0.3c0,0.1,0,0.2,0,0.2h0
			c-0.3,5.5-3,13.7-11.6,20.1l0.2,0.1c1.2,0.7,2.3,1.1,3.5,1.1c0,0,0,0,0,0c3.7,0,7.4-3.6,11.7-11.2c1.5-2.6,2.6-5.2,3.4-7.7l0-0.1
			l0-0.1l0-0.1l0-0.1l0-0.1l0,0c0.1-0.2,0.1-0.4,0.2-0.7l0,0l0-0.2l0,0h0c0.4-1.6,0.7-3.1,0.8-4.8l0,0l0-0.2l0,0l0-0.2l0,0l0-0.2
			l0,0l0-0.2l0,0l0-0.2l0,0l0-0.2l0,0c0-0.2,0-0.4,0-0.6c0-0.5-0.1-0.9-0.2-1.4c-0.1-0.3-0.2-0.6-0.4-0.9l0.2,0.3l0,0l0-0.1h0
			c0-0.1-0.1-0.1-0.1-0.2c-0.4-0.7-1-1.3-1.7-1.7C35.8,1.5,29.6,0,23,0C17.2,0,11.7,1.2,6.9,3.5"/>
		<linearGradient id="SVGID_2_" gradientUnits="userSpaceOnUse" x1="-1.378" y1="16.3454" x2="30.2871" y2="27.8706">
			<stop  offset="0" style="stop-color:#FFFFFF"/>
			<stop  offset="0.9" style="stop-color:#FFFFFF;stop-opacity:0.25"/>
		</linearGradient>
		<path class="miraklwst3" d="M18.3,5.5c-2.9,0-5.7,0.4-8.1,0.9l-0.2,0C9.5,6.5,9.1,6.6,8.6,6.7l0,0C7.5,7.1,6.4,7.4,5.4,7.8l-0.1,0
			C5.2,7.9,5.1,7.9,5,8L4.8,8.1C4.7,8.1,4.5,8.2,4.4,8.3c-0.1,0-0.2,0.1-0.3,0.1C3.5,8.7,2.9,9,2.3,9.3C1.8,9.6,1.3,10,1,10.5l0,0
			l0,0.1l-0.1,0.1l0,0l-0.1,0.1v0c0,0.1-0.1,0.1-0.1,0.2C0.2,11.7,0,12.5,0,13.3c0.2,5.9,2,12,5.2,17.7c2.9,5,6.7,9.3,11.1,12.3
			c0.8,0.6,1.8,1,2.9,1.3h5c-0.2-0.1-0.4-0.2-0.6-0.3c-0.2-0.1-0.4-0.2-0.5-0.3l0,0l-0.2-0.1l0,0l-0.1-0.1l0,0l-0.1-0.1l0,0
			l-0.1-0.1l0,0l-0.2-0.1l0,0L22,43.2l0,0c-0.3-0.2-0.6-0.4-0.9-0.6l0,0c0,0,0,0,0,0c-1-0.8-2-1.6-2.8-2.5h0l0,0L18.2,40h0
			c-0.2-0.2-0.3-0.3-0.5-0.5l0,0l-0.1-0.1l-0.1-0.1l-0.1-0.1l-0.1-0.1l-0.1-0.1c-1.6-1.7-3.2-3.8-4.6-6.1c0,0,0,0,0,0
			c0,0,0-0.1-0.1-0.1c0,0,0,0,0,0c0,0,0-0.1-0.1-0.1c0,0,0,0,0,0c0,0,0,0,0-0.1c0,0,0,0,0-0.1c0,0,0,0,0,0c0,0,0-0.1-0.1-0.1
			c0,0,0,0,0,0c0,0,0-0.1-0.1-0.1C9.2,27,7.7,22.9,7.7,19.8c0-2.7,1.2-4.5,3.6-5.8c0,0,0,0,0.1,0c0.1,0,0.1-0.1,0.2-0.1h0
			c2.7-1.4,6.6-2.6,11.2-2.6c3.6,0,7.7,0.7,12,2.6c0-0.1,0-0.2,0-0.2c0-0.1,0-0.2,0-0.3C34.7,7.8,29.6,5.5,18.3,5.5L18.3,5.5z"/>
		<linearGradient id="SVGID_3_" gradientUnits="userSpaceOnUse" x1="26.8736" y1="6.03" x2="26.8736" y2="44.548">
			<stop  offset="0" style="stop-color:#FFFFFF;stop-opacity:0.25"/>
			<stop  offset="1" style="stop-color:#FFFFFF"/>
		</linearGradient>
		<path class="miraklwst4" d="M43,6.9c0.1,0.4,0.2,0.9,0.2,1.4c0,0.2,0,0.4,0,0.6l0,0l0,0.2l0,0l0,0.2l0,0l0,0.2l0,0l0,0.2l0,0l0,0.2l0,0
			l0,0.2l0,0c-0.1,1.6-0.4,3.2-0.8,4.8h0l0,0l0,0.2l0,0c-0.1,0.2-0.1,0.4-0.2,0.7l0,0l0,0.1l0,0.1l0,0.1l0,0.1l0,0.1
			c-0.8,2.5-1.9,5.1-3.4,7.7c-4.3,7.5-8,11.2-11.7,11.2c0,0,0,0,0,0c-1.2,0-2.3-0.4-3.5-1.1l-0.2-0.1c-4.6-3-10.4-9.4-11.6-20.1
			c-0.1,0-0.1,0.1-0.2,0.1c-2.4,1.3-3.6,3.1-3.6,5.8c0,3.1,1.5,7.1,4.6,12.5c1.4,2.5,3.2,4.8,4.9,6.6l0.1,0.1c0.3,0.4,0.7,0.7,1,1
			l0,0c0.8,0.8,1.6,1.5,2.5,2.2l0.1,0.1c0.1,0.1,0.2,0.1,0.3,0.2l0.2,0.1c0.1,0.1,0.2,0.2,0.4,0.3c0.1,0.1,0.2,0.1,0.3,0.2
			c0.6,0.4,1.1,0.8,1.7,1.1c0.2,0.1,0.4,0.2,0.6,0.3h3.4c0.2-0.1,0.4-0.2,0.6-0.3c5-3.1,9.4-7.7,12.7-13.4c2.9-5,4.7-10.5,5.1-15.7
			c0-0.2,0-0.4,0-0.7c0-1.6-0.4-3.2-1.6-5.2L42.6,6C42.8,6.3,42.9,6.6,43,6.9"/>
		<path class="miraklwst0" d="M43.2,8.2L43.2,8.2L43.2,8.2L43.2,8.2L43.2,8.2l0,0.1l0,0l0,0.1l0,0.3c0,0.2,0,0.4,0,0.6
			c0,0.4-0.1,0.8-0.1,1.1c0,0.2,0,0.4-0.1,0.6c0,0.2,0,0.4-0.1,0.6c-0.1,0.4-0.1,0.7-0.2,1.1c-0.1,0.7-0.3,1.5-0.5,2.2l0,0l0,0l0,0
			v0v0l0,0c-0.1,0.4-0.2,0.8-0.3,1.2l-0.2,0.6l-0.2,0.6c-0.3,0.8-0.6,1.5-0.9,2.3c-0.2,0.4-0.3,0.8-0.5,1.1
			c-0.2,0.4-0.3,0.7-0.5,1.1c-0.4,0.7-0.7,1.5-1.2,2.2l-0.1,0.2c-0.8,1.4-1.7,2.9-2.7,4.2c-1,1.4-2.1,2.8-3.3,4
			c-0.6,0.6-1.3,1.2-2,1.6c-0.7,0.5-1.5,0.8-2.3,1c-0.4,0.1-0.8,0.1-1.3,0.1c-0.4,0-0.9-0.1-1.3-0.2c-0.4-0.1-0.8-0.2-1.2-0.4
			c-0.4-0.2-0.8-0.4-1.1-0.6c0.4,0.2,0.7,0.5,1.1,0.7c0.4,0.2,0.8,0.4,1.2,0.5c0.8,0.2,1.7,0.3,2.6,0.1c0.9-0.2,1.7-0.5,2.4-1
			c0.8-0.5,1.4-1,2.1-1.6c0.6-0.6,1.2-1.3,1.8-1.9c0.6-0.7,1.1-1.4,1.6-2.1c0.5-0.7,1-1.4,1.4-2.2c0.5-0.7,0.9-1.5,1.3-2.2l0.1-0.2
			l0,0c0.4-0.7,0.7-1.3,1.1-2c0.2-0.4,0.4-0.7,0.5-1.1c0.2-0.4,0.3-0.8,0.5-1.1c0.3-0.8,0.6-1.5,0.9-2.3c0.1-0.2,0.1-0.4,0.2-0.6
			l0.2-0.6c0.1-0.4,0.2-0.8,0.3-1.2l0,0l0,0l0,0c0.2-0.7,0.3-1.5,0.5-2.2c0.1-0.8,0.2-1.5,0.3-2.3c0-0.4,0.1-0.8,0.1-1.1
			c0-0.2,0-0.4,0-0.6l0-0.3l0-0.1v0v0v0v0v0l0,0L43.2,8.2c0.1-0.4,0-0.8-0.1-1.1c-0.1-0.4-0.3-0.7-0.5-1C43,6.7,43.2,7.5,43.2,8.2"
			/>
		<path class="miraklwst0" d="M0.7,11C0.7,11,0.7,11,0.7,11L0.7,11L0.7,11z M0.7,11L0.7,11C0.7,11,0.7,11,0.7,11C0.7,11,0.7,11,0.7,11
			 M18.4,5.3h-0.2v0c-0.8,0-1.5,0-2.3,0.1c-0.4,0-0.8,0.1-1.2,0.1c-0.4,0-0.8,0.1-1.2,0.2C12.6,5.7,11.8,5.9,11,6
			c-0.2,0-0.4,0.1-0.6,0.1L9.8,6.3C9.4,6.4,9,6.5,8.6,6.6l0,0l0,0l0,0l0,0C7.8,6.8,7.1,7.1,6.3,7.3C5.6,7.6,4.9,7.9,4.2,8.2
			c-0.3,0.2-0.7,0.3-1,0.5C3,8.8,2.9,8.9,2.7,9L2.5,9.2L2.3,9.2l0,0l0,0l0,0l0,0l0,0l0,0l-0.1,0c-0.3,0.2-0.6,0.5-0.9,0.8
			c-0.3,0.3-0.5,0.6-0.7,0.9c0.2-0.3,0.4-0.6,0.7-0.9c0.3-0.3,0.6-0.5,0.9-0.7l0.1,0l0,0l0,0l0,0v0l0,0l0,0l0.1-0.1l0.3-0.1
			C2.9,9,3.1,9,3.3,8.9c0.3-0.2,0.7-0.3,1-0.5c0.2-0.1,0.3-0.1,0.5-0.2C5,8.1,5.2,8,5.4,8c0.4-0.1,0.7-0.3,1.1-0.4
			c0.7-0.2,1.4-0.5,2.2-0.7l0,0l0,0l0,0l0,0h0l0,0C9,6.8,9.4,6.7,9.8,6.6l0.6-0.1L11,6.4c0.8-0.2,1.6-0.3,2.4-0.4
			c0.4-0.1,0.8-0.1,1.2-0.1c0.4,0,0.8-0.1,1.2-0.1c0.8-0.1,1.6-0.1,2.5-0.1h0.1c1.7,0,3.4,0,5.1,0.2C25.3,6,27,6.2,28.7,6.7
			c0.8,0.2,1.6,0.5,2.4,0.9c0.8,0.4,1.5,0.9,2.1,1.5c0.3,0.3,0.5,0.7,0.8,1c0.2,0.4,0.4,0.8,0.5,1.2c0.1,0.4,0.2,0.8,0.3,1.3
			c0.1,0.4,0.1,0.9,0,1.3c0-0.4,0-0.9,0-1.3c0-0.4-0.1-0.9-0.2-1.3c-0.2-0.8-0.6-1.6-1.2-2.3c-0.6-0.7-1.3-1.2-2.1-1.6
			c-0.8-0.4-1.6-0.7-2.4-1c-0.8-0.3-1.7-0.4-2.6-0.6c-0.9-0.1-1.7-0.3-2.6-0.3c-0.9-0.1-1.7-0.1-2.6-0.2c-0.8,0-1.6,0-2.4,0
			C18.5,5.3,18.5,5.3,18.4,5.3"/>
		<path class="miraklwst0" d="M10.3,14.6c-0.4,0.2-0.7,0.5-1,0.8c-0.6,0.6-1.1,1.4-1.4,2.2c-0.3,0.8-0.4,1.7-0.4,2.6c0,0.9,0.2,1.8,0.4,2.6
			c0.2,0.9,0.5,1.7,0.8,2.5c0.3,0.8,0.6,1.6,1,2.4c0.4,0.8,0.8,1.6,1.2,2.3c0.4,0.8,0.8,1.5,1.3,2.3l0.1,0.2l0,0
			c0.4,0.7,0.8,1.3,1.2,1.9c0.2,0.3,0.5,0.7,0.7,1c0.2,0.3,0.5,0.7,0.7,1c0.5,0.7,1,1.3,1.6,1.9c0.1,0.2,0.3,0.3,0.4,0.5l0.4,0.5
			c0.3,0.3,0.6,0.6,0.9,0.9l0,0l0,0l0,0l0,0c0.5,0.5,1.1,1,1.7,1.5c0.6,0.5,1.2,0.9,1.8,1.3c0.6,0.4,1.2,0.8,1.9,1.2l0.1,0l0,0l0,0
			l0,0l0,0l0,0l0.1,0.1c0.1,0,0.2,0.1,0.3,0.1c0,0,0.1,0,0.1,0h0.2c-0.1,0-0.2-0.1-0.3-0.1c-0.1,0-0.2-0.1-0.3-0.1l-0.1-0.1l0,0l0,0
			l0,0l0,0l-0.1,0c-0.6-0.4-1.2-0.8-1.8-1.3c-0.6-0.4-1.2-0.9-1.7-1.4c-0.6-0.5-1.1-1-1.6-1.5l0,0l0,0l0,0l0,0l0,0
			c-0.3-0.3-0.6-0.6-0.8-0.9l-0.4-0.5l-0.4-0.5c-0.5-0.6-1.1-1.3-1.5-1.9c-0.2-0.3-0.5-0.7-0.7-1c-0.2-0.3-0.5-0.7-0.7-1
			c-0.5-0.7-0.9-1.4-1.3-2.1L12.4,32c-0.8-1.5-1.6-2.9-2.3-4.4c-0.7-1.6-1.4-3.2-1.8-4.8c-0.2-0.8-0.4-1.7-0.4-2.5
			c0-0.9,0-1.7,0.3-2.5c0.1-0.4,0.3-0.8,0.5-1.2c0.2-0.4,0.5-0.7,0.8-1C9.7,15.1,10,14.9,10.3,14.6c0.4-0.2,0.8-0.4,1.1-0.6
			C11.1,14.1,10.7,14.3,10.3,14.6"/>
	</g>
</g>
</svg>
