<?xml version="1.0" encoding="utf-8"?>
<!-- Generator: Adobe Illustrator 24.1.2, SVG Export Plug-In . SVG Version: 6.00 Build 0)  -->
<svg version="1.1" id="Layer_1" xmlns="http://www.w3.org/2000/svg" xmlns:xlink="http://www.w3.org/1999/xlink" x="0px" y="0px"
	 viewBox="0 0 122.3 55.7" style="enable-background:new 0 0 122.3 55.7;" xml:space="preserve">
<g>
	<polygon points="33,47.7 30.8,47.7 30.8,42.5 28.2,42.5 28.2,50.2 33,50.2 	"/>
	<rect x="24.5" y="42.6" width="2.6" height="7.6"/>
	<path d="M40.3,46.5c0-2.8-1.9-3.9-4.3-3.9h-2.7v7.6h3.3C38.7,50.2,40.3,48.8,40.3,46.5z M35.9,47.8v-2.9h0.2c1,0,1.6,0.5,1.6,1.5
		s-0.7,1.4-1.6,1.4H35.9z"/>
	<path d="M20.4,50.2c2.1,0,3.4-1,3.4-3.2v-4.5H21v4.3c0,0.6,0,1.1-0.7,1.1s-0.7-0.5-0.7-1.1v-4.3H17V47C17,49.2,18.3,50.2,20.4,50.2
		z"/>
	<path d="M16.5,48.1c0-0.9-0.5-1.5-1.3-1.8v-0.1c0.6-0.2,1-0.9,1-1.5c0-1.8-1.4-2.1-2.8-2.1h-3.1v7.6h3.5
		C15.1,50.2,16.5,49.7,16.5,48.1z M12.7,44.4h0.2c0.4,0,0.9,0,0.9,0.5s-0.4,0.6-0.8,0.6h-0.3V44.4z M12.7,48.3v-1.2H13
		c0.4,0,1.1,0,1.1,0.6s-0.6,0.6-1.1,0.6H12.7z"/>
	<path d="M80.5,47.9h1.4c1.5,0,2.4-1,2.4-2.5c0-1.9-1.3-2.8-3-2.8H78v7.6h2.5V47.9z M80.6,44.6h0.3c0.4,0,1,0,1,0.6s-0.5,0.7-1,0.7
		h-0.3V44.6z"/>
	<polygon points="102.8,47.4 104.8,47.4 104.8,45.4 102.8,45.4 102.8,44.7 105,44.7 105,42.6 100.1,42.6 100.1,50.2 105.1,50.2 
		105.1,48.1 102.8,48.1 	"/>
	<path d="M109.6,45.4l-0.6-0.1c-0.2-0.1-0.5-0.1-0.5-0.4s0.3-0.4,0.6-0.4c0.6,0,1.1,0.3,1.5,0.6l0.7-2c-0.7-0.5-1.5-0.7-2.3-0.7
		c-1.6,0-3.2,1-3.2,2.8c0,1.2,0.9,1.8,1.9,2l0.5,0.1c0.2,0.1,0.6,0.1,0.6,0.4s-0.4,0.5-0.7,0.5c-0.6,0-1.2-0.3-1.6-0.7l-0.1-0.1
		l-0.9,2.2c0.8,0.4,1.9,0.7,2.8,0.7c1.6,0,3.2-0.9,3.2-2.7C111.5,46.3,110.7,45.7,109.6,45.4z"/>
	<rect x="40.9" y="42.6" width="2.6" height="7.6"/>
	<rect x="96.6" y="42.6" width="2.6" height="7.6"/>
	<path d="M66.7,48.2c-0.6,0-1.2-0.3-1.6-0.7L65,47.4l-0.9,2.2c0.8,0.4,1.9,0.7,2.8,0.7c1.6,0,3.2-0.9,3.2-2.7c0-1.3-0.8-1.9-1.9-2.2
		l-0.6-0.1c-0.2-0.1-0.5-0.1-0.5-0.4s0.3-0.4,0.6-0.4c0.6,0,1.1,0.3,1.5,0.6l0.7-2c-0.7-0.5-1.5-0.7-2.3-0.7c-1.6,0-3.2,1-3.2,2.8
		c0,1.2,0.9,1.8,1.9,2l0.5,0.1c0.2,0.1,0.6,0.1,0.6,0.4S67,48.2,66.7,48.2z"/>
	<path d="M47,47.7c0-0.5-0.1-1-0.2-1.5h0.1l2.3,4h2.5v-7.6h-2.5v2.3c0,0.6,0.1,1.3,0.2,1.9h-0.1L47,42.5h-2.5v7.7H47V47.7z"/>
	<path d="M56.2,50.3c1.1,0,2.3-0.5,3.1-1.4c0.9-1,0.9-2,0.9-3.3h-4.1v0.1v1.8h1.2c-0.1,0.5-0.7,0.7-1.1,0.7c-0.9,0-1.4-0.8-1.4-1.6
		c0-0.9,0.5-1.8,1.5-1.8c0.4,0,0.8,0.2,1,0.6l2.5-1c-0.6-1.3-2.3-2-3.6-2c-2.3,0-4,1.5-4,4S54,50.3,56.2,50.3z"/>
	<path d="M0,0v55.7h122.3V0H0z M74.6,42.5v3.7l-1.4-1.8v-1.9h-1.4l-14-18.3l-0.1,13H45V5.9h12.7l0.1,13.5l8.1-13.5h14.2L68.9,21.1
		l17.5,21.5h-1.7v7.6h2.5v-2.3h1.4c0.7,0,1.2-0.2,1.7-0.6l1.1,1.4v1.5h1.2l3.3,4H80.7l-3.9-5.1c0.4-0.5,0.6-1.2,0.6-2.1v-4.5H74.6z
		 M74.6,47.2c0,0.4-0.2,0.7-0.7,0.7c-0.7,0-0.7-0.5-0.7-1.1v-1.4L74.6,47.2z M77.2,11.1v19l-7.4-9L77.2,11.1z M87.2,45.9v-1.3h0.3
		c0.2,0,0.4,0,0.6,0.1l0.4,0.5c0,0,0,0,0,0.1c0,0.6-0.5,0.7-1,0.7H87.2z M120.8,54.2H97l-3.3-4h2.6v-2.5H94v-5.2h-2.6v4.9l-0.7-0.8
		c0.2-0.4,0.3-0.8,0.3-1.2c0-1.9-1.3-2.8-3-2.8h-0.6l-4-4.9h6.9V21.4l6.5,10.9l6.5-10.9v16.1h13.1V5.4h-13.8l-5.8,11.3L91,5.4h-9.5
		l0.2-0.2H65.4l-6.9,11.6V5.1H44.2v0.2h-13l-5.8,11.3L19.6,5.4H5.8v32.1h13.1V21.4l6.5,10.9l6.5-10.9v16.3h12.4v0.2h14.2l0.1-11.6
		L71,42.5h-0.4V47c0,2.2,1.3,3.2,3.4,3.2c0.9,0,1.7-0.2,2.3-0.7l3.6,4.7H1.5V1.5h119.3V54.2z"/>
</g>
</svg>
