<?xml version="1.0" encoding="utf-8"?>
<!-- Generator: Adobe Illustrator 24.1.0, SVG Export Plug-In . SVG Version: 6.00 Build 0)  -->
<svg version="1.1" id="Layer_1" xmlns="http://www.w3.org/2000/svg" xmlns:xlink="http://www.w3.org/1999/xlink" x="0px" y="0px"
	 viewBox="0 0 313 70" style="enable-background:new 0 0 313 70;" xml:space="preserve">
<style type="text/css">
	.precst0{}
</style>
<desc>Created with Sketch.</desc>
<path class="precst0" d="M96,28.9c0,2.8-1,5-2.9,6.5s-4.7,2.3-8.3,2.3h-3.3v11h-3.3v-28h7.3C92.5,20.7,96,23.4,96,28.9z M81.5,34.9h2.9
	c2.9,0,5-0.5,6.3-1.4c1.3-0.9,1.9-2.4,1.9-4.5c0-1.9-0.6-3.2-1.8-4.1c-1.2-0.9-3.1-1.4-5.7-1.4h-3.6L81.5,34.9z M107.9,37.1v11.7
	h-3.3v-28h7.7c3.4,0,6,0.7,7.6,2s2.5,3.3,2.5,5.9c0,3.7-1.9,6.2-5.6,7.5l7.6,12.6h-3.9l-6.8-11.7L107.9,37.1z M107.9,34.3h4.5
	c2.3,0,4-0.5,5.1-1.4s1.6-2.3,1.6-4.1c0-1.9-0.5-3.2-1.6-4c-1.1-0.8-2.8-1.2-5.3-1.2l-4.2,0V34.3z M147.3,48.8h-15.6v-28h15.6v2.9
	h-12.4v9h11.6v2.9h-11.6v10.3h12.4V48.8z M168.3,23.2c-3.1,0-5.5,1-7.3,3.1s-2.7,4.9-2.7,8.4c0,3.7,0.9,6.5,2.6,8.5s4.2,3,7.3,3
	c2.3,0,4.5-0.4,6.7-1.1V48c-1.9,0.7-4.3,1.1-7.2,1.1c-4.1,0-7.3-1.3-9.6-3.8c-2.2-2.5-3.4-6.1-3.4-10.7c-0.1-2.6,0.5-5.2,1.6-7.6
	c1-2.1,2.6-3.9,4.7-5c2.2-1.2,4.7-1.8,7.2-1.8c2.7-0.1,5.3,0.5,7.7,1.6l-1.4,2.8C172.7,23.8,170.5,23.3,168.3,23.2z M217.7,48.8H214
	l-15.3-23.5h-0.2c0.2,2.8,0.3,5.3,0.3,7.6v15.9h-3v-28h3.7l15.3,23.4h0.2c0-0.3-0.1-1.5-0.2-3.3s-0.1-3.2-0.1-4V20.7h3.1L217.7,48.8
	z M238.9,48.8l-9.5-24.8h-0.2c0.2,2,0.3,4.3,0.3,7v17.8h-3v-28h4.9l8.9,23.1h0.2l9-23.1h4.9v28H251V30.7c0-2.1,0.1-4.3,0.3-6.7h-0.2
	l-9.6,24.8H238.9z M282.9,48.8l-3.5-8.9h-11.2l-3.4,8.9h-3.3l11.1-28.1h2.7l11,28.1H282.9z M278.4,36.9l-3.3-8.7
	c-0.4-1.1-0.9-2.4-1.3-4c-0.3,1.4-0.7,2.7-1.2,4l-3.3,8.7H278.4z M304.9,23.2c-3.1,0-5.5,1-7.3,3.1s-2.7,4.9-2.7,8.4
	c0,3.7,0.9,6.5,2.6,8.5s4.2,3,7.4,3c2.3,0,4.5-0.4,6.7-1.1V48c-1.9,0.7-4.3,1.1-7.2,1.1c-4.1,0-7.3-1.3-9.6-3.8
	c-2.2-2.5-3.4-6.1-3.4-10.7c-0.1-2.6,0.5-5.2,1.6-7.6c1-2.1,2.6-3.9,4.7-5c2.2-1.2,4.7-1.8,7.2-1.8c2.7-0.1,5.3,0.5,7.7,1.6
	l-1.4,2.8C309.3,23.8,307.1,23.3,304.9,23.2z M183.8,37.1c1-0.7,2.8-2.5,3.2-4.3c0,3.4,0,16.3,0,16.3h-3.2L183.8,37.1z M183.8,36.7
	v-2.9c0,0,1.4-3.2,2.7-4.8c0.6,0.8,0.5,2.8,0.5,2.8S186.9,34.2,183.8,36.7z M183.8,29.2c0.3-1.7,2.3-2.7,3.2-5.5c0,1.2,0,3.9,0,3.9
	s-2.4,3-3.2,5.5V29.2z M184.3,27.1c-0.7-1-0.5-2.9-0.5-2.9c0.4-1.2,1-2.4,1.6-3.5c0.5,1,1.6,0.8,1.6,1.7
	C187.1,23.9,185,26.9,184.3,27.1z M183.8,23.6c-0.1-0.7,0-1.3,0.1-2c0.1-0.4,0.5-0.4,1.2-0.8C184.5,21.6,184.1,22.6,183.8,23.6z
	 M17,43.5l-4.5-4.7h6h8.4h12.6c0,0-9.1-3.4-6.3-7.6h-6.3h-1.1H12.5l4.5-4.7h21.3C37.2,10.1,33.4,0,33.4,0L0,34.9l33.4,34.9
	c0,0,3.8-10.6,4.9-26.4H17z M34.5,0.9c1.7,5.6,2.9,11.3,3.6,17.1h4.3l8.4,8.8H17.2l-3.5,3.6h40.5v1.7c-1.8-1.1-4-1.3-6-0.7
	c0,0,2.3,0.6,3.8,1.9c0.7,0.7,1.4,1.2,2.3,1.7v0.9c-1.9-0.6-2.4-1.7-6.2-4c-3.9-2.3-6.5-0.4-6.5-0.4c0.6,0.2,3,0.9,6,3.5
	c3.7,3.3,6.4,3.6,6.7,3.6v0.6H13.9l3.5,3.6h33.3l-8.4,8.8l-4.2,0c-0.7,5.8-1.9,11.4-3.6,17l32.4-33.9L34.5,0.9z M33.7,34
	c1.2,1.5,2.7,2.7,4.4,3.5c4.9,2.4,6.8,1.2,6.8,1.2c-1.8-1-3.4-2.1-5-3.3c-4.2-3.6-6.2-3.6-6.2-3.6C32.7,32.5,33.3,33.5,33.7,34z
	 M51.3,38.6c-1.1-0.6-2.1-1.3-3.2-2c-3.1-2.4-7.6-6.6-12.4-5.3c0,0,1.7,0.3,8.7,5.9C47.1,39.4,50.5,38.9,51.3,38.6z"/>
</svg>
