<?xml version="1.0" encoding="utf-8"?>
<!-- Generator: Adobe Illustrator 24.2.1, SVG Export Plug-In . SVG Version: 6.00 Build 0)  -->
<svg version="1.1" id="Layer_1" xmlns="http://www.w3.org/2000/svg" xmlns:xlink="http://www.w3.org/1999/xlink" x="0px" y="0px"
	 viewBox="0 0 648 105.6" style="enable-background:new 0 0 648 105.6;" xml:space="preserve">
<style type="text/css">
	.pl_logo-bw-w0{opacity:0.5;}
	.pl_logo-bw-w1{fill:url(#SVGID_1_);}
	.pl_logo-bw-w2{}
	.pl_logo-bw-w3{fill:url(#SVGID_2_);}
	.pl_logo-bw-w4{fill:url(#SVGID_3_);}
	.pl_logo-bw-w5{fill:url(#SVGID_4_);}
</style>
<path class="pl_logo-bw-w0" d="M132.3,27.9h20c7.1,0,13.8,7.6,13.8,17.1c0,8.9-6.7,16.8-13.8,16.8h-14.5v18.3c-0.8,0.1-1.7,0.1-2.4,0.1
	c-1.2,0-2.3-0.1-3.1-0.1V27.9z M160.3,45c0-7.2-4.2-12.6-9.6-12.6h-13v25.1h13C156.1,57.5,160.3,51.7,160.3,45z M189.5,45.4
	c0.2,0.8,0.2,1.5,0.2,2.1c0,0.8-0.1,1.4-0.2,1.9c0,0-2.7-0.2-5.2-0.2c-3.8,0-6.8,0.4-6.8,0.4v30.6c-1.1,0.1-1.7,0.1-2.5,0.1
	c-1,0-2.1-0.1-2.7-0.1V45.6c0,0,5.9-0.4,10.9-0.4C186.9,45.1,189.5,45.4,189.5,45.4z M195.4,63.3c0,8.4,4.5,13.1,12.6,13.1
	c5.5,0,9.3-1.2,10.8-2c1.4,1.8,1.2,4.1,1.2,4.1s-3.7,1.9-12.1,1.9c-12.5,0-17.9-6.6-17.9-17.9c0-12,6.1-17.4,16.3-17.4
	c9.5,0,14.7,4.3,15.1,14.9l0.1,3.2h-26.1L195.4,63.3z M195.4,59.5h20.5c0.1-6.6-2.3-10.4-9.6-10.4C199.1,49.2,195.4,53,195.4,59.5z
	 M249,47.9c0,0-1.2,2.1-3.5,3c0,0-3.2-1.9-7.4-1.9c-5.1,0-7.5,2.1-7.5,5.3c0,4.9,3.6,5.9,10,6.4c5.4,0.5,10.3,3.5,10.3,9.4
	c0,7.7-4.7,10.5-14.4,10.5c-7.2,0-11.1-3.3-11.1-3.3s1.2-2,3.5-2.9c0,0,3.6,2.4,7.7,2.4c7.2,0,9.5-2.2,9.5-5.9
	c0-5.2-4.4-6.2-10.4-6.9c-5.8-0.7-9.9-2.7-9.9-8.9c0-7.6,4.2-10,12.4-10C245,45.1,249,47.9,249,47.9L249,47.9z M260.9,63.3
	c0,8.4,4.5,13.1,12.6,13.1c5.5,0,9.3-1.2,10.8-2c1.4,1.8,1.2,4.1,1.2,4.1s-3.7,1.9-12.1,1.9c-12.5,0-17.9-6.6-17.9-17.9
	c0-12,6.1-17.4,16.3-17.4c9.5,0,14.7,4.3,15.1,14.9l0.1,3.2h-26.1V63.3z M260.9,59.5h20.5c0.1-6.6-2.3-10.4-9.6-10.4
	C264.6,49.2,260.9,53,260.9,59.5z M298,80.1c-1,0.1-1.7,0.1-2.5,0.1c-1.1,0-2.2-0.1-2.8-0.1V45.8l12.1-0.6
	c12.7-0.6,15.7,4.4,15.7,15v19.9c0,0-1.5,0.1-2.8,0.1c-0.6,0-1.6-0.1-2.4-0.1V59.5c0-7.1-1.8-10.8-10.4-10.2l-6.8,0.4v30.4H298z
	 M348.5,76.1c0.1,0.7,0.2,1.3,0.2,1.9c0,0.8,0,1.7-0.1,2.1c0,0-4.1,0.3-7.1,0.3c-10.1,0-15.1-5.1-15.1-17.2c0-10.6,2.8-18,14.3-18
	c4.2,0,7.8,0.3,7.8,0.3c0.1,0.7,0.1,1.4,0.1,2c0,0.8,0,1.7-0.1,2.2c0,0-4.7-0.3-7.8-0.3c-7.9,0-8.8,5.9-8.8,13.8
	c0,9.5,2.2,13.1,9.5,13.1C344.4,76.3,347.1,76.2,348.5,76.1z M356.3,63.3c0,8.4,4.5,13.1,12.6,13.1c5.5,0,9.3-1.2,10.8-2
	c1.4,1.8,1.2,4.1,1.2,4.1s-3.7,1.9-12.1,1.9c-12.5,0-17.9-6.6-17.9-17.9c0-12,6.1-17.4,16.3-17.4c9.5,0,14.7,4.3,15.1,14.9l0.1,3.2
	L356.3,63.3L356.3,63.3z M356.3,59.5h20.5c0.1-6.6-2.3-10.4-9.6-10.4C360,49.2,356.3,53,356.3,59.5z"/>
<g>
	
		<linearGradient id="SVGID_1_" gradientUnits="userSpaceOnUse" x1="310.8024" y1="-432.6258" x2="332.5054" y2="-463.6214" gradientTransform="matrix(9.800000e-03 1 1 -9.800000e-03 495.6152 -305.0062)">
		<stop  offset="0" style="top-opacity:0.2"/>
		<stop  offset="0.999" style="stop-opacity:0.75"/>
	</linearGradient>
	<path class="pl_logo-bw-w1" d="M37.6,20.5l0.9-1.2c3.1-4,7.7-6.7,12.8-7.4c8.8-1.2,21.3,5,23.1,14.3C72.5,14.3,62.2,5.3,49.9,5.4
		c-9.8,0.1-19.6,6-23.4,14.4C30.2,19.4,34,19.6,37.6,20.5z"/>
	<path class="pl_logo-bw-w2" d="M73.1,27.7c0.7,1.6,1.2,3.1,3.3,4.6c2.2,1.6,3.7,2.1,6.5,2.6c1.5,0,1.2-0.9,1.2-5.6C83.9,13,70.6-0.2,54.2,0
		C41.5,0.1,30.7,8.3,26.6,19.6c0.6-1.2,1.4-2.4,2.3-3.6c4-5.1,9.8-8.5,16.2-9.4c6.6-0.9,13.4,0.9,18.7,5
		C68.3,15.2,73,21.7,73.1,27.7z"/>
	<circle class="pl_logo-bw-w2" cx="55.9" cy="21.4" r="6.2"/>
</g>
<path class="pl_logo-bw-w2" d="M398.8,72.1h18.8c0.2,1.4,0.2,2.8,0.2,4c0,2.6-0.2,4.2-0.2,4.2h-29V28c1.7-0.1,3.4-0.2,5-0.2
	c3.1,0,5.2,0.2,5.2,0.2V72.1z M430.3,66c0,5.3,3.7,7.3,9,7.3c6.4,0,10.7-1.9,10.7-1.9c1.9,3.5,2.4,7.2,2.4,7.2s-4.7,2.1-13.1,2.1
	c-13.1,0-18.4-6-18.4-18c0-11.8,6.1-17.6,17-17.6c10.2,0,16.1,6.5,16.1,16.8c0,2.5-0.3,4.1-0.3,4.1H430.3L430.3,66z M430.4,59.3
	h13.7v-1c0-2.7-1.7-5.8-6.3-5.8C432.6,52.5,430.5,55.3,430.4,59.3L430.4,59.3z M458.7,69.9c0-6.8,3.6-10.6,13.4-10.6h7v-1.8
	c0-4-2.8-4.8-6.6-4.8c-5.1,0-10.1,1.4-10.1,1.4s-1.1-3.9-0.7-7.5c0,0,3.8-1.4,10.8-1.4c10.6,0,16,3,16,11.9v23.2
	c0,0-8.7,0.3-17.1,0.3C462.2,80.5,458.7,76.7,458.7,69.9L458.7,69.9z M479.1,73.7v-8.1l-6.3-0.1c-4.5-0.1-5,2.2-5,4.3
	c0,2.2,0.7,4,4.3,4C475.2,73.9,479.1,73.7,479.1,73.7z M517,45.4c0,0,0.2,1.7,0.2,3.9c0,1.1-0.1,2.4-0.2,3.6h-10.3v27.3
	c0,0-2.1,0.2-4.9,0.2c-1.4,0-3-0.1-4.5-0.2V45.6c0,0,3.8-0.5,9.8-0.5C512.6,45.2,517,45.4,517,45.4z M530.6,52.9v27.3
	c0,0-2.1,0.2-4.8,0.2c-1.4,0-3-0.1-4.6-0.2V45.6c0,0,6.5-0.5,14.2-0.5c12.2,0,16,3.9,16,14.7v20.3c0,0-2.1,0.2-4.8,0.2
	c-1.4,0-3-0.1-4.6-0.2V59.3c0-5-1.6-6.4-6.6-6.4L530.6,52.9L530.6,52.9z M559.8,36c0-2.2,0.2-4,0.2-4c1.5-0.1,3.1-0.2,4.5-0.2
	c2.8,0,5.1,0.2,5.1,0.2s0.2,1.7,0.2,4c0,1.1-0.1,2.4-0.2,3.6c0,0-2.2,0.2-5.1,0.2c-1.5,0-3-0.1-4.5-0.2
	C559.9,38.4,559.8,37.2,559.8,36z M569.5,80.2c-1.5,0.1-3.1,0.2-4.4,0.2c-2.8,0-4.9-0.2-4.9-0.2V45.4c1.6-0.1,3.1-0.2,4.5-0.2
	c2.8,0,4.8,0.2,4.8,0.2L569.5,80.2L569.5,80.2z M588.1,52.9v27.3c0,0-2.1,0.2-4.8,0.2c-1.4,0-3-0.1-4.6-0.2V45.6
	c0,0,6.5-0.5,14.2-0.5c12.2,0,16,3.9,16,14.7v20.3c0,0-2.1,0.2-4.8,0.2c-1.4,0-3-0.1-4.6-0.2V59.3c0-5-1.6-6.4-6.6-6.4H588.1
	L588.1,52.9z M631.2,80.4c-11.3,0-16.1-5.3-16.1-18c0-9.9,5.5-17.2,16.8-17.2c8.3,0,16.1,0.2,16.1,0.2V77c0,11.3-4.4,18.3-17.1,18.3
	c-8,0-13.3-2.4-13.3-2.4s0.5-3.7,2.4-7.2c0,0,4.9,2.2,10.9,2.2c5.3,0,7.7-2.7,7.7-7.9C638.6,80,634.6,80.4,631.2,80.4L631.2,80.4z
	 M638.6,73.1V52.8h-6c-5.4,0-7.9,4.2-7.9,9.5c0,7.2,1.8,10.8,7.2,10.8C631.9,73.1,638.6,73.1,638.6,73.1z"/>
<g>
	
		<linearGradient id="SVGID_2_" gradientUnits="userSpaceOnUse" x1="354.335" y1="-379.9461" x2="376.038" y2="-410.9418" gradientTransform="matrix(-1 9.800000e-03 9.800000e-03 1 453.5214 441.9089)">
		<stop  offset="0" style="stop-opacity:0.2"/>
		<stop  offset="0.999" style="stop-opacity:0.75"/>
	</linearGradient>
	<path class="pl_logo-bw-w3" d="M85,37l1.2,0.9c4,3.1,6.7,7.7,7.4,12.8c1.2,8.8-5,21.3-14.3,23.1c11.9-1.9,20.9-12.2,20.8-24.5
		c-0.1-9.8-6-19.6-14.4-23.4C86.1,29.6,85.9,33.4,85,37z"/>
	<path class="pl_logo-bw-w2" d="M77.8,72.5c-1.6,0.7-3.1,1.2-4.6,3.3c-1.6,2.2-2.1,3.7-2.6,6.5c0,1.5,0.9,1.2,5.6,1.2
		c16.3-0.2,29.5-13.5,29.3-29.9c-0.1-12.7-8.3-23.5-19.6-27.6c1.2,0.6,2.4,1.4,3.6,2.3c5.1,4,8.5,9.8,9.4,16.2
		c0.9,6.6-0.9,13.4-5,18.7C90.3,67.7,83.8,72.4,77.8,72.5z"/>
	<circle class="pl_logo-bw-w2" cx="84.1" cy="55.3" r="6.2"/>
</g>
<g>
	
		<linearGradient id="SVGID_3_" gradientUnits="userSpaceOnUse" x1="329.3527" y1="-280.5443" x2="351.0556" y2="-311.5399" gradientTransform="matrix(-9.800000e-03 -1 -1 9.800000e-03 -236.5019 427.6152)">
		<stop  offset="0" style="stop-opacity:0.2"/>
		<stop  offset="0.999" style="stop-opacity:0.75"/>
	</linearGradient>
	<path class="pl_logo-bw-w4" d="M69.2,85l-0.9,1.2c-3.1,4-7.7,6.7-12.8,7.4c-8.8,1.2-21.3-5-23.1-14.3c1.9,11.9,12.2,20.9,24.5,20.8
		c9.8-0.1,19.6-6,23.4-14.4C76.7,86.1,72.8,85.9,69.2,85z"/>
	<path class="pl_logo-bw-w2" d="M33.8,77.8c-0.7-1.6-1.2-3.1-3.3-4.6c-2.2-1.6-3.7-2.1-6.5-2.6c-1.5,0-1.2,0.9-1.2,5.6
		c0.2,16.3,13.5,29.5,29.9,29.3c12.7-0.1,23.5-8.3,27.6-19.6c-0.6,1.2-1.4,2.4-2.3,3.6c-4,5.1-9.8,8.5-16.2,9.4
		c-6.6,0.9-13.4-0.9-18.7-5C38.5,90.3,33.9,83.8,33.8,77.8z"/>
	<circle class="pl_logo-bw-w2" cx="51" cy="84.1" r="6.2"/>
</g>
<g>
	
		<linearGradient id="SVGID_4_" gradientUnits="userSpaceOnUse" x1="375.8777" y1="-164.1192" x2="397.5806" y2="-195.1149" gradientTransform="matrix(1 -9.800000e-03 -9.800000e-03 -1 -367.2957 -120.6209)">
		<stop  offset="0" style="stop-opacity:0.2"/>
		<stop  offset="0.999" style="stop-opacity:0.75"/>
	</linearGradient>
	<path class="pl_logo-bw-w5" d="M20.7,68.2l-1.2-0.9c-4-3.1-6.7-7.7-7.4-12.8c-1.2-8.8,5-21.3,14.3-23.1C14.5,33.3,5.5,43.6,5.6,55.9
		c0.1,9.8,6,19.6,14.4,23.4C19.6,75.6,19.8,71.8,20.7,68.2z"/>
	<path class="pl_logo-bw-w2" d="M27.9,32.8c1.6-0.7,3.1-1.2,4.6-3.3c1.6-2.2,2.1-3.7,2.6-6.5c0-1.5-0.9-1.2-5.6-1.2C13.2,21.9,0,35.2,0.2,51.6
		c0.1,12.7,8.3,23.5,19.6,27.6c-1.2-0.6-2.4-1.4-3.6-2.3c-5.1-4-8.5-9.8-9.4-16.2c-0.9-6.6,0.9-13.4,5-18.7
		C15.4,37.5,21.9,32.8,27.9,32.8z"/>
	<circle class="pl_logo-bw-w2" cx="21.6" cy="49.9" r="6.2"/>
</g>
</svg>
