<?xml version="1.0" encoding="utf-8"?>
<!-- Generator: Adobe Illustrator 24.1.0, SVG Export Plug-In . SVG Version: 6.00 Build 0)  -->
<svg version="1.1" id="Layer_1" xmlns="http://www.w3.org/2000/svg" xmlns:xlink="http://www.w3.org/1999/xlink" x="0px" y="0px"
	 viewBox="0 0 117.9 72.1" style="enable-background:new 0 0 117.9 72.1;" xml:space="preserve">
<style type="text/css">
	.qvst0{opacity:0.5;}
	.qvst1{opacity:0.75;}
</style>
<path class="qvst0" d="M79.5,9.8c0,1.3-1,2.3-2.3,2.3s-2.3-1-2.3-2.3s1-2.3,2.3-2.3C78.5,7.4,79.5,8.5,79.5,9.8 M85.1,21.3
	c0-1.3-1-2.3-2.3-2.3s-2.3,1-2.3,2.3s1,2.3,2.3,2.3C84.1,23.7,85.1,22.6,85.1,21.3 M77.2,20.9c0-1.3-1-2.3-2.3-2.3s-2.3,1-2.3,2.3
	s1,2.3,2.3,2.3C76.2,23.3,77.2,22.2,77.2,20.9"/>
<path class="qvst1" d="M80.1,29l-3.9-0.6l0.6-4l3.9,0.6 M75.8,13.4l-3.9-1l-1,3.9l3.9,1 M77.6,6.1l3.9-0.7l-0.7-4l-3.9,0.7 M80.9,11.9
	l-2.8,2.9l2.8,2.8l2.8-2.9 M6.8,60.1c0,0.6,0,1,0,2.1c0,1,0,3.3,0,4.4c0,1.3,0,2.1,0,2.7l0.1,0.1c0.6,0,0.7,0,1.3,0l0.1-0.1
	c0-0.7,0-1.2-0.1-3.5c1.1,0,2.1,0,2.9-1c0.3-0.4,0.6-1.1,0.6-2c0-1.3-0.5-2.2-1.4-2.6C9.8,60,9.4,60,8.9,60C8.5,60,7.2,60,6.8,60.1
	 M9.3,64.6c-0.2,0.1-0.5,0.1-1.1,0.1c0-1.6,0-2.1,0-3.7c0.2,0,0.5,0,0.7,0s0.7,0,1,0.3c0.4,0.3,0.5,0.9,0.5,1.4
	C10.3,63.2,10.3,64.3,9.3,64.6 M30.7,69.3c0.6,0,0.7,0,1.3,0l0.1-0.1C32,66.9,32,64.6,32,62.4c0-1,0-1.9,0-2.3V60
	c-0.6,0-0.8,0-1.3,0l-0.1,0.1c0.1,1.6,0.1,1.9,0.1,3.7c-0.8,0-2.5,0-3.1,0c0-0.6,0-3.2,0-3.7L27.5,60c-0.6,0-0.7,0-1.3,0l-0.1,0.1
	c0.1,2.2,0.1,4.4,0.1,6.7c0,0.8,0,1.7,0,2.5l0.1,0.1c0.6,0,0.7,0,1.3,0l0.1-0.1c0-0.5-0.1-2.9-0.1-4v-0.4c0.8,0,1.1,0,1.9,0
	c0.3,0,0.6,0,1,0h0.3c0,0.4,0,2,0,2.3C30.7,67.8,30.7,68.6,30.7,69.3 M51.4,69.3c0.6,0,0.8,0,1.3,0l0.1-0.1c-0.1-0.2-0.3-1-0.3-1.2
	c-0.1-0.3-0.2-0.6-0.6-2.4L51,62.9c-0.3-0.9-0.4-1.5-0.7-2.8L50.2,60c-0.7,0-0.9,0-1.5,0l-0.1,0.1c-0.1,0.3-0.4,1.4-0.4,1.6
	c-0.1,0.4-0.2,0.9-0.4,1.3l-0.9,3.3c-0.2,0.9-0.4,1.4-0.8,2.9l0.1,0.1c0.6,0,0.7,0,1.2,0l0.1-0.1c0.1-0.7,0.2-0.9,0.5-2.3l0.1-0.4
	h2.6c0.2,1,0.4,1.6,0.6,2.6C51.2,69.1,51.3,69.2,51.4,69.3 M48.8,63.4c0.2-0.7,0.3-1.4,0.6-2.3c0.2,0.8,0.3,1,0.6,2.3l0.5,2.1
	c-0.6,0-1.7,0-2.2,0L48.8,63.4z M66.7,60.1c0.1,1.5,0.1,5.8,0.1,6.3c0,0.9,0,1.7,0,2.6v0.4l0.1,0.1c0.6,0,0.7,0,1.3,0l0.1-0.1
	c-0.1-1.3-0.1-3-0.1-3.9c0.3,0,0.4,0,0.7,0l0.2,0.4c0.3,0.7,0.8,1.8,1.1,2.5c0.2,0.5,0.3,0.7,0.4,1l0.1,0.1c0.5,0,0.8-0.1,1.4-0.1
	l0.1-0.1c-0.4-0.7-0.5-0.8-1.5-2.9L70,65c0.4-0.1,1.6-0.5,1.6-2.5c0-2.5-1.8-2.5-2.6-2.5c-0.4,0-1,0-1.3,0
	C67.4,60,67.1,60,66.7,60.1 M70.3,62.5c0,1.7-1.1,1.9-2.2,1.8c0-1.1,0-2.2,0-3.3c0.2,0,0.5,0,0.7,0C69.3,61,70.3,61,70.3,62.5
	 M89,62.1c-0.1-0.6-0.4-1.5-0.5-2L88.4,60c-0.7,0-0.9,0-1.7,0l-0.1,0.1c0,0.6,0,0.8-0.1,2.8l-0.2,2.9c-0.1,1.6-0.1,1.8-0.2,3.5
	l0.1,0.1c0.5,0,0.6,0,1.1,0l0.1-0.1c0-0.9,0.1-3.3,0.1-3.9l0.1-4.2l1.2,5.3c0.3,1.2,0.3,1.4,0.6,2.6v0.2l0.1,0.1c0.5,0,0.7,0,1.2,0
	l0.1-0.1c0-0.2,0.4-1.5,0.7-2.9l1.3-5.2l0.1,4.8c0,0.7,0,2.8,0,3.3l0.1,0.1c0.6,0,0.7,0,1.2,0l0.1-0.1c-0.1-1.3-0.1-2.6-0.2-3.9
	L94,63.2c-0.1-1.7-0.1-1.9-0.1-3.2h-0.1c-0.8,0-0.9,0-1.7,0L92,60.1c-0.1,0.4-0.1,0.4-0.2,1c-0.1,0.5-0.2,0.9-0.4,1.4l-1.3,5
	 M113.4,69.3c0.6,0,0.8,0,1.3,0l0.1-0.1c-0.1-0.2-0.3-1-0.3-1.2c-0.1-0.3-0.2-0.6-0.6-2.4l-0.7-2.7c-0.3-0.9-0.4-1.5-0.7-2.8
	l-0.1-0.1c-0.7,0-0.9,0-1.5,0l-0.1,0.1c-0.1,0.3-0.4,1.4-0.4,1.6c-0.1,0.4-0.2,0.9-0.4,1.3l-0.9,3.3c-0.3,0.9-0.4,1.4-0.8,2.9
	l0.1,0.1c0.6,0,0.7,0,1.2,0l0.1-0.1c0.1-0.7,0.2-0.9,0.5-2.3l0.1-0.4h2.6c0.3,1,0.4,1.6,0.6,2.6C113.3,69.1,113.3,69.2,113.4,69.3
	 M110.8,63.4c0.2-0.7,0.3-1.4,0.6-2.3c0.2,0.8,0.2,1,0.6,2.3l0.5,2.1c-0.6,0-1.7,0-2.2,0L110.8,63.4z"/>
<path d="M42,32.7v-6.8h3.4V33c0,7.7,3,10.2,6.3,10.2c3.2,0,6.4-2.4,6.4-10.2v-7.1h3.4v6.8c0,9-3.4,13.7-9.7,13.7
	C45.1,46.4,42,41.7,42,32.7z M86.9,18.4v3.3v0.1c0,11.5-4.7,19.9-8.8,22c-4.1-2.1-8.8-10.5-8.9-22v-2.2v-0.1v-6.6h-3.6v8.4
	c0,12.5,4.3,22.7,12.5,26.4c8.1-3.7,12.4-13.9,12.4-26.4v-8.4h-3.6V18.4z M113.6,40.1v6.1H110v-6.8c0-0.4,0-0.8-0.1-1.1
	c-6.8-0.2-10.9,2-12.9,3.5v4.5h-3.6v-6.1c0-7.7,3.4-13,9.9-15.3h0.1h0.1C110.2,27.1,113.6,32.4,113.6,40.1z M103.5,28
	c-2.8,1.2-6,4.6-6.4,10.5c2.6-1.4,6.7-2.9,12.4-2.8C108.4,31.4,105.8,28.9,103.5,28z M66.5,49.2v3.1C61.2,54.2,56.2,55,51.6,55
	c-9.1,0-16.6-3.1-21.9-6.3c-1.8-1.1-3.4-2.2-4.9-3.3c-1,0.3-2.2,0.6-3.2,0.7c-1,0.1-1.6,0.1-2.2,0.1C9.1,46.2,1.6,39,1.6,29
	s8-17.2,17.8-17.2c10.3,0,17.8,7.2,17.8,17.2c0,7.2-4,12.2-9.2,15.1c1,0.7,2.1,1.4,3.2,2.1C42.5,52.9,54.3,53.9,66.5,49.2z
	 M24.9,41.7c5.1-1.9,8.7-6.6,8.7-12.7c0-8.1-5.8-13.6-14.1-13.6C11.7,15.4,5.4,21,5.4,29c0,8.1,5.8,13.6,14.1,13.6
	c0.7,0,1.3-0.1,1.9-0.1c-3.6-3.3-5.6-6-5.8-6.2h3.8C20.5,37.7,22.4,39.6,24.9,41.7z M115.1,26.3c0-0.7-0.5-1.2-1.2-1.2
	s-1.2,0.5-1.2,1.2s0.5,1.2,1.2,1.2S115.1,27,115.1,26.3 M113,26.3c0-0.5,0.4-1,0.9-1s0.9,0.4,0.9,1c0,0.5-0.4,0.9-0.9,0.9
	C113.4,27.3,113,26.9,113,26.3 M113.7,26.5L113.7,26.5c0.3,0,0.3,0.1,0.3,0.2s0.1,0.2,0.1,0.3h0.3c0,0-0.1-0.1-0.1-0.3
	c0-0.2-0.1-0.2-0.2-0.3l0,0c0.1,0,0.2-0.1,0.2-0.3c0-0.1-0.1-0.2-0.1-0.3c-0.1-0.1-0.2-0.1-0.4-0.1c-0.2,0-0.3,0-0.5,0V27h0.3
	L113.7,26.5L113.7,26.5z M113.7,25.9c0,0,0.1,0,0.2,0c0.2,0,0.3,0.1,0.3,0.2s-0.1,0.2-0.3,0.2h-0.1L113.7,25.9L113.7,25.9z"/>
</svg>
