<?xml version="1.0" encoding="utf-8"?>
<svg version="1.1" id="Layer_1" xmlns="http://www.w3.org/2000/svg" xmlns:xlink="http://www.w3.org/1999/xlink" x="0px" y="0px"
	 viewBox="0 0 400 217" style="enable-background:new 0 0 400 217;" xml:space="preserve">
<style type="text/css">
	.risewst0{opacity:0.5;}
</style>
<path d="M48.2,104.8c7.4,0.6,14-0.1,20.2-3.1c6.6-3.1,9.7-9.3,9-17.5c-0.5-6.2-4.4-10.7-11.6-12.5c-11.7-3.1-23.4-1.4-35.1,0.7
	c-7,1.2-14,2.9-20.9,4.8c-4.1,1.1-6.1-0.2-7.3-4.1C-2.8,56.5-0.3,50.7,16.3,46c23-6.6,46.2-7.5,68.9,1.6c14.1,5.6,22.9,16,24.6,31.4
	c1.8,17-1.6,32.1-17,42.4c-0.3,0.2-0.6,0.6-1.1,1.3c4.5,7.2,9.1,14.5,13.6,21.8c3.9,6.2,7.8,12.4,11.5,18.7c2.5,4.2,1.4,6.1-3.4,6.3
	c-10.3,0.4-20.6,0.5-30.9,0.9c-3.8,0.1-5.9-1.2-7.3-4.9c-3-8.1-6.5-16-9.9-24c-4-9.3-6.2-10.4-17.5-9c0,4.7,0,9.6,0,14.5
	c-0.1,6.1-0.3,12.2-0.3,18.3c0,3.5-1.2,5.2-5,5.2c-7.6,0-15.2,0.4-22.8,0.5c-5.4,0.1-6.6-1.4-6.4-6.6c0.8-24,1.6-48,2.1-72
	c0.1-4.6,1.5-7.5,6.2-8.2C28.8,83,36,81.8,43.2,81c3.6-0.4,5.3,1.6,5.1,5.5C48,92.4,48.2,98.3,48.2,104.8z M296.6,139.5
	c3.3-14.1-0.6-26.1-11.3-35.5c-5-4.3-11.1-7.5-16.8-10.9c-4-2.3-8.5-3.8-12.3-6.3c-1.8-1.3-4.4-3.9-3-7.9c1.7-4.6,5.9-4.5,10.9-2.9
	c6.1,1.9,12.1,4,18,6.5c2.8,1.2,5.2,1.3,6.6-1.3c3.6-6.5,7-13.1,9.9-19.9c0.6-1.5-0.4-5-1.7-5.8c-15.1-9.2-31.1-16-49.4-13.9
	c-26.7,3-43.7,30.6-34.3,55.1c4.5,11.8,14.1,17.7,25,22.1c5.7,2.3,11.5,4.2,17.1,6.7c2.7,1.2,5.8,2.9,5,6.5c-0.8,3.9-4.5,4-7.3,3.4
	c-8.7-1.8-17.4-3.8-25.9-6.3c-4.2-1.2-6.9-0.8-9,3.1c-3.9,7.4-7.9,14.7-11.8,22.1c-1.9,3.6-1,5.9,2.7,7.4
	c13.7,5.8,27.4,10.7,42.9,10.7C275.4,172.3,293.2,154.6,296.6,139.5z M315.1,159.2c0,7.7,2.6,10.6,10.4,10.9
	c18.5,0.6,37,0.9,55.5,1.1c1.6,0,4.4-1.7,4.7-2.9c1.6-8.5,2.7-17,3.9-25.6c0.3-2.4-0.8-3.5-3.4-3.3c-8,0.5-16.1,0.6-24.1,1.1
	c-13,0.8-13,0.8-12.8-12c0-0.1,0-0.3,0-0.4c0.1-5.9,1-6.8,6.8-6.7c9.1,0.3,18.2,0.5,27.3,0.9c2.6,0.1,4.3-0.4,4.5-3.5
	c0.5-7.6,1-15.2,1.9-22.7c0.5-4.6-1.4-5.7-5.6-5.4c-7.4,0.5-14.9,0.6-22.4,0.9c-11.7,0.4-11.2,2.3-11.8-10.8
	c-0.3-6.3,0.3-7.2,6.5-7.1c12.1,0.2,24.2,0.5,36.2,0.9c3.4,0.1,5.5-0.8,5.8-4.5c0.5-6.1,1.1-12.2,1.6-18.3c0.4-5.6-0.8-7-6.5-7
	c-23.9,0.1-47.8,0.2-71.6,0.3c-6.2,0-8.2,2.1-8.2,8.5C313.6,71.2,315,141.6,315.1,159.2z M163.1,202c-4.8,3.3-6.5,7.1-4.7,10.8
	c1.8,3.8,6.2,5.1,11.7,3.5c0.4-0.1,0.9-0.3,1.3-0.4c9.1-2.1,18.2-4.5,27.4-6.1c7.6-1.3,15.4-1.5,23.1-2.5c3.9-0.5,6.8-2.5,7.1-6.8
	c0.3-4.1-2.3-6.3-5.7-7.6c-2.6-1-5.4-1.6-8.2-2.1c-24.1-4.5-48.3-5.4-72.6-2.4c-13.1,1.6-26.1,4.6-39,7.5c-6,1.3-8.5,7-6.2,12
	c2,4.4,6.3,5.6,12.3,3.5c17.7-6,36.1-8.7,54.9-10.4C163.9,201.5,163.5,201.7,163.1,202z"/>
<path class="risewst0" d="M141.5,154.9c1.1-9.8,2.2-19.5,3.2-29.3c0.8-7.5,1.6-15.1,2.4-22.6c0.5-4.7-3.4-5.8-6.3-7.6
	c-2.4-1.5-5.1-2.5-7.2-4.3c-3.5-3-3.5-7.2,0.1-9.9c10.8-8.1,21.8-16.1,32.8-23.9c1.8-1.3,4-2.1,6.1-2.5c5.3-1,8.7,1.7,8.9,7.1
	c0.4,11.2,0.7,22.3,1,33.5c0.6,20.7,1.2,41.4,1.8,62.1c0.1,3,0.3,5.9,0.5,8.9c0.2,3-1.3,4.6-4.2,4.6c-9.5-0.1-19.1,0.1-28.6-0.7
	C146.9,169.8,140.8,164.1,141.5,154.9z M167,0c-12.8-0.1-24,10.3-24.1,22.6c-0.1,13.2,10.4,24,23.5,24.2c12,0.2,23.1-10.9,23.2-23.2
	C189.7,11,179.4,0.1,167,0z"/>
</svg>
