<?xml version="1.0" encoding="utf-8"?>
<svg version="1.1" id="Layer_1" xmlns="http://www.w3.org/2000/svg" xmlns:xlink="http://www.w3.org/1999/xlink" x="0px" y="0px"
	 viewBox="0 0 503.6 129.6" style="enable-background:new 0 0 503.6 129.6;" xml:space="preserve">
<style type="text/css">
	.rodeodentalwst3{opacity:0.5;}
</style>
<g>
	<path d="M278,68c1,0,1.7-0.8,1.7-1.7c0-1-0.8-1.7-1.7-1.7c-1,0-1.7,0.8-1.7,1.7C276.3,67.2,277.1,68,278,68z"/>
	<path d="M278.6,41.4c0.9,0,1.6-0.7,1.6-1.6c0-0.9-0.7-1.6-1.6-1.6c-0.9,0-1.6,0.7-1.6,1.6C276.9,40.7,277.7,41.4,278.6,41.4z"/>
	<path d="M198.9,63.8c0,1.3,0.2,2.6,0.3,3.9c2.8-2.5,4.1-5.6,4.1-9.4c0-3.6-1.3-6.6-3.7-9C199.1,53.9,198.8,58.7,198.9,63.8z"/>
	<path d="M278.3,53.7c0,0.9,0.8,1.7,1.7,1.7c0.9,0,1.7-0.8,1.7-1.7c0-0.9-0.8-1.7-1.7-1.7C279,52,278.3,52.8,278.3,53.7z"/>
	<path d="M259.5,88.1c-1.3,0-2.4,1.1-2.4,2.3c0,1.3,1.1,2.3,2.4,2.3c1.3,0,2.4-1.1,2.4-2.3C261.8,89.2,260.8,88.1,259.5,88.1z"/>
	<path d="M270.8,77.6c-1.2,0-2.2,1-2.2,2.2c0,1.2,1,2.2,2.2,2.2c1.2,0,2.2-1,2.2-2.2C273,78.5,272,77.6,270.8,77.6z"/>
	<path d="M273.1,27.6c0,0.8,0.7,1.5,1.5,1.5c0.8,0,1.5-0.7,1.5-1.5c0-0.8-0.7-1.5-1.5-1.5C273.8,26.1,273.1,26.8,273.1,27.6z"/>
	<path d="M216.9,79.7c0-1.2-1-2.2-2.2-2.2c-1.2,0-2.2,1-2.2,2.2c0,1.2,1,2.2,2.2,2.2C215.9,81.9,216.9,81,216.9,79.7z"/>
	<path d="M229.8,91.2c0-1.3-1.1-2.3-2.4-2.3c-1.3,0-2.4,1.1-2.4,2.3c0,1.3,1.1,2.3,2.4,2.3C228.7,93.6,229.8,92.5,229.8,91.2z"/>
	<path d="M215.7,27.5c0-0.8-0.7-1.5-1.5-1.5s-1.5,0.7-1.5,1.5c0,0.8,0.7,1.5,1.5,1.5S215.7,28.3,215.7,27.5z"/>
	<path d="M212.5,39.6c0-0.9-0.7-1.6-1.6-1.6s-1.6,0.7-1.6,1.6s0.7,1.6,1.6,1.6S212.5,40.5,212.5,39.6z"/>
	<path d="M210.2,66.4c0-0.2,0-0.4-0.1-0.6c-0.3,0.8-0.7,1.5-1.1,2.2C209.7,67.8,210.2,67.2,210.2,66.4z"/>
	<path d="M283.5,77.2V38.8c1.5,0,3,0,4.6,0c-0.3-1-0.6-2.1-1-3.2c-1.4-5.2-3.4-10.7-6.1-16.6c0.1-0.1,0.2-0.1,0.3-0.2l0.7-0.5
		l-0.4-0.7c-2.5-5.1-5.3-10.5-8.7-15.6l-0.5-0.7l-0.7,0.4c-6,3-11,5.9-15.6,8.7l-0.7,0.4l0.3,0.7c2.2,4.8,5,9.9,8.8,15.6l0.5,0.7
		l0.9-0.4c2.3,5.1,4.7,11.5,5.1,18.9l0.2,0l-0.2,0.2c0.4,6.7-0.7,14.2-4.7,22.3c-1.4,2.9-3.4,5.5-5.6,7.7l0.1,0.6l-0.4-0.2
		c-3.2,3.1-7.1,5.4-11.3,6.5c-6.6,1.7-13.3,0.5-19.3-3.6c-0.9-0.7-1.9-1.5-2.7-2.3c-5-4.7-8.5-14.6-6.4-29.7l-2-2l2.4-0.3
		c0.9-5.2,2.4-11.1,4.7-17.5c0.2,0.1,0.3,0.1,0.6,0.2l0.7,0.2l0.3-0.7c2.1-4.2,5.1-11.6,6.5-15.2l0.1-0.2l0-0.7c0-1.2,0-2-0.2-3.2
		l-0.1-0.5L233,7.7c-6.2-2.9-11.8-5.3-17-7.2l-0.8-0.3l-0.4,0.7c-2.5,4.8-4.9,10.4-7.2,17l-0.3,0.8l1.2,0.6
		c-2.7,5.6-5.5,13-7.4,21.7c1.2,0.7,2.3,1.4,3.4,2.3c0.6,0.5,1.2,1.1,1.8,1.6c1.5-8.2,4.2-16.3,7.8-23.7c1.5,0.7,3.1,1.4,4.6,2
		c-1.9,5.1-3.4,10.3-4.6,15.3c-3,13.4-4.5,32.1,6.5,42.5c4,3.8,8.6,6.6,13.4,8.1c7.7,2.5,8.4,10.7-1.5,7.9
		c-6.5-1.8-12.4-5.5-17.1-10.3c-4.1-4.1-7.5-9.3-9.4-15c-0.5,0.5-1,1-1.6,1.4c-1,0.8-2.1,1.6-3.2,2.2c3.1,8.1,9,15.7,16.9,21.1
		c7.1,5.3,15.3,8.4,23.5,8.8c0.8,0,1.7,0.1,2.5,0.1c16.7,0,35.4-8.6,43-28.3H283.5z M280.7,70.8c-2.7,9-8.1,16.4-16.1,21.4
		c-3.4,2.1-7.1,3.7-10.9,4.7c-8.7,2.3-6.6-5.9-0.3-8.4c6.8-2.7,12.6-7.8,16.4-14.1c0.5-0.8,1-1.7,1.4-2.6c6.4-12.8,7.1-26,2.5-39.5
		c-1-2.9-2.1-5.6-3.4-8.3c1.5-0.8,3-1.6,4.4-2.5C281.9,37.2,285.9,53.4,280.7,70.8z"/>
</g>
<path class="rodeodentalwst0" d="M186.2,116.9c-0.3,0.4-0.7,0.6-1.3,0.6h-6.3v-3.9h6.4c0.6,0,1,0.2,1.3,0.6c0.3,0.4,0.4,0.8,0.4,1.3
	C186.7,116.1,186.5,116.5,186.2,116.9z M284.5,114.6c-1.1-0.8-2.3-1.3-3.7-1.3c-1.3,0-2.5,0.5-3.6,1.4c-1.1,0.9-1.6,2-1.6,3.3
	c0,1.4,0.5,2.5,1.5,3.4c1,0.9,2.2,1.4,3.7,1.4c1.4,0,2.7-0.5,3.8-1.4c1.1-0.9,1.6-2.1,1.6-3.4C286.2,116.7,285.7,115.5,284.5,114.6z
	 M244,114.6c-1.1-0.8-2.3-1.3-3.7-1.3c-1.3,0-2.5,0.5-3.6,1.4c-1.1,0.9-1.6,2-1.6,3.3c0,1.4,0.5,2.5,1.5,3.4c1,0.9,2.2,1.4,3.7,1.4
	c1.4,0,2.7-0.5,3.8-1.4c1.1-0.9,1.6-2.1,1.6-3.4C245.7,116.7,245.1,115.5,244,114.6z M261.4,113.6H257v9.1h4.8
	c0.8,0,1.6-0.5,2.4-1.4c0.8-0.9,1.1-1.9,1.1-3.1c0-1.2-0.4-2.3-1.1-3.2C263.4,114.1,262.5,113.6,261.4,113.6z M123.1,118.7
	c-0.3,0.1-0.6,0.3-0.9,0.5c-0.7,0.4-1,0.9-1,1.4c0,0.7,0.3,1.2,1,1.7c0.7,0.4,1.5,0.7,2.6,0.7c1.2,0,2.2-0.3,3.1-1l-3.6-3.5
	C123.8,118.5,123.4,118.6,123.1,118.7z M385,118c0,6-4.8,10.8-10.8,10.8H120.5c-6,0-10.8-4.8-10.8-10.8v0c0-6,4.8-10.8,10.8-10.8
	h253.7C380.1,107.2,385,112.1,385,118z M133.2,124.4l-2.6-2.6l1.7-2.2l-1.4-1.1l-1.7,2.2l-5.3-5c-0.2-0.2-0.4-0.4-0.4-0.5
	s-0.1-0.2-0.1-0.4c0-0.3,0.2-0.5,0.6-0.6c0.6-0.2,1.1-0.3,1.6-0.3c0.5,0,1,0.1,1.5,0.2c0.1,0,0.2,0,0.3,0c0.1,0,0.2,0.1,0.5,0.1
	l1,0.3l0.7-1.5c-0.8-0.3-1.5-0.6-2.1-0.8c-0.7-0.2-1.3-0.2-2-0.2c-1,0-1.8,0.3-2.6,0.8c-0.8,0.5-1.1,1.1-1.1,1.8
	c0,0.5,0.1,0.9,0.4,1.5l0.3,0.5l0.3,0.3c-1.2,0.5-2.1,1-2.6,1.6s-0.8,1.2-0.8,1.9c0,1.2,0.5,2.2,1.4,3c1,0.7,2.3,1.1,3.9,1.1
	c0.3,0,0.6,0,1-0.1c0.3,0,0.7-0.1,1-0.2c0.6-0.1,1.2-0.3,1.7-0.6c0.3-0.2,0.6-0.4,0.9-0.6l1.3,1.3H133.2z M169,118
	c0-2.1-0.8-3.7-2.3-4.9c-1.3-1.1-3-1.6-4.9-1.6c-1.9,0-3.5,0.6-4.9,1.8c-1.5,1.3-2.2,2.9-2.2,4.7c0,1.8,0.7,3.3,2.2,4.6
	c1.5,1.3,3.1,1.9,4.9,1.9c1.9,0,3.6-0.6,5-1.8C168.2,121.6,169,120,169,118z M188.7,124.4l-3.4-5.3c0.9-0.2,1.7-0.5,2.2-0.9
	c0.8-0.6,1.2-1.5,1.2-2.7c0-1-0.4-1.9-1.1-2.6c-0.7-0.7-1.6-1.1-2.6-1.1h-8.1v12.6h1.8v-5.2h4.7l3.4,5.2L188.7,124.4z M206.2,111.8
	h-11.1v1.7h4.6v10.9h1.8v-10.9h4.6V111.8z M225.5,111.7h-1.9v5.3h-8v-5.3h-1.8v12.7h1.8v-5.6h8v5.6h1.9V111.7z M247.5,118
	c0-2.1-0.8-3.7-2.3-4.9c-1.3-1.1-3-1.6-4.9-1.6c-1.9,0-3.5,0.6-4.9,1.8c-1.5,1.3-2.2,2.9-2.2,4.7c0,1.8,0.7,3.3,2.2,4.6
	c1.5,1.3,3.1,1.9,4.9,1.9c1.9,0,3.6-0.6,5-1.8C246.8,121.6,247.5,120,247.5,118z M267.2,118.3c0-1.7-0.5-3.2-1.5-4.4
	c-1-1.4-2.4-2.1-4-2.1h-6.6v12.6h6.6c1.5,0,2.7-0.6,3.8-1.9C266.7,121.2,267.2,119.8,267.2,118.3z M288.1,118c0-2.1-0.8-3.7-2.3-4.9
	c-1.3-1.1-3-1.6-4.9-1.6c-1.9,0-3.5,0.6-4.9,1.8c-1.5,1.3-2.2,2.9-2.2,4.7c0,1.8,0.7,3.3,2.2,4.6c1.5,1.3,3.1,1.9,4.9,1.9
	c1.9,0,3.6-0.6,5-1.8C287.3,121.6,288.1,120,288.1,118z M307.5,111.7h-1.8v10l-8-10h-1.7v12.7h1.8l0.1-9.8l7.9,9.8l1.8,0V111.7z
	 M326.2,111.8h-11.1v1.7h4.6v10.9h1.8v-10.9h4.6V111.8z M336.2,111.7h-1.9v12.7h1.9V111.7z M357.4,121.7l-1.3-1.2
	c-0.4,0.4-0.8,0.8-1.2,1.1s-0.8,0.5-1.2,0.7c-0.8,0.3-1.7,0.5-2.5,0.5c-1.5,0-2.6-0.4-3.6-1.2c-1-0.9-1.5-2.1-1.5-3.6
	c0-1.2,0.5-2.3,1.6-3.2c1.1-0.9,2.2-1.4,3.5-1.4c0.1,0,0.3,0,0.4,0c0.1,0,0.4,0,0.7,0.1c0.3,0.1,0.7,0.2,1.2,0.3
	c0.2,0.1,0.4,0.2,0.6,0.3c0.1,0.1,0.3,0.2,0.6,0.3c0.3,0.2,0.5,0.3,0.6,0.4c0.1,0.1,0.3,0.2,0.6,0.5l1.1-1.5c-1.1-0.8-2-1.4-2.9-1.7
	c-0.4-0.2-0.9-0.3-1.4-0.4s-1-0.1-1.5-0.1c-1.9,0-3.5,0.6-4.8,1.7c-1.5,1.3-2.2,2.8-2.2,4.7c0,2,0.7,3.7,2.2,4.9
	c1.4,1.2,3,1.8,4.9,1.8c1.1,0,2.2-0.2,3.3-0.7c0.5-0.2,1-0.5,1.5-0.9C356.5,122.7,356.9,122.2,357.4,121.7z M375.3,120.5
	c0-1-0.4-1.8-1.2-2.5c-0.8-0.7-1.7-1.1-2.6-1.1l-4.3-0.2c-0.5,0-0.9-0.2-1.3-0.5c-0.4-0.3-0.6-0.7-0.6-1.1c0-0.5,0.4-0.9,1.1-1.3
	c0.7-0.4,1.6-0.5,2.5-0.5c0.3,0,0.6,0,1,0.1c0.1,0,0.2,0,0.3,0.1c0.1,0,0.4,0.1,0.8,0.2l1.1,0.4c0.4,0.2,0.8,0.4,1.2,0.6l1.1-1.2
	c-1-0.7-1.9-1.2-2.7-1.5c-0.8-0.3-1.6-0.5-2.6-0.5c-0.3,0-0.6,0-0.9,0.1c-0.3,0-0.6,0.1-0.9,0.2c-0.6,0.2-1.2,0.4-1.7,0.7
	c-1.3,0.7-2,1.6-2,2.7c0,1.1,0.3,1.9,1,2.6c0.6,0.6,1.4,1,2.4,1l4.2,0.3c0.6,0,1.1,0.2,1.6,0.5c0.4,0.3,0.6,0.8,0.6,1.2
	c0,0.8-0.4,1.4-1.2,1.8c-0.8,0.4-1.8,0.6-2.9,0.6c-0.3,0-0.6,0-0.7,0c-0.2,0-0.4-0.1-0.7-0.1c-0.3-0.1-0.6-0.1-0.7-0.1
	c-0.1,0-0.3-0.1-0.7-0.2c-0.5-0.2-0.9-0.4-1.3-0.7c-0.5-0.3-0.9-0.7-1.3-1.1l-1.1,1.4c1.2,1,2.2,1.6,2.9,1.9c1,0.4,2.3,0.7,3.9,0.7
	c0.8,0,1.5-0.1,2.2-0.3c0.7-0.2,1.3-0.5,1.8-0.8C374.8,122.8,375.3,121.7,375.3,120.5z M165.5,114.6c-1.1-0.8-2.3-1.3-3.7-1.3
	c-1.3,0-2.5,0.5-3.6,1.4c-1.1,0.9-1.6,2-1.6,3.3c0,1.4,0.5,2.5,1.5,3.4c1,0.9,2.2,1.4,3.7,1.4c1.4,0,2.7-0.5,3.8-1.4
	c1.1-0.9,1.6-2.1,1.6-3.4C167.2,116.7,166.6,115.5,165.5,114.6z"/>
<radialGradient id="SVGID_1_" cx="216.5025" cy="-212.7194" r="55.6141" gradientTransform="matrix(0.9604 1.178054e-02 -1.178521e-02 0.9577 18.7291 236.8306)" gradientUnits="userSpaceOnUse">
	<stop  offset="0.2528" style="stop-color:#FFF9C5"/>
	<stop  offset="0.3265" style="stop-color:#F5E9B2"/>
	<stop  offset="0.47" style="stop-color:#D4BF84"/>
	<stop  offset="0.6676" style="stop-color:#9C8044"/>
	<stop  offset="0.736" style="stop-color:#876B30"/>
	<stop  offset="0.7451" style="stop-color:#8D7030"/>
	<stop  offset="0.8043" style="stop-color:#B3912E"/>
	<stop  offset="0.861" style="stop-color:#D1AB23"/>
	<stop  offset="0.914" style="stop-color:#E6BD0F"/>
	<stop  offset="0.9618" style="stop-color:#F2C800"/>
	<stop  offset="1" style="stop-color:#F7CC00"/>
</radialGradient>
<path d="M278.7,42.1c-0.3-0.1-0.5-0.2-0.8-0.2c-0.8,0-1.5,0.4-2,0.9l-20-3.2l0,0l-8.6-18c0.1-0.1,0.2-0.3,0.2-0.5
	c0.2-0.4,0.3-0.8,0.3-1.2c0-1.5-1.2-2.7-2.7-2.8l0,0l0,0l0,0c-1.5,0-2.7,1.2-2.7,2.7c0,0.4,0.1,0.7,0.2,1.1c0.1,0.2,0.2,0.5,0.3,0.7
	l-9,17.7l0,0l-20.2,2.7c-0.4-0.8-1.3-1.3-2.2-1.3c-0.2,0-0.4,0-0.6,0.1c-1.4,0.1-2.6,1.2-2.6,2.7c0,1.5,1.2,2.7,2.7,2.8
	c0.5,0,1-0.1,1.4-0.4l14.4,14.4l0,0l-3.6,19.6c-0.9,0.4-1.5,1.3-1.5,2.3c0,0.2,0,0.4,0.1,0.7c0.1,1.4,1.3,2.4,2.7,2.4
	c1.5,0,2.7-1.2,2.8-2.7c0-0.1,0-0.2,0-0.3l17.3-8.8l0,0l17.6,9.5c0,0.6,0.2,1.2,0.6,1.6c0.5,0.8,1.3,1.4,2.4,1.4
	c1.5,0,2.7-1.2,2.8-2.7c0-1.1-0.7-2.1-1.7-2.5c-0.2-0.1-0.3-0.2-0.5-0.3l-3.2-19.8l0,0l14.4-13.7c0.4,0.3,0.9,0.4,1.4,0.4
	c1.5,0,2.7-1.2,2.8-2.7C281,43.5,280,42.3,278.7,42.1z M265.6,53.5L265.6,53.5l-6.8,11.4l0,0l-0.1-0.1l2,12.5l-14.7-8l-1.4-0.8
	l-1.5,0.7l-14.9,7.6l2.4-12.8l-0.8,0.4l0,0L223.1,53l0.1-0.1l1.5-0.8l-6.3-6.3l16.6-2.2l1.6-0.2l0.7-1.5L245,27l7.2,15.1l0.7,1.5
	l1.6,0.3l16.5,2.6l-6.7,6.4L265.6,53.5z"/>
<path d="M268.4,52.2l-1.6-0.9c-0.9-0.5-1.8-1-1.8-1c-6.2-3.5-13.4-5.4-20.5-5.5c-7.2-0.1-14.3,1.6-20.7,5c0,0-0.8,0.4-1.7,0.9l0,0
	l0,0l-0.1,0.1l-1.6,0.9l-0.6,0.3l0,0l0.3,0.6l0.9,1.6l6.5,11.5l1.1,2.1l0,0c0.6-0.3,0.4-0.2,1.4-0.7l0.8-0.4l1.7-0.9
	c3.6-1.9,7.7-2.9,11.8-2.8c4.1,0.1,8.1,1.1,11.7,3.1l1.6,0.9c0,0,0,0,0,0l1.5,0.8l0.6,0.3l0,0l0.3-0.6l0.9-1.5l6.7-11.3l0,0l0.9-1.6
	l0.3-0.6l0,0L268.4,52.2z M225.8,53.6c5.7-3,12.2-4.6,18.6-4.5c6.5,0.1,12.9,1.8,18.5,5c0,0,0.1,0,0.2,0.1c-1.3,2.2-3.7,6.2-5,8.3
	c-0.1-0.1-0.2-0.1-0.2-0.1c-4.2-2.3-8.9-3.6-13.7-3.6c-4.8-0.1-9.6,1.1-13.8,3.3l-0.2,0.1c-1.2-2.2-3.5-6.2-4.7-8.5
	C225.7,53.6,225.8,53.6,225.8,53.6z"/>
<path class="rodeodentalwst3" d="M1.3,45.6l12-3.2c11.2-3,17.8-0.8,19.7,6.6c1.3,5-0.5,9.1-5.3,12.3l14.8,13.1L32.8,77L19.2,65
	c-0.9,0.3-1.9,0.6-3,0.9L20,80.3l-8.9,2.3L1.3,45.6z M14.4,59l4.9-1.3c1.6-0.4,2.9-1.1,3.9-2.2c1.2-1.3,1.6-2.7,1.2-4.2
	c-0.7-2.7-3.3-3.5-7.8-2.4L12,50.2L14.4,59z M64.9,38.1c5.8,0,10.8,1.8,15,5.3c4.7,3.9,7,8.9,7,15c0,6.1-2.3,11.1-7,14.9
	c-4.2,3.4-9.2,5.2-14.9,5.2c-5.8,0-10.8-1.7-15.1-5.2c-4.7-3.8-7.1-8.8-7.1-15c0-3.8,1-7.2,3-10.3c1.9-3,4.6-5.4,8-7.2
	C57.2,39,60.9,38.1,64.9,38.1z M64.8,45.3c-3.8,0-7,1.1-9.6,3.4c-2.9,2.5-4.3,5.7-4.3,9.8c0,4.2,1.7,7.6,5.1,10.1
	c2.6,1.9,5.6,2.9,9,2.9c3.7,0,6.8-1.1,9.5-3.4c2.9-2.5,4.4-5.7,4.4-9.6c0-4-1.5-7.2-4.4-9.7C71.7,46.4,68.5,45.3,64.8,45.3z
	 M137.5,39.1h25.6v7.1h-16.7v7.7h12.8v7h-12.8v9.3h16.7v7.2h-25.6V39.1z M189.5,38.1c5.8,0,10.8,1.8,15,5.3c4.7,3.9,7,8.9,7,15
	c0,6.1-2.3,11.1-7,14.9c-4.2,3.4-9.2,5.2-14.9,5.2c-5.8,0-10.8-1.7-15.1-5.2c-4.7-3.8-7.1-8.8-7.1-15c0-3.8,1-7.2,3-10.3
	c1.9-3,4.6-5.4,8-7.2C181.9,39,185.6,38.1,189.5,38.1z M189.5,45.3c-3.8,0-7,1.1-9.6,3.4c-2.9,2.5-4.3,5.7-4.3,9.8
	c0,4.2,1.7,7.6,5.1,10.1c2.6,1.9,5.6,2.9,9,2.9c3.7,0,6.8-1.1,9.5-3.4c2.9-2.5,4.4-5.7,4.4-9.6c0-4-1.5-7.2-4.4-9.7
	C196.3,46.4,193.1,45.3,189.5,45.3z M93.6,39.2c3.6,0,7.2,0,10.7,0c4.6,0,9.4-0.1,13.7,1.6c3.8,1.4,7.2,3.9,9.5,7.3
	c2.1,3.1,3.2,6.7,3.2,10.9c0,6-2.3,10.8-6.8,14.3c-3.7,2.9-9,4.3-15.8,4.3H93.6V39.2z M102.5,46.2v24.2c5.4,0,11.3,0.8,15.8-3.1
	c4.5-4,5.6-11.4,2.4-16.5c-2.3-3.5-6.5-4.6-10.4-4.6H102.5z M283.5,38.8c3.6,0,7.2,0,10.7,0c4.6,0,9.2-0.2,13.6,1.5
	c3.8,1.5,7.2,3.9,9.6,7.3c2.1,3.1,3.2,6.7,3.2,10.9c0,6-2.3,10.8-6.8,14.3c-3.7,2.9-9,4.3-15.8,4.3h-14.6V38.8z M292.3,45.9V70
	c5.4,0,11.3,0.8,15.8-3.1c4.5-4,5.6-11.4,2.4-16.5c-2.3-3.5-6.5-4.6-10.4-4.6H292.3z M326.4,38.8H352V46h-16.7v7.7h12.8v7h-12.8V70
	H352v7.2h-25.6V38.8z M358.7,38.8h8.5l20.1,25.2V38.8h8.9v38.4h-8.6l-20-25.2v25.2h-8.9V38.8z M401.7,38.8h29.3V46h-10.1v31.2h-9.1
	V46h-10.1V38.8z M445,38.8h9l18,38.4h-9.3l-3.7-8.7H440l-3.8,8.7H427L445,38.8z M449.6,47.9l-6.2,13.2h12.5L449.6,47.9z M477.4,38.8
	h8.9v30.6h15.4V77l-24.3,0.2V38.8z"/>
<path class="rodeodentalwst0" d="M10.5,83.8L0.2,44.9l13-3.4c11.7-3.1,18.8-0.7,20.9,7.3c1.3,5-0.3,9.3-4.7,12.6l15.2,13.5l-12,3.2L19,66.1
	c-0.5,0.2-1.1,0.3-1.6,0.5L21.2,81L10.5,83.8z M2.5,46.3l9.3,35.2l7.1-1.9L15,65.2L16,65c1.1-0.3,2.1-0.6,3-0.8l0.5-0.2L33,75.9
	l7.5-2L26.2,61.2l1-0.7c4.5-3,6.2-6.6,4.9-11.2c-1.8-6.8-7.9-8.7-18.5-5.9L2.5,46.3z M189.6,79.3c-6,0-11.3-1.8-15.7-5.4
	c-5-4-7.5-9.3-7.5-15.7c0-3.9,1.1-7.6,3.2-10.8c2-3.1,4.8-5.6,8.4-7.5c3.5-1.8,7.4-2.8,11.5-2.8c6,0,11.2,1.8,15.6,5.5
	c4.9,4,7.3,9.3,7.3,15.7c0,6.4-2.5,11.6-7.3,15.6C200.8,77.5,195.5,79.3,189.6,79.3z M189.5,39.1c-3.8,0-7.4,0.9-10.7,2.6
	c-3.3,1.7-5.8,4-7.7,6.8c-1.9,2.9-2.9,6.2-2.9,9.8c0,5.9,2.2,10.6,6.8,14.3c4.1,3.3,8.9,5,14.5,5c5.5,0,10.3-1.7,14.3-4.9
	c4.5-3.7,6.6-8.3,6.6-14.1c0-5.9-2.2-10.6-6.6-14.3C199.9,40.8,195,39.1,189.5,39.1z M64.9,79.3c-6,0-11.3-1.8-15.7-5.4
	c-5-4-7.5-9.3-7.5-15.7c0-3.9,1.1-7.6,3.2-10.8c2-3.1,4.8-5.6,8.4-7.5c3.5-1.8,7.4-2.8,11.6-2.8c6,0,11.2,1.8,15.6,5.5
	c4.9,4,7.3,9.3,7.3,15.7c0,6.4-2.5,11.6-7.3,15.6C76.1,77.5,70.9,79.3,64.9,79.3z M64.9,39.1c-3.8,0-7.4,0.9-10.7,2.6
	c-3.3,1.7-5.8,4-7.7,6.8c-1.9,2.9-2.9,6.2-2.9,9.8c0,5.9,2.2,10.6,6.8,14.3c4.1,3.3,8.9,5,14.5,5c5.5,0,10.3-1.7,14.3-4.9
	c4.5-3.7,6.6-8.3,6.6-14.1c0-5.9-2.2-10.6-6.6-14.3C75.2,40.8,70.4,39.1,64.9,39.1z M108.3,78.5H92.7V38.3l12.6,0
	c4.4,0,8.9,0,13.1,1.6c4.1,1.6,7.6,4.3,9.9,7.6c2.2,3.2,3.4,7.1,3.4,11.4c0,6.3-2.4,11.4-7.1,15.1C120.7,77,115.2,78.5,108.3,78.5z
	 M94.6,76.6h13.7c6.5,0,11.6-1.4,15.2-4.1c4.3-3.3,6.4-7.8,6.4-13.6c0-4-1-7.4-3-10.4c-2.1-3-5.3-5.5-9-6.9
	c-3.9-1.5-8.3-1.5-12.5-1.5l-10.7,0V76.6z M164,78.4h-27.5V38.1H164v9h-16.7V53h12.8v8.9h-12.8v7.4H164V78.4z M138.5,76.5h23.7v-5.3
	h-16.7V60h12.8v-5.1h-12.8v-9.6h16.7V40h-23.7V76.5z M476.4,78.1V37.9h10.8v30.6h15.4v9.5L476.4,78.1z M478.3,39.8v36.4l22.4-0.2
	v-5.7h-15.4V39.8H478.3z M473.6,78.1h-11.4l-3.7-8.7h-17.9l-3.8,8.7h-11.4l18.9-40.3h10.2L473.6,78.1z M463.4,76.2h7.1l-17.1-36.5
	h-7.8l-17.2,36.5h7.1l3.8-8.7h20.4L463.4,76.2z M421.8,78.1h-11V47h-10.1v-9.1h31.2V47h-10.1V78.1z M412.8,76.2h7.2V45.1H430v-5.3
	h-27.4v5.3h10.1V76.2z M397.2,78.1h-10l-18.6-23.4v23.4h-10.8V37.9h9.9l18.7,23.5V37.9h10.8V78.1z M388.1,76.2h7.2V39.8h-7v27
	l-21.5-27h-7.1v36.5h7V49.3L388.1,76.2z M352.9,78.1h-27.5V37.9h27.5v9h-16.7v5.8H349v8.9h-12.8v7.4h16.7V78.1z M327.4,76.2H351V71
	h-16.7V59.8h12.8v-5.1h-12.8V45H351v-5.2h-23.7V76.2z M298.1,78.1h-15.6V37.9l12.8,0c4.2,0,8.6,0,12.8,1.6c4.2,1.6,7.7,4.2,10,7.7
	c2.2,3.2,3.4,7.1,3.4,11.4c0,6.3-2.4,11.4-7.1,15.1C310.6,76.6,305.1,78.1,298.1,78.1z M284.4,76.2h13.7c6.5,0,11.6-1.4,15.2-4.1
	c4.3-3.3,6.4-7.8,6.4-13.6c0-4-1-7.4-3-10.4c-2.1-3-5.4-5.5-9.1-7c-3.9-1.5-7.9-1.5-12.1-1.4l-10.9,0V76.2z M189.6,72.3
	c-3.5,0-6.8-1-9.6-3.1c-3.6-2.7-5.5-6.3-5.5-10.8c0-4.3,1.6-7.9,4.7-10.5c2.8-2.4,6.2-3.6,10.2-3.6c3.9,0,7.3,1.2,10.2,3.6
	c3.1,2.6,4.7,6.1,4.7,10.4c0,4.2-1.6,7.7-4.7,10.3C196.9,71.1,193.5,72.3,189.6,72.3z M189.5,46.2c-3.5,0-6.6,1.1-9,3.1
	c-2.7,2.3-4,5.2-4,9c0,3.9,1.5,7,4.7,9.3c2.5,1.8,5.3,2.7,8.4,2.7c3.4,0,6.4-1.1,8.9-3.2c2.7-2.3,4-5.2,4-8.9c0-3.7-1.3-6.6-4.1-8.9
	C195.9,47.3,192.9,46.2,189.5,46.2z M64.9,72.3c-3.5,0-6.8-1-9.6-3.1c-3.6-2.7-5.5-6.3-5.5-10.8c0-4.3,1.6-7.9,4.7-10.5
	c2.8-2.4,6.2-3.6,10.2-3.6c3.9,0,7.3,1.2,10.2,3.6c3.1,2.6,4.7,6.1,4.7,10.4c0,4.2-1.6,7.7-4.7,10.3C72.2,71.1,68.8,72.3,64.9,72.3z
	 M64.8,46.2c-3.5,0-6.6,1.1-9,3.1c-2.7,2.3-4,5.2-4,9c0,3.9,1.5,7,4.7,9.3c2.5,1.8,5.3,2.7,8.4,2.7c3.4,0,6.4-1.1,8.9-3.2
	c2.7-2.3,4-5.2,4-8.9c0-3.7-1.3-6.6-4.1-8.9C71.2,47.3,68.2,46.2,64.8,46.2z M107.5,71.4c-0.8,0-1.7,0-2.5,0c-0.8,0-1.6,0-2.4,0h-1
	V45.3h8.6c3.7,0,8.6,0.9,11.2,5c3.5,5.5,2.4,13.4-2.5,17.7C115.6,71,111.5,71.4,107.5,71.4z M103.5,69.5c0.5,0,1,0,1.5,0
	c4.7,0.1,9.2,0.2,12.7-2.9c4.2-3.7,5.2-10.6,2.2-15.3c-2.2-3.4-6.5-4.2-9.6-4.2h-6.7V69.5z M297.3,71.1c-0.8,0-1.7,0-2.5,0
	c-0.8,0-1.6,0-2.4,0h-1V44.9h8.6c3.7,0,8.6,0.9,11.2,5c3.5,5.5,2.4,13.4-2.5,17.7C305.4,70.6,301.4,71.1,297.3,71.1z M293.3,69.1
	c0.5,0,1,0,1.5,0c4.7,0.1,9.2,0.2,12.7-2.9c4.2-3.7,5.2-10.6,2.2-15.3c-2.2-3.4-6.5-4.2-9.6-4.2h-6.7V69.1z M457.3,62.1h-15.5
	l7.7-16.4L457.3,62.1z M444.9,60.2h9.5l-4.7-10L444.9,60.2z M13.7,60.2l-2.8-10.7l5.5-1.5c6.3-1.7,8.3,0.7,9,3
	c0.5,1.9,0,3.7-1.5,5.2c-1.1,1.2-2.6,2-4.3,2.5L13.7,60.2z M13.2,50.8l1.9,7l4-1.1c1.4-0.4,2.6-1,3.5-1.9c1-1,1.3-2.1,1-3.3
	c-0.2-0.8-0.8-3.2-6.6-1.7L13.2,50.8z"/>
</svg>
