<?xml version="1.0" encoding="utf-8"?>
<!-- Generator: Adobe Illustrator 24.1.2, SVG Export Plug-In . SVG Version: 6.00 Build 0)  -->
<svg version="1.1" id="svg14019" xmlns:svg="http://www.w3.org/2000/svg"
	 xmlns="http://www.w3.org/2000/svg" xmlns:xlink="http://www.w3.org/1999/xlink" x="0px" y="0px" viewBox="0 0 1024 612"
	 style="enable-background:new 0 0 1024 612;" xml:space="preserve">
<g>
	<path d="M18.9,114.4c0.5-0.2,53.5-18,140.6-35.7C240,62.4,366.8,43,514.2,43c147.5,0,273.1,19.5,352.5,35.8
		c86.1,17.7,137.9,35.6,138.4,35.8c0.1,0,0.3,0.1,0.4,0.1c0.5,0,1-0.3,1.2-0.8c0.2-0.6,0-1.3-0.6-1.6c-0.5-0.2-53.7-24.1-140.5-47.6
		c-80.1-21.7-206-47.5-351.2-47.5C369.2,17.3,242,43,160.8,64.6C72.9,88.1,18.5,111.8,18,112.1c-0.6,0.3-0.9,1-0.7,1.6
		C17.6,114.3,18.3,114.6,18.9,114.4z"/>
	<path d="M1005.1,497.3c-0.5,0.2-52.3,18.1-138.4,35.9c-79.4,16.4-205,35.9-352.4,35.9C366.8,569,240,549.6,159.6,533.3
		c-87.2-17.6-140.1-35.5-140.7-35.7c-0.6-0.2-1.3,0.1-1.6,0.7c-0.2,0.6,0,1.3,0.7,1.6c0.5,0.2,54.9,24,142.8,47.4
		c81.1,21.6,208.3,47.4,353.5,47.4c145.1,0,271.1-25.9,351.2-47.5c86.8-23.5,140-47.3,140.5-47.6c0.6-0.3,0.9-1,0.6-1.6
		C1006.4,497.4,1005.7,497.1,1005.1,497.3z"/>
</g>
<path id="path4790" d="M899.4,320.4l-35.5-67.6l-36,67.6H899.4z M952,372.4h-25.3l-16.1-31.2h-93.9l-16.1,31.2h-25.3L849.1,233h29.1
	L952,372.4L952,372.4z M692.5,351.6c13.9,0,25.3-4.5,34.2-13.4c8.9-9,13.4-20.5,13.4-34.5c0-14.9-4.8-27-14.3-36.2
	c-9.6-9.1-22.1-13.7-37.7-13.7h-67v97.9L692.5,351.6L692.5,351.6z M686.1,233c24.3,0,43.5,6.5,57.7,19.4s21.3,30.2,21.3,51.9
	c0,19.9-7.5,36.5-22.5,49.7c-14,12.3-31.3,18.5-52,18.5h-92.7V233H686.1L686.1,233z M518.2,320.4l-35.5-67.6l-36,67.6H518.2z
	 M570.8,372.4h-25.3l-16.1-31.2h-93.9l-16.1,31.2h-25.3L467.9,233H497L570.8,372.4z M408,253.8h-66.7v118.7h-23.1V253.8h-66.6V233
	H408V253.8L408,253.8z M210.9,265.7c-20.7-10.5-41.7-15.8-63.2-15.8c-14.3,0-25.2,1.7-32.8,5c-7.6,3.3-11.4,8-11.4,13.9
	c0,6.2,4,10.7,12.1,13.5c5.8,2,15.2,3.5,28.3,4.2c19.3,1.3,32,2.3,38.1,3.1c17.5,2.3,30.4,6.6,38.7,12.9s12.5,15.2,12.5,26.8
	c0,14.8-6.6,26.2-19.6,34.3c-13.1,8.1-31.9,12.1-56.4,12.1c-35.6,0-63.2-7.8-83-23.5L87,335.4c21.8,13.4,45.3,20,70.5,20
	c16.3,0,29-2.3,37.9-6.7c8.6-4.4,12.9-10.3,12.9-17.9c0-8.9-5.7-14.8-17-17.7c-5.9-1.5-21.8-3.1-47.8-4.8c-23-1.5-39.1-4.6-48.4-9.2
	c-10.8-5.4-16.2-14.4-16.2-27.2c0-13.1,6.1-23.4,18.4-31s29.6-11.4,51.9-11.4c30.1,0,55.2,6.9,75.5,20.6L210.9,265.7L210.9,265.7z"
	/>
</svg>
