<?xml version="1.0" encoding="utf-8"?>
<!-- Generator: Adobe Illustrator 24.1.2, SVG Export Plug-In . SVG Version: 6.00 Build 0)  -->
<svg version="1.1"
	 id="svg30353" xmlns:cc="http://creativecommons.org/ns#" xmlns:dc="http://purl.org/dc/elements/1.1/" xmlns:inkscape="http://www.inkscape.org/namespaces/inkscape" xmlns:rdf="http://www.w3.org/1999/02/22-rdf-syntax-ns#" xmlns:sodipodi="http://sodipodi.sourceforge.net/DTD/sodipodi-0.dtd" xmlns:svg="http://www.w3.org/2000/svg"
	 xmlns="http://www.w3.org/2000/svg" xmlns:xlink="http://www.w3.org/1999/xlink" x="0px" y="0px" viewBox="0 0 233.9 29.3"
	 style="enable-background:new 0 0 233.9 29.3;" xml:space="preserve">
<style type="text/css">
	.tifluidwst0{opacity:0.5;}
</style>
<path d="M46.1,5.7v2h-4.8V24H39V7.7h-4.8v-2H46.1z M51.6,24h-2.3V5.7h2.3V24z M61.4,24V5.7h9.1v2h-6.7v5.9h6.4v2h-6.4V24L61.4,24z
	 M75.1,24h-2.1V5.7h2.1V24z M85.3,11.2h2.1v10.1c0,0.9,0,1.8,0.1,2.7h-2.2v-1.5h-0.1c-0.7,1.2-1.9,1.8-3.2,1.8
	c-2.2,0-3.4-1.1-3.4-3.3v-9.7h2.1V20c0,1.5,0.7,2.6,2.2,2.6c1.1,0,2.5-0.8,2.5-3L85.3,11.2z M93,24h-2.1V11.2H93V24z M90.8,5.7h2.3
	v2.2h-2.3V5.7z M100.7,12.6c-2.2,0-2.5,1.8-2.5,5.2c0,1.9,0,4.7,2.6,4.7c2.3,0,2.3-2.9,2.3-5.5C103.1,15.3,103,12.6,100.7,12.6
	 M103.1,5.7h2.1V24h-2.1v-1.5h-0.1c-0.7,1.2-1.6,1.8-2.9,1.8c-2,0-4.1-0.8-4.1-6.4c0-3.2,0.1-6.9,4.2-6.9c1.2,0,2.1,0.5,2.8,1.5h0.1
	L103.1,5.7z M116.7,18.5V19c0,2.5,1.6,3.3,3.1,3.3c1.8,0,3.3-0.8,3.3-3c0-4.1-8.2-3.6-8.2-9.1c0-3.2,2.3-5,5.4-5
	c3.3,0,5.2,1.6,5.1,5.3h-2.4c0-2-0.6-3.3-2.8-3.3c-1.4,0-2.8,0.7-2.8,2.7c0,4,8.2,3.4,8.2,9.2c0,3.8-2.7,5.1-5.7,5.1
	c-5.4,0-5.4-4.1-5.3-5.8L116.7,18.5z M132.9,21.6L132.9,21.6l3.1-10.4h2.2l-5.8,17.6h-2.2l1.4-4.8l-4.3-12.8h2.4L132.9,21.6z
	 M144.1,24.2c-2.8,0-4.5-1.2-4.4-4.2h2.4c0,0.7,0,2.5,2.1,2.5c1.2,0,2.2-0.6,2.2-1.9c0-2.3-6.4-2.3-6.4-6.2c0-1.3,0.8-3.5,4.4-3.5
	c2.3,0,4.2,1.1,4.1,3.6h-2.3c0-1.3-0.7-2.1-2-2.1c-1.1,0-2,0.6-2,1.7c0,2.3,6.4,2.2,6.4,6.1C148.6,23.1,146.7,24.2,144.1,24.2
	 M152.4,11.2V8.7l2.1-0.9v3.4h2.8v1.6h-2.8v7.8c0,0.8,0,1.8,1.9,1.8c0.2,0,0.5-0.1,0.9-0.1v1.6c-0.7,0.1-1.4,0.2-2.1,0.2
	c-2,0-2.9-0.8-2.9-2.3v-9.1h-2.1v-1.6L152.4,11.2z M166.3,16.7c0-3.7-1-4.2-2.6-4.2c-1.3,0-2.4,0.6-2.4,4.2H166.3z M161.4,18.2
	c0,3.6,1,4.3,2.6,4.3c1.4,0,2.2-1.1,2.2-2.4h2.3c0,2.8-1.8,4.1-4.5,4.1c-2.7,0-4.9-0.8-4.9-6.5c0-3.7,0.4-6.8,4.9-6.8
	c3.6,0,4.6,2,4.6,6.2v1.1L161.4,18.2z M178,24v-8.9c0-1.3-0.4-2.5-2-2.5c-0.6,0-1.5,0.4-1.8,0.9c-0.4,0.6-0.5,1.4-0.5,1.9V24h-2.1
	V13.8c0-0.9-0.1-1.8-0.1-2.7h2.2v1.6h0c0.6-1.4,1.7-1.8,3.2-1.8c1.2,0,2.5,0.5,3,1.6c0.7-1.4,1.9-1.6,3-1.6c1.3,0,3.5,0.3,3.5,3.3
	V24h-2.1v-8.9c0-1.3-0.4-2.5-2-2.5c-0.8,0-1,0-1.6,0.5c-0.6,0.5-0.7,1.8-0.7,2.3V24L178,24z M193.7,24.2c-2.8,0-4.5-1.2-4.4-4.2h2.4
	c0,0.7,0,2.5,2.1,2.5c1.2,0,2.2-0.6,2.2-1.9c0-2.3-6.4-2.3-6.4-6.2c0-1.3,0.8-3.5,4.4-3.5c2.3,0,4.2,1.1,4,3.6h-2.3
	c0-1.3-0.7-2.1-2-2.1c-1.1,0-2,0.6-2,1.7c0,2.3,6.4,2.2,6.4,6.1C198.1,23.1,196.2,24.2,193.7,24.2 M213.9,17.3c0-1.9,0-4.7-2.6-4.7
	c-2.6,0-2.3,3.5-2.3,5.5c0,1.7,0.1,4.4,2.4,4.4C213.6,22.5,213.9,20.8,213.9,17.3 M209,12.7L209,12.7c0.8-1.2,1.6-1.8,3-1.8
	c2,0,4.1,0.8,4.1,6.4c0,3.2-0.1,6.9-4.2,6.9c-1.2,0-2.1-0.5-2.8-1.5H209v6.1h-2.1V11.2h2.1L209,12.7z M221.3,24h-2.1V5.7h2.1V24z
	 M231.2,15.3c0-2.1-1-2.7-1.8-2.7c-1.6,0-2.7,0.8-2.7,4.3c0,4.2,0.5,5.6,2.7,5.6c0.5,0,1.9-0.5,1.8-2.8h2.2c0.1,3.6-2.6,4.5-4,4.5
	c-2.7,0-4.9-0.8-4.9-6.5c0-3.7,0.4-6.8,4.9-6.8c2.6,0,4.1,1.5,3.9,4.4H231.2z"/>
<path id="path29971" inkscape:connector-curvature="0" class="tifluidwst0" d="M24.2,4.6C19.7,0,12.7-0.7,7.4,2.4c1.2-0.3,2.5,0,3.4,0.9
	c0,0,0,0,0,0v0c1.3,1.3,1.4,3.3,0.3,4.6c2.7-1.4,6.1-0.9,8.4,1.3c2.8,2.8,2.8,7.4,0,10.3c-0.2,0.2-0.3,0.3-0.5,0.4
	c0.1,0,0.2-0.1,0.3-0.1c1.1-0.3,2.6-0.3,4.8-1.2c0.5-0.2,1-0.4,1.4-0.7v0l0,0l0,0v0c-0.2,0.4-0.5,0.9-0.7,1.4
	c-1,2.2-0.9,3.7-1.2,4.8c-0.1,0.4-0.3,0.7-0.4,1c0.4-0.3,0.7-0.6,1-0.9C29.6,18.8,29.6,10,24.2,4.6"/>
<path id="path29975" inkscape:connector-curvature="0" d="M17.7,25.8C17.7,25.8,17.7,25.8,17.7,25.8L17.7,25.8
	c-1.3-1.4-1.4-3.5-0.1-4.9c-2.7,1.3-6.1,0.9-8.4-1.4c-2.8-2.8-2.8-7.4,0-10.3c0.1-0.1,0.1-0.1,0.2-0.2c-0.1,0-0.1,0-0.2,0.1
	c-1.1,0.3-2.6,0.3-4.8,1.2c-0.5,0.2-1,0.4-1.4,0.7v0v0c0.2-0.4,0.5-0.9,0.7-1.4c1-2.2,0.9-3.7,1.2-4.8c0.1-0.4,0.3-0.8,0.5-1.1
	C5.1,4,4.8,4.3,4.6,4.6c-5.4,5.4-5.4,14.2,0,19.7c4.4,4.4,11,5.2,16.2,2.5C19.7,26.9,18.6,26.6,17.7,25.8"/>
</svg>
