<?xml version="1.0" encoding="utf-8"?>
<!-- Generator: Adobe Illustrator 24.1.0, SVG Export Plug-In . SVG Version: 6.00 Build 0)  -->
<svg version="1.1" id="Layer_1" xmlns="http://www.w3.org/2000/svg" xmlns:xlink="http://www.w3.org/1999/xlink" x="0px" y="0px"
	 viewBox="0 0 463.8 91" style="enable-background:new 0 0 463.8 91;" xml:space="preserve">
<style type="text/css">
	.usrcst0{fill-rule:evenodd;clip-rule:evenodd;}
	.usrcst1{opacity:0.5;}
</style>
<path class="usrcst0" d="M208.2,26h-8.7l-12.4,33.6h9l1.7-5.3h12.4l1.7,5.3h9L208.2,26z M199.8,48.1l4.1-13.9l4.2,13.9H199.8z
	 M222.4,59.6h21.5v-7.1h-13.1V26h-8.4V59.6z M157.2,59.6h7.6V38.4l12.4,21.2h8.4V26H178v21.5L165.7,26h-8.5V59.6z M154.7,59.6v-6.5
	h-17.8v-7.9h15.3v-6.6h-15.3v-6.1h16.3V26h-24.7v33.6H154.7z M118.4,46.1c4.1-1.1,7-4.8,7-9.1c0-7.6-4.6-11.1-12.2-11.1H96.3v33.6
	h8.4v-12h5.3l6.6,12.1h9.4L118.4,46.1z M112.4,41.3h-7.7v-9.1h7.7c2.7,0,4.5,1.4,4.5,4.5S115.1,41.2,112.4,41.3z"/>
<path class="usrcst1" d="M55.2,39.5c-7.6-1.4-8.9-2.2-8.9-6c0-3.9,2.4-6.4,6.2-6.4c7.7,0,8.8,7.3,9,9.6c0,0.3,0.2,0.5,0.5,0.5h0.7
	c0.3,0,0.5-0.2,0.5-0.5V27c0-0.3-0.2-0.5-0.5-0.5H62c-0.2,0-0.4,0.2-0.5,0.4v0.2c-0.2,0.8-0.3,1.2-0.8,1.2c-0.6-0.1-1.2-0.4-1.7-0.8
	c-1.9-1.3-4.2-2-6.5-2c-5.4,0-9.2,4-9.2,9.6c0,8,3.6,9.4,11.1,10.6c5.7,0.9,7.4,2.4,7.4,6.6c0,3.8-2.9,6.5-7.1,6.5
	c-4.7,0-9.6-2.9-9.6-10.9c0-0.3-0.2-0.5-0.5-0.5h-0.7c-0.3,0-0.5,0.2-0.5,0.5v11.7c0,0.3,0.2,0.5,0.5,0.5h0.7c0.3,0,0.5-0.2,0.5-0.5
	c0-1.2,0.2-1.5,0.7-1.5c0.7,0.1,1.5,0.4,2.1,0.7c2.1,1.1,4.3,1.6,6.7,1.7c6.5,0,10.5-4.3,10.5-11.1C65.2,42.6,61.5,40.6,55.2,39.5z
	 M69.5,54c-1.9,0-3.5,1.6-3.5,3.5s1.6,3.5,3.5,3.5s3.5-1.6,3.5-3.5C73,55.5,71.4,54,69.5,54L69.5,54z M33.9,27.4v-0.7
	c0-0.3-0.2-0.5-0.5-0.5H22.7c-0.3,0-0.5,0.2-0.5,0.5v0.7c0,0.3,0.2,0.5,0.5,0.5h2.6c1.7,0,2.3,0.4,2.3,2.7v18.7
	c0,7.9-5.5,9.5-10.1,9.5c-3.7,0-7.4-2.2-7.4-7.1V27.9h4.4c0.3,0,0.5-0.2,0.5-0.5v-0.7c0-0.3-0.2-0.5-0.5-0.5h-14
	c-0.3,0-0.5,0.2-0.5,0.5v0.7c0,0.3,0.2,0.5,0.5,0.5h3.9v22.9c0,8.5,6.6,9.7,13.1,9.7c7.4,0,11.8-4,11.8-10.7V30.6
	c0-2.3,0.5-2.7,2-2.7h2.1C33.7,27.9,33.9,27.7,33.9,27.4z M35.3,54c-1.9,0-3.5,1.6-3.5,3.5s1.6,3.5,3.5,3.5l0,0
	c1.9,0,3.5-1.6,3.5-3.5C38.9,55.5,37.3,54,35.3,54z M69.2,0h14c0.3,0,0.6,0.3,0.6,0.6v82.3h10.9c0.3,0,0.6,0.3,0.6,0.6
	s-0.3,0.6-0.6,0.6l0,0H83.2c-0.3,0-0.6-0.3-0.6-0.6V1.2H69.2c-0.3,0-0.6-0.3-0.6-0.6S68.9,0,69.2,0z M279.2,26.8h-0.7
	c-0.3,0-0.5,0.2-0.5,0.5c0,1.3-0.6,1.5-1.2,1.5c-0.7-0.2-1.4-0.5-1.9-1c-1.9-1.5-4.2-2.3-6.6-2.4c-8.2,0-15.1,8-15.1,17.5
	s6.9,17.5,15.1,17.5c2.6-0.1,5-1,7-2.7c0.5-0.4,1-0.7,1.6-0.9c0.7,0,1.1,1.1,1.1,1.8c0,0.3,0.2,0.5,0.5,0.5h0.7
	c0.3,0,0.5-0.2,0.5-0.5v-11c0-0.3-0.2-0.5-0.5-0.5h-0.7c-0.3,0-0.5,0.2-0.5,0.5c0,5.2-4,11-9.7,11c-7.3,0-8.9-8.6-8.9-15.8
	s1.5-15.8,8.9-15.8c5.2,0,9.7,4.7,9.7,10.1c0,0.3,0.2,0.5,0.5,0.5h0.7c0.3,0,0.5-0.2,0.5-0.5v-9.9C279.7,27,279.5,26.8,279.2,26.8z
	 M313,58h-3.5l-11.1-32.3c-0.1-0.2-0.3-0.3-0.5-0.3h-0.5c-0.2,0-0.4,0.1-0.5,0.3l-10,29.9c-0.8,2.4-1.2,2.4-2.4,2.4H283
	c-0.3,0-0.5,0.2-0.5,0.5v0.7c0,0.3,0.2,0.5,0.5,0.5l0,0h9.5c0.3,0,0.5-0.2,0.5-0.5v-0.7c0-0.3-0.2-0.5-0.5-0.5h-2.4
	c-0.5,0-1.5-0.1-1.5-0.7c0.1-0.9,0.3-1.8,0.7-2.7l1.8-5.5h9.2l3,8.8h-3.8c-0.3,0-0.5,0.2-0.5,0.5v0.7c0,0.3,0.2,0.5,0.5,0.5H313
	c0.3,0,0.5-0.2,0.5-0.5v-0.7C313.5,58.3,313.3,58,313,58L313,58z M291.7,47.5l3.9-12.1l4.1,12.1H291.7z M344.5,58.1
	c-0.1-0.2-0.4-0.3-0.6-0.3l-0.1,0.1c-0.5,0.2-1,0.4-1.6,0.4c-0.5,0-1.6,0-1.9-2.5l-0.6-5.6c-0.6-5.1-2.7-7-6.5-7.8
	c3.6-0.9,7.5-2.9,7.5-7.5c0-8.7-8.7-8.7-11.6-8.7h-14.2c-0.3,0-0.5,0.2-0.5,0.5v0.7c0,0.3,0.2,0.5,0.5,0.5h4.1V58h-4.1
	c-0.3,0-0.5,0.2-0.5,0.5v0.7c0,0.3,0.2,0.5,0.5,0.5H329c0.3,0,0.5-0.2,0.5-0.5v-0.7c0-0.3-0.2-0.5-0.5-0.5h-4.2V43.4h2.5
	c4.9,0,5.6,2.4,5.9,5.1l0.3,2.9c0.6,5.2,1.1,8.7,7.1,8.7c1.3,0,2.7-0.2,4-0.6c0.1,0,0.2-0.1,0.3-0.3c0.1-0.1,0.1-0.3,0-0.4
	L344.5,58.1z M324.7,27.9h2.7c6.5,0,7.3,3.7,7.3,7c0,4.7-2.5,6.8-8.2,6.8h-1.8V27.9z M374.6,49.3h-0.7c-0.3,0-0.5,0.2-0.5,0.5
	c0,7.5-3.2,8.3-10.6,8.3h-5.9V43.6h2.9c4.4,0,4.8,1.7,4.8,5.2c0,0.3,0.2,0.5,0.5,0.5h0.7c0.3,0,0.5-0.2,0.5-0.5V36.4
	c0-0.3-0.2-0.5-0.5-0.5h-0.7c-0.3,0-0.5,0.2-0.5,0.5c0,2.9-0.4,5.4-4.8,5.4h-3V27.9h6.8c5.3,0,7.9,2.2,7.9,6.6
	c0,0.3,0.2,0.5,0.5,0.5h0.8c0.3,0,0.5-0.2,0.5-0.5c0-0.1,0-0.1,0-0.2l-0.5-7.7c0-0.3-0.2-0.5-0.5-0.5h-24.7c-0.3,0-0.5,0.2-0.5,0.5
	v0.7c0,0.3,0.2,0.5,0.5,0.5h3.6V58h-3.6c-0.3,0-0.5,0.2-0.5,0.5v0.7c0,0.3,0.2,0.5,0.5,0.5h27c0.3,0,0.5-0.2,0.5-0.5v-9.5
	C375.1,49.5,374.8,49.3,374.6,49.3z M379.2,26.8L379.2,26.8c0.4-0.1,0.7-0.5,0.7-0.9c0-0.3-0.1-0.6-0.3-0.8
	c-0.3-0.2-0.7-0.3-1.2-0.3c-0.4,0-0.7,0-1.1,0.1v3.7h0.6V27h0.4c0.4-0.1,0.7,0.2,0.8,0.6c0,0,0,0,0,0.1c0,0.3,0.1,0.6,0.3,0.9h0.6
	c-0.1-0.3-0.2-0.6-0.2-0.9C379.8,27.1,379.6,26.8,379.2,26.8z M378.4,26.5H378v-1.3c0.1,0,0.3,0,0.4,0c0.7,0,0.9,0.3,0.9,0.6
	C379.3,26.4,378.9,26.5,378.4,26.5L378.4,26.5z M378.7,23.3L378.7,23.3c-1.8,0-3.3,1.5-3.3,3.3s1.5,3.3,3.3,3.3s3.3-1.5,3.3-3.3
	C381.9,24.8,380.5,23.3,378.7,23.3z M378.7,29.5c-1.6-0.1-2.8-1.4-2.7-3c0.1-1.4,1.2-2.6,2.7-2.7l0,0c1.6,0.1,2.7,1.4,2.7,3
	C381.2,28.3,380.1,29.4,378.7,29.5z M105.8,78.2h3.9c2.3,0,3.9,1.2,3.9,3.3l0,0c0,2.2-1.9,3.4-4.1,3.4H107v3.7h-1.2V78.2z
	 M109.6,83.9c1.7,0,2.8-0.9,2.8-2.3l0,0c0-1.5-1.1-2.2-2.8-2.2H107V84L109.6,83.9L109.6,83.9z M115,84.8L115,84.8c0-2.2,1.8-4,4-4
	s4,1.8,4,4l0,0c0,2.2-1.8,4-3.9,4c0,0,0,0-0.1,0C116.8,88.8,115,87.1,115,84.8C115,84.9,115,84.8,115,84.8z M121.8,84.8L121.8,84.8
	c0.1-1.6-1.2-3-2.8-3l0,0c-1.6,0-2.8,1.3-2.8,2.8v0.1l0,0c-0.1,1.6,1.2,2.9,2.8,3c0,0,0,0,0.1,0C120.7,87.7,121.9,86.4,121.8,84.8
	C121.8,84.9,121.8,84.8,121.8,84.8z M124,80.9h1.2l2,6.1l2.1-6.2h0.9l2.1,6.2l2-6.1h1.2l-2.7,7.7h-1l-2.1-6l-2.1,6h-1L124,80.9z
	 M136.6,84.8L136.6,84.8c-0.1-2.1,1.5-3.9,3.6-4h0.1c2.3,0,3.6,1.8,3.6,4c0,0.1,0,0.2,0,0.4h-6.1c0,1.5,1.2,2.6,2.7,2.6
	c0.9,0,1.8-0.4,2.4-1.1l0.7,0.6c-0.8,0.9-1.9,1.5-3.2,1.4C138.3,88.7,136.6,87,136.6,84.8C136.5,84.9,136.5,84.8,136.6,84.8z
	 M142.6,84.3c0-1.4-1-2.6-2.4-2.6l0,0c-1.4,0.1-2.5,1.2-2.5,2.6H142.6z M145.8,80.9h1.1v2c0.5-1.3,1.7-2.2,3.1-2.1V82h0
	c-1.7,0-3,1.2-3,3.5v3h-1.1L145.8,80.9z M151,84.8L151,84.8c-0.1-2.1,1.5-3.9,3.6-4h0.1c2.3,0,3.6,1.8,3.6,4c0,0.1,0,0.2,0,0.4h-6.1
	c0,1.5,1.2,2.6,2.7,2.6c0.9,0,1.8-0.4,2.4-1.1l0.7,0.6c-0.8,0.9-1.9,1.5-3.2,1.4C152.7,88.7,151,87,151,84.8L151,84.8z M157.1,84.3
	c0-1.4-1-2.6-2.4-2.6l0,0c-1.4,0.1-2.5,1.2-2.5,2.6H157.1z M159.8,84.8L159.8,84.8c-0.1-2.1,1.4-3.9,3.5-4h0.1
	c1.2,0,2.3,0.6,2.9,1.6v-4.6h1.1v10.8h-1.1V87c-0.6,1-1.7,1.7-2.9,1.7C161.3,88.7,159.7,87,159.8,84.8
	C159.8,84.9,159.8,84.8,159.8,84.8z M166.4,84.8L166.4,84.8c0.1-1.6-1.2-2.9-2.7-3l0,0c-1.5,0-2.7,1.2-2.7,2.7c0,0.1,0,0.2,0,0.2
	l0,0c-0.1,1.5,1,2.8,2.6,3h0.1C165.2,87.7,166.5,86.4,166.4,84.8L166.4,84.8z M175.6,87.1v1.5h-1.1V77.8h1.1v4.7
	c0.6-1,1.7-1.7,2.9-1.7c2.1,0,3.7,1.7,3.7,3.8c0,0.1,0,0.1,0,0.2l0,0c0.1,2.1-1.4,3.8-3.5,4c-0.1,0-0.1,0-0.2,0
	C177.4,88.7,176.3,88.1,175.6,87.1z M181.1,84.8L181.1,84.8c0.1-1.5-1-2.9-2.5-3c-0.1,0-0.1,0-0.2,0c-1.6,0-2.8,1.4-2.8,2.9l0,0l0,0
	c-0.1,1.6,1.2,2.9,2.7,3l0,0c1.5,0,2.7-1.2,2.7-2.7C181.1,84.9,181.1,84.9,181.1,84.8z M189.7,80.9h1.2l-3.2,7.9
	c-0.6,1.6-1.4,2.2-2.5,2.2c-0.6,0-1.1-0.1-1.6-0.4l0.4-0.9c0.4,0.2,0.8,0.3,1.2,0.3c0.7,0,1.1-0.4,1.6-1.4l-3.5-7.6h1.3l2.8,6.4
	L189.7,80.9z M197.3,78.2h3.9c2.3,0,3.9,1.2,3.9,3.3l0,0c0,2.2-1.9,3.4-4.1,3.4h-2.5v3.7h-1.2L197.3,78.2L197.3,78.2z M201.1,83.9
	c1.7,0,2.8-0.9,2.8-2.3l0,0c0-1.5-1.1-2.2-2.8-2.2h-2.6V84L201.1,83.9L201.1,83.9z M207,77.8h1.1v4.5c0.5-1,1.5-1.5,2.6-1.5
	c1.5-0.1,2.9,1.1,2.9,2.6c0,0.1,0,0.3,0,0.4v4.8h-1.1v-4.5c0.1-1.1-0.6-2.1-1.7-2.3c-0.1,0-0.2,0-0.4,0c-1.2,0-2.3,1-2.3,2.2
	c0,0.1,0,0.1,0,0.2v4.4H207V77.8z M221.7,80.9h1.2l-3.2,7.9c-0.6,1.6-1.4,2.2-2.5,2.2c-0.6,0-1.1-0.1-1.6-0.4l0.4-0.9
	c0.4,0.2,0.8,0.3,1.2,0.3c0.7,0,1.1-0.4,1.6-1.4l-3.5-7.6h1.3l2.8,6.4L221.7,80.9z M223.8,87.6l0.6-0.8c0.8,0.6,1.7,0.9,2.6,1
	c0.9,0,1.6-0.5,1.6-1.2l0,0c0-0.8-0.9-1.1-1.9-1.3c-1.2-0.3-2.5-0.8-2.5-2.2l0,0c0.1-1.3,1.1-2.3,2.4-2.2c0.1,0,0.1,0,0.2,0
	c1,0,1.9,0.3,2.8,0.8l-0.5,0.9c-0.7-0.5-1.5-0.7-2.3-0.7c-0.9,0-1.5,0.5-1.5,1.1l0,0c0,0.7,0.9,1,2,1.3c1.2,0.4,2.5,0.8,2.5,2.2l0,0
	c0,1.5-1.2,2.3-2.7,2.3C225.8,88.7,224.7,88.3,223.8,87.6z M231.8,78h1.3v1.3h-1.3V78z M231.9,80.9h1.1v7.7h-1.1V80.9z M235.2,84.8
	L235.2,84.8c0-2.2,1.8-4,4-4c1.2,0,2.2,0.5,3,1.4l-0.8,0.8c-0.6-0.7-1.4-1.1-2.3-1.2c-1.6,0-2.8,1.3-2.7,2.9c0,0,0,0,0,0.1l0,0
	c-0.1,1.6,1.2,2.9,2.7,3c0,0,0,0,0.1,0c0.9,0,1.8-0.4,2.3-1.1l0.7,0.7c-1.4,1.7-3.9,2-5.6,0.6C235.7,87.1,235.2,86,235.2,84.8
	L235.2,84.8z M244.1,78h1.3v1.3h-1.3V78z M244.2,80.9h1.1v7.7h-1.1V80.9z M247.4,86.4L247.4,86.4c0-1.6,1.3-2.5,3.3-2.5
	c0.8,0,1.6,0.1,2.4,0.3v-0.3c0-1.4-0.8-2.1-2.3-2.1c-0.8,0-1.6,0.2-2.3,0.6l-0.3-0.9c0.9-0.4,1.8-0.6,2.8-0.6
	c0.9-0.1,1.8,0.2,2.5,0.8c0.6,0.6,0.8,1.4,0.8,2.2v4.7H253v-1.2c-0.7,0.9-1.7,1.3-2.8,1.3C248.9,88.7,247.4,87.9,247.4,86.4z
	 M253.1,85.8V85c-0.7-0.2-1.5-0.3-2.2-0.3c-1.4,0-2.2,0.6-2.2,1.6l0,0c0,1,0.9,1.5,1.9,1.5C251.8,88,252.9,87.1,253.1,85.8
	L253.1,85.8z M256.6,80.9h1.1v1.3c0.5-1,1.5-1.5,2.6-1.5c1.5-0.1,2.9,1.1,2.9,2.6c0,0.1,0,0.3,0,0.4v4.8h-1.1V84
	c0.1-1.1-0.6-2.1-1.7-2.3c-0.1,0-0.2,0-0.4,0c-1.2,0-2.3,1-2.3,2.2c0,0.1,0,0.1,0,0.2v4.4h-1.1V80.9z M265.1,87.6l0.6-0.8
	c0.8,0.6,1.7,0.9,2.6,1c0.9,0,1.6-0.5,1.6-1.2l0,0c0-0.8-0.9-1.1-1.9-1.3c-1.2-0.3-2.5-0.8-2.5-2.2l0,0c0.1-1.3,1.1-2.3,2.4-2.2
	c0.1,0,0.1,0,0.2,0c1,0,1.9,0.3,2.8,0.8l-0.5,0.9c-0.7-0.5-1.5-0.7-2.3-0.7c-0.9,0-1.5,0.5-1.5,1.1l0,0c0,0.7,0.9,1,2,1.3
	c1.2,0.4,2.5,0.8,2.5,2.2l0,0c0,1.5-1.2,2.3-2.7,2.3C267.1,88.7,266,88.3,265.1,87.6z M272.9,87h1.4v1.6h-1.4V87z M281.4,78.2h1.2
	v10.4h-1.2V78.2z M285.4,80.9h1.1v1.3c0.5-1,1.5-1.5,2.6-1.5c1.5-0.1,2.9,1.1,2.9,2.6c0,0.1,0,0.3,0,0.4v4.8h-1V84
	c0.1-1.1-0.6-2.1-1.7-2.3c-0.1,0-0.2,0-0.4,0c-1.2,0-2.3,1-2.3,2.2c0,0.1,0,0.1,0,0.2v4.4h-1.1L285.4,80.9z M293.9,87.6l0.6-0.8
	c0.8,0.6,1.7,0.9,2.6,1c0.9,0,1.6-0.5,1.6-1.2l0,0c0-0.8-0.9-1.1-1.9-1.3c-1.2-0.3-2.5-0.8-2.5-2.2l0,0c0.1-1.3,1.1-2.3,2.4-2.2
	c0.1,0,0.1,0,0.2,0c1,0,1.9,0.3,2.8,0.8l-0.5,0.9c-0.7-0.5-1.5-0.7-2.3-0.7c-0.9,0-1.5,0.5-1.5,1.1l0,0c0,0.7,0.9,1,2,1.3
	c1.2,0.4,2.5,0.8,2.5,2.2l0,0c0,1.5-1.2,2.3-2.7,2.3C295.9,88.7,294.8,88.3,293.9,87.6z M301.9,80.9h1.1v1.5c0.6-1,1.7-1.7,2.9-1.7
	c2.1,0,3.7,1.7,3.7,3.8c0,0.1,0,0.1,0,0.2l0,0c0.1,2.1-1.4,3.8-3.5,4c-0.1,0-0.1,0-0.2,0c-1.2,0-2.3-0.6-2.9-1.6V91h-1.1V80.9z
	 M308.5,84.8L308.5,84.8c0.1-1.5-1-2.9-2.5-3c-0.1,0-0.1,0-0.2,0c-1.6,0-2.8,1.4-2.8,2.9l0,0l0,0c-0.1,1.6,1.2,2.9,2.7,3l0,0
	c1.5,0,2.7-1.2,2.7-2.7C308.5,84.9,308.5,84.9,308.5,84.8z M311.8,78h1.3v1.3h-1.3V78z M311.9,80.9h1.1v7.7h-1.1V80.9z M315.7,80.9
	h1.1v2c0.5-1.3,1.7-2.2,3.1-2.1V82h-0.1c-1.7,0-3,1.2-3,3.5v3h-1.1V80.9z M320.9,84.8L320.9,84.8c-0.1-2.1,1.5-3.9,3.6-4h0.1
	c2.3,0,3.6,1.8,3.6,4c0,0.1,0,0.2,0,0.4H322c0,1.5,1.2,2.6,2.7,2.6c0.9,0,1.8-0.4,2.4-1.1l0.7,0.6c-0.8,0.9-1.9,1.5-3.2,1.4
	C322.5,88.7,320.8,87,320.9,84.8C320.9,84.9,320.9,84.8,320.9,84.8z M326.9,84.3c0-1.4-1-2.6-2.4-2.6l0,0c-1.4,0.1-2.5,1.2-2.5,2.6
	H326.9z M329.7,84.8L329.7,84.8c-0.1-2.1,1.5-3.9,3.5-4h0.1c1.2,0,2.3,0.6,2.9,1.6v-4.6h1.1v10.8h-1.1V87c-0.6,1-1.7,1.7-2.9,1.7
	c-2.1,0-3.7-1.7-3.7-3.8C329.6,84.9,329.6,84.8,329.7,84.8z M336.3,84.8L336.3,84.8c0.1-1.6-1.2-2.9-2.7-3l0,0
	c-1.5,0-2.7,1.2-2.7,2.7c0,0.1,0,0.2,0,0.2l0,0c-0.1,1.5,1,2.8,2.6,3h0.1C335.1,87.7,336.3,86.4,336.3,84.8L336.3,84.8z M345.5,87.1
	v1.5h-1.1V77.8h1.1v4.7c0.6-1,1.7-1.7,2.9-1.7c2.1,0,3.7,1.7,3.7,3.8c0,0.1,0,0.1,0,0.2l0,0c0.1,2.1-1.4,3.8-3.5,4
	c-0.1,0-0.1,0-0.2,0C347.2,88.7,346.1,88.1,345.5,87.1z M350.9,84.8L350.9,84.8c0.1-1.5-1-2.9-2.5-3c0,0-0.1,0-0.2,0
	c-1.6,0-2.8,1.4-2.8,2.9l0,0l0,0c-0.1,1.6,1.2,2.9,2.7,3l0,0c1.5,0,2.7-1.2,2.7-2.7C350.9,84.9,350.9,84.9,350.9,84.8L350.9,84.8z
	 M359.6,80.9h1.2l-3.2,7.9c-0.7,1.6-1.4,2.2-2.5,2.2c-0.6,0-1.1-0.1-1.6-0.4l0.4-0.9c0.4,0.2,0.8,0.3,1.2,0.3c0.7,0,1.1-0.4,1.6-1.4
	l-3.5-7.6h1.3l2.8,6.4L359.6,80.9z M366.5,84.8L366.5,84.8c0-2.2,1.8-4,4-4s4,1.8,4,4l0,0l0,0c0,2.2-1.8,4-3.9,4c0,0,0,0-0.1,0
	C368.3,88.8,366.6,87.1,366.5,84.8C366.5,84.9,366.5,84.8,366.5,84.8z M373.4,84.8L373.4,84.8c0.1-1.6-1.2-3-2.8-3l0,0
	c-1.6,0-2.8,1.3-2.8,2.8v0.1l0,0c-0.1,1.6,1.2,2.9,2.8,3c0,0,0,0,0.1,0c1.6,0,2.8-1.3,2.8-2.8C373.4,84.9,373.4,84.8,373.4,84.8z
	 M376.5,85.7v-4.8h1.1v4.5c-0.2,1.1,0.6,2.1,1.7,2.3c0.1,0,0.2,0,0.4,0c1.2,0,2.3-1,2.3-2.2c0-0.1,0-0.1,0-0.2v-4.4h1.1v7.7H382
	v-1.3c-0.5,0.9-1.5,1.5-2.6,1.5c-1.5,0.1-2.9-1.1-2.9-2.6C376.4,86,376.5,85.8,376.5,85.7z M385.7,80.9h1.1v2
	c0.5-1.3,1.7-2.2,3.1-2.1V82h-0.1c-1.7,0-3,1.2-3,3.5v3h-1.1V80.9z M396.3,78.2h3.9c2.3,0,3.9,1.2,3.9,3.3l0,0
	c0,2.2-1.9,3.4-4.1,3.4h-2.5v3.7h-1.2L396.3,78.2z M400.1,83.9c1.7,0,2.8-0.9,2.8-2.3l0,0c0-1.5-1.1-2.2-2.8-2.2h-2.6V84L400.1,83.9
	L400.1,83.9z M405.3,86.4L405.3,86.4c0-1.6,1.3-2.5,3.3-2.5c0.8,0,1.6,0.1,2.4,0.3v-0.3c0-1.4-0.8-2.1-2.3-2.1
	c-0.8,0-1.6,0.2-2.3,0.6l-0.3-0.9c0.9-0.4,1.8-0.6,2.8-0.6c0.9-0.1,1.8,0.2,2.5,0.8c0.6,0.6,0.8,1.4,0.8,2.2v4.7h-1.1v-1.2
	c-0.7,0.9-1.7,1.3-2.8,1.3C406.7,88.7,405.3,87.9,405.3,86.4z M410.9,85.8V85c-0.7-0.2-1.5-0.3-2.2-0.3c-1.4,0-2.2,0.6-2.2,1.6l0,0
	c0,1,0.9,1.5,1.9,1.5C409.7,88,410.8,87.1,410.9,85.8L410.9,85.8z M414.8,86.6V82h-1.1v-1h1.1v-2.3h1.1V81h2.4v1h-2.4v4.5
	c-0.1,0.6,0.4,1.2,1,1.3c0.1,0,0.2,0,0.3,0c0.4,0,0.8-0.1,1.1-0.3v1c-0.4,0.2-0.9,0.3-1.4,0.3c-1.1,0.1-2-0.6-2.2-1.7
	C414.8,86.9,414.8,86.7,414.8,86.6z M420.4,78h1.3v1.3h-1.3V78z M420.5,80.9h1.1v7.7h-1.1V80.9z M423.8,84.8L423.8,84.8
	c-0.1-2.1,1.5-3.9,3.6-4h0.1c2.3,0,3.6,1.8,3.6,4c0,0.1,0,0.2,0,0.4H425c0,1.5,1.2,2.6,2.7,2.6c0.9,0,1.8-0.4,2.4-1.1l0.7,0.6
	c-0.8,0.9-1.9,1.5-3.2,1.4C425.5,88.7,423.8,87,423.8,84.8C423.8,84.9,423.8,84.8,423.8,84.8z M429.9,84.3c0-1.4-1-2.6-2.4-2.6l0,0
	c-1.4,0.1-2.5,1.2-2.5,2.6H429.9z M433,80.9h1.1v1.3c0.5-1,1.5-1.5,2.6-1.5c1.5-0.1,2.9,1.1,2.9,2.6c0,0.1,0,0.3,0,0.4v4.8h-1.1V84
	c0.1-1.1-0.6-2.1-1.7-2.3c-0.1,0-0.2,0-0.4,0c-1.2,0-2.3,1-2.3,2.2c0,0.1,0,0.1,0,0.2v4.4H433V80.9z M442.5,86.6V82h-1.1v-1h1.1
	v-2.3h1.1V81h2.4v1h-2.4v4.5c-0.1,0.6,0.4,1.2,1,1.3c0.1,0,0.2,0,0.3,0c0.4,0,0.8-0.1,1.1-0.3v1c-0.4,0.2-0.9,0.3-1.4,0.3
	c-1.1,0.1-2-0.6-2.2-1.7C442.5,86.9,442.5,86.7,442.5,86.6z M447.5,87.6l0.6-0.8c0.8,0.6,1.7,0.9,2.6,1c0.9,0,1.6-0.5,1.6-1.2l0,0
	c0-0.8-0.9-1.1-1.9-1.3c-1.2-0.3-2.5-0.8-2.5-2.2l0,0c0.1-1.3,1.1-2.3,2.4-2.2c0.1,0,0.1,0,0.2,0c1,0,1.9,0.3,2.8,0.8l-0.5,0.9
	c-0.7-0.5-1.5-0.7-2.3-0.7c-0.9,0-1.5,0.5-1.5,1.1l0,0c0,0.7,0.9,1,2,1.3c1.2,0.4,2.5,0.8,2.5,2.2l0,0c0,1.5-1.2,2.3-2.7,2.3
	C449.5,88.7,448.4,88.3,447.5,87.6z M456.1,78.8h-1.5v-0.6h3.6v0.6h-1.5v3.9H456v-3.9H456.1z M459.2,78.2h0.7l1.6,2.5l1.6-2.5h0.7
	v4.6h-0.6v-3.5l-1.6,2.5h-0.1l-1.6-2.5v3.5h-0.6L459.2,78.2z"/>
</svg>
