<?xml version="1.0" encoding="utf-8"?>
<!-- Generator: Adobe Illustrator 24.1.0, SVG Export Plug-In . SVG Version: 6.00 Build 0)  -->
<svg version="1.1"
	 id="svg46927" xmlns:cc="http://creativecommons.org/ns#" xmlns:dc="http://purl.org/dc/elements/1.1/" xmlns:inkscape="http://www.inkscape.org/namespaces/inkscape" xmlns:rdf="http://www.w3.org/1999/02/22-rdf-syntax-ns#" xmlns:sodipodi="http://sodipodi.sourceforge.net/DTD/sodipodi-0.dtd" xmlns:svg="http://www.w3.org/2000/svg"
	 xmlns="http://www.w3.org/2000/svg" xmlns:xlink="http://www.w3.org/1999/xlink" x="0px" y="0px" viewBox="0 0 305.2 40.7"
	 style="enable-background:new 0 0 305.2 40.7;" xml:space="preserve">
<style type="text/css">
	.varsityst0{}
	.varsityst1{opacity:0.5;enable-background:new    ;}
</style>
<sodipodi:namedview  bordercolor="#666666" borderopacity="1.0" fit-margin-bottom="0" fit-margin-left="0" fit-margin-right="0" fit-margin-top="0" id="base" inkscape:current-layer="layer1" inkscape:cx="151.61932" inkscape:cy="19.348004" inkscape:document-units="mm" inkscape:pageopacity="0.0" inkscape:pageshadow="2" inkscape:window-height="744" inkscape:window-maximized="1" inkscape:window-width="1280" inkscape:window-x="-4" inkscape:window-y="-4" inkscape:zoom="2.6447817" pagecolor="#ffffff" showgrid="false" units="px">
	</sodipodi:namedview>
<g id="layer1" transform="translate(-27.91977,-94.048105)" inkscape:groupmode="layer" inkscape:label="Layer 1">
	<g id="g46978" transform="translate(0.26458037,-0.26458243)">
		<path id="path43116" inkscape:connector-curvature="0" class="varsityst0" d="M86.4,125.2c-2,0-3.7-0.3-5.1-1.5l1.8-3.1
			c0.8,0.8,2.1,1.1,3.3,1.1c1.4,0,2.1-0.5,2.1-1.4c0-0.4-0.1-0.7-0.3-0.9c-0.2-0.2-0.5-0.4-1-0.4l-1.8-0.3c-1.3-0.2-2.3-0.7-3-1.4
			c-0.7-0.8-1-1.8-1-3.2c0-2.9,2-5.1,5.4-5.1c1.8,0,3.3,0.4,4.4,1.4l-1.7,3c-0.9-1-2.2-0.9-2.8-0.9c-1.3,0-1.8,0.8-1.8,1.5
			c0,0.2,0.1,0.5,0.3,0.7c0.2,0.2,0.5,0.4,1,0.5l1.8,0.3c1.3,0.2,2.3,0.7,2.9,1.3c0.8,0.8,1.1,2,1.1,3.5
			C92.2,123.4,89.6,125.2,86.4,125.2"/>
		<path id="path43118" inkscape:connector-curvature="0" class="varsityst0" d="M99.3,125.1h3.7v-16h-3.7V125.1z"/>
		<path id="path43122" inkscape:connector-curvature="0" class="varsityst0" d="M116.6,112.5V125h-3.7v-12.5h-3.7V109h11v3.5H116.6"/>
		<path id="path43126" inkscape:connector-curvature="0" class="varsityst0" d="M51,115.6l-4.7,9.4H42l8.9-16h3.7v16H51V115.6"/>
		<path id="path43130" inkscape:connector-curvature="0" class="varsityst0" d="M37.1,109l-4.7,9.4V109h-3.7v16h3.7l8.9-16H37.1"/>
		<path id="path43134" inkscape:connector-curvature="0" class="varsityst0" d="M71.8,118.3c1.2-0.6,2.4-2,2.4-4.2c0-2.6-1.8-5.2-5.1-5.2
			h-5.9v16h3.7v-12.5H69c1,0,1.6,0.8,1.6,1.6c0,0.8-0.6,1.7-1.6,1.7h-2.1l4.6,9.2h4.2L71.8,118.3"/>
		<path id="path43138" inkscape:connector-curvature="0" class="varsityst0" d="M133.7,109l-2.8,5.8l-2.8-5.8h-4.2l5.2,9.5v6.5h3.7v-6.5
			l5.2-9.5H133.7"/>
		<path id="path43142" inkscape:connector-curvature="0" class="varsityst0" d="M250.3,118.4c1.2-0.6,2.4-2,2.4-4.2c0-2.6-1.8-5.2-5.1-5.2
			h-5.9v16h3.7v-12.5h2.1c1,0,1.6,0.8,1.6,1.6c0,0.8-0.6,1.7-1.6,1.7h-2.1l4.6,9.2h4.2L250.3,118.4"/>
		<path id="path43146" inkscape:connector-curvature="0" class="varsityst0" d="M326.2,125.2c-2,0-3.7-0.3-5.1-1.5l1.8-3.1
			c0.8,0.8,2.1,1.1,3.3,1.1c1.4,0,2.1-0.5,2.1-1.4c0-0.4-0.1-0.7-0.3-0.9c-0.2-0.2-0.5-0.4-1-0.4l-1.8-0.3c-1.3-0.2-2.3-0.7-3-1.4
			c-0.7-0.8-1-1.8-1-3.2c0-2.9,2-5.1,5.4-5.1c1.8,0,3.3,0.4,4.4,1.4l-1.7,3c-0.9-1-2.2-0.9-2.8-0.9c-1.3,0-1.8,0.8-1.8,1.5
			c0,0.2,0.1,0.5,0.3,0.7c0.2,0.2,0.5,0.4,1,0.5l1.8,0.3c1.3,0.2,2.3,0.7,2.9,1.3c0.8,0.8,1.1,2,1.1,3.5
			C331.9,123.4,329.3,125.2,326.2,125.2"/>
		<path id="path43150" inkscape:connector-curvature="0" class="varsityst0" d="M223.1,109h5.6c1.6,0,2.8,0.4,3.7,1.1s1.3,1.8,1.3,3.1
			c0,1.2-0.5,2.5-1.8,3.2c2.4,0.9,2.5,3.1,2.5,3.7c0,1.3-0.5,2.7-1.4,3.5c-1.4,1.2-2.4,1.4-4.9,1.4h-5L223.1,109z M228.3,115.3
			c0.3,0,0.7,0,1.1-0.2c0.5-0.2,0.7-0.7,0.7-1.3c0-0.8-0.4-1.1-0.7-1.3c-0.4-0.2-0.8-0.2-1.1-0.2h-1.6v3H228.3z M228.7,121.7
			c0.3,0,0.8,0,1.2-0.2s0.9-0.6,0.9-1.6c0-0.7-0.3-1.2-0.9-1.4c-0.4-0.2-1-0.2-1.3-0.2h-2.1v3.4L228.7,121.7"/>
		<path id="path43154" inkscape:connector-curvature="0" class="varsityst0" d="M263.3,125.1h-4.2l6-16.1h3.3l5.8,16.1H270l-0.7-2.3H264
			L263.3,125.1z M266.5,113.9l-1.6,5.6h3.3L266.5,113.9"/>
		<path id="path43158" inkscape:connector-curvature="0" class="varsityst0" d="M289.5,118.8l-0.1-9.8h3.7v16h-3.4l-5.8-9.7l0.1,9.7h-3.7
			v-16h3.3L289.5,118.8"/>
		<path id="path43162" inkscape:connector-curvature="0" class="varsityst0" d="M301.5,109h5c1.7,0,4.7,0,6.7,3c1,1.5,1.4,3.2,1.4,5
			c0,4.4-2,8.1-7.8,8.1h-5.3L301.5,109L301.5,109z M307,121.7c2.5,0,3.9-1.6,3.9-4.6c0-0.7-0.1-2-0.8-3.1c-0.7-1.1-1.7-1.6-3.1-1.6
			h-1.9v9.3L307,121.7"/>
		<path id="path43166" inkscape:connector-curvature="0" class="varsityst1" d="M149.9,134h13.2c11-20.7,18-33.8,20.6-38.7h-13.4
			C167.8,100.2,161,113.2,149.9,134"/>
		<path id="path43170" inkscape:connector-curvature="0" class="varsityst0" d="M174.4,134h13.2c11-20.7,18-33.8,20.6-38.7h-13.4
			C192.3,100.2,185.5,113.2,174.4,134"/>
	</g>
</g>
</svg>
