<?xml version="1.0" encoding="utf-8"?>
<!-- Generator: Adobe Illustrator 17.0.0, SVG Export Plug-In . SVG Version: 6.00 Build 0)  -->
<!DOCTYPE svg PUBLIC "-//W3C//DTD SVG 1.1//EN" "http://www.w3.org/Graphics/SVG/1.1/DTD/svg11.dtd">
<svg version="1.1" id="Layer_1" xmlns="http://www.w3.org/2000/svg" xmlns:xlink="http://www.w3.org/1999/xlink" x="0px" y="0px"
	 width="52px" height="74px" viewBox="0 0 52 74" enable-background="new 0 0 52 74" xml:space="preserve">
<path fill="none" stroke="#0076A9" stroke-width="2" stroke-miterlimit="10" d="M45.113,54.798L9.051,25.114 M28.343,11.064
	c0,5.405-4.375,9.789-9.762,9.789c-5.392,0-9.762-4.384-9.762-9.789c0-5.407,4.37-9.795,9.762-9.795
	C23.968,1.269,28.343,5.657,28.343,11.064z M43.303,25.099c3.547,0,8.933,2.972,7.561,8.169
	c-1.373,5.197-10.497,39.501-10.497,39.501h-8.564L9.076,25.115C9.076,25.115,39.757,25.099,43.303,25.099z M8.922,25.099
	c-3.546,0-8.932,2.972-7.56,8.169c1.372,5.197,10.497,39.501,10.497,39.501h8.564l22.726-47.654
	C43.149,25.115,12.469,25.099,8.922,25.099z M23.873,11.064c0,5.405,4.37,9.789,9.761,9.789c5.392,0,9.762-4.384,9.762-9.789
	c0-5.407-4.37-9.795-9.762-9.795C28.243,1.269,23.873,5.657,23.873,11.064z"/>
</svg>
