<?xml version="1.0" encoding="utf-8"?>
<!-- Generator: Adobe Illustrator 17.0.0, SVG Export Plug-In . SVG Version: 6.00 Build 0)  -->
<!DOCTYPE svg PUBLIC "-//W3C//DTD SVG 1.1//EN" "http://www.w3.org/Graphics/SVG/1.1/DTD/svg11.dtd">
<svg version="1.1" id="Layer_1" xmlns="http://www.w3.org/2000/svg" xmlns:xlink="http://www.w3.org/1999/xlink" x="0px" y="0px"
	 width="1000px" height="898px" viewBox="0 0 1000 898" enable-background="new 0 0 1000 898" xml:space="preserve">
<path fill="#FFFFFF" d="M707.211,4.823c-70.05,0-136.479,25.82-188.459,72.933l191.416,194.732l188.58-191.818
	C846.339,31.681,778.817,4.823,707.211,4.823 M990.66,291.189c-0.493-72.142-26.933-140.179-74.664-192.981L727.409,290.026
	l191.544,194.87C965.712,431.592,991.152,363.265,990.66,291.189 M488.962,897.979V515.082H112.444L488.962,897.979z M295.204,4.823
	c-75.699,0-146.878,29.99-200.415,84.448c-53.037,53.95-82.527,125.678-83.034,201.975c-0.478,71.983,24.897,140.237,71.657,193.613
	L483.641,77.763C431.675,30.649,365.246,4.823,295.204,4.823 M902.04,502.768L501.204,94.981L309.466,290.004l400.808,407.758
	L902.04,502.768z M292.225,307.549L112.58,490.279h359.262L292.225,307.549z M513.345,898V532.497l179.688,182.796L513.345,898z"/>
</svg>
