<?xml version="1.0" encoding="utf-8"?>
<!-- Generator: Adobe Illustrator 17.0.0, SVG Export Plug-In . SVG Version: 6.00 Build 0)  -->
<!DOCTYPE svg PUBLIC "-//W3C//DTD SVG 1.1//EN" "http://www.w3.org/Graphics/SVG/1.1/DTD/svg11.dtd">
<svg version="1.1" id="Layer_1" xmlns="http://www.w3.org/2000/svg" xmlns:xlink="http://www.w3.org/1999/xlink" x="0px" y="0px"
	 width="74px" height="74px" viewBox="0 0 74 74" enable-background="new 0 0 74 74" xml:space="preserve">
<path fill="none" stroke="#0076A9" stroke-width="2" stroke-miterlimit="10" d="M40.81,33.988
	c11.153,11.152,9.428,22.989,1.064,31.354c-8.365,8.364-20.202,10.089-31.355-1.064C-0.634,53.125,1.486,24.954,1.486,24.954
	S29.657,22.835,40.81,33.988z M72.74,0.93L40.246,33.424 M25.279,26.842c-0.083-5.432,2.288-11.214,7.898-16.824
	C44.398-1.202,72.74,0.93,72.74,0.93s2.132,28.342-9.088,39.562c-4.909,4.909-9.95,7.338-14.772,7.813"/>
<line fill="none" stroke="#0076A9" stroke-width="2" stroke-miterlimit="10" x1="1.412" y1="25.052" x2="48.994" y2="72.635"/>
<path fill="none" stroke="#0076A9" stroke-width="2" stroke-miterlimit="10" d="M43.068,36.275h23.904 M48.744,24.4V2.383
	 M7.327,60.35h29.609 M24.907,26.366v21.981"/>
</svg>
