<?xml version="1.0" standalone="no"?>
<!DOCTYPE svg PUBLIC "-//W3C//DTD SVG 1.1//EN" "http://www.w3.org/Graphics/SVG/1.1/DTD/svg11.dtd" >
<svg xmlns="http://www.w3.org/2000/svg">
<metadata></metadata>
<defs>
<font id="fs_silas_sans_weblight" horiz-adv-x="1040" >
<font-face units-per-em="2048" ascent="1536" descent="-512" />
<missing-glyph horiz-adv-x="409" />
<glyph unicode="&#xfb01;" horiz-adv-x="1044" d="M49 891v98h156v115q0 373 381 373q93 0 221 -25l16 -106q-52 11 -126 21q-55 7 -111 7q-262 0 -262 -276v-109h569v-989h-119v891h-450v-891h-119v891h-156z" />
<glyph unicode="&#xfb02;" d="M49 891v98h156v129q0 359 346 359q140 0 242 -39l100 22v-1460h-119v1333q-106 41 -219 41q-231 0 -231 -272v-113h251l-14 -98h-237v-891h-119v891h-156z" />
<glyph unicode="&#xfb03;" horiz-adv-x="1613" d="M49 891v98h156v152q0 336 307 336q33 0 80 -7l20 -104q-50 8 -98 8q-190 0 -190 -241v-144h450v135q0 353 381 353q88 0 221 -25l17 -106q-53 12 -125 21q-56 7 -113 7q-262 0 -262 -256v-129h569v-989h-119v891h-450v-891h-119v891h-450v-891h-119v891h-156z" />
<glyph unicode="&#xfb04;" horiz-adv-x="1609" d="M49 891v98h156v152q0 336 307 336q33 0 80 -7l20 -104q-43 8 -98 8q-190 0 -190 -241v-144h450v129q0 359 346 359q140 0 242 -39l100 22v-1460h-119v1333q-106 41 -219 41q-231 0 -231 -272v-113h252l-15 -98h-237v-891h-119v891h-450v-891h-119v891h-156z" />
<glyph horiz-adv-x="0" />
<glyph horiz-adv-x="0" />
<glyph unicode="&#xd;" horiz-adv-x="409" />
<glyph unicode=" "  horiz-adv-x="409" />
<glyph unicode="&#x09;" horiz-adv-x="409" />
<glyph unicode="&#xa0;" horiz-adv-x="409" />
<glyph unicode="!" horiz-adv-x="409" d="M127 0v158l156 22v-180h-156zM135 1436l144 16l-27 -1065l-96 -10z" />
<glyph unicode="&#x22;" horiz-adv-x="624" d="M111 1053v465l129 16l-23 -467zM401 1053v465l129 16l-22 -467z" />
<glyph unicode="#" horiz-adv-x="1101" d="M25 438l16 109h250l45 284h-248l16 109h248l72 471h125l-72 -471h225l74 471h125q0 -2 -3 -17q-5 -24 -11 -65q-2 -15 -5.5 -35.5t-8.5 -51.5t-9 -55q-8 -48 -37 -247h250l-16 -109h-250l-45 -284h248l-17 -109h-249l-68 -438h-125l68 438h-226l-67 -438h-125l67 438 h-247zM416 547h227l45 284h-227z" />
<glyph unicode="$" horiz-adv-x="1050" d="M135 158q79 -31 172 -50q89 -18 191 -18v594l-58 18q-146 46 -225 129q-80 83 -80 230q0 161 94 256q96 97 269 115v210l98 15v-221q59 -1 140 -15q74 -13 130 -28l17 -113q-84 21 -144 31q-76 13 -143 14v-539l41 -12q153 -47 230 -137q77 -91 77 -246q0 -174 -90 -276 q-91 -103 -258 -127v-189l-98 -12v193q-92 0 -184 15q-90 15 -164 42zM266 1069q0 -55 11 -89q13 -42 38 -69q27 -30 72 -54q40 -22 111 -44v508q-117 -15 -174 -75q-58 -61 -58 -177zM596 100q107 23 162 91t55 192q0 117 -53 178q-50 58 -164 96v-557z" />
<glyph unicode="%" horiz-adv-x="1548" d="M111 1047q0 211 69 300t195 89q125 0 194 -89q70 -90 70 -300q0 -211 -70 -301q-69 -89 -194 -89q-126 0 -195 89q-69 88 -69 301zM223 1047q0 -153 35 -223q34 -68 117 -68t117 68t34 223q0 154 -34 222t-117 68t-117 -68q-35 -70 -35 -222zM279 41l913 1403l94 -58 l-924 -1409zM909 369q0 210 70 300q69 89 195 89q125 0 194 -89q70 -90 70 -300t-70 -300q-69 -89 -194 -89q-126 0 -195 89q-70 90 -70 300zM1022 369q0 -153 35 -223q34 -68 117 -68q82 0 116 68q35 70 35 223q0 152 -35 222q-34 68 -116 68q-83 0 -117 -68 q-35 -70 -35 -222z" />
<glyph unicode="&#x26;" horiz-adv-x="1333" d="M82 365q0 156 90 255q89 98 236 160q-92 96 -134 172q-43 77 -43 174q0 76 26 134q25 56 71 96q44 38 107 59t136 21q149 0 240 -80q90 -80 90 -232q0 -138 -79 -221q-80 -84 -228 -145l401 -418q34 54 53 113q17 51 30 118q12 60 15 118t3 112v39l108 20v-59 q0 -136 -24 -277q-24 -138 -109 -262l184 -192l-88 -80l-174 180q-97 -97 -221 -144q-122 -46 -252 -46q-98 0 -177 25q-80 25 -139 75t-90 121q-32 73 -32 164zM217 365q0 -135 81 -207t230 -72q111 0 214 41q101 40 180 119l-443 461q-140 -60 -201 -146q-61 -87 -61 -196 zM360 1128q0 -73 37 -138q39 -69 127 -161q141 60 201 129q59 68 59 166q0 92 -53 150q-53 57 -158 57q-100 0 -156 -52q-57 -53 -57 -151z" />
<glyph unicode="'" horiz-adv-x="333" d="M111 1053v465l129 16l-23 -467z" />
<glyph unicode="(" horiz-adv-x="636" d="M176 608q0 124 25 246q24 115 69 224q44 106 107 207q68 109 133 192l82 -60q-78 -112 -123 -193q-51 -92 -90 -193q-37 -96 -55 -202q-19 -111 -19 -221t19 -221q18 -106 55 -202q37 -97 90 -192q48 -86 123 -194l-82 -59q-68 87 -133 191q-63 101 -107 207 q-45 109 -69 224q-25 122 -25 246z" />
<glyph unicode=")" horiz-adv-x="636" d="M45 -201q75 108 123 194q52 95 90 192q37 96 55 202q19 111 19 221t-19 221q-18 106 -55 202q-39 101 -90 193q-45 81 -123 193l82 60q65 -83 133 -192q64 -104 106 -207q44 -109 69 -224q26 -119 26 -246t-26 -246q-25 -115 -69 -224q-42 -103 -106 -207 q-65 -104 -133 -191z" />
<glyph unicode="*" horiz-adv-x="802" d="M102 1262l52 141l217 -129l-47 289h159l-53 -285l221 125l49 -141l-249 -39l198 -209l-119 -78l-129 242l-131 -242l-112 80l190 207z" />
<glyph unicode="+" horiz-adv-x="1105" d="M188 481v113h324v375l117 12v-387h321l-28 -113h-293v-375l-117 -10v385h-324z" />
<glyph unicode="," horiz-adv-x="417" d="M82 -281q54 58 86 123t37 158h-64v160l162 22v-104q0 -134 -40 -232t-136 -182z" />
<glyph unicode="-" horiz-adv-x="546" d="M90 489v105h375l-14 -105h-361z" />
<glyph unicode="." horiz-adv-x="401" d="M123 0v158l156 22v-180h-156z" />
<glyph unicode="/" horiz-adv-x="708" d="M84 -4l426 1440h115v-17l-426 -1439h-115v16z" />
<glyph unicode="0" horiz-adv-x="1130" d="M111 709q0 196 24 334t80 226q55 86 141 127q84 40 209 40t209 -40q86 -41 141 -127q56 -88 80 -226q25 -144 25 -334q0 -191 -25 -336q-24 -139 -80 -227q-55 -86 -141 -127q-82 -39 -209 -39t-209 39q-86 41 -141 127q-56 88 -80 227t-24 336zM242 709q0 -174 17 -286 q18 -121 56 -193t101 -108q61 -34 149 -34q89 0 150 34q62 35 100 108q38 72 56 193q18 119 18 286q0 166 -18 285q-18 121 -56 192q-38 72 -100 107q-61 34 -150 34q-88 0 -149 -34q-63 -35 -101 -107q-38 -71 -56 -192q-17 -112 -17 -285z" />
<glyph unicode="1" horiz-adv-x="700" d="M63 1262l338 149h119v-1411h-121v1294l-325 -141z" />
<glyph unicode="2" horiz-adv-x="997" d="M82 84q145 144 246 250q100 105 198 215q114 127 173 250q57 119 57 235q0 291 -301 291q-77 0 -151 -14q-80 -15 -171 -45l19 114q163 56 313 56q422 0 422 -404q0 -126 -73 -272q-70 -139 -226 -311q-71 -79 -162 -170q-111 -111 -170 -168h621l-21 -111h-745z" />
<glyph unicode="3" horiz-adv-x="962" d="M57 150q167 -60 326 -60q179 0 270 76q92 77 92 221q0 150 -98 227q-99 78 -289 78h-86v107h84q171 0 258 71q88 72 88 207q0 123 -72 188q-71 64 -212 64q-75 0 -149 -14q-82 -15 -163 -43l17 112q88 26 161 38q82 14 150 14q195 0 298 -89q102 -89 102 -264 q0 -113 -59 -196q-58 -82 -169 -127v-4q132 -39 202 -131q69 -91 69 -230q0 -205 -124 -310q-125 -105 -360 -105q-87 0 -166 13q-81 13 -155 42z" />
<glyph unicode="4" horiz-adv-x="1067" d="M45 432l485 979h117v-20l-467 -934h549v463l125 18v-481h164l-14 -111h-150v-346h-125v346h-657z" />
<glyph unicode="5" horiz-adv-x="1007" d="M111 147q158 -61 329 -61q185 0 265 77q79 76 79 253q0 166 -79 239q-80 74 -263 74q-61 0 -133 -9q-70 -9 -149 -30l41 721h624l-18 -111h-506l-29 -485q46 10 94 15q62 6 93 6q454 0 454 -416q0 -440 -464 -440q-180 0 -326 55z" />
<glyph unicode="6" horiz-adv-x="1071" d="M111 670q0 382 136 573q137 193 404 193q101 0 193 -27l14 -106q-114 30 -205 30q-192 0 -293 -140q-102 -140 -118 -419q155 88 325 88q410 0 410 -432q0 -450 -422 -450q-222 0 -333 173t-111 517zM240 666q4 -576 319 -576q293 0 293 340q0 322 -289 322 q-163 0 -323 -86z" />
<glyph unicode="7" horiz-adv-x="1003" d="M55 1300l25 111h819l41 -74l-631 -1355l-108 47l596 1271h-742z" />
<glyph unicode="8" horiz-adv-x="1099" d="M111 354q0 267 319 406q-252 112 -252 346q0 330 381 330q383 0 383 -334q0 -213 -260 -342q307 -133 307 -406q0 -374 -438 -374q-440 0 -440 374zM233 354q0 -268 320 -268q309 0 309 274q0 228 -309 349q-320 -134 -320 -355zM305 1106q0 -202 248 -301 q266 114 266 297q0 231 -260 231q-254 0 -254 -227z" />
<glyph unicode="9" horiz-adv-x="1062" d="M94 985q0 451 422 451q222 0 333 -173q112 -174 112 -518q0 -380 -137 -573q-136 -192 -404 -192q-105 0 -193 26l-14 107q116 -31 205 -31q189 0 292 139q102 138 119 418q-158 -86 -325 -86q-410 0 -410 432zM219 985q0 -321 289 -321q83 0 162 20q82 21 161 64 q-1 286 -81 432q-79 145 -238 145q-293 0 -293 -340z" />
<glyph unicode=":" horiz-adv-x="401" d="M123 0v158l156 22v-180h-156zM123 793v157l156 23v-180h-156z" />
<glyph unicode=";" horiz-adv-x="401" d="M59 -281q54 58 86 123t37 158h-63v160l162 22v-104q0 -134 -40 -232q-40 -97 -137 -182zM123 793v157l156 23v-180h-156z" />
<glyph unicode="&#x3c;" horiz-adv-x="1105" d="M172 508v82l680 395l57 -96l-590 -340l590 -340l-57 -96z" />
<glyph unicode="=" horiz-adv-x="1105" d="M188 276v113h762l-28 -113h-734zM188 686v113h762l-28 -113h-734z" />
<glyph unicode="&#x3e;" horiz-adv-x="1105" d="M197 209l589 340l-589 340l57 96l680 -395v-82l-680 -395z" />
<glyph unicode="?" horiz-adv-x="837" d="M82 1260l20 112q53 27 136 46q79 18 161 18q81 0 148 -21q68 -21 117 -61q48 -39 76 -105q28 -65 28 -149q0 -132 -66 -221q-66 -88 -178 -166l-59 -41q-59 -40 -77 -90q-17 -48 -19 -113l-2 -82l-97 -10l-2 94q0 53 4 89q4 39 17 72q11 30 34 59q20 26 56 54l47 35 q46 34 94 76q39 35 65 71q27 38 38 75q12 40 12 90q0 231 -254 231q-76 0 -151 -17q-81 -18 -148 -46zM242 0v158l155 22v-180h-155z" />
<glyph unicode="@" horiz-adv-x="1562" d="M98 449q0 170 48 305q48 134 140 228t222 143q134 51 295 51q152 0 276 -44q122 -43 209 -127q86 -83 131 -202q45 -118 45 -268q0 -211 -81 -332t-224 -121q-119 0 -174 90q-39 -42 -101 -67q-58 -23 -126 -23q-133 0 -208 96t-75 264q0 177 84 276t232 99q47 0 96 -15 q48 -14 86 -42l14 33l68 6v-439q0 -90 30 -139t86 -49q87 0 135 91t48 255q0 262 -143 407q-143 144 -398 144q-280 0 -436 -163q-156 -164 -156 -457q0 -298 157 -464q156 -165 443 -165q93 0 192 15q97 15 191 44l-18 -100q-86 -30 -178 -44q-102 -16 -193 -16 q-165 0 -303 51q-134 50 -225 144q-94 97 -141 229q-48 135 -48 306zM590 444q0 -270 178 -270q108 0 180 78v434q-71 37 -147 37q-211 0 -211 -279z" />
<glyph unicode="A" horiz-adv-x="1181" d="M57 0v20l445 1385l164 14l458 -1399v-20h-125l-110 344h-602l-107 -344h-123zM322 451h534l-166 522q-25 79 -51 167t-47 175h-8q-15 -56 -47 -170q-18 -65 -52 -170z" />
<glyph unicode="B" horiz-adv-x="1163" d="M160 0v1411h372q130 0 219 -20q91 -21 152 -74q45 -41 69 -100q23 -58 23 -160q0 -118 -39 -188q-38 -69 -141 -113v-8q138 -24 198 -110t60 -237q0 -106 -25 -174q-26 -70 -75 -116q-119 -111 -438 -111h-375zM285 111h239q121 0 210 16q91 17 143 68q32 32 50 80 q17 45 17 126q0 66 -13 114q-14 52 -46 85q-39 42 -123 60q-82 18 -215 18h-262v-567zM285 788h256q102 0 162 20q61 20 100 58q34 34 49 78q14 41 14 113q0 57 -10 96q-11 42 -43 74q-40 40 -110 57q-67 16 -181 16h-237v-512z" />
<glyph unicode="C" horiz-adv-x="1140" d="M127 711q0 191 33 327q33 138 102 226q68 88 177 130q108 42 259 42q58 0 143 -9q74 -8 156 -28l19 -115q-104 24 -172 32q-74 9 -150 9q-118 0 -199 -34q-85 -36 -136 -107q-52 -72 -76 -191q-25 -122 -25 -282q0 -161 25 -284q24 -118 78 -193q53 -74 139 -109 q85 -35 202 -35q88 0 157 11q77 12 173 40l-16 -114q-89 -24 -163 -36q-69 -11 -153 -11q-151 0 -259 42q-107 41 -178 131q-70 87 -103 227q-33 138 -33 331z" />
<glyph unicode="D" horiz-adv-x="1318" d="M160 0v1411h366q152 0 259 -26q108 -26 190 -85q113 -83 165 -223t52 -375q0 -209 -39 -341q-39 -131 -123 -214q-77 -77 -201 -112q-125 -35 -317 -35h-352zM285 111h233q169 0 265 29q99 30 159 93q64 69 91 178q28 114 28 287q0 195 -34 310q-35 118 -107 184 q-63 57 -156 83q-90 25 -236 25h-243v-1189z" />
<glyph unicode="E" horiz-adv-x="1001" d="M160 0v1411h739l-18 -111h-596v-528h469v-106h-469v-555h622l-18 -111h-729z" />
<glyph unicode="F" horiz-adv-x="976" d="M160 0v1411h739l-18 -111h-596v-528h477v-106h-477v-666h-125z" />
<glyph unicode="G" horiz-adv-x="1316" d="M127 694q0 382 148 561q149 181 464 181q92 0 186 -13q87 -12 177 -39l16 -118q-94 31 -188 47q-84 14 -185 14q-251 0 -369 -152t-118 -481q0 -314 103 -460t325 -146q108 0 195 26q84 25 161 81v436h-270l-16 110h409v-741h-80l-34 78q-79 -51 -167 -75 q-83 -23 -194 -23q-290 0 -427 173q-136 172 -136 541z" />
<glyph unicode="H" horiz-adv-x="1300" d="M160 0v1403l125 16v-645h731v629l125 16v-1419h-125v664h-731v-664h-125z" />
<glyph unicode="I" horiz-adv-x="493" d="M184 0v1403l125 16v-1419h-125z" />
<glyph unicode="J" horiz-adv-x="716" d="M45 115q60 -17 102 -23q45 -6 93 -6q110 0 159 58q50 59 50 194v1065l124 16v-1095q0 -187 -75 -265q-76 -79 -252 -79q-45 0 -90 5q-43 5 -84 19z" />
<glyph unicode="K" horiz-adv-x="1165" d="M160 0v1403l125 16v-790l678 778l84 -76l-472 -536l504 -775v-20h-135l-450 700l-209 -237v-463h-125z" />
<glyph unicode="L" horiz-adv-x="980" d="M160 0v1403l125 16v-1308h600l-19 -111h-706z" />
<glyph unicode="M" horiz-adv-x="1632" d="M143 0l56 1407l129 12l487 -1169h8l469 1155l133 14l64 -1419h-123l-47 1161h-8l-434 -1059h-119l-447 1061h-8l-41 -1163h-119z" />
<glyph unicode="N" horiz-adv-x="1368" d="M160 0v1405l119 14l808 -1239h5v1225l116 14v-1419h-139l-788 1204h-5v-1204h-116z" />
<glyph unicode="O" horiz-adv-x="1339" d="M125 707q0 378 131 554q130 175 414 175q283 0 413 -175q131 -176 131 -554t-131 -553q-131 -174 -413 -174q-284 0 -414 174q-131 175 -131 553zM256 707q0 -322 99 -469q100 -148 315 -148q214 0 314 148q99 147 99 469q0 321 -99 470q-99 148 -314 148 q-216 0 -315 -148q-99 -149 -99 -470z" />
<glyph unicode="P" horiz-adv-x="1103" d="M160 0v1411h360q129 0 226 -25q94 -24 152 -79t85 -143q27 -87 27 -212q0 -122 -27 -208t-84 -138q-59 -55 -150 -78q-93 -24 -225 -24h-239v-504h-125zM285 612h256q184 0 262 78t78 262q0 93 -20 162q-20 70 -62 109q-43 41 -111 60q-69 20 -164 20h-239v-691z" />
<glyph unicode="Q" horiz-adv-x="1343" d="M125 707q0 378 131 554q130 175 414 175q283 0 413 -175q131 -176 131 -554q0 -317 -90 -490t-286 -219l327 -231l-71 -95l-424 308q-284 0 -414 174q-131 175 -131 553zM256 707q0 -322 99 -469q100 -148 315 -148q214 0 314 148q99 147 99 469q0 321 -99 470 q-99 148 -314 148q-216 0 -315 -148q-99 -149 -99 -470z" />
<glyph unicode="R" horiz-adv-x="1136" d="M160 0v1411h379q129 0 216 -22q89 -23 144 -72q56 -50 81 -127q26 -80 26 -189q0 -97 -19 -173q-18 -72 -58 -121q-41 -51 -103 -77q-67 -29 -152 -40l344 -570v-20h-131l-348 582h-254v-582h-125zM285 690h239q192 0 271 72t79 244q0 163 -81 229q-83 68 -279 68h-229 v-613z" />
<glyph unicode="S" horiz-adv-x="1091" d="M152 158q96 -36 172 -52q77 -16 172 -16q174 0 255 70q78 68 78 223q0 110 -57 176t-186 105l-129 38q-161 50 -233 134t-72 225q0 375 438 375q73 0 145 -11q78 -12 148 -32l16 -113q-84 21 -162 34q-66 11 -145 11q-166 0 -237 -61q-72 -62 -72 -197q0 -99 56 -158 t185 -98l129 -39q169 -51 238 -140q70 -90 70 -239q0 -215 -109 -315q-107 -98 -348 -98q-98 0 -175 13q-76 13 -163 44z" />
<glyph unicode="T" horiz-adv-x="1050" d="M57 1300v111h936l-18 -111h-391v-1300h-125v1300h-402z" />
<glyph unicode="U" horiz-adv-x="1282" d="M139 520v883l125 16v-862q0 -129 19 -222q18 -90 63 -144q44 -53 117 -77q72 -24 180 -24q107 0 179 24q75 25 118 77q46 55 64 144t18 222v848l121 14v-899q0 -148 -27 -251t-87 -168q-59 -64 -156 -93q-93 -28 -232 -28t-232 28q-97 29 -156 93q-60 65 -87 168t-27 251 z" />
<glyph unicode="V" horiz-adv-x="1167" d="M33 1391v20h131l317 -977q9 -27 26.5 -83t26.5 -83q23 -73 46 -176h8q9 40 19 76q16 58 25 89q23 78 27 91q15 45 27 84l328 979h121v-20l-478 -1391h-155z" />
<glyph unicode="W" horiz-adv-x="1697" d="M33 1391v20h125l254 -977q21 -83 37 -166q7 -35 30 -176h8q1 5 6 32t8 44q10 58 16 89t20 91q11 45 18 84l203 918h164l217 -916q23 -90 39 -168q11 -53 32 -174h9q1 5 6 32t8 44q2 11 17 89q6 31 20 91q17 73 20 84l254 979h121v-20l-371 -1391h-161l-220 893 q-8 36 -35 165q-17 82 -28 169h-12q-11 -78 -29 -164t-39 -172l-203 -891h-164z" />
<glyph unicode="X" horiz-adv-x="1138" d="M68 0v20l428 715l-392 656v20h134l333 -573l334 573h117v-25l-385 -647l436 -719v-20h-133l-377 637l-379 -637h-116z" />
<glyph unicode="Y" horiz-adv-x="1050" d="M33 1391v20h133l237 -500q46 -98 68 -147q29 -65 61 -152h11q57 158 123 301l229 498h123v-20l-422 -875v-516h-125v520z" />
<glyph unicode="Z" horiz-adv-x="1105" d="M94 86l770 1214h-741l29 111h833l21 -98l-762 -1202h766l-33 -111h-862z" />
<glyph unicode="[" horiz-adv-x="604" d="M172 -295v1731h344l23 -107h-242v-1517h242l-25 -107h-342z" />
<glyph unicode="\" horiz-adv-x="708" d="M84 1419v17h115l426 -1440v-16h-115z" />
<glyph unicode="]" horiz-adv-x="604" d="M66 -188h241v1517h-241l24 107h342v-1731h-344z" />
<glyph unicode="^" horiz-adv-x="1105" d="M135 829l373 582h90l373 -582l-101 -59l-319 510l-315 -508z" />
<glyph unicode="_" horiz-adv-x="983" d="M-20 -176h1024l-15 -105h-1009v105z" />
<glyph unicode="`" horiz-adv-x="657" d="M121 1364l72 104l374 -254l-43 -75z" />
<glyph unicode="a" horiz-adv-x="956" d="M66 258q0 135 88 204q87 68 262 68h272v125q0 131 -56 190q-57 60 -179 60q-79 0 -149 -12t-144 -39l14 113q59 19 138 33q69 12 153 12q177 0 260 -84q82 -83 82 -266v-467q0 -74 21 -101q16 -21 64 -21q11 0 23 1l-22 -88q-18 -6 -49 -6q-51 0 -91 25t-57 95 q-127 -120 -315 -120q-315 0 -315 278zM186 262q0 -184 211 -184q172 0 291 125v231h-268q-234 0 -234 -172z" />
<glyph unicode="b" horiz-adv-x="1052" d="M137 0v1446l119 14v-520q72 34 154 54q74 18 155 18q201 0 295 -121t94 -381q0 -276 -93 -404q-92 -126 -296 -126q-96 0 -169 23q-76 24 -154 75l-13 -78h-92zM256 170q70 -47 139 -68q66 -20 162 -20q76 0 125 23q51 24 84 75t48 133t15 197q0 216 -64 307 q-65 92 -214 92q-76 0 -140 -14q-76 -17 -155 -47v-678z" />
<glyph unicode="c" horiz-adv-x="858" d="M98 502q0 130 25 232q23 95 78 159q53 61 135 90q84 29 199 29q58 0 112 -8q50 -7 107 -29l14 -103q-64 22 -114 29q-56 8 -111 8q-173 0 -246 -94q-74 -95 -74 -313q0 -229 76 -324q77 -96 252 -96q71 0 124 9q49 8 109 32l-14 -105q-60 -23 -112 -30q-56 -8 -117 -8 q-122 0 -203 29q-86 31 -137 92q-55 66 -78 162q-25 103 -25 239z" />
<glyph unicode="d" horiz-adv-x="1056" d="M98 487q0 271 102 398t316 127q143 0 285 -58v492l119 14v-1460h-101l-10 76q-135 -96 -297 -96q-213 0 -313 122q-101 124 -101 385zM223 487q0 -215 69 -310t226 -95q91 0 154 20q65 21 129 68v686q-71 28 -136 40q-58 11 -135 11q-164 0 -235 -98q-72 -99 -72 -322z " />
<glyph unicode="e" horiz-adv-x="983" d="M98 492q0 271 95 396q94 124 315 124q100 0 171 -27q72 -28 116 -86t65 -153q21 -93 21 -226v-51h-658q1 -208 80 -299q78 -90 256 -90q74 0 137 10q61 10 148 35l-17 -102q-78 -23 -144 -33q-63 -10 -142 -10q-120 0 -203 28q-85 29 -137 90q-55 64 -78 159 q-25 102 -25 235zM225 565h537q0 189 -57 269q-57 79 -195 79q-78 0 -129 -19q-53 -20 -87 -60q-33 -38 -50 -108q-18 -70 -19 -161z" />
<glyph unicode="f" horiz-adv-x="602" d="M49 891v98h156v172q0 162 73 240q72 76 228 76q60 0 131 -19l14 -104q-70 20 -139 20q-98 0 -143 -53t-45 -168v-164h251l-14 -98h-237v-891h-119v891h-156z" />
<glyph unicode="g" horiz-adv-x="1048" d="M98 487q0 272 100 399q99 126 316 126q73 0 142 -21q71 -22 143 -67l16 53l96 10v-1005q0 -110 -21 -187q-20 -73 -69 -125q-94 -100 -295 -100q-48 0 -98 5q-43 4 -92 17l-17 101q68 -15 101 -18q50 -5 86 -5q155 0 221 66q66 68 66 235v101q-119 -86 -271 -86 q-220 0 -321 120q-103 123 -103 381zM223 485q0 -207 70 -303q69 -94 223 -94q83 0 149 20q65 20 128 60v659q-72 43 -140 63q-66 19 -145 19q-152 0 -218 -100q-67 -102 -67 -324z" />
<glyph unicode="h" horiz-adv-x="1054" d="M137 0v1446l119 14v-555q151 107 332 107q172 0 253 -90t81 -281v-641h-119v610q0 158 -53 225q-52 66 -179 66q-85 0 -157 -21q-70 -20 -158 -73v-807h-119z" />
<glyph unicode="i" horiz-adv-x="409" d="M133 1190v166l143 14v-180h-143zM145 0v975l119 14v-989h-119z" />
<glyph unicode="j" horiz-adv-x="409" d="M-135 -319q30 -8 46 -9q32 -2 54 -2q98 0 139 65t41 220v1020l119 14v-1026q0 -213 -63 -303t-215 -90q-31 0 -55 3t-48 9zM133 1190v166l143 14v-180h-143z" />
<glyph unicode="k" horiz-adv-x="935" d="M137 0v1446l119 14v-1005l516 565l80 -70l-360 -391l370 -534v-25h-123l-325 475l-158 -170v-305h-119z" />
<glyph unicode="l" horiz-adv-x="413" d="M147 0v1446l119 14v-1460h-119z" />
<glyph unicode="m" horiz-adv-x="1648" d="M137 0v973l103 16l12 -86q78 56 152 81q82 28 167 28q204 0 277 -142q84 67 171 104q90 38 189 38q166 0 244 -90t78 -281v-641h-119v610q0 158 -50 225q-49 66 -169 66q-86 0 -157 -27q-70 -27 -158 -79q16 -67 16 -154v-641h-119v610q0 158 -50 225q-50 66 -169 66 q-79 0 -147 -21q-65 -20 -152 -73v-807h-119z" />
<glyph unicode="n" horiz-adv-x="1054" d="M137 0v973l103 16l12 -88q80 55 160 82q85 29 176 29q172 0 253 -90t81 -281v-641h-119v610q0 158 -53 225q-52 66 -179 66q-85 0 -157 -21q-70 -20 -158 -73v-807h-119z" />
<glyph unicode="o" d="M98 496q0 265 103 391q102 125 319 125q218 0 320 -125t102 -391q0 -268 -102 -392t-320 -124q-217 0 -319 124q-103 126 -103 392zM223 496q0 -218 68 -318q67 -98 229 -98q163 0 230 98t67 318q0 219 -67 317t-230 98q-162 0 -229 -98q-68 -100 -68 -317z" />
<glyph unicode="p" horiz-adv-x="1050" d="M137 -391v1366l99 14l14 -90q83 58 162 86q77 27 166 27q194 0 284 -118t90 -386q0 -280 -96 -405q-95 -123 -305 -123q-85 0 -150 16q-68 17 -145 55v-428zM256 147q87 -36 150 -50q66 -15 141 -15q154 0 217 95t63 323q0 115 -14 188q-15 79 -47 127q-33 49 -83 72 q-48 22 -124 22q-82 0 -148 -23q-70 -24 -155 -81v-658z" />
<glyph unicode="q" horiz-adv-x="1054" d="M98 487q0 268 100 397q99 128 310 128q152 0 297 -88l16 53l97 10v-1378l-119 -15v472q-63 -45 -133 -65q-72 -21 -164 -21q-207 0 -305 123q-99 125 -99 384zM223 485q0 -215 69 -309t224 -94q87 0 153 18t130 62v665q-73 43 -140 63q-64 19 -137 19q-160 0 -229 -99 q-70 -100 -70 -325z" />
<glyph unicode="r" horiz-adv-x="620" d="M137 0v973l103 16l14 -108q53 69 114 100q62 31 142 31q28 0 57 -8l-18 -121q-14 2 -22 3t-27 1q-72 0 -130 -24t-114 -77v-786h-119z" />
<glyph unicode="s" horiz-adv-x="792" d="M82 135q68 -29 135 -42q65 -13 145 -13q123 0 180 45q56 44 56 145q0 69 -38 109q-37 38 -140 67l-90 25q-128 34 -189 98q-59 62 -59 168q0 136 88 205q90 70 258 70q62 0 121 -8q54 -7 113 -29l8 -101q-62 22 -114 29q-58 8 -118 8q-126 0 -183 -39q-56 -38 -56 -124 q0 -78 39 -114q40 -37 124 -59l91 -24q143 -39 202 -101q60 -63 60 -176q0 -294 -357 -294q-85 0 -143 11q-67 13 -123 38z" />
<glyph unicode="t" horiz-adv-x="618" d="M33 891v98h151l23 244l94 8v-252h252l-14 -98h-238v-645q0 -89 29 -127q28 -37 100 -37q47 0 80 3q30 3 68 11l-17 -102q-43 -9 -68 -11q-31 -3 -73 -3q-130 0 -183 59q-55 61 -55 205v647h-149z" />
<glyph unicode="u" d="M133 391v584l119 14v-604q0 -164 61 -232q61 -69 207 -69t207 69q61 68 61 232v590l119 14v-598q0 -219 -90 -315t-297 -96t-297 96t-90 315z" />
<glyph unicode="v" horiz-adv-x="890" d="M35 956v33h117l219 -612q25 -67 37 -108q12 -39 32 -113h9q22 83 31 108q29 84 38 107l230 618h108v-33l-364 -956h-99z" />
<glyph unicode="w" horiz-adv-x="1349" d="M35 956v33h121l172 -635q14 -49 26 -113q9 -52 21 -122h6q12 69 22 115q9 39 29 112l184 606h134l182 -598q20 -69 32 -115q16 -64 23 -120h6q5 41 19 111q14 66 28 120l162 639h113v-33l-275 -956h-104l-191 608q-6 22 -18 64.5t-14 49.5q-16 58 -27 122h-8 q-22 -93 -29 -117q-18 -63 -33 -113l-190 -614h-107z" />
<glyph unicode="x" horiz-adv-x="894" d="M49 0v33l328 471l-316 452v33h113l270 -403l263 403h104v-33l-303 -452l338 -471v-33h-111l-297 426l-280 -426h-109z" />
<glyph unicode="y" horiz-adv-x="901" d="M35 956v33h117l225 -635q39 -110 67 -235h9q23 84 32 115q17 54 39 114l234 641h108v-33l-518 -1386l-106 39l151 375z" />
<glyph unicode="z" horiz-adv-x="829" d="M78 72l520 819h-504l25 98h622v-71l-520 -820h531l-21 -98h-629z" />
<glyph unicode="{" horiz-adv-x="647" d="M111 528v115q72 15 112 59q41 46 41 144v336q0 139 64 203q63 63 196 63h76l23 -107h-80q-91 0 -122 -37q-32 -38 -32 -141v-276q0 -65 -8 -115q-7 -45 -29 -81q-21 -34 -52 -58q-32 -24 -81 -45v-4q48 -20 82 -45q32 -23 52 -59q21 -37 28 -81q8 -50 8 -114v-279 q0 -102 32 -140t122 -38h80l-23 -107h-76q-133 0 -196 63q-64 64 -64 204v338q0 97 -41 143q-40 44 -112 59z" />
<glyph unicode="|" horiz-adv-x="448" d="M162 -47v1485l125 12v-1485z" />
<glyph unicode="}" horiz-adv-x="647" d="M25 -172h79q90 0 122 38t32 140v279q0 64 8 114q7 44 28 81q20 36 52 59q34 25 82 45v4q-50 21 -81 45t-52 58q-22 36 -29 81q-8 50 -8 115v276q0 103 -32 141q-31 37 -122 37h-79l22 107h76q133 0 196 -63q64 -64 64 -203v-336q0 -98 41 -144q39 -44 113 -59v-115 q-74 -15 -113 -59q-41 -46 -41 -143v-338q0 -140 -64 -204q-63 -63 -196 -63h-76z" />
<glyph unicode="~" horiz-adv-x="1105" d="M119 545q24 71 81 124q56 52 154 52q46 0 90 -15q41 -14 99 -44l57 -31q65 -34 94 -47q39 -17 78 -17q50 0 80 30t57 85l78 -47q-53 -176 -221 -176q-65 0 -115 20q-51 20 -119 56l-53 28q-41 23 -78 38q-26 11 -57 11q-52 0 -83 -27q-31 -26 -64 -87z" />
<glyph unicode="&#xa1;" horiz-adv-x="409" d="M127 831v181h156v-158zM131 -440l27 1065l96 10l20 -1059z" />
<glyph unicode="&#xa2;" horiz-adv-x="858" d="M102 492q0 256 91 376t272 138v184l102 14v-192q51 -4 101 -14q53 -10 90 -23l14 -103q-49 17 -99 26q-56 10 -106 11v-827q61 0 115 10q58 11 106 31l-14 -105q-42 -16 -97 -25q-48 -8 -110 -13v-164l-102 -17v185q-89 6 -158 38q-66 31 -112 92q-45 60 -69 153t-24 225 zM227 498q0 -111 17 -188q16 -75 47 -122q29 -44 75 -70q45 -25 99 -32v815q-129 -21 -183 -114q-55 -95 -55 -289z" />
<glyph unicode="&#xa3;" horiz-adv-x="999" d="M98 84q51 30 83 59q36 33 60 75q21 37 34 97q12 55 12 129v228h-156v102h156v232q0 120 31 198q31 79 83 129q43 42 118 73q72 30 173 30q56 0 116 -11q62 -11 107 -26l17 -105q-72 18 -127 26q-62 9 -109 9q-75 0 -122 -20q-52 -22 -85 -58q-34 -37 -52 -95 q-17 -55 -17 -171v-211h350l-20 -102h-330v-230q0 -117 -37 -198q-38 -83 -104 -133h684l-37 -111h-805z" />
<glyph unicode="&#xa4;" horiz-adv-x="1101" d="M86 324l160 155q-34 46 -51 106t-17 124q0 130 68 227l-160 158l90 86l156 -158q92 63 219 63q129 0 217 -63l158 158l90 -86l-162 -158q70 -100 70 -227q0 -130 -70 -230l162 -155l-90 -86l-158 155q-89 -61 -217 -61q-68 0 -120 16q-54 16 -99 45l-156 -155zM309 709 q0 -119 63 -187q63 -67 179 -67t179 67q63 68 63 187t-63 186q-63 68 -179 68t-179 -68q-63 -67 -63 -186z" />
<glyph unicode="&#xa5;" horiz-adv-x="1099" d="M66 1391v20h133l237 -500q46 -98 68 -147q29 -65 61 -152h10q57 158 123 301l230 498h123v-20l-383 -795h245l-20 -90h-264v-123h241l-20 -90h-221v-293h-125v293h-268v90h268v123h-268v90h229z" />
<glyph unicode="&#xa6;" horiz-adv-x="448" d="M162 -51v557l125 12v-557zM162 881v557l125 12v-557z" />
<glyph unicode="&#xa7;" horiz-adv-x="878" d="M125 713q0 71 31 135q29 60 86 106q-58 35 -86 87q-29 53 -29 126q0 62 25 114t67 85q43 34 100 52t123 18q60 0 120 -12q67 -13 114 -35l12 -103q-58 25 -121 38q-55 11 -114 11q-99 0 -153 -39t-54 -120q0 -62 34 -102q34 -39 115 -66l109 -35q128 -40 190 -105 q60 -63 60 -166q0 -73 -32 -135q-31 -61 -87 -106q117 -73 117 -213q0 -63 -25 -115q-24 -49 -68 -84q-43 -34 -100 -52q-54 -17 -123 -17q-65 0 -120 11q-61 12 -113 36l-13 102q58 -25 121 -38q55 -11 115 -11q99 0 153 39t54 121q0 61 -34 101t-116 67l-108 34 q-129 40 -191 105q-59 62 -59 166zM240 733q0 -72 34 -112q35 -41 134 -74l151 -49q42 39 61 85q19 47 19 99q0 71 -35 114q-35 42 -133 72l-152 47q-41 -35 -60 -82t-19 -100z" />
<glyph unicode="&#xa8;" horiz-adv-x="688" d="M70 1190v166l143 14v-180h-143zM473 1190v166l143 14v-180h-143z" />
<glyph unicode="&#xa9;" horiz-adv-x="1605" d="M111 709q0 173 46 307q47 135 135 228q87 92 218 142q130 50 293 50t293 -50q131 -50 218 -142q88 -93 135 -228q46 -134 46 -307q0 -174 -46 -308q-47 -135 -135 -228q-87 -92 -218 -142q-128 -49 -293 -49t-293 49q-131 50 -218 142q-88 93 -135 228q-46 134 -46 308z M229 709q0 -297 150 -460t424 -163t424 163q149 162 149 460q0 297 -149 459q-150 163 -424 163t-424 -163q-150 -164 -150 -459zM518 711q0 370 307 370q83 0 162 -20l14 -92q-57 13 -89 17q-40 5 -72 5q-63 0 -101 -14q-41 -15 -66 -46q-24 -30 -37 -85q-11 -48 -11 -131 q0 -155 47 -216t166 -61q38 0 75 6q35 6 95 23l-13 -90q-95 -25 -174 -25q-303 0 -303 359z" />
<glyph unicode="&#xaa;" horiz-adv-x="630" d="M53 971q0 82 49 127q56 55 211 55h121v66q0 74 -31 108q-17 17 -46 27t-76 10t-91 -9t-84 -24l9 88q87 29 182 29q62 0 103 -14q45 -16 73 -39q59 -50 59 -160v-303q0 -36 15 -51q16 -16 55 -17l-10 -65q-14 -2 -22 -3t-21 -1q-42 0 -71 20q-29 21 -34 62 q-39 -41 -87 -61q-49 -21 -111 -21q-92 0 -142 46q-51 47 -51 130zM154 973q0 -53 30 -76q31 -23 84 -23q41 0 89 20q47 20 77 54v125h-133q-80 0 -113 -23q-34 -24 -34 -77z" />
<glyph unicode="&#xab;" horiz-adv-x="952" d="M78 451v28l278 387l93 -53l-238 -348l240 -348l-93 -58zM489 451v28l279 387l92 -53l-237 -348l239 -348l-92 -58z" />
<glyph unicode="&#xac;" horiz-adv-x="1105" d="M180 512v113h758v-367l-117 -8v262h-641z" />
<glyph unicode="&#xad;" horiz-adv-x="546" d="M90 489v105h375l-14 -105h-361z" />
<glyph unicode="&#xae;" horiz-adv-x="1605" d="M111 709q0 173 46 307q47 135 135 228q87 92 218 142q130 50 293 50t293 -50q131 -50 218 -142q88 -93 135 -228q46 -134 46 -307q0 -174 -46 -308q-47 -135 -135 -228q-87 -92 -218 -142q-128 -49 -293 -49t-293 49q-131 50 -218 142q-88 93 -135 228q-46 134 -46 308z M229 709q0 -297 150 -460t424 -163t424 163q149 162 149 460q0 297 -149 459q-150 163 -424 163t-424 -163q-150 -164 -150 -459zM598 360v709h209q111 0 170 -52t59 -151q0 -77 -43 -129q-44 -53 -121 -75l179 -283v-19h-97l-180 293h-80v-293h-96zM694 745h113q59 0 95 31 q34 30 34 88q0 54 -34 84q-36 31 -95 31h-113v-234z" />
<glyph unicode="&#xaf;" horiz-adv-x="688" d="M74 1219v104h540l-32 -104h-508z" />
<glyph unicode="&#xb0;" horiz-adv-x="675" d="M94 1270q0 117 71 180q70 63 173 63q102 0 173 -63t71 -180t-71 -180q-72 -64 -173 -64t-173 64q-71 63 -71 180zM203 1270q0 -71 35 -111q34 -39 100 -39t100 39q35 40 35 111q0 70 -35 110q-35 39 -100 39q-66 0 -100 -39q-35 -40 -35 -110z" />
<glyph unicode="&#xb1;" horiz-adv-x="1105" d="M188 0v113h762l-28 -113h-734zM188 686v113h324v346l117 12v-358h321l-28 -113h-293v-346l-117 -10v356h-324z" />
<glyph unicode="&#xb2;" horiz-adv-x="673" d="M102 774q178 130 276 252q97 121 97 219q0 137 -149 137q-46 0 -96 -9t-99 -30l2 87q98 38 195 38q124 0 189 -52q67 -53 67 -163q0 -111 -90 -222t-254 -245h348l-25 -81h-434z" />
<glyph unicode="&#xb3;" horiz-adv-x="673" d="M88 809q42 -14 98 -22q49 -7 93 -7q104 0 149 33t45 113q0 71 -51 104t-164 33h-22v80h30q89 0 141 29q54 30 54 100q0 59 -40 86q-39 26 -116 26q-49 0 -101 -9q-51 -9 -91 -21l12 80q31 11 94 24q50 10 105 10q110 0 175 -51q64 -51 64 -141q0 -69 -38 -109 q-36 -37 -101 -59q158 -38 158 -193q0 -106 -77 -163q-78 -58 -212 -58q-41 0 -94 8q-45 7 -101 25z" />
<glyph unicode="&#xb4;" horiz-adv-x="688" d="M119 1212l377 256l71 -104l-403 -225z" />
<glyph unicode="&#xb5;" horiz-adv-x="1044" d="M137 -391v1366l119 14v-604q0 -96 16 -148q17 -55 50 -90q32 -34 84 -49q48 -14 118 -14q71 0 119 14q52 15 84 49q32 33 49 90q17 56 17 148v590l118 14v-598q0 -109 -20 -185q-21 -80 -72 -132q-90 -94 -295 -94q-179 0 -268 77v-434z" />
<glyph unicode="&#xb6;" horiz-adv-x="1060" d="M61 1012q0 93 29 166q27 69 82 122q61 56 149 83q92 28 199 28h488l-27 -123h-111v-1534l-133 -14v1548h-159v-1564l-134 -15v914q-180 23 -281 116q-102 95 -102 273z" />
<glyph unicode="&#xb7;" horiz-adv-x="401" d="M123 512v158l156 22v-180h-156z" />
<glyph unicode="&#xb8;" horiz-adv-x="688" d="M166 -334q37 -9 66 -11q34 -3 67 -3q63 0 93 20q32 21 32 72q0 46 -30 65q-29 19 -95 19q-15 0 -59 -2q-34 -2 -56 -6l27 184h84l-16 -108q5 0 10 0.5t11 1.5t9 1q10 1 31 1q85 0 132 -37q48 -37 48 -117q0 -84 -54 -129t-155 -45q-27 0 -69 5q-37 4 -70 15z" />
<glyph unicode="&#xb9;" horiz-adv-x="673" d="M115 1335l213 121h92v-751h-105v638l-163 -88z" />
<glyph unicode="&#xba;" horiz-adv-x="692" d="M72 1122q0 168 73 247t201 79t201 -79q74 -80 74 -247q0 -168 -74 -248q-73 -79 -201 -79t-201 79t-73 248zM176 1122q0 -136 45 -189q45 -52 125 -52t125 52q45 53 45 189q0 138 -45 189t-125 51t-125 -51t-45 -189z" />
<glyph unicode="&#xbb;" horiz-adv-x="952" d="M90 117l240 348l-238 348l92 53l279 -387v-28l-281 -392zM502 117l239 348l-237 348l92 53l278 -387v-28l-280 -392z" />
<glyph unicode="&#xbc;" horiz-adv-x="1548" d="M111 1335l213 121h92v-751h-105v638l-164 -88zM238 41l913 1403l94 -58l-923 -1409zM846 262l264 490h104v-13l-258 -475h285v209l98 10v-219h111l-10 -88h-101v-176h-98v176h-373z" />
<glyph unicode="&#xbd;" horiz-adv-x="1548" d="M111 1335l213 121h92v-751h-105v638l-164 -88zM238 41l913 1403l94 -58l-923 -1409zM924 70q176 129 275 252q97 121 97 219q0 137 -149 137q-45 0 -95 -9q-51 -9 -100 -30l2 86q100 39 195 39q124 0 189 -52q67 -53 67 -163q0 -111 -90 -222t-254 -245h348l-25 -82h-434 z" />
<glyph unicode="&#xbe;" horiz-adv-x="1548" d="M123 809q42 -14 98 -22q49 -7 92 -7q105 0 150 33t45 113q0 71 -51 104t-164 33h-23v80h31q88 0 140 29q55 31 55 100q0 59 -40 86q-39 26 -116 26q-48 0 -101 -9q-54 -9 -92 -21l13 80q31 11 94 24q50 10 104 10q112 0 176 -51t64 -141q0 -69 -38 -109q-36 -37 -101 -59 q157 -37 157 -193q0 -106 -76 -163q-78 -58 -212 -58q-42 0 -95 8q-43 6 -100 25zM279 41l913 1403l94 -58l-924 -1409zM846 262l264 490h104v-13l-258 -475h285v209l98 10v-219h111l-10 -88h-101v-176h-98v176h-373z" />
<glyph unicode="&#xbf;" horiz-adv-x="837" d="M70 -88q0 134 65 221q66 88 178 166l60 41q59 40 77 90q17 48 19 113l2 82l96 10l2 -94q0 -53 -4 -89q-5 -42 -16 -72q-12 -32 -34 -60q-20 -26 -56 -54l-47 -35q-58 -43 -95 -75t-64 -71q-27 -38 -38 -76q-12 -41 -12 -89q0 -231 254 -231q75 0 150 17q83 19 149 46 l-21 -112q-57 -29 -135 -47q-75 -17 -162 -17q-80 0 -147 21q-68 21 -117 61q-50 41 -77 104t-27 150zM440 831v181h156v-158z" />
<glyph unicode="&#xc0;" horiz-adv-x="1181" d="M57 0v20l445 1385l164 14l458 -1399v-20h-125l-110 344h-602l-107 -344h-123zM287 1753l71 105l375 -254l-43 -76zM322 451h534l-166 522q-25 79 -51 167t-47 175h-8q-15 -56 -47 -170q-18 -65 -52 -170z" />
<glyph unicode="&#xc1;" horiz-adv-x="1181" d="M57 0v20l445 1385l164 14l458 -1399v-20h-125l-110 344h-602l-107 -344h-123zM322 451h534l-166 522q-25 79 -51 167t-47 175h-8q-15 -56 -47 -170q-18 -65 -52 -170zM428 1602l377 256l72 -105l-404 -225z" />
<glyph unicode="&#xc2;" horiz-adv-x="1181" d="M57 0v20l445 1385l164 14l458 -1399v-20h-125l-110 344h-602l-107 -344h-123zM299 1573l252 285h78l252 -285l-74 -60l-217 226l-217 -226zM322 451h534l-166 522q-25 79 -51 167t-47 175h-8q-15 -56 -47 -170q-18 -65 -52 -170z" />
<glyph unicode="&#xc3;" horiz-adv-x="1181" d="M57 0v20l445 1385l164 14l458 -1399v-20h-125l-110 344h-602l-107 -344h-123zM270 1642q34 77 76 123q40 43 109 43q43 0 79 -18q18 -9 69 -40q35 -21 66 -39q30 -17 64 -17q38 0 63 22q23 21 52 70l61 -39q-33 -78 -74 -121q-42 -45 -110 -45q-45 0 -79 17 q-28 14 -69 39q-61 37 -66 40q-33 19 -65 19q-36 0 -62 -23q-24 -22 -52 -69zM322 451h534l-166 522q-25 79 -51 167t-47 175h-8q-15 -56 -47 -170q-18 -65 -52 -170z" />
<glyph unicode="&#xc4;" horiz-adv-x="1181" d="M57 0v20l445 1385l164 14l458 -1399v-20h-125l-110 344h-602l-107 -344h-123zM311 1577v166l144 14v-180h-144zM322 451h534l-166 522q-25 79 -51 167t-47 175h-8q-15 -56 -47 -170q-18 -65 -52 -170zM715 1577v166l143 14v-180h-143z" />
<glyph unicode="&#xc5;" horiz-adv-x="1181" d="M57 0v20l445 1385l164 14l458 -1399v-20h-125l-110 344h-602l-107 -344h-123zM322 451h534l-166 522q-25 79 -51 167t-47 175h-8q-15 -56 -47 -170q-18 -65 -52 -170zM399 1696q0 74 51 128q49 52 134 52q87 0 136 -52q50 -53 50 -128q0 -73 -50 -126q-49 -52 -136 -52 q-85 0 -134 52q-51 54 -51 126zM492 1696q0 -46 25 -74q26 -29 67 -29t68 29q28 30 28 74q0 46 -28 76q-27 28 -68 28q-42 0 -67 -28t-25 -76z" />
<glyph unicode="&#xc6;" horiz-adv-x="1792" d="M25 0v20l872 1391h793l-19 -111h-596v-528h469v-106h-469v-555h623l-19 -111h-729v334h-590l-206 -334h-129zM424 436h526v842z" />
<glyph unicode="&#xc7;" horiz-adv-x="1140" d="M127 711q0 191 33 327q33 138 102 226q68 88 177 130q108 42 259 42q58 0 143 -9q74 -8 156 -28l19 -115q-104 24 -172 32q-74 9 -150 9q-118 0 -199 -34q-85 -36 -136 -107q-52 -72 -76 -191q-25 -122 -25 -282q0 -161 25 -284q24 -118 78 -193q53 -74 139 -109 q85 -35 202 -35q88 0 157 11q77 12 173 40l-16 -114q-89 -24 -163 -36q-69 -11 -153 -11q-25 0 -37 1l-36 3l-13 -88q11 1 31 3q10 1 31 1q85 0 132 -37q48 -37 48 -117q0 -84 -54 -129t-155 -45q-27 0 -69 5q-37 4 -70 15l-6 74q37 -9 66 -11q34 -3 67 -3q63 0 93 20 q32 21 32 72q0 46 -30 65q-29 19 -95 19q-16 0 -60 -2q-32 -1 -55 -6l25 174q-220 41 -319 213q-99 173 -99 504z" />
<glyph unicode="&#xc8;" horiz-adv-x="1001" d="M160 0v1411h739l-18 -111h-596v-528h469v-106h-469v-555h622l-18 -111h-729zM227 1753l72 105l375 -254l-43 -76z" />
<glyph unicode="&#xc9;" horiz-adv-x="1001" d="M160 0v1411h739l-18 -111h-596v-528h469v-106h-469v-555h622l-18 -111h-729zM369 1602l376 256l72 -105l-403 -225z" />
<glyph unicode="&#xca;" horiz-adv-x="1001" d="M160 0v1411h739l-18 -111h-596v-528h469v-106h-469v-555h622l-18 -111h-729zM240 1573l252 285h77l252 -285l-73 -60l-218 226l-217 -226z" />
<glyph unicode="&#xcb;" horiz-adv-x="1001" d="M160 0v1411h739l-18 -111h-596v-528h469v-106h-469v-555h622l-18 -111h-729zM252 1577v166l143 14v-180h-143zM655 1577v166l144 14v-180h-144z" />
<glyph unicode="&#xcc;" horiz-adv-x="493" d="M-55 1753l71 105l375 -254l-43 -76zM184 0v1403l125 16v-1419h-125z" />
<glyph unicode="&#xcd;" horiz-adv-x="493" d="M86 1602l377 256l72 -105l-404 -225zM184 0v1403l125 16v-1419h-125z" />
<glyph unicode="&#xce;" horiz-adv-x="493" d="M-43 1573l252 285h78l252 -285l-74 -60l-217 226l-217 -226zM184 0v1403l125 16v-1419h-125z" />
<glyph unicode="&#xcf;" horiz-adv-x="493" d="M-31 1577v166l144 14v-180h-144zM184 0v1403l125 16v-1419h-125zM373 1577v166l143 14v-180h-143z" />
<glyph unicode="&#xd0;" horiz-adv-x="1400" d="M70 659v105h172v647h366q152 0 259 -26q108 -26 190 -85q113 -83 165 -223t52 -375q0 -209 -39 -341q-39 -131 -123 -214q-77 -77 -201 -112q-125 -35 -317 -35h-352v659h-172zM367 111h233q169 0 265 29q99 30 159 93q64 69 91 178q28 114 28 287q0 195 -34 310 q-34 116 -108 184q-64 58 -155 83q-90 25 -236 25h-243v-536h327l-24 -105h-303v-548z" />
<glyph unicode="&#xd1;" horiz-adv-x="1368" d="M160 0v1405l119 14l808 -1239h5v1225l116 14v-1419h-139l-788 1204h-5v-1204h-116zM365 1642q35 80 75 123t109 43q43 0 79 -18q18 -9 69 -40q35 -21 66 -39q30 -17 64 -17q38 0 63 22q23 21 52 70l62 -39q-33 -76 -75 -121t-110 -45q-45 0 -79 17q-28 14 -69 39 q-61 37 -66 40q-33 19 -64 19q-37 0 -63 -23q-24 -22 -52 -69z" />
<glyph unicode="&#xd2;" horiz-adv-x="1339" d="M125 707q0 378 131 554q130 175 414 175q283 0 413 -175q131 -176 131 -554t-131 -553q-131 -174 -413 -174q-284 0 -414 174q-131 175 -131 553zM256 707q0 -322 99 -469q100 -148 315 -148q214 0 314 148q99 147 99 469q0 321 -99 470q-99 148 -314 148 q-216 0 -315 -148q-99 -149 -99 -470zM367 1753l71 105l375 -254l-43 -76z" />
<glyph unicode="&#xd3;" horiz-adv-x="1339" d="M125 707q0 378 131 554q130 175 414 175q283 0 413 -175q131 -176 131 -554t-131 -553q-131 -174 -413 -174q-284 0 -414 174q-131 175 -131 553zM256 707q0 -322 99 -469q100 -148 315 -148q214 0 314 148q99 147 99 469q0 321 -99 470q-99 148 -314 148 q-216 0 -315 -148q-99 -149 -99 -470zM508 1602l377 256l71 -105l-403 -225z" />
<glyph unicode="&#xd4;" horiz-adv-x="1339" d="M125 707q0 378 131 554q130 175 414 175q283 0 413 -175q131 -176 131 -554t-131 -553q-131 -174 -413 -174q-284 0 -414 174q-131 175 -131 553zM256 707q0 -322 99 -469q100 -148 315 -148q214 0 314 148q99 147 99 469q0 321 -99 470q-99 148 -314 148 q-216 0 -315 -148q-99 -149 -99 -470zM379 1573l252 285h78l252 -285l-74 -60l-217 226l-217 -226z" />
<glyph unicode="&#xd5;" horiz-adv-x="1339" d="M125 707q0 378 131 554q130 175 414 175q283 0 413 -175q131 -176 131 -554t-131 -553q-131 -174 -413 -174q-284 0 -414 174q-131 175 -131 553zM256 707q0 -322 99 -469q100 -148 315 -148q214 0 314 148q99 147 99 469q0 321 -99 470q-99 148 -314 148 q-216 0 -315 -148q-99 -149 -99 -470zM350 1642q34 77 76 123q40 43 109 43q42 0 78 -18q24 -12 70 -40q35 -21 66 -39q30 -17 64 -17q38 0 63 22q23 21 52 70l61 -39q-33 -76 -75 -121t-109 -45q-45 0 -79 17q-33 17 -70 39q-7 4 -30 18.5t-35 21.5q-33 19 -65 19 q-36 0 -62 -23q-24 -22 -52 -69z" />
<glyph unicode="&#xd6;" horiz-adv-x="1339" d="M125 707q0 378 131 554q130 175 414 175q283 0 413 -175q131 -176 131 -554t-131 -553q-131 -174 -413 -174q-284 0 -414 174q-131 175 -131 553zM256 707q0 -322 99 -469q100 -148 315 -148q214 0 314 148q99 147 99 469q0 321 -99 470q-99 148 -314 148 q-216 0 -315 -148q-99 -149 -99 -470zM391 1577v166l144 14v-180h-144zM795 1577v166l143 14v-180h-143z" />
<glyph unicode="&#xd7;" horiz-adv-x="1105" d="M223 287l252 250l-252 251l78 78l250 -252l250 254l78 -77l-250 -254l254 -250l-78 -78l-254 252l-250 -252z" />
<glyph unicode="&#xd8;" horiz-adv-x="1357" d="M135 707q0 378 131 554q130 175 414 175q205 0 328 -90l96 151l94 -59l-108 -172q135 -174 135 -559q0 -378 -131 -553q-131 -174 -414 -174q-210 0 -338 96l-111 -178l-94 59l125 201q-127 175 -127 549zM266 707q0 -278 74 -426l600 956q-94 88 -260 88 q-215 0 -314 -148q-100 -150 -100 -470zM410 184q95 -94 270 -94q214 0 314 148t100 469q0 286 -80 438z" />
<glyph unicode="&#xd9;" horiz-adv-x="1282" d="M139 520v883l125 16v-862q0 -129 19 -222q18 -90 63 -144q44 -53 117 -77q72 -24 180 -24q107 0 179 24q75 25 118 77q46 55 64 144t18 222v848l121 14v-899q0 -148 -27 -251t-87 -168q-59 -64 -156 -93q-93 -28 -232 -28t-232 28q-97 29 -156 93q-60 65 -87 168t-27 251 zM340 1753l72 105l374 -254l-43 -76z" />
<glyph unicode="&#xda;" horiz-adv-x="1282" d="M139 520v883l125 16v-862q0 -129 19 -222q18 -90 63 -144q44 -53 117 -77q72 -24 180 -24q107 0 179 24q75 25 118 77q46 55 64 144t18 222v848l121 14v-899q0 -148 -27 -251t-87 -168q-59 -64 -156 -93q-93 -28 -232 -28t-232 28q-97 29 -156 93q-60 65 -87 168t-27 251 zM481 1602l377 256l72 -105l-404 -225z" />
<glyph unicode="&#xdb;" horiz-adv-x="1282" d="M139 520v883l125 16v-862q0 -129 19 -222q18 -90 63 -144q44 -53 117 -77q72 -24 180 -24q107 0 179 24q75 25 118 77q46 55 64 144t18 222v848l121 14v-899q0 -148 -27 -251t-87 -168q-59 -64 -156 -93q-93 -28 -232 -28t-232 28q-97 29 -156 93q-60 65 -87 168t-27 251 zM352 1573l252 285h78l252 -285l-74 -60l-217 226l-217 -226z" />
<glyph unicode="&#xdc;" horiz-adv-x="1282" d="M139 520v883l125 16v-862q0 -129 19 -222q18 -90 63 -144q44 -53 117 -77q72 -24 180 -24q107 0 179 24q75 25 118 77q46 55 64 144t18 222v848l121 14v-899q0 -148 -27 -251t-87 -168q-59 -64 -156 -93q-93 -28 -232 -28t-232 28q-97 29 -156 93q-60 65 -87 168t-27 251 zM365 1577v166l143 14v-180h-143zM768 1577v166l143 14v-180h-143z" />
<glyph unicode="&#xdd;" horiz-adv-x="1050" d="M33 1391v20h133l237 -500q46 -98 68 -147q29 -65 61 -152h11q57 158 123 301l229 498h123v-20l-422 -875v-516h-125v520zM375 1602l377 256l71 -105l-403 -225z" />
<glyph unicode="&#xde;" horiz-adv-x="1103" d="M160 0v1403l125 16v-243h235q133 0 226 -27q95 -28 152 -83q58 -57 85 -143q27 -87 27 -206q0 -117 -27 -202q-27 -84 -84 -140q-57 -55 -150 -81q-95 -26 -225 -26h-239v-268h-125zM285 377h239q100 0 164 17q68 18 111 58t62 105q20 68 20 160q0 97 -20 165 q-19 66 -63 108q-43 42 -115 60q-67 17 -175 17h-223v-690z" />
<glyph unicode="&#xdf;" horiz-adv-x="1196" d="M49 891v98h156v86q0 110 35 188q34 76 92 123q60 49 131 69q77 22 151 22q88 0 158 -25q67 -24 113 -67q45 -42 67 -98q23 -58 23 -122q0 -86 -29 -146t-106 -110l-58 -37q-71 -46 -96 -77q-24 -30 -24 -68q0 -53 37 -80q33 -24 118 -59l72 -29q75 -31 114 -58 q44 -31 69 -64q26 -35 36 -72t10 -84q0 -83 -26 -138q-27 -57 -73 -94q-44 -36 -110 -53q-61 -16 -137 -16q-68 0 -135 12t-121 35l-8 106q60 -26 127 -40q64 -13 125 -13q114 0 178 50q63 50 63 149q0 29 -8 56q-8 26 -28 49q-20 22 -59 46q-37 22 -95 45l-72 29 q-103 40 -149 89q-45 48 -45 128q0 75 38 121t115 96l58 37q46 31 75 74q27 41 27 118q0 94 -60 151q-59 56 -186 56q-126 0 -208 -77q-80 -76 -80 -253v-1224l-119 -15v1086h-156z" />
<glyph unicode="&#xe0;" horiz-adv-x="956" d="M66 258q0 135 88 204q87 68 262 68h272v125q0 131 -56 190q-57 60 -179 60q-79 0 -149 -12t-144 -39l14 113q59 19 138 33q69 12 153 12q177 0 260 -84q82 -83 82 -266v-467q0 -74 21 -101q20 -26 87 -20l-22 -88q-18 -6 -49 -6q-51 0 -91 25t-57 95q-127 -120 -315 -120 q-315 0 -315 278zM176 1364l72 104l375 -254l-43 -75zM186 262q0 -184 211 -184q172 0 291 125v231h-268q-234 0 -234 -172z" />
<glyph unicode="&#xe1;" horiz-adv-x="956" d="M66 258q0 135 88 204q87 68 262 68h272v125q0 131 -56 190q-57 60 -179 60q-79 0 -149 -12t-144 -39l14 113q59 19 138 33q69 12 153 12q177 0 260 -84q82 -83 82 -266v-467q0 -74 21 -101q20 -26 87 -20l-22 -88q-18 -6 -49 -6q-51 0 -91 25t-57 95q-127 -120 -315 -120 q-315 0 -315 278zM186 262q0 -184 211 -184q172 0 291 125v231h-268q-234 0 -234 -172zM276 1212l377 256l72 -104l-403 -225z" />
<glyph unicode="&#xe2;" horiz-adv-x="956" d="M66 258q0 135 88 204q87 68 262 68h272v125q0 131 -56 190q-57 60 -179 60q-79 0 -149 -12t-144 -39l14 113q59 19 138 33q69 12 153 12q177 0 260 -84q82 -83 82 -266v-467q0 -74 21 -101q20 -26 87 -20l-22 -88q-18 -6 -49 -6q-51 0 -91 25t-57 95q-127 -120 -315 -120 q-315 0 -315 278zM178 1204l252 285h78l252 -285l-74 -59l-217 225l-217 -225zM186 262q0 -184 211 -184q172 0 291 125v231h-268q-234 0 -234 -172z" />
<glyph unicode="&#xe3;" horiz-adv-x="956" d="M66 258q0 135 88 204q87 68 262 68h272v125q0 131 -56 190q-57 60 -179 60q-79 0 -149 -12t-144 -39l14 113q59 19 138 33q69 12 153 12q177 0 260 -84q82 -83 82 -266v-467q0 -74 21 -101q20 -26 87 -20l-22 -88q-18 -6 -49 -6q-51 0 -91 25t-57 95q-127 -120 -315 -120 q-315 0 -315 278zM143 1253q34 77 76 123q40 43 109 43q43 0 79 -18q18 -9 69 -40q34 -21 66 -39q30 -17 64 -17q38 0 63 22q23 21 52 70l61 -39q-33 -78 -74 -121q-42 -45 -110 -45q-45 0 -79 17q-28 14 -69 39q-61 37 -66 40q-33 19 -65 19q-36 0 -62 -23q-23 -21 -52 -70 zM186 262q0 -184 211 -184q172 0 291 125v231h-268q-234 0 -234 -172z" />
<glyph unicode="&#xe4;" horiz-adv-x="956" d="M66 258q0 135 88 204q87 68 262 68h272v125q0 131 -56 190q-57 60 -179 60q-79 0 -149 -12t-144 -39l14 113q59 19 138 33q69 12 153 12q177 0 260 -84q82 -83 82 -266v-467q0 -74 21 -101q20 -26 87 -20l-22 -88q-18 -6 -49 -6q-51 0 -91 25t-57 95q-127 -120 -315 -120 q-315 0 -315 278zM186 262q0 -184 211 -184q172 0 291 125v231h-268q-234 0 -234 -172zM197 1190v166l143 14v-180h-143zM600 1190v166l143 14v-180h-143z" />
<glyph unicode="&#xe5;" horiz-adv-x="956" d="M66 258q0 135 88 204q87 68 262 68h272v125q0 131 -56 190q-57 60 -179 60q-79 0 -149 -12t-144 -39l14 113q59 19 138 33q69 12 153 12q177 0 260 -84q82 -83 82 -266v-467q0 -74 21 -101q20 -26 87 -20l-22 -88q-18 -6 -49 -6q-51 0 -91 25t-57 95q-127 -120 -315 -120 q-315 0 -315 278zM186 262q0 -184 211 -184q172 0 291 125v231h-268q-234 0 -234 -172zM287 1300q0 75 50 128t134 53q86 0 136 -53t50 -128q0 -72 -50 -125t-136 -53q-84 0 -134 53t-50 125zM379 1300q0 -45 25 -73q26 -29 67 -29q42 0 69 29t27 73q0 48 -27 76 q-27 29 -69 29q-41 0 -67 -29q-25 -28 -25 -76z" />
<glyph unicode="&#xe6;" horiz-adv-x="1572" d="M66 274q0 291 391 291h231v90q0 131 -57 191q-56 59 -182 59q-74 0 -143 -12q-67 -12 -146 -39l12 104q75 30 139 41q73 13 142 13q236 0 313 -146q96 146 332 146q100 0 171 -27t115 -86q45 -60 66 -153q20 -89 20 -226v-51h-657q1 -208 80 -299q78 -90 256 -90 q74 0 137 10q61 10 148 35l-17 -102q-78 -23 -144 -33q-63 -10 -143 -10q-141 0 -227 36q-91 38 -143 123q-166 -159 -369 -159q-325 0 -325 294zM186 279q0 -201 211 -201q171 0 322 151q-31 102 -31 240h-227q-275 0 -275 -190zM815 565h537q0 188 -58 269q-57 79 -194 79 q-78 0 -129 -19q-53 -20 -87 -60q-33 -38 -50 -108q-18 -70 -19 -161z" />
<glyph unicode="&#xe7;" horiz-adv-x="858" d="M98 502q0 130 25 232q23 95 78 159q53 61 135 90q84 29 199 29q58 0 112 -8q50 -7 107 -29l14 -103q-64 22 -114 29q-56 8 -111 8q-173 0 -246 -94q-74 -95 -74 -313q0 -229 76 -324q77 -96 252 -96q71 0 124 9q49 8 109 32l-14 -105q-60 -23 -112 -30q-56 -8 -117 -8 q-51 0 -95 6l-12 -90q11 1 31 3q10 1 31 1q85 0 132 -37q48 -37 48 -117q0 -84 -54 -129t-155 -45q-28 0 -70 5q-35 4 -69 15l-6 74q37 -9 66 -11q35 -3 67 -3q63 0 93 20q32 21 32 72q0 46 -30 65q-29 19 -95 19q-16 0 -60 -2q-32 -1 -55 -6l25 180q-141 40 -204 161 q-63 120 -63 341z" />
<glyph unicode="&#xe8;" horiz-adv-x="983" d="M98 492q0 271 95 396q94 124 315 124q100 0 171 -27q72 -28 116 -86t65 -153q21 -93 21 -226v-51h-658q1 -208 80 -299q78 -90 256 -90q74 0 137 10q61 10 148 35l-17 -102q-78 -23 -144 -33q-63 -10 -142 -10q-120 0 -203 28q-85 29 -137 90q-55 64 -78 159 q-25 102 -25 235zM221 1364l72 104l375 -254l-43 -75zM225 565h537q0 189 -57 269q-57 79 -195 79q-78 0 -129 -19q-53 -20 -87 -60q-33 -38 -50 -108q-18 -70 -19 -161z" />
<glyph unicode="&#xe9;" horiz-adv-x="983" d="M98 492q0 271 95 396q94 124 315 124q100 0 171 -27q72 -28 116 -86t65 -153q21 -93 21 -226v-51h-658q1 -208 80 -299q78 -90 256 -90q74 0 137 10q61 10 148 35l-17 -102q-78 -23 -144 -33q-63 -10 -142 -10q-120 0 -203 28q-85 29 -137 90q-55 64 -78 159 q-25 102 -25 235zM225 565h537q0 189 -57 269q-57 79 -195 79q-78 0 -129 -19q-53 -20 -87 -60q-33 -38 -50 -108q-18 -70 -19 -161zM322 1212l376 256l72 -104l-403 -225z" />
<glyph unicode="&#xea;" horiz-adv-x="983" d="M98 492q0 271 95 396q94 124 315 124q100 0 171 -27q72 -28 116 -86t65 -153q21 -93 21 -226v-51h-658q1 -208 80 -299q78 -90 256 -90q74 0 137 10q61 10 148 35l-17 -102q-78 -23 -144 -33q-63 -10 -142 -10q-120 0 -203 28q-85 29 -137 90q-55 64 -78 159 q-25 102 -25 235zM223 1204l252 285h78l252 -285l-74 -59l-217 225l-217 -225zM225 565h537q0 189 -57 269q-57 79 -195 79q-78 0 -129 -19q-53 -20 -87 -60q-33 -38 -50 -108q-18 -70 -19 -161z" />
<glyph unicode="&#xeb;" horiz-adv-x="983" d="M98 492q0 271 95 396q94 124 315 124q100 0 171 -27q72 -28 116 -86t65 -153q21 -93 21 -226v-51h-658q1 -208 80 -299q78 -90 256 -90q74 0 137 10q61 10 148 35l-17 -102q-78 -23 -144 -33q-63 -10 -142 -10q-120 0 -203 28q-85 29 -137 90q-55 64 -78 159 q-25 102 -25 235zM225 565h537q0 189 -57 269q-57 79 -195 79q-78 0 -129 -19q-53 -20 -87 -60q-33 -38 -50 -108q-18 -70 -19 -161zM242 1190v166l143 14v-180h-143zM645 1190v166l143 14v-180h-143z" />
<glyph unicode="&#xec;" horiz-adv-x="409" d="M-92 1364l72 104l374 -254l-43 -75zM145 0v975l119 14v-989h-119z" />
<glyph unicode="&#xed;" horiz-adv-x="409" d="M8 1212l377 256l72 -104l-404 -225zM145 0v975l119 14v-989h-119z" />
<glyph unicode="&#xee;" horiz-adv-x="409" d="M-90 1204l252 285h78l252 -285l-74 -59l-217 225l-217 -225zM145 0v975l119 14v-989h-119z" />
<glyph unicode="&#xef;" horiz-adv-x="409" d="M-72 1190v166l144 14v-180h-144zM145 0v975l119 14v-989h-119zM332 1190v166l143 14v-180h-143z" />
<glyph unicode="&#xf0;" horiz-adv-x="1034" d="M96 481q0 258 101 380t311 122q147 0 264 -65q-78 275 -285 389l-133 -162l-75 55l124 150q-70 31 -208 59l67 80q54 -9 112 -26q52 -15 99 -36l125 152l74 -57l-115 -138q102 -57 173 -134q72 -78 118 -185q45 -102 66 -227q22 -130 22 -289q0 -294 -100 -431 q-101 -138 -314 -138q-219 0 -322 121q-104 122 -104 380zM219 479q0 -204 74 -301q73 -96 229 -96q150 0 220 106q71 107 71 334q0 68 -6 138q-7 82 -16 149q-124 68 -277 68q-150 0 -223 -97q-72 -96 -72 -301z" />
<glyph unicode="&#xf1;" horiz-adv-x="1054" d="M137 0v973l103 16l12 -88q80 55 160 82q85 29 176 29q172 0 253 -90t81 -281v-641h-119v610q0 158 -53 225q-52 66 -179 66q-85 0 -157 -21q-70 -20 -158 -73v-807h-119zM205 1253q34 77 76 123q40 43 108 43q43 0 79 -18q24 -12 70 -40l65 -39q30 -17 65 -17q37 0 62 22 q23 21 52 70l62 -39q-33 -76 -75 -121t-110 -45q-44 0 -78 17q-33 17 -70 39q-61 37 -66 40q-33 19 -64 19q-37 0 -63 -23q-23 -21 -52 -70z" />
<glyph unicode="&#xf2;" d="M98 496q0 265 103 391q102 125 319 125q218 0 320 -125t102 -391q0 -268 -102 -392t-320 -124q-217 0 -319 124q-103 126 -103 392zM223 496q0 -218 68 -318q67 -98 229 -98q163 0 230 98t67 318q0 219 -67 317t-230 98q-162 0 -229 -98q-68 -100 -68 -317zM225 1364 l72 104l375 -254l-43 -75z" />
<glyph unicode="&#xf3;" d="M98 496q0 265 103 391q102 125 319 125q218 0 320 -125t102 -391q0 -268 -102 -392t-320 -124q-217 0 -319 124q-103 126 -103 392zM223 496q0 -218 68 -318q67 -98 229 -98q163 0 230 98t67 318q0 219 -67 317t-230 98q-162 0 -229 -98q-68 -100 -68 -317zM326 1212 l376 256l72 -104l-403 -225z" />
<glyph unicode="&#xf4;" d="M98 496q0 265 103 391q102 125 319 125q218 0 320 -125t102 -391q0 -268 -102 -392t-320 -124q-217 0 -319 124q-103 126 -103 392zM223 496q0 -218 68 -318q67 -98 229 -98q163 0 230 98t67 318q0 219 -67 317t-230 98q-162 0 -229 -98q-68 -100 -68 -317zM227 1204 l252 285h78l252 -285l-74 -59l-217 225l-217 -225z" />
<glyph unicode="&#xf5;" d="M98 496q0 265 103 391q102 125 319 125q218 0 320 -125t102 -391q0 -268 -102 -392t-320 -124q-217 0 -319 124q-103 126 -103 392zM193 1253q35 79 75 123q40 43 109 43q43 0 79 -18q18 -9 69 -40q35 -21 66 -39q30 -17 64 -17q38 0 63 22q23 21 52 70l61 -39 q-33 -78 -74 -121q-42 -45 -110 -45q-45 0 -79 17q-28 14 -69 39q-61 37 -66 40q-33 19 -64 19q-37 0 -63 -23q-23 -21 -52 -70zM223 496q0 -218 68 -318q67 -98 229 -98q163 0 230 98t67 318q0 219 -67 317t-230 98q-162 0 -229 -98q-68 -100 -68 -317z" />
<glyph unicode="&#xf6;" d="M98 496q0 265 103 391q102 125 319 125q218 0 320 -125t102 -391q0 -268 -102 -392t-320 -124q-217 0 -319 124q-103 126 -103 392zM223 496q0 -218 68 -318q67 -98 229 -98q163 0 230 98t67 318q0 219 -67 317t-230 98q-162 0 -229 -98q-68 -100 -68 -317zM246 1190v166 l143 14v-180h-143zM649 1190v166l144 14v-180h-144z" />
<glyph unicode="&#xf7;" horiz-adv-x="1105" d="M188 481v113h762l-28 -113h-734zM477 96v176l182 21v-197h-182zM477 805v176l182 20v-196h-182z" />
<glyph unicode="&#xf8;" horiz-adv-x="1056" d="M98 496q0 273 102 394q102 122 328 122q138 0 228 -43l69 116l84 -47l-75 -125q65 -61 95 -164q29 -100 29 -253q0 -275 -101 -395q-102 -121 -329 -121q-137 0 -233 45l-72 -119l-82 51l76 125q-61 63 -90 165q-29 104 -29 249zM223 496q0 -105 15 -180q15 -77 47 -126 l409 682q-66 39 -166 39q-161 0 -233 -97q-72 -98 -72 -318zM356 121q64 -41 172 -41q162 0 234 97q72 98 72 319q0 103 -17 182q-16 76 -51 127z" />
<glyph unicode="&#xf9;" d="M133 391v584l119 14v-604q0 -164 61 -232q61 -69 207 -69t207 69q61 68 61 232v590l119 14v-598q0 -219 -90 -315t-297 -96t-297 96t-90 315zM225 1364l72 104l375 -254l-43 -75z" />
<glyph unicode="&#xfa;" d="M133 391v584l119 14v-604q0 -164 61 -232q61 -69 207 -69t207 69q61 68 61 232v590l119 14v-598q0 -219 -90 -315t-297 -96t-297 96t-90 315zM326 1212l376 256l72 -104l-403 -225z" />
<glyph unicode="&#xfb;" d="M133 391v584l119 14v-604q0 -164 61 -232q61 -69 207 -69t207 69q61 68 61 232v590l119 14v-598q0 -219 -90 -315t-297 -96t-297 96t-90 315zM227 1204l252 285h78l252 -285l-74 -59l-217 225l-217 -225z" />
<glyph unicode="&#xfc;" d="M133 391v584l119 14v-604q0 -164 61 -232q61 -69 207 -69t207 69q61 68 61 232v590l119 14v-598q0 -219 -90 -315t-297 -96t-297 96t-90 315zM246 1190v166l143 14v-180h-143zM649 1190v166l144 14v-180h-144z" />
<glyph unicode="&#xfd;" horiz-adv-x="901" d="M35 956v33h117l225 -635q39 -110 67 -235h9q23 84 32 115q17 54 39 114l234 641h108v-33l-518 -1386l-106 39l151 375zM258 1212l377 256l72 -104l-404 -225z" />
<glyph unicode="&#xfe;" horiz-adv-x="1050" d="M137 -391v1837l119 14v-557q84 60 159 84q78 25 163 25q194 0 284 -118t90 -386q0 -280 -96 -405q-95 -123 -305 -123q-85 0 -150 16q-68 17 -145 55v-428zM256 147q87 -36 150 -50q66 -15 141 -15q154 0 217 95t63 323q0 115 -14 188q-15 79 -47 127q-33 49 -83 72 q-48 22 -124 22q-82 0 -148 -23q-70 -24 -155 -81v-658z" />
<glyph unicode="&#xff;" horiz-adv-x="901" d="M35 956v33h117l225 -635q39 -110 67 -235h9q23 84 32 115q17 54 39 114l234 641h108v-33l-518 -1386l-106 39l151 375zM178 1190v166l144 14v-180h-144zM582 1190v166l143 14v-180h-143z" />
<glyph unicode="&#x152;" horiz-adv-x="1794" d="M125 709q0 175 31 316q29 133 100 227q69 91 179 138q108 46 267 46q92 0 206 -13q105 -12 192 -12h592l-19 -111h-596v-528h469v-106h-469v-555h623l-19 -111h-581q-42 0 -92 -3q-69 -4 -101 -7q-34 -3 -102 -7q-51 -3 -96 -3q-162 0 -272 46q-112 47 -180 137 q-69 91 -100 227q-32 139 -32 319zM256 707q0 -173 27 -291q28 -121 83 -191q57 -72 144 -103q90 -32 211 -32h42q15 0 61 2l68 4q32 1 60 6v1205q-78 10 -126 13q-73 5 -119 5q-122 0 -206 -34q-87 -35 -140 -107q-53 -73 -79 -192q-26 -121 -26 -285z" />
<glyph unicode="&#x153;" horiz-adv-x="1701" d="M98 496q0 134 28 237q26 96 81 160q53 61 132 90q81 29 181 29q128 0 220 -47q91 -46 141 -156q43 98 128 150q86 53 220 53q97 0 167 -30t115 -81q50 -57 69 -142q19 -83 19 -206v-84h-657q0 -111 21 -184q21 -74 61 -120t104 -66q61 -19 150 -19q72 0 144 12 q75 13 141 33l-17 -102q-61 -19 -139 -32q-66 -11 -147 -11q-140 0 -236 47q-93 46 -143 155q-50 -109 -141 -155q-92 -47 -220 -47q-103 0 -181 28q-79 28 -132 90q-55 64 -81 160q-28 103 -28 238zM223 496q0 -218 68 -318q67 -98 229 -98q163 0 230 98t67 318 q0 219 -67 317t-230 98q-162 0 -229 -98q-68 -100 -68 -317zM944 565h537v37q0 152 -58 233q-56 78 -192 78t-209 -79t-78 -269z" />
<glyph unicode="&#x178;" horiz-adv-x="1050" d="M33 1391v20h133l237 -500q46 -98 68 -147q29 -65 61 -152h11q57 158 123 301l229 498h123v-20l-422 -875v-516h-125v520zM258 1577v166l143 14v-180h-143zM662 1577v166l143 14v-180h-143z" />
<glyph unicode="&#x2c6;" horiz-adv-x="688" d="M53 1204l252 285h78l252 -285l-74 -59l-217 225l-217 -225z" />
<glyph unicode="&#x2dc;" horiz-adv-x="688" d="M25 1253q35 79 75 123q40 43 109 43q43 0 79 -18q18 -9 69 -40q35 -21 66 -39q30 -17 64 -17q38 0 63 22q23 21 52 70l62 -39q-33 -76 -75 -121t-110 -45q-45 0 -79 17q-28 14 -69 39q-61 37 -66 40q-33 19 -64 19q-37 0 -63 -23q-23 -21 -52 -70z" />
<glyph unicode="&#x2000;" horiz-adv-x="938" />
<glyph unicode="&#x2001;" horiz-adv-x="1876" />
<glyph unicode="&#x2002;" horiz-adv-x="938" />
<glyph unicode="&#x2003;" horiz-adv-x="1876" />
<glyph unicode="&#x2004;" horiz-adv-x="625" />
<glyph unicode="&#x2005;" horiz-adv-x="469" />
<glyph unicode="&#x2006;" horiz-adv-x="312" />
<glyph unicode="&#x2007;" horiz-adv-x="312" />
<glyph unicode="&#x2008;" horiz-adv-x="234" />
<glyph unicode="&#x2009;" horiz-adv-x="375" />
<glyph unicode="&#x200a;" horiz-adv-x="104" />
<glyph unicode="&#x2010;" horiz-adv-x="546" d="M90 489v105h375l-14 -105h-361z" />
<glyph unicode="&#x2011;" horiz-adv-x="546" d="M90 489v105h375l-14 -105h-361z" />
<glyph unicode="&#x2012;" horiz-adv-x="546" d="M90 489v105h375l-14 -105h-361z" />
<glyph unicode="&#x2013;" horiz-adv-x="1024" d="M20 489v105h984l-15 -105h-969z" />
<glyph unicode="&#x2014;" horiz-adv-x="2048" d="M20 489v105h2008l-15 -105h-1993z" />
<glyph unicode="&#x2018;" horiz-adv-x="393" d="M106 963v104q0 133 40 231t137 183l45 -56q-55 -59 -86 -122q-32 -65 -37 -158h63v-160z" />
<glyph unicode="&#x2019;" horiz-adv-x="393" d="M66 1018q54 58 86 123q31 63 36 157h-63v160l162 23v-105q0 -133 -40 -231t-136 -182z" />
<glyph unicode="&#x201a;" horiz-adv-x="393" d="M66 -301q54 58 86 123q31 63 36 158h-63v159l162 23v-105q0 -133 -40 -231t-136 -182z" />
<glyph unicode="&#x201c;" horiz-adv-x="722" d="M106 963v104q0 133 40 231t137 183l45 -56q-55 -59 -86 -122q-32 -65 -37 -158h63v-160zM436 963v104q0 133 40 231q41 100 136 183l45 -56q-55 -59 -86 -122t-36 -158h63v-160z" />
<glyph unicode="&#x201d;" horiz-adv-x="722" d="M66 1018q54 58 86 123q31 63 36 157h-63v160l162 23v-105q0 -133 -40 -231t-136 -182zM395 1018q54 58 86 123t37 157h-63v160l161 23v-105q0 -136 -39 -231q-40 -97 -137 -182z" />
<glyph unicode="&#x201e;" horiz-adv-x="722" d="M66 -301q54 58 86 123q31 63 36 158h-63v159l162 23v-105q0 -133 -40 -231t-136 -182zM395 -301q54 58 86 123t37 158h-63v159l161 23v-105q0 -136 -39 -231q-40 -97 -137 -182z" />
<glyph unicode="&#x2022;" horiz-adv-x="827" d="M115 561q0 141 80 224t219 83t219 -83t80 -224t-80 -224t-219 -83t-219 83t-80 224z" />
<glyph unicode="&#x2026;" horiz-adv-x="1204" d="M123 0v158l156 22v-180h-156zM524 0v158l156 22v-180h-156zM926 0v158l155 22v-180h-155z" />
<glyph unicode="&#x202f;" horiz-adv-x="375" />
<glyph unicode="&#x2039;" horiz-adv-x="540" d="M78 451v28l278 387l93 -53l-238 -348l240 -348l-93 -58z" />
<glyph unicode="&#x203a;" horiz-adv-x="540" d="M90 117l240 348l-238 348l92 53l279 -387v-28l-281 -392z" />
<glyph unicode="&#x205f;" horiz-adv-x="469" />
<glyph unicode="&#x20ac;" horiz-adv-x="1142" d="M41 535v90h186q-2 38 -2 45v28v29q0 7 2 45h-151v94h155q15 153 59 262q44 110 114 178q70 69 165 99q98 31 211 31q67 0 136 -11q82 -13 135 -26l18 -115q-68 18 -142 30q-69 11 -143 11q-106 0 -182 -30q-75 -29 -125 -87t-77 -143q-28 -87 -38 -199h465l-22 -94h-447 q-2 -38 -2 -45v-29v-28q0 -7 2 -45h412l-22 -90h-386q10 -120 39 -206q28 -85 79 -139q48 -51 124 -76q73 -24 176 -24q81 0 158 13q82 14 160 36l-19 -116q-69 -20 -143 -31q-83 -12 -166 -12q-135 0 -228 34q-94 34 -160 105q-63 67 -101 173q-38 105 -50 243h-190z" />
<glyph unicode="&#x2122;" horiz-adv-x="1245" d="M74 1339v86h422l-15 -86h-151v-467h-103v467h-153zM535 872l43 547l118 8l144 -399h8l121 391l123 8l59 -555h-96l-43 402l-113 -356l-117 -7l-127 359l-28 -398h-92z" />
<glyph unicode="&#x25fc;" horiz-adv-x="993" d="M0 0v993h993v-993h-993z" />
</font>
</defs>
</svg>
