<?xml version="1.0" standalone="no"?>
<!DOCTYPE svg PUBLIC "-//W3C//DTD SVG 1.1//EN" "http://www.w3.org/Graphics/SVG/1.1/DTD/svg11.dtd" >
<svg xmlns="http://www.w3.org/2000/svg">
<metadata></metadata>
<defs>
<font id="fs_silas_sans_webextrabold" horiz-adv-x="1236" >
<font-face units-per-em="2048" ascent="1536" descent="-512" />
<missing-glyph horiz-adv-x="507" />
<glyph unicode="&#xfb01;" horiz-adv-x="1224" d="M53 760v229h133v135q0 353 463 353q193 0 346 -47l37 -236q-157 49 -325 49q-181 0 -181 -153v-101h592v-989h-340v760h-252v-760h-340v760h-133z" />
<glyph unicode="&#xfb02;" horiz-adv-x="1259" d="M53 760v229h133v123q0 365 426 365q139 0 287 -35l252 18v-1460h-340v1219q-72 24 -145 24q-140 0 -140 -139v-115h172l-34 -229h-138v-760h-340v760h-133z" />
<glyph unicode="&#xfb03;" horiz-adv-x="1816" d="M53 760v229h133v139q0 349 367 349q51 0 109 -7l30 -229q-10 2 -19 2h-26q-121 0 -121 -121v-133h252v139q0 349 463 349q199 0 348 -47l35 -236q-171 49 -326 49q-180 0 -180 -129v-125h592v-989h-340v760h-252v-760h-340v760h-252v-760h-340v760h-133z" />
<glyph unicode="&#xfb04;" horiz-adv-x="1851" d="M53 760v229h133v139q0 349 367 349q51 0 109 -7l30 -229q-16 2 -23 2h-22q-121 0 -121 -123v-131h252v144q0 344 414 344q55 0 128 -10q71 -10 138 -25l287 18v-1460h-340v1219q-73 24 -148 24q-139 0 -139 -119v-135h172l-33 -229h-139v-760h-340v760h-252v-760h-340 v760h-133z" />
<glyph horiz-adv-x="1228" />
<glyph horiz-adv-x="1228" />
<glyph unicode="&#xd;" horiz-adv-x="507" />
<glyph unicode=" "  horiz-adv-x="507" />
<glyph unicode="&#x09;" horiz-adv-x="507" />
<glyph unicode="&#xa0;" horiz-adv-x="507" />
<glyph unicode="!" horiz-adv-x="491" d="M63 1423l365 29l-27 -971l-292 -41zM90 0v283l342 26v-309h-342z" />
<glyph unicode="&#x22;" horiz-adv-x="892" d="M61 930v581l322 27l-33 -580zM510 930v581l321 27l-32 -580z" />
<glyph unicode="#" horiz-adv-x="1247" d="M-51 348l31 230h231l39 217h-238l31 227h248l63 389h299l-63 -389h172l63 389h299l-63 -389h237l-32 -227h-244l-39 -217h244l-35 -230h-248l-61 -348h-299l61 348h-176l-63 -348h-300l64 348h-221zM510 578h174l39 217h-174z" />
<glyph unicode="$" horiz-adv-x="1148" d="M37 1008q0 194 106 291q107 98 306 128v162l225 25v-184q69 -7 155 -25q78 -17 146 -45l47 -281q-86 42 -169 68q-87 27 -179 33v-330l92 -27q165 -46 248 -143q82 -95 82 -277q0 -178 -106 -281q-104 -101 -316 -134v-162l-225 -27v185q-213 17 -353 88l-30 276 q174 -103 383 -125v357l-62 14q-84 21 -151 51q-65 30 -110 79q-45 50 -67 117t-22 167zM360 1036q0 -53 23 -79q23 -25 66 -42v240q-44 -15 -66 -40q-23 -26 -23 -79zM674 250q47 23 71 57q25 36 25 88q0 53 -25 81t-71 46v-272z" />
<glyph unicode="%" horiz-adv-x="1943" d="M31 1036q0 400 377 400q378 0 378 -400q0 -399 -378 -399q-377 0 -377 399zM348 1036q0 -111 11 -143q12 -35 49 -35t49 35t12 143q0 110 -12 144t-49 34t-49 -34q-11 -32 -11 -144zM362 131l928 1344l289 -181l-932 -1364zM1159 379q0 399 377 399t377 -399t-377 -399 t-377 399zM1477 379q0 -111 11 -143q12 -35 48 -35t48 35q11 32 11 143t-11 143q-12 35 -48 35t-48 -35q-11 -32 -11 -143z" />
<glyph unicode="&#x26;" horiz-adv-x="1413" d="M33 403q0 138 72 234t217 164q-73 67 -114 146q-42 81 -42 159q0 156 120 243t332 87q211 0 329 -85t118 -237q0 -113 -71 -213q-70 -98 -195 -160l184 -184q15 47 28 125q10 60 15 156l301 45q0 -153 -36 -296q-37 -145 -101 -243l205 -192l-201 -199l-180 178 q-79 -71 -201 -112q-117 -39 -256 -39q-249 0 -386 112q-138 112 -138 311zM385 403q0 -77 52 -122q53 -45 147 -45q65 0 123 19q59 19 100 54l-289 299q-63 -30 -98 -85t-35 -120zM524 1102q0 -40 29 -87t78 -87q41 34 65 78q25 47 25 92q0 44 -28 69t-77 25q-42 0 -67 -25 t-25 -65z" />
<glyph unicode="'" horiz-adv-x="444" d="M61 930v581l322 27l-33 -580z" />
<glyph unicode="(" horiz-adv-x="751" d="M104 596q0 245 83 458q81 208 264 423l241 -152q-131 -177 -191 -351q-61 -178 -61 -378q0 -201 61 -379q60 -175 191 -350l-241 -152q-183 215 -264 423q-83 213 -83 458z" />
<glyph unicode=")" horiz-adv-x="751" d="M61 -133q133 177 192 350q60 175 60 379q0 202 -60 378q-59 172 -192 351l242 152q181 -213 263 -423q83 -213 83 -458t-83 -458q-82 -210 -263 -423z" />
<glyph unicode="*" horiz-adv-x="776" d="M0 1202l98 287l199 -133l-94 219h368l-79 -219l186 137l98 -291l-250 -4l195 -145l-268 -185l-60 205l-67 -205l-273 183l197 143z" />
<glyph unicode="+" d="M129 389v281h330v319l311 23v-342h365l-58 -281h-307v-305l-311 -25v330h-330z" />
<glyph unicode="," horiz-adv-x="507" d="M61 -170q31 20 60 43q21 17 36 37q12 16 19 40q7 23 8 50h-112v297l379 22v-180q0 -83 -11 -147t-40 -112q-31 -51 -82 -99q-54 -51 -136 -111z" />
<glyph unicode="-" horiz-adv-x="636" d="M57 397v260h539l-37 -260h-502z" />
<glyph unicode="." horiz-adv-x="454" d="M57 0v283l340 26v-309h-340z" />
<glyph unicode="/" horiz-adv-x="804" d="M29 -20v86l422 1370h325v-93l-411 -1363h-336z" />
<glyph unicode="0" horiz-adv-x="1378" d="M131 709q0 192 31 333q30 136 97 226q65 87 172 128q104 40 257 40q151 0 256 -40q108 -41 173 -128q67 -90 97 -226q31 -141 31 -333t-31 -335q-30 -137 -97 -227q-65 -87 -173 -128q-103 -39 -256 -39q-156 0 -257 39q-107 41 -172 128q-67 90 -97 227q-31 143 -31 335 zM492 705q0 -132 11 -212q13 -91 35 -143q25 -57 60 -81q37 -25 90 -25q54 0 91 25q38 26 62 81q22 52 35 143q11 80 11 212q0 252 -46 359t-153 107q-106 0 -151 -107q-45 -108 -45 -359z" />
<glyph unicode="1" horiz-adv-x="894" d="M74 1255l381 156h258v-1411h-342v1098l-256 -101z" />
<glyph unicode="2" horiz-adv-x="1175" d="M88 203q651 509 651 780q0 191 -219 191q-192 0 -418 -89l29 279q117 35 218 53q109 19 202 19q508 0 508 -430q0 -340 -516 -744h549l-72 -262h-893z" />
<glyph unicode="3" horiz-adv-x="1220" d="M84 346q114 -58 225 -83q103 -23 187 -23q130 0 192 50t62 138q0 86 -63 139q-65 54 -206 54h-176v249h223q88 0 137 42q50 42 50 118q0 78 -57 123t-173 45q-33 0 -81 -5q-38 -4 -90 -14q-46 -9 -93 -24q-50 -16 -88 -33l43 252q72 25 180 44q102 18 205 18 q239 0 373 -104q133 -103 133 -279q0 -113 -53 -184q-51 -69 -140 -97v-4q110 -46 169 -138t59 -214q0 -97 -38 -179q-37 -79 -111 -138q-71 -56 -177 -88q-103 -31 -237 -31q-114 0 -228 21q-111 20 -196 56z" />
<glyph unicode="4" horiz-adv-x="1294" d="M70 481l497 930h332v-102l-410 -746h256v295l332 29v-324h168l-35 -276h-133v-287h-332v287h-634z" />
<glyph unicode="5" horiz-adv-x="1226" d="M111 309q106 -41 214 -65q106 -23 197 -23q248 0 248 225q0 197 -283 197q-161 0 -327 -43l51 811h815l-47 -256h-481l-15 -258q40 4 83 6q56 2 83 2q475 0 475 -446q0 -479 -557 -479q-218 0 -401 55z" />
<glyph unicode="6" horiz-adv-x="1302" d="M123 672q0 391 160 578q159 186 483 186q78 0 153 -13q63 -11 128 -37l20 -258q-71 35 -131 49q-66 15 -125 15q-137 0 -218 -81q-82 -82 -106 -234q52 28 125 42q69 13 144 13q210 0 323 -116t113 -339q0 -253 -140 -375t-382 -122q-144 0 -250 44q-104 43 -170 132 t-96 217q-31 133 -31 299zM477 631q1 -177 58 -285q55 -106 149 -106q64 0 112 51t48 162q0 103 -48 156t-137 53q-32 0 -88 -8q-58 -8 -94 -23z" />
<glyph unicode="7" horiz-adv-x="1214" d="M63 1155l52 256h960l90 -143l-669 -1307l-301 105l538 1089h-670z" />
<glyph unicode="8" horiz-adv-x="1296" d="M113 367q0 248 252 362q-209 125 -209 348q0 359 493 359q484 0 484 -371q0 -209 -222 -309q275 -123 275 -375q0 -401 -541 -401q-532 0 -532 387zM463 387q0 -156 186 -156q182 0 182 146q0 141 -225 229q-143 -67 -143 -219zM512 1065q0 -133 164 -195q108 45 108 189 q0 145 -137 145q-135 0 -135 -139z" />
<glyph unicode="9" horiz-adv-x="1310" d="M119 942q0 251 133 372q134 122 366 122q287 0 429 -180q141 -178 141 -531q0 -386 -166 -565q-166 -180 -477 -180q-164 0 -281 49l-20 258q131 -64 260 -64q58 0 116 16q55 15 96 52q41 36 68 97q26 58 37 149q-50 -26 -124 -40q-73 -14 -142 -14q-211 0 -324 116 q-112 115 -112 343zM467 963q0 -105 48 -157t134 -52q39 0 88 7q58 8 94 23q-6 192 -53 292t-145 100q-72 0 -119 -53t-47 -160z" />
<glyph unicode=":" horiz-adv-x="454" d="M57 0v283l340 26v-309h-340zM57 727v283l340 26v-309h-340z" />
<glyph unicode=";" horiz-adv-x="507" d="M61 -170q31 20 60 43q21 17 36 37q12 16 19 40q7 23 8 50h-112v297l379 22v-180q0 -83 -11 -147t-40 -112q-31 -51 -82 -99q-54 -51 -136 -111zM88 727v283l340 26v-309h-340z" />
<glyph unicode="&#x3c;" d="M211 471v145l678 424l160 -227l-426 -270l426 -269l-158 -231z" />
<glyph unicode="=" d="M129 207v280h1006l-58 -280h-948zM129 664v280h1006l-58 -280h-948z" />
<glyph unicode="&#x3e;" d="M190 272l424 271l-424 266l156 231l680 -428v-143l-676 -426z" />
<glyph unicode="?" horiz-adv-x="940" d="M23 1102l30 274q109 30 207 44q109 16 213 16q116 0 206 -28q84 -26 143 -79q57 -51 84 -125q28 -76 28 -164q0 -69 -13 -121q-14 -55 -44 -99q-29 -42 -79 -81q-43 -33 -118 -71l-66 -33q-59 -28 -88 -54q-27 -24 -32 -71l-2 -29l-291 -41l-6 88q-4 66 2 115t26 84 q21 38 59 68q39 31 97 63l67 37q42 24 59 38q22 19 33 37q11 17 14 41q3 21 3 50q0 55 -40 94q-41 39 -132 39t-176 -24q-90 -25 -184 -68zM182 0v283l340 26v-309h-340z" />
<glyph unicode="@" horiz-adv-x="1789" d="M39 426q0 175 61 313q62 140 176 236q112 94 279 148q165 53 371 53q189 0 345 -46q153 -45 259 -130q108 -87 164 -206q57 -121 57 -276q0 -201 -114 -315q-115 -115 -312 -115q-173 0 -281 102q-43 -35 -102 -57q-53 -20 -115 -20q-138 0 -218 92q-79 91 -79 254 q0 169 82 263q83 95 228 95q56 0 108 -17q58 -19 101 -46l30 45l187 6v-412q0 -42 19 -65q20 -25 54 -25q61 0 95 54q34 53 34 149q0 205 -143 320q-145 116 -397 116q-132 0 -239 -35q-105 -34 -179 -101q-73 -66 -114 -161q-40 -93 -40 -213q0 -114 39 -202 q38 -87 113 -151q72 -62 178 -95q105 -33 238 -33q63 0 131 5q61 4 120 15q56 10 115 24q49 12 117 32l-33 -236q-103 -36 -209 -53q-117 -19 -239 -19q-206 0 -371 50q-168 51 -279 140q-115 92 -176 222q-61 129 -61 295zM848 457q0 -74 16 -103q16 -30 58 -30q26 0 43 10 v260q-26 10 -43 10q-42 0 -58 -34q-16 -33 -16 -113z" />
<glyph unicode="A" horiz-adv-x="1359" d="M31 0v76l432 1329l434 18l432 -1347v-76h-336l-82 274h-469l-84 -274h-327zM520 530h314l-68 230q-5 15 -52 174q-27 90 -34 178q-10 -92 -36 -177q-23 -77 -54 -175z" />
<glyph unicode="B" horiz-adv-x="1329" d="M113 0v1411h546q163 0 252 -22q90 -22 152 -70q56 -44 80 -110t24 -169q0 -108 -33 -175q-34 -69 -102 -113q105 -44 159 -127q54 -84 54 -219q0 -110 -33 -183q-33 -74 -104 -123q-76 -51 -192 -75q-120 -25 -289 -25h-514zM463 229h219q122 0 168 40q47 41 47 147 q0 98 -47 139t-168 41h-219v-367zM463 854h170q108 0 151 36t43 128q0 90 -44 125t-154 35h-166v-324z" />
<glyph unicode="C" horiz-adv-x="1290" d="M82 694q0 196 45 337q45 140 131 231q86 90 213 132t293 42q116 0 208 -18q88 -17 173 -42l41 -276q-94 34 -191 57q-98 23 -188 23q-191 0 -275 -114q-83 -113 -83 -366q0 -128 21 -217q20 -85 67 -143q46 -57 116 -80q72 -24 174 -24q103 0 203 21q97 20 195 56 l-45 -266q-88 -32 -187 -49q-105 -18 -227 -18q-177 0 -300 39q-128 41 -213 127q-84 85 -128 223q-43 133 -43 325z" />
<glyph unicode="D" horiz-adv-x="1458" d="M113 0v1411h514q217 0 359 -34q148 -35 231 -114q84 -80 122 -215q37 -132 37 -333q0 -205 -36 -342q-37 -140 -120 -220q-87 -84 -228 -118q-145 -35 -353 -35h-526zM463 252h182q106 0 175 22q70 22 114 75q42 50 60 140q18 89 18 222q0 125 -19 215q-18 86 -61 138 q-44 53 -115 74q-72 21 -178 21h-176v-907z" />
<glyph unicode="E" horiz-adv-x="1130" d="M113 0v1411h968l-45 -256h-573v-313h448v-252h-448v-334h627l-46 -256h-931z" />
<glyph unicode="F" horiz-adv-x="1122" d="M113 0v1411h968l-45 -256h-573v-311h481v-254h-481v-590h-350z" />
<glyph unicode="G" horiz-adv-x="1466" d="M80 700q0 379 184 557q185 179 578 179q102 0 211 -16q104 -15 217 -48l43 -274q-134 41 -244 60q-114 20 -217 20q-210 0 -308 -115t-98 -363q0 -242 79 -352t249 -110q132 0 225 59v258h-198l-47 268h600v-823h-269l-34 78q-67 -51 -154 -75q-82 -23 -203 -23 q-318 0 -466 174q-148 173 -148 546z" />
<glyph unicode="H" horiz-adv-x="1425" d="M113 0v1399l350 20v-569h500v549l350 20v-1419h-350v594h-500v-594h-350z" />
<glyph unicode="I" horiz-adv-x="585" d="M119 0v1399l348 20v-1419h-348z" />
<glyph unicode="J" horiz-adv-x="888" d="M25 264q45 -13 96 -20q45 -6 98 -6q113 0 161 57t48 192v912l350 20v-964q0 -254 -115 -365q-114 -110 -352 -110q-66 0 -120 6q-56 6 -119 22z" />
<glyph unicode="K" horiz-adv-x="1310" d="M113 0v1399l350 20v-567l565 575l223 -204l-428 -422l441 -707v-94h-353l-331 561l-117 -115v-446h-350z" />
<glyph unicode="L" horiz-adv-x="1099" d="M113 0v1399l350 20v-1163h596l-47 -256h-899z" />
<glyph unicode="M" horiz-adv-x="1753" d="M90 0l76 1401l424 22l278 -888h27l268 870l428 18l72 -1423h-340l-16 825h-19l-235 -733h-346l-228 731h-18l-21 -823h-350z" />
<glyph unicode="N" horiz-adv-x="1503" d="M113 0v1384l350 19l598 -883v864l330 19v-1403h-367l-582 846v-846h-329z" />
<glyph unicode="O" horiz-adv-x="1490" d="M82 707q0 197 37 335q38 140 117 227t206 127q126 40 308 40q180 0 303 -40q125 -41 204 -127q80 -88 116 -227q36 -140 36 -335q0 -197 -36 -335q-36 -139 -116 -226q-79 -86 -204 -127q-120 -39 -303 -39q-185 0 -308 39q-127 40 -206 127t-117 226q-37 136 -37 335z M446 707q0 -125 17 -218q16 -90 52 -146t93 -82q56 -25 137 -25q82 0 138 25q57 26 93 82t52 146q16 87 16 218q0 130 -16 217q-16 90 -52 146q-35 56 -93 83q-57 27 -138 27q-80 0 -137 -27q-58 -27 -93 -83q-36 -56 -52 -146q-17 -93 -17 -217z" />
<glyph unicode="P" horiz-adv-x="1261" d="M113 0v1411h505q153 0 263 -26q111 -26 176 -81q67 -57 99 -146q32 -90 32 -216q0 -134 -30 -225q-31 -94 -95 -151q-65 -58 -169 -85q-100 -26 -251 -26h-180v-455h-350zM463 698h143q121 0 171 56t50 188q0 122 -47 174q-46 51 -157 51h-160v-469z" />
<glyph unicode="Q" horiz-adv-x="1490" d="M82 707q0 197 37 335q38 140 117 227t206 127q126 40 308 40q180 0 303 -40q125 -41 204 -127q80 -88 116 -227q36 -140 36 -335q0 -275 -72 -436q-72 -160 -231 -232l276 -170l-176 -240l-479 351q-171 1 -297 43q-124 41 -200 129t-112 224t-36 331zM446 707 q0 -125 17 -218q16 -90 52 -146t93 -82q56 -25 137 -25q82 0 138 25q57 26 93 82t52 146q16 87 16 218q0 130 -16 217q-16 90 -52 146q-35 56 -93 83q-57 27 -138 27q-80 0 -137 -27q-58 -27 -93 -83q-36 -56 -52 -146q-17 -93 -17 -217z" />
<glyph unicode="R" horiz-adv-x="1259" d="M113 0v1411h522q152 0 250 -23q103 -24 167 -75t93 -135q29 -85 29 -203q0 -87 -16 -157q-15 -68 -49 -116q-34 -49 -89 -80q-58 -33 -133 -53l319 -493v-76h-362l-299 510h-82v-510h-350zM463 770h145q118 0 167 44q48 44 48 155t-53 158t-184 47h-123v-404z" />
<glyph unicode="S" horiz-adv-x="1136" d="M61 989q0 236 137 341q138 106 418 106q102 0 194 -14q91 -14 169 -36l41 -272q-94 35 -185 53q-98 19 -192 19q-117 0 -171 -33t-54 -117q0 -40 11 -65q13 -28 35 -45q27 -21 60 -31q51 -16 88 -25l111 -24q104 -23 171 -56q71 -35 116 -84q43 -47 65 -118 q21 -67 21 -160q0 -235 -134 -342q-133 -106 -421 -106q-110 0 -218 15q-109 15 -194 48l-43 283q103 -48 204 -74q104 -27 210 -27q122 0 181 38q58 37 58 126q0 70 -41 108q-40 37 -143 60l-106 23q-110 23 -184 57q-75 35 -120 84q-44 48 -64 116t-20 152z" />
<glyph unicode="T" horiz-adv-x="1224" d="M41 1155v256h1163l-47 -256h-375v-1155h-350v1155h-391z" />
<glyph unicode="U" horiz-adv-x="1439" d="M106 553v846l347 16v-858q0 -173 59 -241t207 -68q76 0 124 16q53 18 81 53q31 38 44 98q13 58 13 146v838l352 20v-866q0 -161 -31 -269q-31 -109 -105 -178q-71 -67 -190 -97q-115 -29 -288 -29q-174 0 -287 29q-118 30 -189 97q-74 69 -105 178q-32 111 -32 269z" />
<glyph unicode="V" horiz-adv-x="1388" d="M45 1335v76h336l227 -760q28 -90 48 -175q23 -96 38 -177q13 66 40 177q19 79 50 175l232 760h327v-76l-434 -1335h-436z" />
<glyph unicode="W" horiz-adv-x="2025" d="M86 1315v96h340l137 -569q36 -158 44 -195q23 -107 30 -196q7 92 28 196q19 96 48 195l141 504h342l131 -504q27 -112 44 -195q20 -97 30 -196q10 82 31 197q15 83 41 196l137 567h332v-86l-377 -1325h-353l-127 526q-18 80 -43 197q-20 95 -28 201q-10 -100 -33 -199 l-45 -197l-127 -528h-352z" />
<glyph unicode="X" horiz-adv-x="1349" d="M41 0v100l432 633l-391 578v100h338l268 -395l254 395h324v-100l-389 -572l434 -639v-100h-338l-314 461l-294 -461h-324z" />
<glyph unicode="Y" horiz-adv-x="1294" d="M45 1319v92h326l151 -309q38 -80 75 -172q32 -80 58 -178q28 90 62 178q33 85 74 172l151 309h307v-92l-422 -787v-532h-350v520z" />
<glyph unicode="Z" horiz-adv-x="1323" d="M82 195l723 960h-715l45 256h1041l45 -205l-719 -950h745l-47 -256h-1075z" />
<glyph unicode="[" horiz-adv-x="716" d="M106 -295v1731h535l47 -248h-235v-1235h237l-51 -248h-533z" />
<glyph unicode="\" horiz-adv-x="804" d="M29 1343v93h325l422 -1370v-86h-336z" />
<glyph unicode="]" horiz-adv-x="716" d="M27 -47h237v1235h-235l45 248h536v-1731h-532z" />
<glyph unicode="^" horiz-adv-x="1245" d="M96 819l422 592h211l420 -592l-213 -147l-305 426l-324 -428z" />
<glyph unicode="_" horiz-adv-x="1085" d="M-20 -80h1126l-25 -223h-1101v223z" />
<glyph unicode="`" horiz-adv-x="884" d="M82 1380l164 250l530 -346l-112 -178z" />
<glyph unicode="a" horiz-adv-x="1128" d="M45 289q0 313 436 313h160v57q0 60 -32 87q-33 28 -103 28q-74 0 -162 -19q-91 -20 -215 -63l29 252q112 35 203 51q96 17 190 17q227 0 328 -82q102 -82 102 -262v-328q0 -102 93 -102q12 0 26 2l-58 -238q-65 -22 -133 -22q-177 0 -233 98q-57 -48 -128 -73t-169 -25 q-159 0 -246 80q-88 81 -88 229zM387 297q0 -88 109 -88q69 0 145 31v141h-135q-64 0 -92 -22q-27 -21 -27 -62z" />
<glyph unicode="b" horiz-adv-x="1171" d="M100 0v1434l340 26v-530q112 82 271 82q409 0 409 -502q0 -530 -446 -530q-174 0 -281 92l-16 -72h-277zM440 252q69 -39 150 -39q184 0 184 276q0 295 -182 295q-90 0 -152 -55v-477z" />
<glyph unicode="c" horiz-adv-x="980" d="M51 498q0 266 124 390t390 124q90 0 165 -15t147 -45l32 -256q-90 44 -161 63q-72 19 -146 19q-107 0 -156 -67t-49 -213t50 -216q49 -69 161 -69q78 0 149 20q74 21 163 66l-21 -246q-70 -36 -158 -55q-85 -18 -196 -18q-257 0 -375 124q-119 125 -119 394z" />
<glyph unicode="d" horiz-adv-x="1165" d="M51 492q0 520 420 520q148 0 254 -80v502l340 26v-1460h-277l-18 72q-101 -92 -291 -92q-428 0 -428 512zM397 492q0 -279 181 -279q86 0 147 37v479q-65 55 -150 55q-178 0 -178 -292z" />
<glyph unicode="e" horiz-adv-x="1083" d="M51 485q0 269 120 398t380 129q247 0 364 -122q117 -121 117 -382v-102h-635q0 -102 57 -149q56 -46 183 -46q81 0 175 18q90 17 200 58l-45 -244q-173 -63 -381 -63q-282 0 -408 117q-127 118 -127 388zM397 616h305q-6 166 -153 166q-76 0 -111 -44t-41 -122z" />
<glyph unicode="f" horiz-adv-x="811" d="M53 760v229h133v107q0 197 94 289t298 92q50 0 110 -7q54 -6 105 -18l38 -240q-52 16 -98 24q-42 7 -88 7q-119 0 -119 -131v-123h238l-33 -229h-205v-760h-340v760h-133z" />
<glyph unicode="g" horiz-adv-x="1169" d="M51 514q0 498 445 498q166 0 258 -72l26 47l289 10v-925q0 -146 -28 -244q-27 -93 -89 -154q-52 -52 -139 -78t-215 -26q-91 0 -161 9t-136 30l-39 246q112 -50 293 -50q93 0 131 37q43 33 43 135v64q-68 -55 -237 -55q-224 0 -332 130q-109 132 -109 398zM397 516 q0 -297 181 -297q87 0 151 41v475q-35 19 -76 32q-34 11 -78 11q-178 0 -178 -262z" />
<glyph unicode="h" horiz-adv-x="1173" d="M100 0v1434l340 26v-522q125 74 273 74q364 0 364 -359v-653h-340v618q0 152 -139 152q-95 0 -158 -45v-725h-340z" />
<glyph unicode="i" horiz-adv-x="561" d="M111 0v965l340 24v-989h-340zM117 1157v246l325 22v-268h-325z" />
<glyph unicode="j" horiz-adv-x="561" d="M-180 -166q88 -24 153 -24q138 0 138 133v1022l340 24v-1016q0 -204 -103 -304q-102 -99 -317 -99q-87 0 -172 24zM121 1157v246l325 22v-268h-325z" />
<glyph unicode="k" horiz-adv-x="1101" d="M100 0v1434l340 26v-588q0 -64 -3 -130q-3 -65 -9 -121l6 -3q42 52 87 95q47 45 87 84l260 235l195 -205l-279 -237l328 -533v-57h-326l-237 385l-109 -100v-285h-340z" />
<glyph unicode="l" horiz-adv-x="552" d="M106 0v1434l340 26v-1460h-340z" />
<glyph unicode="m" horiz-adv-x="1757" d="M102 0v963l285 36l27 -79q136 92 286 92q193 0 283 -105q74 54 150 79q80 26 172 26q366 0 366 -348v-664h-340v629q0 141 -131 141q-80 0 -143 -45v-725h-340v629q0 141 -131 141q-81 0 -144 -45v-725h-340z" />
<glyph unicode="n" horiz-adv-x="1165" d="M102 0v963l285 36l27 -79q140 92 301 92q364 0 364 -359v-653h-340v618q0 152 -139 152q-92 0 -158 -45v-725h-340z" />
<glyph unicode="o" horiz-adv-x="1144" d="M51 496q0 273 124 394q125 122 398 122q272 0 397 -122q124 -121 124 -394q0 -274 -124 -395t-397 -121q-274 0 -398 121t-124 395zM397 496q0 -154 42 -220q41 -65 134 -65q94 0 134 65q41 67 41 220q0 152 -41 219q-40 65 -134 65q-93 0 -134 -65q-42 -66 -42 -219z " />
<glyph unicode="p" horiz-adv-x="1171" d="M102 -391v1354l260 36l31 -90q75 55 147 79q70 24 158 24q207 0 315 -122q107 -120 107 -382q0 -261 -109 -394q-110 -134 -327 -134q-74 0 -131 15q-58 15 -111 44v-406zM442 254q61 -41 140 -41q98 0 145 70t47 217q0 284 -180 284q-86 0 -152 -57v-473z" />
<glyph unicode="q" horiz-adv-x="1167" d="M51 514q0 498 463 498q169 0 272 -86l35 61l246 10v-1355l-340 -25v422q-94 -59 -235 -59q-441 0 -441 534zM397 508q0 -295 183 -295q86 0 147 37v477q-60 57 -147 57q-183 0 -183 -276z" />
<glyph unicode="r" horiz-adv-x="759" d="M100 0v963l252 36l31 -81q44 38 115 66q72 28 153 28q39 0 51 -1q6 -1 18.5 -2t18.5 -1l-24 -254q-9 1 -26 3q-10 1 -32 1q-53 0 -113 -19q-57 -18 -104 -59v-680h-340z" />
<glyph unicode="s" horiz-adv-x="960" d="M82 676q0 171 111 254q110 82 309 82q98 0 189 -18q97 -19 169 -44l14 -241q-17 6 -86 27q-49 15 -92 23q-44 9 -91 15q-43 6 -81 6q-61 0 -84 -16q-24 -16 -24 -45q0 -31 23 -47q24 -17 79 -27l129 -24q146 -28 213 -100q66 -71 66 -202q0 -182 -118 -261 q-116 -78 -329 -78q-104 0 -184 14q-90 16 -170 43l-23 248q99 -42 183 -58q83 -16 164 -16q87 0 114 17q29 18 29 46q0 24 -23 44t-94 32l-108 19q-146 24 -216 101q-69 76 -69 206z" />
<glyph unicode="t" horiz-adv-x="802" d="M33 760v229h139l49 254l279 19v-273h237l-32 -229h-205v-428q0 -119 141 -119q63 0 121 23l-33 -226q-43 -14 -101 -22q-61 -8 -116 -8q-173 0 -262 73q-90 73 -90 246v461h-127z" />
<glyph unicode="u" horiz-adv-x="1146" d="M98 401v564l340 24v-592q0 -100 32 -141t105 -41q75 0 105 41q31 42 31 141v568l340 24v-588q0 -113 -25 -197q-24 -80 -81 -130q-58 -50 -147 -72t-223 -22q-133 0 -222 22t-147 72q-57 49 -82 130q-26 83 -26 197z" />
<glyph unicode="v" horiz-adv-x="1032" d="M12 918v71h336l92 -330q25 -92 41 -173q19 -95 33 -195h16q11 97 32 195q19 87 42 173l92 330h324v-71l-315 -918h-377z" />
<glyph unicode="w" horiz-adv-x="1536" d="M12 918v71h334l64 -289q17 -79 31 -166q14 -86 24 -190h16q11 97 29 190q15 79 39 166l67 254h291l64 -254q18 -69 38 -166q16 -76 29 -190h17q13 114 29 190q18 85 40 166l74 289h326v-71l-279 -918h-375l-49 211q-17 77 -31 167q-14 88 -24 189h-16q-10 -87 -28 -188 q-10 -56 -34 -168l-47 -211h-379z" />
<glyph unicode="x" horiz-adv-x="1077" d="M23 0v70l141 196q43 59 92 122q48 62 100 114l-301 416v71h330l174 -272q36 68 55 102q14 26 60 101l43 69h309v-71l-102 -152q-45 -66 -90 -129q-47 -66 -101 -117l322 -450v-70h-330l-201 291q-38 -68 -58 -101q-23 -39 -63 -98l-61 -92h-319z" />
<glyph unicode="y" horiz-adv-x="1087" d="M12 913v76h353l108 -348q25 -85 42 -173q15 -74 32 -196h16q11 99 32 196q17 81 44 173l106 348h330v-76l-504 -1337l-342 92l142 312z" />
<glyph unicode="z" horiz-adv-x="970" d="M51 158l436 602h-432l47 229h807v-151l-432 -609h457l-51 -229h-801z" />
<glyph unicode="{" horiz-adv-x="821" d="M63 473v225q75 8 105 44q31 37 31 118v219q0 104 20 171q21 71 65 115t115 63q74 20 176 20h181l39 -246h-136q-61 0 -87 -27q-25 -26 -25 -94v-274q0 -85 -33 -135t-111 -84v-4q78 -30 111 -80t33 -139v-275q0 -67 25 -93q26 -28 87 -28h136l-39 -245h-181 q-107 0 -176 20q-70 20 -116 65q-45 44 -65 113q-19 67 -19 170v219q0 85 -31 122q-29 35 -105 40z" />
<glyph unicode="|" horiz-adv-x="557" d="M113 -47v1479l331 18v-1479z" />
<glyph unicode="}" horiz-adv-x="821" d="M27 -31h135q61 0 87 28q25 26 25 93v275q0 89 33 139t111 80v4q-78 34 -111 84t-33 135v274q0 68 -25 94q-25 27 -87 27h-135l39 246h180q102 0 176 -20q73 -20 116 -63q42 -42 64 -115q21 -70 21 -171v-219q0 -82 30 -118t105 -44v-225q-76 -5 -105 -40 q-30 -36 -30 -122v-219q0 -101 -21 -170q-21 -70 -64 -113q-44 -44 -116 -65q-69 -20 -176 -20h-180z" />
<glyph unicode="~" horiz-adv-x="1245" d="M51 473q74 164 162 236q87 71 215 71q67 0 133 -18q64 -17 150 -62q62 -31 102 -47q35 -14 59 -14q36 0 71 36q34 35 75 116l178 -144q-57 -147 -130 -211q-72 -63 -181 -63q-66 0 -121 16q-57 17 -129 51q-71 37 -119 54q-45 16 -82 16q-56 0 -100 -37q-46 -38 -92 -123 z" />
<glyph unicode="&#xa1;" horiz-adv-x="491" d="M68 702v310h342v-283zM72 -440l26 970l293 41l45 -983z" />
<glyph unicode="&#xa2;" horiz-adv-x="1058" d="M109 504q0 248 107 370q108 123 341 138v166l236 22v-207q64 -15 139 -49l35 -252q-89 53 -174 76v-545q45 11 90 30q43 19 94 48l-21 -244q-29 -15 -80 -34q-44 -16 -83 -23v-184l-236 -23v193q-234 15 -341 138t-107 380zM428 502q0 -121 31 -191q30 -68 98 -92v555 q-68 -23 -98 -89q-31 -68 -31 -183z" />
<glyph unicode="&#xa3;" horiz-adv-x="1181" d="M68 203q176 57 176 260v133h-144v231h144v205q0 404 407 404q178 0 346 -54l21 -262q-171 54 -287 54q-139 0 -139 -158v-189h352l-45 -231h-307v-135q0 -144 -94 -205h626l-73 -256h-951z" />
<glyph unicode="&#xa4;" horiz-adv-x="1247" d="M47 371l150 145q-41 87 -41 193q0 103 41 190l-150 148l221 215l162 -164q86 30 197 30q106 0 196 -30l162 164l221 -215l-151 -148q43 -83 43 -190q0 -111 -43 -193l151 -145l-221 -215l-162 163q-90 -30 -196 -30q-111 0 -197 30l-162 -163zM494 709q0 -152 133 -152 t133 152q0 151 -133 151t-133 -151z" />
<glyph unicode="&#xa5;" horiz-adv-x="1251" d="M18 1319v92h326l152 -309q31 -66 74 -172q35 -87 59 -178q32 103 61 178q33 85 74 172l151 309h308v-92l-336 -627h188l-43 -229h-231v-86h215l-43 -230h-172v-147h-350v147h-248v230h248v86h-248v229h153z" />
<glyph unicode="&#xa6;" horiz-adv-x="557" d="M113 -47v647l331 25v-648zM113 852v573l331 25v-573z" />
<glyph unicode="&#xa7;" horiz-adv-x="1036" d="M63 705q0 158 146 227q-86 80 -86 188q0 154 103 235q104 81 300 81q72 0 152 -12q91 -14 158 -33l32 -244q-83 30 -153 44q-77 15 -144 15q-100 0 -100 -61q0 -50 90 -68l125 -26q138 -28 213 -102q74 -72 74 -181q0 -163 -131 -219q108 -99 108 -223q0 -169 -116 -257 q-118 -89 -338 -89q-92 0 -178 15q-82 14 -152 44l-47 272q86 -46 186 -75q95 -27 180 -27q127 0 127 100q0 61 -80 78l-165 29q-148 24 -226 98t-78 191zM397 758q0 -53 107 -76l110 -23q35 23 35 62q0 54 -92 72l-125 26q-35 -23 -35 -61z" />
<glyph unicode="&#xa8;" horiz-adv-x="866" d="M37 1157v246l317 22v-268h-317zM512 1157v246l315 22v-268h-315z" />
<glyph unicode="&#xa9;" horiz-adv-x="1718" d="M63 709q0 165 57 298q58 137 161 229q106 96 250 147q148 53 327 53t327 -53q145 -52 251 -147q101 -91 160 -229q57 -133 57 -298t-57 -298q-60 -140 -160 -230q-106 -95 -251 -147q-146 -52 -327 -52t-327 52q-144 51 -250 147q-102 92 -161 230q-57 134 -57 298z M344 709q0 -242 135 -374t379 -132q246 0 381 132t135 374q0 241 -135 374q-136 134 -381 134q-243 0 -379 -134q-135 -133 -135 -374zM514 717q0 181 94 272q95 92 279 92q132 0 217 -30l29 -195q-92 29 -189 29q-170 0 -170 -170t162 -170q107 0 221 47l-18 -195 q-57 -20 -128 -33q-63 -12 -118 -12q-186 0 -283 92q-96 92 -96 273z" />
<glyph unicode="&#xaa;" horiz-adv-x="739" d="M-6 977q0 43 12 76q12 32 47 61q40 33 109 51q71 19 168 19h39q-1 8 -7 18l-8 17q-15 14 -37 17q-21 3 -49 3q-48 0 -114 -21q-62 -20 -117 -44l29 219q52 22 137 39q81 16 164 16q94 0 152 -16q61 -17 106 -68q4 -6 23 -34q13 -19 20 -42q7 -24 12 -59q4 -31 4 -84v-78 q0 -35 17 -48q18 -14 73 -15l-26 -199q-52 -19 -95 -26q-42 -7 -73 -7q-55 0 -96 16q-42 16 -83 56q-34 -28 -77 -48q-47 -22 -101 -22q-116 0 -172 55q-57 55 -57 148zM303 995q0 -34 35 -34q6 0 14 -2q1 0 17 2v81h-4q-48 0 -55 -13t-7 -34z" />
<glyph unicode="&#xab;" horiz-adv-x="1103" d="M20 444v52l338 436l211 -146l-221 -317l223 -315l-206 -144zM512 444v52l338 436l211 -146l-221 -317l223 -315l-207 -144z" />
<glyph unicode="&#xac;" d="M129 389v281h1016v-484l-311 -24v227h-705z" />
<glyph unicode="&#xad;" horiz-adv-x="636" d="M57 397v260h539l-37 -260h-502z" />
<glyph unicode="&#xae;" horiz-adv-x="1718" d="M63 709q0 165 57 298q58 137 161 229q106 96 250 147q148 53 327 53t327 -53q145 -52 251 -147q101 -91 160 -229q57 -133 57 -298t-57 -298q-60 -140 -160 -230q-106 -95 -251 -147q-146 -52 -327 -52t-327 52q-144 51 -250 147q-102 92 -161 230q-57 134 -57 298z M344 709q0 -242 135 -374t379 -132q246 0 381 132t135 374q0 241 -135 374q-136 134 -381 134q-243 0 -379 -134q-135 -133 -135 -374zM559 360v709h354q130 0 201 -61q72 -62 72 -174q0 -66 -28 -117q-27 -49 -77 -72l131 -213v-72h-239l-133 232h-25v-232h-256zM815 752 h45q70 0 70 63q0 68 -70 68h-45v-131z" />
<glyph unicode="&#xaf;" horiz-adv-x="866" d="M68 1184v213h729l-47 -213h-682z" />
<glyph unicode="&#xb0;" horiz-adv-x="829" d="M82 1227q0 145 89 229q88 84 243 84q153 0 243 -84q91 -85 91 -229q0 -145 -91 -230q-90 -84 -243 -84q-154 0 -243 84t-89 230zM319 1227q0 -49 26 -78t69 -29q44 0 70 29t26 78t-26 78q-25 28 -70 28q-44 0 -69 -28q-26 -29 -26 -78z" />
<glyph unicode="&#xb1;" d="M109 0v281h1007l-59 -281h-948zM109 639v283h331v270l312 20v-290h364l-59 -283h-305v-260l-312 -23v283h-331z" />
<glyph unicode="&#xb2;" horiz-adv-x="835" d="M66 807q172 119 263 214q93 97 93 157q0 73 -100 73q-50 0 -106 -14q-66 -17 -126 -41l27 223q79 23 159 36q77 13 144 13q159 0 245 -59q87 -60 87 -170q0 -91 -68 -183t-192 -171h303l-60 -244h-637z" />
<glyph unicode="&#xb3;" horiz-adv-x="845" d="M86 918q76 -37 157 -58q76 -20 144 -20q84 0 84 63q0 58 -88 58h-133v178h135q74 0 74 51q0 30 -26 48q-24 17 -73 17q-60 0 -119 -14q-63 -15 -120 -39l24 221q69 22 153 34q74 11 157 11q148 0 227 -61q80 -62 80 -174q0 -52 -26 -98q-26 -47 -72 -76q55 -24 86 -70 q30 -45 30 -102q0 -123 -95 -191q-94 -67 -269 -67q-76 0 -156 15q-76 14 -151 44z" />
<glyph unicode="&#xb4;" horiz-adv-x="866" d="M113 1268l514 362l157 -250l-557 -284z" />
<glyph unicode="&#xb5;" horiz-adv-x="1153" d="M104 -401v1366l340 24v-612q0 -86 31 -125q30 -37 105 -37q76 0 106 37q31 39 31 125v588l340 24v-588q0 -115 -24 -194t-74 -131q-50 -51 -131 -74q-79 -22 -197 -22q-59 0 -104 8q-43 8 -83 30v-391z" />
<glyph unicode="&#xb6;" horiz-adv-x="1249" d="M14 987q0 99 37 177t102 134t154 84q92 29 197 29h725l-21 -235h-80v-1418l-315 -14v1432h-115v-1448l-329 -19v858q-168 33 -261 135q-94 103 -94 285z" />
<glyph unicode="&#xb7;" horiz-adv-x="454" d="M57 446v283l340 27v-310h-340z" />
<glyph unicode="&#xb8;" horiz-adv-x="866" d="M162 -305q38 -16 86 -30q45 -13 100 -13t79 15t24 44q0 64 -115 64q-36 0 -63 -4q-25 -4 -54 -11l35 271h199l-17 -107q13 3 34 7q18 3 40 3q111 0 160 -59t49 -143q0 -110 -80 -178t-236 -68q-55 0 -113 9q-56 9 -106 28z" />
<glyph unicode="&#xb9;" horiz-adv-x="755" d="M70 1303l311 153h215v-815h-313v514l-123 -65z" />
<glyph unicode="&#xba;" horiz-adv-x="804" d="M35 1110q0 178 89 258t277 80q191 0 280 -80t89 -258q0 -179 -89 -259q-88 -79 -280 -79q-189 0 -277 79q-89 80 -89 259zM367 1110q0 -78 5 -101q5 -22 29 -22q26 0 31 22q4 19 4 101q0 80 -4 100q-5 23 -31 23q-24 0 -29 -23q-5 -25 -5 -100z" />
<glyph unicode="&#xbb;" horiz-adv-x="1103" d="M20 154l207 -144l344 434v52l-338 436l-210 -146l221 -317zM512 154l207 -144l344 434v52l-338 436l-211 -146l221 -317z" />
<glyph unicode="&#xbc;" horiz-adv-x="1925" d="M6 1303l311 153h215v-815h-313v514l-123 -65zM279 90l968 1385l248 -160l-971 -1385zM1067 301l307 520h316v-59l-250 -408h106v86l271 37v-123h102l-31 -217h-71v-137h-271v137h-440z" />
<glyph unicode="&#xbd;" horiz-adv-x="1925" d="M6 1303l311 153h215v-815h-313v514l-123 -65zM270 90l969 1385l248 -160l-971 -1385zM1192 166q172 119 263 214q93 98 93 157q0 73 -100 73q-50 0 -106 -14q-64 -16 -125 -41l26 223q78 22 160 36q77 13 143 13q159 0 245 -59q87 -60 87 -170q0 -91 -68 -183 q-68 -91 -192 -171h303l-59 -244h-637z" />
<glyph unicode="&#xbe;" horiz-adv-x="1925" d="M0 918q76 -37 157 -58q76 -20 144 -20q84 0 84 63q0 58 -88 58h-133v178h135q74 0 74 51q0 30 -26 48q-24 17 -73 17q-60 0 -119 -14q-63 -15 -120 -39l24 221q69 22 153 34q74 11 157 11q148 0 227 -61q80 -62 80 -174q0 -52 -26 -98q-26 -47 -72 -76q55 -24 86 -70 q30 -45 30 -102q0 -123 -95 -191q-94 -67 -269 -67q-76 0 -156 15q-76 14 -151 44zM326 90l968 1385l248 -160l-971 -1385zM1067 301l307 520h316v-59l-250 -408h106v86l271 37v-123h102l-31 -217h-71v-137h-271v137h-440z" />
<glyph unicode="&#xbf;" horiz-adv-x="940" d="M6 -29q0 70 13 122q13 54 44 98q29 42 79 81q46 36 118 72l66 33q59 28 88 54q27 24 32 71l2 28l291 41l6 -88q4 -65 -2 -114t-26 -84q-21 -38 -59 -68q-39 -31 -97 -63l-67 -37q-42 -24 -59 -38q-22 -19 -33 -37q-11 -17 -14 -41q-3 -21 -3 -50q0 -55 40 -94 q41 -39 132 -39q94 0 176 23q84 24 184 69l-30 -275q-109 -30 -207 -44q-102 -15 -213 -15q-116 0 -206 28q-84 26 -143 79q-57 51 -84 124q-28 76 -28 164zM418 702v310h340v-283z" />
<glyph unicode="&#xc0;" horiz-adv-x="1359" d="M31 0v76l432 1329l434 18l432 -1347v-76h-336l-82 274h-469l-84 -274h-327zM172 1780l164 250l530 -347l-112 -178zM520 530h314l-68 230q-5 15 -52 174q-27 90 -34 178q-10 -92 -36 -177q-23 -77 -54 -175z" />
<glyph unicode="&#xc1;" horiz-adv-x="1359" d="M31 0v76l432 1329l434 18l432 -1347v-76h-336l-82 274h-469l-84 -274h-327zM465 1677l514 363l158 -250l-557 -285zM520 530h314l-68 230q-5 15 -52 174q-27 90 -34 178q-10 -92 -36 -177q-23 -77 -54 -175z" />
<glyph unicode="&#xc2;" horiz-adv-x="1359" d="M31 0v76l432 1329l434 18l432 -1347v-76h-336l-82 274h-469l-84 -274h-327zM287 1618l286 364h205l287 -364l-156 -131l-229 231l-238 -231zM520 530h314l-68 230q-5 15 -52 174q-27 90 -34 178q-10 -92 -36 -177q-23 -77 -54 -175z" />
<glyph unicode="&#xc3;" horiz-adv-x="1359" d="M31 0v76l432 1329l434 18l432 -1347v-76h-336l-82 274h-469l-84 -274h-327zM231 1675q43 133 106 193q62 59 161 59q57 0 98 -17q50 -21 81 -38q11 -6 23.5 -12.5t27 -14t22.5 -11.5q33 -17 71 -17q40 0 69 25q28 24 56 83l156 -108q-40 -131 -103 -193q-60 -59 -159 -59 q-56 0 -96 17q-45 19 -77 38q-24 14 -72 38q-34 17 -77 17q-42 0 -74 -25q-33 -25 -61 -85zM520 530h314l-68 230q-5 15 -52 174q-27 90 -34 178q-10 -92 -36 -177q-23 -77 -54 -175z" />
<glyph unicode="&#xc4;" horiz-adv-x="1359" d="M31 0v76l432 1329l434 18l432 -1347v-76h-336l-82 274h-469l-84 -274h-327zM281 1616v246l317 22v-268h-317zM520 530h314l-68 230q-5 15 -52 174q-27 90 -34 178q-10 -92 -36 -177q-23 -77 -54 -175zM756 1616v246l315 22v-268h-315z" />
<glyph unicode="&#xc5;" horiz-adv-x="1359" d="M31 0v76l432 1329l434 18l432 -1347v-76h-336l-82 274h-469l-84 -274h-327zM408 1745q0 123 71 188q72 66 201 66t201 -66q71 -65 71 -188q0 -124 -71 -189t-201 -65t-201 65t-71 189zM520 530h314l-68 230q-5 15 -52 174q-27 90 -34 178q-10 -92 -36 -177 q-23 -77 -54 -175zM608 1745q0 -70 72 -70q70 0 70 70q0 76 -70 76q-72 0 -72 -76z" />
<glyph unicode="&#xc6;" horiz-adv-x="1980" d="M-2 0v76l833 1335h1094l-45 -256h-573v-313h448v-252h-448v-334h626l-45 -256h-932v279h-446l-166 -279h-346zM662 535h294v518z" />
<glyph unicode="&#xc7;" horiz-adv-x="1290" d="M82 694q0 196 45 337q45 140 131 231q86 90 213 132t293 42q116 0 208 -18q88 -17 173 -42l41 -276q-94 34 -191 57q-98 23 -188 23q-191 0 -275 -114q-83 -113 -83 -366q0 -128 21 -217q20 -85 67 -143q46 -57 116 -80q72 -24 174 -24q103 0 203 21q97 20 195 56 l-45 -266q-88 -32 -187 -49q-105 -18 -227 -18h-35l-8 -56q13 3 34 7q18 3 40 3q110 0 159 -59q50 -61 50 -143q0 -110 -80 -178t-236 -68q-54 0 -113 9q-56 9 -106 28l-22 172q38 -16 86 -30q45 -13 100 -13t79 15q23 14 23 44q0 64 -114 64q-36 0 -63 -4q-25 -4 -54 -11 l31 240q-230 50 -342 215q-113 167 -113 479z" />
<glyph unicode="&#xc8;" horiz-adv-x="1136" d="M113 0v1411h968l-45 -256h-573v-313h448v-252h-448v-334h627l-46 -256h-931zM168 1780l164 250l530 -347l-112 -178z" />
<glyph unicode="&#xc9;" horiz-adv-x="1136" d="M113 0v1411h968l-45 -256h-573v-313h448v-252h-448v-334h627l-46 -256h-931zM379 1677l514 363l158 -250l-557 -285z" />
<glyph unicode="&#xca;" horiz-adv-x="1136" d="M113 0v1411h968l-45 -256h-573v-313h448v-252h-448v-334h627l-46 -256h-931zM229 1618l287 364h205l287 -364l-156 -131l-229 231l-238 -231z" />
<glyph unicode="&#xcb;" horiz-adv-x="1136" d="M113 0v1411h968l-45 -256h-573v-313h448v-252h-448v-334h627l-46 -256h-931zM201 1616v246l317 22v-268h-317zM676 1616v246l315 22v-268h-315z" />
<glyph unicode="&#xcc;" horiz-adv-x="585" d="M-182 1780l164 250l530 -347l-113 -178zM119 0v1399l348 20v-1419h-348z" />
<glyph unicode="&#xcd;" horiz-adv-x="585" d="M70 1677l514 363l157 -250l-557 -285zM119 0v1399l348 20v-1419h-348z" />
<glyph unicode="&#xce;" horiz-adv-x="585" d="M-100 1618l286 364h205l287 -364l-156 -131l-229 231l-238 -231zM119 0v1399l348 20v-1419h-348z" />
<glyph unicode="&#xcf;" horiz-adv-x="585" d="M-106 1616v246l317 22v-268h-317zM119 0v1399l348 20v-1419h-348zM369 1616v246l315 22v-268h-315z" />
<glyph unicode="&#xd0;" horiz-adv-x="1507" d="M16 596v254h146v561h514q217 0 359 -34q148 -35 231 -114q85 -81 123 -215q36 -128 36 -333q0 -209 -35 -342q-37 -138 -121 -220q-87 -84 -228 -118q-145 -35 -353 -35h-526v596h-146zM512 252h182q106 0 175 22q71 22 114 75q42 50 60 140q18 89 18 222q0 125 -19 215 q-18 86 -61 138q-44 53 -115 74q-72 21 -178 21h-176v-309h332l-66 -254h-266v-344z" />
<glyph unicode="&#xd1;" horiz-adv-x="1503" d="M113 0v1384l350 19l598 -883v864l330 19v-1403h-367l-582 846v-846h-329zM317 1675q43 133 106 193q62 59 161 59q57 0 98 -17q50 -21 81 -38q11 -6 23.5 -12.5t27 -14t22.5 -11.5q33 -17 71 -17q40 0 69 25q28 24 56 83l156 -108q-40 -131 -103 -193q-60 -59 -159 -59 q-56 0 -96 17q-45 19 -77 38q-24 14 -72 38q-34 17 -77 17q-42 0 -74 -25q-33 -25 -61 -85z" />
<glyph unicode="&#xd2;" horiz-adv-x="1490" d="M82 707q0 197 37 335q38 140 117 227t206 127q126 40 308 40q180 0 303 -40q125 -41 204 -127q80 -88 116 -227q36 -140 36 -335q0 -197 -36 -335q-36 -139 -116 -226q-79 -86 -204 -127q-120 -39 -303 -39q-185 0 -308 39q-127 40 -206 127t-117 226q-37 136 -37 335z M252 1780l164 250l530 -347l-112 -178zM446 707q0 -125 17 -218q16 -90 52 -146t93 -82q56 -25 137 -25q82 0 138 25q57 26 93 82t52 146q16 87 16 218q0 130 -16 217q-16 90 -52 146q-35 56 -93 83q-57 27 -138 27q-80 0 -137 -27q-58 -27 -93 -83q-36 -56 -52 -146 q-17 -93 -17 -217z" />
<glyph unicode="&#xd3;" horiz-adv-x="1490" d="M82 707q0 197 37 335q38 140 117 227t206 127q126 40 308 40q180 0 303 -40q125 -41 204 -127q80 -88 116 -227q36 -140 36 -335q0 -197 -36 -335q-36 -139 -116 -226q-79 -86 -204 -127q-120 -39 -303 -39q-185 0 -308 39q-127 40 -206 127t-117 226q-37 136 -37 335z M446 707q0 -125 17 -218q16 -90 52 -146t93 -82q56 -25 137 -25q82 0 138 25q57 26 93 82t52 146q16 87 16 218q0 130 -16 217q-16 90 -52 146q-35 56 -93 83q-57 27 -138 27q-80 0 -137 -27q-58 -27 -93 -83q-36 -56 -52 -146q-17 -93 -17 -217zM545 1677l514 363l158 -250 l-558 -285z" />
<glyph unicode="&#xd4;" horiz-adv-x="1490" d="M82 707q0 197 37 335q38 140 117 227t206 127q126 40 308 40q180 0 303 -40q125 -41 204 -127q80 -88 116 -227q36 -140 36 -335q0 -197 -36 -335q-36 -139 -116 -226q-79 -86 -204 -127q-120 -39 -303 -39q-185 0 -308 39q-127 40 -206 127t-117 226q-37 136 -37 335z M352 1618l287 364h205l286 -364l-155 -131l-230 231l-237 -231zM446 707q0 -125 17 -218q16 -90 52 -146t93 -82q56 -25 137 -25q82 0 138 25q57 26 93 82t52 146q16 87 16 218q0 130 -16 217q-16 90 -52 146q-35 56 -93 83q-57 27 -138 27q-80 0 -137 -27q-58 -27 -93 -83 q-36 -56 -52 -146q-17 -93 -17 -217z" />
<glyph unicode="&#xd5;" horiz-adv-x="1490" d="M82 707q0 197 37 335q38 140 117 227t206 127q126 40 308 40q180 0 303 -40q125 -41 204 -127q80 -88 116 -227q36 -140 36 -335q0 -197 -36 -335q-36 -139 -116 -226q-79 -86 -204 -127q-120 -39 -303 -39q-185 0 -308 39q-127 40 -206 127t-117 226q-37 136 -37 335z M297 1675q44 135 105 193q62 59 161 59q58 0 99 -17q47 -19 80 -38q11 -6 23.5 -12.5t27 -14t22.5 -11.5q33 -17 72 -17t68 25q30 25 57 83l155 -108q-40 -133 -102 -193q-60 -59 -160 -59q-55 0 -95 17q-48 21 -78 38q-24 14 -72 38q-34 17 -76 17t-74 -25q-33 -25 -61 -85 zM446 707q0 -125 17 -218q16 -90 52 -146t93 -82q56 -25 137 -25q82 0 138 25q57 26 93 82t52 146q16 87 16 218q0 130 -16 217q-16 90 -52 146q-35 56 -93 83q-57 27 -138 27q-80 0 -137 -27q-58 -27 -93 -83q-36 -56 -52 -146q-17 -93 -17 -217z" />
<glyph unicode="&#xd6;" horiz-adv-x="1490" d="M82 707q0 197 37 335q38 140 117 227t206 127q126 40 308 40q180 0 303 -40q125 -41 204 -127q80 -88 116 -227q36 -140 36 -335q0 -197 -36 -335q-36 -139 -116 -226q-79 -86 -204 -127q-120 -39 -303 -39q-185 0 -308 39q-127 40 -206 127t-117 226q-37 136 -37 335z M348 1616v246l318 22v-268h-318zM446 707q0 -125 17 -218q16 -90 52 -146t93 -82q56 -25 137 -25q82 0 138 25q57 26 93 82t52 146q16 87 16 218q0 130 -16 217q-16 90 -52 146q-35 56 -93 83q-57 27 -138 27q-80 0 -137 -27q-58 -27 -93 -83q-36 -56 -52 -146 q-17 -93 -17 -217zM823 1616v246l316 22v-268h-316z" />
<glyph unicode="&#xd7;" d="M143 776l213 205l260 -264l265 264l219 -207l-256 -254l248 -237l-215 -215l-261 264l-260 -264l-204 215l247 237z" />
<glyph unicode="&#xd8;" horiz-adv-x="1480" d="M68 0l131 182q-67 90 -95 217t-28 308q0 197 37 335q38 142 116 227q79 86 207 127q126 40 307 40q191 0 318 -45l127 176l237 -154l-137 -192q115 -174 115 -514q0 -197 -36 -335q-36 -139 -116 -226q-79 -86 -204 -127q-120 -39 -304 -39q-181 0 -313 40l-125 -174z M440 707q0 -35 2 -93q1 -29 7 -79l438 612q-57 33 -148 33q-80 0 -137 -27q-58 -27 -93 -83q-36 -56 -52 -146q-17 -93 -17 -217zM602 260q56 -24 137 -24q82 0 138 25q57 26 93 82t52 146q16 87 16 218q0 30 -2 80q-2 39 -6 73z" />
<glyph unicode="&#xd9;" horiz-adv-x="1439" d="M106 553v846l347 16v-858q0 -173 59 -241t207 -68q76 0 124 16q53 18 81 53q31 38 44 98q13 58 13 146v838l352 20v-866q0 -161 -31 -269q-31 -109 -105 -178q-71 -67 -190 -97q-115 -29 -288 -29q-174 0 -287 29q-118 30 -189 97q-74 69 -105 178q-32 111 -32 269z M252 1780l164 250l530 -347l-112 -178z" />
<glyph unicode="&#xda;" horiz-adv-x="1439" d="M106 553v846l347 16v-858q0 -173 59 -241t207 -68q76 0 124 16q53 18 81 53q31 38 44 98q13 58 13 146v838l352 20v-866q0 -161 -31 -269q-31 -109 -105 -178q-71 -67 -190 -97q-115 -29 -288 -29q-174 0 -287 29q-118 30 -189 97q-74 69 -105 178q-32 111 -32 269z M506 1677l514 363l158 -250l-557 -285z" />
<glyph unicode="&#xdb;" horiz-adv-x="1439" d="M106 553v846l347 16v-858q0 -173 59 -241t207 -68q76 0 124 16q53 18 81 53q31 38 44 98q13 58 13 146v838l352 20v-866q0 -161 -31 -269q-31 -109 -105 -178q-71 -67 -190 -97q-115 -29 -288 -29q-174 0 -287 29q-118 30 -189 97q-74 69 -105 178q-32 111 -32 269z M319 1618l287 364h205l287 -364l-156 -131l-229 231l-238 -231z" />
<glyph unicode="&#xdc;" horiz-adv-x="1439" d="M106 553v846l347 16v-858q0 -173 59 -241t207 -68q76 0 124 16q53 18 81 53q31 38 44 98q13 58 13 146v838l352 20v-866q0 -161 -31 -269q-31 -109 -105 -178q-71 -67 -190 -97q-115 -29 -288 -29q-174 0 -287 29q-118 30 -189 97q-74 69 -105 178q-32 111 -32 269z M315 1616v246l318 22v-268h-318zM791 1616v246l315 22v-268h-315z" />
<glyph unicode="&#xdd;" horiz-adv-x="1294" d="M45 1319v92h326l151 -309q38 -80 75 -172q32 -80 58 -178q28 90 62 178q33 85 74 172l151 309h307v-92l-422 -787v-532h-350v520zM475 1677l514 363l158 -250l-557 -285z" />
<glyph unicode="&#xde;" horiz-adv-x="1261" d="M115 0v1399l348 20v-205h155q159 0 267 -21t176 -74q67 -52 97 -143q30 -92 30 -228q0 -126 -26 -221q-25 -92 -88 -152q-62 -59 -168 -88q-107 -29 -263 -29h-180v-258h-348zM463 502h153q64 0 103 10q41 11 65 38q25 28 34 76t9 122q0 63 -7 104q-8 44 -28 70 q-18 24 -60 37q-38 12 -99 12h-170v-469z" />
<glyph unicode="&#xdf;" horiz-adv-x="1357" d="M23 760v229h133q2 233 144 360q143 128 429 128q131 0 224 -27q95 -28 152 -73q58 -46 85 -107t27 -131q0 -90 -47 -149q-48 -61 -140 -122l-67 -45q-38 -25 -52 -40q-16 -17 -16 -40t17 -34q21 -14 53 -25l106 -39q44 -16 94 -41q45 -22 79 -58q32 -34 54 -88 q21 -53 21 -128q0 -77 -24 -140q-25 -66 -72 -110q-50 -47 -126 -74q-74 -26 -186 -26q-77 0 -156 12q-78 12 -149 41l-18 239q69 -34 137 -48q65 -13 139 -13q73 0 100 25q25 24 25 59q0 38 -20 58q-21 21 -74 42l-104 41q-95 38 -147 102t-52 167q0 102 48 165 q50 65 122 111l59 37q32 21 49 41q15 18 15 53q0 61 -42 97t-134 36q-49 0 -88 -12q-40 -12 -67 -42t-42 -79q-14 -46 -14 -125v-1155l-342 -27v955h-133z" />
<glyph unicode="&#xe0;" horiz-adv-x="1128" d="M45 289q0 313 436 313h160v57q0 60 -32 87q-33 28 -103 28q-74 0 -162 -19q-91 -20 -215 -63l29 252q112 35 203 51q96 17 190 17q227 0 328 -82q102 -82 102 -262v-328q0 -115 119 -100l-58 -238q-65 -22 -133 -22q-177 0 -233 98q-57 -48 -128 -73t-169 -25 q-159 0 -246 80q-88 81 -88 229zM106 1380l164 250l531 -346l-113 -178zM387 297q0 -88 109 -88q69 0 145 31v141h-135q-64 0 -92 -22q-27 -21 -27 -62z" />
<glyph unicode="&#xe1;" horiz-adv-x="1128" d="M45 289q0 313 436 313h160v57q0 60 -32 87q-33 28 -103 28q-74 0 -162 -19q-91 -20 -215 -63l29 252q112 35 203 51q96 17 190 17q227 0 328 -82q102 -82 102 -262v-328q0 -115 119 -100l-58 -238q-65 -22 -133 -22q-177 0 -233 98q-57 -48 -128 -73t-169 -25 q-159 0 -246 80q-88 81 -88 229zM305 1268l514 362l158 -250l-557 -284zM387 297q0 -88 109 -88q69 0 145 31v141h-135q-64 0 -92 -22q-27 -21 -27 -62z" />
<glyph unicode="&#xe2;" horiz-adv-x="1128" d="M45 289q0 313 436 313h160v57q0 60 -32 87q-33 28 -103 28q-74 0 -162 -19q-91 -20 -215 -63l29 252q112 35 203 51q96 17 190 17q227 0 328 -82q102 -82 102 -262v-328q0 -115 119 -100l-58 -238q-65 -22 -133 -22q-177 0 -233 98q-57 -48 -128 -73t-169 -25 q-159 0 -246 80q-88 81 -88 229zM186 1223l287 364h205l287 -364l-156 -131l-229 231l-238 -231zM387 297q0 -88 109 -88q69 0 145 31v141h-135q-64 0 -92 -22q-27 -21 -27 -62z" />
<glyph unicode="&#xe3;" horiz-adv-x="1128" d="M45 289q0 313 436 313h160v57q0 60 -32 87q-33 28 -103 28q-74 0 -162 -19q-91 -20 -215 -63l29 252q112 35 203 51q96 17 190 17q227 0 328 -82q102 -82 102 -262v-328q0 -115 119 -100l-58 -238q-65 -22 -133 -22q-177 0 -233 98q-57 -48 -128 -73t-169 -25 q-159 0 -246 80q-88 81 -88 229zM123 1270q43 133 105 192q63 60 161 60q55 0 98 -18q50 -21 81 -38q11 -6 23.5 -12.5t27 -14t22.5 -11.5q33 -17 72 -17q37 0 68 26q30 25 57 83l155 -109q-40 -131 -102 -192q-61 -60 -160 -60q-53 0 -95 18q-55 24 -78 37q-24 14 -72 38 q-36 18 -76 18t-74 -26t-62 -85zM387 297q0 -88 109 -88q69 0 145 31v141h-135q-64 0 -92 -22q-27 -21 -27 -62z" />
<glyph unicode="&#xe4;" horiz-adv-x="1128" d="M45 289q0 313 436 313h160v57q0 60 -32 87q-33 28 -103 28q-74 0 -162 -19q-91 -20 -215 -63l29 252q112 35 203 51q96 17 190 17q227 0 328 -82q102 -82 102 -262v-328q0 -115 119 -100l-58 -238q-65 -22 -133 -22q-177 0 -233 98q-57 -48 -128 -73t-169 -25 q-159 0 -246 80q-88 81 -88 229zM168 1157v246l317 22v-268h-317zM387 297q0 -88 109 -88q69 0 145 31v141h-135q-64 0 -92 -22q-27 -21 -27 -62zM643 1157v246l315 22v-268h-315z" />
<glyph unicode="&#xe5;" horiz-adv-x="1128" d="M45 289q0 313 436 313h160v57q0 60 -32 87q-33 28 -103 28q-74 0 -162 -19q-91 -20 -215 -63l29 252q112 35 203 51q96 17 190 17q227 0 328 -82q102 -82 102 -262v-328q0 -115 119 -100l-58 -238q-65 -22 -133 -22q-177 0 -233 98q-57 -48 -128 -73t-169 -25 q-159 0 -246 80q-88 81 -88 229zM291 1327q0 124 71 189t201 65t201 -65q72 -66 72 -189q0 -122 -72 -188t-201 -66t-201 66q-71 65 -71 188zM387 297q0 -88 109 -88q69 0 145 31v141h-135q-64 0 -92 -22q-27 -21 -27 -62zM492 1327q0 -70 71 -70q70 0 70 70q0 76 -70 76 q-71 0 -71 -76z" />
<glyph unicode="&#xe6;" horiz-adv-x="1665" d="M47 303q0 166 107 244q106 78 315 78h174v24q0 59 -37 92q-38 33 -123 33q-74 0 -161 -20q-89 -20 -191 -56l31 250q221 64 379 64q110 0 185 -27q76 -27 120 -61q60 47 133 68q71 20 162 20q241 0 357 -123q116 -124 116 -381v-102h-635q0 -102 57 -149q56 -46 183 -46 q81 0 175 18q88 17 199 58l-45 -244q-89 -33 -181 -48q-93 -15 -191 -15q-135 0 -240 30q-101 29 -182 99q-31 -31 -71 -54q-45 -26 -91 -41q-45 -15 -103 -25q-53 -9 -104 -9q-69 0 -131 18t-108 58q-44 38 -72 102q-27 61 -27 145zM389 307q0 -98 127 -98q38 0 79 9 q40 9 71 32q-14 39 -19 73q-5 30 -10 80h-125q-123 0 -123 -96zM979 616h305q-5 79 -40 122q-36 44 -111 44q-78 0 -113 -44t-41 -122z" />
<glyph unicode="&#xe7;" horiz-adv-x="980" d="M51 494q0 269 124 393q125 125 390 125q90 0 165 -15t147 -45l32 -256q-90 44 -162 63q-73 19 -137 19q-114 0 -163 -66q-50 -67 -50 -214q0 -151 52 -218t167 -67q70 0 141 20q74 21 163 66l-21 -246q-70 -36 -158 -55q-85 -18 -196 -18h-21l-8 -56q13 3 34 7q18 3 40 3 q111 0 160 -59t49 -141q0 -110 -80 -179q-79 -69 -236 -69q-55 0 -113 9q-56 9 -106 28l-22 172q38 -16 86 -30q45 -13 100 -13t79 15q23 14 23 44q0 64 -114 64q-36 0 -63 -4q-25 -4 -54 -11l31 248q-149 46 -214 171t-65 315z" />
<glyph unicode="&#xe8;" horiz-adv-x="1083" d="M51 485q0 269 120 398t380 129q247 0 364 -122q117 -121 117 -382v-102h-635q0 -102 57 -149q56 -46 183 -46q81 0 175 18q90 17 200 58l-45 -244q-173 -63 -381 -63q-282 0 -408 117q-127 118 -127 388zM92 1380l164 250l530 -346l-112 -178zM397 616h305 q-6 166 -153 166q-76 0 -111 -44t-41 -122z" />
<glyph unicode="&#xe9;" horiz-adv-x="1083" d="M51 485q0 269 120 398t380 129q247 0 364 -122q117 -121 117 -382v-102h-635q0 -102 57 -149q56 -46 183 -46q81 0 175 18q90 17 200 58l-45 -244q-173 -63 -381 -63q-282 0 -408 117q-127 118 -127 388zM311 1268l514 362l158 -250l-557 -284zM397 616h305 q-6 166 -153 166q-76 0 -111 -44t-41 -122z" />
<glyph unicode="&#xea;" horiz-adv-x="1083" d="M51 485q0 269 120 398t380 129q247 0 364 -122q117 -121 117 -382v-102h-635q0 -102 57 -149q56 -46 183 -46q81 0 175 18q90 17 200 58l-45 -244q-173 -63 -381 -63q-282 0 -408 117q-127 118 -127 388zM170 1223l287 364h205l286 -364l-155 -131l-230 231l-237 -231z M397 616h305q-6 166 -153 166q-76 0 -111 -44t-41 -122z" />
<glyph unicode="&#xeb;" horiz-adv-x="1083" d="M51 485q0 269 120 398t380 129q247 0 364 -122q117 -121 117 -382v-102h-635q0 -102 57 -149q56 -46 183 -46q81 0 175 18q90 17 200 58l-45 -244q-173 -63 -381 -63q-282 0 -408 117q-127 118 -127 388zM154 1157v246l317 22v-268h-317zM397 616h305q-6 166 -153 166 q-76 0 -111 -44t-41 -122zM629 1157v246l315 22v-268h-315z" />
<glyph unicode="&#xec;" horiz-adv-x="561" d="M-178 1380l164 250l530 -346l-113 -178zM111 0v965l340 24v-989h-340z" />
<glyph unicode="&#xed;" horiz-adv-x="561" d="M20 1268l515 362l157 -250l-557 -284zM111 0v965l340 24v-989h-340z" />
<glyph unicode="&#xee;" horiz-adv-x="561" d="M-119 1223l287 364h205l286 -364l-155 -131l-230 231l-237 -231zM111 0v965l340 24v-989h-340z" />
<glyph unicode="&#xef;" horiz-adv-x="561" d="M-119 1157v246l318 22v-268h-318zM111 0v965l340 24v-989h-340zM356 1157v246l316 22v-268h-316z" />
<glyph unicode="&#xf0;" horiz-adv-x="1142" d="M53 475q0 224 118 338q120 115 347 115q91 0 178 -29q-24 80 -76 135t-122 99l-111 -144l-188 139l63 82q-113 25 -196 25l157 221q74 -5 114 -10q46 -5 89 -19l109 148l190 -129l-61 -94q108 -58 195 -150q85 -90 138 -203q95 -219 95 -489q0 -262 -128 -396t-378 -134 q-266 0 -399 124q-134 125 -134 371zM401 473q0 -122 48 -190q47 -66 139 -66q74 0 115 70q40 68 40 202q0 25 -2 79q-1 40 -6 81q-38 21 -79 30q-42 9 -83 9q-85 0 -128 -54q-44 -55 -44 -161z" />
<glyph unicode="&#xf1;" horiz-adv-x="1165" d="M102 0v963l285 36l27 -79q140 92 301 92q364 0 364 -359v-653h-340v618q0 152 -139 152q-92 0 -158 -45v-725h-340zM137 1270q43 132 106 192t160 60q55 0 99 -18q50 -21 81 -38q11 -6 72 -38q33 -17 72 -17q38 0 69 26q28 24 56 83l156 -109q-39 -130 -103 -192 q-61 -60 -160 -60q-53 0 -95 18q-55 24 -78 37q-30 18 -71 38q-36 18 -77 18q-40 0 -74 -26q-33 -25 -61 -85z" />
<glyph unicode="&#xf2;" horiz-adv-x="1144" d="M51 496q0 273 124 394q125 122 398 122q272 0 397 -122q124 -121 124 -394q0 -274 -124 -395t-397 -121q-274 0 -398 121t-124 395zM96 1380l164 250l531 -346l-113 -178zM397 496q0 -154 42 -220q41 -65 134 -65q94 0 134 65q41 67 41 220q0 152 -41 219q-40 65 -134 65 q-93 0 -134 -65q-42 -66 -42 -219z" />
<glyph unicode="&#xf3;" horiz-adv-x="1144" d="M51 496q0 273 124 394q125 122 398 122q272 0 397 -122q124 -121 124 -394q0 -274 -124 -395t-397 -121q-274 0 -398 121t-124 395zM356 1268l514 362l158 -250l-557 -284zM397 496q0 -154 42 -220q41 -65 134 -65q94 0 134 65q41 67 41 220q0 152 -41 219 q-40 65 -134 65q-93 0 -134 -65q-42 -66 -42 -219z" />
<glyph unicode="&#xf4;" horiz-adv-x="1144" d="M51 496q0 273 124 394q125 122 398 122q272 0 397 -122q124 -121 124 -394q0 -274 -124 -395t-397 -121q-274 0 -398 121t-124 395zM178 1223l287 364h205l286 -364l-155 -131l-230 231l-237 -231zM397 496q0 -154 42 -220q41 -65 134 -65q94 0 134 65q41 67 41 220 q0 152 -41 219q-40 65 -134 65q-93 0 -134 -65q-42 -66 -42 -219z" />
<glyph unicode="&#xf5;" horiz-adv-x="1144" d="M51 496q0 273 124 394q125 122 398 122q272 0 397 -122q124 -121 124 -394q0 -274 -124 -395t-397 -121q-274 0 -398 121t-124 395zM133 1270q43 132 106 192t160 60q55 0 99 -18q50 -21 81 -38q11 -6 72 -38q33 -17 72 -17q38 0 69 26q28 24 56 83l156 -109 q-39 -130 -103 -192q-61 -60 -160 -60q-53 0 -95 18q-55 24 -78 37q-30 18 -71 38q-36 18 -77 18q-40 0 -74 -26q-33 -25 -61 -85zM397 496q0 -154 42 -220q41 -65 134 -65q94 0 134 65q41 67 41 220q0 152 -41 219q-40 65 -134 65q-93 0 -134 -65q-42 -66 -42 -219z" />
<glyph unicode="&#xf6;" horiz-adv-x="1144" d="M51 496q0 273 124 394q125 122 398 122q272 0 397 -122q124 -121 124 -394q0 -274 -124 -395t-397 -121q-274 0 -398 121t-124 395zM174 1157v246l318 22v-268h-318zM397 496q0 -154 42 -220q41 -65 134 -65q94 0 134 65q41 67 41 220q0 152 -41 219q-40 65 -134 65 q-93 0 -134 -65q-42 -66 -42 -219zM649 1157v246l316 22v-268h-316z" />
<glyph unicode="&#xf7;" d="M129 389v281h1008l-60 -281h-948zM477 20v263l285 22v-285h-285zM477 756v262l285 22v-284h-285z" />
<glyph unicode="&#xf8;" horiz-adv-x="1200" d="M51 496q0 266 132 391q133 125 417 125q107 0 197 -19l108 168l176 -106l-92 -146q160 -122 160 -413q0 -268 -131 -393q-129 -123 -418 -123q-128 0 -223 24l-117 -184l-178 104l108 172q-139 124 -139 400zM379 496q0 -24 2 -62q2 -29 6 -53l260 407q-3 0 -10.5 1.5 t-11.5 2.5q-8 1 -25 1q-116 0 -168 -72q-53 -73 -53 -225zM522 209q18 -7 36 -8q26 -2 42 -2q118 0 170 71q53 73 53 226q0 90 -18 151z" />
<glyph unicode="&#xf9;" horiz-adv-x="1146" d="M72 1380l164 250l530 -346l-113 -178zM98 401v564l340 24v-592q0 -100 32 -141t105 -41q75 0 105 41q31 42 31 141v568l340 24v-588q0 -113 -25 -197q-24 -80 -81 -130q-58 -50 -147 -72t-223 -22q-133 0 -222 22t-147 72q-57 49 -82 130q-26 83 -26 197z" />
<glyph unicode="&#xfa;" horiz-adv-x="1146" d="M98 401v564l340 24v-592q0 -100 32 -141t105 -41q75 0 105 41q31 42 31 141v568l340 24v-588q0 -113 -25 -197q-24 -80 -81 -130q-58 -50 -147 -72t-223 -22q-133 0 -222 22t-147 72q-57 49 -82 130q-26 83 -26 197zM395 1268l514 362l158 -250l-557 -284z" />
<glyph unicode="&#xfb;" horiz-adv-x="1146" d="M98 401v564l340 24v-592q0 -100 32 -141t105 -41q75 0 105 41q31 42 31 141v568l340 24v-588q0 -113 -25 -197q-24 -80 -81 -130q-58 -50 -147 -72t-223 -22q-133 0 -222 22t-147 72q-57 49 -82 130q-26 83 -26 197zM178 1223l287 364h205l286 -364l-155 -131l-230 231 l-237 -231z" />
<glyph unicode="&#xfc;" horiz-adv-x="1146" d="M98 401v564l340 24v-592q0 -100 32 -141t105 -41q75 0 105 41q31 42 31 141v568l340 24v-588q0 -113 -25 -197q-24 -80 -81 -130q-58 -50 -147 -72t-223 -22q-133 0 -222 22t-147 72q-57 49 -82 130q-26 83 -26 197zM174 1157v246l318 22v-268h-318zM649 1157v246l316 22 v-268h-316z" />
<glyph unicode="&#xfd;" horiz-adv-x="1087" d="M12 913v76h353l108 -348q25 -85 42 -173q15 -74 32 -196h16q11 99 32 196q17 81 44 173l106 348h330v-76l-504 -1337l-342 92l142 312zM352 1268l514 362l158 -250l-557 -284z" />
<glyph unicode="&#xfe;" horiz-adv-x="1169" d="M100 -391v1825l340 26v-504q107 56 236 56q229 0 336 -125q106 -124 106 -385q0 -269 -97 -396q-96 -126 -308 -126q-75 0 -141 15q-64 14 -132 44v-406zM440 260q64 -47 170 -47q162 0 162 287q0 278 -186 278q-91 0 -146 -37v-481z" />
<glyph unicode="&#xff;" horiz-adv-x="1087" d="M12 913v76h353l108 -348q25 -85 42 -173q15 -74 32 -196h16q11 99 32 196q17 81 44 173l106 348h330v-76l-504 -1337l-342 92l142 312zM147 1157v246l318 22v-268h-318zM623 1157v246l315 22v-268h-315z" />
<glyph unicode="&#x152;" horiz-adv-x="1959" d="M82 702q0 216 40 355q40 141 123 225q83 85 213 119q132 35 308 35q71 0 115 -4l98 -9q19 -2 57.5 -4.5t49.5 -3.5q52 -4 143 -4h674l-45 -256h-572v-313h449v-252h-449v-334h625l-45 -256h-635q-87 0 -145 -3q-69 -4 -107 -7q-33 -3 -97 -7q-48 -3 -110 -3 q-183 0 -312 34q-128 34 -214 118q-83 82 -124 222q-40 138 -40 348zM446 696q0 -146 18 -234q19 -92 57 -140q40 -51 107 -69q62 -17 165 -17q53 0 88 3q10 1 28.5 2.5t26.5 2.5v921q-69 15 -160 15q-86 0 -152 -19q-62 -18 -103 -71q-38 -50 -57 -148q-18 -94 -18 -246z " />
<glyph unicode="&#x153;" horiz-adv-x="1779" d="M51 496q0 114 26 210q25 94 84 162q60 70 155 106q99 38 243 38q65 0 110 -7q49 -8 89 -21q42 -14 80 -33q44 -22 80 -46q74 59 151 82q83 25 184 25q130 0 223 -35q90 -34 147 -100t81 -159q25 -97 25 -212v-100h-635q0 -102 57 -149q56 -46 184 -46q84 0 173 17 q93 18 200 59l-45 -244q-67 -27 -168 -45t-207 -18q-128 0 -211 28q-81 27 -159 78q-36 -24 -80 -46q-38 -19 -80 -33q-34 -11 -89 -20q-45 -7 -110 -7q-147 0 -243 37q-95 36 -155 106q-58 67 -84 163t-26 210zM397 496q0 -163 43 -224t133 -61q91 0 133 61q42 62 42 224 t-42 223t-133 61q-90 0 -133 -61t-43 -223zM1094 616h305q-1 47 -16 81t-34 52t-49 26q-25 7 -55 7q-66 0 -104 -37q-40 -38 -47 -129z" />
<glyph unicode="&#x178;" horiz-adv-x="1294" d="M45 1319v92h326l151 -309q38 -80 75 -172q32 -80 58 -178q28 90 62 178q33 85 74 172l151 309h307v-92l-422 -787v-532h-350v520zM248 1616v246l317 22v-268h-317zM723 1616v246l315 22v-268h-315z" />
<glyph unicode="&#x2c6;" horiz-adv-x="866" d="M41 1223l287 364h204l287 -364l-155 -131l-230 231l-237 -231z" />
<glyph unicode="&#x2dc;" horiz-adv-x="866" d="M-6 1270q43 133 105 192q63 60 161 60q54 0 98 -18q50 -21 81 -38q11 -6 23.5 -12.5t27 -14t22.5 -11.5q33 -17 72 -17q37 0 68 26q30 25 57 83l155 -109q-40 -131 -102 -192q-62 -60 -160 -60q-53 0 -95 18q-55 24 -78 37q-24 14 -72 38q-36 18 -76 18t-74 -26t-62 -85z " />
<glyph unicode="&#x2000;" horiz-adv-x="1020" />
<glyph unicode="&#x2001;" horiz-adv-x="2040" />
<glyph unicode="&#x2002;" horiz-adv-x="1020" />
<glyph unicode="&#x2003;" horiz-adv-x="2040" />
<glyph unicode="&#x2004;" horiz-adv-x="680" />
<glyph unicode="&#x2005;" horiz-adv-x="510" />
<glyph unicode="&#x2006;" horiz-adv-x="340" />
<glyph unicode="&#x2007;" horiz-adv-x="340" />
<glyph unicode="&#x2008;" horiz-adv-x="255" />
<glyph unicode="&#x2009;" horiz-adv-x="408" />
<glyph unicode="&#x200a;" horiz-adv-x="113" />
<glyph unicode="&#x2010;" horiz-adv-x="636" d="M57 397v260h539l-37 -260h-502z" />
<glyph unicode="&#x2011;" horiz-adv-x="636" d="M57 397v260h539l-37 -260h-502z" />
<glyph unicode="&#x2012;" horiz-adv-x="636" d="M57 397v260h539l-37 -260h-502z" />
<glyph unicode="&#x2013;" horiz-adv-x="1024" d="M33 397v260h983l-31 -260h-952z" />
<glyph unicode="&#x2014;" horiz-adv-x="2048" d="M47 397v260h1954l-27 -260h-1927z" />
<glyph unicode="&#x2018;" horiz-adv-x="475" d="M41 877v180q0 88 13 153q13 67 45 124t83 104q52 47 127 90l113 -152q-55 -34 -82 -76q-29 -44 -33 -102h113v-299z" />
<glyph unicode="&#x2019;" horiz-adv-x="475" d="M53 1028q55 34 82 76q29 44 33 102h-113v299l379 23v-180q0 -89 -13 -154q-13 -67 -45 -124q-30 -55 -83 -103q-52 -47 -127 -90z" />
<glyph unicode="&#x201a;" horiz-adv-x="475" d="M53 -178q55 34 82 76q29 44 33 102h-113v299l379 23v-181q0 -88 -13 -153q-13 -67 -45 -124t-83 -104q-52 -47 -127 -90z" />
<glyph unicode="&#x201c;" horiz-adv-x="948" d="M41 877v180q0 88 13 153q13 67 45 124t83 104q51 46 129 90l113 -152q-55 -34 -82 -76q-29 -44 -33 -102h113v-299zM514 877v180q0 88 13 153q13 67 45 124t83 104q52 47 127 90l113 -152q-55 -34 -82 -76q-29 -44 -33 -102h113v-299z" />
<glyph unicode="&#x201d;" horiz-adv-x="948" d="M53 1028q55 34 82 76q29 44 33 102h-113v299l379 23v-180q0 -89 -13 -154q-13 -67 -45 -124q-30 -55 -83 -103q-52 -47 -127 -90zM524 1028q55 34 82 76q29 44 33 102h-113v299l381 23v-180q0 -89 -13 -154q-13 -67 -45 -124q-31 -56 -84 -103q-54 -48 -128 -90z" />
<glyph unicode="&#x201e;" horiz-adv-x="948" d="M53 -178q55 34 82 76q29 44 33 102h-113v299l379 23v-181q0 -88 -13 -153q-13 -67 -45 -124t-83 -104q-52 -47 -127 -90zM524 -178q55 34 82 76q29 44 33 102h-113v299l381 23v-181q0 -88 -13 -153q-13 -67 -45 -124q-32 -58 -84 -104q-54 -48 -128 -90z" />
<glyph unicode="&#x2022;" horiz-adv-x="919" d="M35 565q0 91 32 167q32 75 89 128q59 54 135 82q79 29 170 29t169 -29q76 -28 134 -82q57 -53 89 -128q32 -76 32 -167t-32 -167t-88 -129q-58 -55 -134 -83q-77 -28 -170 -28t-170 28t-135 83t-89 129q-32 76 -32 167z" />
<glyph unicode="&#x2026;" horiz-adv-x="1335" d="M70 0v283l340 26v-309h-340zM498 0v283l340 26v-309h-340zM926 0v283l340 26v-309h-340z" />
<glyph unicode="&#x202f;" horiz-adv-x="408" />
<glyph unicode="&#x2039;" horiz-adv-x="612" d="M41 444v52l338 436l211 -146l-221 -317l223 -315l-207 -144z" />
<glyph unicode="&#x203a;" horiz-adv-x="612" d="M20 154l224 315l-221 317l210 146l338 -436v-52l-344 -434z" />
<glyph unicode="&#x205f;" horiz-adv-x="510" />
<glyph unicode="&#x20ac;" horiz-adv-x="1386" d="M45 387v231h135v119h-108v236h131q24 115 71 204q46 86 124 144q77 57 187 86q111 29 257 29q104 0 200 -15t201 -45l41 -276q-116 40 -206 60q-91 20 -171 20q-130 0 -209 -50q-76 -48 -114 -157h432l-45 -236h-424v-119h432l-57 -231h-320q47 -86 125 -119 q76 -32 201 -32q92 0 189 18q96 18 206 59l-45 -266q-69 -32 -179 -50q-102 -17 -229 -17q-274 0 -437 98q-165 99 -220 309h-168z" />
<glyph unicode="&#x2122;" horiz-adv-x="1615" d="M35 1217v208h618l-37 -208h-151v-435h-264v435h-166zM659 782l50 627l319 18l68 -340h8l49 322l328 18l73 -645h-243l-33 301l-47 -278l-252 -12l-61 299l-17 -310h-242z" />
<glyph unicode="&#x25fc;" horiz-adv-x="993" d="M0 0v993h993v-993h-993z" />
</font>
</defs>
</svg>
