<?xml version="1.0" standalone="no"?>
<!DOCTYPE svg PUBLIC "-//W3C//DTD SVG 1.1//EN" "http://www.w3.org/Graphics/SVG/1.1/DTD/svg11.dtd" >
<svg xmlns="http://www.w3.org/2000/svg">
<metadata></metadata>
<defs>
<font id="fs_silas_sans_webbold" horiz-adv-x="1105" >
<font-face units-per-em="2048" ascent="1536" descent="-512" />
<missing-glyph horiz-adv-x="471" />
<glyph unicode="&#xfb01;" horiz-adv-x="1136" d="M33 809v180h141v137q0 351 432 351q162 0 299 -39l29 -187q-149 41 -293 41q-211 0 -211 -176v-127h584v-989h-256v809h-328v-809h-256v809h-141z" />
<glyph unicode="&#xfb02;" horiz-adv-x="1157" d="M33 809v180h141v125q0 363 383 363q126 0 252 -37l225 20v-1460h-256v1262q-84 30 -174 30q-174 0 -174 -180v-123h203l-27 -180h-176v-809h-256v809h-141z" />
<glyph unicode="&#xfb03;" horiz-adv-x="1720" d="M33 809v180h141v131q0 357 344 357q44 0 98 -7l27 -182q-23 2 -39 3q-11 1 -26 1q-148 0 -148 -178v-125h328v137q0 351 432 351q162 0 299 -39l29 -187q-155 41 -293 41q-211 0 -211 -176v-127h583v-989h-256v809h-327v-809h-256v809h-328v-809h-256v809h-141z" />
<glyph unicode="&#xfb04;" horiz-adv-x="1740" d="M33 809v180h141v131q0 357 344 357q44 0 98 -7l27 -182q-23 2 -39 3q-11 1 -26 1q-148 0 -148 -178v-125h328v125q0 363 383 363q126 0 252 -37l225 20v-1460h-256v1262q-84 30 -174 30q-174 0 -174 -180v-123h203l-27 -180h-176v-809h-256v809h-328v-809h-256v809h-141z " />
<glyph horiz-adv-x="0" />
<glyph horiz-adv-x="0" />
<glyph unicode="&#xd;" horiz-adv-x="471" />
<glyph unicode=" "  horiz-adv-x="471" />
<glyph unicode="&#x09;" horiz-adv-x="471" />
<glyph unicode="&#xa0;" horiz-adv-x="471" />
<glyph unicode="!" horiz-adv-x="460" d="M90 1427l281 25l-19 -1032l-233 -29zM104 0v236l271 24v-260h-271z" />
<glyph unicode="&#x22;" horiz-adv-x="792" d="M94 977v536l248 23l-29 -537zM483 977v536l248 23l-29 -537z" />
<glyph unicode="#" horiz-adv-x="1191" d="M-35 383l25 182h239l41 244h-241l24 182h246l66 420h243l-65 -420h194l66 420h246l-66 -420h244l-27 -182h-246l-41 -244h246l-29 -182h-239l-60 -383h-245l59 383h-194l-60 -383h-244l60 383h-242zM473 565h195l41 244h-195z" />
<glyph unicode="$" horiz-adv-x="1112" d="M74 1016q0 189 100 289q99 99 281 122v183l202 20v-196q71 -5 144 -22q57 -13 133 -40l35 -217q-76 30 -150 50q-86 23 -162 30v-412l60 -18q165 -50 244 -145q77 -92 77 -261q0 -173 -89 -277t-292 -134v-172l-202 -21v187q-186 12 -330 75l-33 222q87 -45 175 -71 q96 -28 188 -34v449l-47 12q-169 45 -252 131q-82 85 -82 250zM338 1040q0 -83 29 -115t88 -48v342q-59 -22 -88 -62t-29 -117zM657 199q67 23 92 71q25 49 25 121q0 83 -29 123q-28 38 -88 59v-374z" />
<glyph unicode="%" horiz-adv-x="1794" d="M61 1040q0 217 79 306q80 90 243 90t243 -90q79 -89 79 -306q0 -216 -79 -305q-80 -90 -243 -90t-243 90q-79 89 -79 305zM301 1040q0 -71 4 -110q5 -46 13 -68q9 -25 26 -34q16 -9 39 -9t39 9q15 8 25 34t14 68q4 39 4 110q0 72 -4 111q-4 42 -14 68q-9 24 -25 33 q-18 10 -39 10t-39 -10q-17 -9 -26 -33q-8 -22 -13 -68q-4 -39 -4 -111zM336 96l921 1366l216 -133l-928 -1380zM1090 375q0 217 78 305q80 90 243 90t243 -90q79 -89 79 -305t-79 -305q-80 -90 -243 -90t-243 90q-78 88 -78 305zM1329 375q0 -72 4 -111q4 -41 14 -67 t25 -34q16 -9 39 -9t39 9q17 9 26 34q8 22 13 67q4 39 4 111q0 71 -4 110q-5 46 -13 68q-9 25 -26 34q-16 9 -39 9t-39 -9q-15 -8 -25 -34t-14 -68q-4 -39 -4 -110z" />
<glyph unicode="&#x26;" horiz-adv-x="1382" d="M51 381q0 133 72 240q72 106 231 172q-51 49 -87 95q-33 42 -52 84q-19 43 -26 76q-7 34 -7 66q0 146 108 234q107 88 310 88q202 0 305 -89t103 -229q0 -109 -66 -208q-67 -101 -215 -169l260 -266q27 66 46 157q19 90 20 191v37l227 41v-49q-6 -169 -42 -305 q-37 -139 -93 -234l196 -192l-157 -154l-178 178q-86 -85 -194 -125q-107 -40 -255 -40q-242 0 -374 105t-132 296zM322 389q0 -103 63 -157t186 -54q164 0 279 107l-346 360q-94 -40 -138 -107t-44 -149zM453 1112q0 -62 35 -110q36 -50 102 -111q160 83 160 217 q0 68 -41 103q-40 34 -109 34q-74 0 -111 -37q-36 -36 -36 -96z" />
<glyph unicode="'" horiz-adv-x="403" d="M94 977v536l248 23l-29 -537z" />
<glyph unicode="(" horiz-adv-x="708" d="M131 590q0 225 80 454q80 228 262 433l207 -117q-74 -91 -133 -190q-56 -94 -90 -187q-35 -96 -51 -192q-17 -102 -17 -205q0 -191 68 -375q67 -182 231 -373l-215 -100q-101 113 -165 218q-66 108 -105 213q-40 107 -56 210q-16 102 -16 211z" />
<glyph unicode=")" horiz-adv-x="708" d="M20 1360l216 100q98 -110 164 -218q69 -112 106 -213q38 -103 55 -210q17 -108 17 -211q0 -225 -80 -454q-80 -228 -262 -433l-207 117q74 91 133 190q56 94 90 187q34 95 51 192q16 95 16 205q0 193 -67 375q-66 180 -232 373z" />
<glyph unicode="*" horiz-adv-x="755" d="M29 1233l80 231l186 -108l-62 207h289l-53 -205l178 108l80 -233l-223 -21l174 -159l-211 -144l-86 195l-92 -195l-211 144l172 157z" />
<glyph unicode="+" horiz-adv-x="1187" d="M152 424v217h327v340l238 18v-358h348l-47 -217h-301v-332l-238 -18v350h-327z" />
<glyph unicode="," horiz-adv-x="473" d="M66 -219q67 52 93 100q24 44 29 111h-94v246l297 22v-151q0 -75 -10 -131q-11 -60 -37 -111q-29 -57 -72 -104q-48 -53 -114 -103z" />
<glyph unicode="-" horiz-adv-x="602" d="M70 432v201h477l-29 -201h-448z" />
<glyph unicode="." horiz-adv-x="434" d="M82 0v236l270 24v-260h-270z" />
<glyph unicode="/" horiz-adv-x="768" d="M49 -20v59l424 1397h246v-64l-418 -1392h-252z" />
<glyph unicode="0" horiz-adv-x="1232" d="M98 709q0 194 29 334q29 139 90 226t160 127q98 40 239 40q142 0 240 -40q99 -40 160 -127t90 -226q29 -140 29 -334t-29 -336q-29 -140 -90 -227t-160 -127q-95 -39 -240 -39q-144 0 -239 39q-99 40 -160 127t-90 227q-29 142 -29 336zM371 707q0 -146 13 -241 q14 -100 43 -162q30 -63 76 -91q47 -29 113 -29q67 0 114 29q46 28 76 91q29 62 43 162q13 95 13 241q0 144 -13 241q-14 101 -43 163q-30 63 -76 91q-47 29 -114 29q-66 0 -113 -29q-46 -28 -76 -91q-29 -62 -43 -163q-13 -97 -13 -241z" />
<glyph unicode="1" horiz-adv-x="745" d="M45 1257l365 154h204v-1411h-258v1178l-282 -121z" />
<glyph unicode="2" horiz-adv-x="1058" d="M45 158q160 147 240 223q94 89 149 149q142 151 206 267q65 118 65 215q0 114 -59 167q-58 52 -187 52q-93 0 -186 -21q-100 -23 -199 -63l24 223q104 35 194 50q98 16 185 16q247 0 362 -100q113 -98 113 -314q0 -130 -69 -263q-68 -132 -217 -296q-63 -69 -125 -127 q-76 -70 -148 -131h576l-51 -205h-838z" />
<glyph unicode="3" horiz-adv-x="1060" d="M37 287q107 -51 210 -78t195 -27q130 0 200 59q69 59 69 171q0 116 -77 176q-75 59 -224 59h-154v197h152q129 0 197 52q69 53 69 151q0 200 -236 200q-161 0 -352 -76l33 197q80 31 179 50q93 18 185 18q223 0 342 -96q117 -94 117 -279q0 -224 -207 -293v-4 q117 -34 181 -127q63 -91 63 -234q0 -208 -131 -316q-129 -107 -383 -107q-102 0 -199 20q-107 22 -205 61z" />
<glyph unicode="4" horiz-adv-x="1159" d="M33 463l497 948h250v-72l-444 -817h371v385l258 25v-410h165l-26 -213h-139v-309h-258v309h-639z" />
<glyph unicode="5" horiz-adv-x="1087" d="M80 248q112 -43 200 -60q95 -18 181 -18q156 0 220 61t64 203q0 129 -69 186q-68 56 -236 56q-78 0 -151 -9q-72 -9 -160 -32l47 776h744l-37 -201h-490l-20 -344q80 13 174 13q237 0 352 -106t115 -329q0 -237 -127 -351q-126 -113 -395 -113q-202 0 -373 55z" />
<glyph unicode="6" horiz-adv-x="1142" d="M98 694q0 369 150 555q151 187 444 187q136 0 244 -41l20 -207q-140 57 -249 57q-294 0 -334 -407q57 31 131 50q65 17 147 17q414 0 414 -452q0 -237 -120 -355q-119 -118 -357 -118q-244 0 -367 179q-123 178 -123 535zM367 645q12 -463 231 -463q203 0 203 262 q0 252 -199 252q-116 0 -235 -51z" />
<glyph unicode="7" horiz-adv-x="1083" d="M35 1210l41 201h907l72 -117l-656 -1325l-227 82l559 1159h-696z" />
<glyph unicode="8" horiz-adv-x="1171" d="M86 365q0 255 279 376q-226 122 -226 357q0 338 451 338q444 0 444 -349q0 -221 -235 -329q286 -127 286 -387q0 -391 -501 -391q-248 0 -373 96t-125 289zM350 375q0 -199 238 -199q229 0 229 195q0 174 -256 274q-211 -91 -211 -270zM408 1073q0 -151 196 -227 q168 72 168 229q0 178 -184 178q-180 0 -180 -180z" />
<glyph unicode="9" horiz-adv-x="1142" d="M78 963q0 234 115 354q114 119 344 119q252 0 381 -180q126 -176 126 -535q0 -370 -149 -555q-150 -186 -444 -186q-133 0 -244 40l-21 207q69 -27 135 -43q59 -14 115 -14q292 0 332 405q-120 -65 -256 -65q-434 0 -434 453zM342 971q0 -252 199 -252q122 0 233 51 q-12 463 -239 463q-193 0 -193 -262z" />
<glyph unicode=":" horiz-adv-x="434" d="M82 0v236l270 24v-260h-270zM82 752v235l270 25v-260h-270z" />
<glyph unicode=";" horiz-adv-x="473" d="M66 -219q67 52 93 100q24 44 29 111h-94v246l297 22v-151q0 -75 -10 -131q-11 -60 -37 -111q-29 -57 -72 -104q-48 -53 -114 -103zM106 752v235l271 25v-260h-271z" />
<glyph unicode="&#x3c;" horiz-adv-x="1187" d="M197 485v121l677 414l121 -178l-487 -297l487 -295l-118 -180z" />
<glyph unicode="=" horiz-adv-x="1187" d="M152 233v218h913l-47 -218h-866zM152 672v217h913l-47 -217h-866z" />
<glyph unicode="&#x3e;" horiz-adv-x="1187" d="M193 248l487 297l-487 295l118 180l680 -416v-121l-678 -413z" />
<glyph unicode="?" horiz-adv-x="901" d="M45 1151l27 213q75 32 172 52q98 20 182 20q234 0 339 -90t105 -269q0 -88 -14 -144q-15 -62 -42 -106q-25 -42 -70 -79q-48 -40 -97 -66l-100 -55q-45 -24 -67 -54q-20 -28 -25 -98l-2 -55l-234 -29l-4 166q0 39 5 77q4 31 24 64t50 59q33 28 85 58l88 51q70 40 94 81 q25 44 25 126q0 170 -197 170q-68 0 -156 -22q-83 -21 -188 -70zM205 0v236l270 24v-260h-270z" />
<glyph unicode="@" horiz-adv-x="1703" d="M61 434q0 170 58 310t165 234q110 96 263 146q159 52 350 52q174 0 312 -42q140 -42 235 -120q96 -78 147 -192t51 -255q0 -226 -106 -353q-107 -128 -293 -128q-63 0 -124 25q-59 24 -99 69q-42 -38 -100 -59q-57 -21 -119 -21q-134 0 -213 94q-78 93 -78 259 q0 173 82 268q82 96 229 96q57 0 106 -14q53 -15 89 -41l16 35l154 6v-410q0 -65 24 -102t66 -37q60 0 94 72q35 73 35 196q0 220 -133 341q-134 122 -375 122q-273 0 -422 -143t-149 -404q0 -254 149 -393t422 -139q110 0 217 20q108 20 217 56l-28 -195q-90 -31 -208 -50 q-114 -18 -225 -18q-187 0 -339 50q-150 49 -255 141q-103 89 -159 225q-56 135 -56 299zM750 453q0 -187 112 -187q56 0 96 37v326q-33 20 -79 20q-129 0 -129 -196z" />
<glyph unicode="A" horiz-adv-x="1292" d="M41 0v55l436 1350l332 16l442 -1366v-55h-256l-92 301h-520l-92 -301h-250zM444 500h398l-97 313q-24 76 -52 183q-27 103 -44 196h-12q-18 -100 -43 -193q-31 -116 -53 -184z" />
<glyph unicode="B" horiz-adv-x="1265" d="M131 0v1411h463q146 0 246 -21q98 -20 161 -73q101 -86 101 -264q0 -221 -146 -299v-2q109 -34 167 -118q57 -82 57 -231q0 -205 -123 -299q-71 -55 -188 -79q-120 -25 -277 -25h-461zM395 184h191q88 0 154 11t104 38q35 25 54 69q17 40 17 118q0 72 -22 112 q-24 43 -57 60q-28 16 -82 25q-57 10 -138 10h-221v-443zM395 829h203q144 0 197 56q47 47 47 149q0 104 -49 144q-26 25 -79 36q-52 11 -128 11h-191v-396z" />
<glyph unicode="C" horiz-adv-x="1232" d="M98 705q0 192 36 330q37 141 112 228q78 90 193 131q119 42 282 42q106 0 193 -12q90 -12 173 -40l33 -215q-138 39 -208 51q-86 15 -160 15q-102 0 -173 -30t-117 -94q-46 -63 -67 -167q-20 -97 -20 -246q0 -138 21 -237q20 -96 70 -161q47 -62 123 -91t181 -29 q92 0 185 16q92 16 196 52l-35 -209q-86 -30 -180 -45q-88 -14 -219 -14q-164 0 -281 42q-116 42 -191 130t-111 225t-36 328z" />
<glyph unicode="D" horiz-adv-x="1404" d="M131 0v1411h444q212 0 344 -36q134 -37 218 -113q90 -84 130 -214q40 -129 40 -337q0 -201 -37 -327q-38 -129 -123 -214q-88 -90 -223 -130q-133 -40 -346 -40h-447zM395 199h189q131 0 210 22q81 23 132 72q56 53 80 150t24 264q0 163 -22 255q-22 94 -74 150 q-50 53 -132 77q-79 23 -218 23h-189v-1013z" />
<glyph unicode="E" horiz-adv-x="1085" d="M131 0v1411h881l-35 -201h-582v-395h457v-197h-457v-417h625l-35 -201h-854z" />
<glyph unicode="F" horiz-adv-x="1044" d="M131 0v1411h881l-35 -201h-582v-393h479v-199h-479v-618h-264z" />
<glyph unicode="G" horiz-adv-x="1409" d="M98 698q0 380 171 558q172 180 534 180q109 0 205 -15t198 -45l33 -215q-123 39 -224 57q-98 17 -204 17q-226 0 -331 -129t-105 -408q0 -268 87 -393t273 -125q87 0 156 23q70 23 125 71v310h-248l-35 209h549v-793h-197l-34 78q-67 -51 -155 -75q-83 -23 -204 -23 q-305 0 -449 174q-145 175 -145 544z" />
<glyph unicode="H" horiz-adv-x="1378" d="M131 0v1401l264 18v-598h588v580l264 18v-1419h-264v621h-588v-621h-264z" />
<glyph unicode="I" horiz-adv-x="550" d="M143 0v1401l265 18v-1419h-265z" />
<glyph unicode="J" horiz-adv-x="823" d="M33 207q63 -15 107 -21q46 -6 91 -6q111 0 158 58t47 192v971l264 18v-1013q0 -228 -96 -327t-315 -99q-54 0 -105 6q-58 7 -112 20z" />
<glyph unicode="K" horiz-adv-x="1255" d="M131 0v1401l264 18v-477q0 -47 -3 -92q-4 -57 -7 -88l6 -4q17 23 62 77q9 11 61 68l490 516l170 -155l-441 -453l461 -758v-53h-270l-367 631l-162 -166v-465h-264z" />
<glyph unicode="L" horiz-adv-x="1034" d="M131 0v1401l264 18v-1218h598l-37 -201h-825z" />
<glyph unicode="M" horiz-adv-x="1708" d="M111 0l67 1403l299 18l371 -995h20l357 979l303 16l69 -1421h-258l-28 952h-15l-323 -856h-234l-323 856h-15l-28 -952h-262z" />
<glyph unicode="N" horiz-adv-x="1452" d="M131 0v1393l254 16l668 -1006h14v990l254 16v-1409h-272l-650 969h-14v-969h-254z" />
<glyph unicode="O" horiz-adv-x="1433" d="M98 707q0 192 35 332q35 139 111 227q77 89 192 129q118 41 283 41q162 0 280 -41q117 -41 192 -129q74 -87 109 -227t35 -332q0 -194 -35 -332q-35 -137 -109 -225q-76 -90 -192 -130t-280 -40q-167 0 -283 40q-114 39 -192 130q-76 88 -111 225q-35 138 -35 332z M375 707q0 -280 80 -404q79 -123 262 -123t262 123q80 124 80 404q0 279 -80 404q-79 124 -262 124t-262 -124q-80 -125 -80 -404z" />
<glyph unicode="P" horiz-adv-x="1202" d="M131 0v1411h451q143 0 247 -26t167 -80q65 -56 95 -145q29 -86 29 -214q0 -131 -28 -218q-29 -89 -92 -146q-64 -58 -161 -83q-101 -26 -241 -26h-203v-473h-264zM395 666h187q145 0 205 63q61 64 61 217q0 147 -60 210t-202 63h-191v-553z" />
<glyph unicode="Q" horiz-adv-x="1433" d="M98 707q0 192 35 332q35 139 111 227q77 89 192 129q118 41 283 41q162 0 280 -41q117 -41 192 -129q74 -87 109 -227t35 -332q0 -291 -78 -456t-251 -228l294 -193l-137 -184l-458 334q-162 1 -277 44q-115 42 -188 129t-108 224q-34 135 -34 330zM375 707 q0 -280 80 -404q79 -123 262 -123t262 123q80 124 80 404q0 279 -80 404q-79 124 -262 124t-262 -124q-80 -125 -80 -404z" />
<glyph unicode="R" horiz-adv-x="1204" d="M131 0v1411h467q144 0 237 -23q95 -23 158 -74q62 -50 89 -131q28 -84 28 -198q0 -97 -15 -167q-15 -72 -49 -122q-35 -51 -91 -84q-58 -34 -138 -51l318 -506v-55h-275l-317 537h-148v-537h-264zM395 739h176q145 0 206 56t61 188q0 131 -65 185q-66 55 -220 55h-158 v-484z" />
<glyph unicode="S" horiz-adv-x="1099" d="M82 1020q0 416 514 416q88 0 166 -12q85 -13 166 -35l33 -220q-90 37 -179 54q-83 16 -190 16q-126 0 -183 -45t-57 -141q0 -79 45 -126t150 -75l110 -29q196 -51 285 -146q88 -94 88 -261q0 -230 -120 -333q-119 -103 -386 -103q-127 0 -214 14q-97 16 -181 47l-33 238 q106 -56 200 -80q98 -25 204 -25q136 0 198 50t62 161q0 85 -45 135t-162 78l-115 29q-187 46 -272 140q-84 93 -84 253z" />
<glyph unicode="T" horiz-adv-x="1116" d="M31 1210v201h1077l-37 -201h-381v-1210h-264v1210h-395z" />
<glyph unicode="U" horiz-adv-x="1372" d="M115 541v860l262 16v-860q0 -105 15 -175t51 -114q35 -43 96 -61q63 -19 147 -19q82 0 145 19q61 18 96 61q36 44 51 115q15 72 15 176v842l264 18v-878q0 -153 -30 -260q-30 -106 -99 -175q-67 -67 -177 -97q-106 -29 -265 -29q-162 0 -266 29q-109 30 -176 97 q-69 69 -99 175q-30 107 -30 260z" />
<glyph unicode="V" horiz-adv-x="1335" d="M41 1343v68h262l264 -788q31 -90 53 -170q16 -57 44 -179h12q27 117 44 178q26 91 52 169l270 790h252v-65l-493 -1346h-271z" />
<glyph unicode="W" horiz-adv-x="1900" d="M66 1343v68h258l182 -725q18 -66 38 -174q15 -78 29 -193h13q13 106 28 190q16 91 39 177l164 660h275l163 -660q23 -92 39 -183q18 -99 29 -184h12q11 85 29 184q16 91 39 183l182 725h252v-61l-375 -1350h-280l-162 666q-21 83 -36 172q-16 96 -30 194h-12 q-16 -103 -35 -201q-14 -73 -35 -165l-155 -666h-281z" />
<glyph unicode="X" horiz-adv-x="1269" d="M49 0v70l428 667l-387 604v70h264l283 -475l289 475h248v-70l-390 -602l437 -669v-70h-260l-328 543l-330 -543h-254z" />
<glyph unicode="Y" horiz-adv-x="1202" d="M41 1346v65h252l184 -381q44 -91 74 -165q31 -77 55 -167h10q20 71 57 168q32 83 70 164l181 381h237v-65l-422 -820v-526h-264v520z" />
<glyph unicode="Z" horiz-adv-x="1241" d="M86 154l741 1056h-725l37 201h965l35 -164l-736 -1046h754l-37 -201h-999z" />
<glyph unicode="[" horiz-adv-x="673" d="M131 -295v1731h463l37 -195h-238v-1341h240l-41 -195h-461z" />
<glyph unicode="\" horiz-adv-x="768" d="M49 1372v64h246l424 -1397v-59h-252z" />
<glyph unicode="]" horiz-adv-x="673" d="M41 -100h240v1341h-238l37 195h463v-1731h-461z" />
<glyph unicode="^" horiz-adv-x="1191" d="M111 823l403 588h166l401 -588l-170 -114l-311 458l-319 -458z" />
<glyph unicode="_" horiz-adv-x="1046" d="M-20 -117h1087l-20 -178h-1067v178z" />
<glyph unicode="`" horiz-adv-x="798" d="M96 1374l129 195l471 -312l-86 -139z" />
<glyph unicode="a" horiz-adv-x="1062" d="M53 276q0 147 103 224q100 75 301 75h202v82q0 85 -42 126q-41 40 -132 40q-78 0 -156 -17q-89 -19 -188 -52l23 198q97 30 181 45q85 15 173 15q204 0 301 -83q96 -82 96 -263v-381q0 -110 95 -110q9 0 20 1l-45 -180q-48 -16 -100 -16q-151 0 -201 102 q-112 -102 -291 -102q-168 0 -253 75q-87 77 -87 221zM311 285q0 -125 148 -125q109 0 200 63v178h-186q-162 0 -162 -116z" />
<glyph unicode="b" horiz-adv-x="1126" d="M115 0v1438l256 22v-516q136 68 284 68q402 0 402 -502q0 -270 -105 -400t-319 -130q-169 0 -279 75l-10 -55h-229zM371 221q90 -57 207 -57q217 0 217 334q0 333 -215 333q-115 0 -209 -57v-553z" />
<glyph unicode="c" horiz-adv-x="933" d="M70 500q0 273 119 392q120 120 364 120q83 0 150 -14q65 -14 126 -42l27 -198q-76 34 -141 52q-62 17 -137 17q-130 0 -188 -76t-58 -251q0 -178 57 -257t186 -79q73 0 141 16q66 16 152 56l-18 -193q-54 -28 -133 -46q-74 -17 -174 -17q-237 0 -355 122t-118 398z" />
<glyph unicode="d" horiz-adv-x="1124" d="M70 489q0 274 103 398q104 125 329 125q72 0 134 -14t118 -42v482l256 22v-1460h-230l-10 55q-60 -39 -128 -58q-62 -17 -150 -17q-219 0 -321 121q-101 120 -101 388zM332 489q0 -176 49 -250q49 -75 168 -75q59 0 104 13q51 15 101 42v555q-49 27 -101 40 q-43 11 -106 11q-117 0 -166 -76t-49 -260z" />
<glyph unicode="e" horiz-adv-x="1040" d="M70 487q0 277 110 400q111 125 344 125q229 0 340 -122t111 -378v-88h-643q0 -142 57 -202t197 -60q106 0 183 14q86 16 179 49l-35 -190q-84 -29 -160 -42q-77 -13 -184 -13q-135 0 -230 27t-155 89q-60 61 -87 158q-27 96 -27 233zM332 602h381q0 229 -189 229 q-192 0 -192 -229z" />
<glyph unicode="f" horiz-adv-x="694" d="M33 809v180h141v131q0 186 83 272q82 85 263 85q86 0 195 -25l28 -186q-85 26 -168 26q-76 0 -110 -43q-35 -44 -35 -135v-125h244l-27 -180h-217v-809h-256v809h-141z" />
<glyph unicode="g" horiz-adv-x="1122" d="M68 504q0 260 105 384t329 124q76 0 144 -19q62 -17 124 -59l23 49l215 10v-956q0 -133 -26 -222q-26 -88 -81 -143q-54 -54 -133 -78q-80 -24 -199 -24q-145 0 -256 33l-30 190q108 -39 252 -39q115 0 165 47q52 50 52 174v78q-88 -67 -250 -67q-224 0 -329 126 t-105 392zM330 504q0 -174 53 -254t170 -80q59 0 105 13q50 14 94 42v545q-101 57 -203 57q-115 0 -167 -77t-52 -246z" />
<glyph unicode="h" horiz-adv-x="1128" d="M115 0v1438l256 22v-534q63 40 134 63q72 23 161 23q174 0 263 -92t89 -285v-635h-256v606q0 213 -168 213q-109 0 -223 -63v-756h-256z" />
<glyph unicode="i" horiz-adv-x="501" d="M123 0v969l256 20v-989h-256zM123 1169v215l256 21v-236h-256z" />
<glyph unicode="j" horiz-adv-x="501" d="M-166 -219q47 -16 77 -20q35 -5 66 -5q83 0 114 48q32 49 32 171v994l256 20v-991q0 -116 -19 -202q-18 -81 -60 -132q-43 -52 -111 -73q-69 -21 -169 -21q-36 0 -74 5q-33 4 -79 15zM125 1169v215l256 21v-236h-256z" />
<glyph unicode="k" horiz-adv-x="1013" d="M115 0v1438l256 22v-731q0 -39 -3 -84q-2 -35 -8 -86l7 -2q24 34 53 68q25 29 55 59l332 344l160 -139l-316 -316l322 -528v-45h-260l-238 397l-104 -104v-293h-256z" />
<glyph unicode="l" horiz-adv-x="501" d="M123 0v1438l256 22v-1460h-256z" />
<glyph unicode="m" horiz-adv-x="1714" d="M115 0v967l215 28l20 -82q69 49 138 73q73 26 165 26q199 0 281 -129q72 60 150 94q81 35 192 35q168 0 254 -92t86 -285v-635h-256v606q0 213 -156 213q-56 0 -112 -18q-58 -19 -109 -51q10 -54 10 -115v-635h-256v606q0 213 -155 213q-54 0 -104 -15q-51 -15 -107 -48 v-756h-256z" />
<glyph unicode="n" horiz-adv-x="1128" d="M115 0v967l215 28l20 -82q70 48 143 73q76 26 173 26q174 0 263 -92t89 -285v-635h-256v606q0 213 -168 213q-109 0 -223 -63v-756h-256z" />
<glyph unicode="o" d="M70 496q0 268 115 392t368 124t368 -124t115 -392q0 -269 -115 -393q-114 -123 -368 -123t-368 123q-115 124 -115 393zM332 496q0 -178 51 -256t170 -78t170 78t51 256t-51 256q-50 77 -170 77t-170 -77q-51 -78 -51 -256z" />
<glyph unicode="p" horiz-adv-x="1124" d="M115 -391v1358l198 28l17 -73q68 48 137 68q75 22 164 22q220 0 322 -121t102 -387q0 -274 -97 -400q-96 -124 -307 -124q-82 0 -145 14q-69 15 -135 49v-414zM371 217q52 -29 101 -41q50 -12 114 -12q110 0 158 78q49 80 49 258q0 174 -50 251q-49 76 -161 76 q-60 0 -109 -18q-51 -18 -102 -61v-531z" />
<glyph unicode="q" horiz-adv-x="1124" d="M70 504q0 508 442 508q174 0 281 -78l22 49l195 10v-1364l-256 -20v432q-91 -61 -258 -61q-426 0 -426 524zM332 504q0 -180 53 -260t170 -80q111 0 199 55v543q-84 65 -195 65q-119 0 -173 -76q-54 -77 -54 -247z" />
<glyph unicode="r" horiz-adv-x="698" d="M115 0v967l194 28l25 -92q47 51 113 80q67 29 151 29q30 0 42 -1q23 -2 34 -5l-23 -203q-14 2 -23 3t-30 1q-127 0 -227 -86v-721h-256z" />
<glyph unicode="s" horiz-adv-x="897" d="M82 698q0 154 96 234q97 80 283 80q170 0 323 -58l13 -198q-77 34 -158 54q-77 19 -156 19q-149 0 -149 -98q0 -86 125 -113l114 -24q140 -29 209 -104q64 -69 64 -188v-7q-1 -163 -98 -240q-94 -75 -306 -75q-165 0 -329 59l-19 203q83 -39 170 -60q81 -20 166 -20 q164 0 164 112q0 85 -139 113l-103 21q-141 29 -206 98q-64 68 -64 192z" />
<glyph unicode="t" horiz-adv-x="733" d="M33 809v180h139l39 250l213 14v-264h244l-27 -180h-217v-498q0 -80 31 -114q30 -33 104 -33q44 0 71 4q34 5 62 14l-26 -178q-38 -14 -82 -19q-45 -5 -101 -5q-88 0 -146 16q-62 17 -98 53q-39 39 -55 96q-16 58 -16 144v520h-135z" />
<glyph unicode="u" d="M111 397v572l256 20v-596q0 -125 42 -176t144 -51t144 51t42 176v576l256 20v-592q0 -117 -23 -193q-24 -79 -77 -129q-54 -51 -137 -73q-82 -22 -205 -22t-205 22q-83 22 -137 73q-53 50 -77 129q-23 76 -23 193z" />
<glyph unicode="v" horiz-adv-x="960" d="M12 932v57h252l146 -463q13 -40 37 -137q18 -72 30 -141h12q10 59 31 142q18 72 39 138l148 461h241v-57l-334 -932h-270z" />
<glyph unicode="w" horiz-adv-x="1447" d="M12 932v57h258l111 -461q17 -66 27 -126q10 -59 18 -134h12q10 70 24 136q13 62 30 124l118 426h224l118 -426q19 -70 33 -127t25 -133h12q13 92 20 132q10 57 27 126l117 463h250v-57l-277 -932h-272l-115 383q-16 60 -27 123q-10 62 -18 137h-12q-11 -75 -24 -137 q-17 -79 -29 -123l-111 -383h-277z" />
<glyph unicode="x" horiz-adv-x="1007" d="M33 0v55l323 457l-299 420v57h248l207 -315l201 315h231v-57l-291 -426l322 -451v-55h-246l-235 336l-222 -336h-239z" />
<glyph unicode="y" horiz-adv-x="1007" d="M16 930v59h263l159 -479q21 -62 40 -136q17 -65 28 -143h12q23 142 70 281l157 477h246v-59l-510 -1356l-252 72l146 336z" />
<glyph unicode="z" horiz-adv-x="917" d="M61 125l467 684h-458l39 180h737v-121l-467 -688h485l-39 -180h-735z" />
<glyph unicode="{" horiz-adv-x="755" d="M82 481v209q61 4 101 37t40 102v289q0 177 76 253q77 77 256 77h141l33 -193h-137q-28 0 -51 -5q-20 -4 -32 -21q-11 -16 -16 -47q-6 -40 -6 -80v-240q0 -117 -34 -179q-34 -61 -95 -95v-4q32 -16 55 -36t40 -56q15 -32 25 -85q9 -49 9 -118v-221q0 -93 27 -123 q28 -31 84 -31h137l-33 -193h-147q-177 0 -254 76q-78 76 -78 254v273q0 45 -11 70q-13 29 -31 46q-21 20 -45 28q-23 8 -54 13z" />
<glyph unicode="|" horiz-adv-x="516" d="M131 -47v1481l254 16v-1481z" />
<glyph unicode="}" horiz-adv-x="755" d="M20 -86h138q56 0 84 31q26 29 26 123v221q0 63 10 118q10 53 25 85q17 36 40 56q24 21 54 36v4q-60 33 -94 95q-35 64 -35 179v240q0 47 -5 80q-5 31 -16 47q-12 17 -32 21q-23 5 -51 5h-137l32 193h142q179 0 256 -77q75 -75 75 -253v-289q0 -69 40 -102q40 -32 102 -37 v-209q-60 -7 -101 -41q-41 -33 -41 -116v-273q0 -178 -77 -254t-254 -76h-148z" />
<glyph unicode="~" horiz-adv-x="1191" d="M76 526q70 130 149 181t185 51q55 0 108 -16q51 -15 113 -48l55 -28q57 -30 89 -43q28 -11 50 -11q35 0 70 29t63 123l158 -121q-88 -237 -295 -237q-48 0 -96 13q-50 14 -113 48l-57 31q-47 26 -85 40q-29 11 -60 11q-111 0 -177 -148z" />
<glyph unicode="&#xa1;" horiz-adv-x="460" d="M90 752v260h270v-236zM94 -440l19 1032l233 29l29 -1037z" />
<glyph unicode="&#xa2;" horiz-adv-x="983" d="M106 500q0 130 24 221q24 92 70 151q48 62 113 92q67 31 158 42v176l211 20v-198q49 -7 101 -20q51 -13 83 -28l27 -198q-55 23 -110 38q-64 17 -105 23v-649q46 7 113 25q53 14 114 41l-18 -193q-37 -20 -92 -34q-52 -13 -113 -21v-172l-211 -21v191q-95 11 -161 44 q-69 34 -113 95q-45 62 -68 154q-23 94 -23 221zM369 500q0 -150 24 -220q24 -71 82 -98v625q-55 -27 -81 -96q-25 -68 -25 -211z" />
<glyph unicode="&#xa3;" horiz-adv-x="1112" d="M78 170q45 20 83 47q32 23 56 54q23 30 33 69q10 37 10 92v193h-147v182h147v180q0 239 115 348q101 101 301 101q69 0 150 -13q78 -12 141 -34l18 -203q-71 24 -139 35q-72 12 -131 12q-97 0 -140 -43q-49 -50 -49 -205v-178h353l-37 -182h-316v-195q0 -152 -102 -229 h639l-59 -201h-895z" />
<glyph unicode="&#xa4;" horiz-adv-x="1191" d="M61 352l164 160q-28 40 -45 91q-16 48 -16 106q0 53 14 99q16 53 43 97l-160 160l175 162l163 -162q41 23 93 35q51 12 106 12q56 0 107 -12q50 -12 92 -35l159 162l174 -162l-161 -162q30 -45 45 -95q14 -46 14 -99q0 -58 -16 -106q-17 -51 -45 -91l163 -162l-169 -164 l-164 166q-42 -23 -92 -35q-51 -12 -107 -12q-55 0 -106 12q-52 12 -93 35l-166 -166zM424 709q0 -89 48 -140t126 -51t126 51t48 140q0 88 -48 139t-126 51t-126 -51t-48 -139z" />
<glyph unicode="&#xa5;" horiz-adv-x="1193" d="M37 1346v65h252l184 -381q44 -91 74 -165q31 -77 55 -167h10q20 71 57 168q32 83 70 164l181 381h237v-65l-356 -691h213l-35 -176h-244v-100h226l-35 -176h-191v-203h-264v203h-256v176h256v100h-256v176h184z" />
<glyph unicode="&#xa6;" horiz-adv-x="458" d="M102 -47v584l254 16v-584zM102 850v584l254 16v-584z" />
<glyph unicode="&#xa7;" horiz-adv-x="976" d="M82 737q0 63 33 125q34 63 94 101q-45 35 -65 85q-19 48 -19 103q0 131 99 208q100 77 296 77q64 0 136 -14q70 -14 116 -36l29 -196q-81 35 -152 50q-72 15 -123 15q-71 0 -97 -22q-28 -23 -28 -64q0 -34 17 -56q18 -22 67 -34l131 -32q152 -38 215 -110q64 -73 64 -175 q0 -85 -27 -142q-28 -59 -86 -98q45 -33 69 -91q23 -56 23 -148q0 -140 -98 -222q-97 -81 -303 -81q-82 0 -156 13q-75 13 -137 42l-35 207q81 -41 164 -62q80 -20 154 -20q86 0 122 30t36 93q0 46 -24 73t-83 39l-133 29q-162 34 -231 112q-68 77 -68 201zM338 758 q0 -29 10 -48q11 -21 28 -32q23 -15 41 -21q32 -10 50 -14l127 -33q21 16 37 44q14 25 14 67q0 46 -27 70q-29 26 -94 43l-135 34q-51 -40 -51 -110z" />
<glyph unicode="&#xa8;" horiz-adv-x="798" d="M49 1169v215l256 21v-236h-256zM492 1169v215l256 21v-236h-256z" />
<glyph unicode="&#xa9;" horiz-adv-x="1675" d="M82 709q0 172 51 307q50 133 148 228q95 92 237 142t320 50q177 0 319 -50q143 -50 238 -142q96 -93 147 -228t51 -307q0 -173 -51 -308t-147 -228q-95 -92 -238 -142q-140 -49 -319 -49q-180 0 -320 49q-142 50 -237 142q-98 95 -148 228q-51 135 -51 308zM330 709 q0 -249 133 -385q135 -138 375 -138q239 0 374 138q134 137 134 385t-134 385t-374 137q-241 0 -375 -137q-133 -136 -133 -385zM504 715q0 366 348 366q115 0 197 -26l22 -156q-57 18 -92 22q-43 5 -86 5q-93 0 -127 -46q-35 -47 -35 -165q0 -119 34 -165t122 -46 q49 0 94 9q44 9 109 32l-17 -156q-120 -37 -219 -37q-350 0 -350 363z" />
<glyph unicode="&#xaa;" horiz-adv-x="698" d="M16 975q0 83 56 133q39 31 98 47q60 16 154 16h69v21q0 47 -20 68q-16 16 -41 21q-27 5 -60 5q-49 0 -104 -16q-64 -19 -105 -37l21 170q52 19 119 32q66 13 137 13q78 0 133 -15q53 -14 94 -57q30 -30 44 -70q16 -45 16 -126v-164q0 -34 16 -49q17 -16 66 -17l-21 -147 q-42 -15 -66 -18q-35 -5 -55 -5q-94 0 -149 76q-37 -32 -81 -52q-49 -22 -106 -22q-102 0 -159 52q-56 51 -56 141zM246 987q0 -59 65 -59q48 0 82 28v99h-53q-59 0 -77 -18q-17 -17 -17 -50z" />
<glyph unicode="&#xab;" horiz-adv-x="1042" d="M41 446v43l315 418l166 -110l-227 -330l229 -328l-164 -110zM506 446v43l315 418l166 -110l-227 -330l229 -328l-164 -110z" />
<glyph unicode="&#xac;" horiz-adv-x="1187" d="M137 424v217h918v-414l-238 -18v215h-680z" />
<glyph unicode="&#xad;" horiz-adv-x="602" d="M70 432v201h477l-29 -201h-448z" />
<glyph unicode="&#xae;" horiz-adv-x="1675" d="M82 709q0 172 51 307q50 133 148 228q95 92 237 142t320 50q177 0 319 -50q143 -50 238 -142q96 -93 147 -228t51 -307q0 -173 -51 -308t-147 -228q-95 -92 -238 -142q-140 -49 -319 -49q-180 0 -320 49q-142 50 -237 142q-98 95 -148 228q-51 135 -51 308zM330 709 q0 -249 133 -385q135 -138 375 -138q239 0 374 138q134 137 134 385t-134 385t-374 137q-241 0 -375 -137q-133 -136 -133 -385zM573 360v709h299q125 0 190 -58q66 -59 66 -165q0 -75 -33 -122q-36 -51 -94 -73l150 -239v-52h-211l-131 230h-14v-230h-222zM795 750h32 q80 0 80 84q0 86 -80 86h-32v-170z" />
<glyph unicode="&#xaf;" horiz-adv-x="798" d="M70 1192v172h657l-41 -172h-616z" />
<glyph unicode="&#xb0;" horiz-adv-x="778" d="M90 1243q0 54 20 108q19 51 57 92q36 38 94 63q57 24 128 24t128 -24q58 -25 94 -63q40 -43 58 -92q19 -51 19 -108q0 -56 -19 -107t-58 -93q-36 -38 -94 -63q-57 -24 -128 -24t-128 24q-58 25 -94 63q-37 40 -57 92t-20 108zM279 1243q0 -55 31 -89t79 -34t79 34 q32 35 32 89q0 56 -32 90q-31 33 -79 33q-47 0 -79 -33q-31 -32 -31 -90z" />
<glyph unicode="&#xb1;" horiz-adv-x="1187" d="M139 0v217h914l-47 -217h-867zM139 657v217h328v300l238 18v-318h348l-47 -217h-301v-292l-238 -19v311h-328z" />
<glyph unicode="&#xb2;" horiz-adv-x="724" d="M76 795q180 135 271 238t91 184q0 39 -23 61t-73 22q-110 0 -242 -71l21 188q62 21 130 37q60 14 132 14q143 0 221 -56q80 -57 80 -177q0 -106 -68 -198q-66 -89 -202 -189h299l-47 -182h-560z" />
<glyph unicode="&#xb3;" horiz-adv-x="724" d="M61 885q70 -30 146 -50q69 -18 121 -18q118 0 118 86q0 45 -24 65q-23 19 -92 19h-111v166h113q59 0 81 22q21 21 21 58q0 35 -24 53q-25 19 -82 19q-42 0 -103 -15q-65 -16 -133 -47l21 180q59 22 130 34q63 11 136 11q141 0 212 -54t71 -159q0 -116 -95 -176 q53 -24 83 -68q30 -43 30 -114q0 -117 -82 -180q-84 -64 -254 -64q-65 0 -135 14q-74 15 -129 35z" />
<glyph unicode="&#xb4;" horiz-adv-x="798" d="M115 1247l463 322l124 -195l-499 -262z" />
<glyph unicode="&#xb5;" horiz-adv-x="1112" d="M117 -397v1366l256 20v-596q0 -75 12 -119q11 -41 41 -69q45 -39 133 -39t133 39q30 28 41 69q12 43 12 119v576l256 20v-592q0 -121 -23 -193q-24 -75 -73 -124q-54 -52 -134 -76q-81 -24 -204 -24q-63 0 -115 16q-56 17 -79 37v-408z" />
<glyph unicode="&#xb6;" horiz-adv-x="1177" d="M33 993q0 199 129 310q127 108 352 108h631l-23 -180h-92v-1475l-258 -14v1489h-106v-1505l-269 -17v879q-177 24 -271 128q-93 104 -93 277z" />
<glyph unicode="&#xb7;" horiz-adv-x="434" d="M82 471v236l270 24v-260h-270z" />
<glyph unicode="&#xb8;" horiz-adv-x="798" d="M164 -309q33 -14 79 -27q43 -12 93 -12q51 0 77 19q27 19 27 55q0 35 -29 52q-28 17 -83 17q-32 0 -65 -5q-29 -4 -58 -15l33 245h155l-16 -106q35 8 78 8q92 0 140 -53t48 -131q0 -102 -66 -161q-65 -58 -202 -58q-54 0 -100 10q-49 11 -95 27z" />
<glyph unicode="&#xb9;" horiz-adv-x="724" d="M78 1315l274 141h168v-790h-233v561l-140 -74z" />
<glyph unicode="&#xba;" horiz-adv-x="761" d="M49 1114q0 174 83 254t249 80t249 -80t83 -254t-83 -254t-249 -80t-249 80t-83 254zM295 1114q0 -47 5 -84q4 -33 15 -51q11 -19 27 -26q15 -7 39 -7t39 7t26 26q12 20 16 51q5 37 5 84q0 100 -21 134t-65 34q-48 0 -67 -34t-19 -134z" />
<glyph unicode="&#xbb;" horiz-adv-x="1042" d="M53 139l230 328l-228 330l166 110l316 -418v-43l-320 -417zM518 139l230 328l-228 330l166 110l315 -418v-43l-319 -417z" />
<glyph unicode="&#xbc;" horiz-adv-x="1679" d="M29 1315l274 141h168v-790h-233v561l-140 -74zM215 96l922 1366l215 -133l-928 -1380zM893 274l240 500h235v-41l-203 -414h123v134l217 26v-160h119l-22 -167h-97v-152h-217v152h-364z" />
<glyph unicode="&#xbd;" horiz-adv-x="1775" d="M78 1315l274 141h168v-790h-233v561l-140 -74zM303 96l922 1366l215 -133l-928 -1380zM1126 129q180 135 272 239q91 103 91 183q0 39 -24 61q-25 23 -72 23q-109 0 -242 -72l20 189q51 17 131 36q64 15 132 15q142 0 221 -57q80 -57 80 -177q0 -105 -68 -197 q-66 -90 -203 -190h299l-47 -182h-559z" />
<glyph unicode="&#xbe;" horiz-adv-x="1679" d="M57 885q70 -30 146 -50q69 -18 121 -18q118 0 118 86q0 45 -24 65q-23 19 -92 19h-111v166h113q59 0 81 22q21 21 21 58q0 35 -24 53q-25 19 -82 19q-42 0 -103 -15q-65 -16 -133 -47l21 180q59 22 130 34q63 11 136 11q141 0 212 -54q70 -54 70 -159q0 -116 -94 -176 q53 -24 83 -68q30 -43 30 -114q0 -117 -82 -180q-84 -64 -254 -64q-65 0 -135 14q-74 15 -129 35zM289 96l921 1366l215 -133l-927 -1380zM913 274l240 500h236v-41l-203 -414h123v134l217 26v-160h119l-23 -167h-96v-152h-217v152h-365z" />
<glyph unicode="&#xbf;" horiz-adv-x="901" d="M31 -66q0 89 14 145q15 60 42 105q27 44 70 80q48 40 97 66l100 55q46 25 67 53q20 28 25 99l2 55l234 28l4 -165q0 -39 -5 -77q-4 -32 -24 -65q-19 -31 -50 -58q-33 -28 -85 -58l-88 -52q-71 -40 -94 -80q-25 -44 -25 -126q0 -170 197 -170q68 0 156 22q83 21 188 70 l-27 -213q-75 -32 -172 -52q-98 -20 -182 -20q-234 0 -339 90t-105 268zM426 752v260h270v-236z" />
<glyph unicode="&#xc0;" horiz-adv-x="1292" d="M41 0v55l436 1350l332 16l442 -1366v-55h-256l-92 301h-520l-92 -301h-250zM227 1769l129 195l471 -311l-86 -140zM444 500h398l-97 313q-24 76 -52 183q-27 103 -44 196h-12q-18 -100 -43 -193q-31 -116 -53 -184z" />
<glyph unicode="&#xc1;" horiz-adv-x="1292" d="M41 0v55l436 1350l332 16l442 -1366v-55h-256l-92 301h-520l-92 -301h-250zM438 1649l463 321l125 -194l-500 -263zM444 500h398l-97 313q-24 76 -52 183q-27 103 -44 196h-12q-18 -100 -43 -193q-31 -116 -53 -184z" />
<glyph unicode="&#xc2;" horiz-adv-x="1292" d="M41 0v55l436 1350l332 16l442 -1366v-55h-256l-92 301h-520l-92 -301h-250zM285 1608l274 327h156l274 -327l-135 -111l-215 229l-219 -229zM444 500h398l-97 313q-24 76 -52 183q-27 103 -44 196h-12q-18 -100 -43 -193q-31 -116 -53 -184z" />
<glyph unicode="&#xc3;" horiz-adv-x="1292" d="M41 0v55l436 1350l332 16l442 -1366v-55h-256l-92 301h-520l-92 -301h-250zM248 1663q35 103 94 161t145 58q47 0 85 -17q40 -18 75 -39t69 -39t66 -18q37 0 67 32q26 28 56 77l125 -88q-35 -103 -94 -161t-145 -58q-52 0 -90 17q-34 15 -75 39q-12 7 -68 39 q-30 17 -62 17q-37 0 -67 -31q-26 -28 -56 -77zM444 500h398l-97 313q-24 76 -52 183q-27 103 -44 196h-12q-18 -100 -43 -193q-31 -116 -53 -184z" />
<glyph unicode="&#xc4;" horiz-adv-x="1292" d="M41 0v55l436 1350l332 16l442 -1366v-55h-256l-92 301h-520l-92 -301h-250zM285 1602v215l256 20v-235h-256zM444 500h398l-97 313q-24 76 -52 183q-27 103 -44 196h-12q-18 -100 -43 -193q-31 -116 -53 -184zM727 1602v215l256 20v-235h-256z" />
<glyph unicode="&#xc5;" horiz-adv-x="1292" d="M41 0v55l436 1350l332 16l442 -1366v-55h-256l-92 301h-520l-92 -301h-250zM393 1726q0 95 64 161q63 65 176 65t176 -65t63 -161t-63 -160q-63 -65 -176 -65t-176 65q-64 66 -64 160zM444 500h398l-97 313q-24 76 -52 183q-27 103 -44 196h-12q-18 -100 -43 -193 q-31 -116 -53 -184zM553 1726q0 -36 21 -59q21 -22 59 -22q37 0 58 22q22 24 22 59q0 37 -22 62q-21 24 -58 24q-38 0 -59 -24t-21 -62z" />
<glyph unicode="&#xc6;" horiz-adv-x="1908" d="M8 0v55l848 1356h979l-35 -201h-581v-395h456v-197h-456v-417h624l-35 -201h-854v299h-501l-181 -299h-264zM571 498h383v641z" />
<glyph unicode="&#xc7;" horiz-adv-x="1232" d="M98 705q0 192 36 330q37 141 112 228q78 90 193 131q119 42 282 42q106 0 193 -12q90 -12 173 -40l33 -215q-138 39 -208 51q-86 15 -160 15q-102 0 -173 -30t-117 -94q-46 -63 -67 -167q-20 -97 -20 -246q0 -138 21 -237q20 -96 70 -161q47 -62 123 -91t181 -29 q92 0 185 16q92 16 196 52l-35 -209q-86 -30 -180 -45q-88 -14 -219 -14h-29l-12 -82q35 8 78 8q92 0 140 -53t48 -132q0 -101 -66 -160q-67 -59 -202 -59q-50 0 -100 11q-57 12 -95 26l-16 135q26 -12 79 -26q47 -13 93 -13q49 0 77 20q27 19 27 54t-29 52q-30 18 -83 18 q-32 0 -65 -5q-25 -4 -58 -16l31 238q-229 40 -333 213t-104 496z" />
<glyph unicode="&#xc8;" horiz-adv-x="1085" d="M131 0v1411h881l-35 -201h-582v-395h457v-197h-457v-417h625l-35 -201h-854zM174 1769l129 195l471 -311l-86 -140z" />
<glyph unicode="&#xc9;" horiz-adv-x="1085" d="M131 0v1411h881l-35 -201h-582v-395h457v-197h-457v-417h625l-35 -201h-854zM365 1649l462 321l125 -194l-499 -263z" />
<glyph unicode="&#xca;" horiz-adv-x="1085" d="M131 0v1411h881l-35 -201h-582v-395h457v-197h-457v-417h625l-35 -201h-854zM229 1608l275 327h155l275 -327l-135 -111l-215 229l-219 -229z" />
<glyph unicode="&#xcb;" horiz-adv-x="1085" d="M131 0v1411h881l-35 -201h-582v-395h457v-197h-457v-417h625l-35 -201h-854zM229 1602v215l256 20v-235h-256zM672 1602v215l256 20v-235h-256z" />
<glyph unicode="&#xcc;" horiz-adv-x="550" d="M-135 1769l129 195l471 -311l-86 -140zM143 0v1401l265 18v-1419h-265z" />
<glyph unicode="&#xcd;" horiz-adv-x="550" d="M76 1649l463 321l125 -194l-500 -263zM143 0v1401l265 18v-1419h-265z" />
<glyph unicode="&#xce;" horiz-adv-x="550" d="M-80 1608l275 327h155l275 -327l-136 -111l-215 229l-219 -229zM143 0v1401l265 18v-1419h-265z" />
<glyph unicode="&#xcf;" horiz-adv-x="550" d="M-80 1602v215l256 20v-235h-256zM143 0v1401l265 18v-1419h-265zM362 1602v215l256 20v-235h-256z" />
<glyph unicode="&#xd0;" horiz-adv-x="1466" d="M37 623v196h156v592h444q211 0 343 -36q134 -37 218 -113q90 -84 130 -214q40 -129 40 -337q0 -201 -37 -327q-38 -129 -123 -214q-88 -90 -223 -130q-133 -40 -346 -40h-446v623h-156zM457 199h188q131 0 210 22q81 23 132 72q56 53 80 150q25 102 25 264q0 158 -23 255 q-22 94 -74 150q-50 53 -132 77q-79 23 -218 23h-188v-393h329l-49 -196h-280v-424z" />
<glyph unicode="&#xd1;" horiz-adv-x="1452" d="M131 0v1393l254 16l668 -1006h14v990l254 16v-1409h-272l-650 969h-14v-969h-254zM336 1663q35 103 94 161t145 58q47 0 85 -17q40 -18 75 -39t69 -39t66 -18q37 0 67 32q26 28 56 77l125 -88q-35 -103 -94 -161t-145 -58q-51 0 -89 17t-76 39q-12 7 -68 39 q-30 17 -62 17q-37 0 -67 -31q-26 -28 -56 -77z" />
<glyph unicode="&#xd2;" horiz-adv-x="1433" d="M98 707q0 192 35 332q35 139 111 227q77 89 192 129q118 41 283 41q162 0 280 -41q117 -41 192 -129q74 -87 109 -227t35 -332q0 -194 -35 -332q-35 -137 -109 -225q-76 -90 -192 -130t-280 -40q-167 0 -283 40q-114 39 -192 130q-76 88 -111 225q-35 138 -35 332z M307 1769l129 195l471 -311l-86 -140zM375 707q0 -280 80 -404q79 -123 262 -123t262 123q80 124 80 404q0 279 -80 404q-79 124 -262 124t-262 -124q-80 -125 -80 -404z" />
<glyph unicode="&#xd3;" horiz-adv-x="1433" d="M98 707q0 192 35 332q35 139 111 227q77 89 192 129q118 41 283 41q162 0 280 -41q117 -41 192 -129q74 -87 109 -227t35 -332q0 -194 -35 -332q-35 -137 -109 -225q-76 -90 -192 -130t-280 -40q-167 0 -283 40q-114 39 -192 130q-76 88 -111 225q-35 138 -35 332z M375 707q0 -280 80 -404q79 -123 262 -123t262 123q80 124 80 404q0 279 -80 404q-79 124 -262 124t-262 -124q-80 -125 -80 -404zM518 1649l463 321l125 -194l-500 -263z" />
<glyph unicode="&#xd4;" horiz-adv-x="1433" d="M98 707q0 192 35 332q35 139 111 227q77 89 192 129q118 41 283 41q162 0 280 -41q117 -41 192 -129q74 -87 109 -227t35 -332q0 -194 -35 -332q-35 -137 -109 -225q-76 -90 -192 -130t-280 -40q-167 0 -283 40q-114 39 -192 130q-76 88 -111 225q-35 138 -35 332z M365 1608l274 327h156l274 -327l-135 -111l-215 229l-219 -229zM375 707q0 -280 80 -404q79 -123 262 -123t262 123q80 124 80 404q0 279 -80 404q-79 124 -262 124t-262 -124q-80 -125 -80 -404z" />
<glyph unicode="&#xd5;" horiz-adv-x="1433" d="M98 707q0 192 35 332q35 139 111 227q77 89 192 129q118 41 283 41q162 0 280 -41q117 -41 192 -129q74 -87 109 -227t35 -332q0 -194 -35 -332q-35 -137 -109 -225q-76 -90 -192 -130t-280 -40q-167 0 -283 40q-114 39 -192 130q-76 88 -111 225q-35 138 -35 332z M328 1663q35 103 94 161t145 58q47 0 85 -17q40 -18 75 -39t69 -39q35 -18 66 -18q37 0 67 32q26 28 56 77l125 -88q-35 -103 -94 -161t-146 -58q-51 0 -89 17q-34 15 -75 39q-12 7 -68 39q-30 17 -63 17q-36 0 -66 -31q-26 -28 -56 -77zM375 707q0 -280 80 -404 q79 -123 262 -123t262 123q80 124 80 404q0 279 -80 404q-79 124 -262 124t-262 -124q-80 -125 -80 -404z" />
<glyph unicode="&#xd6;" horiz-adv-x="1433" d="M98 707q0 192 35 332q35 139 111 227q77 89 192 129q118 41 283 41q162 0 280 -41q117 -41 192 -129q74 -87 109 -227t35 -332q0 -194 -35 -332q-35 -137 -109 -225q-76 -90 -192 -130t-280 -40q-167 0 -283 40q-114 39 -192 130q-76 88 -111 225q-35 138 -35 332z M362 1602v215l256 20v-235h-256zM375 707q0 -280 80 -404q79 -123 262 -123t262 123q80 124 80 404q0 279 -80 404q-79 124 -262 124t-262 -124q-80 -125 -80 -404zM805 1602v215l256 20v-235h-256z" />
<glyph unicode="&#xd7;" horiz-adv-x="1187" d="M174 780l162 158l256 -260l258 260l166 -158l-254 -254l250 -241l-162 -164l-258 260l-256 -260l-158 164l250 241z" />
<glyph unicode="&#xd8;" horiz-adv-x="1433" d="M98 707q0 192 35 332q35 139 111 227q77 89 192 129q118 41 283 41q199 0 323 -60l101 148l186 -113l-117 -172q123 -174 123 -532q0 -194 -35 -332q-35 -137 -109 -225q-76 -90 -192 -130t-280 -40q-197 0 -326 57l-100 -150l-187 113l117 172q-64 88 -95 221 q-30 130 -30 314zM375 707q0 -172 26 -275l510 750q-74 53 -194 53q-183 0 -262 -124q-80 -125 -80 -404zM524 229q36 -25 86 -38q43 -11 107 -11q183 0 262 123q80 124 80 404q0 163 -27 268z" />
<glyph unicode="&#xd9;" horiz-adv-x="1372" d="M115 541v860l262 16v-860q0 -105 15 -175t51 -114q35 -43 96 -61q63 -19 147 -19q82 0 145 19q61 18 96 61q36 44 51 115q15 72 15 176v842l264 18v-878q0 -153 -30 -260q-30 -106 -99 -175q-67 -67 -177 -97q-106 -29 -265 -29q-162 0 -266 29q-109 30 -176 97 q-69 69 -99 175q-30 107 -30 260zM285 1769l129 195l471 -311l-86 -140z" />
<glyph unicode="&#xda;" horiz-adv-x="1372" d="M115 541v860l262 16v-860q0 -105 15 -175t51 -114q35 -43 96 -61q63 -19 147 -19q82 0 145 19q61 18 96 61q36 44 51 115q15 72 15 176v842l264 18v-878q0 -153 -30 -260q-30 -106 -99 -175q-67 -67 -177 -97q-106 -29 -265 -29q-162 0 -266 29q-109 30 -176 97 q-69 69 -99 175q-30 107 -30 260zM496 1649l462 321l125 -194l-499 -263z" />
<glyph unicode="&#xdb;" horiz-adv-x="1372" d="M115 541v860l262 16v-860q0 -105 15 -175t51 -114q35 -43 96 -61q63 -19 147 -19q82 0 145 19q61 18 96 61q36 44 51 115q15 72 15 176v842l264 18v-878q0 -153 -30 -260q-30 -106 -99 -175q-67 -67 -177 -97q-106 -29 -265 -29q-162 0 -266 29q-109 30 -176 97 q-69 69 -99 175q-30 107 -30 260zM340 1608l274 327h156l274 -327l-135 -111l-215 229l-219 -229z" />
<glyph unicode="&#xdc;" horiz-adv-x="1372" d="M115 541v860l262 16v-860q0 -105 15 -175t51 -114q35 -43 96 -61q63 -19 147 -19q82 0 145 19q61 18 96 61q36 44 51 115q15 72 15 176v842l264 18v-878q0 -153 -30 -260q-30 -106 -99 -175q-67 -67 -177 -97q-106 -29 -265 -29q-162 0 -266 29q-109 30 -176 97 q-69 69 -99 175q-30 107 -30 260zM340 1602v215l256 20v-235h-256zM782 1602v215l256 20v-235h-256z" />
<glyph unicode="&#xdd;" horiz-adv-x="1202" d="M41 1346v65h252l184 -381q44 -91 74 -165q31 -77 55 -167h10q20 71 57 168q32 83 70 164l181 381h237v-65l-422 -820v-526h-264v520zM412 1649l462 321l125 -194l-499 -263z" />
<glyph unicode="&#xde;" horiz-adv-x="1202" d="M131 0v1401l264 18v-219h187q152 0 251 -23q103 -24 166 -78q64 -55 93 -144q28 -87 28 -220q0 -125 -25 -213q-25 -90 -87 -147q-63 -58 -162 -85q-104 -28 -248 -28h-203v-262h-264zM395 455h187q78 0 127 13q52 14 82 45q31 32 44 86q13 52 13 136q0 75 -12 128 t-42 84q-29 31 -81 46q-51 15 -127 15h-191v-553z" />
<glyph unicode="&#xdf;" horiz-adv-x="1296" d="M33 809v180h141v29q0 230 136 344q138 115 376 115q116 0 200 -26q83 -26 136 -71q55 -47 78 -106q24 -62 24 -131q0 -86 -38 -147q-37 -59 -128 -117l-45 -29q-56 -37 -82 -64q-22 -23 -22 -49q0 -30 28 -52t89 -44l75 -29q57 -23 103 -47q46 -25 76 -59q30 -35 47 -82 q16 -45 16 -113q0 -160 -98 -245q-100 -86 -297 -86q-86 0 -151 15q-58 14 -126 40l-16 207q82 -43 144 -61q64 -19 132 -19q97 0 130 37q32 36 32 94q0 49 -24 76t-90 51l-99 37q-207 78 -207 262q0 81 38 136t114 101l72 45q46 28 62 60q15 30 15 72q0 74 -49 117 q-50 44 -153 44q-56 0 -100 -15q-43 -15 -75 -50t-50 -93q-17 -55 -17 -147v-1161l-256 -23v1004h-141z" />
<glyph unicode="&#xe0;" horiz-adv-x="1062" d="M53 276q0 147 103 224q100 75 301 75h202v82q0 85 -42 126q-41 40 -132 40q-78 0 -156 -17q-89 -19 -188 -52l23 198q97 30 181 45q85 15 173 15q204 0 301 -83q96 -82 96 -263v-381q0 -121 115 -109l-45 -180q-48 -16 -100 -16q-151 0 -201 102q-112 -102 -291 -102 q-168 0 -253 75q-87 77 -87 221zM133 1374l129 195l471 -312l-86 -139zM311 285q0 -125 148 -125q109 0 200 63v178h-186q-162 0 -162 -116z" />
<glyph unicode="&#xe1;" horiz-adv-x="1062" d="M53 276q0 147 103 224q100 75 301 75h202v82q0 85 -42 126q-41 40 -132 40q-78 0 -156 -17q-89 -19 -188 -52l23 198q97 30 181 45q85 15 173 15q204 0 301 -83q96 -82 96 -263v-381q0 -121 115 -109l-45 -180q-48 -16 -100 -16q-151 0 -201 102q-112 -102 -291 -102 q-168 0 -253 75q-87 77 -87 221zM295 1247l463 322l125 -195l-500 -262zM311 285q0 -125 148 -125q109 0 200 63v178h-186q-162 0 -162 -116z" />
<glyph unicode="&#xe2;" horiz-adv-x="1062" d="M53 276q0 147 103 224q100 75 301 75h202v82q0 85 -42 126q-41 40 -132 40q-78 0 -156 -17q-89 -19 -188 -52l23 198q97 30 181 45q85 15 173 15q204 0 301 -83q96 -82 96 -263v-381q0 -121 115 -109l-45 -180q-48 -16 -100 -16q-151 0 -201 102q-112 -102 -291 -102 q-168 0 -253 75q-87 77 -87 221zM170 1223l274 327h156l274 -327l-135 -111l-215 229l-219 -229zM311 285q0 -125 148 -125q109 0 200 63v178h-186q-162 0 -162 -116z" />
<glyph unicode="&#xe3;" horiz-adv-x="1062" d="M53 276q0 147 103 224q100 75 301 75h202v82q0 85 -42 126q-41 40 -132 40q-78 0 -156 -17q-89 -19 -188 -52l23 198q97 30 181 45q85 15 173 15q204 0 301 -83q96 -82 96 -263v-381q0 -121 115 -109l-45 -180q-48 -16 -100 -16q-151 0 -201 102q-112 -102 -291 -102 q-168 0 -253 75q-87 77 -87 221zM125 1264q34 102 94 160q61 59 146 59q45 0 85 -18q37 -16 74 -39q23 -14 69 -38q35 -18 66 -18q37 0 67 32q26 28 56 77l125 -88q-35 -103 -94 -161q-61 -59 -145 -59q-48 0 -89 18q-38 17 -76 39q-12 7 -68 39q-30 17 -62 17 q-37 0 -67 -32q-28 -30 -56 -76zM311 285q0 -125 148 -125q109 0 200 63v178h-186q-162 0 -162 -116z" />
<glyph unicode="&#xe4;" horiz-adv-x="1062" d="M53 276q0 147 103 224q100 75 301 75h202v82q0 85 -42 126q-41 40 -132 40q-78 0 -156 -17q-89 -19 -188 -52l23 198q97 30 181 45q85 15 173 15q204 0 301 -83q96 -82 96 -263v-381q0 -121 115 -109l-45 -180q-48 -16 -100 -16q-151 0 -201 102q-112 -102 -291 -102 q-168 0 -253 75q-87 77 -87 221zM178 1169v215l256 21v-236h-256zM311 285q0 -125 148 -125q109 0 200 63v178h-186q-162 0 -162 -116zM621 1169v215l256 21v-236h-256z" />
<glyph unicode="&#xe5;" horiz-adv-x="1062" d="M53 276q0 147 103 224q100 75 301 75h202v82q0 85 -42 126q-41 40 -132 40q-78 0 -156 -17q-89 -19 -188 -52l23 198q97 30 181 45q85 15 173 15q204 0 301 -83q96 -82 96 -263v-381q0 -121 115 -109l-45 -180q-48 -16 -100 -16q-151 0 -201 102q-112 -102 -291 -102 q-168 0 -253 75q-87 77 -87 221zM289 1317q0 97 63 161t176 64q114 0 177 -64t63 -161t-63 -161t-177 -64q-113 0 -176 64t-63 161zM311 285q0 -125 148 -125q109 0 200 63v178h-186q-162 0 -162 -116zM449 1317q0 -37 21 -60q21 -22 58 -22q38 0 59 22q21 23 21 60t-21 61 q-22 25 -59 25q-36 0 -58 -25q-21 -24 -21 -61z" />
<glyph unicode="&#xe6;" horiz-adv-x="1624" d="M53 289q0 313 404 313h200q0 2 1 3t1 3v49q0 86 -40 126t-134 40q-77 0 -157 -16q-88 -18 -187 -53l23 198q100 30 182 45q84 15 172 15q203 0 299 -78q108 78 291 78q229 0 340 -122t111 -378v-88h-644q0 -141 58 -202q57 -60 196 -60q107 0 184 14q86 16 179 49 l-35 -190q-83 -29 -161 -42q-77 -13 -183 -13q-149 0 -245 31q-95 31 -156 104q-55 -61 -139 -99q-79 -36 -193 -36q-175 0 -270 76q-97 77 -97 233zM311 297q0 -137 148 -137q131 0 225 82q-25 84 -31 186h-180q-162 0 -162 -131zM915 602h381q0 229 -188 229 q-193 0 -193 -229z" />
<glyph unicode="&#xe7;" horiz-adv-x="933" d="M70 500q0 273 119 392q120 120 364 120q83 0 150 -14q65 -14 126 -42l27 -198q-76 34 -141 52q-62 17 -137 17q-130 0 -188 -76t-58 -251q0 -178 57 -257t186 -79q73 0 141 16q66 16 152 56l-18 -193q-54 -28 -133 -46q-74 -17 -174 -17h-24q-7 0 -21 2l-13 -84 q35 8 78 8q92 0 140 -53q49 -54 49 -132q0 -101 -67 -160t-202 -59q-49 0 -99 11q-57 12 -95 26l-17 135q26 -12 79 -26q47 -13 93 -13q49 0 77 20t28 54t-30 52t-83 18q-31 0 -64 -5q-26 -4 -59 -16l33 246h4q-142 41 -211 162q-69 122 -69 334z" />
<glyph unicode="&#xe8;" horiz-adv-x="1040" d="M70 487q0 277 110 400q111 125 344 125q229 0 340 -122t111 -378v-88h-643q0 -142 57 -202t197 -60q106 0 183 14q86 16 179 49l-35 -190q-84 -29 -160 -42q-77 -13 -184 -13q-135 0 -230 27t-155 89q-60 61 -87 158q-27 96 -27 233zM141 1374l129 195l471 -312l-86 -139 zM332 602h381q0 229 -189 229q-192 0 -192 -229z" />
<glyph unicode="&#xe9;" horiz-adv-x="1040" d="M70 487q0 277 110 400q111 125 344 125q229 0 340 -122t111 -378v-88h-643q0 -142 57 -202t197 -60q106 0 183 14q86 16 179 49l-35 -190q-84 -29 -160 -42q-77 -13 -184 -13q-135 0 -230 27t-155 89q-60 61 -87 158q-27 96 -27 233zM303 1247l463 322l125 -195 l-500 -262zM332 602h381q0 229 -189 229q-192 0 -192 -229z" />
<glyph unicode="&#xea;" horiz-adv-x="1040" d="M70 487q0 277 110 400q111 125 344 125q229 0 340 -122t111 -378v-88h-643q0 -142 57 -202t197 -60q106 0 183 14q86 16 179 49l-35 -190q-84 -29 -160 -42q-77 -13 -184 -13q-135 0 -230 27t-155 89q-60 61 -87 158q-27 96 -27 233zM178 1223l275 327h155l275 -327 l-135 -111l-216 229l-219 -229zM332 602h381q0 229 -189 229q-192 0 -192 -229z" />
<glyph unicode="&#xeb;" horiz-adv-x="1040" d="M70 487q0 277 110 400q111 125 344 125q229 0 340 -122t111 -378v-88h-643q0 -142 57 -202t197 -60q106 0 183 14q86 16 179 49l-35 -190q-84 -29 -160 -42q-77 -13 -184 -13q-135 0 -230 27t-155 89q-60 61 -87 158q-27 96 -27 233zM186 1169v215l256 21v-236h-256z M332 602h381q0 229 -189 229q-192 0 -192 -229zM629 1169v215l256 21v-236h-256z" />
<glyph unicode="&#xec;" horiz-adv-x="501" d="M-145 1374l129 195l471 -312l-86 -139zM123 0v969l256 20v-989h-256z" />
<glyph unicode="&#xed;" horiz-adv-x="501" d="M16 1247l463 322l125 -195l-500 -262zM123 0v969l256 20v-989h-256z" />
<glyph unicode="&#xee;" horiz-adv-x="501" d="M-109 1223l275 327h156l274 -327l-135 -111l-215 229l-219 -229zM123 0v969l256 20v-989h-256z" />
<glyph unicode="&#xef;" horiz-adv-x="501" d="M-100 1169v215l256 21v-236h-256zM123 0v969l256 20v-989h-256zM342 1169v215l256 21v-236h-256z" />
<glyph unicode="&#xf0;" horiz-adv-x="1101" d="M70 477q0 471 444 471q120 0 211 -39q-33 101 -91 171q-61 73 -140 118l-119 -149l-146 106l86 109q-87 25 -200 36l123 168q59 -6 113 -15q50 -9 93 -26l115 150l146 -102l-82 -111q215 -118 317 -340q92 -210 92 -500q0 -544 -471 -544q-491 0 -491 497zM332 475 q0 -309 231 -309q207 0 207 336q0 99 -12 207q-94 51 -207 51q-219 0 -219 -285z" />
<glyph unicode="&#xf1;" horiz-adv-x="1128" d="M115 0v967l215 28l20 -82q70 48 143 73q76 26 173 26q174 0 263 -92t89 -285v-635h-256v606q0 213 -168 213q-109 0 -223 -63v-756h-256zM164 1264q34 102 94 160q61 59 145 59q45 0 85 -18t75 -39q23 -14 69 -38q34 -18 66 -18q37 0 67 32q26 28 56 77l125 -88 q-35 -103 -94 -161q-61 -59 -145 -59q-49 0 -90 18q-34 15 -75 39q-12 7 -68 39q-30 17 -62 17q-37 0 -67 -32q-28 -30 -56 -76z" />
<glyph unicode="&#xf2;" d="M70 496q0 268 115 392t368 124t368 -124t115 -392q0 -269 -115 -393q-114 -123 -368 -123t-368 123q-115 124 -115 393zM158 1374l129 195l471 -312l-86 -139zM332 496q0 -178 51 -256t170 -78t170 78t51 256t-51 256q-50 77 -170 77t-170 -77q-51 -78 -51 -256z" />
<glyph unicode="&#xf3;" d="M70 496q0 268 115 392t368 124t368 -124t115 -392q0 -269 -115 -393q-114 -123 -368 -123t-368 123q-115 124 -115 393zM319 1247l463 322l125 -195l-499 -262zM332 496q0 -178 51 -256t170 -78t170 78t51 256t-51 256q-50 77 -170 77t-170 -77q-51 -78 -51 -256z" />
<glyph unicode="&#xf4;" d="M70 496q0 268 115 392t368 124t368 -124t115 -392q0 -269 -115 -393q-114 -123 -368 -123t-368 123q-115 124 -115 393zM195 1223l274 327h156l274 -327l-135 -111l-215 229l-219 -229zM332 496q0 -178 51 -256t170 -78t170 78t51 256t-51 256q-50 77 -170 77t-170 -77 q-51 -78 -51 -256z" />
<glyph unicode="&#xf5;" d="M70 496q0 268 115 392t368 124t368 -124t115 -392q0 -269 -115 -393q-114 -123 -368 -123t-368 123q-115 124 -115 393zM150 1264q34 102 94 160q61 59 145 59q45 0 85 -18t75 -39q29 -18 68 -38q35 -18 67 -18q37 0 67 32q26 28 56 77l125 -88q-35 -103 -94 -161 q-61 -59 -146 -59q-48 0 -89 18q-38 17 -76 39q-60 35 -67 39q-30 17 -63 17q-36 0 -66 -32q-31 -32 -57 -76zM332 496q0 -178 51 -256t170 -78t170 78t51 256t-51 256q-50 77 -170 77t-170 -77q-51 -78 -51 -256z" />
<glyph unicode="&#xf6;" d="M70 496q0 268 115 392t368 124t368 -124t115 -392q0 -269 -115 -393q-114 -123 -368 -123t-368 123q-115 124 -115 393zM203 1169v215l256 21v-236h-256zM332 496q0 -178 51 -256t170 -78t170 78t51 256t-51 256q-50 77 -170 77t-170 -77q-51 -78 -51 -256zM645 1169v215 l256 21v-236h-256z" />
<glyph unicode="&#xf7;" horiz-adv-x="1187" d="M139 424v217h914l-47 -217h-867zM465 49v230l246 22v-252h-246zM465 774v230l246 22v-252h-246z" />
<glyph unicode="&#xf8;" horiz-adv-x="1146" d="M70 496q0 271 119 393q120 123 384 123q123 0 209 -27l92 148l142 -84l-86 -138q147 -121 147 -415q0 -271 -120 -394q-119 -122 -384 -122q-61 0 -122 8t-107 22l-98 -157l-142 84l97 155q-131 123 -131 404zM319 496q0 -113 25 -193l326 520q-40 15 -97 15 q-133 0 -193 -81q-61 -82 -61 -261zM459 174q41 -20 114 -20q135 0 194 80q60 81 60 262q0 132 -34 213z" />
<glyph unicode="&#xf9;" d="M111 397v572l256 20v-596q0 -125 42 -176t144 -51t144 51t42 176v576l256 20v-592q0 -117 -23 -193q-24 -79 -77 -129q-54 -51 -137 -73q-82 -22 -205 -22t-205 22q-83 22 -137 73q-53 50 -77 129q-23 76 -23 193zM156 1374l129 195l471 -312l-86 -139z" />
<glyph unicode="&#xfa;" d="M111 397v572l256 20v-596q0 -125 42 -176t144 -51t144 51t42 176v576l256 20v-592q0 -117 -23 -193q-24 -79 -77 -129q-54 -51 -137 -73q-82 -22 -205 -22t-205 22q-83 22 -137 73q-53 50 -77 129q-23 76 -23 193zM317 1247l463 322l125 -195l-500 -262z" />
<glyph unicode="&#xfb;" d="M111 397v572l256 20v-596q0 -125 42 -176t144 -51t144 51t42 176v576l256 20v-592q0 -117 -23 -193q-24 -79 -77 -129q-54 -51 -137 -73q-82 -22 -205 -22t-205 22q-83 22 -137 73q-53 50 -77 129q-23 76 -23 193zM193 1223l274 327h156l274 -327l-135 -111l-215 229 l-219 -229z" />
<glyph unicode="&#xfc;" d="M111 397v572l256 20v-596q0 -125 42 -176t144 -51t144 51t42 176v576l256 20v-592q0 -117 -23 -193q-24 -79 -77 -129q-54 -51 -137 -73q-82 -22 -205 -22t-205 22q-83 22 -137 73q-53 50 -77 129q-23 76 -23 193zM201 1169v215l256 21v-236h-256zM643 1169v215l256 21 v-236h-256z" />
<glyph unicode="&#xfd;" horiz-adv-x="1007" d="M16 930v59h263l159 -479q21 -62 40 -136q17 -65 28 -143h12q23 142 70 281l157 477h246v-59l-510 -1356l-252 72l146 336zM279 1247l462 322l125 -195l-499 -262z" />
<glyph unicode="&#xfe;" horiz-adv-x="1124" d="M115 -391v1829l256 22v-524q65 40 130 58t138 18q217 0 316 -122q100 -123 100 -386q0 -272 -98 -399q-97 -125 -306 -125q-78 0 -144 15q-68 15 -136 48v-414zM371 217q53 -29 102 -41q51 -12 113 -12q107 0 157 81q50 82 50 255q0 169 -53 249q-52 78 -165 78 q-110 0 -204 -61v-549z" />
<glyph unicode="&#xff;" horiz-adv-x="1007" d="M16 930v59h263l159 -479q21 -62 40 -136q17 -65 28 -143h12q23 142 70 281l157 477h246v-59l-510 -1356l-252 72l146 336zM162 1169v215l256 21v-236h-256zM604 1169v215l256 21v-236h-256z" />
<glyph unicode="&#x152;" horiz-adv-x="1896" d="M98 705q0 201 37 339q38 141 115 227q78 87 200 126t291 39q66 0 110 -4l100 -9q18 -2 54.5 -4.5t51.5 -3.5q49 -4 123 -4h643l-35 -201h-582v-395h457v-197h-457v-417h625l-35 -201h-614q-70 0 -125 -3q-72 -4 -106 -7q-33 -3 -99 -7q-49 -3 -104 -3q-177 0 -297 38 q-122 39 -202 125q-78 84 -115 225q-36 138 -36 337zM375 700q0 -160 20 -256q21 -100 67 -158t121 -82t183 -24q44 0 93 3q57 3 83 7v1029q-92 16 -192 16t-173 -25q-70 -24 -116 -85q-45 -60 -66 -163q-20 -99 -20 -262z" />
<glyph unicode="&#x153;" horiz-adv-x="1744" d="M70 496q0 126 25 222q25 98 84 162q57 63 150 98q90 34 224 34q122 0 207 -38q81 -36 143 -106q61 72 144 108t194 36q121 0 197 -31q74 -30 121 -82q58 -62 89 -158q31 -94 31 -231v-86h-643q0 -143 62 -203q60 -59 192 -59q73 0 172 15q100 15 191 48l-35 -190 q-71 -26 -157 -40q-91 -15 -187 -15q-131 0 -217 35q-88 36 -154 108q-62 -70 -143 -106q-83 -37 -207 -37q-136 0 -224 33q-91 35 -150 99q-59 65 -84 160q-25 94 -25 224zM332 496q0 -182 52 -258t169 -76t169 76t52 258t-52 258q-51 75 -169 75t-169 -75 q-52 -76 -52 -258zM1036 602h381v19q0 117 -51 163q-52 47 -137 47q-91 0 -142 -51t-51 -178z" />
<glyph unicode="&#x178;" horiz-adv-x="1202" d="M41 1346v65h252l184 -381q44 -91 74 -165q31 -77 55 -167h10q20 71 57 168q32 83 70 164l181 381h237v-65l-422 -820v-526h-264v520zM256 1602v215l256 20v-235h-256zM698 1602v215l256 20v-235h-256z" />
<glyph unicode="&#x2c6;" horiz-adv-x="798" d="M45 1223l274 327h156l275 -327l-136 -111l-215 229l-219 -229z" />
<glyph unicode="&#x2dc;" horiz-adv-x="798" d="M6 1264q34 102 94 160q61 59 146 59q44 0 85 -18t75 -39q29 -18 68 -38q34 -18 67 -18q36 0 66 32q29 31 57 77l124 -88q-35 -103 -94 -161q-61 -59 -145 -59q-49 0 -89 18q-38 17 -76 39q-12 7 -68 39q-30 17 -62 17q-37 0 -67 -32q-28 -30 -56 -76z" />
<glyph unicode="&#x2000;" horiz-adv-x="985" />
<glyph unicode="&#x2001;" horiz-adv-x="1970" />
<glyph unicode="&#x2002;" horiz-adv-x="985" />
<glyph unicode="&#x2003;" horiz-adv-x="1970" />
<glyph unicode="&#x2004;" horiz-adv-x="656" />
<glyph unicode="&#x2005;" horiz-adv-x="492" />
<glyph unicode="&#x2006;" horiz-adv-x="328" />
<glyph unicode="&#x2007;" horiz-adv-x="328" />
<glyph unicode="&#x2008;" horiz-adv-x="246" />
<glyph unicode="&#x2009;" horiz-adv-x="394" />
<glyph unicode="&#x200a;" horiz-adv-x="109" />
<glyph unicode="&#x2010;" horiz-adv-x="602" d="M70 432v201h477l-29 -201h-448z" />
<glyph unicode="&#x2011;" horiz-adv-x="602" d="M70 432v201h477l-29 -201h-448z" />
<glyph unicode="&#x2012;" horiz-adv-x="602" d="M70 432v201h477l-29 -201h-448z" />
<glyph unicode="&#x2013;" horiz-adv-x="1024" d="M29 432v201h983l-25 -201h-958z" />
<glyph unicode="&#x2014;" horiz-adv-x="2048" d="M37 432v201h1974l-22 -201h-1952z" />
<glyph unicode="&#x2018;" horiz-adv-x="419" d="M41 909v152q0 72 10 129q11 62 37 113q28 55 72 103q48 53 114 103l93 -120q-67 -52 -94 -101q-24 -44 -29 -110h94v-246z" />
<glyph unicode="&#x2019;" horiz-adv-x="419" d="M53 1030q67 52 93 100q25 46 30 111h-94v246l297 22v-151q0 -74 -10 -130q-11 -62 -37 -112q-28 -55 -72 -103q-49 -54 -115 -104z" />
<glyph unicode="&#x201a;" horiz-adv-x="419" d="M53 -219q67 52 93 100q25 46 30 111h-94v246l297 22v-151q0 -75 -10 -131q-11 -60 -37 -111q-29 -57 -72 -104q-46 -50 -115 -103z" />
<glyph unicode="&#x201c;" horiz-adv-x="837" d="M41 909v152q0 72 10 129q11 62 37 113q28 55 72 103q48 53 114 103l93 -120q-67 -52 -94 -101q-24 -44 -29 -110h94v-246zM459 909v152q0 72 10 129q11 62 37 113q28 55 72 103q48 53 114 103l92 -120q-66 -51 -93 -101q-24 -44 -29 -110h94v-246z" />
<glyph unicode="&#x201d;" horiz-adv-x="837" d="M53 1030q67 52 93 100q25 46 30 111h-94v246l297 22v-151q0 -74 -10 -130q-11 -62 -37 -112q-28 -55 -72 -103q-49 -54 -115 -104zM471 1030q67 52 93 100q25 46 30 111h-94v246l297 22v-151q0 -69 -11 -130q-12 -65 -36 -112q-28 -55 -72 -103q-49 -54 -115 -104z" />
<glyph unicode="&#x201e;" horiz-adv-x="837" d="M53 -219q67 52 93 100q25 46 30 111h-94v246l297 22v-151q0 -75 -10 -131q-11 -60 -37 -111q-29 -57 -72 -104q-46 -50 -115 -103zM471 -219q67 52 93 100q25 46 30 111h-94v246l297 22v-151q0 -70 -11 -131q-11 -63 -36 -111q-29 -57 -72 -104q-46 -50 -115 -103z" />
<glyph unicode="&#x2022;" horiz-adv-x="884" d="M66 563q0 77 23 140q25 68 72 117q50 52 119 81q73 31 162 31q90 0 163 -31q69 -29 119 -81q47 -49 72 -117q23 -63 23 -140t-23 -140q-25 -68 -72 -117q-50 -52 -119 -81q-71 -30 -163 -30t-162 30q-69 29 -119 81q-47 49 -72 117q-23 63 -23 140z" />
<glyph unicode="&#x2026;" horiz-adv-x="1286" d="M90 0v236l270 24v-260h-270zM508 0v236l270 24v-260h-270zM926 0v236l270 24v-260h-270z" />
<glyph unicode="&#x202f;" horiz-adv-x="394" />
<glyph unicode="&#x2039;" horiz-adv-x="577" d="M41 446v43l315 418l166 -110l-227 -330l229 -328l-164 -110z" />
<glyph unicode="&#x203a;" horiz-adv-x="577" d="M53 139l230 328l-228 330l166 110l316 -418v-43l-320 -417z" />
<glyph unicode="&#x205f;" horiz-adv-x="492" />
<glyph unicode="&#x20ac;" horiz-adv-x="1294" d="M43 414v178h166q-4 27 -4 47v35v47h-131v182h143q30 278 177 406q146 127 417 127q89 0 182 -14q87 -13 176 -38l33 -215q-95 32 -178 48q-92 18 -182 18q-158 0 -242 -75t-106 -257h450l-37 -182h-426v-47v-37q0 -20 4 -45h414l-43 -178h-346q35 -134 125 -184 q91 -50 227 -50q169 0 373 68l-35 -209q-88 -29 -176 -44q-90 -15 -193 -15q-250 0 -401 100q-153 101 -199 334h-188z" />
<glyph unicode="&#x2122;" horiz-adv-x="1474" d="M49 1264v161h545l-29 -161h-151v-447h-203v447h-162zM637 817l47 596l244 14l84 -362h8l63 348l250 14l68 -610h-193l-37 338l-59 -307l-190 -10l-74 321l-21 -342h-190z" />
<glyph unicode="&#x25fc;" horiz-adv-x="993" d="M0 0v993h993v-993h-993z" />
</font>
</defs>
</svg>
