<?xml version="1.0" encoding="UTF-8"?><svg id="Layer_1" xmlns="http://www.w3.org/2000/svg" viewBox="0 0 341.32 175.71"><defs><style>.cls-1,.cls-2{fill:#fff;}.cls-2{opacity:.5;}</style></defs><path class="cls-1" d="M109.45,68.45c0,37.8-24.5,68.45-54.72,68.45S0,106.25,0,68.45,24.49,0,54.72,0s54.72,30.65,54.72,68.45M54.72,7.92c25.92,0,47.01,27.2,47.01,60.62s-21.09,60.63-47.01,60.63S7.72,101.97,7.72,68.54,28.8,7.92,54.72,7.92m0,124.23c27.57,0,49.99-28.53,49.99-63.6S82.29,4.94,54.72,4.94,4.74,33.47,4.74,68.54s22.43,63.6,49.99,63.6m3.24-116.76l-.7-.35c-.12,1.99-.46,3.86-.46,5.84-.12,.23-.47,.47-.36,.82,2.69,2.33,5.72,4.55,8.53,6.65,3.62,2.57,7.47,5.26,11.44,7.24,1.75-1.05,3.86-1.63,5.84-2.45v-.35c-4.09-2.34-7.71-4.67-11.79-6.9l-.24,.12c0,1.63,.12,3.26,.12,4.79-1.87-.93-3.73-2.45-5.48-3.62v-.23c0-.35,.46-.47,.81-.47,1.28-.35,2.57-.7,3.73-1.16v-.24l-11.44-9.69Zm1.4-.35h-.35c1.87,1.75,3.73,3.27,5.6,4.9,5.02,4.79,10.74,8.17,16.7,11.09-3.27-3.5-5.96-6.42-9.46-9.46l-12.49-6.54Zm-5.96,8.64c-.82-.59-1.87-.93-2.92-.82-2.34,0-2.45,3.03-3.74,4.32-.35,.93-1.52,1.52-1.52,2.8,.59,1.76,2.92,1.87,4.55,2.34,.7-.11,1.64,.23,1.99-.47,.12-.47-.23-.47-.47-.47-.59-.24-.7-.81-.59-1.4,.35-.47,.94-.58,1.53-.58,.93,.82,1.63-.47,2.67-.12,.93,.12,1.29,1.17,1.52,1.99-1.05-.23-2.22-.7-3.39-.47-.35,.59,0,1.17,.24,1.63,.7-.11,1.63-.23,2.46-.35,.47,0,.93,.23,1.05,.7,2.34,.46,5.02,.35,6.77,1.87,0,.7,1.05,1.4,.35,1.98-2.22-2.22-5.6-2.57-8.64-1.98-.58-.35,.11-1.05-.36-1.41-1.98,.35-3.62,1.06-5.49,1.87l-.23-.12c.12-.35,0-.59,.12-.81-.47-.24-.82-.59-1.4-.59-.82,1.4,.58,2.81,.46,4.21,.59,1.51,1.4-.47,2.33-.24,.7,0,1.75-.59,2.22,.24-.93,.47-1.87,.58-2.68,1.28-.23,.36,.12,.59,.23,.82,.82,1.05,2.45,.35,3.5,.94,0,.23-.12,.46-.35,.7-1.39,.11-2.1,1.28-2.8,2.22-.7-.24-.46-1.05-.58-1.52-.11-.58-.82-.58-1.16-.58-.36,1.52-.94,2.8-1.05,4.21,.23,.93,1.28,.58,1.87,.7,.93,.24,.35,1.41,.7,1.98,.81,.24,1.86,.24,2.8,0,.12,.12,.24,.35,.12,.7-.35,.59-.93,.7-1.52,.82-.24,.23-.7,.59-.47,1.05,1.51,.82-.12,3.04,1.4,3.85,1.52,.82,3.74,.47,5.14-.23,.93-.24,1.51-1.28,2.68-.93,.12,.23,.35,.12,.35,.47,2.33,.12,4.55-.24,6.65-.58,.82,.11,1.63-.59,2.1,.11,0,.12,.12,.23,0,.35-2.92,1.16-6.42,1.05-9.57,1.52-1.98,.59-1.05,2.68-1.29,4.32-1.16,.58-.81-1.17-1.52-1.64-3.04,.11-5.6,1.17-8.4,1.87-1.76,.94-2.57,2.92-3.04,4.78,0,1.05-.47,2.45,.58,2.93,2.22,.7,5.72,1.16,7.7-.48,1.64-.58,3.15-2.1,5.03-1.4,.93-1.52,2.45-3.15,4.2-4.09,.7-.24,.7-1.04,1.52-1.16,.7,.12,.35,1.05,.59,1.4,1.64,.23,3.15-.47,4.79-.24,.93,.36,1.05,1.28,1.4,2.1,0,.36-.11,.82-.23,1.06,.59,1.16-.7,1.75-.23,3.03-1.99,3.04-4.78,5.6-8.53,6.3-.81,.35-.23,1.52-.81,2.1-4.09,2.69-10.28,3.97-11.56,9.57-.82,2.92,1.76,4.08,3.5,5.25,2.34,.47,3.5,3.51,6.19,2.8,1.17-2.92,1.4-6.19,2.57-9.11,3.38-5.95,7.36-11.55,12.61-15.87,1.76-1.28,3.51-3.04,5.96-3.04,.35,0,.12,.35,.12,.46-2.22,.7-4.09,2.22-5.61,3.62-1.28,1.41-3.04,2.81-3.85,4.67-2.92,3.62-5.95,7.94-7.82,12.14-.11,1.4-.35,2.92-.11,4.32,.47,0,.58-.58,.93-.81,1.87-4.09,3.97-8.17,6.3-11.92,1.4-1.87,2.56-4.32,4.67-5.25l.12,.12c-2.69,3.5-4.9,7.36-6.77,11.44-1.4,3.15-3.15,6.19-3.39,9.81,.35,.93,1.64,.58,2.22,1.28,.58,.35,.7,1.05,.58,1.63-.11,.47-.58,.93-1.04,.93-.94-.23-.82-1.28-1.41-1.87-.35,0-.7-.35-.93,0-.12,1.4,1.29,2.69,.11,3.97-1.04,.7-.82-.93-1.52-1.4-.35-.24-1.05-.24-1.4,0-3.39,3.16-8.18,4.91-12.96,5.49-1.52,.7-4.67-.46-4.67,2.11,.24,2.32-.12,5.13,1.75,6.53,4.79,.47,9.69,.47,14.13-.82,3.38-.7,6.65-1.87,9.45-3.5,4.67-3.62,7.01-9.46,10.04-14.48,4.9-7,8.41-15.76,6.42-25.1-.23-5.14-5.37-6.77-8.18-9.93-.81-.59-1.39,.35-2.1,.24-1.4-.7,.71-.82,.71-1.64-1.17-1.51-1.05-3.62-2.22-5.13-.7-.47-1.17,.35-1.87,0-.46-2.45-1.17-4.91-2.33-7.01-2.57-1.76-2.69,2.57-5.02,2.45,0-.11-.24-.11-.11-.35,0-.35,.58-.47,.81-.7,.58-.47,.58-1.52,.58-2.22-.46-.7-1.28-.7-2.1-.82-.46,0-.59-.47-.46-.94,.7-1.05,1.98-.11,3.03-.11,1.17-.82,2.34-.47,3.5-.94,.93-.35,1.17-1.16,1.05-2.09,.35-.12,.82,.23,1.05-.24,0-.59-.12-1.29-.46-1.75-3.86-2.1-6.89-5.72-11.33-7.01-.7-.35-2.22,.24-1.98-1.05-.47-1.28-2.1-1.4-3.27-1.75-.23-.35-.12-.82,.24-.93,.11-.23,.11-.46-.12-.7-1.4-.35-1.99-2.1-2.69-3.27m2.34-.23c-.35,0-.7,0-.93,.23-.11,.35-.11,.93,.23,1.28,5.49,4.55,11.79,8.75,17.86,12.49,.47,.12,1.05,.58,1.52,.23,.35-.35,.12-.82-.11-1.05-6.43-3.62-12.61-8.52-18.56-13.19m6.54,14.47c-2.45,.24-4.79-.82-6.54-2.45-.35,.11-.35,.58-.24,.82,.82,1.28,2.58,2.1,4.21,2.56,1.17,2.45,3.74,3.5,6.31,3.74,.24-.12,.59-.12,.47-.47-1.87-.58-4.08-1.17-5.02-3.04,.34-.34,.93-.23,1.28-.46,.24-.35-.23-.47-.46-.7m7.59,1.63c-1.98,.58-3.97-.47-5.83-1.17l-.12,.35c1.98,1.05,3.74,2.56,6.3,2.21,.35-.11,.59-.35,.59-.82s-.35-.58-.93-.58m8.29,0c-.22-.58-.7-.93-1.4-.93-.93-.35-1.75,.23-2.22,.82,.12,1.4-1.98,1.4-1.63,2.91-.35,.82-1.17,.82-1.75,1.06,0,.35,0,.46,.11,.7,1.05,.12,1.99,.82,3.04,.35,.47,0,.47,.35,.47,.7-.82,.7-2.1,.35-2.92,.12v.46c1.05,.82,2.57,1.29,3.97,.7,2.22-1.52,2.33-4.32,2.33-6.89m-37.36,2.34c-1.17-.94-2.68-.7-3.97-1.17-2.33-.59-4.19,.82-5.84,1.87-4.2,1.87-2.57,7.01-4.91,10.05-.35,1.98-.35,4.43,1.17,5.83,1.29-.11,2.22,1.05,3.5,.7,1.98-.93-.93-2.1-.11-3.5,1.16-.12,.81,1.4,1.63,1.75,.81,.24,1.05-.7,1.75-.81,1.05,.58,.46,1.99,1.17,2.8,1.52,2.22,4.2,3.03,7,3.27,1.99-.12,2.92-1.52,3.86-3.16,.59-1.98,1.4-4.78-.24-6.42-.58-.35-1.17,.35-1.52,0,.11-.93,.59-1.87,1.52-2.22,.47-.93,.12-2.45-.58-3.27,.12-.23,.47-.35,.7-.35,.47-1.52,.59-3.62-.82-4.67-.7-.24-1.4-.81-2.1-.59,0,0-.12,0-.12-.11-.58-.11-1.51-.35-2.1,0m3.85,3.27c-.11-.35-.35-.59-.81-.47-.7,.93-.47,2.34-1.29,3.27-.35,.23-.93-.35-1.16,.23l.47,.58c1.99,.82,1.17-2.33,2.69-2.1l.11-1.52m-13.19,3.38c-.93,.82-.93-.82-1.86-.58-1.17,1.4-.47,3.62-1.52,4.9,.11,.35,.35,.47,.58,.47,1.17-.82,.35-2.68,1.52-3.39,.58,.47,0,1.64,.82,1.87,.7-.81,.7-2.33,.47-3.27m7.94-.23c-.35,.35-1.16,.23-1.28-.35-.93,.12-1.4,1.4-1.76,1.98-.11,.59-.82,.82-1.28,.35-.94,1.05-1.29,2.92-1.05,4.56,.11,.35,.58,.35,.81,.23l.11-2.45c.12-.82,.83-.36,1.29-.13,.7-.34,.58-1.28,.82-1.98,.35-1.05,.93-.47,1.63-.59,.59-.35,1.05-.82,1.05-1.52l-.35-.12m2.92,3.97c-.23-1.28-1.63-.93-2.57-.93-.12,.35-.59,.24-.47,.7l.7-.24c.82,1.05-1.17,.94-1.05,1.99h2.92c.7-.24,.59-.94,.47-1.52m2.1,3.74c-.46,.12-1.28-.23-1.52,.24,.24,.23,.24,.82,.7,.7,.35-.23,1.17-.35,.82-.94m-.46,3.15c0-.46,.46-.7,.46-1.05-.23-.23-.58,0-.81,.12-.82-.24-1.28,.93-2.22,.35v.46c.58-.11,1.05,.35,1.51,.59,.47,.12,.94-.12,1.06-.47m-8.17,3.74c-1.52-.23-1.87-2.22-3.51-2.1-.82,1.28-1.99,2.56-3.5,3.26-3.5,2.11-2.69,6.66-4.44,9.81-1.4,7.35-4.79,15.3-1.76,23,1.99,1.17,1.17,3.97,2.93,5.25,1.75,1.17,4.09,2.1,6.3,1.75,3.62-1.99,6.77,.81,10.63,.59,4.08-1.52,8.75-1.87,12.84-3.62,.82-.35,2.21-.59,2.57-1.52-.59-1.28-1.17-2.8-1.99-3.97-1.63-1.87-4.2-1.51-6.3-2.45-2.69-1.28-2.92,2.45-4.91,2.45-.58-.23-.81-.82-.7-1.28,.35-1.28,1.87-1.64,2.68-2.69,.59-1.63-.11-3.38-1.4-4.55-.58-1.28,1.52-2.22,.47-3.27-2.45,.11-4.08,2.1-6.19,3.15-.35,.23-.93,.35-1.17-.12,.35-1.28,1.99-2.45,3.15-3.15v-.35c-.11,0-.23,0-.23-.12-2.8,.35-4.08-1.99-5.96-3.04-.7-.35-1.63-.24-2.22-.59-.11-.59,0-1.28,.47-1.63,3.38,.23,6.07,4.55,9.57,2.22,4.09,1.98,7.94-.24,11.2-2.22,1.05-.47,2.22-1.64,3.51-.82,1.28-.23,2.09-.93,3.15-1.52,0-2.45-.35-4.9-1.28-7.12-.35-.58-.93-1.16-1.75-.93-2.8,1.05-5.49,3.27-8.76,2.69-.93,.23,.36,.93,0,1.4h-.57l-4.33-3.5c-1.4-.82-2.8-1.64-4.2-2.57,.24-1.99-2.22-.93-3.15-1.75l-1.16-.7Zm33.97,.23c-1.52-.35-2.68,.59-4.2,.59-.7,.24-1.17-.47-1.76,0-2.1,.7-2.91,2.92-3.15,4.91,.7,1.04,1.17,2.8,2.69,3.04,2.69-.12,5.03-1.87,6.54-3.73,.47-.94,.47-2.1,.59-3.15-.12-.35-.59-.59-.35-1.17l-.35-.47Zm-27.67,45.07c-1.17-.93-2.69-1.63-4.2-2.33-1.99-.35-4.79-1.75-6.3,.35-1.29,.58-3.74,.35-3.86,2.22,.24,.7,1.17,1.17,.82,2.1,.11,.59,1.05,.47,1.28,1.05,0,1.4,1.63,1.17,1.87,2.34,.7,.82,1.99,.82,3.15,.82,2.69-.24,5.37-.93,7.82-1.87,.47-1.52,.47-3.51-.58-4.67m37.01,7.24c-1.75-2.22-3.85-4.79-7.13-4.56-.46,.12-.46,.47-.46,.82,1.05,2.22,3.04,4.2,4.79,5.95,1.05-.47,1.86-1.4,2.8-2.22m-13.31,1.29c-.58-.82,0-2.45-1.4-2.45-1.75,.58-4.43,2.03-5.02,2.22-.6,.19-6.19,.94-8.99-.35-1.64,.12-3.5,.12-5.14,.35-1.05,.35-1.87,1.29-3.04,1.29-.81,.35-2.57,0-2.57,0-1.4-.12-2.69-.94-4.09-.82-.93,.23-1.28,1.16-1.63,1.98,7.82,6.07,20.08,7.93,30.13,4.9,1.16-.58,2.68-.7,3.5-1.52-.7-1.87-1.05-3.74-1.76-5.6m5.49-1.87c-1.16,1.05-3.85-.7-4.09,1.52,.36,1.87,.82,3.74,1.87,5.38,.94-.12,1.99-.59,2.8-1.06,.24-1.16-1.05-1.75-.7-2.8,1.05-.23,1.52,1.28,2.45,1.75,.59-.23,1.17-.58,1.4-1.05-.58-1.63-1.75-2.22-3.04-3.5l-.7-.24Z"/><path class="cls-2" d="M7.91,147.94h2.06v13.9c0,3.68,2.3,5.9,5.86,5.9s5.89-2.22,5.89-5.97v-13.84h2.03v13.93c0,4.74-3.21,7.82-7.89,7.82s-7.96-3.07-7.96-7.82v-13.93Zm20.42,21.39h2.01v-7.34c0-.73,.06-1.43,.24-2.07,.68-2.53,2.86-4.32,5.39-4.32,2.86,0,3.21,2.13,3.21,4.53v9.19h2v-9.74c0-3.77-1.3-5.93-4.95-5.93s-5.39,2.46-5.92,3.86h-.06s.06-.55,.06-1.22v-2.28h-1.98v15.3Zm18.04-5.57c0,5.11,3.45,5.69,5.16,5.69,.53,0,.86-.06,.86-.06v-1.86s-.27,.06-.68,.06c-1.12,0-3.33-.45-3.33-4.04v-7.61h3.71v-1.74h-3.71v-4.41h-1.98v4.41h-1.98v1.74h1.94v7.82Zm9.61-9.74h2v15.3h-2v-15.3Zm-.06-6.08h2.09v2.58h-2.09v-2.58Zm6.75,17.77c0,3.35,2.18,3.74,3.42,3.74,.38,0,.73-.06,.73-.06v-1.86s-.24,.03-.5,.03c-.77,0-1.65-.31-1.65-2.31v-17.31h-2v17.77Zm16.47-5.63c.47-3.07,2.62-4.68,5.1-4.68,2.21,0,4.1,1.49,4.21,4.68h-9.31Zm5.16-6.42c-4.01,0-7.31,3.01-7.31,8.03,0,4.72,3.33,8,7.75,8,3.33,0,5.48-2.13,5.48-2.13l-.91-1.57s-1.8,1.85-4.51,1.85c-3.06,0-5.66-2.12-5.75-6.06h11.37s.06-.7,.06-1.06c0-3.81-2.09-7.06-6.19-7.06m13.68,15.67h2.18l5.66-15.3h-2.09l-4.1,11.23c-.29,.79-.53,1.82-.53,1.82h-.06s-.24-1.06-.5-1.82l-4.13-11.23h-2.12l5.69,15.3Zm11.76-9.25c.47-3.07,2.62-4.68,5.1-4.68,2.21,0,4.1,1.49,4.21,4.68h-9.31Zm5.16-6.42c-4.01,0-7.31,3.01-7.31,8.03,0,4.72,3.33,8,7.75,8,3.33,0,5.48-2.13,5.48-2.13l-.92-1.57s-1.79,1.85-4.51,1.85c-3.06,0-5.66-2.12-5.75-6.06h11.38s.06-.7,.06-1.06c0-3.81-2.09-7.06-6.19-7.06m9.72,15.67h2v-6.46c0-.97,.12-2,.42-2.98,.65-2.25,2.21-3.95,4.3-3.95,.38,0,.73,.06,.73,.06v-2.04s-.38-.09-.79-.09c-2.33,0-3.98,1.76-4.69,4.08h-.06s.06-.55,.06-1.22v-2.71h-1.98v15.3Zm9.02,5.47s1.06,.91,2.59,.91c1.98,0,3.51-1.24,4.27-3.19l7.31-18.5h-2.18l-4.27,11.17c-.3,.76-.5,1.61-.5,1.61h-.06s-.24-.85-.53-1.61l-4.36-11.17h-2.21l6.19,15.18-.92,2.16c-.59,1.4-1.5,2.5-2.8,2.5-.94,0-1.77-.7-1.77-.7l-.77,1.64Zm31.59-21.14c-4.36,0-7.78,3.31-7.78,8.03s3.39,8,7.78,8c3.77,0,5.77-2.4,5.77-2.4l-.91-1.61s-1.74,2.16-4.74,2.16c-3.27,0-5.83-2.55-5.83-6.15s2.53-6.15,5.77-6.15c2.68,0,4.33,1.86,4.33,1.86l1.03-1.55s-1.8-2.19-5.42-2.19m9.43,15.67h2.01v-7.34c0-.73,.06-1.43,.24-2.04,.68-2.56,2.86-4.35,5.39-4.35,2.86,0,3.21,2.13,3.21,4.53v9.19h2v-9.74c0-3.77-1.3-5.93-4.95-5.93-3.36,0-5.33,2.34-5.89,3.8h-.06s.06-.55,.06-1.24v-8.27h-2.01v21.39Zm17.47-15.31h2.01v15.3h-2.01v-15.3Zm-.06-6.08h2.09v2.58h-2.09v-2.58Zm6.75,17.77c0,3.35,2.18,3.74,3.42,3.74,.38,0,.74-.06,.74-.06v-1.86s-.24,.03-.5,.03c-.77,0-1.65-.31-1.65-2.31v-17.31h-2v17.77Zm13.2,2.13c-2.77,0-4.69-2.4-4.69-6.17s2.15-6.15,4.77-6.15c3.18,0,4.71,3.04,4.71,6.15,0,4.35-2.33,6.17-4.8,6.17m-.09-14.17c-3.89,0-6.66,3.17-6.66,8s2.47,8.03,6.45,8.03,5.09-3.08,5.09-3.08h.06s-.06,.43-.06,1.1v1.62h1.95v-21.39h-2v7.45c0,.63,.06,1.15,.06,1.15h-.06s-1.24-2.89-4.83-2.89m19.6,.36h2v15.3h-2v-15.3Zm-.06-6.08h2.09v2.58h-2.09v-2.58Zm5.69,19.53s1.89,2.22,5.48,2.22c2.98,0,5.07-1.79,5.07-4.29,0-5.05-7.99-4.14-7.99-7.51,0-1.7,1.45-2.38,2.95-2.38,2.44,0,3.71,1.4,3.71,1.4l.91-1.58s-1.44-1.67-4.56-1.67c-2.68,0-5.07,1.49-5.07,4.23,0,4.98,7.98,4.16,7.98,7.51,0,1.61-1.38,2.43-2.97,2.43-2.77,0-4.42-1.85-4.42-1.85l-1.09,1.49Zm25.29,1.86h2.18l3.62-10.9c.24-.75,.44-1.64,.44-1.64h.06s.21,.88,.47,1.64l3.62,10.9h2.18l5.01-15.3h-2.12l-3.59,11.41c-.24,.76-.44,1.64-.44,1.64h-.06s-.21-.92-.44-1.64l-3.65-11.35h-1.98l-3.66,11.35c-.24,.73-.44,1.64-.44,1.64h-.06s-.21-.92-.44-1.64l-3.59-11.41h-2.12l5.01,15.3Zm21.63-9.25c.47-3.07,2.62-4.68,5.1-4.68,2.21,0,4.1,1.49,4.21,4.68h-9.31Zm5.16-6.42c-4.01,0-7.31,3.01-7.31,8.03,0,4.72,3.33,8,7.75,8,3.33,0,5.48-2.13,5.48-2.13l-.91-1.57s-1.8,1.85-4.51,1.85c-3.07,0-5.66-2.12-5.75-6.06h11.38s.06-.7,.06-1.06c0-3.81-2.09-7.06-6.19-7.06m9.87,12.05c0,3.35,2.18,3.74,3.42,3.74,.38,0,.73-.06,.73-.06v-1.86s-.24,.03-.5,.03c-.77,0-1.65-.31-1.65-2.31v-17.31h-2v17.77Zm7.28,0c0,3.35,2.18,3.74,3.42,3.74,.38,0,.74-.06,.74-.06v-1.86s-.24,.03-.5,.03c-.77,0-1.65-.31-1.65-2.31v-17.31h-2v17.77Zm5.16-14.58s.41,.48,1.15,.48c.69,0,1.1-.46,1.1-1.01,0-1.17-1.68-.97-1.68-1.71,0-.28,.26-.52,.63-.52,.44,0,.77,.31,.77,.31l.22-.42s-.34-.36-.99-.36-1.12,.44-1.12,1c0,1.11,1.68,.94,1.68,1.72,0,.34-.27,.53-.6,.53-.52,0-.89-.39-.89-.39l-.27,.38Zm2.85,.42h.49l.17-2.27c.01-.22,0-.54,0-.54h.01s.11,.35,.18,.54l.69,1.62h.43l.7-1.62c.08-.2,.19-.53,.19-.53h0s0,.31,0,.53l.17,2.27h.48l-.28-3.6h-.51l-.8,1.94c-.08,.2-.17,.48-.17,.48h0s-.09-.28-.17-.48l-.8-1.94h-.51l-.28,3.6Z"/><path class="cls-1" d="M140.32,35.98c3.33,0,5.18-2.16,5.18-5.18s-1.91-5.13-5.18-5.13h-6.94v10.31h6.94Zm-.65-15.54c2.82,0,4.43-2.01,4.43-4.58s-1.51-4.43-4.52-4.43h-6.19v9.01h6.29Zm-12.78-14.59h12.78c6.44,0,11.02,3.32,11.02,9.21,0,3.33-1.61,6.19-4.33,7.65v.1c3.92,1.16,5.79,4.78,5.79,8.4,0,7.14-5.73,10.36-12.32,10.36h-12.93V5.85Zm42.35,30.89c4.13,0,7.6-3.22,7.6-8s-3.47-8-7.6-8-7.64,3.27-7.64,8,3.47,8,7.64,8m-.05-21.44c7.85,0,14.13,5.59,14.13,13.43s-6.28,13.44-14.08,13.44-14.13-5.53-14.13-13.44,6.28-13.43,14.08-13.43m18.98,18.62s2.82,2.82,6.99,2.82c1.81,0,3.37-.81,3.37-2.31,0-3.82-12.48-3.32-12.48-11.57,0-4.78,4.28-7.55,9.81-7.55s8.6,2.92,8.6,2.92l-2.36,4.74s-2.36-2.22-6.28-2.22c-1.66,0-3.27,.7-3.27,2.31,0,3.62,12.48,3.17,12.48,11.42,0,4.27-3.73,7.7-9.81,7.7-6.39,0-9.96-3.78-9.96-3.78l2.92-4.47Zm22.58-12.53h-3.31v-5.09h3.47v-7.39h6.24v7.39h5.84v5.09h-5.84v9.96c0,4.23,3.32,4.83,5.08,4.83,.7,0,1.16-.1,1.16-.1v5.59s-.75,.15-1.96,.15c-3.57,0-10.67-1.06-10.67-9.66v-10.77Zm29.04,15.34c4.12,0,7.6-3.22,7.6-8s-3.47-8-7.6-8-7.65,3.27-7.65,8,3.47,8,7.65,8m-.05-21.44c7.85,0,14.14,5.59,14.14,13.43s-6.28,13.44-14.08,13.44-14.13-5.53-14.13-13.44,6.28-13.43,14.08-13.43m17.93,.61h6.13v2.97c0,.95-.1,1.76-.1,1.76h.1c1.11-2.17,3.92-5.34,9.1-5.34,5.69,0,8.9,2.97,8.9,9.76v16.5h-6.33v-15.19c0-3.12-.81-5.23-4.08-5.23s-5.94,2.16-6.89,5.23c-.35,1.05-.46,2.22-.46,3.42v11.77h-6.39V15.91Zm-115.53,33.31c8.7,0,13.18,4.88,13.18,4.88l-3.12,4.83s-4.07-3.77-9.76-3.77c-7.54,0-11.97,5.64-11.97,12.27s4.58,12.78,12.02,12.78c6.19,0,10.37-4.52,10.37-4.52l3.42,4.68s-4.93,5.78-14.03,5.78c-10.92,0-18.47-8.09-18.47-18.62s7.85-18.31,18.36-18.31m18.61,.6h6.39v12.38c0,1.26-.1,2.16-.1,2.16h.1c1.26-2.47,4.38-5.08,8.86-5.08,5.69,0,8.91,2.97,8.91,9.76v16.5h-6.34v-15.19c0-3.12-.81-5.23-4.07-5.23s-5.99,2.21-6.94,5.33c-.3,1.01-.4,2.12-.4,3.32v11.77h-6.39V49.81Zm67.03,30.94c3.32,0,6.44-2.41,6.44-8.09,0-3.98-2.11-7.9-6.39-7.9-3.52,0-6.44,2.87-6.44,7.95s2.62,8.05,6.39,8.05m-1.21-21.48c5.63,0,7.39,3.27,7.39,3.27h.1s-.05-.65-.05-1.46v-11.27h6.39v35.72h-6.04v-2.12c0-.95,.1-1.65,.1-1.65h-.1s-2.16,4.38-8.05,4.38c-6.94,0-11.37-5.48-11.37-13.43s4.83-13.43,11.63-13.43m19.83,.61h6.13v4.42c0,.96-.1,1.81-.1,1.81h.1c1.16-3.67,4.23-6.59,8.15-6.59,.6,0,1.15,.1,1.15,.1v6.29s-.65-.1-1.5-.1c-2.71,0-5.78,1.56-6.99,5.38-.4,1.26-.55,2.67-.55,4.18v10.16h-6.39v-25.65Zm34.87,9.66c-.1-3.47-2.26-5.34-5.08-5.34-3.27,0-5.53,2.01-6.13,5.34h11.22Zm-4.93-10.27c7.4,0,11.37,5.38,11.37,12.17,0,.75-.15,2.46-.15,2.46h-17.71c.4,4.48,3.88,6.79,7.7,6.79,4.12,0,7.4-2.82,7.4-2.82l2.46,4.58s-3.92,3.67-10.31,3.67c-8.5,0-13.79-6.14-13.79-13.43,0-7.9,5.38-13.43,13.03-13.43m16.15,.61h6.14v2.97c0,.95-.1,1.76-.1,1.76h.1c1.1-2.16,3.92-5.33,9.1-5.33,5.69,0,8.91,2.96,8.91,9.76v16.5h-6.34v-15.19c0-3.12-.8-5.23-4.08-5.23s-5.93,2.16-6.89,5.23c-.35,1.05-.45,2.22-.45,3.42v11.77h-6.39v-25.65Zm32,18.01s2.82,2.82,6.99,2.82c1.81,0,3.37-.81,3.37-2.32,0-3.82-12.48-3.32-12.48-11.57,0-4.78,4.28-7.54,9.81-7.54s8.6,2.91,8.6,2.91l-2.36,4.73s-2.37-2.22-6.29-2.22c-1.67,0-3.27,.71-3.27,2.32,0,3.62,12.47,3.17,12.47,11.42,0,4.27-3.72,7.69-9.81,7.69-6.39,0-9.96-3.77-9.96-3.77l2.92-4.48Zm-197.58,15.9h6.49v15.14h16.35v-15.14h6.49v35.72h-6.49v-14.99h-16.35v14.99h-6.49v-35.72Zm48.09,30.89c4.12,0,7.6-3.22,7.6-8s-3.47-8-7.6-8-7.65,3.27-7.65,8,3.47,8,7.65,8m-.05-21.44c7.85,0,14.14,5.58,14.14,13.44s-6.29,13.43-14.09,13.43-14.13-5.53-14.13-13.43,6.29-13.44,14.08-13.44m18.98,18.61s2.82,2.82,6.99,2.82c1.81,0,3.37-.81,3.37-2.32,0-3.82-12.47-3.32-12.47-11.57,0-4.78,4.28-7.54,9.81-7.54s8.6,2.92,8.6,2.92l-2.36,4.73s-2.36-2.21-6.29-2.21c-1.66,0-3.27,.7-3.27,2.31,0,3.62,12.48,3.17,12.48,11.42,0,4.28-3.72,7.7-9.81,7.7-6.39,0-9.96-3.77-9.96-3.77l2.92-4.48Zm33.51,2.87c3.52,0,6.44-2.87,6.44-7.95s-2.62-8.05-6.39-8.05c-3.32,0-6.44,2.41-6.44,8.1,0,3.97,2.16,7.9,6.39,7.9m-12.58-20.88h5.84v1.86c0,.96-.1,1.76-.1,1.76h.1s2.22-4.23,8.25-4.23c6.94,0,11.37,5.49,11.37,13.44s-4.98,13.43-11.72,13.43c-5.08,0-7.35-3.52-7.35-3.52h-.1s.1,.91,.1,2.22v10.76h-6.39v-35.72Zm43.73,5.48h-3.32v-5.08h3.47v-7.4h6.24v7.4h5.84v5.08h-5.84v9.96c0,4.23,3.32,4.83,5.08,4.83,.7,0,1.16-.1,1.16-.1v5.58s-.75,.15-1.96,.15c-3.57,0-10.66-1.06-10.66-9.66v-10.76Zm26.04,15.8c3.37,0,5.79-3.62,5.79-6.74v-.6h-1.11c-3.27,0-8.55,.45-8.55,4.02,0,1.71,1.26,3.32,3.87,3.32m4.88-11.72h.85v-.35c0-3.37-2.11-4.53-4.92-4.53-3.68,0-7.04,2.47-7.04,2.47l-2.42-4.58s3.97-3.17,10.06-3.17c6.74,0,10.67,3.72,10.67,10.22v16.05h-5.89v-2.11c0-1.01,.1-1.81,.1-1.81h-.1c.05,0-1.96,4.52-7.8,4.52-4.58,0-8.7-2.87-8.7-8,0-8.15,11.02-8.7,15.19-8.7m-85.32-63.54h6.34v35.71h-6.34V49.86Zm97.9,43.84h6.34v35.72h-6.34v-35.72Zm22.8-40.61c0,1.81-1.47,3.29-3.29,3.29s-3.29-1.47-3.29-3.29,1.47-3.29,3.29-3.29,3.29,1.48,3.29,3.29m-5.54,6.5l-.58-2.09c4.76-1.32,3.95-4.49,3.91-4.63l2.09-.57c.01,.05,1.39,5.4-5.42,7.29m-128.26,.31h6.4v25.68h-6.4v-25.68Zm6.78-6.79c0,1.98-1.61,3.59-3.59,3.59s-3.58-1.61-3.58-3.59,1.6-3.59,3.58-3.59,3.59,1.61,3.59,3.59m46.68,50.72h6.39v25.68h-6.39v-25.68Zm6.78-6.79c0,1.98-1.61,3.58-3.59,3.58s-3.58-1.61-3.58-3.58,1.6-3.59,3.58-3.59,3.59,1.6,3.59,3.59"/></svg>