<?xml version="1.0" encoding="UTF-8"?><svg id="Layer_1" xmlns="http://www.w3.org/2000/svg" viewBox="0 0 130 129"><defs><style>.cls-1,.cls-2,.cls-3{fill:#fff;}.cls-2{opacity:.5;}.cls-3{opacity:.25;}</style></defs><path class="cls-2" d="M65.01,.28c-25.97,0-49.39,15.64-59.33,39.64C-4.27,63.91,1.23,91.54,19.59,109.9s45.99,23.86,69.98,13.92c24-9.94,39.64-33.35,39.64-59.33C129.22,29.04,100.47,.29,65.01,.28m0,122c-23.38,0-44.46-14.08-53.4-35.68C2.66,65.01,7.6,40.15,24.13,23.62,40.66,7.09,65.52,2.15,87.12,11.1c21.6,8.95,35.68,30.03,35.68,53.4,0,31.91-25.87,57.78-57.79,57.79"/><path class="cls-2" d="M78.19,28.63c10.63,3.79,19,12.16,22.79,22.79l11.45,3.27c-3.77-18.95-18.58-33.77-37.53-37.54l3.29,11.49h0Z"/><path class="cls-1" d="M112.47,54.7c-3.77-18.97-18.6-33.79-37.57-37.56l3.04,10.63,.25,.82c10.62,3.8,18.99,12.16,22.79,22.79l.88,.25,10.61,3.07Zm-34.52-26.92l9.94-5.16,.33,10.47-.73-.52c-2.9-2.1-6.12-3.71-9.54-4.77h0Zm10.37,5.37l10.53-2.45-2.4,10.6c-2.3-3.12-5.06-5.87-8.18-8.18l.04,.03Zm8.18,8.2l10.39,.3-5.07,9.97c-1.24-3.68-3.03-7.14-5.32-10.27Z"/><path class="cls-2" d="M100.87,77.68c-3.79,10.63-12.16,19-22.79,22.79l-3.27,11.45c18.97-3.77,33.79-18.6,37.56-37.57l-11.5,3.33h0Z"/><path class="cls-1" d="M74.8,111.96c18.97-3.77,33.79-18.6,37.56-37.57l-10.63,3.04-.82,.25c-3.8,10.63-12.16,18.99-22.79,22.79l-.25,.88-3.07,10.61h0Zm26.93-34.52l5.16,9.94-10.47,.33c.18-.25,.36-.49,.52-.73,2.1-2.9,3.71-6.12,4.78-9.54h0Zm-5.38,10.37l2.45,10.53-10.6-2.4c3.12-2.3,5.87-5.06,8.18-8.18l-.02,.04Zm-8.23,8.23l-.29,10.39-9.97-5.07c3.68-1.23,7.14-3.03,10.27-5.32Z"/><path class="cls-2" d="M51.82,100.36c-10.63-3.79-19-12.16-22.8-22.79l-11.45-3.27c3.78,18.98,18.63,33.81,37.61,37.56l-3.37-11.5h0Z"/><path class="cls-1" d="M17.54,74.29c3.78,18.98,18.63,33.81,37.61,37.56l-3.04-10.63-.25-.82c-10.65-3.8-19.03-12.18-22.83-22.83l-.88-.25-10.61-3.03h0Zm34.53,26.92l-9.94,5.16-.33-10.47,.73,.52c2.9,2.1,6.13,3.71,9.55,4.77h0Zm-10.39-5.36l-10.53,2.45,2.35-10.6c2.3,3.12,5.06,5.87,8.18,8.18v-.02Zm-8.18-8.23l-10.39-.29,5.07-9.97c1.24,3.68,3.03,7.14,5.32,10.27h0Z"/><path class="cls-2" d="M29.14,51.31c3.79-10.63,12.16-19,22.79-22.8l3.27-11.45c-18.98,3.78-33.81,18.63-37.56,37.61l11.5-3.37Z"/><path class="cls-1" d="M55.21,17.03c-18.98,3.78-33.81,18.63-37.56,37.61l10.63-3.04,.82-.25c3.8-10.65,12.18-19.03,22.83-22.83l.25-.88,3.03-10.61ZM28.29,51.56l-5.17-9.95,10.47-.33c-.18,.25-.36,.49-.52,.73-2.1,2.9-3.71,6.13-4.77,9.55Zm5.37-10.39l-2.45-10.53,10.6,2.35c-3.12,2.3-5.87,5.06-8.18,8.18h.02Zm8.23-8.18l.3-10.39,9.97,5.07c-3.67,1.24-7.14,3.03-10.27,5.32Z"/><path class="cls-3" d="M90.18,48.52c4.82,7.36,5.91,18.22,2.61,26.61-3.79,10.23-14.31,18.18-25.05,18.89-11.26,1.01-21.4-3.98-27.8-13.42-5.43-8-6.21-20.72-1.64-29.38,4.82-9.61,14.42-15.89,25.15-16.45,10.73-.56,20.94,4.69,26.73,13.74"/><path class="cls-1" d="M21.79,57.93c-.69-.3-1.44-.44-2.19-.42-3.73-.08-6.83,2.87-6.91,6.61,0,.14,0,.28,0,.42-.18,3.65,2.62,6.76,6.27,6.94,.21,.01,.42,.01,.64,0,.8-.02,1.6-.18,2.34-.49l.41-3.54c-.72,.57-1.59,.92-2.51,.99-2.11-.1-3.78-1.84-3.78-3.95s1.66-3.86,3.78-3.95c.9,.06,1.75,.39,2.45,.96l-.5-3.56Zm3.75-.12v13.52l3.3-.31v-13.52l-3.3,.31Zm9.57,3.04v10.48l3.31-.31v-10.17h3.21v-3.04h-9.12l-.83,3.04h3.43Zm11.83,10.2l3.43,.43,5.58-13.02-3.13-.97-2.17,5.4-3.4-5.4-3.1,1.27,4.93,7.68-2.14,4.61Zm21.93,0l3.43,.43,5.59-13.02-3.14-.97-2.16,5.4-3.41-5.4-3.09,1.27,4.92,7.68-2.14,4.61Zm19.15,.12l.82-2.83h-5.24v-2.57h3.45v-2.83h-3.45v-2.31h4.83l-.59-2.83h-7.55v13.37h7.73Zm9.42-13.66l-7.12,13.29,3.21,.69,1.34-2.86h5.09l1.36,2.86,3.37-.69-7.2-13.29h-.04Zm0,5.38l1.77,3.27h-3.54l1.77-3.27Zm12.58-2.26c1.37-.06,2.53,.2,2.53,1.79s-1.11,2.04-2.53,1.95v-3.74Zm-3.27,10.69l3.27-.31v-5.85h.04l3.89,6.31,3.35-1.07-3.61-5.09c1.34-.59,2.19-1.93,2.16-3.39,0-3.03-2.27-4.09-5.39-4.09h-3.76l.04,13.48Z"/></svg>