<?xml version="1.0" encoding="UTF-8"?><svg id="Layer_1" xmlns="http://www.w3.org/2000/svg" viewBox="0 0 193.65 85"><defs><style>.cls-1{fill:#fff;}</style></defs><path class="cls-1" d="M127.09,68.47h.1l4.6-12.92c.52-1.91,1.55-3.36,3.62-3.36,3,0,3.87,2.48,3.87,3.41,0,.62-.21,1.4-.57,2.38l-8.73,19.17c-1.81,5.17-4.57,7.85-9.33,7.85-3.36,0-4.75-1.65-4.75-3.46,0-2.02,1.45-3.05,3.46-3.05h.77c.98,0,2.76-.05,3.33-2.38l-7.85-16.79c-.62-1.81-.93-2.64-.93-3.51,0-2.07,1.65-3.62,3.67-3.62s3.41,1.14,3.88,2.84l4.86,13.43ZM18.19,0C6.2,0,0,8.99,0,19.48,0,32.3,6.87,38.96,18.5,38.96c8.22,0,14.73-5.32,14.73-10.7,0-2.07-2.07-3.26-4.13-3.26-4.08,0-3.93,7.13-10.59,7.13-7.34,0-10.02-5.89-10.02-12.66,0-8.06,4.39-12.66,9.71-12.66,7.75,0,6.3,6.72,11.21,6.72,2.53,0,3.82-1.45,3.82-3.82,0-3.62-5.32-9.72-15.04-9.72m17.72,34.98c0,2.02,.83,3.77,3.77,3.77s3.77-1.76,3.77-3.77v-8.79c0-6.25,1.65-8.37,4.7-8.37h1.34c1.86,0,3.72-.98,3.72-3.77,0-2.12-1.76-3.67-4.13-3.67-3.67,0-5.38,3.26-6.25,6.41h-.1v-2.89c0-2.27-1.5-3.51-3.41-3.51s-3.41,1.24-3.41,3.51v21.08Zm42.68-16.85c0-5.42-5.01-7.75-12.25-7.75-7.75,0-11.99,3.83-11.99,6.82,0,1.55,1.29,2.89,3.2,2.89,3,0,3.15-4.13,8.73-4.13,2.53,0,4.75,.93,4.75,3.1s-1.45,2.58-3.25,2.79l-4.6,.52c-5.79,.67-10.54,2.43-10.54,8.68,0,4.75,4.24,7.7,8.53,7.7,3.98,0,7.39-1.14,10.33-4.39,.1,2.32,1.19,4.39,4.44,4.39,1.81,0,3.41-1.19,3.41-2.9,0-1.19-.77-1.91-.77-5.06v-12.66Zm-7.55,10.18c0,2.79-2.53,5.48-6.67,5.48-2.58,0-4.19-1.4-4.19-3.1,0-2.27,1.71-3.26,4.86-3.72l2.74-.41c.88-.16,2.43-.41,3.25-1.19v2.95ZM108.61,3.98c0-2.48-1.5-3.77-3.77-3.77s-3.77,1.29-3.77,3.77V14.21h-.1c-1.5-2.43-4.08-3.83-7.44-3.83-7.96,0-11.63,6.77-11.63,14,0,9.77,5.53,14.37,11.83,14.37,3.67,0,6.72-1.55,7.96-4.76h.1v1.19c0,2.33,1.19,3.57,3.41,3.57s3.41-1.24,3.41-3.57V3.98Zm-13.18,28.89c-4.03-.1-5.99-3.77-5.99-8.22,0-3.51,1.19-8.37,5.99-8.37,4.6-.05,6.05,4.5,6.05,8.37,0,4.29-1.65,8.22-6.05,8.22m17.51,2.12c0,2.48,1.5,3.77,3.77,3.77s3.77-1.29,3.77-3.77V3.98c0-2.48-1.5-3.77-3.77-3.77s-3.77,1.29-3.77,3.77v31Zm35.34-8.99c2.53,0,3.31-.67,3.31-3.26,0-6.2-4.96-12.35-13.64-12.35s-14.26,5.89-14.26,14.68c0,6.56,3.98,13.69,14.52,13.69,4.55,0,11.83-2.12,11.83-6.67,0-1.39-1.29-2.94-3.1-2.94-3.05,0-3.05,3.72-8.73,3.72-4.39,0-6.98-2.89-6.98-6.87h17.05Zm-17.05-4.34c.83-3.67,3.1-6,6.87-6,3.36,0,5.94,2.53,6.36,6h-13.23Zm33.27-11.27c-5.22,0-11.32,2.27-11.32,8.42,0,5.07,3.41,6.87,7.8,7.96l4.44,1.08c2.69,.67,4.34,.98,4.34,2.9,0,1.55-1.7,2.74-4.39,2.74-5.58,0-5.89-4.65-9.15-4.65-2.12,0-3.05,1.5-3.05,3.15,0,3.72,5.68,6.77,12.51,6.77,5.68,0,11.63-2.84,11.63-8.99,0-5.27-5.12-7.08-9.4-8.06l-3.15-.72c-2.32-.52-4.03-.93-4.03-2.69,0-1.6,1.7-2.33,4.34-2.33,4.75,0,4.86,3.46,7.8,3.46,1.96,0,3.15-1.55,3.15-3.31,0-3.46-5.79-5.74-11.53-5.74M52.96,41.45c-11.99,0-18.19,8.99-18.19,19.48,0,12.82,6.87,19.48,18.5,19.48,8.22,0,14.73-5.32,14.73-10.7,0-2.07-2.07-3.26-4.13-3.26-4.08,0-3.93,7.13-10.59,7.13-7.34,0-10.03-5.89-10.03-12.66,0-8.06,4.39-12.66,9.72-12.66,7.75,0,6.3,6.72,11.21,6.72,2.53,0,3.82-1.45,3.82-3.83,0-3.62-5.32-9.71-15.04-9.71m17.72,34.98c0,2.02,.83,3.77,3.77,3.77s3.77-1.76,3.77-3.77v-8.78c0-6.25,1.65-8.37,4.7-8.37h1.34c1.86,0,3.72-.98,3.72-3.77,0-2.12-1.76-3.67-4.13-3.67-3.67,0-5.38,3.26-6.25,6.41h-.1v-2.89c0-2.27-1.5-3.51-3.41-3.51s-3.41,1.24-3.41,3.51v21.08Zm42.68-16.85c0-5.43-5.01-7.75-12.25-7.75-7.75,0-11.99,3.82-11.99,6.82,0,1.55,1.29,2.89,3.21,2.89,2.99,0,3.15-4.13,8.73-4.13,2.53,0,4.75,.93,4.75,3.1s-1.45,2.58-3.25,2.79l-4.6,.52c-5.79,.67-10.54,2.43-10.54,8.68,0,4.76,4.24,7.7,8.53,7.7,3.98,0,7.39-1.14,10.34-4.39,.1,2.33,1.19,4.39,4.44,4.39,1.81,0,3.41-1.19,3.41-2.89,0-1.19-.77-1.91-.77-5.06v-12.66Zm-7.54,10.18c0,2.79-2.53,5.48-6.67,5.48-2.58,0-4.19-1.4-4.19-3.1,0-2.27,1.71-3.26,4.86-3.72l2.74-.41c.88-.15,2.43-.41,3.25-1.19v2.95Zm46.55-17.93c-9.09,0-13.95,6.2-13.95,14.16,0,7.54,3.67,14.21,13.95,14.21s13.95-6.67,13.95-14.21c0-7.96-4.86-14.16-13.95-14.16m0,22.79c-4.49,0-6.41-4.03-6.41-8.63,0-4.91,2.02-8.58,6.41-8.58s6.41,3.67,6.41,8.58c0,4.6-1.91,8.63-6.41,8.63m15.71,1.81c0,2.02,.83,3.77,3.77,3.77s3.77-1.76,3.77-3.77v-12.45c0-3.77,3.1-5.94,5.74-5.94,3.26,0,4.76,2.17,4.76,5.22v13.18c0,2.02,.83,3.77,3.77,3.77s3.77-1.76,3.77-3.77v-14.67c0-7.65-4.96-9.92-9.51-9.92-4.29,0-7.03,1.96-9.15,4.75h-.1v-.98c0-2.27-1.03-3.77-3.41-3.77s-3.41,1.5-3.41,3.77v20.82Zm-164.29-.88c0,3,1.54,4.54,5.23,4.54,2.44,0,3.7-.8,3.7-2.27,0-1.08-.66-1.71-1.78-1.71h-.73c-.91,0-1.33-.42-1.33-1.19v-10.19h1.54c1.5,0,2.3-.45,2.3-1.67s-.8-1.67-2.3-1.67h-1.54v-3.1c0-1.67-1.01-2.55-2.55-2.55s-2.55,.87-2.55,2.55v3.1h-.87c-1.43,0-2.02,.56-2.02,1.67s.59,1.67,2.02,1.67h.87v10.81Zm18.14-14.62c-6.14,0-9.42,4.19-9.42,9.56,0,5.09,2.48,9.59,9.42,9.59s9.42-4.5,9.42-9.59c0-5.37-3.28-9.56-9.42-9.56m0,15.38c-3.03,0-4.33-2.72-4.33-5.83,0-3.31,1.36-5.79,4.33-5.79s4.33,2.48,4.33,5.79c0,3.11-1.29,5.83-4.33,5.83"/></svg>