<?xml version="1.0" encoding="UTF-8"?><svg id="Layer_1" xmlns="http://www.w3.org/2000/svg" viewBox="0 0 265.66 77.01"><defs><style>.cls-1,.cls-2{fill:#fff;}.cls-2{opacity:.5;}</style></defs><path class="cls-1" d="M104.84,1.16h11.99l11.39,19.23L139.55,1.16h11.93l-18.06,30v18.69h-10.71V30.89L104.84,1.16Zm72.58,12.99c.64,1.02,1.05,2.15,1.22,3.38h10.37c-.33-2.81-1.08-5.31-2.32-7.5-1.23-2.18-2.78-4.02-4.68-5.49-1.86-1.48-4.02-2.61-6.41-3.38C173.23,.39,170.7,0,168.02,0,164.29,0,160.93,.66,157.96,1.98c-2.97,1.32-5.49,3.14-7.53,5.45-2.05,2.33-3.61,5.04-4.7,8.14-1.1,3.12-1.65,6.49-1.65,10.14s.55,6.86,1.65,9.92c1.09,3.07,2.65,5.74,4.7,8.01,2.04,2.27,4.56,4.06,7.53,5.36,2.98,1.3,6.33,1.94,10.06,1.94,2.99,0,5.75-.46,8.25-1.37,2.5-.91,4.69-2.23,6.55-3.94,1.87-1.73,3.36-3.82,4.5-6.28,1.13-2.45,1.84-5.2,2.11-8.25h-10.36c-.42,3.28-1.55,5.92-3.38,7.9-1.84,2.01-4.39,3-7.67,3-2.41,0-4.46-.46-6.14-1.4-1.69-.93-3.05-2.16-4.09-3.71-1.06-1.55-1.81-3.29-2.29-5.21-.48-1.94-.72-3.92-.72-5.97s.24-4.21,.72-6.21c.48-2,1.23-3.78,2.29-5.36,1.04-1.57,2.4-2.81,4.09-3.74,1.68-.94,3.73-1.4,6.14-1.4,1.32,0,2.57,.21,3.79,.65,1.2,.44,2.28,1.03,3.23,1.8,.96,.77,1.74,1.66,2.39,2.69m14.27-12.99V49.85h34.44v-9h-23.73V1.16h-10.71Zm36.86,0V49.85h36.96v-9h-26.25v-11.95h23.58v-8.31h-23.58V10.16h25.71V1.16h-36.42ZM76.71,20.03c.03-.17,.04-.36,.08-.53,.49-2,1.25-3.78,2.29-5.36,1.05-1.57,2.41-2.81,4.1-3.74,1.68-.94,3.72-1.4,6.14-1.4,1.31,0,2.59,.21,3.78,.65,1.21,.44,2.3,1.03,3.24,1.8,.95,.77,1.76,1.66,2.39,2.69,.63,1.02,1.04,2.15,1.23,3.38h10.36c-.32-2.82-1.09-5.32-2.31-7.5-1.23-2.18-2.79-4.02-4.68-5.48-1.88-1.48-4.02-2.61-6.4-3.38C94.51,.39,92,0,89.31,0c-3.73,0-7.09,.66-10.06,1.98-2.99,1.32-5.5,3.14-7.53,5.45-1.1,1.25-2.05,2.61-2.87,4.06l7.86,8.54Zm23.65,11.06c-.42,3.28-1.54,5.92-3.38,7.9-1.84,2-4.4,3-7.67,3-2.42,0-4.45-.46-6.14-1.4-1.68-.93-3.05-2.16-4.1-3.71-.74-1.1-1.28-2.32-1.74-3.6l-7.91,7.28c.68,1.09,1.43,2.12,2.29,3.07,2.03,2.27,4.55,4.05,7.53,5.35,2.97,1.3,6.33,1.94,10.06,1.94,3,0,5.75-.46,8.25-1.37,2.5-.91,4.68-2.23,6.54-3.94,1.87-1.73,3.36-3.82,4.51-6.28,1.13-2.45,1.83-5.21,2.11-8.25h-10.35Zm-29.06,25v20.5h1.95v-9.76h9.83v-1.67h-9.83v-7.41h11.06v-1.65h-13.01Zm14.36,6.2c-.39,1.29-.6,2.64-.6,4.05s.21,2.77,.6,4.06c.4,1.27,1,2.41,1.82,3.38,.79,.98,1.8,1.76,3.02,2.35,1.21,.57,2.63,.88,4.24,.88s3.01-.3,4.21-.88c1.21-.59,2.22-1.37,3.03-2.35,.8-.97,1.41-2.11,1.81-3.38,.41-1.29,.61-2.64,.61-4.06s-.2-2.76-.61-4.05c-.4-1.29-1-2.42-1.81-3.4-.81-.99-1.82-1.77-3.03-2.36-1.2-.58-2.6-.88-4.21-.88s-3.03,.3-4.24,.88c-1.22,.59-2.23,1.36-3.02,2.36-.82,.98-1.42,2.12-1.82,3.4m1.8,7.35c-.31-1.09-.45-2.19-.45-3.3s.14-2.24,.45-3.31c.3-1.06,.75-2.02,1.38-2.88,.62-.85,1.41-1.53,2.4-2.06,.98-.51,2.15-.76,3.51-.76s2.52,.25,3.49,.76c.96,.53,1.76,1.21,2.38,2.06,.62,.86,1.08,1.82,1.38,2.88,.31,1.08,.44,2.18,.44,3.31s-.14,2.21-.44,3.3c-.3,1.07-.76,2.05-1.38,2.89-.63,.86-1.42,1.55-2.38,2.05-.97,.53-2.14,.8-3.49,.8s-2.53-.27-3.51-.8c-.99-.5-1.78-1.19-2.4-2.05-.63-.84-1.08-1.82-1.38-2.89m19.41-13.55v20.5h1.96v-9.11h7.41c.93-.03,1.65,.13,2.18,.46,.52,.35,.93,.81,1.2,1.37,.27,.57,.45,1.21,.55,1.92,.08,.71,.14,1.45,.17,2.18,.02,.21,.04,.45,.06,.73,.02,.29,.04,.59,.08,.87,.02,.3,.07,.59,.13,.87,.07,.27,.16,.51,.28,.7h2.16c-.22-.24-.38-.6-.5-1.05-.13-.44-.22-.93-.27-1.42-.06-.52-.1-1.02-.12-1.52-.01-.5-.05-.92-.06-1.27-.04-.61-.12-1.18-.24-1.7-.13-.53-.33-1.01-.61-1.41-.27-.39-.64-.72-1.07-.98-.45-.26-1-.43-1.67-.53v-.05c1.32-.27,2.33-.88,2.99-1.85,.67-.95,1.01-2.08,1.01-3.39,0-.93-.18-1.72-.5-2.41-.34-.67-.79-1.22-1.35-1.66-.57-.43-1.24-.75-1.99-.95-.75-.21-1.55-.31-2.39-.31h-9.41Zm1.96,9.73v-8.07h7.29c1.51,0,2.61,.36,3.34,1.09,.73,.72,1.1,1.72,1.1,2.99,0,.63-.12,1.19-.36,1.67-.24,.5-.56,.91-.97,1.25-.4,.35-.87,.62-1.41,.81-.53,.17-1.1,.26-1.7,.26h-7.29Z"/><path class="cls-2" d="M132.33,71.37c.25,.49,.59,.89,1.02,1.19,.42,.31,.92,.52,1.49,.67,.56,.15,1.14,.21,1.75,.21,.42,0,.85-.03,1.33-.1,.47-.07,.91-.21,1.33-.4,.42-.2,.75-.47,1.02-.81,.28-.35,.41-.78,.41-1.31,0-.57-.17-1.02-.54-1.38-.37-.36-.84-.66-1.43-.89-.59-.24-1.25-.44-2-.62-.74-.18-1.5-.36-2.26-.59-.78-.18-1.55-.44-2.29-.72-.75-.28-1.42-.65-2.01-1.09-.58-.46-1.06-1.02-1.42-1.69-.35-.68-.55-1.49-.55-2.46,0-1.07,.23-2.02,.69-2.81,.48-.8,1.07-1.46,1.82-1.99,.76-.52,1.59-.91,2.53-1.17,.94-.24,1.88-.38,2.82-.38,1.1,0,2.16,.12,3.15,.37,1.03,.24,1.91,.64,2.7,1.18,.79,.55,1.42,1.26,1.87,2.11,.47,.85,.69,1.89,.69,3.1h-4.48c-.02-.62-.15-1.15-.39-1.56-.21-.41-.51-.74-.89-.98-.37-.24-.81-.4-1.28-.49-.48-.1-1.01-.15-1.58-.15-.37,0-.74,.04-1.11,.12-.38,.08-.71,.22-1.02,.41-.31,.19-.55,.45-.75,.74-.19,.29-.3,.67-.3,1.13,0,.4,.08,.74,.24,.98,.15,.26,.46,.5,.91,.71,.48,.2,1.11,.44,1.92,.65,.83,.22,1.89,.49,3.2,.82,.39,.08,.94,.23,1.63,.44,.7,.21,1.39,.53,2.07,.98,.7,.44,1.29,1.05,1.78,1.81,.5,.75,.75,1.72,.75,2.88,0,.98-.17,1.87-.55,2.69-.37,.82-.93,1.53-1.65,2.14-.73,.6-1.64,1.05-2.75,1.39-1.08,.33-2.34,.49-3.78,.49-1.15,0-2.27-.13-3.35-.41-1.09-.29-2.06-.74-2.89-1.34-.82-.61-1.5-1.39-1.99-2.33-.48-.94-.71-2.06-.71-3.35h4.48c0,.7,.12,1.31,.38,1.79m30.41,3.57c1.6-1.38,2.4-3.5,2.4-6.34v-13.06h-4.62v13.06c0,1.57-.31,2.73-.95,3.45-.62,.73-1.76,1.1-3.4,1.1-.95,0-1.7-.13-2.25-.4-.57-.25-1-.59-1.31-1.02-.31-.43-.52-.9-.61-1.46-.11-.54-.16-1.1-.16-1.67v-13.06h-4.62v13.06c0,2.85,.78,4.97,2.35,6.35,1.56,1.38,3.75,2.05,6.6,2.05s4.99-.69,6.58-2.07m5.77-19.4v21h4.62v-8.21h4.62c1.15,0,1.98,.26,2.49,.77,.51,.51,.85,1.32,.99,2.4,.13,.84,.21,1.73,.26,2.66,.07,.93,.22,1.71,.48,2.37h4.62c-.22-.29-.38-.65-.48-1.07-.11-.41-.2-.86-.23-1.34-.05-.46-.09-.92-.11-1.37-.03-.45-.04-.84-.05-1.18-.04-.52-.13-1.06-.22-1.58-.12-.53-.29-1.03-.51-1.46-.24-.45-.56-.83-.93-1.17-.38-.31-.83-.55-1.41-.7v-.06c1.18-.48,2.02-1.16,2.55-2.07,.52-.9,.78-1.96,.78-3.2,0-.81-.14-1.57-.42-2.25-.29-.69-.7-1.31-1.24-1.84-.53-.53-1.19-.94-1.93-1.24-.77-.32-1.6-.46-2.55-.46h-11.32Zm4.62,9.51v-5.92h5.06c1.05,0,1.85,.23,2.38,.68,.52,.46,.8,1.21,.8,2.22,0,1.07-.28,1.83-.8,2.31-.54,.46-1.33,.7-2.38,.7h-5.06Zm25.27,11.49l6.97-21h-4.77l-4.73,14.76h-.05l-4.68-14.76h-4.74l6.8,21h5.21Zm12.79-21h-4.62v21h4.62v-21Zm13.23,21l6.96-21h-4.77l-4.73,14.76h-.06l-4.67-14.76h-4.75l6.8,21h5.21Zm12.56-20.99l-7.93,20.99h4.64l1.66-4.68h7.84l1.59,4.68h4.79l-7.85-20.99h-4.74Zm-.43,12.88l2.73-7.71h.07l2.64,7.71h-5.44Zm14.27-12.88v21h14.85v-3.87h-10.23v-17.12h-4.61ZM32.42,27.36c.05-.47-.07-.97-.44-1.35L9.78,1.85c-.35-.38-.83-.57-1.29-.57-.42,0-.85,.15-1.18,.47L2.09,6.55c-.7,.65-.75,1.75-.11,2.45L18.32,26.77,.57,43.12c-.71,.64-.76,1.73-.11,2.45l4.81,5.21c.34,.38,.81,.57,1.27,.57,.43,0,.85-.16,1.18-.47L31.89,28.68c.38-.36,.55-.83,.53-1.32m22.35,0c.06-.47-.07-.97-.43-1.35L32.13,1.85c-.35-.38-.81-.57-1.27-.57-.42,0-.84,.15-1.19,.47l-5.23,4.8c-.7,.65-.75,1.75-.1,2.45l16.35,17.77-17.77,16.35c-.72,.64-.75,1.73-.11,2.45l4.81,5.21c.36,.38,.82,.57,1.28,.57,.43,0,.85-.16,1.18-.47l24.17-22.21c.36-.36,.55-.83,.52-1.32m22.23,0c.05-.47-.07-.97-.44-1.35L54.36,1.85c-.34-.38-.81-.57-1.28-.57-.43,0-.85,.15-1.19,.47l-5.22,4.8c-.7,.65-.75,1.75-.1,2.45l16.36,17.77-17.77,16.35c-.72,.64-.76,1.73-.1,2.45l4.81,5.21c.34,.38,.8,.57,1.27,.57,.42,0,.84-.16,1.18-.47l24.16-22.21c.38-.36,.54-.83,.53-1.32"/></svg>