<?xml version="1.0" encoding="UTF-8"?><svg id="Layer_1" xmlns="http://www.w3.org/2000/svg" viewBox="0 0 156.93 38.43"><defs><style>.cls-1,.cls-2,.cls-3{fill:#fff;}.cls-2{opacity:.5;}.cls-3{opacity:.75;}</style></defs><path class="cls-1" d="M23.41,37.97c7.26-1.63,12.92-7.3,14.56-14.56h-14.56v14.56"/><path class="cls-1" d="M0,19.21c0,.44,.02,.88,.05,1.31,.54,.05,1.09,.07,1.64,.07,10.34-.01,18.71-8.39,18.73-18.73,0-.62-.03-1.24-.09-1.84-.37-.02-.73-.03-1.11-.03C8.6,0,0,8.6,0,19.21"/><path class="cls-1" d="M37.97,15.01c-1.13-5.02-4.21-9.37-8.57-12.1-.15,4.23-1.27,8.37-3.28,12.1h11.85"/><path class="cls-1" d="M3.03,29.57c2.73,4.27,7.04,7.28,11.98,8.39v-11.76c-3.68,2.02-7.78,3.18-11.98,3.37"/><path class="cls-2" d="M15.01,15.01h11.11c2.01-3.73,3.13-7.87,3.28-12.1C26.66,1.2,23.54,.21,20.32,.03c.06,.61,.09,1.22,.09,1.84-.01,10.34-8.39,18.72-18.73,18.73-.55,0-1.1-.02-1.64-.07,.22,3.22,1.24,6.33,2.99,9.05,4.2-.19,8.3-1.35,11.98-3.37V15.01"/><path class="cls-3" d="M37.97,15.01h-11.85c-1.29,2.38-2.91,4.56-4.83,6.47-1.86,1.86-3.97,3.45-6.28,4.72v11.76c2.77,.62,5.63,.62,8.4,0v-14.56h14.56c.62-2.77,.61-5.63,0-8.4"/><path class="cls-1" d="M47.97,5.69l4.62,.02c1.69-.07,3.37,.36,4.81,1.26,1.62,1.35,2.5,3.39,2.38,5.49,0,4.29-2.3,6.53-4.95,7.02-.83,.13-1.67,.18-2.51,.15h-4.35V5.69Zm3.03,11.64c.33,.02,.83,.04,1.18,.04,1.17,.15,2.35-.2,3.25-.97,.88-1.12,1.32-2.52,1.26-3.94,0-1.97-.68-3.79-2.55-4.31-1.03-.23-2.08-.3-3.13-.19v9.37Zm16.58,2.3c-.07-.44-.1-.89-.1-1.33-1.22,1.69-3.58,2.07-5.27,.86-.03-.02-.06-.04-.09-.06-.56-.57-.86-1.35-.85-2.15,0-1.34,.82-2.55,2.07-3.03,1.24-.43,2.55-.61,3.87-.54,.03-.44-.02-.87-.14-1.3-.21-.51-.72-.83-1.28-.81-.43,0-.83,.19-1.08,.54-.16,.26-.23,.56-.21,.87h-2.8c-.04-.9,.38-1.76,1.1-2.3,.88-.56,1.91-.84,2.96-.79,1.28-.08,2.54,.38,3.48,1.26,.48,.7,.72,1.55,.68,2.4l.02,3.92c-.01,.83,.07,1.66,.23,2.47h-2.59Zm-3.52-3.01c-.03,.74,.56,1.37,1.3,1.39,.03,0,.06,0,.09,0,.47,0,.91-.21,1.22-.56,.46-.72,.65-1.57,.54-2.42-1.84-.15-3.15,.43-3.15,1.59m8.35-5.01s0-1.1-.06-1.78h2.75l.08,1.47c.64-1.13,1.87-1.79,3.17-1.7,1.29-.1,2.49,.64,2.98,1.84,.27,.95,.36,1.94,.27,2.92v5.28h-2.92v-6.07c.03-.36-.02-.73-.15-1.06-.26-.53-.8-.85-1.39-.83-.59-.01-1.15,.27-1.49,.75-.26,.45-.38,.97-.35,1.49v5.72h-2.88V11.6Zm17.37,8.02c-.07-.44-.1-.89-.1-1.33-1.22,1.69-3.58,2.07-5.27,.86-.03-.02-.06-.04-.09-.06-.56-.57-.86-1.35-.85-2.15,0-1.34,.82-2.55,2.07-3.03,1.24-.43,2.55-.61,3.87-.54,.03-.44-.02-.87-.14-1.3-.21-.51-.72-.83-1.28-.81-.43,0-.83,.19-1.08,.54-.16,.26-.23,.57-.21,.87h-2.8c-.04-.9,.38-1.76,1.1-2.3,.88-.56,1.91-.84,2.96-.79,1.28-.08,2.54,.38,3.48,1.26,.48,.7,.72,1.55,.68,2.4l.02,3.92c-.01,.83,.07,1.66,.23,2.47h-2.59Zm-3.52-3.01c-.03,.74,.56,1.37,1.3,1.39,.03,0,.06,0,.09,0,.47,0,.91-.21,1.22-.56,.46-.72,.65-1.57,.54-2.42-1.84-.15-3.15,.43-3.15,1.59m7.71-3.19h4.79v2.18h-4.79v-2.18Zm6.92-7.75h9.01v2.24h-6.01v3.44h5.61v2.32h-5.61v5.95h-3V5.67Zm15.52,13.95c-.07-.44-.1-.89-.1-1.33-1.22,1.69-3.58,2.07-5.27,.86-.03-.02-.06-.04-.09-.06-.56-.57-.86-1.35-.85-2.15,0-1.34,.82-2.55,2.07-3.03,1.24-.43,2.55-.61,3.86-.54,.03-.44-.02-.87-.14-1.3-.21-.51-.72-.83-1.28-.81-.43,0-.83,.19-1.08,.54-.16,.26-.23,.57-.21,.87h-2.8c-.04-.9,.38-1.76,1.1-2.3,.88-.56,1.91-.84,2.96-.79,1.28-.08,2.54,.38,3.48,1.26,.48,.7,.72,1.55,.68,2.4l.02,3.92c-.01,.83,.07,1.66,.23,2.47h-2.59Zm-3.52-3.01c-.03,.74,.56,1.37,1.3,1.39,.03,0,.06,0,.09,0,.47,0,.91-.21,1.22-.56,.46-.72,.65-1.57,.54-2.42-1.84-.15-3.15,.43-3.15,1.59m8.31-4.35c0-.46-.08-1.88-.14-2.43h2.69l.06,1.88c.37-.83,1-2.01,3.32-1.9v2.57c-2.9-.27-3.07,1.22-3.07,2.44v4.81h-2.86v-7.36Zm7.32-6.57h2.86v5.35c.65-.87,1.68-1.36,2.76-1.31,2.38,0,4.25,1.87,4.25,5.16,0,3.65-2.13,4.93-4.08,4.93-1.19,.06-2.32-.54-2.94-1.57-.02,.31-.04,.77-.1,1.37h-2.76V5.69Zm4.85,5.95c-2.11,0-2.11,2.4-2.11,3.02,0,2.22,.95,3.29,2.24,3.29,1.97,0,1.97-2.45,1.97-2.96,0-.77-.04-3.34-2.11-3.34m9.26,3.83c0,.64,0,2.61,1.99,2.61,.83,.06,1.57-.53,1.7-1.35h2.61c-.04,.8-.37,1.55-.93,2.13-.95,.82-2.18,1.23-3.42,1.14-1.26,.06-2.5-.38-3.44-1.22-.9-1.06-1.35-2.42-1.26-3.81-.14-1.78,.62-3.51,2.03-4.62,.81-.54,1.77-.82,2.74-.81,1.67-.07,3.22,.86,3.94,2.36,.49,1.12,.69,2.35,.58,3.58h-6.55Zm3.63-1.8c0-.44-.04-2.18-1.7-2.18-1.26,0-1.78,1.04-1.84,2.18h3.54Zm4.72-1.41c0-.46-.08-1.88-.13-2.43h2.69l.06,1.88c.37-.83,1.01-2.01,3.32-1.9v2.57c-2.9-.27-3.07,1.22-3.07,2.44v4.81h-2.86v-7.36ZM54.08,27.05c-.08-1-.96-1.75-1.96-1.67-.04,0-.07,0-.11,.01-2.31,0-2.72,2.36-2.72,3.95,0,1.81,.52,3.75,2.71,3.75,.57,.03,1.14-.17,1.55-.57,.25-.28,.41-.63,.46-1.01h1.46c-.2,1.88-1.94,2.67-3.58,2.67-3.37,0-4.02-2.97-4.02-4.83,0-2.02,.78-5.03,4.19-5.03,1.35,0,3.26,.54,3.44,2.72h-1.42Zm7.21,6.99c-.09-.32-.13-.66-.12-.99-.38,.78-1.19,1.26-2.06,1.21-1.53,0-2.35-.86-2.35-1.96,0-.82,.45-1.57,1.17-1.95,.73-.32,1.52-.47,2.31-.44,.32,0,.52,.01,.9,.04,0-.82,0-1.18-.24-1.47-.31-.3-.73-.46-1.15-.44-1.26,0-1.33,.86-1.34,1.13h-1.25c.01-.46,.18-.9,.47-1.26,.6-.51,1.37-.77,2.15-.72,.9-.09,1.79,.28,2.36,.98,.17,.31,.24,.67,.23,1.02l-.05,3.18c0,.56,.04,1.12,.11,1.67h-1.13Zm-.86-3.28c-.5,0-2.4,0-2.4,1.35,0,.42,.26,1.15,1.38,1.15,.57,.03,1.11-.24,1.42-.72,.27-.54,.38-1.15,.32-1.75-.24-.03-.48-.04-.72-.04m4.06-2.61v-.77h1.23v1.07c.41-.8,1.26-1.28,2.15-1.21,1.22-.11,2.3,.8,2.41,2.02,0,.08,0,.17,0,.25v4.53h-1.27v-4.23c.04-.41-.09-.83-.36-1.14-.32-.3-.74-.46-1.18-.45-.98,0-1.76,.81-1.75,1.79,0,.07,0,.14,.01,.2v3.84h-1.25v-5.89Zm11.77,1.37c.04-.72-.51-1.35-1.23-1.39-.03,0-.06,0-.09,0-1.72,0-1.72,2-1.72,2.51,0,1.37,.33,2.64,1.66,2.64,.76,.03,1.41-.56,1.45-1.32,0-.04,0-.08,0-.12h1.26c-.07,1.39-1.25,2.46-2.64,2.39h-.06c-.82,.02-1.61-.29-2.19-.87-.58-.72-.87-1.63-.8-2.55,0-2.77,1.7-3.6,3.03-3.6,.77-.03,1.51,.27,2.04,.82,.36,.41,.55,.94,.56,1.49h-1.26Zm3.66,1.42c-.03,1.38,.54,2.4,1.91,2.4,.8,.06,1.5-.53,1.56-1.33v-.05h1.25c-.02,.52-.23,1.01-.57,1.39-.59,.62-1.44,.95-2.3,.89-2.1,0-3.09-1.3-3.09-3.41-.14-1.2,.36-2.39,1.31-3.13,.54-.34,1.18-.51,1.82-.49,2.99,0,2.92,2.64,2.89,3.73h-4.79Zm3.52-.88c.01-.64-.11-1.96-1.64-1.96-.99-.02-1.8,.76-1.83,1.75,0,.07,0,.15,0,.22h3.46Zm3.08-1.33c0-.45-.03-.92-.07-1.35h1.26l.03,1.29c.2-.73,.84-1.25,1.59-1.31,.29-.04,.58-.05,.86-.03v1.22c-.08-.03-.16-.04-.24-.05-.12-.01-.24-.02-.36-.01-1.47,0-1.82,.88-1.82,2.02v3.54h-1.26v-5.31Zm8.52-4.27h1.33v9.58h-1.33v-9.58Zm3.8,3.69v-.77h1.23v1.07c.41-.8,1.26-1.28,2.15-1.21,1.22-.11,2.3,.8,2.41,2.02,0,.08,0,.17,0,.25v4.53h-1.27v-4.23c.04-.41-.09-.83-.36-1.14-.32-.3-.74-.46-1.18-.45-.98,.01-1.76,.81-1.75,1.79,0,.07,0,.13,.01,.2v3.84h-1.25v-5.89Zm8.85,3.92c-.01,.5,.25,1.21,1.46,1.21,.43,.05,.87-.1,1.17-.42,.14-.18,.21-.4,.21-.62,0-.65-.46-.77-1.46-1-1.39-.32-2.56-.6-2.56-1.99,0-1.22,1.06-2.02,2.6-2.02,.93-.09,1.83,.3,2.4,1.03,.13,.3,.19,.64,.17,.97h-1.28c.04-1.01-.83-1.09-1.29-1.09-.19,0-1.35,0-1.35,.95,0,.61,.6,.76,.94,.85,1.85,.44,2.24,.55,2.64,.92,.33,.32,.52,.77,.5,1.24,0,.68-.34,1.31-.9,1.69-.61,.33-1.29,.49-1.98,.45-1.35,0-2.61-.56-2.6-2.16h1.31Zm4.96-4.71h1.18v-1.39l1.23-.4v1.79h1.49v.92h-1.49v3.99c0,.33,0,.89,.89,.89,.2,0,.4-.02,.6-.07v.97c-.34,.05-.69,.08-1.04,.08-1.14,0-1.68-.33-1.68-1.42v-4.44h-1.18v-.92Zm5.55-2.87h1.5v1.37h-1.5v-1.37Zm.13,2.89h1.25v6.66h-1.25v-6.66Zm2.72-.03h1.18v-1.39l1.23-.4v1.79h1.49v.92h-1.49v3.99c0,.33,0,.89,.89,.89,.2,0,.4-.02,.6-.07v.97c-.34,.05-.69,.08-1.04,.08-1.14,0-1.68-.33-1.68-1.42v-4.44h-1.18v-.92Zm6.65,.03v4.29c0,.65,.15,1.47,1.42,1.47,.61,.04,1.21-.24,1.57-.74,.22-.38,.31-.81,.28-1.25v-3.77h1.29v5.41c0,.13,.03,.88,.04,1.25h-1.3l-.03-1.14c-.37,.82-1.23,1.31-2.12,1.21-1.17,.16-2.24-.66-2.4-1.83-.02-.14-.02-.29-.01-.43v-4.47h1.27Zm5.78-.03h1.18v-1.39l1.23-.4v1.79h1.49v.92h-1.49v3.99c0,.33,0,.89,.89,.89,.2,0,.4-.02,.6-.07v.97c-.34,.05-.69,.08-1.04,.08-1.14,0-1.68-.33-1.68-1.42v-4.44h-1.18v-.92Zm6.1,3.58c-.03,1.38,.54,2.4,1.91,2.4,.8,.07,1.5-.53,1.56-1.33v-.05h1.25c-.02,.52-.23,1.01-.57,1.39-.59,.62-1.44,.95-2.3,.89-2.1,0-3.09-1.3-3.09-3.41-.14-1.2,.36-2.39,1.31-3.13,.54-.34,1.18-.51,1.82-.49,2.99,0,2.92,2.64,2.89,3.73h-4.79Zm3.52-.88c.01-.64-.11-1.96-1.65-1.96-.99-.02-1.8,.76-1.83,1.75,0,.07,0,.15,0,.22h3.46Z"/></svg>