<?xml version="1.0" encoding="UTF-8"?><svg id="Layer_1" xmlns="http://www.w3.org/2000/svg" viewBox="0 0 308.91 118.73"><defs><style>.cls-1,.cls-2{fill:#fff;}.cls-2{opacity:.5;}</style></defs><path class="cls-2" d="M5.6,16.59h.12l1.91,.54c.14,.21,.29,.41,.45,.6,.08,.49,.15,1,.23,1.46l.12,.77h.08l1.85-.68c.73,.26,1.51,.36,2.28,.28,2.98-.31,5.15-2.95,4.87-5.93-.15-1.38-.83-2.64-1.89-3.53-.07-.53-.15-1-.23-1.57,0-.15-.05-.31-.07-.47h-.11l-2.21,.84-.36-.06-1.38-1.37-.1-.09c-.41,.63-.81,1.25-1.22,1.86l-2.6-.42s0,.05,0,.08c0,.85,.07,1.7,.11,2.55v.07l-.06,.09-1.18,.59-1,.5,1.49,1.84-1.1,2.05Zm20.04,14.96c-1.28-.49-2.58-1-3.88-1.39-.95-.28-1.76-.88-2.31-1.7-.92-1.47-2.14-2.72-3.58-3.68-3.44-2.13-7-1.31-8.73,2.09-2.04,4.09-4.06,8.17-6.06,12.26-1.53,2.98-1.43,6.54,.28,9.43,1.5,2.75,3.05,5.49,4.57,8.24,.13,.24,.24,.5,.31,.76,1.05,3.78,2.09,7.57,3.12,11.36,.26,1.05,1.12,1.83,2.18,2,1.03,.24,2.11-.15,2.74-1,.63-.83,.81-1.92,.48-2.91-.41-1.67-.78-3.35-1.18-5-.6-3.2-1.49-6.34-2.66-9.37-1-2.29-2-4.59-3-6.89-.1-.22-.17-.45-.3-.77l6.72,1.57c.52,.1,.91,.55,.93,1.08,.19,1.33,.41,2.67,.63,4,.14,1.45,1.43,2.51,2.88,2.37,.04,0,.08,0,.12-.01,1.47-.2,2.5-1.56,2.3-3.03v-.04c-.24-2-.52-4-.8-5.95-.05-.37-.14-.73-.27-1.08-.56-1.38-1.78-2.39-3.25-2.68-2.47-.69-4.92-1.43-7.42-2.15l3.54-7.88c1.79,1.26,3.54,2.49,5.3,3.71,.24,.18,.51,.32,.79,.42,1.58,.5,3.16,1,4.75,1.45,.46,.15,.95,.18,1.43,.11,1.21-.23,2.13-1.23,2.24-2.46,.14-1.28-.65-2.47-1.87-2.86Zm1.57-19.44c-2.3,2.78-4.57,5.59-6.87,8.37-.28,.32-.62,.59-1,.78-.82,.41-1.67,.75-2.51,1.12,.74,.56,1.46,1,2.1,1.61s1.19,1.24,1.82,1.93c.85-.47,1.66-1,2.52-1.39,.97-.46,1.79-1.18,2.36-2.08,.69-1.08,1.49-2.08,2.24-3.12l3.08-4.23c.79-.93,.77-2.3-.05-3.2-.88-.97-2.39-1.04-3.36-.16-.12,.11-.23,.23-.33,.37Zm9.93,.89c.88-.52,1.73-1.09,2.55-1.7,.74-.77,1.93-.9,2.82-.3,.85,.44,1.78,.72,2.81,1.13-.39-1.41-.7-2.67-1.09-3.91-.13-.35-.05-.74,.21-1,.81-1,1.59-2.07,2.4-3.14-1.13-.02-2.34-.08-3.54-.08-.54,.05-1.05-.23-1.3-.71C41.4,2.2,40.7,1.17,39.95,0c-.32,.71-.58,1.45-.8,2.2-.15,1.54-1.45,2.71-3,2.7-.73,.1-1.45,.28-2.15,.53,.7,.7,1.45,1.34,2.25,1.93,.91,.49,1.37,1.54,1.1,2.54-.14,1.03-.21,2.06-.21,3.1Z"/><path class="cls-2" d="M87.09,114.26h-.01c0-.12-.07-.23-.09-.34l-19.53-80.21c0-.12-.06-.24-.08-.37-.04-.62-.32-1.21-.76-1.65-.77-.65-1.78-.95-2.78-.83-.88,.23-1.42,1.5-1.66,2.23-.1,.33-.1,.67,0,1h-18.74v-.18c-.04-.62-.31-1.21-.76-1.65-.78-.64-1.78-.94-2.78-.83-.87,.23-1.42,1.5-1.66,2.23-.11,.51-.05,1.04,.16,1.52,.05,.14,.1,.28,.13,.43l3.89,16,1.5,6.3c3.94,16.62,7.88,33.24,11.83,49.86,.68,2.87,1.35,5.74,2,8.61,.15,.65,.54,1.22,1.1,1.59,.21,.27,.49,.49,.8,.64,.25,.12,.53,.18,.81,.18,.29,0,.57-.06,.83-.18,.86-.46,1.53-1.21,1.9-2.11,.17-.54,.15-1.12-.08-1.64l-.52,.16,.51-.19c0-.12-.07-.24-.09-.35l-4.14-17h18.25c.21-.03,.42,.03,.58,.16l4.3,17.43c.11,.44,.21,.89,.35,1.33,.19,.69,.65,1.26,1.28,1.6,.26,.11,.53,.17,.81,.17,.29,0,.57-.06,.83-.17,.86-.47,1.53-1.22,1.9-2.12,.17-.53,.14-1.11-.08-1.62ZM44.62,38.91h17.79c.36,0,.71-.09,.85,.48,1.11,4.58,2.27,9.16,3.41,13.73,0,.12,0,.23,.07,.39h-18.57l-3.55-14.6Zm8.31,34.14l-3.57-14.66h18c.41,0,.68,0,.81,.53,1.1,4.53,2.25,9.06,3.38,13.59,0,.14,0,.28,.09,.51h-18.47c-.08,.02-.16,.03-.24,.03Zm22.79,19.47h-18l-3.61-14.64h18c.56,0,.8,.14,.94,.67l3.41,14-.74-.03Z"/><path class="cls-1" d="M38.21,70.28H19.75l3-13.88h11.64c1,0,1.91-.6,2.29-1.53,.44-.84,.35-1.87-.23-2.62-.59-.82-1.56-1.27-2.56-1.19h-10l2.94-13.59h8c1.05,0,1.99-.63,2.39-1.6,.47-.88,.39-1.96-.22-2.75-.61-.85-1.62-1.32-2.67-1.24h-9.16c-1.53-.21-2.94,.86-3.16,2.39,0,.04-.01,.08-.01,.13L6.34,113.78c-.12,.72,.08,1.45,.55,2,.47,.54,1.15,.85,1.86,.84h13.3c10.31,0,16.71-5.88,16.71-15.34,0-4.32-2-7.53-5.63-9,4.39-2.01,7.17-6.42,7.1-11.25,.05-1.91-.43-3.79-1.39-5.44h.21c1.44-.15,2.49-1.45,2.34-2.89-.03-.27-.1-.54-.21-.79-.52-1.14-1.73-1.8-2.97-1.63Zm-15.5,41.18H12.4l2.86-16.08h10.51c4.6,0,7.24,2.34,7.24,6.42-.01,6.05-3.85,9.66-10.3,9.66Zm1.74-21h-8.33l2.53-14.28h8.52c4.84,0,7.3,1.91,7.3,5.68,0,5.04-4.12,8.58-10.02,8.58v.02Z"/><path class="cls-1" d="M100.28,58.63c0-5.19-4.63-6.89-8.71-8.39-3.18-1.17-5.93-2.18-5.93-4.52,0-3.18,3.6-3.65,5.74-3.65,2.38-.13,4.7,.78,6.35,2.49,.49,.51,1.17,.8,1.88,.8,1.44,0,2.6-1.16,2.61-2.6-.01-.5-.16-.99-.43-1.42-1.44-2.32-5.3-4.67-9.89-4.67-7.4,0-12,3.74-12,9.76,0,5.42,5,7.26,9,8.75,3,1.11,5.66,2.08,5.66,4.1,0,4-5.38,4.36-7,4.36-3.25,0-5.72-1-7.35-2.91-.95-1.09-2.61-1.2-3.7-.24-.56,.49-.89,1.2-.89,1.95,0,.49,.12,.97,.38,1.38,1.8,2.6,5.94,5.18,11.18,5.18,8.32,0,13.1-3.75,13.1-10.37Zm4.57,22.61c1.57,.01,2.91-1.12,3.15-2.67l2.29-12.8c1.61,2.21,4.16,3.34,7.61,3.34,12.87,0,17.44-11.17,17.44-20.74,0-7.59-4.26-11.77-12-11.77-3.07-.1-6.07,.93-8.43,2.89,.02-.6-.18-1.18-.57-1.64-.49-.56-1.2-.87-1.94-.86-1.55,.03-2.86,1.15-3.12,2.67l-6.86,38.66c-.29,1.29,.51,2.57,1.8,2.86,.22,.05,.45,.07,.67,.06h-.04Zm17.87-39.43c4.71,0,6.9,2.25,6.9,7.08,0,3.52-.8,15-11.11,15-4.51,0-6.52-2.36-6.52-7.66,.01-8.62,4.31-14.42,10.73-14.42Zm28.51-6.67c.61-.04,1.18-.3,1.61-.73l7.27-6.15c.53-.44,.86-1.08,.91-1.77,.01-.67-.26-1.32-.74-1.78-.47-.56-1.16-.9-1.89-.94-.64,0-1.26,.26-1.7,.73l-6.73,7c-.86,.7-.99,1.96-.29,2.81,.05,.07,.11,.13,.17,.19,.36,.39,.86,.62,1.39,.64Zm-1.65,33.97c4.08,.15,8.08-1.15,11.29-3.67,.75-.5,1.2-1.33,1.23-2.23,0-1.4-1.15-2.54-2.55-2.53h-.06c-.6,0-1.19,.21-1.66,.58-2.15,1.64-4.77,2.54-7.47,2.58-5.21,0-7.23-2-7.23-7,0-.42,.02-.85,.07-1.27,15-.09,22.33-3.76,22.33-11.18,0-3.58-2.69-7.77-10.25-7.77-10.79,0-17.76,8.14-17.76,20.74,0,7.57,4.28,11.75,12.06,11.75Zm5-27.3c3.9,0,5.29,1.55,5.29,3,0,3.71-5.66,5.8-16,5.91,1.13-4.28,4.5-8.91,10.76-8.91h-.05Zm15.26,26.97c1.56,0,2.9-1.12,3.16-2.66l2.59-14.46c1-5.93,4.78-9.47,10-9.47,1.68,0,3.06-1.32,3.13-3,.03-1.34-1.02-2.45-2.36-2.48h-.05c-3.21-.03-6.32,1.14-8.71,3.29v-.09c.26-1.32-.6-2.6-1.92-2.86-.17-.03-.35-.05-.53-.05-1.56-.01-2.9,1.12-3.15,2.66l-4.66,26.21c-.27,1.31,.57,2.59,1.88,2.86,.19,.04,.39,.06,.59,.05h.03Zm43.16-2.67l4.66-26.2c.14-.73-.04-1.49-.51-2.07-.5-.57-1.24-.89-2-.85-1.25-.03-2.39,.71-2.86,1.87-2.25-1.52-4.92-2.31-7.63-2.26-10.4,0-17.95,8.78-17.95,20.87,0,7.18,4.32,11.64,11.28,11.64,3.65,.06,7.15-1.43,9.62-4.11l-.17,.88c-.14,.75,.06,1.53,.56,2.12,.48,.54,1.18,.83,1.9,.81,1.56-.02,2.87-1.16,3.1-2.7Zm-2.94-15c-1.06,6.21-4.65,12.79-11.41,12.79-5.23,0-6.33-3.85-6.33-7.08,0-8.77,5.06-15.14,12-15.14,2.52-.04,4.97,.87,6.85,2.56l-1.11,6.87Zm30.4,14.76c-.15,.73,.04,1.49,.51,2.07,.51,.57,1.24,.88,2,.84,1.52-.04,2.79-1.17,3.03-2.67l3-17.22c.22-1.19,.33-2.41,.34-3.62,0-3.23-1.42-8.67-11-8.67-2.99-.04-5.91,.97-8.24,2.85,.02-.59-.19-1.16-.57-1.6-.49-.56-1.2-.88-1.94-.86-1.55,0-2.87,1.14-3.11,2.67l-4.67,26.21c-.28,1.29,.54,2.57,1.83,2.86,.21,.05,.42,.06,.64,.05,1.55,0,2.87-1.13,3.12-2.66l2.85-16c1-5.67,4.08-8.43,9.44-8.43s5.87,2.51,5.87,4.69c-.02,1.01-.13,2.01-.31,3l-2.79,16.49Zm23.54,3.24c3.88,.11,7.69-1.05,10.85-3.3,.9-.53,1.45-1.49,1.47-2.53,0-1.4-1.15-2.54-2.55-2.54-.62,0-1.22,.21-1.71,.58-2.11,1.67-4.72,2.58-7.41,2.58-4.6,0-6.65-2.4-6.65-7.79,0-9,4.06-14.3,10.85-14.3,2.4-.17,4.73,.88,6.19,2.79,.86,1.15,2.49,1.38,3.64,.52,.67-.5,1.05-1.29,1.04-2.12,0-.47-.13-.93-.36-1.33-.68-1.19-3.41-5.08-9.76-5.08-10.64,0-17.25,7.68-17.25,20,0,8.32,3.93,12.52,11.65,12.52Zm44.91-24.74c0-3.58-2.68-7.77-10.25-7.77-10.79,0-17.76,8.14-17.76,20.74,0,7.59,4.29,11.77,12.07,11.77,4.08,.15,8.07-1.15,11.28-3.67,.75-.5,1.2-1.33,1.23-2.23,0-1.4-1.15-2.54-2.55-2.53h-.06c-.6,0-1.18,.21-1.65,.58-2.15,1.64-4.78,2.54-7.48,2.58-5.2,0-7.23-2-7.23-7,0-.42,.02-.85,.08-1.27,15.02-.11,22.32-3.78,22.32-11.2Zm-10.91-2.56c3.89,0,5.28,1.55,5.28,3,0,3.71-5.66,5.8-16,5.91,1.14-4.28,4.47-8.91,10.72-8.91ZM115.66,85.15c-1.24-.04-2.38,.7-2.86,1.85-2.25-1.52-4.92-2.31-7.63-2.26-10.4,0-18,8.78-18,20.87,0,7.18,4.32,11.64,11.28,11.64,3.64,.06,7.14-1.44,9.61-4.12l-.06,.87c-.16,.74,.03,1.51,.5,2.1,.48,.54,1.18,.83,1.9,.81,1.55,0,2.87-1.14,3.12-2.67l4.66-26.2c.29-1.29-.51-2.57-1.8-2.86-.22-.05-.45-.07-.67-.06l-.05,.03Zm-5.12,14.16c-1.07,6.17-4.62,12.75-11.39,12.75-5.23,0-6.32-3.85-6.32-7.08,0-8.77,5-15.14,12-15.14,2.52-.04,4.97,.87,6.85,2.56l-1.14,6.91Zm28.46-14.55c-2.99-.04-5.9,.97-8.23,2.85,.01-.58-.19-1.15-.57-1.6-.49-.56-1.2-.87-1.94-.86-1.55,0-2.87,1.14-3.12,2.67l-4.7,26.18c-.29,1.29,.52,2.57,1.81,2.86,.22,.05,.44,.07,.66,.05,1.55,0,2.87-1.13,3.11-2.66l2.85-16c1-5.67,4.09-8.43,9.45-8.43s5.87,2.51,5.87,4.69c-.03,1.01-.13,2.01-.31,3l-2.88,16.49c-.28,1.29,.54,2.57,1.83,2.86,.21,.05,.42,.06,.64,.05,1.55,0,2.87-1.14,3.12-2.67l3-17.22c.21-1.2,.33-2.41,.34-3.62,0-3.2-1.43-8.64-10.93-8.64Zm24.5-15.76c-1.55,0-2.87,1.14-3.12,2.67l-6.54,36.85c-.13,.74-.2,1.5-.2,2.25,0,4,2.26,6.15,6.36,6.15,1.65,.03,3.02-1.27,3.06-2.92,.06-1.27-.92-2.35-2.19-2.41-.05,0-.11,0-.16,0-1,0-1.4-.42-1.4-1.46,0-.46,.03-.91,.12-1.36l6.57-36.83h0c.3-1.29-.5-2.58-1.79-2.88-.23-.05-.47-.07-.71-.06Zm11.26,16.15c-1.55,0-2.87,1.14-3.12,2.67l-4.64,26.18c-.29,1.29,.52,2.57,1.81,2.86,.22,.05,.44,.07,.66,.05,1.55,0,2.87-1.14,3.12-2.67l4.66-26.2c.28-1.3-.54-2.58-1.84-2.87-.21-.04-.42-.06-.63-.05l-.02,.03Zm2.01-11.1c-2.26,0-3.71,1.56-3.71,4,0,1.54,1.12,2.54,2.87,2.54,2.25,0,3.71-1.56,3.71-4,0-1.54-1.13-2.54-2.87-2.54Zm20.52,10.71c-10.79,0-17.76,8.14-17.76,20.74,0,7.59,4.28,11.77,12.06,11.77,4.08,.15,8.08-1.15,11.29-3.67,.75-.5,1.2-1.33,1.23-2.23,0-1.4-1.15-2.54-2.55-2.53h-.06c-.6,0-1.19,.21-1.66,.58-2.15,1.64-4.77,2.54-7.47,2.58-5.21,0-7.23-2-7.23-7,0-.42,.02-.85,.08-1.27,15-.09,22.32-3.76,22.32-11.18,0-3.55-2.69-7.79-10.25-7.79Zm-11.29,14.13c1-4.29,4.38-8.89,10.64-8.89,3.9,0,5.29,1.55,5.29,3,0,3.69-5.66,5.78-15.93,5.89Zm50.52-13.74c-1.57,0-2.9,1.13-3.18,2.67l-3,16.84c-.69,3.74-2.22,7.21-8.6,7.21-5.32,0-6-2.51-6-4.69,0-.76,.09-1.52,.24-2.26l3-16.85h0c.14-.73-.05-1.49-.52-2.06-.5-.58-1.24-.89-2-.86-1.55,0-2.87,1.14-3.11,2.67l-3,16.85c-.21,1.19-.32,2.4-.34,3.61,0,3.35,1.46,9,11.22,9,11,0,13.61-6.6,14.64-12.35l3-16.85c.16-.73,0-1.49-.47-2.08-.47-.55-1.16-.86-1.88-.85Zm21.81-.39c-10.79,0-17.76,8.14-17.76,20.74,0,7.59,4.29,11.77,12.07,11.77,4.08,.15,8.07-1.15,11.28-3.67,.75-.5,1.2-1.33,1.23-2.23,0-1.4-1.15-2.54-2.55-2.53h-.06c-.6,0-1.18,.21-1.65,.58-2.15,1.64-4.78,2.54-7.48,2.58-5.2,0-7.23-2-7.23-7,0-.42,.02-.85,.08-1.27,15-.09,22.32-3.76,22.32-11.18,0-3.55-2.68-7.79-10.25-7.79Zm-11.33,14.13c1.09-4.29,4.42-8.92,10.69-8.92,3.9,0,5.28,1.55,5.28,3,.03,3.72-5.66,5.81-15.97,5.92Zm38.2-14.06c-7.4,0-12,3.74-12,9.76,0,5.42,5,7.26,9,8.75,3,1.11,5.66,2.08,5.66,4.1,0,4-5.39,4.36-7,4.36-3.25,0-5.72-1-7.35-2.91-.97-1.07-2.63-1.16-3.7-.19-.93,.84-1.14,2.21-.5,3.28,1.79,2.6,5.93,5.22,11.16,5.22,8.33,0,13.1-3.79,13.1-10.41,0-5.19-4.63-6.89-8.71-8.39-3.18-1.17-5.92-2.18-5.92-4.52,0-3.18,3.59-3.65,5.74-3.65,2.37-.12,4.67,.79,6.32,2.49,.48,.52,1.16,.81,1.87,.8,1.44,0,2.6-1.16,2.61-2.6,0-.5-.16-1-.43-1.42-1.41-2.32-5.26-4.67-9.85-4.67Z"/></svg>