<?xml version="1.0" encoding="UTF-8"?><svg id="Layer_1" xmlns="http://www.w3.org/2000/svg" viewBox="0 0 936 224.6"><defs><style>.cls-1,.cls-2,.cls-3{fill:#fff;}.cls-2{isolation:isolate;}.cls-2,.cls-3{opacity:.5;}</style></defs><path class="cls-2" d="M450.15,39.9c-6.4,0-11.9,5.5-11.9,11.9s5.5,11.9,11.9,11.9,11.9-5.5,11.9-11.9c0-6.8-5.1-11.9-11.9-11.9"/><path class="cls-1" d="M462.05,90.4c0,6.4-5.5,11.9-11.9,11.9s-11.9-5.5-11.9-11.9,5.5-11.9,11.9-11.9c6.8,.1,11.9,5.1,11.9,11.9M95.35,182.6c-13.6,5.9-25,8.5-39.5,8.5-31.4,0-54.8-22.1-54.8-52.2s23.8-53.6,55.6-53.6c12.3,0,20.8,2.1,36.9,8.9v14.9c-12.2-6.8-24.6-10.2-36.9-10.2-22.5,0-39.9,17-39.9,39.5s17.4,39.1,41.6,39.1c8.1,0,15.3-1.7,22.5-4.2v-21.2h-19.9v-13.2h34.8v43.7h-.4Zm26.3-60.7v15.7h.4c6.8-11.9,13.2-17,19.5-17,5.5,0,10.6,2.5,16.1,8.1l-7.2,11.5c-4.2-3.8-9.3-6.8-12.7-6.8-9.3,0-16.6,9.3-16.6,20.8v35.7h-13.6V122h14.1v-.1h0Zm95.5,48.3c-8.1,5.1-15.7,8.1-23.8,8.1-13.2,0-20.8-6.8-22.9-20.4h48c0-25-11.5-37.4-29.7-37.4s-31.8,14-31.8,34.4c0,18.7,11.9,36.1,33.1,36.1,11.5,0,19.1-2.5,27.2-8.1l-.1-12.7h0Zm-46.3-21.2c1.7-10.6,8.1-17,18.3-17,9.3,0,15.3,6.4,15.7,17h-34Zm114.6,21.2c-8.1,5.1-15.7,8.1-23.8,8.1-13.2,0-20.8-6.8-22.9-20.4h48c0-25-11.5-37.4-29.7-37.4s-31.8,14-31.8,34.4c0,18.7,11.9,36.1,33.1,36.1,11.5,0,19.1-2.5,27.2-8.1l-.1-12.7h0Zm-46.2-21.2c1.7-10.6,8.1-17,18.3-17,9.3,0,15.3,6.4,15.7,17h-34Zm71.3-18.2h0c5.5-6.4,13.2-10.2,20.4-10.2,12.7,0,23.3,8.9,23.3,27.6v41.6h-13.6v-42c0-10.2-5.1-16.6-13.2-16.6-5.9,0-10.6,2.5-17,9.8v48.8h-13.5V121.9h13.6v8.9h0Zm75.1,45.8h46.7v13.2h-61.5V86.6h14.8v90Zm58.2-54.7h13.6v67.9h-13.6V121.9Zm71.7,82.3c0,6.4-6.8,9.8-18.7,9.8s-19.1-3.8-19.1-10.6c0-5.9,6.4-10.2,15.3-10.2s22.5,2.1,22.5,11m13.2-82.3h-28c-18.3,0-29.7,8.9-29.7,23.3,0,5.1,1.3,9.3,3.8,12.7,2.5,3.8,6.4,6.4,11.5,8.5v.4c-6.4,1.7-10.6,5.1-10.6,9.8,0,3,2.1,5.9,6.8,8.5-11.9,3-17,8.9-17,18.7,0,11.9,13.2,20.8,31.4,20.8,20,0,32.3-8.1,32.3-21.6,0-8.5-5.1-16.1-19.5-19.1-13.6-2.5-20.8-5.1-20.8-8.9,0-8.1,18.7-3,27.6-12.7,3.4-3,6.4-9.8,6.4-15.3,0-5.9-1.7-9.3-7.2-14.9h14v-10.2h-1Zm-18.7,23.7c0,7.2-5.5,12.7-13.2,12.7-8.1,0-13.6-5.1-13.6-12.3,0-6.8,5.9-12.3,13.6-12.3,7.2-.4,13.2,5.1,13.2,11.9m42.4-14.8h0c5.5-6.4,13.2-10.2,20.4-10.2,13.2,0,23.3,8.9,23.3,27.6v41.6h-13.6v-42c0-10.2-5.1-16.6-13.2-16.6-5.9,0-10.6,2.5-17,9.8v48.8h-13.4V86.6h13.6l-.1,44.2h0Zm71.3-8.9h21.6v12.3h-21.6v34.8c0,8.1,5.9,10.2,9.8,10.2,4.7,0,9.8-1.7,15.3-5.1v12.7c-4.7,2.5-11.9,4.7-16.6,4.7-14.9,0-22.1-8.9-22.1-21.2v-36.1h-11.9v-1.7l25.5-24.6v14h0Z"/><path class="cls-3" d="M450.15,0C443.75,0,438.25,5.5,438.25,11.9s5.5,11.9,11.9,11.9,11.9-5.5,11.9-11.9C462.05,5.1,456.95,0,450.15,0m284,99.8h-40.3v28.8h40.3v13.2h-40.3v48h-14.9V86.6h55.2v13.2Zm52.2,90v-8.5c-5.5,5.9-13.6,10.2-20,10.2-13.6,0-23.3-9.8-23.3-27.2v-42.4h13.6v43.3c0,9.3,.8,14.9,10.2,14.9,5.9,0,15.7-3.4,20-9.3v-48.8h13.6v67.9h-14.1v-.1h0Zm37.4-59h0c5.5-6.4,13.2-10.2,20.4-10.2,12.7,0,23.3,8.9,23.3,27.6v41.6h-13.6v-42c0-10.2-5.1-16.6-13.2-16.6-5.9,0-10.6,2.5-17,9.8v48.8h-13.6V121.9h13.6v8.9h.1Zm111.2-44.2h-13.6v36.5c-5.5-2.1-9.8-2.5-14.4-2.5-20,0-34,14-34,34,0,21.6,12.7,35.7,33.1,35.7h28.4V86.6h.5Zm-13.6,91.7h-13.6c-15.7,0-20.8-9.3-20.8-22.1,0-14.4,8.9-23.8,21.6-23.8,4.7,0,8.1,.8,12.7,2.5l.1,43.4h0Z"/></svg>