<?xml version="1.0" encoding="UTF-8"?><svg id="Layer_1" xmlns="http://www.w3.org/2000/svg" xmlns:xlink="http://www.w3.org/1999/xlink" viewBox="0 0 167 56"><defs><style>.cls-1{mask:url(#mask);}.cls-2{opacity:.5;}.cls-2,.cls-3{fill:#fff;fill-rule:evenodd;}</style><mask id="mask" x="45" y="0" width="121.32" height="47.82" maskUnits="userSpaceOnUse"><g id="mask-2"><polygon id="path-1" class="cls-3" points="45 0 166.32 0 166.32 47.82 45 47.82 45 0"/></g></mask></defs><path id="Fill-1" class="cls-2" d="M135.78,32.32v15.26h19.67v-12.48h-8.8v9.51h-7.9v-10.62l12.3-7.04,12.3,7.04v19.04H0v2.97H166.32v-23.68l-15.27-8.73-15.27,8.73Zm13.83,12.3h2.87v-6.54h-2.87v6.54Z"/><g class="cls-1"><path id="Fill-2" class="cls-3" d="M83.88,26.65v20.92h4.55v-12.99c0-1.94,.88-4.21,3.35-4.21,1.45,0,3.17,.75,3.17,4.3v12.9h4.55v-14.03c0-1.58,1.11-3.17,3.23-3.17,1.45,0,3.17,.75,3.17,4.3v12.9h4.55v-14.03c0-4.48-2.27-7.16-6.09-7.16-3.37,0-4.69,2.26-5.1,3.23l-.28,.65-.3-.64c-1-2.12-2.82-3.24-5.28-3.24-3.64,0-5.45,3.28-5.55,3.59v-3.33h-3.98ZM166.32,7.6c-.08-5.16-2.48-7.57-7.54-7.57-5.57,0-8.05,3.34-8.05,10.82s2.33,10.58,8.05,10.58c6.74,0,7.51-4.27,7.51-7.48v-3.32h-7.44v2.7h3.33v.76c0,2.32-1.05,3.35-3.41,3.35-2.86,0-3.44-2.52-3.44-6.6,0-3.55,.42-6.83,3.44-6.83,2.08,0,3.3,1.55,3.4,4.26l4.14-.67Zm-30.03-4.01V.27h-3.98V21.19h4.55V8.2c0-1.94,.88-4.21,3.35-4.21,1.45,0,3.17,.75,3.17,4.3v12.9h4.55V7.16C147.92,2.68,145.65,0,141.84,0s-5.45,3.28-5.55,3.59h0Zm-6.93-3.33h-9.61v3.84h2.53v13.25h-2.53v3.84h9.61v-3.84h-2.5V4.1h2.5V.27Zm-21.77,17.09h-1.27V4.13h1.27c3.55,0,5.85,2.65,5.85,6.75s-2.19,6.47-5.85,6.47h0Zm10.43-6.47c0-6.25-4.2-10.61-10.22-10.61h-6.02V21.19h6.02c6.11,0,10.22-4.14,10.22-10.31h0Zm-24.52,4.17c0,1.59-1.1,3.2-3.56,3.2-2.01,0-3.41-1.32-3.41-3.2s1.37-3.17,3.41-3.17c2.46,0,3.56,1.59,3.56,3.17h0Zm.06,4.06c0,.24,1.06,2.32,3.53,2.32,1.36,0,2.17-.26,2.48-.39v-3.6c-.15,.03-.34,.06-.52,.06-.95,0-1.42-.46-1.42-1.42V6.95C97.62,2.29,95.1,.03,89.9,.03c-6.2,0-7.32,3.62-7.39,5.97l3.91,.69c.15-1.73,1.33-2.68,3.37-2.68,1.5,0,3.29,.63,3.29,3.65v2.58c-.23-.2-1.94-1.61-4.33-1.61-4.69,0-6.83,3.31-6.83,6.38s1.99,6.47,6.35,6.47c3.64,0,5.23-2.29,5.28-2.38h0Zm-24.2-10.56l.03-.34c.18-2.17,.72-4.66,3.32-4.66,2.08,0,3.21,1.57,3.35,4.68v.33h-6.7Zm10.65,2.69C80,4.32,78.78,.03,72.69,.03c-5.55,0-8.02,3.3-8.02,10.7s2.42,10.7,8.08,10.7c6.35,0,7.14-4.68,7.21-6.52l-3.84-.49c-.11,2.03-1.18,3.02-3.25,3.02-2.99,0-3.49-2.81-3.59-5.84v-.33h10.72v-.04ZM45,.27V21.19h4.55V12.71h7.66v8.48h4.55V.27h-4.55V8.87h-7.66V.27h-4.55ZM124.63,34.6l.02,.33h-6.72l.03-.34c.18-2.17,.72-4.66,3.32-4.66,2.08,0,3.21,1.57,3.35,4.68h0Zm-11.37,2.51c0,7.5,2.42,10.7,8.08,10.7,6.35,0,7.15-4.68,7.21-6.52l-3.84-.49c-.11,2.03-1.18,3.03-3.25,3.03-2.99,0-3.49-2.81-3.59-5.84v-.33h10.72v-.04c0-6.92-1.22-11.2-7.31-11.2-5.55,0-8.02,3.3-8.02,10.7h0Zm-40.44,6.72c-2.47,0-3.53-1.97-3.53-6.6,0-3.38,.42-6.83,3.53-6.83s3.53,3.65,3.53,6.83c0,4.62-1.06,6.6-3.53,6.6h0Zm8.14-6.6c0-7.48-2.51-10.82-8.14-10.82s-8.14,3.34-8.14,10.82,2.43,10.58,8.14,10.58,8.14-3.17,8.14-10.58h0Zm-31.4-10.58v8.6h7.66v-8.6h4.55v20.92h-4.55v-8.48h-7.66v8.48h-4.55V26.65h4.55Z"/></g></svg>