<?xml version="1.0" encoding="UTF-8"?><svg id="Layer_1" xmlns="http://www.w3.org/2000/svg" viewBox="0 0 210.87 165.1"><defs><style>.cls-1,.cls-2,.cls-3{fill:#fff;}.cls-2{opacity:.5;}.cls-3{opacity:.3;}</style></defs><path class="cls-3" d="M89.14,60.32c-5.46,.09-10.92,.17-16.38,.28-7.38,.15-14.76,.31-22.15,.47-.2,0-.39-.03-.81-.07,.12-1.73,.17-3.43,.35-5.12,.7-6.41,1.65-12.78,3.15-19.07,1.44-6.06,4.44-11.2,8.57-15.78,4.89-5.42,10.21-10.32,16.48-14.13,4.32-2.63,9.12-3.89,13.97-5.02,6.61-1.55,13.31-2.18,20.07-1.73,9.58,.63,18.22,3.81,25.72,9.94,5.17,4.23,10.14,8.63,13.89,14.23,4.57,6.83,7.42,14.26,8.07,22.49,.22,2.71,.44,5.43,.62,8.15,.05,.71-.06,1.44-.13,2.16-.17,1.75-.18,1.73-1.98,1.75-6.02,.09-12.04,.17-18.06,.3-5.17,.11-10.35,.27-15.52,.42-.21-4.48-.43-8.96-.62-13.43,0-.23,.19-.47,.29-.7,.13-.32,.39-.65,.36-.95-.15-1.72-.39-3.42-.58-5.14-.21-1.93-.4-3.87-.64-6.15,2.28,2.69,4.33,5.11,6.43,7.59l2.46-2.61c-3.41-3.75-6.75-7.44-10.16-11.19-.01,.02,.13-.17,.28-.35,1.94-2.28,3.16-4.8,2.18-7.84-.92-2.82-2.31-5.24-5.8-5.37-.23,0-.44-.45-.89-.94-1.66,1.14-3.49,2.33-5.24,3.65-.42,.32-.73,1-.79,1.55-.37,3.55-.3,7,3.19,9.59-3.18,3.08-6.28,6.07-9.44,9.13l3.2,2.67,4.52-4.91c-.22,2.66-.56,5.03-.55,7.4,0,1.62-1.19,3.39,.38,4.91,.09,.08,.04,.31,.04,.47-.1,4.29-.2,8.58-.3,12.86-4.37,.09-8.73,.19-13.1,.28-.14-3.38-.27-6.76-.42-10.26h4.55c-.23-2.31-.32-4.5-1.5-6.48-1.11-1.86-2.14-3.76-3.11-5.69-.3-.59-.3-1.33-.44-2l.38-.1,4.52,4.73,2.23-1.9c-1.07-1.48-1.96-2.94-3.07-4.19-1.81-2.05-3.18-4.56-5.9-5.79l1.67-.94-.11,.33,3.64,2.2,.3-.31c-.12-.86-.2-1.73-.36-2.58-.37-1.94-.38-1.94-2.36-2.01-.05,0-.1-.08-.15-.12,1.56-4.82,.28-6.01-1.94-7.72-1.74-1.34-6.18-1.92-7.61-.61-2.26,2.06-4.16,4.48-2.66,7.86-2.15,1.23-2.85,2.94-1.92,4.95,.92-.58,1.8-1.18,2.72-1.71,.34-.2,.81-.44,1.13-.35,.76,.23,1.47,.64,2.14,.96-.89,.39-1.99,.55-2.56,1.18-2.79,3.15-5.44,6.43-8.22,9.76l3.22,2.1c1.73-2.08,3.39-4.08,5.05-6.08l.43,.22c-.29,1-.47,2.05-.89,3-1.18,2.63-2.54,5.18-3.68,7.82-.43,1.01-.43,2.2-.64,3.45h4.47v10.53Z"/><path class="cls-2" d="M0,75.54v-5.55c2.21,0,4.36,.02,6.52,0,10.72-.1,21.44-.2,32.16-.32,6.54-.07,13.09-.16,19.63-.24,6.42-.08,12.85-.16,19.27-.24,6.46-.08,12.93-.16,19.39-.24,6.42-.08,12.85-.16,19.27-.24,6.46-.08,12.93-.16,19.39-.24,6.5-.08,13.01-.16,19.51-.24,6.46-.08,12.93-.16,19.39-.24,6.38-.08,12.77-.16,19.15-.24,5.26-.07,10.52-.16,15.78-.24,.43,0,.86,0,1.32,0v6.51c-.39,.03-.7,.07-1.01,.07-10.92,.08-21.85,.17-32.77,.24-13.82,.09-27.63,.16-41.45,.24-11.49,.07-22.97,.16-34.46,.24-11.49,.08-22.97,.16-34.46,.24-11.65,.08-23.29,.16-34.94,.24-10.08,.07-20.16,.16-30.24,.24-.44,0-.88,0-1.46,0Z"/><path class="cls-1" d="M89.14,60.32v-10.53h-4.47c.22-1.25,.21-2.44,.64-3.45,1.13-2.65,2.49-5.2,3.68-7.82,.42-.94,.6-1.99,.89-3l-.43-.22c-1.66,2-3.32,3.99-5.05,6.08l-3.22-2.1c2.78-3.33,5.43-6.6,8.22-9.76,.56-.63,1.66-.79,2.56-1.18-.67-.31-1.38-.73-2.14-.96-.32-.09-.79,.15-1.13,.35-.92,.54-1.8,1.13-2.72,1.71-.93-2.01-.23-3.72,1.92-4.95-1.49-3.38,.4-5.8,2.66-7.86,1.43-1.31,5.87-.73,7.61,.61,2.21,1.71,3.49,2.9,1.94,7.72,.05,.04,.1,.12,.15,.12,1.98,.07,1.99,.07,2.36,2.01,.16,.85,.24,1.72,.36,2.58l-.3,.31-3.64-2.2,.11-.33-1.67,.94c2.72,1.23,4.09,3.74,5.9,5.79,1.11,1.26,1.99,2.71,3.07,4.19l-2.23,1.9-4.52-4.73-.38,.1c.14,.67,.14,1.41,.44,2,.97,1.93,2,3.84,3.11,5.69,1.18,1.98,1.27,4.17,1.5,6.48h-4.55c.14,3.5,.28,6.88,.42,10.26,0,.79,0,1.59,0,2.47h-5.04v-12.65h-.75v12.66h-5.3v-2.23Z"/><path class="cls-1" d="M113.33,59.79c.1-4.29,.2-8.58,.3-12.86,0-.16,.05-.39-.04-.47-1.57-1.52-.38-3.29-.38-4.91,0-2.37,.34-4.75,.55-7.4l-4.52,4.91-3.2-2.67c3.16-3.06,6.26-6.05,9.44-9.13-3.48-2.58-3.56-6.03-3.19-9.59,.06-.55,.37-1.24,.79-1.55,1.75-1.31,3.58-2.51,5.24-3.65,.46,.5,.67,.93,.89,.94,3.48,.14,4.88,2.55,5.8,5.37,.99,3.04-.24,5.56-2.18,7.84-.15,.18-.29,.37-.28,.35,3.41,3.75,6.75,7.44,10.16,11.19l-2.46,2.61c-2.1-2.48-4.15-4.9-6.43-7.59,.24,2.28,.43,4.22,.64,6.15,.19,1.71,.42,3.42,.58,5.14,.03,.3-.23,.63-.36,.95-.1,.24-.3,.47-.29,.7,.19,4.48,.41,8.96,.62,13.43,0,.8,0,1.59,0,2.53l-5.55,.48v-2.96c0-4.28,0-8.56,0-12.84-.44,.18-.8,.51-.8,.84-.04,4-.03,8.01-.03,12.01v2.68h-5.3v-2.52Z"/><path class="cls-1" d="M114.63,115.22c.82,3.58,1.69,7.38,2.57,11.18h.43c.54-2.23,1.05-4.46,1.64-6.68,.37-1.39,.86-2.74,1.35-4.1,.09-.24,.42-.54,.64-.54,2.35-.04,4.71-.02,7.08-.02,.42,6.97,.84,14.11,1.28,21.36-2.18-.11-4.2-.21-6.45-.33v-8.96l-.44-.08c-.41,1.13-.87,2.24-1.23,3.38-.54,1.72-1.04,3.45-1.51,5.19-.19,.73-.57,.99-1.29,.86-.23-.04-.48-.02-.72-.03-3.38-.1-4.12-.79-4.77-4.2-.29-1.49-.72-2.94-1.11-4.41-.06-.24-.2-.47-.35-.82-.35,3.22-.69,6.26-1.03,9.39-1.85,.23-3.59,.44-5.52,.68,.08-.73,.16-1.34,.21-1.96,.2-2.48,.44-4.95,.58-7.43,.22-3.83,.37-7.67,.52-11.5,.03-.69,.24-1.01,.99-.99,2.32,.03,4.64,.01,7.11,.01Z"/><path class="cls-1" d="M154.36,98.07v-10.4h5.47c-.27,7.1-.53,14.05-.79,21.16h-4.45c-2.2-3.86-4.47-7.85-6.74-11.83l-.31,.06v11.62h-5.78c.14-7.12,.28-14.11,.42-21.27,2.03,.14,3.93,.24,5.83,.42,.28,.03,.6,.4,.77,.68,1.69,2.85,3.35,5.73,5.02,8.59,.18,.3,.35,.6,.57,.98Z"/><path class="cls-1" d="M32.97,86.33h5.82v7.57l6.12,.34v-7.69h6.13l-.61,21.12h-6.15v-8.58h-5.73l-.38,8.23-5.86,.43c.22-7.16,.44-14.25,.66-21.43Z"/><path class="cls-1" d="M162.17,153.04v11.86c-1.87-.08-3.58-.16-5.45-.24,.15-7.04,.31-14.03,.46-21.21,1.89,.13,3.71,.21,5.52,.4,.29,.03,.6,.48,.79,.8,1.67,2.78,3.31,5.58,4.97,8.37,.19,.32,.39,.65,.8,.91v-10.17c1.75,0,3.36-.02,4.98,.03,.14,0,.38,.4,.37,.61-.3,6.8-.63,13.59-.95,20.47-1.19,.06-2.42,.18-3.65,.13-.39-.02-.89-.44-1.1-.82-1.98-3.43-3.9-6.89-5.85-10.34-.17-.3-.38-.59-.57-.88l-.33,.08Z"/><path class="cls-1" d="M101.5,164.85v-20.79c2.39-.39,4.46-.9,6.66-.46,1.71,.34,3.52,.25,5.22,.64,3.6,.83,5.52,3.36,5.87,6.89,.23,2.36,.4,4.93-.3,7.13-.98,3.07-2.7,6.19-6.46,6.52-3.69,.32-7.42,.07-10.99,.07Zm5.97-16.04v11.27c.7,0,1.29-.03,1.88,0,1.53,.11,2.66-.61,3.08-1.98,.54-1.73,.85-3.55,1.09-5.35,.13-.96-1.62-3.4-2.37-3.53-1.13-.19-2.28-.27-3.68-.42Z"/><path class="cls-1" d="M56.63,142.99c1.87,.09,3.66,.15,5.45,.3,.23,.02,.57,.57,.58,.89,.05,2.16,.03,4.32,.03,6.69,1.78,.16,3.71,.34,5.78,.53l.45-7.78c1.96,.1,3.87,.2,5.8,.3-.42,7.05-.83,14.03-1.25,21.18-1.82-.1-3.83-.21-6.04-.32,.14-2.92,.28-5.71,.43-8.65h-6.01c0,1.29,.05,2.73-.02,4.15-.05,1.12-.22,2.23-.41,3.34-.05,.26-.4,.66-.63,.67-1.71,.06-3.42,.03-5.21,.03,.2-3.05,.5-6.12,.58-9.19,.1-3.78,.96-7.54,.49-11.34-.03-.23,0-.46,0-.79Z"/><path class="cls-1" d="M75.53,122.98v-7.75h5.87c-.13,7.09-.27,14.08-.4,21.18-1.65,0-3.48,.03-5.31-.04-.22,0-.61-.58-.61-.9-.02-2.28,.03-4.56,.07-6.84,0-.27,0-.54,0-.83h-6.1v8.32c-2.06,.16-3.92,.3-5.93,.46,.15-7.19,.29-14.29,.44-21.5,1.58,0,3.41-.04,5.24,.05,.22,.01,.58,.67,.59,1.03,.06,2.12,.03,4.24,.03,6.51,2.04,.11,3.97,.21,6.12,.33Z"/><path class="cls-1" d="M48.57,127.51c1.72,2.92,3.37,5.72,5.07,8.6-2.19,.18-4.49,.38-6.79,.53-.19,.01-.5-.35-.61-.6-1.02-2.3-2.01-4.61-3.03-6.92-.12-.26-.34-.48-.71-.99v8.66l-5.62-.64v-21.03c2.59,0,4.91-.04,7.22,.02,1.38,.03,2.82,0,4.11,.4,2.83,.85,3.98,3.38,4.01,6.29,.03,2.73-1.46,4.14-3.65,5.69Zm-5.98-3.81c1.33,.44,2.56,.39,3.27-.79,.31-.52,.29-1.6-.06-2.07-.73-.99-1.99-.9-3.21-.95v3.82Z"/><path class="cls-1" d="M131.33,108.34c-1.8-.31-3.77-.49-5.64-1.01-.96-.27-1.91-.99-2.61-1.74-1.72-1.88-3.15-4.05-3.58-6.56-.39-2.28,.15-4.56,1.08-6.76,1.1-2.58,2.98-4.05,5.5-5.14,2.47-1.07,4.9-.9,7.4-.56,.26,.04,.54,.15,.75,.31,2.84,2.21,4.82,4.87,5.41,8.59,.44,2.83,.07,5.41-1.13,7.91-.37,.78-1.12,1.47-1.85,1.99-1.36,.98-2.83,1.81-4.27,2.67-.26,.16-.6,.18-1.06,.3Zm-1.95-5.16c3.51-.08,5.25-2.43,4.35-5.6-.25-.88-.52-1.78-.64-2.68-.22-1.7-1.19-2.72-2.71-3.35-1.85-.76-4.46,.48-4.57,2.41-.15,2.55-.06,5.12,1.02,7.54,.54,1.21,1.24,2.1,2.56,1.68Z"/><path class="cls-1" d="M53,96.8c-.46-2.58,.91-5.02,2.46-7.4,.13-.2,.29-.4,.49-.52,.82-.5,1.66-.97,2.48-1.46,4.02-2.38,7.72-1.19,11.33,1.02,.07,.04,.16,.06,.21,.12,2.07,2.83,3.56,5.9,3.29,9.5-.22,2.97-1.78,5.41-3.78,7.46-.92,.94-2.35,1.51-3.65,1.92-2.79,.87-5.61,.68-8.32-.45-.35-.15-.73-.36-.97-.65-2.4-2.97-3.77-4.91-3.55-9.54Zm13.87-.14h-.03c.02-.4,.06-.8,.07-1.2,.09-2.59-.85-3.7-3.03-4.28-2.46-.65-5.25,2.07-4.83,4.39,.19,1.06,.23,2.16,.19,3.23-.08,1.78,.76,2.97,2.18,3.85,2.11,1.3,4.78,.03,5.07-2.4,.14-1.19,.26-2.39,.38-3.58Z"/><path class="cls-1" d="M127.23,156.56v8.31c-2-.26-3.82-.5-5.91-.77,.19-6.93,.38-13.85,.57-20.9,2.9,0,5.54,.06,8.17-.02,1.28-.04,2.43,.18,3.58,.76,2.23,1.13,3.49,3.45,3.12,5.91-.02,.16-.08,.33-.05,.48,.36,2.11-.89,3.39-2.43,4.42-.87,.58-.91,1.13-.45,1.96,1.4,2.5,2.75,5.02,4.16,7.6-1.29,.1-2.81,.24-4.33,.33-2.52,.15-2.54,.15-3.51-2.12-.76-1.8-1.47-3.63-2.22-5.43-.09-.22-.29-.39-.44-.58l-.28,.07Zm.25-4.79c1.24,.43,2.48,.46,3.21-.73,.32-.52,.33-1.58,0-2.07-.7-1.06-1.97-.93-3.21-.96v3.76Z"/><path class="cls-1" d="M87.25,99.17c1.76,2.8,3.51,5.58,5.27,8.4-1.96,.22-4.08,.5-6.22,.67-.33,.03-.85-.37-1.01-.7-1.1-2.22-2.11-4.48-3.17-6.72-.1-.21-.3-.38-.61-.75v8.49l-5.63-.45c-.09-1.3-.23-2.53-.24-3.76-.01-2.85,.08-5.69,.05-8.54-.02-2.16-.19-4.31-.25-6.46-.02-.67,.14-1.35,.23-2.12,2.7-.14,5.37-.24,8.03-.43,3.19-.23,5.44,1.1,6.63,4.01,.36,.9,.1,2.03,.26,3.03,.29,1.84-.64,3.03-1.94,4.08-.4,.32-.78,.68-1.41,1.24Zm-5.98-3.7c1.34,.45,2.53,.35,3.23-.73,.33-.51,.34-1.55,.03-2.08-.7-1.18-2.06-.84-3.26-1.03v3.83Z"/><path class="cls-1" d="M14.81,126.34c.1-3.83,1.43-6.15,3.28-8.3,1.8-2.1,4.04-2.82,6.72-3.1,2.42-.25,4.13,.77,6.08,1.87,2.55,1.44,3.89,3.49,4.31,6.23,.18,1.16,.03,2.38-.06,3.57-.24,3.04-1.31,5.55-3.96,7.43-1.71,1.21-3.41,2.13-5.46,2.52-1.16,.22-2.19,.21-3.25-.32-.79-.39-1.64-.64-2.44-1.02-1.65-.79-3.18-1.74-3.74-3.64-.6-2.02-1.15-4.05-1.48-5.24Zm6.38,.97l.21,.04c0,.72,.03,1.44,0,2.16-.05,.93,.4,1.41,1.26,1.61,.35,.08,.7,.18,1.04,.28,2.53,.75,5.09-1.1,5.18-3.74,.03-1,.04-2.01,.2-2.99,.27-1.69-.16-3.03-1.49-4.17-1.89-1.62-4.86-.87-5.44,1.53-.42,1.73-.64,3.51-.95,5.27Z"/><path class="cls-1" d="M93.37,114.96c2.33-.16,4.48,.31,6.39,1.68,.47,.34,.91,.76,1.26,1.23,2.34,3.08,2.7,6.59,2.07,10.26-.16,.91-.43,1.88-.94,2.64-1.2,1.8-2.08,3.94-4.45,4.64-2.41,.71-4.75,1.26-7.38,.79-3.25-.58-4.59-2.85-5.99-5.3-1.09-1.91-.68-3.98-.73-6-.04-1.43-.27-2.92,.66-4.18,1.6-2.19,3.18-4.47,5.91-5.37,1-.33,2.13-.27,3.2-.39Zm3.93,10.25c-.07-3.78-.29-5.32-3.37-5.67-2.1-.24-4.85,2.17-4.49,4.35,.19,1.14,.26,2.32,.23,3.47-.04,1.73,.81,2.87,2.19,3.73,2.13,1.33,4.77,.08,5.06-2.39,.15-1.23,.27-2.47,.38-3.5Z"/><path class="cls-1" d="M154.04,143.57v5.03h-7.25v3.1h6.2v5h-6.35v3.17h7.41v5.11h-13.86c.19-7.3,.37-14.44,.55-21.42h13.28Z"/><path class="cls-1" d="M145.24,115.14v5.02h-7.48v3h6.21v5.04h-6.22v3.13h7.68v5.18h-13.62v-21.37h13.43Z"/><path class="cls-1" d="M162.91,136.48v-21.34h13.16v4.97h-7.23v3.07h6.22v5.02h-6.24v3.12h7.49v5.16h-13.4Z"/><path class="cls-1" d="M178.54,88.44c-.56,1.92-1.09,3.72-1.66,5.66-.71-.42-1.35-.78-1.98-1.17-1.36-.86-2.86-1.02-4.39-.78-.37,.06-.94,.53-.95,.82,0,.4,.34,1.02,.7,1.17,1.4,.59,2.86,1.03,4.29,1.54,2.97,1.06,3.89,2.72,3.83,6.02-.08,4.16-1.81,5.71-5.91,6.67-3.33,.78-6.22-.4-9.4-1.36,.6-1.78,1.19-3.53,1.76-5.22,1.8,.63,3.46,1.3,5.18,1.77,1.71,.47,2.29,.08,3.15-1.88-1.95-.95-3.9-1.95-5.89-2.83-1.33-.58-2.59-1.22-3.06-2.66-.27-.83-.36-1.76-.29-2.63,.27-3.59,2.48-5.38,5.77-6.51,2.73-.94,5.08,.43,7.57,.99,.39,.09,.76,.23,1.28,.4Z"/><path class="cls-1" d="M178.87,134.84c.59-1.82,1.16-3.56,1.71-5.24,1.81,.6,3.55,1.29,5.34,1.75,1.63,.42,2.27-.07,2.89-1.85-.46-.26-.93-.56-1.42-.79-1.7-.81-3.39-1.65-5.13-2.37-2.72-1.13-3.75-4.52-1.88-6.96,.54-.7,1.04-1.43,1.46-2.21,.75-1.41,2.06-1.93,3.46-2.36,1.66-.51,3.27-.45,4.92,.17,1.23,.46,2.53,.72,3.92,1.11l-1.59,5.69c-.72-.42-1.38-.78-2.02-1.17-1.38-.84-2.88-.96-4.41-.72-.36,.06-.91,.57-.9,.86,0,.4,.38,1,.74,1.15,1.37,.56,2.78,1.02,4.2,1.43,2.82,.81,3.85,2.95,4.07,5.58,.31,3.8-1.92,6.23-5.61,7.15-3.45,.86-6.47-.27-9.75-1.22Z"/><path class="cls-1" d="M102.06,108.36c0-1.32-.09-2.68,.04-4.02,.05-.52,.55-1.02,.9-1.5,2.48-3.4,4.97-6.79,7.45-10.19,.16-.22,.26-.47,.46-.85h-7.77v-5.2c2.48,.2,4.98,.49,7.48,.59,2.47,.1,4.95,.02,7.58,.02-.35,1.96-.3,3.91-1.62,5.72-2.43,3.33-4.59,6.85-6.86,10.3-.06,.09-.06,.21-.13,.48h8.07l-.36,4.66h-15.25Z"/><path class="cls-1" d="M205.52,129.61c-2-.95-3.92-1.92-5.9-2.76-1.28-.55-2.36-1.18-3.12-2.45-.64-1.07-.43-2.07-.32-3.12,.37-3.45,2.56-5.16,5.65-6.24,3.18-1.11,5.89,.7,8.92,1.22l-1.6,5.64c-1.19-.57-2.28-1.16-3.42-1.62-1.13-.46-2.27-.45-3.27,.39-.25,.21-.45,.49-.67,.74,.31,.27,.57,.66,.93,.8,1.31,.49,2.67,.86,3.98,1.34,2,.73,3.95,3.63,4.14,5.74,.38,4-2.68,6.56-5.79,6.99-4.01,.56-4.71,.53-9.38-1.19,1.25-1.3,2.51-2.63,3.81-3.91,.17-.16,.58-.17,.85-.12,.67,.13,1.31,.36,1.98,.5,1.74,.36,2.31,.05,3.2-1.93Z"/><path class="cls-1" d="M52.03,157.82l1.77,4.75c-1.11,.5-2.18,1.17-3.34,1.45-2.39,.57-4.82,.73-7.26,.16-3.18-.74-5.33-2.65-6.39-5.69-1.11-3.2-1.26-6.55,.18-9.61,2.07-4.4,4.36-6.32,9.02-6.32,2.7,0,5.49,.58,8.03,2.15l-1.65,5.01c-.48-.28-.94-.49-1.34-.78-1.55-1.15-3.26-1.4-5.13-1.04-1.51,.29-2.98,1.62-3.23,3.12-.32,1.85-.79,3.67-.13,5.57,.76,2.17,2.34,3.25,4.59,2.76,1.62-.35,3.18-.98,4.88-1.53Z"/><path class="cls-1" d="M13.23,115.18v4.74l-6.65,.33-.2,3.31h6.03v4.86H6.35v7.8H.14l.63-21.04H13.23Z"/><path class="cls-1" d="M148.15,115.35l5.75-.29v16.21h7.24l-.25,4.95c-4.32,.16-8.58,.31-13.19,.48,.15-7.24,.3-14.26,.45-21.35Z"/><path class="cls-1" d="M86.55,143.42h5.48v16.14h7.13l-.35,5.05h-12.87c-.43-6.94,.09-13.95,.62-21.19Z"/><path class="cls-1" d="M94.83,87.08h5.67c-.24,7.18-.47,14.2-.7,21.24h-6.03c.36-7.19,.71-14.23,1.07-21.24Z"/><path class="cls-1" d="M82.54,164.77c-1.98-.09-3.89-.18-5.97-.28,.35-7.12,.7-14.13,1.05-21.13h5.71c-.26,7.19-.52,14.25-.79,21.41Z"/><path class="cls-1" d="M181.41,152.17c-2.46,0-4.38-1.89-4.36-4.32,.02-2.44,1.93-4.31,4.38-4.3,2.39,.02,4.32,1.92,4.31,4.25-.01,2.47-1.89,4.36-4.33,4.36Zm-.05-.48c2.19,.01,3.88-1.69,3.87-3.87-.01-2.1-1.73-3.84-3.81-3.85-2.13,0-3.88,1.75-3.87,3.92,0,2.14,1.66,3.79,3.81,3.8Z"/><path class="cls-1" d="M118.63,59.64c0-4-.01-8.01,.03-12.01,0-.33,.37-.66,.8-.84,0,4.28,0,8.56,0,12.84-.28,0-.55,.01-.83,.02Z"/><path class="cls-1" d="M94.44,60.23v-10.33h.75v10.22c-.25,.04-.5,.08-.75,.12Z"/><path class="cls-1" d="M179.88,145.12c1.12,.21,2.46-.54,3.12,.92,.41,.89,.05,1.63-.84,2.18l.98,2.29-.32,.25-1.89-2.66-.3,.2c-.1,.79-.19,1.59-.29,2.38l-.45-.07v-5.49Zm.71,.72v1.71c.81,0,1.78,.27,1.8-.86,.02-1.19-.99-.81-1.8-.86Z"/></svg>