<?xml version="1.0" encoding="UTF-8"?><svg id="Layer_1" xmlns="http://www.w3.org/2000/svg" viewBox="0 0 487.21 240.74"><defs><style>.cls-1{fill:#fff;}</style></defs><path class="cls-1" d="M310.63,98.58c-.93,0-1.87,.03-2.8,0-2.76-.09-5.51-.22-8.27-.3-.67-.02-1.27-.1-1.22-.92,.05-.86-.36-1.94,.91-2.31,.42-.12,.87-.14,1.3-.19,4.15-.48,7.17-2.61,8.95-6.37,2.64-5.6,5.22-11.23,7.81-16.86,2.79-6.06,5.59-12.12,8.35-18.2,2.65-5.82,5.28-11.64,7.87-17.49,.35-.8,.79-1.12,1.62-1.07,1.56,.09,3.11,.19,4.67,.22,1.14,.02,1.3,.92,1.59,1.67,1.35,3.46,2.69,6.93,4.01,10.4,2.28,6.02,4.55,12.04,6.82,18.06,3.22,8.52,6.44,17.05,9.65,25.57,1.35,3.58,4,5.57,7.67,6.34,1.73,.36,2.09,.69,2.19,2.04,.09,1.27-.09,1.48-1.38,1.43-3.83-.14-7.67-.33-11.5-.45-6.07-.19-12.15-.35-18.22-.48-.84-.02-1.12-.34-1.12-1.14,0-2.04,.07-2.07,2.11-2.23,1.63-.13,3.26-.37,4.85-.72,1.84-.41,2.41-1.46,1.71-3.2-1.32-3.26-2.71-6.49-4.14-9.7-.14-.32-.73-.63-1.12-.64-6.99-.26-13.98-.46-20.97-.7-1.04-.04-1.61,.35-1.93,1.37-.84,2.66-1.81,5.29-2.64,7.95-.51,1.64-.08,2.81,1.54,3.41,2.08,.77,4.27,1.27,6.44,1.73,1.35,.29,2.26,1.9,1.47,3.04-.16,.23-.61,.38-.93,.37-3.83-.13-7.67-.25-11.5-.48-1.15-.07-1.96,.24-2.53,1.19-3.08,5.14-7.94,7.14-13.61,7.38-4.74,.2-9.46-.27-13.9-2.07-5.94-2.41-10.06-6.56-11.52-12.98-.18-.77-.45-1.1-1.25-1.09-1.36,0-2.72-.07-4.08-.12-.88-.03-1.35,.32-1.3,1.27,.09,1.79,.03,3.6,.27,5.37,.37,2.7,2.25,4.04,4.74,4.6,1.63,.36,3.3,.63,4.96,.84,.92,.12,1.21,.53,1.21,1.41-.02,2.3,0,2.33-2.31,2.26-9.55-.3-19.1-.61-28.65-.92-1.6-.05-3.19-.14-4.79-.23-.23-.01-.64-.1-.64-.18-.07-.9-.18-1.82-.04-2.69,.05-.32,.72-.7,1.15-.78,1.18-.22,2.38-.27,3.57-.42,3.71-.46,5.68-2.4,5.99-6.15,.22-2.67,.23-5.35,.32-8.03,.3-8.87,.61-17.74,.9-26.61,.13-4.03,.26-8.07,.38-12.1,0-.2,0-.4,0-.6-.1-4.25-1.55-6.1-5.66-7.16-1.28-.33-2.57-.6-3.87-.81-.78-.13-1.08-.5-1.13-1.27-.14-2.49-.08-2.56,2.4-2.48,8.03,.26,16.06,.49,24.1,.78,4.31,.16,8.64,.27,12.93,.69,4.37,.42,8.56,1.67,12.34,3.98,3.34,2.04,5.58,5.1,6.84,8.71,3.22,9.21,1.97,18.17-2.43,26.67-2.54,4.9-6.47,8.59-11.53,10.97-.8,.37-1.35,.84-1.05,1.85,1.11,3.69,2.63,7.19,5.49,9.83,3.64,3.37,7.97,4.35,12.66,2.6,2.07-.77,3.97-2.02,5.94-3.06,.16-.08,.25-.28,.37-.42l-.08-.38Zm-40.19-13.54c8.37,.12,14.07-3.47,16.87-11.35,2.75-7.74,2.65-15.68-.44-23.34-1.74-4.32-4.99-7.35-9.8-8.13-2.43-.4-4.91-.49-7.38-.66-1.6-.11-1.77,.1-1.81,1.72-.12,4.92-.24,9.83-.39,14.75-.13,4.27-.32,8.55-.45,12.82-.14,4.38-.24,8.77-.4,13.15-.03,.75,.21,1.04,.92,1.04,.96,0,1.92,0,2.88,0Zm62.87-32.89c-.32,.54-.48,.76-.58,1-.86,1.97-1.71,3.96-2.56,5.93-2.07,4.76-4.15,9.52-6.2,14.29-.52,1.21-.25,1.56,1.03,1.61,4.91,.2,9.83,.41,14.74,.66,1.52,.08,1.7-.14,1.19-1.58-1.66-4.71-3.3-9.43-4.94-14.14-.86-2.47-1.7-4.95-2.67-7.77Zm-127.87,136.57c-.09,.22-.18,.44-.28,.65-.93,1.8-2.43,3.05-4.04,4.18-.7,.49-.73,.91-.02,1.35,2.03,1.25,4.06,2.49,6.1,3.72,.34,.2,.78,.27,1.07,.52,.3,.25,.47,.66,.7,1-.38,.11-.81,.39-1.13,.29-3.41-1.01-6.72-2.24-9.62-4.4-.46-.34-1.29-.51-1.85-.37-4.89,1.25-9.78,.99-14.6-.12-2.58-.59-5.19-1.46-7.5-2.72-4.48-2.44-7.62-6.13-8.83-11.25-.42-1.77-.43-1.77-2.2-1.82-1.2-.04-2.4-.07-3.6-.11-.79-.02-1.18,.35-1.14,1.16,.09,1.95,.07,3.91,.28,5.84,.25,2.21,1.66,3.65,3.73,4.24,2.03,.58,4.13,.96,6.22,1.27,1.08,.16,1.49,.6,1.35,1.64-.04,.32-.09,.64-.08,.96,.02,.96-.48,1.21-1.36,1.17-2.87-.14-5.75-.26-8.63-.35-4.88-.14-9.75-.22-14.63-.38-4.11-.13-8.22-.33-12.34-.48-.68-.02-.9-.32-.88-.97,.1-2.77,.1-2.68,2.83-2.95,1.69-.17,3.41-.47,4.99-1.05,1.95-.72,2.99-2.44,3.19-4.46,.31-3.06,.52-6.13,.61-9.2,.36-11.47,.66-22.94,.96-34.41,.07-2.63,.07-5.27,.04-7.9-.03-2.91-1.76-4.53-4.36-5.32-1.68-.51-3.39-.92-5.12-1.24-.99-.18-1.38-.6-1.32-1.59,.13-2.36-.58-2.4,2.41-2.31,10.03,.31,20.06,.56,30.09,.96,4.38,.18,8.83,.11,13.08,1.41,2.28,.7,4.59,1.46,6.71,2.53,5.07,2.55,7.92,7.04,9.09,12.35,2.26,10.3,.52,19.97-5.84,28.55-2.41,3.25-5.58,5.7-9.22,7.49-1.44,.71-1.57,.9-1.1,2.41,1.34,4.26,3.23,8.19,6.98,10.9,2.21,1.59,4.7,2.34,7.44,2.23,.23,0,.45-.1,.82-.18-.16-.62-.3-1.19-.44-1.76-1.65-6.48,1.64-14,7.6-17,3.67-1.85,7.38-1.11,10.63,.96,2.41,1.54,4.88,2.01,7.57,2.05,7.24,.12,14.47,.18,21.71,.36,1.76,.04,3.22-.36,4.71-1.32,3.62-2.33,7.45-2.69,11.37-.65,2.12,1.1,3.76,2.75,5.02,4.71,1.57,2.45,2.58,5.16,2.67,8.11,.14,4.66-2.14,8.06-5.93,10.42-2.22,1.38-4.69,2.36-7.05,3.51-.25,.12-.54,.21-.81,.2-.25-.01-.68-.16-.69-.28-.03-.26,.08-.67,.28-.79,.7-.45,1.46-.82,2.2-1.21,2.41-1.26,4.36-3.06,6.14-5.09,1.66-1.89,1.83-4.08,1.24-6.31-.92-3.5-2.94-6.25-6.11-8.12-1.53-.9-3.17-1-4.87-.9-.78,.04-.8,.42-.56,1.04,2.03,5.21,4.05,10.43,6.03,15.66,.21,.55,.42,1.52,.16,1.75-.66,.58-1.57,.89-2.42,1.18-.15,.05-.63-.45-.76-.77-1.6-4.18-3.18-8.37-4.7-12.58-.3-.82-.74-1.11-1.57-1.13-10.95-.22-21.91-.45-32.86-.71-1-.02-1.66,.14-1.98,1.23-1.16,3.9-2.41,7.78-3.58,11.69-.45,1.49-.65,1.61-2.04,.81-1.68-.98-1.67-.97-1.08-2.8,.47-1.44,.92-2.89,1.35-4.34,.08-.28,.08-.58,.11-.88l-.37-.26Zm-42.82-15.2v.03c.48,0,.96,0,1.44,0,.4-.01,.8-.04,1.2-.08,5.64-.58,10.06-3.09,13.09-7.99,2.1-3.39,3.05-7.12,3.42-11.01,.54-5.63,.25-11.24-2-16.5-2.03-4.76-5.51-8.03-10.83-8.81-2.4-.35-4.85-.36-7.27-.59-1.11-.11-1.48,.3-1.52,1.39-.29,9.23-.63,18.46-.93,27.7-.16,4.9-.24,9.8-.41,14.69-.03,.94,.33,1.21,1.17,1.18,.88-.03,1.76,0,2.64,0Zm35.31,15.11c0,2.36,.37,2.7,1.73,2.09,4.81-2.18,8.31-5.44,9.21-10.95,.34-2.04-.06-2.52-2.07-2.1-2.21,.46-3.87,1.66-5.39,3.3-2.18,2.34-3.25,5.06-3.48,7.65ZM54.67,120.32c2.63-.17,5.26-.37,7.89-.51,6.26-.34,12.36,.38,18.22,2.74,3.95,1.6,6.75,4.5,8.97,8.01,3.76,5.93,4.48,12.56,4.19,19.37-.17,4.06-.84,8.03-2.29,11.84-2.88,7.56-7.91,13.26-15.04,17.06-4.66,2.49-9.68,3.69-14.95,3.89-2.11,.08-4.23,.25-6.33,.46-.36,.04-.97,.51-.96,.75,.14,2.62-.09,5.28,.96,7.8,.83,2.01,2.23,3.36,4.36,3.72,2.44,.41,4.9,.66,7.37,.88,.97,.09,1.39,.45,1.34,1.4,0,.2,0,.4,0,.6,.05,2.23,.05,2.21-2.28,2.31-7.11,.33-14.21,.65-21.32,1.02-5.86,.31-11.73,.66-17.59,1.03-.96,.06-1.35-.19-1.43-1.21-.22-2.87-.26-2.86,2.56-3.48,1.52-.33,3.06-.6,4.55-1.04,2.66-.79,4.12-2.73,4.44-5.4,.21-1.78,.2-3.6,.11-5.39-.38-8.35-.84-16.69-1.25-25.03-.4-8.14-.74-16.29-1.18-24.43-.09-1.67-.38-3.34-.74-4.97-.64-2.9-2.85-4.14-5.49-4.68-1.95-.4-3.94-.6-5.92-.78-.87-.08-1.28-.3-1.32-1.25-.15-3.21-.18-3.14,3.07-3.3,7.98-.38,15.96-.86,23.94-1.25,2.03-.1,4.07-.01,6.11-.01v-.15Zm-3.25,12.25h.19c.17,2.75,.37,5.51,.51,8.26,.59,11.38,1.16,22.76,1.72,34.14,.04,.83,.31,1.13,1.16,1.06,1.63-.13,3.31,.02,4.9-.31,2.45-.5,5-.96,7.21-2.05,5.48-2.69,8.62-7.4,9.96-13.25,1.81-7.92,1.17-15.75-1.51-23.38-1.67-4.73-4.6-8.51-9.32-10.59-4.51-1.98-9.26-1.34-13.95-1-.31,.02-.82,.64-.83,1-.08,2.03-.04,4.07-.04,6.11Zm381.6-45.18c.28,1.63,.7,3.21-.31,4.71-3.48,5.2-8.11,9.08-13.53,12.13-6.39,3.6-13.18,5.71-20.56,5.63-3.86-.04-7.66-.68-11.31-1.92-5.02-1.7-9.49-4.34-13.26-8.15-3.29-3.33-5.69-7.2-7.3-11.56-1.57-4.27-2.44-8.72-2.39-13.27,.09-8.5,2.84-16.02,8.5-22.47,3.09-3.52,6.73-6.22,10.89-8.28,.86-.43,.97-.78,.53-1.74-.96-2.13-1.96-4.32-2.39-6.59-.66-3.48-.88-7.05-1.25-10.58-.08-.73-.12-1.29-.83-1.82-.4-.3-.51-1.39-.35-2.01,.93-3.44,1.64-6.98,3.98-9.88,1.04-1.29,.92-2.84,.55-4.36-.17-.7-.43-1.39-.48-2.09-.12-1.8,.59-3.17,2.27-4,2.07-1.02,4.13-1.58,6.44-.69,1.48,.57,3.09,.78,4.59,1.28,.69,.23,1.42,.67,1.87,1.22,1.66,2.03,3.66,3.95,4.68,6.28,1.16,2.65,2.1,5.49,2.2,8.53,.18,5.91-1.07,11.47-3.92,16.59-.89,1.6-1.73,3.1-1.99,4.9-.02,.15,0,.31,0,.61,.38,0,.72,.02,1.06,0,5.26-.38,10.34,.53,15.35,2.09,3.63,1.13,6.9,5.25,6.97,9.4,.07,4.12-1.29,7.24-4.61,9.53-3.85,2.66-9.39,2.22-13.03-.95-3.45-3.01-4.5-8.22-2.5-12.4,.89-1.86,.73-2.09-1.36-1.94-.8,.06-1.59,.22-2.39,.23-1.34,.02-2.35,.36-2.89,1.8-.37,1-1.49,1.18-2.42,.43-.89-.71-1.12-.36-1.31,.52-.61,2.81-1.04,5.68-1.92,8.4-.84,2.6-2.14,5.06-3.25,7.57-.13,.29-.31,.55-.46,.83l-.41-.19c-.11-.39-.27-.77-.33-1.16-.21-1.34-.38-2.69-.58-4.04-.04-.27-.06-.68-.24-.78-1.96-1.09-.94-2.94-1.17-4.46-.02-.15,.02-.32,0-.47,0-.07-.06-.14-.18-.42-.32,.35-.62,.61-.82,.93-2.15,3.43-3.06,7.27-3.56,11.22-.64,5.04-.37,10.08,.68,15.03,1.19,5.6,4.28,10.17,8.26,14.19,4.54,4.58,9.96,7.32,16.44,7.64,4.69,.23,9.11-.91,13.28-3.06,5.67-2.93,10.3-7.12,14.35-11.98,.12-.14,.26-.28,.39-.41ZM394.29,13.89c.27-.68,.56-1.23,.72-1.82,.33-1.25,.49-2.56,.91-3.78,.48-1.41,.3-2.67-.44-3.89-.59-.98-1.74-1.31-2.96-.95-1.08,.32-1.23,1.12-1.15,2.07,.02,.24-.01,.48,0,.72,.07,.9-.41,1.06-1.12,.77-.39-.16-.76-.43-1.04-.74-.62-.68-3.68-.99-4.3-.36-.18,.18-.26,.49-.31,.75-.69,3.77,.3,7.1,2.71,10.04,.24,.3,.64,.47,.79,.58,.66-2.05,1.25-3.99,1.9-5.92,.52-1.54,1.52-1.77,2.51-.52,.63,.81,1.05,1.79,1.77,3.06Zm-3.51,31.31c2.32,0,2.35-2.2,3.26-3.48l.28,.11c.22,1.92,.44,3.85,.68,6.01,.31-.3,.7-.5,.77-.77,.54-2.25,1.08-4.5,1.5-6.78,.24-1.3-.76-1.96-2.01-1.6-.58,.16-1.26-.04-1.89-.06-.51-.02-1.01-.03-1.52-.04,0,.58-.03,1.17,.02,1.75,.06,.71,.38,1.47,.22,2.12-.22,.89-.79,1.7-1.31,2.75Zm-2.98-1.66c-.44-1.47,.25-2.5,1.13-3.47,.13-.14,.16-.45,.1-.64-.03-.12-.32-.22-.5-.22-.84,0-2.5,1.96-2.25,2.77,.2,.67,.4,1.47,1.52,1.56Zm42.77,96.63c-1.98,4.2-.67,9.09,3.09,11.72,3.77,2.64,8.94,2.26,12.12-.89,4.46-4.42,3.73-11.52-1.58-14.89-3.99-2.54-8.43-4.07-12.98-5.16-6.31-1.51-12.68-1.56-19.03-.21-4.91,1.04-9.48,2.89-13.34,6.19-2.24,1.91-4.3,4.07-5.19,6.93-2.73,8.7,1.87,18.55,10.18,22.32,6.09,2.76,12.61,4.05,18.96,5.92,4.02,1.18,8.07,2.29,12,3.73,3.99,1.46,6.97,6.52,6.42,10.32-.76,5.25-3.83,8.63-8.82,9.94-5.65,1.49-11.42,1.36-17.08-.12-2-.52-3.89-1.45-5.85-2.12-1-.34-1.04-.83-.52-1.6,1.13-1.7,1.4-3.6,1.37-5.61-.09-5.48-5.8-10.86-13.02-8.14-3.82,1.44-5.92,4.61-5.88,8.81,.03,4,2,6.86,5.6,8.65,3.74,1.86,7.62,3.24,11.71,4.15,7.11,1.59,14.17,2.68,21.49,1.37,6.85-1.23,13.05-3.67,18.3-8.31,7.44-6.56,8.07-18.91-1.38-25.34-3.58-2.44-7.54-4.06-11.6-5.37-5.89-1.9-11.86-3.54-17.78-5.36-3.38-1.04-6.56-2.48-9.32-4.79-3.15-2.65-3.67-8.09-2.31-11.05,1.32-2.88,3.93-4.24,6.66-5.33,4.2-1.67,8.62-1.72,13-1.1,2.28,.32,4.46,1.29,6.8,2.01-.83,1.38-1.52,2.32-2.01,3.35ZM32.63,109.72c10.4,0,20.8,0,31.2,.01,.85,0,1.35-.16,1.43-1.13,.66-7.28,1.36-14.56,2.04-21.85,.11-1.19,.16-2.39,.26-3.59,.07-.8-.22-1.21-1.07-1.18-1,.03-2,.04-3,.02-.74-.02-1.11,.3-1.43,.99-1.89,4.06-3.72,8.15-5.81,12.1-3.16,5.97-8.26,9.1-15,9.38-4.23,.18-8.48,.11-12.72,.16-1.78,.02-1.79,.03-1.79-1.76,0-18.4-.01-36.8,0-55.2,0-2,.07-4,.28-5.99,.21-2.01,1.27-3.6,3.23-4.24,1.61-.53,3.31-.9,4.99-1.08,3.11-.32,2.88,.51,2.91-3.25,0-.86-.34-1.17-1.23-1.16-11.48,.04-22.96,.03-34.44,.05-2.64,0-2.53-.39-2.48,2.52,.03,1.6,.07,1.51,1.71,1.76,2,.3,4,.68,5.93,1.26,2.34,.7,3.24,2.61,3.36,4.89,.11,2.12,.15,4.24,.16,6.35,.01,10.6,.01,21.2,0,31.8-.01,6.04-.05,12.08-.13,18.12-.04,3.17-1.21,4.77-4.18,5.67-1.4,.43-2.88,.71-4.34,.86C0,105.49-.01,105.42,.02,107.98c.02,1.67,.02,1.69,1.65,1.69,10.32,0,20.64,0,30.96,0v.04Zm303.97,19.66c-4.44-.13-8.87-.26-13.31-.4-.8-.03-1.55,.06-1.44,1.08,.09,.89-.69,2.14,1.05,2.44,2,.35,3.99,.83,5.96,1.35,3.36,.88,4.61,2.47,4.53,5.93-.08,3.64-.33,7.27-.42,10.9-.25,9.99-.45,19.98-.67,29.98-.07,3.04-.09,6.08-.24,9.11-.13,2.74-1.47,4.35-4.01,4.81-1.84,.33-3.72,.52-5.59,.63-2.3,.14-2.28,.07-2.28,2.38,0,.8,.25,1.13,1.1,1.16,10.35,.3,20.7,.66,31.05,.93,9.71,.25,19.43,.39,29.14,.64,1.24,.03,1.56-.36,1.63-1.52,.32-5.75,.73-11.49,1.09-17.23,.04-.63,.4-1.4-.61-1.67-1.68-.46-2.48-.25-3.04,.72-1.66,2.82-3.24,5.7-5.05,8.42-2.27,3.41-5.01,6.09-9.55,6.4-5.33,.37-10.62,.33-15.92-.21-2.55-.26-4.7-1.92-5.16-4.03-.32-1.48-.58-3.01-.55-4.51,.12-6.75,.36-13.51,.53-20.26,.02-.74,.27-1.17,1.03-1.13,4.5,.24,9.07-.4,13.5,.74,1.45,.37,2.89,1.17,4.08,2.11,2.23,1.76,2.8,4.49,3.52,7.07,.68,2.45,.64,2.43,3.27,2.61,1.07,.08,1.47-.22,1.49-1.37,.14-7.83,.33-15.67,.54-23.5,.07-2.6,.1-2.54-2.54-2.62-1.24-.04-1.65,.45-2.06,1.57-.76,2.12-1.54,4.33-2.81,6.15-2.01,2.87-5.24,3.47-8.55,3.46-3.16,0-6.32-.13-9.48-.18-1.75-.03-1.86-.11-1.81-1.82,.14-4.64,.3-9.27,.43-13.91,.1-3.68,.17-7.36,.22-11.03,.01-.97,.37-1.34,1.38-1.25,1.63,.15,3.27,.2,4.91,.26,4.36,.14,8.72,.17,13.07,.41,1.81,.1,3.76,.29,5.37,1.03,4.58,2.11,7.42,6,9.38,10.48,.63,1.44,1.32,2.03,2.79,1.87,.32-.03,.64-.01,.96,0,.89,.05,1.23-.26,1.25-1.25,.06-4.63,.2-9.27,.35-13.9,.06-1.72,.12-1.7-1.61-1.73-6.48-.13-12.95-.23-19.42-.41-9.15-.25-18.3-.55-27.45-.84v.14ZM133.03,39.6c-9.19,.29-18.38,.59-27.57,.83-1.12,.03-1.43,.39-1.4,1.48,.17,5.43,.27,10.87,.42,16.3,.01,.36,.16,.84,.42,1.05,.96,.8,3.52,.09,3.96-1.05,1.58-4.16,3.89-7.88,6.97-11.1,1.43-1.5,3.08-2.76,5.22-2.94,3.3-.29,6.62-.45,9.93-.67,.77-.05,.94,.44,.96,1.07,.18,5.07,.39,10.15,.55,15.22,.29,9.35,.57,18.7,.82,28.05,.12,4.32,.25,8.63,.24,12.95,0,2.52-1.17,3.99-3.61,4.57-2.4,.57-4.86,.9-7.3,1.27-1.93,.29-1.9,.25-1.93,2.28-.02,1.06,.36,1.41,1.41,1.34,2.19-.15,4.39-.24,6.59-.3,10.63-.31,21.26-.6,31.89-.9,.86-.02,1.66,.03,1.62-1.3-.06-2.08-.07-2.19-1.64-2.38-2.26-.27-4.52-.54-6.77-.89-3.24-.51-4.67-2.09-4.93-5.34-.09-1.08-.15-2.15-.18-3.23-.22-7.47-.41-14.94-.65-22.42-.31-9.71-.64-19.42-.99-29.13-.04-1.07,.35-1.43,1.37-1.42,3.11,.04,6.23,.05,9.34,.05,1.68,0,3.11,.64,4.41,1.64,4.01,3.11,6.81,7.15,8.9,11.72,.36,.78,.81,1.13,1.65,1.04,.44-.05,.88-.05,1.32-.08,1.01-.08,1.44-.53,1.39-1.64-.23-5.15-.4-10.31-.55-15.46-.05-1.74-.22-1.93-1.94-1.86-5.23,.21-10.46,.45-15.7,.59-8.07,.21-16.15,.35-24.22,.52v.1Zm181.4,89.71c-9.21,.67-18.42,1.35-27.63,2-12,.85-24.01,1.67-36.01,2.48-.87,.06-1.23,.35-1.12,1.25,.18,1.43,.32,2.86,.43,4.3,.29,3.91,.54,7.82,.82,11.72,.04,.57-.08,1.25,.8,1.37,2.12,.3,3.07-.25,3.79-2.29,1.37-3.9,3.41-7.4,6.22-10.43,1.2-1.29,2.54-2.55,4.36-2.8,3.12-.44,6.27-.74,9.41-1.04,1.49-.14,1.61,.02,1.72,1.54,.49,7.06,.99,14.12,1.47,21.18,.39,5.78,.73,11.57,1.14,17.35,.36,5.02,.86,10.03,1.16,15.06,.17,2.91-.86,4.44-3.67,5.28-2.28,.68-4.69,.92-7.03,1.4-.51,.11-1.36,.32-1.41,.61-.17,.87-.17,1.85,.09,2.68,.09,.27,1.21,.33,1.84,.29,9.97-.71,19.93-1.45,29.9-2.18,2.43-.18,4.86-.37,7.29-.6,.36-.03,.87-.18,1.04-.44,.72-1.13-.22-2.78-1.52-2.93-2.73-.32-5.47-.63-8.18-1.11-2-.36-3.03-1.83-3.4-3.75-.16-.82-.26-1.66-.31-2.49-.18-2.83-.29-5.67-.49-8.5-.38-5.22-.81-10.44-1.2-15.66-.39-5.3-.75-10.61-1.12-15.91-.28-3.91-.57-7.81-.86-11.72-.06-.74,0-1.39,.97-1.42,3.11-.1,6.23-.25,9.34-.3,1.5-.02,2.88,.45,4.16,1.32,4.16,2.82,6.96,6.75,9.3,11.09,.26,.49,.8,1.04,1.29,1.13,.66,.12,1.42-.13,2.11-.29,.72-.16,1.02-.57,.9-1.4-.24-1.78-.36-3.58-.5-5.37-.25-3.39-.51-6.78-.7-10.17-.06-1.14-.51-1.56-1.64-1.41-.91,.12-1.84,.1-2.75,.14h0ZM207.09,39.08c-9.28,0-18.55,0-27.83,0-.67,0-.96,.27-.94,.92,0,.44,.02,.88,0,1.32-.04,.71,.32,.93,.99,1.06,1.99,.39,3.99,.78,5.94,1.34,2.69,.76,3.62,2,3.61,4.77,0,6.32-.07,12.64-.12,18.95-.06,6.92-.1,13.83-.2,20.75-.04,2.55-.17,5.11-.32,7.66-.08,1.32-.87,2.25-2.05,2.73-.91,.37-1.89,.63-2.86,.78-1.58,.26-3.18,.35-4.76,.6-1.41,.22-.87,1.39-.95,2.22-.08,.8,.46,.99,1.16,1,4.8,.03,9.59,.07,14.39,.11,7.56,.07,15.11,.14,22.67,.23,6.03,.07,12.07,.14,18.1,.26,1,.02,1.42-.24,1.42-1.33,0-2.08,.16-4.15,.27-6.23,.17-3.35,.33-6.71,.54-10.06,.06-.93-.26-1.26-1.22-1.28-1.25-.03-1.89,.5-2.53,1.55-1.98,3.27-4.06,6.49-6.22,9.65-1.36,1.99-3.41,2.95-5.8,3.18-.8,.08-1.58,.22-2.38,.33-4.72,.61-9.43,.45-14.09-.39-2.06-.37-3.53-1.69-3.84-3.93-.18-1.26-.38-2.53-.4-3.8-.05-2.36,.02-4.72,.06-7.07,.06-3.67,.16-7.35,.21-11.02,.01-1.03,.44-1.4,1.47-1.37,2.52,.08,5.04,0,7.55,.13,2.22,.11,4.49,.07,6.53,1.23,2.93,1.65,3.93,4.52,4.7,7.49,.58,2.23,.52,2.25,2.79,2.44,1.37,.11,1.56-.04,1.59-1.38,.08-3.12,.16-6.24,.2-9.35,.05-4.44,.08-8.88,.06-13.31,0-.38-.4-1.02-.72-1.1-2.44-.56-3.19-.05-3.75,2.38-.02,.08-.02,.16-.05,.24-1.23,3.78-3.19,6.83-7.55,7.43-1.07,.15-2.14,.28-3.22,.29-2.64,.02-5.28-.06-7.92-.04-1.57,.01-1.61,.03-1.6-1.57,.05-7.04,.1-14.08,.13-21.11,.01-2.82,0-2.82,2.74-2.78,.56,0,1.12,0,1.68,0,4.84,.07,9.67,.12,14.51,.22,2.52,.05,4.77,.85,6.69,2.54,2.52,2.23,4.59,4.8,5.92,7.9,.45,1.05,1.04,1.54,2.16,1.42,.36-.04,.72-.05,1.08-.02,1.07,.08,1.31-.4,1.31-1.43,0-4.07,.11-8.15,.22-12.22,.03-1.26-.15-1.55-1.44-1.65-.32-.03-.64-.03-.96-.03-8.99-.14-17.99-.27-26.98-.41v-.21Zm25.06,81.16c-.41-.41-.54-1.42-.37-2.03,.79-2.8,1.75-5.56,2.62-8.34,.36-1.14,.66-2.3,.99-3.45l-.28-.18c-.43,.24-.91,.43-1.29,.74-2.52,2.08-5.03,4.18-7.52,6.31-.56,.48-.99,.69-1.67,.19-1.61-1.18-3.25-2.31-4.9-3.43-.44-.29-.95-.46-1.44-.69l-.26,.22c.16,.5,.3,1.02,.49,1.51,1.25,3.25,2.87,6.37,3,10.03l-1.51,.24c.6,1.13,.63,1.98-.88,2.13-.12,.01-.29,.61-.24,.9,.13,.71,.03,1.19-.79,1.3-.74,.1-.79,.53-.54,1.12,.1,.24,.16,.51,.14,.47-.93,.67-1.83,1.12-2.46,1.82-.52,.56-.74,1.4-1.06,2.14-2.42,5.64-4.13,11.5-5.43,17.49-1.53,7.04-2.81,14.11-2.78,21.36,0,.96,.36,1.25,1.27,1.48,1.65,.41,3.26,1.01,4.86,1.62,.68,.26,1.28,.73,1.99,1.16,.17-.39,.31-.67,.4-.96,1.36-4.38,2.71-8.77,4.08-13.15,1.86-5.95,3.73-11.89,5.59-17.84,.8-2.55,1.58-5.11,2.41-7.65,.09-.27,.38-.46,.58-.69,.21,.25,.48,.47,.61,.75,.19,.39,.24,.84,.4,1.25,1.95,4.98,3.93,9.96,5.87,14.95,3.09,7.97,6.16,15.95,9.23,23.93,.31,.82,.66,1.1,1.47,.44,1.74-1.4,3.67-2.43,5.96-2.56,.77-.04,1.07-.39,.99-1.14-.24-2.22-.34-4.46-.74-6.65-.68-3.77-1.4-7.55-2.38-11.25-1.03-3.86-2.2-7.69-3.65-11.41-1.5-3.86-3.4-7.57-5.15-11.34-.36-.78-.97-1.24-1.9-1.19-.25,.02-.51-.1-.72-.14,0-.65,.21-1.38-.06-1.73-.28-.35-1.03-.31-1.37-.4-.05-.78,.11-1.5-.17-1.83-.32-.36-1.05-.37-1.61-.53q.62-1.54-1.35-2.09c.82-1.19,.43-1.99-.46-2.88ZM470.33,49.89c.34-.26,.64-.59,1.02-.78,1.15-.56,2.33-1.05,3.49-1.59,1.04-.49,1.1-.79,.34-1.68-.18-.21-.37-.42-.55-.64-2.46-3.07-1.37-2.86-5.75-2.17-3.71,.59-5.13,1.56-4.63,6.51,.04,.36,.14,.71,.24,1.05,.72,2.43,.37,4.79-.71,7-2.47,5.06-4.91,10.15-7.58,15.1-4.36,8.09-8.91,16.08-13.32,24.14-1,1.83-2.26,3.4-3.85,4.69-1.52,1.23-3.1,2.39-4.74,3.45-2.87,1.86-4.77,7.44-.55,10.55,1.36,1,2.77,1.38,4.36,.57,1.6-.81,3.21-1.62,4.84-2.38,.41-.19,.88-.23,1.33-.34l.14,.4c-.31,.2-.6,.44-.92,.61-.81,.43-1.63,.86-2.47,1.22-1.04,.46-1.1,1.11-.56,2.01,2.12,3.52,4.7,3.63,8.24,2.16,1.69-.7,1.96-2.41,2.7-3.8,.84-1.59,.73-3.01,0-4.67-1.25-2.83-1.48-5.8,.06-8.66,1.67-3.1,3.35-6.18,5.08-9.25,2.89-5.12,5.84-10.19,8.72-15.31,2.31-4.11,4.52-8.27,6.84-12.37,1.03-1.82,2.32-3.43,4.31-4.37,2.02-.96,4.04-1.96,5.95-3.11,1.6-.96,3.32-2.03,3.83-3.96,.53-2.03,.8-4.15,1.02-6.24,.13-1.26-.69-2.16-1.83-2.54-1.99-.66-4-.66-5.93,.35-2.58,1.36-5.16,2.71-7.76,4.04-.35,.18-.78,.23-1.17,.34l-.18-.34Zm-385.13-4.42c-5.16,0-10.31,0-15.47,0-.73,0-1.27,.15-1.26,1.04,.01,.8-.35,1.67,.96,1.92,1.68,.33,3.34,.79,4.97,1.32,2.04,.67,2.7,1.65,2.7,3.85,0,7.36-.01,14.71-.03,22.07-.01,6.68-.03,13.35-.06,20.03-.01,2.22-.66,3.32-2.77,3.94-1.43,.42-2.98,.47-4.49,.55-1.2,.06-1.43,.71-1.47,1.72-.05,1.07,.54,1.3,1.41,1.31,.72,0,1.44,.04,2.16,.04,7.51,.03,15.03,.06,22.54,.09,1.84,0,3.68,.02,5.52-.02,.8-.02,1.76,.16,1.77-1.18,.01-1.38-.16-1.58-1.59-1.83-1.45-.25-2.9-.56-4.33-.93-1.61-.41-2.43-1.6-2.71-3.17-.12-.67-.14-1.35-.14-2.03-.02-5.67-.04-11.35-.02-17.02,.02-5.71,.07-11.43,.11-17.14,.01-2.28-.03-4.56,.04-6.83,.07-2.27,.98-3.39,3.16-3.92,1.51-.36,3.06-.6,4.6-.84,.66-.1,.99-.34,1.03-1.05,.09-1.6-.15-1.92-1.76-1.92-4.95-.01-9.91,0-14.86,0h0Zm24.2,104.17c-3.39,.16-6.79,.31-10.18,.47-.64,.03-1.34-.05-1.36,.92-.01,.86,.1,1.59,1.18,1.74,.99,.14,1.96,.37,2.95,.54,2.99,.54,3.79,1.41,3.97,4.45,.08,1.28,.13,2.55,.17,3.83,.16,5.75,.31,11.51,.48,17.26,.16,5.55,.35,11.1,.51,16.66,.06,2.06-.81,3.24-2.83,3.7-1.2,.27-2.44,.39-3.68,.51-.73,.07-1.07,.36-1.07,1.12-.01,1.3,.18,1.56,1.5,1.52,7.67-.25,15.33-.53,23-.79,1.52-.05,3.04-.1,4.55-.15,.64-.02,1.27-.08,1.14-.97-.11-.69,.15-1.58-1.05-1.67-1.23-.09-2.46-.29-3.67-.52-1.73-.32-2.94-1.29-3.22-3.1-.19-1.18-.25-2.38-.29-3.58-.17-5.51-.31-11.02-.47-16.53-.18-6.35-.41-12.7-.54-19.05-.04-2.05,.66-2.92,2.63-3.46,1.23-.34,2.49-.61,3.75-.72,1.15-.09,1.26-.72,1.24-1.61-.02-.91-.41-1.28-1.34-1.22-1.99,.12-3.98,.15-5.98,.24-3.79,.16-7.58,.33-11.38,.49v-.1ZM449.61,83.53c1.71-3.16,3.41-6.33,5.06-9.52,.19-.36,.18-.97,.01-1.34-1.18-2.54-2.47-5.02-3.63-7.56-1.77-3.89-3.5-7.79-5.19-11.72-.69-1.6-.93-3.27-.52-5.04,.61-2.65-.11-5.05-1.54-7.3-.56-.87-1.29-1.23-2.32-1.12-2.93,.31-4.81,2.17-6.44,4.35-.42,.56-.32,1.26,.42,1.62,.86,.41,1.75,.75,2.61,1.15,.43,.2,.81,.49,1.22,.74l-.21,.42c-.41-.07-.84-.07-1.21-.23-1.1-.47-2.16-1.02-3.26-1.5-2.43-1.08-5.83-.82-6.39,3.33-.13,.98-.07,2-.01,2.99,.07,1.16,.73,1.91,1.84,2.26,.5,.15,.99,.34,1.5,.41,2.67,.39,4.39,2.01,5.5,4.33,2.81,5.87,5.57,11.77,8.36,17.65,1.07,2.26,2.16,4.52,3.37,7.05,.4-.46,.68-.69,.84-.98ZM109.77,123.41c-.4,.93-.85,1.85-1.18,2.81-.97,2.87-1.85,5.77-2.87,8.62-.26,.72-.91,1.29-1.38,1.94-.53-.55-1.31-1.01-1.55-1.66-.5-1.36-.7-2.84-1.07-4.25-.09-.36-.37-.68-.56-1.02-.08,.35-.24,.69-.24,1.04,.03,2.4,.73,4.55,2.35,6.38,.64,.72,.45,2.55-.36,3.01-.35,.2-1.25,.05-1.52-.26-2.82-3.28-4.03-7.1-3.15-11.36,.65-3.15,2.87-5.25,5.64-6.63,3.5-1.75,7.16-2.01,10.76-.28,2.27,1.09,4.3,2.69,5.26,5.04,.73,1.8,.88,3.82,1.73,5.63,.18,.37-.03,.94-.1,1.41-.1,.7-.27,1.4,.81,1.45,.14,0,.35,.23,.38,.39,.27,1.19,.52,2.39,.76,3.58,.02,.1-.07,.22-.07,.22-1.2,0-2.34,0-3.48,0-.27,0-.62-.07-.8,.06-1.07,.77-1.68,.24-2.22-.67-.18-.31-.46-.58-.58-.91-.53-1.54-1.6-1.79-3.12-1.73-.97,.04-1.97-.62-2.92-1.05-.12-.06-.15-.68,0-.91,1.56-2.65,3.16-5.28,4.74-7.91,.19-.32,.37-.65,.56-.97l-.26-.24c-.29,.26-.68,.46-.87,.78-1.86,3.21-3.73,6.41-5.47,9.69-.31,.59-.09,1.53,.06,2.27,.11,.57,.52,1.07,.77,1.62,.49,1.06,.28,1.68-.66,2.03-1.19,.44-1.89,.13-2.21-.98-.09-.33-.21-.65-.32-1.02-.9,.73-.63,2.36,.39,3.04,.89,.59,2.13,.47,3-.29,.86-.75,1.07-2.01,.53-3.06-.43-.84-.83-1.69-1.24-2.53l.27-.35c.49,.2,1.08,.28,1.44,.61,1.33,1.22,1.64,3.85,.79,5.84-.61,1.44-2.07,2.22-4.06,2.18-2.28-.05-4.1-2.24-3.75-4.6,.1-.7,.28-1.47,.68-2.02,1.39-1.92,2.1-4.1,2.79-6.32,.79-2.56,1.72-5.07,2.58-7.61,.08-.25,.09-.53,.14-.79l-.43-.2Zm6.9,7.94l.21,.13c.06,.51,.03,1.06,.21,1.52,.13,.34,.53,.78,.82,.79,.32,0,.84-.37,.93-.68,.17-.59,.27-1.31,.07-1.86-.22-.64-.8-1.15-1.22-1.72l-1.02,1.81Zm-1.29,1.01c-1.1,.94-2.16,1.84-3.19,2.72,1.36,.35,3.28-1.26,3.19-2.72Zm345.55-37.7c.54,.19,1.09,.35,1.6,.59,3.91,1.8,8.44,1.84,11.1-2.13,1.33-1.97,.98-3.74,.1-5.63-.74-1.59-2.13-1.7-3.64-1.71-2.06-.01-4.19,.22-6.09-.87-1.01-.58-1.57-.26-2.11,.68-1.66,2.91-3.4,5.78-5.08,8.68-.25,.44-.54,1-.47,1.45,.26,1.77,.52,3.56,1.05,5.26,.44,1.42,1.84,1.88,3.18,1.93,1.29,.05,2.41-.44,2.98-1.78,.41-.95,.81-1.93,1.38-2.78,.53-.8,.45-1.14-.44-1.48-1.28-.5-2.52-1.11-3.78-1.68,.07-.18,.13-.36,.2-.55Zm-182.15,131.46h7.39c-.26,.34-.33,.54-.43,.55-1.67,.22-2.36,1.47-3.02,2.79-.34,.68-.7,1.36-1.16,1.95-.6,.76-.46,1.37,.31,1.78,.93,.5,1.92,.89,2.89,1.3,.34,.14,.73,.19,1.09,.28l.02,.35c-.37,.1-.73,.28-1.1,.29-1.28,.03-2.56,.03-3.84,0-.39-.01-.87-.05-1.13-.29-.9-.8-1.71-.63-2.71-.14-1.75,.85-3.61,.97-5.49,.36-1.76-.56-2.71-1.79-2.88-3.6-.18-1.85,.4-3.39,2-4.45,.33-.22,.69-.41,1.06-.56,.87-.34,.97-.88,.63-1.72-.7-1.71-.34-3.53,.79-4.55,1.23-1.1,3.79-1.45,5.2-.71,1.59,.83,1.87,3.11,.47,4.23-.65,.52-1.38,.97-2.15,1.28-.7,.28-.94,.6-.49,1.22,1.05,1.46,2.08,2.94,3.22,4.32,.72,.86,1.38,.65,1.73-.42,.16-.49,.32-1,.35-1.51,.07-1.18-.52-1.85-1.68-2.05-.37-.06-.73-.16-1.1-.24l.03-.45Zm-7.5,3.86c.1,3.1,2.28,4.94,5.24,4.35,1.33-.27,1.47-.63,.67-1.72-1.09-1.47-2.19-2.93-3.24-4.43-.93-1.33-1.62-1.31-2.33,.19-.23,.48-.23,1.07-.34,1.61Zm4.68-9.86c-.27,.18-.94,.44-1.31,.93-.61,.78-.19,2.97,.6,3.56,.2,.15,.66,.21,.86,.08,1.03-.67,1.86-1.53,1.86-2.88,0-1-.68-1.71-2-1.69Zm25.68,14.72c-1.15,.73-6.95,.66-7.64,0,.16-.12,.3-.33,.45-.33,1.58-.07,1.68-1.14,1.67-2.35-.02-3.15-.03-6.31-.01-9.46,0-1.07-.08-2.02-1.46-2.17-.21-.02-.38-.34-.57-.52,.24-.16,.49-.45,.73-.45,3.23,.1,6.46,.12,9.67,.41,2.04,.19,3.36,1.98,3.4,4.03,.04,2.15-1.2,3.9-3.22,4.31-1.4,.28-2.84,.41-4.27,.45-.95,.02-1.31,.38-1.28,1.27,.02,.48,.01,.96,.02,1.44q.02,2.29,2.06,3.12c.11,.04,.21,.11,.45,.24Zm-2.52-10.68h.02c0,.4,0,.8,0,1.19,0,3.04,0,3.05,2.99,2.35,1.21-.28,2.12-.93,2.3-2.26,.21-1.61,.34-3.21-1.13-4.38-.18-.14-.43-.22-.66-.25-.79-.11-1.58-.19-2.37-.28-.83-.09-1.16,.35-1.16,1.12,0,.84,0,1.67,0,2.51Zm-96.86,.69c0-.87-.01-1.96,0-3.05,.02-1.48-1.42-1.38-2.22-1.97v-.39c1.47-.09,2.93-.2,4.39-.21,.14,0,.4,.71,.4,1.1,.02,3.71,0,7.43-.03,11.14,0,1.37-.17,2.79,1.6,3.29,.07,.02,.1,.2,.14,.3-1.3,.78-3.59,.43-4.55-.68-3.41,1.68-5.81,1.57-7.5-.35-1.68-1.9-1.84-5.87-.36-8,.91-1.31,2.21-2.08,3.74-2.03,1.41,.05,2.81,.52,4.38,.84Zm.07,5.27c-.12-1.08-.15-1.97-.33-2.83-.32-1.53-1.51-2.47-2.98-2.46-1.26,0-2.55,1-2.71,2.44-.18,1.61-.18,3.27,0,4.88,.16,1.44,1.35,2.35,2.6,2.39,1.6,.05,2.53-.58,3-2.16,.24-.79,.31-1.63,.42-2.27Zm-61.69-10.25c-2.1-.12-4.21-.49-6.29-.32-1.27,.1-2.67,.76-3.67,1.58-3.08,2.55-3.38,8.93-.73,11.96,2.03,2.33,6.83,3.42,9.89,2.19,.81-.32,1.6-.76,2.28-1.29,.36-.28,.48-.86,.7-1.31-.48,.1-1,.12-1.45,.31-.35,.15-.6,.52-.93,.74-3.16,2.2-6.95,1.16-8.19-2.46-.99-2.86-.92-5.84,.53-8.62,1.02-1.97,2.8-2.67,4.92-2.49,2.07,.17,3.32,1.39,3.92,3.34,.12,.38,.24,.77,.43,1.11,.1,.17,.38,.37,.54,.34,.16-.02,.4-.31,.4-.49,.03-1.54,.02-3.08,.02-4.59-.99,0-1.69,.03-2.39,0Zm271.65,11.49c-.02-.72-.05-1.44,0-2.16,.07-.79,.14-1.6,.38-2.35,.39-1.21,1.56-1.78,3-1.61,1.16,.13,1.83,.82,1.95,2.19,.11,1.23,.15,2.47,.13,3.71-.02,1.44,.49,3.13-1.64,3.71,.92,.64,5.1,.67,6.1,.12-.1-.12-.18-.33-.29-.34-1.33-.23-1.41-1.2-1.4-2.25,0-1.52,.03-3.04-.03-4.56-.09-2.39-1.74-4.02-4.12-3.84-1.32,.1-2.6,.67-3.98,1.06-.02-1.47-1.24-1.1-2.29-1.06-.44,.02-.88,0-1.32,.08-.35,.06-.68,.22-1.19,.4,.36,.31,.52,.56,.71,.59,1.02,.16,1.27,.86,1.29,1.73,.03,2.08,.1,4.16,0,6.23-.02,.5-.6,.98-.96,1.44-.15,.19-.42,.28-.64,.42l.05,.39c1.93,.18,3.87,.08,5.94-.22-2.09-.67-1.65-2.27-1.7-3.66ZM22.63,220.38c1.47,.34,1.77,1.38,1.76,2.71-.04,3.11-.02,6.23-.01,9.35,0,1.12-.3,1.96-1.6,2.09-.21,.02-.41,.27-.9,.6,.67,.15,1.03,.3,1.39,.3,3.59,.02,7.19,.04,10.78-.03,.38,0,1.01-.54,1.08-.91,.26-1.28,.35-2.61,.46-3.92,.02-.21-.17-.59-.33-.64-.21-.05-.54,.1-.71,.27-.18,.18-.24,.49-.36,.75-1.41,3.09-2.41,3.68-5.76,3.49-.72-.04-.98-.36-.97-1.04,.01-3.67,.01-7.35,0-11.02,0-.99,.25-1.72,1.4-1.85,.25-.03,.48-.27,.72-.42l-.08-.35h-7.55c.42,.38,.54,.58,.7,.62Zm203.52,13.08c-.12-2.1-.12-4.22,.12-6.31,.16-1.36,1.45-2.03,2.9-1.92,1.27,.1,2.03,.79,2.22,2.25,.14,1.06,.17,2.15,.13,3.23-.07,1.61,.69,3.57-1.86,4.19,1.07,.65,5.53,.64,6.2,.07-.1-.11-.18-.31-.3-.33-1.29-.26-1.43-1.24-1.43-2.28-.01-1.44,.01-2.88,0-4.31-.01-1.8-.69-3.22-2.5-3.81-1.45-.48-2.9-.5-4.24,.42-.41,.28-.84,.53-1.26,.79-.36-.56-.6-1.34-.92-1.38-1.23-.15-2.49-.06-3.74-.06l-.1,.46c.21,.18,.4,.45,.65,.52,1.09,.33,1.36,1.13,1.34,2.13-.01,1.16,.02,2.32-.03,3.47-.07,1.65,.74,3.65-1.87,4.3,1.1,.63,5.31,.61,6.08,.1-.49-.51-1.36-1-1.39-1.53Zm-58.66,1.74h5.96c-.07-.27-.07-.35-.11-.42-.04-.06-.11-.14-.18-.15-1.37-.21-1.49-1.22-1.5-2.32,0-1.68,.05-3.36-.06-5.03-.11-1.66-1.17-2.9-2.77-3.2-1.46-.28-2.95-.29-4.22,.75-.28,.23-.62,.4-1.18,.75,.17-1.92-.95-1.66-1.96-1.59-.56,.04-1.13,0-1.67,.1-.26,.04-.49,.29-.73,.45,.19,.18,.35,.46,.56,.51,1.06,.28,1.34,1.04,1.34,2,0,1.4,0,2.8,.04,4.2,.04,1.49,.18,3.01-1.71,3.58-.04,.01-.04,.14-.09,.35h6.06l.07-.35c-.29-.14-.63-.24-.87-.44-.31-.27-.78-.62-.78-.94,0-2.14-.06-4.3,.23-6.42,.19-1.39,1.43-1.94,2.95-1.79,1.28,.12,1.86,.66,2.06,2.22,.16,1.3,.19,2.63,.2,3.95,0,1.4,.37,3.02-1.9,3.37l.26,.42Zm-77.54-.83c-1.38,1.45-2.81,1.56-3.86,.37-.55-.62-.95-.4-1.55-.14-1.03,.45-2.12,.98-3.2,1.04-1.52,.08-2.58-1.03-2.8-2.44-.28-1.81,.25-3.04,1.8-3.61,1.11-.4,2.32-.54,3.49-.78,.75-.16,1.65-.05,1.66-1.26,.02-1.53-.45-2.47-1.55-2.78-.27-.07-.55-.11-.83-.11-1.12-.01-1.46,.37-1.21,1.46,.19,.82,.25,1.61-.74,1.82-.51,.11-1.48-.04-1.57-.3-.23-.68-.37-1.65-.04-2.21,1.28-2.19,7.1-1.87,8.18,.41,.3,.62,.39,1.38,.43,2.09,.07,1.43,.04,2.87,.03,4.31,0,1.12,.1,2.12,1.75,2.14Zm-4.44-3.46c-.01-.23,.03-.64-.09-1.01-.07-.23-.44-.56-.59-.53-.92,.23-1.86,.45-2.7,.87-.93,.46-1.17,1.99-.6,2.96,.51,.88,1.6,1.18,2.6,.77,1.35-.55,1.33-1.73,1.38-3.06Zm320.67,3.4c-1.11,1.46-2.7,1.67-3.77,.52-.62-.66-1.03-.56-1.73-.15-.81,.47-1.72,.91-2.63,1-1.66,.17-2.99-.98-3.27-2.53-.31-1.78,.49-3.22,2.21-3.72,.99-.29,2.04-.38,3.05-.6,.78-.17,1.75-.07,1.78-1.32,.03-1.26-.54-2.34-1.56-2.71-.15-.05-.3-.1-.46-.13-1.35-.23-1.77,.16-1.6,1.51,.1,.85,.15,1.64-.95,1.86-1.18,.24-2.14-.75-1.85-1.93,.05-.19,.12-.38,.23-.55,1.04-1.72,3.8-1.86,6.2-1.4,1.76,.34,2.55,1.65,2.55,3.68,0,1.4-.03,2.8,.03,4.2,.05,1.12-.04,2.4,1.77,2.27Zm-4.26-4.88l-.46-.21c-.97,.31-1.97,.57-2.92,.95-1.01,.41-1.24,1.33-1.05,2.3,.18,.94,.82,1.59,1.79,1.68,.97,.08,1.93-.24,2.2-1.26,.29-1.11,.31-2.3,.44-3.45Zm-250.88-5.46c3.91,.11,5.94,2.18,5.86,5.98-.09,3.87-1.92,5.7-6.34,5.75-3.71,.05-5.9-2.44-5.82-6.25,.07-3.44,2.54-5.58,6.31-5.48Zm3.04,5.76c-.17-1.01-.27-2.05-.53-3.05-.3-1.18-1.32-1.92-2.56-2.01-1.2-.08-2.3,.57-2.73,1.74-.84,2.26-.87,4.53,.04,6.78,.51,1.27,1.49,1.85,2.82,1.76,1.21-.08,2.21-.94,2.48-2.24,.21-.97,.31-1.96,.47-2.98Zm-37.02-86.2c-.33-.54-.82-1.04-.97-1.63-.29-1.15-.39-2.35-.58-3.53-.11-.7-.26-1.44-1.22-1.25-.77,.15-1.37,.45-1.35,1.49,.02,1.51-.19,3.02-.27,4.53-.02,.46,0,.96,.14,1.4,.4,1.2,2.1,1.86,3.86,1.65,1.62-.2,3.25-.31,4.88-.45,.6-.05,1.2-.06,1.79-.12,.7-.07,.95-.49,.84-1.17-.17-1.06-.29-2.12-.5-3.17-.06-.28-.38-.72-.58-.72-1.14,.02-2.29,.11-3.43,.26-.66,.09-1.51,.16-1.88,.58-.38,.43-.29,1.28-.41,1.94l-.34,.18Zm-11.99,83.82c1.22,2.38,2.32,4.82,3.46,7.25,.81,1.72-.22,4.49-1.93,5.3-.64,.3-.91,.09-.92-.56,0-.28,.08-.55,.09-.83,.02-.74-.25-1.23-1.09-1.26-.79-.03-1.31,.2-1.44,1.07-.17,1.19,.27,1.92,1.43,2.26,1.57,.46,2.99-.02,3.83-1.43,.57-.96,.98-2.01,1.52-2.99,2.12-3.83,2.9-8.36,6.19-11.77h-3.96c1.12,.87,1,1.8,.6,2.81-.59,1.49-1.15,2.98-1.74,4.47-.12,.31-.33,.58-.65,1.11-.79-1.77-1.44-3.3-2.14-4.8-.58-1.25-1.14-2.46,.41-3.63h-5.74c.76,1.09,1.55,1.98,2.07,3Zm-40.56,6.1c-.85,1.17-2.08,1.83-3.49,2.15-2.4,.55-5.07-.54-6.17-2.43-1.28-2.19-1.09-5.57,.39-7.36,2.26-2.74,8.28-2.57,9.54,1.28,.1,.3,.2,.61,.24,.92,.18,1.48,0,1.67-1.48,1.66-1.8-.01-3.6,.04-5.39-.03-1.04-.04-1.23,.46-1.14,1.32,.32,3.13,3.57,4.57,6.18,2.74,.33-.23,.69-.44,1.04-.66l.29,.4Zm-4.86-4.47v.02c.6,0,1.2,.03,1.79-.01,.25-.02,.7-.22,.69-.3-.13-1.04-.15-2.14-.56-3.07-.4-.91-1.41-1.09-2.39-.85-1.17,.28-1.62,1.19-1.92,2.23-.48,1.66-.24,1.99,1.43,1.98,.32,0,.64,0,.96,0Zm200.25,4.09c-.65,1.95-3.5,3.04-5.78,2.53-2.52-.56-4.13-2.26-4.48-4.7-.39-2.76,.59-5.13,2.6-6.23,2.16-1.19,5.29-.89,7.09,.71,1.06,.95,1.36,2.24,1.29,3.59-.01,.25-.64,.64-.99,.65-1.92,.05-3.84,.08-5.75-.03-1.1-.06-1.33,.43-1.27,1.34,.1,1.43,.74,2.6,2.02,3.18,1.38,.62,2.81,.42,4.12-.39,.37-.23,.76-.44,1.14-.66Zm-4.61-4.07h0c.56,0,1.12,.05,1.67-.02,.31-.04,.72-.21,.85-.45,.41-.73-.17-2.6-.97-3.28-.82-.7-1.84-.86-2.65-.21-.63,.51-1.12,1.34-1.39,2.13-.51,1.45-.12,1.87,1.4,1.84,.36,0,.72,0,1.08,0Zm99.54,4.39c-.84,1.32-2.17,1.98-3.66,2.25-2.45,.45-4.88-.6-5.96-2.44-1.36-2.31-1.24-5.38,.32-7.35,2.15-2.72,8.13-2.7,9.56,1.17,.19,.51,.2,1.09,.26,1.64,.09,.79-.31,1.04-1.07,1.03-1.92-.04-3.84-.03-5.75-.02-1.18,0-1.38,.27-1.18,1.47,.53,3.19,3.64,4.41,6.27,2.48,.3-.22,.63-.4,.94-.59l.26,.36Zm-4.91-4.37h0c.2-.01,.4-.01,.6-.01,2.2,0,2.49-.38,1.85-2.51-.09-.3-.23-.6-.42-.85-.69-.95-1.8-1.21-2.88-.71-1.01,.46-2,2.35-1.67,3.46,.36,1.18,1.43,.42,2.16,.63,.11,.03,.24,0,.36,0Zm-30.34,4.37c-.92,1.43-2.38,2.07-4.01,2.28-2.55,.34-4.81-.84-5.84-2.88-1.08-2.14-.77-5.47,.7-7.15,2.08-2.37,7.7-2.35,9.24,.97,.12,.25,.25,.51,.32,.77,.51,1.86,.18,2.27-1.74,2.27-1.68,0-3.36,.03-5.03,0-.98-.02-1.25,.4-1.11,1.33,.47,3.3,3.53,4.59,6.25,2.62,.3-.22,.63-.39,.95-.58l.26,.37Zm-4.86-4.4c2.91-.04,3.14-.31,2.32-2.73-.37-1.09-1.53-1.76-2.65-1.53-1.3,.27-2.5,2.09-2.21,3.53,.28,1.34,1.43,.54,2.18,.73,.11,.03,.24,0,.36,0Zm-95.87,4.42c-.88,1.38-2.29,2.04-3.83,2.23-2.31,.29-4.41-.3-5.73-2.41-1.37-2.19-1.28-5.42,.2-7.25,1.58-1.96,3.8-2.34,6.09-1.87,1.94,.4,3.38,1.6,3.82,3.69,.33,1.58,.1,1.88-1.46,1.86-1.84-.02-3.68,0-5.51-.09-.87-.04-1.04,.43-1.05,1.08-.02,1.42,.54,2.66,1.76,3.33,1.42,.78,2.94,.57,4.34-.25,.38-.22,.75-.46,1.13-.69l.24,.37Zm-4.85-4.43v.06c.6,0,1.2,.07,1.79-.03,.31-.05,.75-.33,.83-.6,.41-1.41-.65-3.35-1.93-3.68-1.37-.36-2.78,.69-3.17,2.37-.36,1.53-.04,1.91,1.53,1.88,.32,0,.64,0,.96,0Zm232.55,4.31c-.08,.2-.1,.46-.24,.59-3.42,3.34-8.75,1.75-9.65-1.43-.41-1.45-.48-3.09-.26-4.59,.37-2.55,2.86-4.05,5.92-3.88,2.73,.15,4.51,1.76,4.82,4.28,.12,.99-.21,1.42-1.21,1.4-1.84-.03-3.68,.03-5.51-.05-.99-.04-1.27,.33-1.23,1.25,.17,3.65,3.49,4.24,5.93,2.94,.43-.23,.84-.47,1.26-.71l.17,.2Zm-4.74-4.31c2.9,.06,3.31-.49,2.19-2.93-.02-.04-.03-.07-.05-.11-.52-1.01-1.65-1.48-2.74-1.14-1.36,.43-2.23,1.89-1.94,3.46,.25,1.36,1.36,.5,2.06,.71,.15,.05,.32,0,.48,0Zm-61.25,4.08c-.71,1.99-3.41,3.03-5.77,2.55-3.18-.65-4.88-3.35-4.43-7,.36-2.89,2.6-4.62,5.71-4.64,3.23-.02,5.14,2.15,5.3,4.43,.06,.86-.19,1.27-1.1,1.26-1.88-.03-3.76,.08-5.62-.05-1.1-.07-1.34,.38-1.31,1.29,.05,1.38,.61,2.53,1.84,3.15,1.42,.71,2.87,.46,4.23-.32,.38-.22,.76-.45,1.15-.67Zm-4.52-4.06h0c.6,0,1.21,.06,1.79-.04,.29-.05,.71-.38,.76-.64,.34-1.61-.78-3.4-2.18-3.61-1.47-.22-2.8,.99-3,2.72-.15,1.34,.08,1.59,1.43,1.57,.4,0,.8,0,1.2,0Zm-193.82-4.63c-.44-.02-.89,0-1.32-.07-.36-.06-.95-.16-1.01-.37-.29-.97-.64-2-.55-2.97,.04-.46,1-.84,1.54-1.26,.14,.47,.22,.97,.42,1.42,.22,.48,.51,1.24,.84,1.29,.51,.06,1.3-.24,1.58-.66,.62-.92-.1-2.25-1.2-2.52-3.23-.78-5.08,.53-5.43,3.86-.07,.64-.2,1.19-1.03,1.18-.18,0-.36,.18-.54,.28,2.13,.1,1.54,1.64,1.58,2.79,.04,1.32,.02,2.63,0,3.95-.01,1.42,.42,3.05-1.7,3.52,.89,.7,5.57,.73,6.38,.07-.26-.15-.47-.36-.7-.39-.97-.1-1.26-.7-1.27-1.56-.01-2.24-.03-4.47-.04-6.71,0-.94,.4-1.4,1.41-1.28,.35,.04,.72-.08,1.09-.13l-.03-.46Zm151.33,7.13c.05,1.11,.08,2.22,.16,3.33,0,.13,.26,.34,.41,.35,1.62,.17,3.25,.49,4.85,.4,1.88-.1,3-1.33,3.23-2.99,.23-1.69-.46-2.74-2.33-3.57-1.02-.45-2.06-.86-3.04-1.39-.7-.38-1.18-1.03-.85-1.9,.33-.86,1.07-1.17,1.94-1.06,1.14,.14,2.01,.68,2.55,1.75,.2,.39,.56,.7,.85,1.04l.34-.19c0-.75,.04-1.5-.02-2.24-.02-.2-.3-.52-.49-.55-1.42-.2-2.84-.45-4.26-.46-1.5,0-2.69,1.1-3.02,2.47-.32,1.35,.21,2.73,1.5,3.48,.96,.55,2.01,.96,3.04,1.39,1.15,.48,1.56,1.22,1.24,2.35-.25,.89-1.25,1.41-2.31,1.21-1.11-.21-1.84-.88-2.36-1.85-.31-.57-.65-1.13-.97-1.69l-.46,.1Zm-85.93,1.68c-.43,.24-.86,.48-1.29,.72-2.02,1.12-4.49,.47-5.27-1.55-.75-1.96-.75-4,.08-5.96,.52-1.22,1.74-1.85,3.01-1.73,1.12,.11,1.41,.61,1.2,1.74-.09,.49-.04,1.27,.26,1.51,.39,.3,1.21,.4,1.64,.18,.42-.21,.91-1.04,.79-1.39-.27-.76-.76-1.63-1.42-2.03-2.05-1.23-5.65-.83-7.24,.63-1.83,1.67-2.31,4.66-1.3,7.23,1.28,3.26,6.3,4.49,9.42,1.51,.15-.15,.23-.38,.34-.58l-.23-.27Zm-146.02-.08c-.35,.24-.69,.49-1.04,.72-1.62,1.06-3.83,.76-4.97-.69-1.27-1.6-1.25-5.83,.02-7.43,.67-.84,2.16-1.26,3.16-.92,1.24,.41,.57,1.32,.65,2.08,.05,.49,.6,1.29,.97,1.31,.52,.04,1.33-.37,1.59-.83,.48-.85,.06-1.72-.67-2.34-2.02-1.72-6.71-1.28-8.39,.76-1.76,2.14-1.62,6.34,.28,8.35,1.87,1.97,5.59,2.14,7.95,.32,.33-.25,.53-.68,.79-1.02l-.34-.31Zm332.39,.07c-.29,.18-.58,.34-.85,.54-2.43,1.72-5.38,.55-5.85-2.37-.16-.98-.17-1.99-.11-2.98,.04-.7,.23-1.43,.51-2.08,.51-1.17,2.09-1.84,3.33-1.55,1.43,.34,.76,1.36,.82,2.21,.03,.45,.42,1.16,.77,1.24,.47,.11,1.21-.12,1.56-.47,.81-.84,.35-2.41-.89-3.01-3.47-1.67-9.22-.75-9.14,5.01,.03,2.25,.58,4.21,2.76,5.31,2.29,1.15,4.49,.92,6.57-.51,.34-.24,.56-.66,.84-.99l-.32-.33Zm-75.7-6.16c1.08,2.36,2.04,4.78,3,7.19,.3,.74,.67,1.23,1.54,1.24,.86,0,1.25-.48,1.62-1.18,1.71-3.28,2.3-7.15,5.44-9.93h-4.15l-.21,.28c1.49,.55,1.19,1.59,.85,2.55-.51,1.47-1.12,2.91-1.7,4.35-.18,.46-.4,.91-.73,1.64-.35-.61-.6-.95-.76-1.32-.5-1.22-.98-2.45-1.45-3.68-.48-1.25-1.47-2.55,.7-3.78h-5.96c.68,.98,1.4,1.74,1.81,2.64Zm-286.61,3.97c0-.84-.07-1.71,.12-2.51,.22-.95,.6-1.89,1.08-2.74,.24-.42,.85-.62,1.57-1.1-.08,.81-.26,1.26-.12,1.56,.21,.46,.59,1.05,1.01,1.16,.41,.11,1.27-.17,1.4-.49,.24-.59,.32-1.46,.05-1.99-.63-1.23-2.63-1.3-3.78-.28-.36,.32-.73,.61-1.17,.98-.26-.63-.33-1.15-.62-1.45-.41-.42-3.52-.03-4.12,.46,.14,.13,.26,.34,.41,.37,1.31,.3,1.49,1.26,1.47,2.39-.03,1.48-.01,2.96,0,4.44,0,1.28,.12,2.61-1.53,3.06-.03,0-.03,.14-.08,.37h6.16c-1.8-1.93-1.82-1.93-1.84-4.23Zm257.57-5.28c.2,.55,.34,1.41,.7,1.53,.51,.16,1.48-.05,1.74-.45,.3-.46,.26-1.41-.04-1.91-.74-1.27-2.42-1.35-3.64-.34-.4,.33-.83,.65-1.42,1.12-.11-1.5-.89-1.84-1.98-1.66-.87,.15-1.88-.23-2.74,.61,.27,.2,.41,.39,.57,.41,1.16,.19,1.45,.95,1.43,1.99-.02,1.32,.05,2.64,0,3.95-.05,1.53,.63,3.4-1.78,4.11,2.16,.39,4.17,.36,6.42,.21-.26-.36-.33-.57-.44-.58-1.5-.26-1.55-1.41-1.56-2.56,0-1-.13-2.03,.08-2.98,.27-1.21,.76-2.39,1.28-3.53,.17-.36,.74-.54,1.34-.95,0,.59-.06,.84,.01,1.04Zm60.34,9.07c-.05-.06-.12-.13-.19-.14-1.41-.23-1.57-1.25-1.56-2.41,0-.72-.16-1.47,0-2.15,.31-1.41,.71-2.82,1.23-4.17,.19-.48,.86-.77,1.31-1.14,.27,.48,.21,.77,.29,1,.19,.55,.33,1.36,.72,1.54,.41,.18,1.33-.1,1.6-.48,.31-.44,.38-1.32,.14-1.81-.68-1.38-2.56-1.5-3.91-.36-.38,.32-.73,.66-1.35,1.23,.15-2.39-1.29-1.89-2.48-1.86-.36,0-.73-.03-1.07,.05-.31,.07-.59,.27-.88,.41,.21,.21,.38,.53,.63,.6,.95,.27,1.2,.96,1.21,1.83,.01,1.6,0,3.19,.05,4.79,.04,1.37-.02,2.65-1.63,3.15-.03,0-.02,.14-.05,.39h6.15c-.13-.32-.15-.4-.2-.46Zm-337.2-.5c-2.07-.1-2.59-.54-2.71-2.62-.1-1.83-.05-3.67-.08-5.51-.01-.8,.39-1.17,1.16-1.19,.52-.02,1.04-.06,1.55-.09l.02-.4c-.47-.06-.94-.18-1.41-.17-.99,.03-1.38-.41-1.31-1.38,.04-.59,.01-1.2-.03-1.79-.05-.64-.39-.89-.96-.53-.86,.54-1.63,1.13-1.57,2.34,.06,1.25,0,2.51,0,3.76,0,2,0,3.99,0,5.99,0,1.2,.13,2.35,1.49,2.85,1.29,.47,3.42,0,4.39-1.08-.27-.09-.41-.16-.56-.17Zm207.75-30.22c.02-1.54-2.01-3.74-3.5-3.78-1.63-.05-3.09,1.74-3.16,3.86-.06,1.84,1.33,3.28,3.21,3.31,1.87,.03,3.43-1.5,3.45-3.39Zm-53.75-.54c.03-2.39-1.16-3.87-3.24-3.98-1.25-.07-3.32,2.35-3.31,3.89,0,1.86,1.38,3.2,3.3,3.22,1.83,.02,3.23-1.33,3.25-3.13Zm-163.13,31.12c-1.25-.31-1.41-1.22-1.39-2.3,.04-1.76,.02-3.52,.01-5.28,0-3.36-.36-3.65-3.68-2.98-.31,.06-.59,.33-.67,.38,.62,.75,1.5,1.34,1.56,2,.2,2.18,.18,4.39,.07,6.58-.03,.51-.7,1-1.1,1.49-.14,.17-.34,.28-.81,.67h6.5c-.29-.34-.37-.53-.49-.56Zm147.46,.02c-1.21-.31-1.3-1.25-1.31-2.25-.01-2-.03-3.99-.03-5.99,.01-2.56,.02-2.58-2.62-2.41-.65,.04-1.28,.23-1.93,.35,.18,.45,.33,.62,.5,.64,1.13,.17,1.34,.94,1.32,1.92-.02,1.4,.04,2.8,0,4.19-.04,1.46,.59,3.23-1.7,3.92,2.07,.5,4,.3,6.16,.24-.24-.39-.3-.6-.4-.62Zm-71.09,1.19c.15-.6,.18-1.28,.08-1.89-.18-.98-.87-1.53-1.89-1.46-.86,.06-1.56,.46-1.62,1.44-.05,1.02,.52,1.48,1.51,1.64,1.02,.16,.69,.85,.31,1.31-.46,.56-1.06,1.01-1.76,1.65,1.6-.04,3.01-1.22,3.38-2.69Zm329.7-1.93c-.03,.95,.81,1.83,1.7,1.79,.79-.03,1.53-.87,1.51-1.72-.01-.87-.76-1.64-1.57-1.64-.84,0-1.62,.75-1.64,1.57Zm-259.77-13.49c-.04-1.04-.75-1.36-1.62-1.38-.91-.03-1.42,.46-1.41,1.4,.01,.98,.55,1.45,1.63,1.45,.78-.09,1.44-.42,1.4-1.46Zm-150.54,0c0,.86,.65,1.51,1.54,1.45,.84-.05,1.53-.44,1.5-1.37-.04-.9-.57-1.47-1.56-1.45-.91,.02-1.47,.55-1.48,1.37ZM393.77,7.2c.37-.46,.93-.87,1.06-1.39,.2-.77-.44-1.12-1.14-1.17-.83-.06-1.32,.45-1.23,1.22,.05,.46,.5,.87,.78,1.31l.53,.04Z"/></svg>