<?xml version="1.0" encoding="UTF-8"?><svg id="Layer_1" xmlns="http://www.w3.org/2000/svg" xmlns:xlink="http://www.w3.org/1999/xlink" viewBox="0 0 480 57"><defs><style>.cls-1{mask:url(#mask);}.cls-2{opacity:.5;}.cls-2,.cls-3{fill:#fff;fill-rule:evenodd;}</style><mask id="mask" x=".01" y=".05" width="191.56" height="56.94" maskUnits="userSpaceOnUse"><g id="b"><path id="a" class="cls-3" d="M.07,.05H191.57V56.98H.07V.05Z"/></g></mask></defs><g class="cls-1"><path class="cls-3" d="M172.64,56.98h-10.61l-12.52-36.97-12.51,36.97h-10.61L107.44,.07h13.07l11.49,38.26L144.43,.05h10.46l12.43,38.28L178.82,.07h12.76l-18.93,56.92h0Zm-111.98,0V.07h42.13V11.22h-29.92v11.54h26.33v11.14h-26.33v11.96h30.32v11.13H60.67Zm-21.47,0L12.14,20.81V56.98H.01V.07H11.34l26.17,35.05V.07h12.13V56.98h-10.45Z"/></g><path class="cls-2" d="M220.67,31.04h-13.8V5.99h14.12c9.01,0,15,4.23,15,12.44,0,7.56-6.06,12.6-15.32,12.6ZM221.47,.06h-20.9V56.96h6.3v-20.08h13.57c11.88,0,21.93-6.34,21.93-18.7C242.37,6.89,234.08,.06,221.47,.06Zm36.3,29.02V6h17.23c9.01,0,14.28,4.23,14.28,11.3s-5.99,11.78-14.36,11.78h-17.15Zm22.74,4.63c8.78-1.63,15.15-7.15,15.15-16.66C295.66,6.8,287.76,.06,275.48,.06h-24.02V56.96h6.3v-22.11h15.96l16.19,22.11h7.74l-17.15-23.25ZM409.46,5.99h-33.83V26.32h30.24v5.85h-30.24v24.79h-6.31V.06h40.14V5.99m10.36,50.97h6.3V.06h-6.3V56.96Zm41.41,0h-6.38V5.99h-18.75V.06h43.88V5.99h-18.74V56.96"/><path class="cls-3" d="M356.12,40.42c1.71-3.74,2.59-7.81,2.59-11.93C358.71,12.85,346.33,.16,331.01,0c7.78,12.25,19.75,31.68,25.11,40.41m-46.21,7.04c5.12,5.84,12.54,9.54,20.84,9.54s15.9-3.79,21.03-9.76c-10.07,.21-28.61,.1-41.87,.22m34.34-8.97c-7.58-14.14-19.05-34.94-22.04-36.75-1.5,.26-2.07,2.47-2.51,3.99-3.62,12.52-7.03,25.16-10.62,37.81,.11,.32,.46,.67,.62,.62,7.58-.7,11.83-1.16,19.63-2.71,6.39-1.25,8.19-.98,14.92-2.96m-28.16-34.03l.07-.25c-8.35,5.24-13.41,14.42-13.38,24.28,0,5.24,1.41,10.14,3.83,14.36,2.77-12.95,5.42-25.38,9.49-38.39"/></svg>