<?xml version="1.0" encoding="UTF-8"?><svg id="Layer_1" xmlns="http://www.w3.org/2000/svg" viewBox="0 0 250 40.15"><defs><style>.cls-1{fill:#fff;}</style></defs><path class="cls-1" d="M0,18.41C0,24.03,3.81,27.27,9.25,27.27s9.27-3.24,9.27-8.85-3.81-8.85-9.27-8.85S0,12.8,0,18.41Zm16.1,0c0,5.49-2.97,7.94-6.85,7.94s-6.83-2.45-6.83-7.94,2.97-7.94,6.83-7.94,6.85,2.45,6.85,7.94Zm5.89,2.13c0,2.13-.1,4.28-.2,6.41,.42-.07,.82-.12,1.21-.12s.79,.05,1.21,.12c-.1-2.13-.2-4.28-.2-6.41v-1.81h.94c2.13,2.15,5.42,6.7,6.41,8.21,.47-.07,.96-.12,1.43-.12,.49,0,.99,.05,1.48,.12-1.43-1.61-5.56-6.93-6.78-8.43,1.88-.25,5.07-1.53,5.07-4.72,0-2.94-2.35-3.91-5.14-3.91-.94,0-1.88,.12-2.82,.12s-1.88-.05-2.82-.12c.1,2.13,.2,4.28,.2,6.41v4.25Zm2.03-4.25c0-1.78,.07-3.56,.15-5.37,.52-.05,1.26-.12,2.4-.12,1.68,0,3.83,.64,3.83,3.24,0,2.94-2.7,3.78-4.72,3.78-.64,0-1.21-.02-1.66-.12v-1.41Zm25.87,9.57c-.62,.49-2.67,1.41-5.14,1.41-5.22,0-9.03-3.24-9.03-8.85s3.81-8.85,9.27-8.85c2.13,0,4.03,.52,5.37,1.14-.25,.45-.42,1.41-.52,1.93l-.15,.05c-.69-.77-2.37-2.2-4.7-2.2-3.88,0-6.85,2.45-6.85,7.94s2.97,7.94,6.85,7.94c2.35,0,4.08-1.34,5.02-2.05l.1,.1-.22,1.46Zm16.08-9.57c0-2.13-.1-4.28-.2-6.41,.42,.07,.82,.12,1.21,.12s.79-.05,1.21-.12c-.1,2.13-.2,4.28-.2,6.41v4.25c0,2.13,.1,4.28,.2,6.41-.42-.07-.82-.12-1.21-.12s-.79,.05-1.21,.12c.1-2.13,.2-4.28,.2-6.41v-2.23c-1.73-.02-3.44-.05-5.17-.05s-3.44,.02-5.17,.05v2.23c0,2.13,.1,4.28,.2,6.41-.42-.07-.82-.12-1.21-.12s-.79,.05-1.21,.12c.1-2.13,.2-4.28,.2-6.41v-4.25c0-2.13-.1-4.28-.2-6.41,.42,.07,.82,.12,1.21,.12s.79-.05,1.21-.12c-.1,2.13-.2,4.28-.2,6.41v.87c1.73,.02,3.44,.07,5.17,.07s3.44-.05,5.17-.07v-.87Zm6.88,0c0-2.13-.1-4.28-.2-6.41,.42,.07,.82,.12,1.21,.12s.79-.05,1.21-.12c-.1,2.13-.2,4.28-.2,6.41v4.25c0,2.13,.1,4.28,.2,6.41-.42-.07-.82-.12-1.21-.12s-.79,.05-1.21,.12c.1-2.13,.2-4.28,.2-6.41v-4.25Zm6.88,4.25c0,2.13-.1,4.28-.2,6.41,1.11-.07,2.2-.12,3.31-.12s2.2,.12,3.31,.12c3.91,0,9-2.28,9-8.88,0-5.1-2.37-8.19-8.16-8.19-1.24,0-2.5,.12-3.73,.12s-2.5-.05-3.73-.12c.1,2.13,.2,4.28,.2,6.41v4.25Zm2.03-4.25c0-1.78,.05-3.54,.15-5.12,1.01-.12,2.35-.25,3.81-.25,4.06,0,7.02,1.41,7.02,7.15,0,6.53-3.96,7.96-7.59,7.96-1.26,0-2.55-.1-3.24-.25-.1-1.71-.15-3.49-.15-5.24v-4.25Zm74.25-5.49h2.23c2.55,0,4.16,.59,4.16,3.41,0,3.36-2.6,4.13-4.63,4.13-.54,0-1.24-.07-1.76-.2v-7.35Zm-2.03,9.74c0,2.13-.1,4.28-.2,6.41,.42-.07,.82-.12,1.21-.12s.79,.05,1.21,.12c-.1-2.13-.2-4.28-.2-6.41v-1.36c.64,.05,1.26,.07,2,.07,2.37,0,6.65-.84,6.65-5.19s-3.93-4.18-5.42-4.18c-.69,0-2.28,.12-3.07,.12s-1.61-.05-2.4-.12c.1,2.13,.2,4.28,.2,6.41v4.25Zm13.75,0c0,2.13-.1,4.28-.2,6.41,.42-.07,.82-.12,1.21-.12s.79,.05,1.21,.12c-.1-2.13-.2-4.28-.2-6.41v-1.81h.94c2.13,2.15,5.42,6.7,6.41,8.21,.47-.07,.96-.12,1.43-.12,.49,0,.99,.05,1.48,.12-1.43-1.61-5.56-6.93-6.78-8.43,1.88-.25,5.07-1.53,5.07-4.72,0-2.94-2.35-3.91-5.14-3.91-.94,0-1.88,.12-2.82,.12s-1.88-.05-2.82-.12c.1,2.13,.2,4.28,.2,6.41v4.25Zm2.03-4.25c0-1.78,.07-3.56,.15-5.37,.52-.05,1.26-.12,2.4-.12,1.68,0,3.83,.64,3.83,3.24,0,2.94-2.7,3.78-4.72,3.78-.64,0-1.21-.02-1.66-.12v-1.41Zm11.7,2.13c0,5.61,3.81,8.85,9.25,8.85s9.27-3.24,9.27-8.85-3.81-8.85-9.27-8.85-9.25,3.24-9.25,8.85Zm16.1,0c0,5.49-2.97,7.94-6.85,7.94s-6.83-2.45-6.83-7.94,2.97-7.94,6.83-7.94,6.85,2.45,6.85,7.94Zm2.72,11.28c2.89,0,3.17-2.7,3.17-6.6v-6.8c0-2.13-.1-4.28-.2-6.41,.42,.07,.82,.12,1.21,.12s.79-.05,1.21-.12c-.1,2.13-.2,4.28-.2,6.41,0,2.97,.07,6.43,.07,8.8,0,2.94-2.03,5.29-5.07,5.29l-.2-.69Zm10.04-13.43c0-2.13-.1-4.28-.2-6.38,1.48,.07,2.94,.12,4.43,.12s2.94-.05,4.4-.12c-.05,.25-.07,.49-.07,.74s.02,.49,.07,.74c-2.08-.15-3.29-.32-6.5-.32-.02,1.06-.1,1.93-.1,3.14,0,1.29,.02,2.65,.02,3.26,2.92,0,4.55-.12,6.01-.25-.05,.25-.07,.52-.07,.77s.02,.49,.07,.74c-1.71-.17-4.82-.22-6.01-.22-.02,.59-.02,1.21-.02,3.59,0,1.88,.02,3.09,.05,3.71,2.2,0,5.12-.02,6.68-.32-.05,.22-.07,.54-.07,.77s.02,.49,.07,.72c-1.46-.07-2.94-.12-4.45-.12s-2.99,.05-4.5,.12c.1-2.15,.2-4.3,.2-6.43v-4.25Zm25.15,9.6c-.62,.49-2.67,1.41-5.14,1.41-5.22,0-9.03-3.24-9.03-8.85s3.81-8.85,9.27-8.85c2.13,0,4.03,.52,5.37,1.14-.25,.45-.42,1.41-.52,1.93l-.15,.05c-.69-.77-2.37-2.2-4.7-2.2-3.88,0-6.85,2.45-6.85,7.94s2.97,7.94,6.85,7.94c2.35,0,4.08-1.34,5.02-2.05l.1,.1-.22,1.46Zm7.15-9.57c0-1.71-.02-3.41-.07-5.12-1.71,0-3.91,.1-5.29,.27,.07-.25,.12-.52,.12-.79,0-.25-.05-.49-.12-.77,2.13,.07,4.25,.12,6.38,.12s4.25-.05,6.38-.12c-.07,.27-.12,.52-.12,.79,0,.25,.05,.52,.12,.77-1.39-.17-3.59-.27-5.29-.27-.05,1.71-.07,3.41-.07,5.12v4.25c0,2.13,.1,4.28,.2,6.41-.42-.07-.82-.12-1.21-.12s-.79,.05-1.21,.12c.1-2.13,.2-4.28,.2-6.41v-4.25Z"/><path class="cls-1" d="M120.3,17.88c0,.06,.18,.03,0,0,.63,.1,.62,.16,.62,.78-.23-.13-.62-.55-.62-.78Zm8.98-5.64c.22,.02,1.04-.04,1.04-.27,.36,0,.51-.43,.89-.43,.24-.26,.88-.76,.88-1.04-1.16-.02-1.97,.88-3.1,.96,1.29-.09-.01,.31,0,0-.01,.35-.19,.75,.29,.79Zm-15.99,5.64c.1,.1,0,.03,.18,.09-.1-.1,0-.03-.18-.09Zm7.27,1.22h-.18v-.43c-.14,0-.18,.14-.21,.29-.04,.3-.11,.35-.24,.58,.4,0,.41-.17,.62-.43Zm-9.58-1.65c.59,.06,0,.03,0,0,0,.16-1.33,.06-1.33,.43,.65,0,1.26-.14,1.9-.11,.36,.02,1.34,.27,1.64,.02-.33-.07-.44-.17-.74-.2-.49-.05-.99-.1-1.48-.15Zm8.78,2.52c-.63-.02-.66-.34-1.06-.7,0,.34-.53,.44-.53,.78-.39,.19-.44,.83-.44,1.3,0-.44,.47-.08,0,0,.8-.14,1.85-.59,2.04-1.39Zm.62-.87c.06,0,0-.14,0,0h0Zm10.82-7.13c-.26,0-.42,.32-.68,.44-.4,.18-.83,.3-1.27,.35,.55-.05,.03,.42,0,0,.03,.47,.42,.95,.84,.95,.32,0,.76-.17,.99-.43,.3-.35,.64-.49,.92-.87-.05-.15,0-.24,.18-.26-.03-.13,0-.24,.1-.33,.18-.28,.32-.55,.35-.89-.17,0-.56,.25-.71,.35-.2,.3-.45,.38-.71,.69Zm5.94,1.39c-.33,.07-.44,.05-.53,.35,.05-.17,.47,.03,0,0,.5,.03,1.44,.34,1.6-.26-.43,.09-.86,.31-1.06-.09Zm-3.34-3.87c.02-.07,.05-.13,.07-.2-.12,0-.11,.23-.07,.2Zm2.89,3s.08-.03,.12-.04c0-.02-.12-.02-.12,.04Zm-.27,.7c.14-.03,.44,0,.44-.17h-.8c.27,0,0,.03,0,0,0,.18-.31,.09-.44,.09-.28,.1-.56,.27-.71,.52,.47,0,.7-.09,1.12-.09,.29,0,.26-.11,.38-.35Zm-1.95,.69v-.17c-.28,.01-1.33,.38-1.33,.7,.43,0,.86-.4,1.33-.52-.28,.07,0-.06,0,0Zm3.1-1.74c-.21,0-.5,.21-.77,.31,0,.01-.02,.02-.12,.04,0-.51,.09-.09,.09-.35,.41,0,.13-.04,.53-.17-.15-.15-.8-.23-.8,0-.23,0-.8,.46-.8,.7,.32,0,.8-.09,1.24-.09,.33,0,.53-.09,.62-.43Zm-22.57,13.39c.14-.04,.18-.12,.13-.26,.17,.05,.25,0,.26-.19,.08-.14,.28-.42,.45-.42,0-.13,.23-.52,.35-.52,0-.23,.2-.34,.27-.61,.08,0,.31-.57,.35-.69-.22,0-.14-.27-.37-.24-.11,.02-.36,.19-.45,.26-.23,.17-.4,.39-.6,.59-.15,.15-.4,.19-.53,.35,0,.52-.98,.78-.98,1.3-.23,.11-.84,1.17-1.19,1.88-.11,.23-.68,.86-.99,1.18-.23,.24-.51,1.21-.47,1.18,.1-.06,.29-.46,.44-.56,.05-.04,.31-.74,.37-.78,.87-.63,2.17-1.69,2.29-1.81,.21-.23,.4-.49,.67-.66Zm5.63-3.74c-.45-.11-.85-.29-1.35-.42-.54-.14-.76,.14-1.22,.25,0,.15-.58,.36-.75,.7,.29-.28,1.55,.07-.05,.08,1.29,0,2.66,.05,3.86,.55,.63,.26,.94,.72,1.47,1.1,0,.38,.35,.64,.35,1.04,.2,0,.09,.78,.36,.78,0,.35,.26,.54,.57,.71,.37,.2,1.12,.07,1.3-.27,.41,0,.51-.55,.8-.78,0-.41-.38-.37-.74-.47-.26-.07-.47-.23-.67-.23,0-.2-.65-.23-.8-.52-.3-.1-.25-.22-.53-.37-.18,0-.24-.08-.18-.24-.12-.04-.24-.1-.34-.18-.18-.14-.99-.88-.99-1.04-.34,0-.28-.35-.62-.35-.1-.2-.44-.2-.44-.35Zm-2.75,2.09c-.26,0-.28,.15-.41,.35-.17,.26-.25,.08-.38,.35-.17,0-.26,.22-.35,.35-.23,0-.32,.21-.53,.35,0,.08-.25,.18-.35,.3-.22,.27-.46,.35-.71,.65-.44,0-1.63,1.53-1.92,1.85,.21,0,1.56-1.22,1.66-1.42,.34,0,.28-.35,.62-.35,.12-.15,.24-.29,.35-.44,.16,.05,.27-.01,.33-.17,.24-.28,.5-.37,.74-.63,.24-.25,.47-.51,.71-.77,.33-.32,.85-.57,.97-1.04-.32,0-.62,.28-.71,.61Zm.94-.95c-.14-.02-.26-.04-.32-.09,.1,.09,.24,.11,.32,.09Zm-.32-.09c.44,0,.44,.08,.32,.09,.29,.03,.65,.02,.65,.17,.51,0,.7,.08,1.15,.17-.44-.5-1.53-.44-2.13-.43Zm-.62,1.04c.09-.31-.06,0,0,0h0Zm-1.51-2.43c.03-.06,.06-.11,.1-.16,.13,.04,.32,.25,.44,.33,.11-.05-.02-.07,.18-.09-.2,.02,.09-.26,0,0,.09-.26,.18-.52,.27-.78,0-.33,.07-.36,.13-.61,.08-.33,.13-.32-.11-.77-.13-.24-.29-.18-.29-.45-.22-.11-.25-.37-.44-.58-.35-.39-.77-.77-1.25-.98,0,.26,.09-.17,.09,.35-.6-.14-1.08-.74-1.67-.97-.71-.28-1.49-.47-2.26-.5-.34-.01-.69,.02-1.02,.11-.15,.04-.45-.01-.45,.15-.37,0,.01,.09-.35,.09-.35,.29-.62,.41-.62,.87,.21,.16,.56,0,.82-.05,.92-.18,1.68-.3,2.55-.3,.28,0,1.51,.2,1.51,.43,.14-.05,.23,0,.27,.13,.14,.2,.22,.06,.35,.26,.18,.27,.48,.46,.65,.83,.23,.52,.46,1.04,.68,1.56,.15,.37,.12,.85,.44,1.13Zm-1.86-2.87c.27,.15,.15,.23,0,0,.38,.59,.53,.96,.67,1.61,.06,.3,.4,.57,.67,.57,0-.12-.27-.96-.35-.96-.13-.5-.5-.95-.98-1.22Zm29.53,1.5c0,11.09-8.99,20.07-20.07,20.07s-20.07-8.99-20.07-20.07S112.91,0,123.99,0s20.07,8.99,20.07,20.07Zm-3.72-6.25c0-.32-.34-.27-.62-.22-.33,.06-.6,.23-.89,.39-.29,0-.51,.35-.8,.35s-.49,.17-.8,.17c-.33,0-.61,.17-.92,.17-.22,0-2.1,.2-2.1,.26-.31,0-2.57,.03-2.57,.17-.78,0-1.17,.24-1.95,.35,0,.11-1.32,.52-1.51,.52-.3,0-.44,.21-.82,.23-.39,.02-.73,.12-1.13,.12,0-.18,.55-.36,.71-.39,.41-.07,.87-.21,1.38-.28,.25-.03,1.1-.1,1.1-.29,.37,0,.5-.17,.8-.17,.26,0,.48-.17,.75-.17,.34,0,.84-.14,1.29-.17,0-.1,1.72-.52,1.86-.52,0-.26,1.81-.43,2.13-.43,.44,0,.98-.08,1.4,.05,.17,.05,.34,.09,.51,.11,.35,.04,.18-.08,.34-.31,.17-.24,.07-.26,.41-.37,0-.21,.18,.04,.18-.17,.15,0,.47-.11,.58-.22,.2-.19,.49-.18,.64-.38,.18-.25,.28-.47,.29-.79-.87,.03-1.7,.27-2.57,.26,.09-.31,.44-.45,.44-.7,0-.3-.5-.18-.77-.19-.25,0-1.71-.13-1.71,.19-.77,.19-.94,.93-1.45,1.39-.25,.23-.59,.69-.95,.69-.13,.25-.73,.52-.98,.52-.16,.31-1.6,.47-1.6,.7-.49,0-.81,.26-1.33,.26,0,.24-1.68,.17-1.68,.43-.63,0-1.17,.23-1.86,.35,0-.4-.18-.65-.18-.96-.33,0,.03-.59,.09-.7,.26,0,.29-.15,.44-.35,.29,0,.36-.23,.53-.43,.13,0,.09-.17,.35-.26,.04-.13,.12-.23,.24-.31,.31-.26,.56-.39,.92-.39,0,.41-.18,.55-.44,.87-.32,0-.57,.43-.88,.43,0,.17-.23,.25-.36,.35v.35c.18-.02,.36-.05,.51-.15,.23-.16,.06-.37,.38-.37-.2,.72-1.23,.66-1.42,1.39,.56-.03,1.03-.41,1.42-.78,.22-.33,.64-.38,.8-.7,.3,0,.42-.23,.67,.09,.17,.22,.3,.25,.58,.28,.38,.04,.76-.08,1.05-.32,.26-.21,.99-.81,.99-1.1,.12-.09,.24-.17,.36-.26-.05-.14,0-.22,.13-.26,.23-.15,.04-.22,.31-.35,0-.19,.18-.43,.35-.52,.09-.27,.09-.48,.36-.61,0-.4,.32-.79,.47-1.19,.02-.01,.04-.06,.07-.2-.44-.02-.2-.03-.62,.04-.33,.05-.24,.22-.53,.22-.17,.34-.92,.52-1.3,.52-.67,0-2.01-.2-2.51,.35-.41,.11-.55,.64-.6,1-.04,.31,.07,.34-.23,.46-.19,.07-.35,.19-.5,.33-.36,.34-.68,.68-1.07,1-.25,.48-.77,.51-1.24,.43,.03,.64,.29,1.27,.36,1.91,.09,0,.19,1.23,.19,1.46,0,1-.43,2.09-1.1,2.86-.61,.69-1.23,.62-2.1,.78-1.08,.19-1.87-.14-2.94-.14,.25-.51,.68-.88,1.02-1.33,.38-.5,.5-1.1,.49-1.71-.45-.04-.93-.12-1.38,0-.43,.11-.65,.46-.93,.78-.18,.14-.35,.29-.53,.43,.04,.13,0,.22-.11,.29-.13,.1-.47,.41-.6,.41-.11-.65-.47-.96-.62-1.56-.36,0-.34-1.91-.35-2.26,.22,0,.23-1.39,.62-1.39,.12-.35,.32-.56,.62-.78,.09-.17,.46-.44,.68-.55,.73-.36,1.33-.59,2.13-.72,.69-.11,1.4-.06,2.08,.11,.61,.15,1.22,.39,1.71,.78,.2,.16,.38,.34,.5,.56,.32-.03,.42-.08,.27-.4-.14-.31-.1-.53-.44-.64-.18-.06-.8-.26-.8-.35-.54,0-.89-.26-1.51-.29-.19-.01-1.06,.03-1.06-.15-.49,.05-.99,.1-1.48,.15-.57,.05-1.09,.35-1.71,.55,0,.07-.39,.35-.53,.35-.17,.25-.29,.2-.49,.39-.16,.16,.02,.17-.22,.35-.15,.05-.22,.15-.22,.3-.03,.13-.28,.7-.4,.7-.47,1.06,0,2.06,0,2.95-.87-.57-1.41-1.12-2.52-1.46-.57-.18-1.16-.3-1.76-.33-.58-.03-1.11,.15-1.67,.15-.39,0-.6,.26-1.06,.35-.18,.34-1.03,.45-.96,.99,.03,.23,.12,.47,.29,.64,.22,.21,0,.38-.18,.57-.27,.27-.42,.53-.31,.92,.2,0,.41-.38,.53-.52,.24-.06,.33-.03,.44-.26,.16-.05,.62-.25,.62-.35,.54-.24,1.25-.28,1.83-.31,.16,0,.74-.07,.74,.14,.37,0,.5,.17,.8,.17,0,.07,.48,.35,.62,.35,0,.17,.23,.25,.35,.35,0,.23,.08,.22,.27,.35,.11,.44,.28,.56,.44,1.04,.2,0,.09,.61,.35,.61,0,.26,.11,.57,.35,.7,.07,.11,.09,.23,.15,.34,.13,.23,.3,.06,.07,.36-.2,.26-.26,.12-.49,.39-.2,.24-.4,.25-.6,.48-.22,.25-.82,.66-.82,.95-.2,.15-.36,.18-.36,.43-.19,.12-.27,.11-.27,.35l-1.66,2.42s-.18,.18-.28,.43c-.04,.1-.1,.25-.15,.36-.23,.52-.37,1.05-.45,1.01-.07-.04,.1,.4,.04,.45-.25,.19-.22,.56,.51,.36,.19-.05,.19-.49,.44-.63,.15-.08,.39-.09,.56-.22,.22-.16,2.1-1.6,2.23-1.84,.16,.04,.27-.02,.33-.18,.22-.26,.43-.29,.62-.52,.23-.27,.43-.3,.65-.55,.24-.28,.48-.34,.69-.58,.44-.49,.89-.78,1.35-1.29,.23-.25,.46-.31,.71-.6,.25-.28,.47-.2,.82-.12,1.08,.24,1.97,.98,2.6,1.84,.29,.4,.66,.88,.66,1.38,.11,.26,.24,.5,.32,.77,.12,.37-.02,.66,.39,.79,0-.3,.08-.41,.04-.78-.05-.57-.04-.52,.53-.61,.3-.05,.54-.17,.75-.17,0-.09,.36-.13,.5-.27,.22-.21,.29-.22,.44-.5,.12-.23,.25-.44,.3-.7-.37-.12-.52-.35-.88-.35,0-.09-.31-.26-.44-.26,0-.2-.48-.19-.62-.39-.22-.33-.72-.33-.97-.7-.04-.13-.13-.18-.27-.13-.12-.15-.24-.29-.35-.43-.27,0-.34-.25-.53-.43-.24-.23-.49-.47-.77-.66-.25-.17-.13-.3-.39-.3,.21-.8,2.17-.3,2.83-.59,.7-.31,1.27-.86,1.66-1.5,.45-.73,.66-1.58,.66-2.43,.85-.31,1.85-.78,2.66-.78,0-.29,2.04-.2,2.04-.43,1.15-.07,2.28-.21,3.43-.37,1.02-.15,2.2-.42,3.1-.53,.45-.05,.62-.23,1-.23,0-.23,.8-.09,.8-.35,.51-.1,.63-.27,1.15-.43Z"/></svg>