<?xml version="1.0" encoding="UTF-8"?><svg id="Layer_1" xmlns="http://www.w3.org/2000/svg" viewBox="0 0 377 73.1"><defs><style>.cls-1{fill:#fff;}</style></defs><path class="cls-1" d="M13.45,47.65v25.45H0V.8H23.55c4.83,0,9.02,.57,12.55,1.7,3.53,1.13,6.45,2.72,8.75,4.75,2.3,2.03,4,4.47,5.1,7.3,1.1,2.83,1.65,5.93,1.65,9.3s-.58,6.71-1.75,9.62c-1.17,2.92-2.92,5.42-5.25,7.52-2.33,2.1-5.25,3.73-8.75,4.9-3.5,1.17-7.6,1.75-12.3,1.75H13.45Zm0-10.5h10.1c2.47,0,4.62-.31,6.45-.92,1.83-.62,3.35-1.5,4.55-2.65,1.2-1.15,2.1-2.55,2.7-4.2s.9-3.49,.9-5.52-.3-3.68-.9-5.25c-.6-1.57-1.5-2.9-2.7-4-1.2-1.1-2.72-1.94-4.55-2.52-1.83-.58-3.98-.88-6.45-.88H13.45v25.95Z"/><path class="cls-1" d="M109.65,.8V11.5h-32.05V31.55h25.25v10.35h-25.25v20.45h32.05v10.75h-45.6V.8h45.6Z"/><path class="cls-1" d="M186.85,73.1h-10.4c-1.17,0-2.12-.29-2.88-.88-.75-.58-1.29-1.31-1.62-2.17l-5.4-14.75h-29.95l-5.4,14.75c-.27,.77-.79,1.47-1.58,2.1-.78,.63-1.74,.95-2.88,.95h-10.45L144.7,.8h13.75l28.4,72.3Zm-46.8-27.3h23.05l-8.8-24.05c-.4-1.07-.84-2.32-1.32-3.77-.48-1.45-.96-3.02-1.43-4.73-.47,1.7-.92,3.28-1.38,4.75-.45,1.47-.89,2.75-1.32,3.85l-8.8,23.95Z"/><path class="cls-1" d="M210.2,31.1h3.15c1.27,0,2.32-.17,3.15-.52,.83-.35,1.55-.91,2.15-1.68L238.6,3.65c.83-1.07,1.71-1.81,2.62-2.22,.92-.42,2.08-.62,3.48-.62h11.6l-24.35,30.05c-.77,.93-1.5,1.72-2.2,2.35-.7,.63-1.45,1.15-2.25,1.55,1.1,.4,2.09,.97,2.97,1.7,.88,.73,1.74,1.67,2.58,2.8l25.1,33.85h-11.9c-1.6,0-2.79-.23-3.58-.67-.78-.45-1.44-1.11-1.97-1.98l-20.45-26.7c-.67-.87-1.42-1.49-2.25-1.88-.83-.38-2.02-.57-3.55-.57h-4.25v31.8h-13.45V.75h13.45V31.1Z"/><path class="cls-1" d="M290.9,0C294.23,0,297.28,.49,300.05,1.48c2.77,.98,5.13,2.38,7.1,4.17,1.97,1.8,3.5,3.97,4.6,6.5,1.1,2.53,1.65,5.35,1.65,8.45,0,2.67-.39,5.13-1.17,7.4-.78,2.27-1.83,4.43-3.15,6.5-1.32,2.07-2.86,4.07-4.62,6-1.77,1.93-3.62,3.9-5.55,5.9l-16.3,16.65c1.6-.47,3.17-.83,4.7-1.08s3-.38,4.4-.38h18.55c1.33,0,2.39,.38,3.17,1.12s1.17,1.74,1.17,2.98v7.4h-49.6v-4.1c0-.83,.17-1.7,.52-2.6,.35-.9,.91-1.73,1.68-2.5l21.95-22c1.83-1.87,3.48-3.65,4.93-5.35,1.45-1.7,2.67-3.38,3.65-5.05,.98-1.67,1.73-3.36,2.25-5.07s.78-3.53,.78-5.43c0-1.73-.25-3.26-.75-4.57-.5-1.32-1.22-2.43-2.15-3.33-.93-.9-2.04-1.58-3.33-2.02-1.28-.45-2.72-.68-4.32-.68-2.97,0-5.41,.75-7.33,2.25-1.92,1.5-3.26,3.52-4.03,6.05-.37,1.27-.92,2.17-1.65,2.73-.73,.55-1.67,.82-2.8,.82-.5,0-1.05-.05-1.65-.15l-6.5-1.15c.5-3.47,1.47-6.51,2.9-9.12,1.43-2.62,3.23-4.8,5.38-6.55,2.15-1.75,4.62-3.07,7.4-3.95C284.71,.44,287.7,0,290.9,0Z"/><path class="cls-1" d="M367.9,45.85h9.1v7.15c0,.67-.22,1.24-.65,1.73-.43,.48-1.07,.73-1.9,.73h-6.55v17.65h-10.8v-17.65h-30.5c-.83,0-1.57-.26-2.2-.77-.63-.52-1.03-1.16-1.2-1.93l-1.25-6.25L356.2,.75h11.7V45.85Zm-10.8-23.65c0-1.07,.03-2.22,.1-3.45,.07-1.23,.18-2.52,.35-3.85l-22.45,30.95h22V22.2Z"/></svg>