<?xml version="1.0" encoding="UTF-8"?><svg id="Layer_1" xmlns="http://www.w3.org/2000/svg" viewBox="0 0 532.13 534.75"><defs><style>.cls-1,.cls-2,.cls-3,.cls-4{fill:#fff;}.cls-2{opacity:.5;}.cls-3{opacity:.75;}.cls-4{opacity:.25;}</style></defs><g><path class="cls-2" d="M248.22,72.24c2.82-2.2,4.07-4.94,5.13-7.82,2.22-6.04,4.23-12.16,7.39-17.83,1.39-2.5,2.21-5.31,3.27-7.99,1.06-2.68,2.04-5.39,3.12-8.06,1.31-3.23,2.68-6.43,4.02-9.65,.62-1.49,1.26-2.97,1.87-4.47,1.73-4.22,4.66-7.43,8.25-10.17,3.53-2.69,7.44-3.67,11.76-2.94,4.61,.77,9.22,1.55,13.78,2.52,1.97,.42,3.94,1.12,5.73,2.05,3.15,1.65,4.1,4.32,3.09,7.75-.22,.73-.5,1.44-.82,2.14-5.12,11.14-10.78,21.99-17.81,32.08-1.31,1.88-2.51,3.85-3.58,5.88-8.62,16.33-16.48,33.01-23,50.3-4.68,12.41-9.3,24.83-13.97,37.24-.78,2.07-1.58,4.13-2.51,6.13-1.99,4.28-3.08,8.77-3.91,13.41-1.14,6.35-2.66,12.63-4.09,18.92-1.47,6.46-3.16,12.87-4.49,19.36-.71,3.48-.78,7.09-1.29,10.61-.47,3.28-1.2,6.52-1.71,9.79-.55,3.52-.91,7.07-1.47,10.59-.65,4.11-1.2,8.25-2.18,12.28-1.82,7.58-2.48,15.24-2.51,23.01-.02,6.29-.11,12.59-.54,18.86-.57,8.39-1.49,16.76-2.26,25.14-.22,2.37-.3,4.76-.65,7.1-1.15,7.57-7.62,11.68-15,9.61-2.12-.6-4.3-1.04-6.36-1.81-1.73-.64-3.31-1.67-4.97-2.5-1.5-.76-2.95-1.83-4.54-2.18-5.55-1.23-8.13-5.01-8.93-10.19-.41-2.65-.27-5.4-.19-8.1,.16-5.35,.51-10.7,.66-16.06,.05-1.6-.21-3.22-.43-4.81-.32-2.38-.34-4.71,.3-7.08,.41-1.53,.65-3.23,.43-4.77-.79-5.5-.82-11.01-.8-16.54,0-1.45-.31-2.9-.73-4.35-1.52,2.71-1.85,5.67-2.35,8.56-.64,3.68-.99,7.42-1.71,11.08-.69,3.49-1.62,6.94-2.61,10.37-.83,2.88-1.31,5.77-1.43,8.77-.22,5.77-.56,11.54-.93,17.31-.08,1.25-.38,2.53-.8,3.72-.7,2-1.91,2.68-3.98,2.15-1.21-.31-2.4-.88-3.47-1.54-1.59-.98-3.11-2.09-4.58-3.24-3.68-2.88-7.36-5.77-10.96-8.76-1.76-1.46-3.41-3.08-4.95-4.78-3.14-3.47-4.95-7.56-4.86-12.28,.17-8.84,.49-17.68,.72-26.52,.29-11.3,1.73-22.57,1.13-33.9-.07-1.36-.27-2.71-.34-4.06-.18-3.58-.06-7.14,.86-10.63,1.31-4.98,.99-10.13,1.51-15.2,.64-6.25,1.24-12.51,1.83-18.76,.37-3.89,.53-7.81,1.05-11.68,.63-4.62,1.48-9.22,2.34-13.81,1.28-6.84,2.41-13.73,4.07-20.49,1.35-5.48,2.23-10.97,2.56-16.58,.3-5.11,1.16-10.14,2.53-15.06,3.24-11.62,5.4-23.52,9.19-35,2.02-6.13,3.92-12.31,5.76-18.5,.8-2.68,1.33-5.44,1.91-8.19,1.09-5.25,3.8-9.32,8.24-12.41,7.62-5.3,15.98-9.02,24.76-11.84,9.8-3.15,19.78-5.61,29.98-7.07,7.5-1.07,15.06-1.5,22.64-1.26,2.44,.08,3.41,1.03,3.26,3.5-.09,1.42-.37,2.88-.86,4.22-.96,2.63-2.02,5.24-3.22,7.77-7.52,15.92-12.76,32.57-16.34,49.78-.4,1.91-.75,3.83-1.11,5.75-.04,.24,.03,.5,.07,1.16Zm-36.12-28.76c-1.66-.24-2.87,.16-3.66,1.23-.99,1.35-2.11,2.76-2.59,4.32-1.36,4.37-2.49,8.82-3.59,13.27-.83,3.34-1.94,6.52-4.05,9.28-1.73,2.27-2.85,4.83-3.5,7.59-.47,1.98-.89,3.99-1.15,6-.84,6.44-2.37,12.68-5.08,18.62-2.55,5.58-4.29,11.4-5.48,17.46-1.56,8-3.68,15.89-5.57,23.82-2.04,8.53-3.54,17.13-3.8,25.94-.24,8.16-.85,16.29-1.86,24.4-.79,6.34-.34,12.74,.01,19.11,.02,.3,.19,.58,.41,1.19,1.37-2.95,2.05-5.74,2.44-8.58,1.14-8.42,2.52-16.79,4.54-25.06,.76-3.12,1.06-6.36,1.53-9.55,.8-5.46,1.32-10.98,2.42-16.39,2.78-13.65,5.72-27.27,8.78-40.85,1.36-6.04,3.45-11.93,4.71-17.99,2.35-11.24,5.24-22.32,8.72-33.26,.98-3.07,1.84-6.22,2.3-9.39,.47-3.21,1.57-6.06,3.25-8.76,.43-.69,.76-1.45,1.23-2.37Zm4.41,143.16c1.48-1.2,1.57-2.9,1.92-4.39,2.14-9.17,4.25-18.35,6.25-27.55,1.81-8.31,3.98-16.49,7.63-24.23,.97-2.06,1.71-4.27,2.29-6.47,.45-1.7,.75-3.52,.62-5.25-.12-1.49,.11-2.82,.43-4.23,.4-1.81,.71-3.65,.82-5.5,.1-1.67-.78-3-2.1-4.19-.25,.46-.4,.66-.49,.88-3.02,7.66-5.97,15.35-9.06,22.98-5.11,12.63-8.1,25.7-8.84,39.31-.2,3.63-.84,7.24-1.23,10.86-.15,1.35-.29,2.71-.21,4.06,.08,1.44,.61,2.77,1.97,3.73Z"/><path class="cls-3" d="M345.18,158.87c.13,1.48,1.06,1.63,1.86,1.76,4.35,.72,8.68,1.61,13.15,1.16,3.55-.36,7.13-.45,10.69-.72,8.82-.68,17.65-.86,26.5-.6,9.35,.27,18.72-.02,28.08-.04,4.05-.01,5.15,.92,5.66,4.9,.18,1.42,.2,2.88,.16,4.31-.06,2.46-.31,4.92-.34,7.39-.08,7.36-1.09,14.58-3.08,21.65-2.12,7.55-7.05,13.01-13.74,16.7-2.82,1.55-6.27,2.03-9.48,2.78-2.64,.61-5.39,.77-8.04,1.37-3.39,.77-6.68,2-10.09,2.66-6.08,1.18-12.21,2.13-18.33,3.11-5.03,.81-10.08,1.52-15.12,2.28-.5,.08-1,.27-1.5,.26-5.15-.09-10.1,1.35-15.17,1.82-4.48,.41-9,.27-13.51,.33-.49,0-1.03-.13-1.47-.36-2.37-1.23-4.83-1.07-7.19-.22-6.15,2.2-12.46,2.22-18.87,1.94-7.39-.32-14.8-.33-22.19-.26-4.93,.05-9.84,.54-14.67,1.64-2.41,.55-4.86,.75-7.34,.35-4.25-.69-6.44-2.91-6.38-7.21,.04-2.86,.51-5.75,1.08-8.57,1.25-6.16,2.84-12.25,4.01-18.43,1.32-6.95,3.39-13.66,5.42-20.42,1.75-5.84,2.83-11.89,4.14-17.87,1.2-5.5,2.84-10.84,5.06-16.02,.9-2.09,1.44-4.34,2.02-6.55,1.2-4.6,3-6.17,7.75-6.01,2.7,.09,5.44,.45,8.06,1.09,7.29,1.78,14.69,2.82,22.14,3.44,11.69,.98,23.4,1.75,35.1,2.61,6.11,.44,12.21,.9,18.32,1.29,7.59,.48,15.1-.21,22.59-1.5,5.02-.86,10.11-1.31,15.18-1.83,5.24-.54,10.49-1.13,15.75-1.34,4.31-.17,8.65,.16,12.97,.31,.66,.02,1.32,.3,1.98,.48,3.13,.83,4.55,3.03,4.92,6.11,.35,2.84-.79,4.98-3.07,6.54-2.3,1.57-4.94,2.23-7.66,2.59-11.63,1.51-23.25,3.09-34.89,4.48-9.54,1.14-19.08,2.35-28.71,2.28-2.98-.02-5.95-.15-8.93-.14-.95,0-1.9,.31-2.81,.47Zm-69.99,39.39l-.22,.66c.93,.47,1.82,1.16,2.81,1.37,3.82,.8,7.65,1.57,11.51,2.11,2.86,.4,5.77,.39,8.65,.65,8.16,.73,16.29,.66,24.41-.58,3.85-.59,7.76-.88,11.65-1.17,5.17-.38,10.38-.4,15.51-1.01,3.6-.43,7.12-1.57,10.66-2.46,.75-.19,1.63-.39,2-1.66-1.91,0-3.6-.03-5.29,0-10.8,.21-21.6,.42-32.4,.64-6.55,.13-13.1,.25-19.64,.43-3.57,.1-7.14,.41-10.7,.42-4.51,.01-9.01-.22-13.52-.28-1.85-.03-3.7,.12-5.42,.89Z"/><path class="cls-2" d="M274.97,269.75c-.17,1.75,.62,2.8,1.39,3.75,2.19,2.71,4.37,5.45,6.77,7.96,10.19,10.68,21.23,20.35,33.55,28.55,3.46,2.3,6.75,4.9,9.84,7.67,3.32,2.97,3.03,4.57-.82,6.77-3.87,2.21-8.1,3.54-12.42,4.5-2.45,.55-4.93,.05-7.29-.7-2.1-.67-4.2-1.38-6.21-2.28-7.34-3.27-13.99-7.71-20.36-12.56-1.54-1.18-2.85-2.67-4.22-4.07-3.38-3.47-6.59-7.13-10.14-10.41-5.93-5.48-10.83-11.74-14.92-18.66-1.21-2.05-2.23-4.22-3.54-6.2-4.09-6.19-5.13-13.05-4.55-20.25,.19-2.36,.6-4.71,1.06-7.04,.22-1.15,.67-2.29,1.18-3.36,1.59-3.35,3.71-4.68,7.35-4.14,3.74,.55,7.46,.55,11.19,.26,3.25-.25,6.43-.02,9.64,.46,1.99,.3,4.06,0,6.09-.06,1.02-.03,2.05-.33,3.04-.22,4.88,.53,9.63-.37,14.43-1.02,5.13-.69,10.31-1.07,15.47-1.37,8.48-.5,16.98-.87,25.47-1.19,2.45-.09,4.92,.3,7.38,.26,2.02-.03,4.07-.19,6.04-.61,3.48-.74,4.95-.29,6.95,2.66,1.19,1.76,2.26,3.6,3.54,5.3,3.6,4.8,7.96,8.82,12.88,12.27,3.83,2.69,7.63,5.42,11.37,8.22,1.42,1.06,2.77,2.27,3.95,3.6,2.26,2.56,2.45,5.26,.73,8.23-.59,1.02-1.33,1.98-2.09,2.89-7.96,9.63-17.18,17.94-27.24,25.28-4.93,3.6-10.33,6.55-15.56,9.74-1.01,.61-2.15,1.02-3.25,1.46-4.06,1.61-8.04,1.5-11.64-1.11-3.3-2.39-6.58-4.84-9.61-7.55-3.95-3.52-8.09-6.75-12.42-9.77-3.35-2.33-6.63-4.77-9.89-7.22-1.08-.81-2.07-1.76-3.05-2.69-5.23-4.99-10.42-10.02-15.69-14.97-1.14-1.07-2.39-2.15-4.39-2.38Zm47.83-21.43l-.49,.42c.41,1.24,.72,2.53,1.25,3.72,2.69,5.96,6.79,10.72,12.33,14.24,3.65,2.32,7.24,4.75,10.88,7.1,.69,.44,1.47,.73,2.26,1.11,.72-1.42,.15-2.45-.57-3.23-1.82-2-3.56-4.18-5.73-5.73-4.61-3.31-8.45-7.31-12.06-11.64-1.4-1.68-3.11-3.13-4.82-4.51-.85-.69-2.02-1-3.05-1.48Z"/><path class="cls-4" d="M356.44,74.51c-.74,1.49-.26,2.53,.37,3.41,.78,1.1,1.64,2.2,2.66,3.07,7.3,6.26,12.55,14.08,16.85,22.54,2.85,5.6,5.26,11.42,7.7,17.22,.78,1.85,1.25,3.91,1.41,5.9,.26,3.23-.69,4.12-3.93,4.18-3.32,.06-6.64,.09-9.95-.02-5.96-.19-11.88-.17-17.78,.99-4.11,.81-8.26,.76-12.44,.24-4.21-.52-8.46-.8-12.71-.98-2.64-.11-4.17-1.38-5.35-3.61-2.62-4.96-5.44-9.81-8.08-14.76-2.83-5.31-6.92-9.45-11.77-12.87-3.62-2.55-7.29-5.01-10.97-7.46-4.53-3.01-5.96-6.57-3.3-12.33,2.24-4.86,4.72-9.61,7.07-14.42,1.83-3.74,3.54-7.54,5.45-11.23,1.05-2.02,2.23-4.03,3.67-5.76,1.28-1.54,2.22-3.17,3.02-4.97,.79-1.77,1.66-3.54,2.76-5.13,2.08-3.01,4.27-5.94,6.55-8.8,1.43-1.79,3.04-3.44,4.67-5.05,3.1-3.06,6.71-3.57,10.52-1.54,3.45,1.84,6.77,3.92,10.14,5.89,3.82,2.23,7.64,4.46,11.46,6.67,5.64,3.27,10.54,7.46,15.14,12.04,4.16,4.14,8.25,8.35,12.38,12.52,.6,.6,1.23,1.18,1.9,1.7,2.27,1.75,3.99,3.95,5.21,6.52,2.17,4.57,5.11,8.6,8.2,12.57,2.18,2.8,4.2,5.8,5.84,8.94,4.54,8.66,9.04,17.35,12.31,26.59,.76,2.16,1.45,4.36,1.95,6.59,.73,3.25-.77,5.25-4.09,5.68-.93,.12-1.87,.08-2.8,.16-3.3,.27-6.63,.22-9.84,1.26-.79,.26-1.68,.24-2.53,.32-4.6,.47-7.26-1.38-7.85-5.96-.59-4.62-2.12-8.92-3.72-13.21-3.4-9.13-7.61-17.83-13.82-25.44-3.43-4.2-7.39-7.77-12.38-10.04-1.27-.58-2.63-.95-3.96-1.41Zm-45.58-2.04c.36,2.51,.76,3.28,3.35,4.95,3.19,2.05,5.92,4.57,8.32,7.46,3.16,3.81,6.6,7.31,10.42,10.46,2.25,1.86,4.08,4.06,5.37,6.72,.59,1.21,1.38,2.34,2.2,3.42,.58,.77,1.29,1.53,2.52,1.36-4.47-13.64-18.49-30.91-32.17-34.37Z"/><path class="cls-3" d="M130.92,176.88c-1.99-2.46-4.3-3.59-6.76-4.6-7.86-3.23-15.7-6.52-23.49-9.91-3.43-1.5-4.98-4.6-4.47-8.35,.18-1.35,.51-2.67,.74-4.01,.88-5.19,1.65-10.4,2.63-15.57,.89-4.67,1.97-9.3,3.02-13.94,.2-.9,.57-1.79,1.01-2.6,1.06-1.99,2.12-2.49,4.39-2.01,4.57,.96,9.12,2.04,13.7,2.95,1.48,.3,3.04,.3,4.57,.29,1.5,0,2.52-.81,3.17-2.57-.97-.36-1.84-.81-2.77-1.01-5.57-1.19-10.58-3.68-15.36-6.67-2.7-1.69-3.07-2.73-2.23-5.78,1.81-6.55,4.89-12.49,8.98-17.9,.31-.41,.69-.75,1.03-1.13,1.34-1.5,2.84-1.92,4.77-1.04,4.26,1.93,8.55,3.78,12.86,5.6,4.39,1.85,8.85,3.48,13.54,4.46,1.65,.34,3.27,.95,4.8,1.67,2.22,1.05,2.67,2.24,2.04,4.56-.04,.16-.1,.33-.17,.48-1.19,2.67-1.48,5.53-1.96,8.39-.96,5.6-2.33,11.14-3.57,16.69-1.48,6.63-3.08,13.24-4.47,19.89-.53,2.57-.87,5.23-.85,7.84,.03,5.14-.76,10.16-1.7,15.18-.75,4.01-1.54,8-2.24,12.02-.33,1.92-.26,3.82,.14,5.8,.38,1.86,.13,3.88-.06,5.82-.5,5.15-1.18,10.29-1.66,15.44-.13,1.41,.27,2.87,.3,4.31,.03,1.61-.33,2.01-1.93,1.96-1.43-.05-2.88-.26-4.29-.55-8.19-1.66-16.22-3.81-23.71-7.63-1.74-.89-3.41-1.92-5.04-2.99-5.04-3.27-7.75-7.94-8.34-13.92-.32-3.22-.64-6.4-.18-9.65,.21-1.44-.29-3-.54-4.49-.13-.75-.53-1.45-.63-2.2-.2-1.45,.7-2.64,2.15-2.49,1.58,.16,3.14,.67,4.65,1.18,7.01,2.34,14.02,4.71,21.01,7.11,2.33,.8,4.47,.29,6.91-.64Z"/><path class="cls-4" d="M237.49,317.1c.08-1.17,.24-3.2,.34-5.23,.07-1.44,.26-2.92,.02-4.32-.64-3.86-.04-7.58,.64-11.36,.45-2.48,.43-5.05,.58-7.57,.11-1.86,.06-3.73,.28-5.57,.16-1.34,.93-2.36,2.45-2.52,1.5-.16,2.46,.6,2.98,1.89,2.85,7.07,7.76,12.7,12.72,18.3,.67,.76,1.28,1.59,1.79,2.47,1.29,2.24,2.81,4.22,5.1,5.57,.7,.41,1.18,1.19,1.74,1.82,1.63,1.83,3.12,3.8,4.9,5.47,2.73,2.55,5.68,4.86,8.47,7.35,.85,.75,2.14,1.49,1.71,2.87-.4,1.29-1.8,1.48-2.95,1.68-4.78,.86-9.61,1.25-14.46,.92-5.08-.35-10.17-.67-15.21-1.39-3.25-.46-6.39-1.63-9.59-2.46-.92-.24-1.17-.89-1.22-1.71-.1-1.78-.18-3.56-.32-6.21Z"/><path class="cls-4" d="M373.32,231.92c3.25,.37,6.43-.03,9.61-.78,6.13-1.46,12.12-3.33,17.86-5.96,2.64-1.21,5.37-2.13,8.36-1.94,2.6,.16,3.73,1.27,3.52,3.9-.11,1.34-.36,2.74-.92,3.94-1.7,3.7-3.59,7.31-5.4,10.96-1.32,2.65-2.71,5.28-3.92,7.98-.88,1.98-1.84,3.78-3.81,4.94-.85,.5-1.52,1.34-2.22,2.09-2.37,2.53-3.97,2.78-6.91,.84-2.06-1.36-4.04-2.83-6.02-4.3-3.9-2.88-7.79-5.77-11.65-8.7-1.76-1.34-3.48-2.73-5.12-4.21-.88-.79-1.66-1.73-2.29-2.72-1.8-2.84-.77-5.16,2.55-5.83,.74-.15,1.52-.18,2.28-.2,1.36-.03,2.72,0,4.08,0Z"/><path class="cls-4" d="M154.23,86.33c-1.29-.34-3.53-.82-5.7-1.53-3.95-1.29-7.87-2.69-11.78-4.08-.95-.34-1.9-.77-2.75-1.31-1.86-1.18-2.16-2.49-.89-4.27,.93-1.31,2.13-2.43,3.07-3.74,5.32-7.4,11.21-14.33,17.84-20.58,2.96-2.79,6.13-5.37,9.3-7.93,1.03-.83,2.32-1.45,3.59-1.86,1.6-.52,2.55,0,2.7,1.69,.18,2.08,.03,4.22-.2,6.3-1.19,10.5-4.41,20.55-7.1,30.71-.3,1.14-.76,2.26-1.28,3.32-1.17,2.38-3.15,3.46-6.77,3.3Z"/><path class="cls-4" d="M140.96,227.63c-.14,1.26-.33,2.52-.41,3.79-.37,5.76-.8,11.52-1.01,17.28-.11,2.87,.22,5.76,.3,8.64,.05,1.86,.12,3.74-.03,5.6-.09,1.18-.52,2.42-1.89,2.76-1.33,.33-2.54-.07-3.47-1.1-.45-.5-.82-1.08-1.2-1.64-1.69-2.55-3.28-5.16-5.06-7.64-6.34-8.86-10.59-18.76-14.31-28.91-.99-2.71-2.06-5.39-3.09-8.08-.39-1.02-1.17-2.29-.2-3.06,.71-.57,2.07-.57,3.1-.47,1.25,.12,2.53,.47,3.68,.99,5.09,2.31,10.49,3.31,15.98,3.99,1.17,.15,2.3,.57,3.45,.88,2.79,.74,3.98,2.69,4.08,5.44,.02,.51,0,1.02,0,1.53h.1Z"/><path class="cls-2" d="M309.02,129.98c-.4-.05-1.37-.02-2.24-.3-5.24-1.68-10.69-1.83-16.1-2.27-4.94-.41-9.69-1.64-14.46-2.87-.25-.06-.48-.17-.72-.26-3.4-1.28-4.05-2.69-2.61-6.07,.6-1.4,1.32-2.77,2.16-4.04,2.11-3.15,3.38-6.62,4.41-10.24,.71-2.52,1.65-5,2.78-7.36,1.19-2.49,2.45-2.75,4.66-1.19,3.39,2.41,6.73,4.9,10.05,7.41,3.5,2.64,6.31,5.92,8.7,9.58,2.14,3.27,4.25,6.56,6.32,9.87,.63,1,1.19,2.07,1.58,3.18,.93,2.61-.25,4.35-2.99,4.56-.34,.03-.68,0-1.55,0Z"/></g><path class="cls-1" d="M0,400.01c.32-.26,.81-.45,.93-.78,.61-1.67,1.88-2.48,3.42-3.18,2.86-1.3,5.81-1.7,8.92-1.65,4,.07,8-.09,11.99-.07,1.52,0,3.05,.29,4.57,.36,3.5,.17,5.84,2.05,7.45,5.01,2.07,3.81,3.16,7.8,2.88,12.22-.55,8.74-.85,17.5-1.33,26.25-.24,4.49-1.79,8.64-3.9,12.53-.64,1.19-2.04,2.01-3.2,2.86-1.77,1.3-3.64,2.48-5.57,3.78,3.07,1.87,6.01,3.67,8.95,5.45,2.3,1.39,3.88,3.18,3.97,6.08,.04,1.34,.59,2.65,.74,4,.13,1.15,.02,2.32,.03,3.49,.02,2.03,0,4.06,.1,6.09,.11,2.03,.44,4.05,.5,6.09,.08,2.96-.79,3.95-3.67,4.51-.25,.05-.52,0-.75,.09-3.35,1.29-6.37,.45-9.38-1.87,.03,.12-.09-.2-.1-.53-.2-5.09-.5-10.19-.55-15.28-.03-3.08-1.22-5.15-4.01-6.43-1.98-.91-3.88-1.98-6.11-3.13-.07,1-.15,1.64-.14,2.28,.03,5.62,.13,11.23,.09,16.85-.01,1.5-.2,3.1-.73,4.48-.84,2.19-3.92,3.34-6.93,3.02-2.35-.25-4.01-1.69-5.67-3.13-.32-.28-.43-.91-.48-1.39-.08-.76-.04-1.53-.04-2.3,0-22.81,.05-45.62-.06-68.43-.01-3.11-.8-6.21-1.28-9.31-.07-.46-.43-.87-.66-1.31,0-2.21,0-4.43,0-6.64Zm25.27,5.21H15.91v45.02c1.92-1.18,3.51-2.11,5.03-3.13,.69-.47,1.52-1.01,1.83-1.72,1.23-2.86,2.89-5.59,2.74-8.9-.18-4.07-.32-8.14-.36-12.21-.04-3.56,.09-7.13,.12-10.69,.02-2.78,0-5.55,0-8.37Zm506.86-6.23c-.6-1.07-.98-2.36-1.82-3.17-2.87-2.75-7.99-1.84-9.81,1.71-.73,1.42-1.27,2.98-1.65,4.54-1.4,5.69-2.66,11.41-4.06,17.1-.39,1.56-1.11,3.04-1.73,4.68-.42-.38-.61-.47-.65-.6-2.47-7.94-4.98-15.87-7.37-23.84-.98-3.27-3.68-5.16-7.62-5.02-3.57,.12-6.07,2.18-6.45,5.65-.15,1.38,.2,2.88,.6,4.24,2.6,8.88,5.21,17.76,7.95,26.59,1.66,5.35,3.2,10.78,5.49,15.86,1.22,2.71,1.59,5.27,1.58,8.05,0,1.53-.07,3.06-.12,4.59-.28,9.09-.58,18.19-.85,27.28-.1,3.34,1.75,6,4.55,6.45,.89,.14,1.83-.05,2.75-.1,3.58-.2,5.47-2,5.59-5.55,.31-9.59,.53-19.19,.83-28.79,.26-8.1,1.03-16.1,4.07-23.74,.68-1.71,1.39-3.58,1.37-5.37-.04-2.81,.62-5.36,1.53-7.93,1.27-3.6,2.49-7.23,3.64-10.87,.8-2.54,1.46-5.12,2.18-7.69v-4.09Zm-199.99,43.72c-.05,9.1-.07,18.2-.16,27.29-.05,5.32-1.02,10.41-3.45,15.26-1.5,2.99-3.6,5.11-6.56,6.46-4.04,1.85-8.41,2.02-12.73,2.03-3.47,0-6.26-1.97-8.77-4.23-1.01-.91-1.87-2-2.92-2.85-2.07-1.68-2.9-3.96-3.25-6.44-.45-3.19-.9-6.4-1.06-9.62-.31-6.2-.63-12.41-.54-18.61,.07-5,.73-10,1.1-15,.13-1.69,.27-3.39,.28-5.09,.02-7.31-.06-14.63,0-21.94,.03-3.65,.92-7.05,3.44-9.89,1.9-2.15,4.17-3.49,7.11-3.39,1.74,.06,3.29-.51,4.93-.96,4.89-1.35,9.88-1.34,14.19,1.61,2.62,1.8,4.75,4.34,6.97,6.67,.66,.69,.98,1.75,1.33,2.69,1.35,3.65,1.54,7.42,1.33,11.29-.44,8.23-.71,16.48-1.05,24.72h-.19Zm-13.01-4.24c0-7.91-.04-15.83,.03-23.74,.01-1.4-.35-2.5-1.39-3.37-1.24-1.03-2.47-2.08-3.8-3-1.44-.99-3.07-1.02-4.63-.34-.52,.22-1.13,.88-1.19,1.39-.56,5.23-1.32,10.47-1.42,15.72-.25,13.52-.26,27.05-.17,40.58,.02,3.02,.75,6.05,1.38,9.03,.25,1.19,.95,2.37,1.7,3.36,1.31,1.72,2.73,2.01,4.74,1.29,1.25-.44,2.18-1.21,2.89-2.36,2.22-3.57,2.62-7.47,2.32-11.54-.2-2.71-.41-5.42-.44-8.13-.06-6.3-.02-12.59-.02-18.89Zm-174.37,33.74c.14,4.84-.07,9.69,.18,14.51,.18,3.59,3.63,5.88,7.05,4.71,1.61-.55,3.14-1.72,4.33-2.96,.61-.63,.46-2.05,.54-3.12,.15-2.2,.17-4.42,.32-6.62,.34-4.74,.93-9.48,1.05-14.22,.18-7.4,.06-14.8,.04-22.2-.01-5.19-.06-10.37-.1-15.56-.03-4.83-.14-9.67-.07-14.5,.05-3.82,.29-7.65,.48-11.47,.08-1.67-.69-2.85-1.78-4.04-1.72-1.89-3.92-1.77-6.12-1.84-3.44-.11-5.59,1.91-5.56,5.31,.1,11.99,.23,23.99,.33,35.98,.02,2.87,0,5.73,0,8.82-4.08-.14-8,.39-12.17-.06,0-3.64-.17-7.04,.03-10.42,.49-8.23,1.22-16.45,1.72-24.68,.26-4.33,.21-8.67,.3-13.01,.02-.78,.01-1.81-.94-1.82-2.68-.04-5.32-1.03-8.06-.03-2.54,.92-3.02,1.42-3.12,4.2-.14,3.82-.37,7.64-.54,11.46-.23,5.01-.44,10.02-.66,15.02-.18,4.08-.32,8.16-.59,12.23-.25,3.73-.86,7.44-.92,11.17-.21,11.91-.24,23.82-.32,35.72,0,1.44,.07,2.89,.19,4.33,.19,2.2,1.77,3.7,3.91,3.3,2.96-.55,5.82-1.54,6.95-4.81,.44-1.28,.99-2.6,1.04-3.91,.2-5.26,.3-10.53,.27-15.8-.02-3.64-.32-7.29-.5-11.07h11.98c.26,5.23,.59,10.3,.74,15.38Zm334.47-7.56c-3.19,.21-6.39,.42-9.75,.64-.1,.53-.27,1.08-.29,1.64-.26,6.63-.56,13.25-.69,19.88-.04,2.08-.95,3.35-2.66,4.25-1.74,.92-3.53,1.59-5.58,1.51-2.51-.09-4.44-2.02-4.26-4.64,.51-7.21,1.01-14.43,1.18-21.65,.18-7.71,2.32-15.1,3.18-22.69,.95-8.36,1.71-16.74,2.88-25.06,.9-6.38,2.3-12.7,3.54-19.03,.36-1.8,1.31-3.27,3.03-4.19,2.59-1.39,3.72-1.32,5.9,.7,1.18,1.1,2.28,2.28,3.44,3.41,1.79,1.74,2.1,4.09,2.31,6.33,.84,8.75,3.2,17.2,4.8,25.79,1.03,5.51,2.32,10.96,3.38,16.46,.3,1.57,.12,3.23,.26,4.83,.3,3.46,.56,6.93,1.04,10.36,.87,6.23,1.86,12.44,2.87,18.65,.63,3.91-.99,6.97-3.58,9.61-1.44,1.46-3.32,1.73-5.2,.9-1.92-.84-3.59-1.95-3.64-4.41-.07-3.49-.08-6.98-.35-10.45-.32-4.05-.9-8.08-1.39-12.12-.03-.22-.24-.42-.43-.72Zm-4.8-41.5l-.74,.05c-.76,10.16-1.52,20.33-2.3,30.68h6.82c-2.31-10.15-3-20.45-3.78-30.74Zm-92.94,39.76c.22,3.42,.43,6.7,.63,9.99,.13,2.11,.22,4.23,.36,6.34,.13,1.85,.41,3.69,.44,5.54,.02,1.07-.09,2.25-.54,3.19-1.41,2.97-3.94,4.55-7.12,5.04-2.36,.36-4.44-1.04-4.99-3.34-.29-1.23-.63-2.55-.45-3.76,.67-4.68-.09-9.33-.07-13.99,.03-5.52-.02-11.03-.08-16.55-.02-1.7-.27-3.39-.29-5.08-.08-6.62-.16-13.25-.14-19.87,.01-3.99,.29-7.97,.31-11.96,.02-5.44-.01-10.88-.22-16.31-.11-2.87,1.05-4.68,3.58-5.8,3.05-1.35,6.05-2.52,9.56-1.6,2.68,.71,5.4,.58,8.27,.14,3.34-.51,6.98,.06,9.42,3.18,.57,.74,1.24,1.4,1.79,2.15,.34,.46,.65,1,.79,1.55,.46,1.8,.86,3.61,1.24,5.42,.19,.91,.43,1.83,.41,2.74-.14,5.86-.34,11.72-.52,17.58-.02,.51-.13,1.02-.09,1.52,.5,6.82-.5,13.57-.92,20.35-.17,2.72-1.16,5.11-3.06,7.11-.47,.49-.91,1.02-1.26,1.6-.88,1.46-2.2,2.28-3.76,2.88-3.78,1.46-7.65,2.21-11.71,1.84-.48-.04-.97,.06-1.59,.11Zm.14-10.83c1.85,0,3.37-.05,4.88,.01,1.41,.06,2.29-.58,2.69-1.85,.52-1.69,1.19-3.4,1.35-5.14,.98-10.68,1.19-21.39,1.17-32.11,0-1.27-.24-2.54-.26-3.81-.02-1.11-.61-1.76-1.53-2.12-2.56-.98-5.2-1.28-8.26-.8,.03,15.26-.63,30.33-.03,45.82Zm-290.63,29.85c-3.01,.47-4.63-.75-5.31-3.76-.17-.74-.31-1.51-.31-2.26,.07-10.38,.14-20.76,.26-31.14,.1-8.51,.18-17.01,.42-25.52,.09-3.47,.53-6.93,.87-10.39,.14-1.42,.98-2.29,2.39-2.63,2.06-.5,4.15-.95,6.17-1.59,1.93-.62,3.85-1.35,5.67-2.23,1.36-.66,2.17-1.86,2.13-3.5-.04-1.7-1.08-2.62-2.49-3.21-.78-.33-1.59-.61-2.42-.76-3.47-.64-6.96-.54-10.4,.19-5.98,1.26-9.95,4.57-11.58,10.77-1.93,7.31-2.5,14.77-2.75,22.22-.53,15.47-.74,30.95-1.03,46.43-.11,5.79,1.97,10.79,5.91,15.02,1.72,1.85,3.88,2.75,6.35,2.81,2.63,.07,5.28,.09,7.91-.04,4.6-.24,9.09-1.04,13.41-2.8,2.07-.84,3.13-2.27,3.51-4.3,.33-1.75,.59-3.53,.7-5.3,.31-5.18,.72-10.36,.73-15.54,0-4.66-.39-9.34-.78-13.99-.23-2.74-2.13-4.73-4.42-4.83-4.77-.2-9.52,.1-14.17,1.31-2.46,.64-3.34,2.11-2.79,4.57,.54,2.38,1.96,4.15,4.15,5.2,1.51,.72,3.12,1.25,4.78,1.9,.39,7.05,.79,14.16,1.21,21.69-2.8,.59-5.43,1.27-8.1,1.68Zm91.05-69.95c.27,5.27,.4,10.55,.94,15.79,.99,9.67,1.12,19.35,.94,29.05-.17,9.69-.39,19.38-.55,29.08-.04,2.54,.89,4.17,3.39,5.58,3.52,1.99,6.38,.97,9.29-.66,1.4-.78,2.31-2.17,2.24-4.02-.12-3.4-.14-6.8-.18-10.2-.07-4.84-.26-9.69-.16-14.53,.11-5.84,1.14-11.67,.06-17.51-.2-1.08-.25-2.19-.33-3.29-.65-8.73-1.29-17.47-1.95-26.2-.19-2.59-.42-5.19-.65-7.97,.82,0,1.48,0,2.14,0,3.74,.02,7.48,.1,11.22,.06,2.58-.03,4.37-1.46,5.09-3.83,1.36-4.5-2.08-9.07-6.84-9.01-12.76,.16-25.51,.36-38.27,.55-2.56,.04-5.63,2.99-5.56,5.53,.03,.96,.31,2.16,.93,2.8,1.94,1.99,4.43,3.24,7.17,3.48,2.94,.25,5.92,.03,8.89,.01,.59,0,1.17,0,2.18,0,0,1.98-.07,3.65,.01,5.31Zm76.2-4.29c-.22,9.78,1.36,19.5,.84,29.29-.03,.5,.1,1.01,.13,1.52,.39,6.11,1,12.21,1.12,18.33,.2,10.12,.05,20.25,.12,30.38,.01,1.56,.39,3.12,.57,4.51,1.75,.46,3.13,.91,4.54,1.15,.9,.16,1.89,.17,2.77-.03,1.47-.34,2.86-1.01,4.32-1.33,1.48-.32,1.91-1.13,1.84-2.54-.22-4.16-.39-8.33-.54-12.49-.28-8.07-.56-16.15-.78-24.23-.09-3.4,.13-6.81-.05-10.2-.57-10.36-1.78-20.68-1.57-31.08,.03-1.22-.23-2.45-.36-3.77,.67-.05,1.09-.16,1.49-.1,3.73,.62,7.46,.07,11.19,.06,4.09,0,6.25-2.26,6.21-6.36-.04-3.56-2.49-5.89-6.19-5.9-10.72-.02-21.44,.04-32.16-.09-3.38-.04-6.57,.63-9.75,1.59-2.64,.8-3.96,4.18-2.34,6.4,1.73,2.36,3.9,4.09,7.2,3.92,3.64-.18,7.29-.04,11.02-.04,.21,.54,.38,.77,.37,1.01Zm165.77,59.09c-.05-.85-.02-1.7,0-2.55,.29-8.58,.56-17.16,.92-25.73,.15-3.65,.51-7.29,.77-10.93,.05-.76,.13-1.53,.14-2.29,.11-7.64-.71-15.28,.15-22.92,.11-1-.2-2.31-.81-3.07-1.32-1.64-2.96-3.02-4.48-4.5-.71-.69-1.48-.62-2.35-.28-2.99,1.17-4.66,3.21-4.75,6.53-.12,4.42-.5,8.83-.52,13.24-.04,7.46-.97,14.88-.56,22.37,.28,4.99-.11,10.02-.18,15.03-.05,3.57,.14,7.16-.14,10.71-.55,6.96-.69,13.92-.38,20.89,.08,1.94,.59,3.66,2.03,5.05,.36,.34,.64,.8,.86,1.24,.56,1.11,1.53,1.53,2.67,1.72,.67,.11,1.35,.18,2.01,.32,3.95,.82,7.85,.92,11.84-.02,4.03-.96,8.15-1.61,12.25-2.21,2.26-.33,4.31-1.05,6.03-2.48,.63-.52,1.23-1.58,1.17-2.34-.14-1.57-.81-3.09-1.11-4.65-.26-1.35-.96-2.1-2.26-2.42-2.4-.6-4.81-1.14-7.29-.65-5.09,1-10.21,1.48-15.31,.68-.25-3.66-.5-7.18-.72-10.71ZM62.73,429.88c0-8.42,.02-16.84-.01-25.26,0-1.87-.12-3.74-.31-5.59-.3-2.9-4.23-5.6-7.1-4.35-1.07,.47-2.07,1.11-3.16,1.55-1.35,.54-1.64,1.57-1.63,2.86,.03,2.04-.02,4.08,.02,6.12,.15,7.56,.35,15.11,.46,22.67,.03,1.86-.33,3.73-.34,5.6-.08,17.77-.14,35.55-.18,53.32,0,3.03,2.29,5.28,5.35,5.21,1.52-.04,3.05-.25,4.56-.47,2.56-.38,3.62-1.49,3.58-4.06-.06-4.5-.22-9.01-.42-13.51-.32-6.96-.88-13.91-1.04-20.88-.18-7.73-.04-15.47-.04-23.21h.27Zm335.84,99.93c.1,1.01,.05,2.06,.32,3.03,.14,.51,.84,1.2,1.28,1.19,.53,0,1.22-.57,1.53-1.08,.27-.45,.1-1.16,.14-1.75,.11-1.62,.22-3.24,.33-4.86,.57,.84,.69,1.66,.76,2.48,.11,1.27,.08,2.56,.32,3.8,.11,.54,.76,.98,1.16,1.46,.54-.47,1.23-.85,1.56-1.43,.25-.45,.09-1.16,.04-1.75-.54-6.52-1.1-13.03-1.63-19.55-.09-1.16-.73-1.71-1.78-1.74-.95-.02-1.58,.46-1.68,1.52-.15,1.61-.36,3.21-.54,4.81-.1,.88-.18,1.76-.26,2.64h-.48c-.85-2.75-1.7-5.51-2.58-8.36-.91,.15-1.55,.25-1.98,.32v23.52c4.13-1.53,2.19-4.81,3.1-7.65,.17,1.45,.29,2.42,.39,3.39Zm69.17-15.04c-.11-1.09-.25-2.19-.47-3.27-.23-1.09-.98-1.58-2.07-1.34-1.14,.25-1.05,1.14-.95,2.02,.19,1.68,.4,3.36,.49,5.05,.13,2.37,.08,4.76,.24,7.13,.17,2.54,.46,5.07,.73,7.6,.11,1,.52,1.87,1.7,1.84,1.2-.03,1.86-.7,1.88-1.94,0-.34,.01-.69,.1-1.01,.32-1.23,.68-2.45,1.02-3.67,.17,.02,.34,.03,.51,.05,.28,1.65,.58,3.3,.83,4.95,.17,1.12,.83,1.7,1.92,1.56,.98-.13,1.75-.65,1.81-1.8,.1-1.85,.22-3.71,.32-5.56,.2-3.63,.4-7.26,.57-10.9,.06-1.35,.08-2.71,.07-4.06-.01-1.11-.68-1.78-1.72-1.84-1.1-.06-1.35,.81-1.41,1.73-.03,.51-.11,1.01-.14,1.52-.15,2.84-.3,5.68-.44,8.52-.52-.91-.72-1.86-.77-2.82-.05-1.11-.24-2.07-1.5-2.31-1.25-.24-1.87,.51-2.51,1.62-.06-1.02-.09-2.04-.2-3.05Zm-436.19,10.78c.32,.21,.78,.57,1.3,.85,1,.55,1.42,1.39,1.47,2.5,.06,1.35,.2,2.7,.25,4.05,.04,1.13-.57,1.74-1.69,1.79-1.09,.06-1.8-.32-1.84-1.56-.03-1.02-.2-2.03-.23-3.05-.04-1.48-.86-2.07-2.47-2.21,0,1.17,.01,2.26,0,3.35-.03,2.21-.57,3.07-1.86,2.97-1.2-.09-1.72-.92-1.72-2.9-.01-3.91,.03-7.83-.02-11.74-.03-2.29-.15-4.58-.29-6.87-.16-2.67,.37-3.31,3.11-3.41,1.1-.04,2.21-.06,3.32,0,2.2,.11,3.33,.83,3.4,2.99,.11,3.2-.08,6.44-.54,9.61-.18,1.26-1.4,2.36-2.19,3.61Zm-3.05-2.47c1.67-.93,2.06-1.3,2.1-2.61,.08-2.69,.02-5.38,.02-8.21-.84,.04-1.47,.07-2.12,.1v10.72Zm488.35,4.74c0,1.68,0,3.12,0,4.56,0,1.11-.51,1.79-1.64,1.87-1.02,.07-1.85-.73-1.92-1.92-.07-1.27,0-2.55-.03-3.83-.12-5.43-.24-10.87-.39-16.3-.05-1.72,.49-2.59,2.26-2.76,1.68-.16,3.4-.15,5.09-.01,1.55,.12,2.67,1.36,2.68,3.21,.01,2.97-.19,5.94-.44,8.9-.14,1.7-1.22,2.92-3.17,3.85,4.76,1.46,3.46,5.07,3.69,8.05,.07,.95-.71,1.26-1.55,1.32-.95,.07-1.74-.21-1.89-1.25-.13-.92-.1-1.87-.16-2.8q-.11-1.93-2.55-2.88Zm.09-4.65c1.68-.51,2.18-1.61,2.22-2.81,.1-2.61,.03-5.23,.03-7.95h-2.25v10.76Zm-284.07,7.57c.02,2.27,.77,3.05,2.99,3.15,.51,.02,1.02-.04,1.53,.01,3.56,.38,4.66-1.26,4.77-4.3,.14-3.56,.47-7.11,.67-10.66,.13-2.28,.21-4.57,.25-6.86,.03-1.32-.72-2.25-1.63-2.19-.95,.06-1.62,.89-1.69,2.13-.13,2.28-.29,4.56-.38,6.85-.14,3.65-.25,7.3-.35,10.95-.02,.88-.27,1.49-1.28,1.5-.91,0-1.45-.43-1.55-1.33-.09-.76-.16-1.52-.17-2.29-.06-4.55-.08-9.1-.15-13.65-.02-1.1-.1-2.22-.33-3.28-.11-.48-.87-1.27-.99-1.22-.62,.3-1.24,.75-1.63,1.32-.24,.35-.07,.99-.07,1.5,0,2.98,0,5.95,0,8.93,0,3.15-.02,6.29,0,9.44Zm-175.63-9c0,2.04,.06,4.07-.02,6.11-.04,1.09-.2,2.21-.55,3.23-.71,2.12-2.61,3.07-5.11,2.76-1.72-.22-3.46-1.87-3.56-3.74-.17-2.95-.17-5.91-.17-8.87,0-2.46,.08-4.92,.13-7.37,.06-3.05,.62-3.64,3.88-4.17,2.69-.43,4.72,.62,5.43,2.96,.26,.87,.29,1.83,.3,2.75,0,1.1-.14,2.2-.18,3.3-.03,1.02,0,2.03,0,3.05h-.15Zm-5.77-9.48c-.14,.9-.4,1.78-.41,2.66-.06,4.49-.08,8.99-.04,13.48,.02,1.76,.76,2.83,1.65,2.75,.89-.08,1.58-1.24,1.58-2.87,0-4.49-.03-8.99-.09-13.48-.02-1.82-.28-2.03-2.69-2.54Zm157.98,14.69c.12-5.27,.22-10.53,.36-15.8,.05-1.93,1.35-2.74,3.05-1.84,1.42,.75,2.82,1.6,4.05,2.63,.73,.61,1.44,1.59,1.58,2.5,.49,3.09,.94,6.22,1.01,9.34,.08,3.47-1.69,6.35-3.83,8.94-1.18,1.43-2.99,1.57-4.7,1.34-1.14-.16-1.63-1.08-1.6-2.26,.03-1.62,0-3.23,0-4.85h.07Zm3.52,4.23c3.75-4.13,3.33-8.8,2.88-13.41-.18-1.84-.57-3.78-2.91-5.28,.32,6.47-.69,12.42,.04,18.69Zm237.97-9.81c0,2.12,.04,4.24-.02,6.36-.03,1-.15,2.04-.44,3-.7,2.37-2.44,3.37-5.11,3.11-1.87-.18-3.53-1.76-3.67-3.89-.2-2.95-.19-5.91-.19-8.87,0-2.37,.15-4.74,.18-7.11,.04-3.25,.69-3.94,4.23-4.37,2.6-.32,4.58,.96,5.15,3.42,.19,.81,.19,1.67,.19,2.51,0,1.02-.13,2.03-.16,3.05-.03,.93,0,1.86,0,2.8h-.15Zm-5.62-9.06c-.17,.3-.32,.44-.32,.59-.09,5.34-.21,10.68-.19,16.02,0,.79,.66,1.59,1.02,2.38,1.91-.48,2.13-1.72,2.12-3.04,0-4.5-.03-9-.08-13.49-.02-1.79-.33-2.04-2.54-2.46Zm-160.5,14.9c-.8,.05-1.39,.08-2.3,.14-.06,1.42-.1,2.83-.17,4.24-.11,2.14-.48,2.41-2.91,2.13,0-2.59-.22-5.22,.05-7.78,.47-4.46,1.25-8.89,1.9-13.34,.04-.25,.04-.51,.11-.75,.31-1.02,.34-2.31,1.8-2.43,.77-.06,1.96,1.35,2.2,2.53,.5,2.49,1.03,4.98,1.43,7.49,.59,3.68,1.1,7.37,1.56,11.07,.1,.8,0,1.72-.34,2.43-.22,.46-1.1,.92-1.58,.83-.45-.08-1.01-.84-1.1-1.38-.22-1.33-.19-2.69-.3-4.04-.03-.32-.19-.63-.34-1.13Zm-.29-2.74c-.12-.96-.17-1.61-.3-2.24-.11-.55-.33-1.08-.57-1.86q-.64,3.64,.88,4.1Zm138.19,2.32c0,1.32,0,2.48,0,3.65,0,.59,.1,1.2,0,1.78-.17,1.06-.85,1.66-1.95,1.58-1.02-.07-1.13-.87-1.15-1.67-.08-3.31-.17-6.61-.2-9.92-.03-3.22-.03-6.45,0-9.67,.02-2.44,1.05-3.27,3.52-2.92,.59,.08,1.18,.16,1.76,.27,2.55,.49,3.63,1.52,3.64,4.04,.02,3.13-.17,6.27-.39,9.4-.11,1.62-1.59,2.94-3.4,3.29-.56,.11-1.14,.11-1.84,.18Zm.05-2.92c1.52,.34,1.98-.49,2.04-1.48,.16-2.8,.25-5.6,.29-8.4,.02-1.49-.89-1.78-2.33-1.45v11.34Zm-417.14,3c0,1.44,0,2.87,0,4.29,0,.51,.14,1.18-.13,1.48-.45,.51-1.15,1.04-1.79,1.11-.97,.11-1.17-.76-1.18-1.59-.01-1.02-.03-2.04-.04-3.05-.03-5.51,.06-11.03-.14-16.54-.09-2.43,1.32-3.31,3.49-2.97,.67,.11,1.35,.18,2.01,.32,2.39,.49,3.35,1.5,3.37,3.98,.03,2.8-.04,5.6-.24,8.39-.21,2.97-1.42,4.04-4.51,4.4-.24,.03-.47,.1-.84,.18Zm.09-14.4v11.44c1.4,.24,1.9-.44,1.97-1.52,.16-2.69,.34-5.38,.37-8.08,.02-1.64-.18-1.71-2.34-1.85Zm322.82,2.65c.04-1.96,.29-2.28,2.27-2.72,.99-.22,2.04-.2,3-.5,.44-.14,.88-.74,1.01-1.22,.06-.22-.61-.91-.96-.93-1.67-.07-3.41-.24-5.02,.1-2.95,.63-3.34,1.4-3.56,4.39-.24,3.28-.03,6.55-.05,9.82,0,.68-.06,1.36-.05,2.04,.02,1.93,.02,3.85,.1,5.78,.04,.97,.7,1.67,1.6,1.73,1.94,.12,3.9,.15,5.84,0,.81-.06,1.64-.71,1.43-1.78-.21-1.07-1.07-1.16-1.99-1.08-1.22,.11-2.45,.17-3.72,.25,0-1.76-.04-3.19,0-4.62,.11-3.41-.13-3.24,3.07-3.74,.17-.03,.39,0,.49-.09,.36-.31,.9-.64,.94-1.02,.04-.35-.41-.99-.76-1.09-1.11-.3-2.27-.41-3.65-.63,0-1.63-.02-3.16,0-4.69Zm46.8-.18c-.1-1.49,.58-2.24,1.93-2.49,1-.19,2.01-.27,3.02-.42,.73-.11,1.43-.44,1.24-1.27-.1-.43-.73-1.03-1.13-1.04-1.67-.06-3.4-.16-5.01,.19-2.69,.6-3.04,1.26-3.36,4.03-.39,3.36-.06,6.71-.09,10.06-.02,2.36-.14,4.72-.04,7.08,.08,1.95,.74,2.56,2.67,2.7,1.35,.1,2.72,.03,4.07-.03,.49-.02,1.11-.13,1.41-.45,.41-.43,.79-1.1,.76-1.65-.02-.33-.81-.74-1.32-.88-.45-.12-.99,.15-1.5,.16-.97,0-1.94-.05-3.02-.08,.17-2.7,.31-5.05,.44-7.2,1.36-1.38,3.69-.25,4.5-2.28-1.04-1.82-2.79-1.3-4.55-1.34,0-1.88,.08-3.5-.02-5.1Zm118.34-.37c-.02-1.12,.54-1.79,1.55-2.03,1.07-.25,2.2-.25,3.25-.55,.55-.16,1.27-.65,1.41-1.14,.23-.83-.56-1.18-1.27-1.19-1.51-.02-3.07-.17-4.52,.15-3.16,.7-3.56,1.47-3.79,4.76-.23,3.27-.02,6.54-.04,9.81,0,2.27,0,4.54,0,6.8,0,1.24,.48,2.33,1.75,2.44,1.93,.16,3.9,.12,5.83-.05,.8-.07,1.66-.7,1.43-1.76-.23-1.04-1.09-1.14-2.02-1.06-1.23,.11-2.47,.17-3.99,.27,.2-2.84,.37-5.33,.54-7.79,1.33-.27,2.35-.41,3.31-.72,.4-.13,.9-.63,.93-1,.03-.35-.42-.97-.77-1.08-1.03-.3-2.12-.39-3.57-.63,0-1.69,.03-3.46,0-5.23Zm-394.7,.33c-.08-1.48,.59-2.23,1.96-2.47,1.08-.19,2.21-.23,3.25-.54,.43-.13,.87-.75,.97-1.21,.06-.25-.56-.89-.94-.94-1.25-.19-2.6-.49-3.79-.22-4.02,.92-4.63,1.2-4.87,5.49-.17,3.11,0,6.21-.02,9.31-.02,2.27-.02,4.54-.02,6.82,0,1.23,.46,2.35,1.73,2.46,1.93,.18,3.9,.14,5.83-.02,.81-.07,1.67-.69,1.47-1.75-.2-1.04-1.06-1.18-1.99-1.1-1.24,.11-2.48,.18-4.01,.29,.19-2.84,.35-5.32,.5-7.5,1.63-1.1,3.72-.21,4.48-2.2-1.07-1.76-2.79-1.29-4.53-1.27,0-1.79,.07-3.48-.02-5.16Zm91.28,.07c.04-1.83,.28-2.14,2.13-2.56,.99-.23,2.04-.19,3-.48,.46-.14,.77-.75,1.15-1.15-.4-.37-.78-1.04-1.19-1.06-1.67-.07-3.41-.19-5.02,.17-2.77,.61-3.35,1.44-3.38,4.25-.03,2.33-.47,4.64-.11,6.99,.23,1.49,.34,3.13-.04,4.56-.55,2.08,.05,4.04,.1,6.05,.02,1.09,.74,1.82,1.73,1.89,1.85,.13,3.73,.16,5.59,0,1.15-.1,1.85-1.11,1.59-1.89-.34-1.02-1.16-1.07-2.08-.99-1.21,.1-2.43,.13-3.64,.19,0-1.96-.04-3.57,.01-5.17,.08-2.51,.11-2.51,2.66-3.08,.33-.07,.74-.02,.99-.2,.37-.28,.86-.7,.87-1.07,0-.36-.48-.94-.85-1.04-1.03-.28-2.12-.37-3.5-.58,0-1.63-.03-3.24,0-4.84Zm69.36,12.97c-.04-4.42-.04-8.84,0-13.26,.01-2.01,.49-2.53,2.47-2.84,.83-.13,1.72-.06,2.51-.32,.45-.14,1-.76,1.02-1.17,.01-.4-.54-1.04-.97-1.19-1.95-.66-3.86-.28-5.67,.6-2.37,1.16-2.89,2.26-2.52,4.92,.13,.92,.19,1.86,.16,2.78-.08,3.39-.27,6.77-.29,10.16,0,1.35,.22,2.72,.53,4.03,.35,1.49,1.21,2.14,2.76,2.11,1.69-.04,3.39-.23,5.07-.43,.91-.11,1.68-.65,1.63-1.63-.05-1.03-.94-1.39-1.84-1.37-1.43,.02-2.86,.17-4.48,.28-.13-.87-.37-1.77-.38-2.68Zm-109.37-15.33c.98,0,1.93-.08,2.01-1.38,.07-1.07-.64-1.9-1.91-1.88-3.22,.05-6.44,.2-9.66,.41-.44,.03-1.13,.62-1.18,1.01-.05,.41,.43,1.05,.86,1.33,.46,.3,1.12,.32,1.69,.4,.64,.09,1.29,.1,2.09,.16,.14,1.39,.34,2.65,.37,3.9,.12,5.08,.23,10.16,.26,15.25,0,1.11,.31,1.83,1.43,2.01,.99,.16,2.12-.66,2.14-1.7,.05-3.28,.07-6.57-.05-9.85-.12-3.12-.44-6.22-.69-9.66,1.11,0,1.87,0,2.62,0Zm-69.39-.08c.48-.08,1.11-.57,1.24-1.01,.13-.45-.09-1.29-.46-1.55-.56-.4-1.37-.63-2.07-.62-2.8,.04-5.6,.2-8.4,.32-.87,.04-1.82,.07-1.8,1.27,.02,1.08,.95,1.34,1.78,1.48,.91,.15,1.84,.14,3.09,.22,.21,4.46,.47,8.85,.61,13.24,.06,1.95-.15,3.9-.19,5.85-.02,1.33,.59,2.08,1.61,2.11,.99,.03,1.92-.78,1.93-1.91,.04-3.29,.08-6.58-.03-9.86-.1-3.04-.4-6.08-.65-9.5,1.32,0,2.34,.11,3.32-.05Zm40.69,16.58c-.03-5.02,0-10.04-.05-15.06-.01-1.29,.71-1.87,1.79-2.09,.91-.18,1.87-.12,2.78-.31,.73-.15,1.69-.42,1.46-1.39-.12-.5-.84-1.08-1.38-1.21-2.16-.52-4.22-.08-6.1,1.11-1.72,1.09-2.18,2.32-1.85,4.33,.16,.99,.29,2.01,.26,3.02-.09,2.96-.34,5.91-.37,8.87-.02,1.6,.19,3.22,.45,4.81,.29,1.81,1.31,2.62,3.19,2.58,1.53-.04,3.05-.22,4.57-.4,1-.12,1.93-.57,1.84-1.71-.1-1.16-1.14-1.38-2.12-1.34-1.26,.04-2.52,.18-4.11,.3-.13-.55-.35-1.03-.35-1.5Zm188.46-16.5c.97,.02,1.75-.33,1.8-1.36,.05-1.04-.56-1.91-1.63-1.89-3.39,.05-6.78,.21-10.17,.42-.38,.02-.95,.55-1.02,.92-.07,.36,.27,1,.62,1.21,.55,.33,1.25,.47,1.9,.58,.71,.12,1.45,.12,2.36,.18,.21,4.36,.45,8.5,.58,12.65,.07,2.2-.04,4.41-.11,6.62-.04,1.14,.43,1.83,1.56,1.86,1.03,.03,1.78-.53,1.99-1.59,.1-.49,.05-1.02,.03-1.52-.13-4.23-.25-8.46-.4-12.69-.06-1.68-.19-3.36-.3-5.4,1.13,0,1.97-.01,2.81,0Zm-154.14,18.34c-.85-.15-1.95,.8-2.11,1.83-.19,1.18,.46,1.53,2.92,1.53,.53-2.03,.23-3.17-.8-3.35Zm184.98,.31c-.52-.62-1.34-.43-1.79,.15-.43,.56-1.01,1.45-.84,1.95,.45,1.31,1.7,1.08,2.75,.96,.95-1.13,.62-2.18-.12-3.06Zm188.48-.03c-.38-.25-1.41-.08-1.75,.28-.46,.47-.92,1.49-.7,1.96,.55,1.21,1.74,1.05,3.04,.75,.22-1.12,.51-2.26-.59-2.99Z"/></svg>