<?xml version="1.0" encoding="UTF-8"?><svg id="Layer_1" xmlns="http://www.w3.org/2000/svg" viewBox="0 0 485.92 132.08"><defs><style>.cls-1{fill:#fff;}</style></defs><path class="cls-1" d="M129.04,103.08c6.6,0,8.22-2.88,8.22-7.76,0-4.57-2.31-6.66-8.59-6.66h-3.67v14.42h4.04Zm-4.04,14.25c0,1.73,.73,2.1,5.4,2.25v1.68h-15.83v-1.68c4.4-.16,5.45-.63,5.45-2.25v-26.63c0-1.63-1.05-2.1-5.45-2.25v-1.68h14.47c10.48,0,13.57,4.03,13.57,8.38s-2.36,7.23-8.76,8.65v.16c6.34,.63,7.13,3.1,7.76,6.92l.79,4.98c.47,3.04,1.73,3.78,5.34,4.04v1.68c-.36,0-1.36,.05-1.73,.05-7.39,0-8.6-1.52-8.96-6.29l-.32-4.03c-.42-5.14-2.57-6.35-7.97-6.35h-3.77v12.37Zm50.67-13.31c0-11.22-4.66-16.2-11.01-16.2s-10.59,4.98-10.59,16.2,4.66,16.2,11.01,16.2,10.59-4.93,10.59-16.2m-27.26,.1c0-11.06,7.34-18.18,16.46-18.18s16.46,6.92,16.46,17.98-7.34,18.18-16.46,18.18-16.46-6.86-16.46-17.98m36.96,6.97h1.63c2.73,6.08,6.18,9.12,10.54,9.12,5.24,0,7.39-3.56,7.39-6.65,0-3.88-2.78-5.3-9.12-7.55-4.77-1.68-9.8-3.09-9.8-9.54s5.14-10.53,11.64-10.53c2.93,0,5.03,.57,6.71,1.2l1.68-1.47h1.15v10.06h-1.62c-1.68-4.87-4.66-7.91-8.75-7.91-3.56,0-6.35,2.31-6.35,6.4,0,3.77,3.04,4.98,8.65,6.86,4.77,1.63,9.7,3.25,9.7,9.75,0,5.19-3.04,11.27-11.74,11.27-2.83,0-5.82-.63-7.81-1.47l-2.62,1.68h-1.26v-11.22Zm29.24,8.49c4.4-.16,5.45-.63,5.45-2.25v-26.63c0-1.63-1.05-2.1-5.45-2.25v-1.68h15.88v1.68c-4.4,.16-5.45,.63-5.45,2.25v26.63c0,1.62,1.05,2.1,5.45,2.25v1.68h-15.88v-1.68Zm21.5,0c4.4-.16,5.45-.63,5.45-2.25v-26.63c0-1.63-1.04-2.1-5.45-2.25v-1.68h27.99l.16,9.64-1.62,.05c-1.83-5.87-2.78-7.76-8.65-7.76h-7.45v13.68h3.09c3.88,0,5.35-.36,6.66-5.82h1.42v13.63h-1.42c-1.31-5.45-2.78-5.82-6.66-5.82h-3.09v14.89h7.45c6.92,0,8.59-2.73,10.43-8.81l1.63,.05-.27,10.74h-29.66v-1.68Zm34.39-21.75c3.98-1.78,6.08-4.04,6.4-6.4l-.32-.16c-.42,.26-.94,.53-1.52,.53-1.42,0-2.52-1.16-2.52-2.68,0-1.73,1.26-3.19,3.04-3.19,2.25,0,3.67,1.68,3.67,4.09,0,3.88-2.41,6.81-7.91,9.17l-.84-1.36Zm12.49,13.26h1.62c2.73,6.08,6.19,9.12,10.54,9.12,5.24,0,7.39-3.56,7.39-6.65,0-3.88-2.78-5.3-9.12-7.55-4.77-1.68-9.8-3.09-9.8-9.54s5.13-10.53,11.63-10.53c2.94,0,5.03,.57,6.71,1.2l1.68-1.47h1.15v10.06h-1.63c-1.68-4.87-4.66-7.91-8.75-7.91-3.56,0-6.35,2.31-6.35,6.4,0,3.77,3.04,4.98,8.65,6.86,4.77,1.63,9.7,3.25,9.7,9.75,0,5.19-3.04,11.27-11.75,11.27-2.82,0-5.81-.63-7.8-1.47l-2.62,1.68h-1.26v-11.22Zm55.44-6.6c6.87,0,8.44-3.36,8.44-8.23,0-4.19-1.73-7.6-8.28-7.6h-3.88v15.83h3.72Zm-14.15,15.09c4.4-.16,5.45-.63,5.45-2.25v-26.63c0-1.63-1.05-2.1-5.45-2.25v-1.68h14.15c10.48,0,13.79,4.25,13.79,9.38,0,4.77-3.46,10.22-14.15,10.22h-3.35v10.96c0,1.73,1.1,2.1,5.76,2.25v1.68h-16.2v-1.68Zm30.18,0c4.4-.16,5.45-.63,5.45-2.25v-26.63c0-1.63-1.05-2.1-5.45-2.25v-1.68h15.88v1.68c-4.4,.16-5.45,.63-5.45,2.25v28.56h5.71c6.92,0,8.54-2.46,10.54-9.59l1.62,.1-.36,11.48h-27.94v-1.68Zm53.17-13.16l-4.77-13.89h-.21l-5.34,13.89h10.32Zm.68,1.89h-11.74l-1.99,5.14c-1.94,4.93-1.68,5.56,2.88,6.29v1.52h-11.38v-1.52c3.56-.73,4.71-2.78,6.5-7.28l10.53-26.21h2.36l10.59,29.19c.95,2.62,1.99,3.77,5.87,4.29v1.52h-15.46v-1.52c4.56-.26,5.4-1.26,4.4-4.03l-2.57-7.39Zm12.75-3.88c0-10.54,7.76-18.5,17.66-18.5,3.62,0,6.61,1.26,8.54,2.41l1.47-2.25h1.62v11.32h-1.57c-2.2-5.93-5.45-9.6-10.59-9.6-6.02,0-11.48,5.71-11.48,16.4s6.55,15.15,12.43,15.15,9.17-3.61,11.21-8.02l1.73,.84c-2.15,4.88-6.66,9.91-14.31,9.91-9.85,0-16.72-7.02-16.72-17.66m34.92,15.15c4.4-.16,5.45-.63,5.45-2.25v-26.63c0-1.63-1.05-2.1-5.45-2.25v-1.68h27.99l.16,9.64-1.62,.05c-1.83-5.87-2.78-7.76-8.65-7.76h-7.45v13.68h3.1c3.88,0,5.34-.36,6.66-5.82h1.41v13.63h-1.41c-1.31-5.45-2.78-5.82-6.66-5.82h-3.1v14.89h7.45c6.92,0,8.59-2.73,10.43-8.81l1.63,.05-.27,10.74h-29.66v-1.68Zm-364.1-3.5c1.37-.23,1.83,1.6,.69,3.66,0,0-.8,2.05-1.65,3.08-.86,1.03-2.57,2.41-5.49,3.77-2.92,1.37-7.54,2.91-11.49,3.6-3.94,.69-14.57,1.88-19.03,1.88,0,0-9.43-.34-12.86-.51-3.43-.16-16.28-1.54-21.25-3.08-4.97-1.54-10.46-6.69-10.97-7.37-.51-.69-3.09-3.42-1.37-5.48s7.54-4.63,9.26-4.8c.51-.69,1.37-2.23,2.05-2.4,0,0-5.14-6.18-5.49-12-.34-5.83,.52-10.8-.68-14.92-1.03-2.06-2.4-8.57-6.34-7.89-3.6,.85-6,13.37,2.23,22.45,5.14,5.14,4.79,6.69,4.79,6.69,0,0-.85,2.06-3.77,0C7.61,100.71,.58,90.77,.07,83.05c-.52-7.71,1.88-12,4.46-13.02,2.57-1.03,6.17-.35,8.22,1.88,2.06,2.23,3.6,5.14,3.77,10.8,.17,5.66,2.06,16.8,3.25,18.86,1.72,3.6,5.66,9.43,14.74,11.14,8.92,1.2,32.91,.17,36-.34,3.08-.52,5.82-.17,5.82-.17,0,0,1.71,.86-1.88,2.06-3.6,1.2-12.17,2.06-23.14,2.06s-19.89-.34-23.14-1.71c-3.25-1.37-2.91-2.57-6.17-1.71s-7.03,2.4-7.54,3.77c-.52,1.37,.68,3.94,3.6,5.82,2.92,1.88,5.49,3.6,11.65,4.28,6.17,.69,32.4,1.72,39.77,.18,7.37-1.55,14.58-2.58,17.49-5.32,3.6-2.06,3.43-4.46,4.91-5.54m-68,.74s.69-.17,1.55-.34c.85-.18,.17-.52,9.77,1.54,9.6,2.06,38.91,0,40.11-.34,1.2-.34,3.95-1.71,4.8-.85,.85,.85-3.09,2.57-4.46,3.25-7.2,3.43-13.72,2.57-24.68,2.74-10.97,.17-21.26-1.71-25.54-2.91-4.29-1.2-1.55-3.09-1.55-3.09m64.11-43.89s-.17-2.91,.86-2.91,1.37,.51,1.71,2.23c.34,1.71,1.03,32.4-9.25,39.43-1.2,.51-2.06,0-.17-2.74,1.88-2.74,8.22-7.54,6.85-36m-48.51,29.31c.17-1.2,11.32-3.08,13.37-2.22,2.06,.85-5.66,4.28-7.2,4.63-1.55,.34-6-1.71-6-1.71m21.6-7.2c-.86-.68,.68-1.2,1.2-1.37,.51-.17,1.37,1.02,4.28,.69,6.51,0,11.32,3.77,12.17,4.97,.86,1.19,.17,1.54-.85,.85-1.03-.69-1.55-2.06-5.32-2.06-6.85,.17-11.48-3.09-11.48-3.09m-3.09,.17s-.85-1.37-2.92-1.37-5.14,1.03-10.63,4.11c-5.49,3.09-17.31,3.94-18.85,3.77-1.55-.17-1.2-1.55,.85-1.72,12.34,0,27.26-9.43,29.15-9.76,1.88-.35,3.94,3.6,3.43,4.97-.52,1.37-1.03,0-1.03,0m-4.29-16.28s1.88-.35,3.77,3.6c1.88,3.94-1.89,7.72-1.89,7.72,0,0-1.54,.68-1.03-2.57,.52-3.26-.85-8.23-.85-8.23m5.31,11.82s-.69-3.43,1.88-7.88c2.57-4.46-.17-6.17,1.2-6.69,1.37-.51,3.43,2.74,2.57,4.8-.86,2.06-3.43,5.49-3.77,7.03-.34,1.55-1.03,3.43-1.88,2.74m13.2-7.37c0-2.91,4.11,1.71,4.63,2.74,.51,1.03,2.4,5.83,1.89,6.34-.52,.52-1.03,.69-1.38-.51-.34-1.2-5.14-8.57-5.14-8.57m7.37,13.71c-1.03,0,0-2.4-.17-6.35-.17-3.94-7.37-12.68-8.4-13.54-1.02-.86-2.39-2.06-2.06,2.91,.34,4.97,8.57,13.54,9.6,15.09-2.06,1.71-7.03-3.95-8.92-6.86-1.88-2.92-6.51-14.91-1.71-14.74,4.79,.17,10.28,8.4,13.2,15.43,2.91,7.03-1.55,8.06-1.55,8.06m-38.74-32.91c-2.57,0-3.25-.34-2.06-1.88,1.2-1.55,3.94-1.72,7.71-2.57,3.77-.86,15.43,.69,18.17,.52,2.74-.17,10.12,1.2,12.17,1.37,2.06,.17,5.32,2.05,5.32,3.25s-2.23,2.57-5.49,3.6c-3.26,1.03-16.12,2.57-18.86,2.92s-22.8,.51-24.86,.51-9.08-1.03-10.11-1.37c-1.03-.35-8.06-2.06-8.57-2.4-.51-.34-1.88-.52-2.74-2.57-.86-2.06,2.23-4.29,3.6-5.14,1.37-.85,10.97-3.08,10.97-3.08,0,0,1.88-.35,4.11-1.38,0-10.46,6-22.11,9.08-28.28,3.08-6.17,3.42-15.6,2.74-17.49-.69-1.88-2.92-6.34-4.29-8.74-1.37-2.4-.34-3.95,4.63-1.2,4.46,4.63,3.26,12.86,2.92,16.97-.34,4.11-5.14,15.94-8.91,22.46-3.77,6.51-2.91,16.11-2.91,16.11,0,0,6.34-1.2,21.08-1.88,14.74-.69,29.83,4.8,32.4,6.51,2.57,1.71,2.57,4.8,1.71,4.63-.86-.17-2.06-1.37-9.94-5.31-7.89-3.95-27.43-2.39-29.66-2.39s-15.6,1.37-15.43,4.45c.17,3.09,4.11,3.6,2.23,4.97-1.88,1.37-4.97-3.26-5.49-6.18-6.86-1.37-16.46,2.23-12.51,4.97,6.51,4.11,20.4,3.09,36,3.43,15.6,.34,24.68-3.25,24.51-3.95-.17-.68-3.26-1.54-11.15-1.88-7.88-.34-26.4,1.03-26.4,1.03m7.37-42.17s1.89-1.89,2.91-1.89,.69,.86,.17,2.23c-.52,1.37-2.75,5.65-2.4,7.54,.34,1.88,2.92,8.23,2.92,10.63s-.69,8.4-4.29,8.91c-3.6,.52-1.89-1.37-.86-2.4,1.03-1.02,2.4-4.11,1.55-6.85-.86-2.75-3.6-11.32-2.06-14.4,1.54-3.09,2.06-3.77,2.06-3.77m7.88-11.14s2.23-4.28,3.6-3.43c1.38,.85,.86,3.09-1.71,7.03-2.57,3.95-1.03,10.29,.51,12.69,1.55,2.4,6.35,9.94,2.74,17.31-3.6,7.37-3.95,7.54-4.63,7.21-.69-.35,1.54-3.78,2.05-6.18,.52-2.4,.17-10.97-1.53-13.88-1.72-2.91-3.78-10.8-3.09-14.57,.69-3.77,1.03-4.97,2.06-6.17"/></svg>