<?xml version="1.0" encoding="UTF-8"?><svg id="Layer_1" xmlns="http://www.w3.org/2000/svg" viewBox="0 0 159 72.2"><defs><style>.cls-1{fill:#fff;}</style></defs><path class="cls-1" d="M86.6,44.9c1.2,0,2,1,2,2.3s-.8,2.2-1.9,2.2-1.9-.9-1.9-2.3c0-1.3,.7-2.2,1.8-2.2Zm32.3,.3l-.9,2.5h1.9l-1-2.5Zm-40,13.7h1.9l-1-2.5-.9,2.5Zm33.1-10.5c0-.3-.1-.5-.4-.7-.3-.1-.5-.1-1.1-.1h-.5v1.7h1.1c.5,0,.9-.4,.9-.9Zm-46.7-12.4c0,8.9-3.8,15.9-8.5,20.7-4.6,4.6-11.5,8.6-20.6,8.6s-15.7-3.5-20.7-8.4c-5-4.9-8.4-11.5-8.7-20.2-.1-4.6,1-8.8,2.5-12.2,3.5-8.1,10.3-14.4,19.7-16.7,2-.5,4.3-.8,6.6-.8,9.4-.1,15.9,3.7,20.8,8.4,4.8,4.6,8.8,11.3,8.9,20.6Zm-50.9-2.8c.1,.3,.2,.5,.3,.7,4.5-1.6,9.1-3.9,13.7-5.8-.4-1.3-.9-2.6-.8-4,.3-5,5.4-9.9,11.1-8.6,2.7,.6,4.3,2.7,5.8,4.6,2.5-2.3,5.1-4.6,7.7-6.8-.2-.2-.5-.3-.6-.6-.7,0-.9,.6-1.5,.5-.6-.1-1.5-1.3-2.2-1.8-.7-.5-1.8-1.1-2.5-1.4-1.8-.8-4-1.6-6.2-1.8-7.1-.7-11.7,2.7-14.6,6.6-.8,1.1-1.8,2.8-2.2,4.1-.7,2.2-.6,4.9-1.4,7-.5,1.2-1.1,2.4-1.8,3.4-.9,1.3-2.3,2.1-3.6,3-.3,.2-.8,.5-1.2,.9Zm25.3-7.6c1.1-.2,2.4-.6,3.6-.5,.5,1.8,.8,3.8,1.5,5.5,.7-.5,1.6-.7,2.4-1.1-.9-1.6-2.3-2.9-3.1-4.7,.5-1-.1-3.2-.8-4.4-1.3-2.3-4.8-4.4-8.5-3.3-3.9,1.1-6.8,5.9-4.8,10.8-.4,1.2-1.3,2-2.2,2.7-.5,.5-1.6,.2-1.7,1.1,2.4,.5,4.7,.2,6.4-.7,1.2-.6,2-1.4,3-1.9,1,3.1,3.4,5.3,6.6,6,0-1.6,0-3.7,.8-5.1-1.9-.6-3.5-2.1-3.2-4.4Zm4.5,37.4c-1-1.4-2.5-3.8-3.7-4.5-.2,0-.1,.2-.3,.2-.2,.6,.2,1,.4,1.5-.4,1-1.7,1.2-2.5,1.8-2.7,0-5.6,.6-7.5,1.6,3.9,1.1,10,.6,13.6-.6Zm13.9-29.2c-.4,.7-1.1,1.1-1.4,1.8,1.8,1,4.5,1.7,7.5,1.4,0-2.3,0-4.6-.6-6.2-1.1,1.7-3.2,2.5-5.5,3Zm2.2-12.1c-1.1,.4-2.6,.9-3.6,1.7-.9,.7-1.8,2.7-2.5,2.9-.5,.2-1.3,0-1.7,0-1.9,.2-3.4,.6-4.9,1.4,.3,.9,1.4,1.4,1.4,2.3-1.6,.6-3.6,1.6-4.9,2-.7,1-.6,2.8-.8,4.2-1.6,.1-2.4-.5-3.5-.9-.8,.6-1.4,1.4-1.9,2.4,.7,0,1.4-.1,1.7,.6-.1,.8-.8,1-1.5,1-2.3,.1-5.2-1.2-6.3-2.5-.3-.4-.8-1.1-.3-1.5,1.4,1.2,2.9,2.1,5.3,2.3-.1-1.2,.4-2,.6-3-.9-.8-1.9-1.7-2.5-2.9-.8,.4-1.5,.8-2.5,1.3-.7,.3-1.7,1.3-2.4,1.4-.9,.1-2-.5-3.1-.6-2.5-.2-4,.6-5.5,1.7-2.3,1.7-4.1,3.7-4.4,7.4-2.1,1.4-4.4,4-3.4,7.7-.2,.5-.6,.7-.8,1.2,1.2,2.1,3.2,4.2,5.2,5.8,.6,.5,1.4,1.4,2.1,1.6,1.8,.4,4-.1,5.9,0,.7,.5,1.1,1.4,1.8,2.1,.6,.6,1.5,1.6,2.3,1.6,.6,0,1.3-.5,2-.8,1.1-.5,1.8-1.3,3.3-.8,.4-.4,.5-.9,.8-1.4-1.8,0-2.9-.7-2.9-2.6,.7,.8,2.9,1.4,4,2.2,.6,.5,1.2,2,2,.7,.2-.6-.5-1.1-.6-1.7,4.6-2.8,9.2-5.6,13.5-8.6,3.8-2.6,7.7-5.3,10.6-8.6,.4-.4,1.1-.9,1.4-1.3-10.4,3.6-18.9,9-27.8,13.9-.4-.1-.3-.7-.8-.8-.4,.1-.6,.3-1,.4,.5,1.3,.4,2.4-.6,3,0-.6-.1-1.1-.2-1.6-1.3-.1-2.3,1-3.5,.9-.3,0-.9-.3-1.3-.5-3.1-1.2-6.5-2.3-9.5-3.3,1.8-.7,3.7-1.7,3.4-4.1,1.1-.4,2.3-.6,3-1.4,.5-.6,1-1.7,1-2.7,0-1.2-.9-1.9-.1-2.5,1.3,.7,1.7,2.9,1.3,4.8,1.5,1.7,4.5,1.8,7.5,2,.1,.8-.7,.7-1,1.1-2.9-.1-6.1-.1-8.3-.7-1,.6-1.7,1.5-1.6,3.2,2,1,3.9,2.1,6.2,2.8,.9-.4,1.5-.9,2.5-1.2,.3-.2,0-.4,.2-.6,.8-.4,1.6-.7,2.4-1.1,.4,0,.5,.7,.8,.5,1.5-1.1,3.4-1.5,4.8-2.7,.8-.7,1.6-2.2,2.1-3.5,.6-1.4,1-3.1,1-4.6,.1-.7-.1-1.3,.2-1.9,4.8-1.2,7.8-4,10.3-7.5,2.7-.4,5.6-2.1,6.9-3.8,1-1.2,.3-2.6-.4-4-.5-1-1.1-1.9-1.4-2.4Zm-1.2-1.3c-1.3-2.2-2.9-4.1-4.9-5.6-2.5,2.3-4.6,5.6-4.4,10.5,1-.4,2.6-.5,3.7-.9,1.1-2.1,3.1-3.3,5.6-4ZM159,5v62.2c0,4-3.3,5-5,5H36C16.2,72.2,0,56,0,36.1S16.2,0,36,0h118C158,0,159,3.3,159,5Zm-25.1,21.4c0,.5-.6,.7-1.7,.7-.4,0-.8,0-1.4-.1h-.2l-.3,1.5c.6,.2,1.5,.3,2.2,.3,2.1,0,3.5-1,3.5-2.5,0-.6-.3-1.2-.7-1.6-.4-.3-.7-.4-1.6-.7-.7-.2-.9-.3-1-.5-.1-.1-.1-.2-.1-.2,0-.4,.6-.6,1.6-.6,.4,0,.6,0,1.3,.1l.1-1.6c-.7-.2-1.2-.2-1.8-.2-2,0-3.3,.9-3.3,2.3,0,.6,.3,1.3,.8,1.6,.4,.3,.7,.4,1.6,.7,.8,.2,1,.4,1,.8Zm-3.3,5.9v7.4h2v-7.4h-2Zm-4.3,17v-5.9h-2v7.4h5.2v-1.5h-3.2Zm2.7-17h-1.8v4.3l-3.1-4.3h-1.8v7.4h1.8v-4.1l3,4.1h1.9v-7.4Zm-7.1-3.8h1.8v-4.1l3,4.1h1.9v-7.4h-1.8v4.3l-3.1-4.3h-1.8v7.4Zm-6.6-7.4l-3.1,7.4h1.9l.7-1.8h2.9l.7,1.8h2.1l-3.1-7.4h-2.1Zm-12.7,23.7v6h1.9v-6h2.2v-1.4h-6.4v1.4h2.3Zm4.3-5.1h1.6l1.5-4.4,.5,4.4h1.9l-1.1-7.4h-2l-1.5,4.7-1.7-4.7h-2l-1,7.4h1.8l.4-4.4,1.6,4.4Zm1.2,11.2h3.1c1.7,0,2.9-.8,2.9-2.1,0-.6-.3-1.1-.7-1.4-.4-.3-.6-.3-1.3-.4,.6-.1,.8-.2,1.1-.5s.5-.7,.5-1.2c0-.9-.7-1.6-1.7-1.7-.3,0-.7-.1-1.1-.1h-2.8v7.4Zm6.3-11.8c.6,.5,1.5,.8,2.5,.8,1.6,0,2.9-.7,3.3-1.9,.2-.5,.2-.8,.2-1.8v-3.9h-1.8v4c0,1-.1,1.4-.5,1.7-.3,.2-.7,.4-1.2,.4s-.8-.1-1.1-.4-.3-.5-.4-1.3v-4.3h-1.8v4.2c0,1.4,.2,2,.8,2.5Zm-8.4-16.6h2.3v6h1.9v-6h2.2v-1.4h-6.4v1.4Zm-7,6h1.9v-3.1h.2c.4,0,.6,.2,.8,.5l1.3,2.6h2.3l-1.5-3c-.1-.2-.3-.4-.4-.5-.2-.1-.3-.1-.5-.2,1-.2,1.8-.9,1.8-1.9s-.7-1.7-1.8-1.9c-.3,0-.6-.1-1.1-.1h-3v7.6Zm-.1,3.8l-1.5,4.7-1.7-4.7h-2l-1,7.4h1.8l.4-4.4,1.6,4.4h1.6l1.5-4.4,.5,4.4h1.9l-1.1-7.4h-2Zm-6.4-14.9h5.4v-1.5h-3.4v-1.6h3v-1.4h-3v-1.5h3.2v-1.4h-5.2v7.4Zm-.1,3.7l-3.1,7.4h1.9l.7-1.8h2.9l.7,1.8h2.1l-3.1-7.4h-2.1Zm-.5,14.8c0-2.2-1.6-3.8-3.9-3.8s-4,1.7-4,4,1.6,3.8,3.9,3.8,4-1.7,4-4Zm-5.1,7.4c-2.3,0-4,1.7-4,4s1.6,3.8,3.9,3.8,4-1.7,4-4-1.6-3.8-3.9-3.8Zm-3.2-25.9h1.9v-3.2h2.9v3.2h1.9v-7.4h-1.9v2.8h-2.9v-2.8h-1.9v7.4Zm-.1,11.1h1.9v-3h.9c1.8,0,2.8-.9,2.8-2.3,0-1-.6-1.8-1.6-2-.3-.1-.7-.1-1.2-.1h-2.8v7.4Zm-5.4,7.4c0-1.4,1.1-2.3,2.7-2.3,.4,0,.8,.1,1.2,.1,.1,0,.2,.1,.4,.1l.5-1.3c-.5-.2-.8-.3-1.2-.3-.4-.1-.7-.1-1.1-.1-2.6,0-4.5,1.7-4.5,4s1.7,3.8,4.1,3.8c.4,0,.9-.1,1.3-.2,.6-.1,.9-.3,1.6-.7l-.7-1.3c-.5,.3-.7,.3-1.2,.4-.3,.1-.6,.1-.8,.1-1.3,0-2.3-1-2.3-2.3Zm.3,10.4v-1.6h3.1v-1.4h-5v7.5h1.9v-3.1h2.9v-1.4h-2.9Zm1.3-19.9c0,.5-.6,.7-1.7,.7-.4,0-.8,0-1.4-.1h-.2l-.3,1.5c.6,.2,1.5,.3,2.2,.3,2.1,0,3.5-1,3.5-2.5,0-.6-.3-1.2-.7-1.6-.4-.3-.7-.4-1.6-.7-.7-.2-.9-.3-1-.5-.1-.1-.1-.2-.1-.2,0-.4,.6-.6,1.6-.6,.4,0,.6,0,1.3,.1l.2-1.6c-.7-.2-1.3-.2-1.9-.2-2,0-3.3,.9-3.3,2.3,0,.6,.3,1.3,.8,1.6,.4,.3,.7,.4,1.6,.7,.8,.2,1,.4,1,.8Zm-3.9-15h2.3v6h1.9v-6h2.2v-1.4h-6.4v1.4Zm-9,24.7c0-17-13.8-30.8-30.8-30.8S5.2,19.1,5.2,36.1s13.8,30.8,30.8,30.8,30.8-13.8,30.8-30.8Zm17.2,25.9l-3.1-7.4h-2.1l-3.1,7.4h1.9l.7-1.8h2.9l.7,1.8h2.1Zm7.3-.6l-.7-1.4c-.5,.3-.7,.3-1.2,.4-.3,.1-.6,.1-.8,.1-1.3,0-2.3-1-2.3-2.3,0-1.4,1.1-2.3,2.7-2.3,.4,0,.8,.1,1.2,.1,.1,0,.2,.1,.4,.1l.5-1.2c-.5-.2-.8-.3-1.2-.3-.4-.1-.7-.1-1.1-.1-2.6,0-4.5,1.7-4.5,4s1.7,3.8,4.1,3.8c.4,0,.9-.1,1.3-.2,.6-.1,.9-.3,1.6-.7Zm.4-14.1c0,2.2,1.6,3.8,3.9,3.8s4-1.7,4-4-1.6-3.8-3.9-3.8-4,1.7-4,4Zm8.8,14.7l-3.1-7.4h-2.1l-3.1,7.4h1.9l.7-1.8h2.9l.7,1.8h2.1Zm8.7-3.8c0-1.9-1.2-3.3-2.9-3.5-.5-.1-1.2-.1-2-.1h-2.4v7.4h1.8c1.2,0,1.7,0,2.4-.1,.6-.1,1.1-.3,1.6-.7,1-.7,1.5-1.8,1.5-3Zm6.7,2.3h-3.4v-1.6h3v-1.4h-3v-1.5h3.2v-1.4h-5.2v7.4h5.4v-1.5Zm.9-9.7l.7-1.8h2.9l.7,1.8h2.1l-3.1-7.4h-2.1l-3.1,7.4h1.9Zm9.7,11.2l-1.1-7.4h-2l-1.5,4.7-1.7-4.7h-2l-1,7.4h1.8l.4-4.4,1.6,4.4h1.6l1.5-4.4,.5,4.4h1.9Zm7.5-7.4h-2.1l-1.5,2.7-1.4-2.7h-2.3l2.7,4.2v3.2h1.9v-3.2l2.7-4.2Zm2.1-5.3h-3.2v-5.9h-2v7.4h5.2v-1.5Zm4.2-17h-6.4v1.4h2.3v6h1.9v-6h2.2v-1.4Zm8.4,0h-2.1l-1.5,2.7-1.4-2.7h-2.3l2.7,4.2v3.2h1.9v-3.2l2.7-4.2Zm-32.4-9.4l-.9,2.5h1.9l-1-2.5Zm-5,23.3c.3-.2,.4-.4,.4-.7s-.1-.5-.3-.6c-.2-.1-.3-.1-.9-.1h-.5v1.6h.3c.5,0,.8-.1,1-.2Zm-15.9,12.7h1.9l-1-2.5-.9,2.5Zm-7.6-25.2c-1.1,0-1.8,.9-1.8,2.2,0,1.4,.8,2.3,1.9,2.3s1.9-.9,1.9-2.2-.8-2.3-2-2.3Zm14.8-10.3c0-.3-.1-.5-.3-.7s-.5-.2-.9-.2h-.6v1.8h.5c.8,0,1.3-.3,1.3-.9Zm-6.9,26c1.1,0,1.9-.9,1.9-2.2s-.9-2.3-2-2.3-1.8,.9-1.8,2.2c0,1.4,.8,2.3,1.9,2.3Zm-2.4-26.5l-.9,2.5h1.9l-1-2.5Zm12.5,33.2c-.4-.1-.6-.1-1.4-.1h-.5v4.5h.3c.7,0,.9,0,1.4-.2,1-.3,1.6-1.2,1.6-2.2,0-.7-.2-1.2-.7-1.6-.2-.2-.4-.3-.7-.4Zm-18.6-32.8c0-.6-.4-.8-1.2-.8h-.5v1.7h.5c.7,0,1.2-.3,1.2-.9Z"/><path class="cls-1" d="M42.7,27.5c-.4-.1-.4,.2-.7,.2,.3,.6,.8,1.1,1.3,1.5-.1-.6-.4-1.1-.6-1.7"/></svg>