<?xml version="1.0" encoding="utf-8"?>
<!-- Generator: Adobe Illustrator 26.3.1, SVG Export Plug-In . SVG Version: 6.00 Build 0)  -->
<svg version="1.1" id="Layer_1" xmlns="http://www.w3.org/2000/svg" xmlns:xlink="http://www.w3.org/1999/xlink" x="0px" y="0px"
	 viewBox="0 0 390 118" style="enable-background:new 0 0 390 118;" xml:space="preserve">
<style type="text/css">
	.st0{fill:#FFFFFF;}
	.st1{opacity:0.5;}
</style>
<g>
	<g transform="translate(-180 -58)">
		<path id="a" class="st0" d="M510.1,109.5h7.2v16.8h0.1l6.6-8.7h8.5l-9,10.6l8.8,13.5h-8.1l-6.8-11.6h-0.1v11.6h-7.2L510.1,109.5
			 M493.8,117.5h6.7v2.6h0.1c0.6-1.2,1.9-3.4,6-3.4v7.3c-3.3,0.1-5.6,0.8-5.6,4.4v13.3h-7.2V117.5 M477.3,135.6
			c3.1,0,5.7-2.6,5.7-6.1c0-3.5-2.6-6.1-5.7-6.1s-5.7,2.6-5.7,6.1C471.5,133.1,474.2,135.6,477.3,135.6z M490.2,129.5
			c0,5.9-4.2,12.8-12.9,12.8s-12.9-6.9-12.9-12.8c0-5.9,4.2-12.8,12.9-12.8S490.2,123.6,490.2,129.5z M435.7,117.5l3.6,15h0.1
			l3.9-15h6l4,15h0.1l3.6-15h7.4l-7.3,24.1h-6.6l-4-15.6h-0.1l-4,15.6h-6.6l-7.3-24.1L435.7,117.5 M424.4,117.5h3.5v5.5h-3.5v18.7
			h-7.2V123h-3.5v-5.5h3.5v-8h7.2V117.5 M405.2,126.9c-0.3-1.4-1.7-4.1-5.4-4.1s-5.1,2.7-5.4,4.1H405.2L405.2,126.9z M406.6,140.2
			c-2,1.4-4.4,2.2-6.8,2.2c-6.9,0-12.7-5.6-12.7-12.8c0-6.7,5.3-13,12.6-13s12.6,5.8,12.6,13.2c0,1-0.1,1.3-0.2,1.9h-17.9
			c0.4,2.9,2.8,4.6,5.6,4.6c2.2,0,3.4-1,4.4-2.3h7.3C410.4,136.8,408.7,138.8,406.6,140.2L406.6,140.2L406.6,140.2z M356.4,109.4h7
			l12.3,20.2l0.1-0.1l-0.3-20.1h7.8v32.2h-7.1l-12.2-19.6l-0.1,0l0.2,19.5h-7.8L356.4,109.4 M547.8,76.4h6.7V79h0.1
			c0.7-1.2,2.2-3.4,6.5-3.4c2.3,0,4.8,1,6.1,2.1c1.3,1.1,2.8,3,2.8,7.8v15.1h-7.2V87.3c0-1.7,0-5-3.8-5c-4.1,0-4.1,3.6-4.1,5v13.1
			h-7.2V76.4 M531.3,94.5c3.1,0,5.7-2.6,5.7-6.1s-2.6-6.1-5.7-6.1c-3.1,0-5.7,2.6-5.7,6.1C525.5,91.9,528.2,94.5,531.3,94.5z
			 M544.2,88.4c0,5.9-4.2,12.8-12.9,12.8s-12.9-6.9-12.9-12.8c0-5.9,4.2-12.8,12.9-12.8C540,75.6,544.2,82.5,544.2,88.4z
			 M507.6,76.4h7.2v24.1h-7.2C507.6,100.5,507.6,76.4,507.6,76.4z M507.6,68.3h7.2v5.5h-7.2C507.6,73.8,507.6,68.3,507.6,68.3z
			 M501.5,76.4h3.5v5.5h-3.5v18.6h-7.2V81.9h-3.5v-5.5h3.5v-8h7.2V76.4 M474.7,94.6c4.5,0,6-3.8,6-6.2c0-2.9-2-6.1-6-6.1
			s-5.9,3.5-5.9,6.2C468.8,90.8,470.4,94.6,474.7,94.6L474.7,94.6z M480.7,100.5v-2.6h-0.1c-1.2,2.3-4.2,3.4-7,3.4
			c-7.6,0-12-6-12-12.9c0-7.9,5.6-12.9,12-12.9c3.9,0,6.1,1.9,7,3.4h0.1v-2.6h7.2v24.1L480.7,100.5L480.7,100.5z M459.2,91.4
			c-1.3,5.5-6.1,10-12.5,10c-7.2,0-12.8-5.7-12.8-12.9c0-7.2,5.5-12.8,12.6-12.8c6.3,0,11.5,4.2,12.7,10.1h-7.2
			c-0.8-1.7-2.2-3.4-5.2-3.4c-3.4-0.2-5.7,2.7-5.7,6.1c0,3.5,2.3,6.1,5.7,6.1c3,0,4.4-1.7,5.2-3.2H459.2 M430.3,100.5h-6.8V98h-0.1
			c-1.5,3.1-4.4,3.3-6.2,3.3c-1.5,0-4.9-0.3-7-3c-1.9-2.4-2.2-4.1-2.2-7.4V76.4h7.2v13.3c0,1.7,0,4.8,3.8,4.8c2.1,0,4.1-1.1,4.1-4.9
			V76.4h7.2V100.5 M390.5,94.6c4.5,0,6.1-3.7,6.1-6.2c0-2.9-2.1-6-6-6c-4,0-6.1,3.3-6.1,6C384.5,92.1,387.1,94.6,390.5,94.6
			C390.5,94.6,390.5,94.6,390.5,94.6z M396.6,100.5v-2.6h-0.1c-0.6,1-2.3,3.4-7.2,3.4c-7.2,0-12-5.7-12-12.9
			c0-8.2,5.8-12.8,11.9-12.8c4.2,0,6.2,2.1,7,2.9V68.3h7.2v32.2L396.6,100.5L396.6,100.5L396.6,100.5z M356.4,68.3h17.7v7.2h-9.9v5
			h9.6v7.2h-9.6v5.5h9.9v7.2h-17.7V68.3"/>
	</g>
	<g transform="translate(-180 -58)" class="st1">
		<path id="b" class="st0" d="M320.8,68.7c-7.8-7.1-17.2-10.6-28.1-10.6c-10.9,0-19.1,3.1-26.6,11v-6.4h-27.5v52
			c0,12.9-5.7,19.5-16.7,19.5c-11,0-13.7-6.1-13.7-19.5v-52h-28.2V126c0,22,12.9,34.5,32.6,34.5c11.9,0,20.7-4.4,26.7-13.8v29.2H267
			V139c6,7.8,14.4,11.5,25.2,11.5s21.6-4,29.9-12.3c9.4-9.1,14.4-20.9,14.4-33.9C336.5,90.1,331.2,78,320.8,68.7L320.8,68.7
			L320.8,68.7z M287.7,126.8c-11.7,0-20.7-8.8-21.6-20.8c-0.1-0.7-0.1-1.3-0.1-2s0-1.3,0.1-1.9c0.9-11.5,10-20,20.8-20
			c13.5,0,23.2,9.6,23.2,22.2S300.3,126.8,287.7,126.8L287.7,126.8L287.7,126.8z"/>
	</g>
</g>
</svg>
