<?xml version="1.0" encoding="UTF-8"?><svg id="Layer_1" xmlns="http://www.w3.org/2000/svg" viewBox="0 0 324 114"><defs><style>.cls-1{opacity:.5;}.cls-1,.cls-2{fill:#fff;fill-rule:evenodd;}</style></defs><path class="cls-1" d="M53.12,13.47c0,7.25-5.89,13.12-13.15,13.12h0c-7.25,0-13.14-5.86-13.15-13.12h0c.01-7.25,5.9-13.12,13.15-13.11h0c7.25,0,13.14,5.86,13.15,13.11"/><path class="cls-1" d="M32.28,92.28V55.69L3.43,27.41h0c-3.01-2.95-3.06-7.78-.11-10.79l.02-.02c2.97-3.01,7.82-3.05,10.85-.09l25.77,25.25,25.79-25.28c3.02-2.96,7.87-2.92,10.85,.09,2.96,3,2.93,7.83-.07,10.79l-.02,.02-28.89,28.3v36.59c0,4.23-3.44,7.65-7.67,7.65-4.23,0-7.67-3.42-7.67-7.65"/><path class="cls-2" d="M116.77,35.01l-11.08,64.8c-1.85,11.1-4.06,13.67-19.46,13.67h-7.88v-10.53h4.93c3.32,0,4.43-.56,4.43-2.92,0-.56,0-1.12-.12-1.9l-10.72-63.12h15.64l4.31,49h.25l5.17-49h14.53Zm22.16,24.66v-11.54c0-1.57-.73-3.36-2.83-3.36s-2.71,1.79-2.71,3.36v11.54h5.54Zm-21.18-10.98c0-9.64,8.38-14.46,18.35-14.46s18.47,4.82,18.47,14.46v20.63h-21.18v16.7c0,1.57,.62,3.36,2.71,3.36s2.83-1.79,2.83-3.36v-12.33h15.64v11.77c0,9.63-8.62,14.45-18.47,14.45s-18.35-4.82-18.35-14.45V48.68Zm56.32,37.34c0,1.57,.62,3.36,2.71,3.36s2.83-1.8,2.83-3.36v-18.5l-2.83,1.79c-2.22,1.79-2.71,2.24-2.71,5.05v11.66Zm-15.63-37.34c0-9.64,8.37-14.46,18.34-14.46s18.47,4.82,18.47,14.46v37.45c0,4.48-.07,13-.07,13h-14.71l-.86-6.5h-.25c-2.09,5.16-5.91,7.28-10.47,7.28-7.88,0-10.46-4.25-10.46-11.54v-13.78c0-16.16,21.17-9.98,21.17-23.89v-2.58c0-1.57-.74-3.36-2.83-3.36s-2.71,1.79-2.71,3.36v9.19h-15.63v-8.63Zm56.87-8.19h.25c2.34-3.92,5.79-6.27,11.21-6.27,7.75,0,9.73,4.26,9.73,11.21v24.1h-15.64v-20.3c0-1.57-.74-3.36-2.83-3.36s-2.71,1.79-2.71,3.36v49.89h-15.64V35.01h15.64v5.49Zm49.95,51.46h-.24c0,4.37-5.29,7.95-9.98,7.95-8.12,0-10.96-4.7-10.96-11.42V35.01h15.64v49.89c0,1.57,.61,3.37,2.71,3.37s2.83-1.8,2.83-3.37V35.01h15.64V99.13h-15.64v-7.17Zm41.07-42.72c0-1.57-.74-3.36-2.83-3.36s-2.71,1.79-2.71,3.36v35.66c0,1.57,.62,3.37,2.71,3.37s2.83-1.8,2.83-3.37V49.24Zm-5.54-7.51h.25c.99-4.48,4.93-7.51,9.61-7.51,9.73,0,11.33,7.17,11.33,14.34v37.34c0,7.18-1.6,14.01-11.33,14.01-4.68,0-8.62-2.69-9.61-6.38h-.25v19.94h-15.64V35.01h15.64v6.73Zm17.02,67.16c.57,0,.91-.28,.91-.72v-.02c0-.46-.34-.71-.91-.71h-1.15v1.46h1.15Zm-2.03-2.25h2.06c.61,0,1.1,.18,1.4,.49,.24,.25,.37,.57,.37,.97v.02c0,.74-.43,1.2-1.07,1.39l1.25,1.74h-1.05l-1.12-1.59h-.97v1.59h-.87v-4.61Zm5.73,2.43v-.02c0-2.17-1.7-3.94-3.94-3.94s-3.96,1.79-3.96,3.96v.03c0,2.17,1.69,3.94,3.94,3.94s3.96-1.79,3.96-3.96h0Zm-8.36,.02v-.02c0-2.4,1.95-4.4,4.42-4.4s4.4,1.98,4.4,4.37v.03c0,2.39-1.95,4.4-4.42,4.4-2.42,.01-4.39-1.93-4.4-4.35v-.03Z"/></svg>