<svg id="Layer_1" data-name="Layer 1" xmlns="http://www.w3.org/2000/svg" width="406.7" height="87.61" viewBox="0 0 406.7 87.61">
  <defs>
    <style>
      .cls-1 {
        fill: #1c2156;
      }

      .cls-2 {
        fill: #fff;
      }

      .cls-3 {
        fill: #e52823;
      }

      .cls-4 {
        fill: #1ca6df;
      }

      .cls-5 {
        fill: #abcae9;
      }
    </style>
  </defs>
  <path class="cls-1" d="M399.78,87.61A9.84,9.84,0,0,1,393,84.84l1.83-2.58a8.09,8.09,0,0,0,5,2.26c2.18,0,3.29-.87,3.29-2.26s-1.37-1.92-2.1-2.21-3.08-1.14-3.57-1.34a5,5,0,0,1-3.58-4.83c0-2.38,1.69-5.32,6.63-5.32A9.11,9.11,0,0,1,406.64,71l-1.57,2.5a7.5,7.5,0,0,0-4.74-2c-1.89,0-2.93.7-2.93,2.07s1.33,1.86,2,2.15,3,1.1,3.52,1.31c2.76,1,3.78,2.79,3.78,4.85,0,2.65-1.89,5.76-6.92,5.76m-20.67-.29V68.86H391v2.87h-8.2v4.48h7.62v2.91h-7.62v5.23h8.46v3Zm-8.08,0V68.86h3.66V87.32Zm-6.37,0-.34-1.89s-1.52,2.18-5.59,2.18c-4.42,0-8.22-3.49-8.22-9.6s4.3-9.45,8.95-9.45a8.39,8.39,0,0,1,7,3.26L364.26,74a5.82,5.82,0,0,0-4.68-2.35c-2.91,0-5.35,2.23-5.35,6.36s2.21,6.37,5.26,6.37,4.13-1.69,4.13-1.69V80.08h-3.84V77.32h7.33v10Zm-28.6,0V68.86h11.86v2.87h-8.2v4.48h7.62v2.91h-7.62v5.23h8.46v3ZM328.3,71.73V87.32h-3.64V71.73h-5.29V68.86h14.19v2.87Zm-16.69.53-2.73,8.14h5.43Zm4.94,15.06-1.33-4H308l-1.34,4h-3.61l6.49-18.46h4.36l6.54,18.46Zm-20.7-15.06a3.88,3.88,0,0,0-2.36-.61h-2.58V77.4h2.55a3.91,3.91,0,0,0,2.39-.61,2.88,2.88,0,0,0,0-4.53m1.66,15.06-4.31-7.18h-2.29v7.18h-3.67V68.86h6.66a7.59,7.59,0,0,1,4.65,1.25,5.45,5.45,0,0,1-1.74,9.44l4.88,7.77Zm-18-15.59V87.32h-3.63V71.73h-5.29V68.86h14.18v2.87ZM262.39,87.61a9.82,9.82,0,0,1-6.83-2.77l1.83-2.58a8.07,8.07,0,0,0,5,2.26c2.18,0,3.28-.87,3.28-2.26s-1.36-1.92-2.09-2.21-3.08-1.14-3.58-1.34a5,5,0,0,1-3.57-4.83c0-2.38,1.68-5.32,6.63-5.32A9.11,9.11,0,0,1,269.25,71l-1.57,2.5a7.5,7.5,0,0,0-4.74-2c-1.89,0-2.94.7-2.94,2.07s1.34,1.86,2,2.15,3,1.1,3.52,1.31c2.76,1,3.78,2.79,3.78,4.85,0,2.65-1.89,5.76-6.92,5.76m-18.34-15.3a4,4,0,0,0-2.65-.66h-2V78h2a4.06,4.06,0,0,0,2.68-.64,2.93,2.93,0,0,0,1.13-2.56,2.85,2.85,0,0,0-1.13-2.53m2.82,7.16A8.53,8.53,0,0,1,242,80.83h-2.61v6.49H235.7V68.86H242a8,8,0,0,1,4.89,1.39,5.36,5.36,0,0,1,2,4.59,5.42,5.42,0,0,1-2,4.63m-19.25,7.85V68.86h3.66V87.32Zm-8.05,0v-8.2h-8.08v8.2h-3.67V68.86h3.67v7.32h8.08V68.86h3.66V87.32Zm-21.83.29a9.82,9.82,0,0,1-6.83-2.77l1.83-2.58a8.07,8.07,0,0,0,5,2.26c2.18,0,3.28-.87,3.28-2.26s-1.36-1.92-2.09-2.21-3.08-1.14-3.58-1.34a5,5,0,0,1-3.57-4.83c0-2.38,1.68-5.32,6.63-5.32A9.11,9.11,0,0,1,204.6,71L203,73.51a7.5,7.5,0,0,0-4.74-2c-1.89,0-2.94.7-2.94,2.07s1.34,1.86,2,2.15,3,1.1,3.52,1.31c2.76,1,3.78,2.79,3.78,4.85,0,2.65-1.89,5.76-6.92,5.76M184.07,72.26a3.84,3.84,0,0,0-2.35-.61h-2.59V77.4h2.56a3.88,3.88,0,0,0,2.38-.61,2.87,2.87,0,0,0,0-4.53m1.66,15.06-4.3-7.18h-2.3v7.18h-3.66V68.86h6.66a7.61,7.61,0,0,1,4.65,1.25A5.46,5.46,0,0,1,185,79.55l4.89,7.77Zm-25.76,0V68.86h11.86v2.87h-8.19v4.48h7.61v2.91h-7.61v5.23h8.46v3Zm-7.9,0-8.29-13.38V87.32h-3.46V68.86h3.93l7.88,12.7V68.86h3.45V87.32ZM132.56,71.73V87.32h-3.63V71.73h-5.29V68.86h14.18v2.87Zm-15.49.53a3.88,3.88,0,0,0-2.36-.61h-2.59V77.4h2.56a3.91,3.91,0,0,0,2.39-.61,2.88,2.88,0,0,0,0-4.53m1.65,15.06-4.3-7.18h-2.3v7.18h-3.66V68.86h6.66a7.59,7.59,0,0,1,4.65,1.25A5.45,5.45,0,0,1,118,79.55l4.88,7.77ZM97.5,72.26,94.77,80.4h5.44Zm5,15.06-1.34-4H93.9l-1.34,4H89l6.48-18.46H99.8l6.54,18.46Zm-17.85-15A4,4,0,0,0,82,71.65h-2V78h2a4.06,4.06,0,0,0,2.68-.64,2.93,2.93,0,0,0,1.13-2.56,2.85,2.85,0,0,0-1.13-2.53m2.82,7.16a8.53,8.53,0,0,1-4.89,1.36H79.92v6.49H76.25V68.86h6.28a8,8,0,0,1,4.89,1.39,5.39,5.39,0,0,1,2,4.59,5.42,5.42,0,0,1-2,4.63"/>
  <polygon class="cls-2" points="0 19.2 0 38.4 19.2 28.8 0 19.2"/>
  <polygon class="cls-3" points="19.2 28.8 0 38.4 0 57.6 38.39 38.4 19.2 28.8"/>
  <polygon class="cls-1" points="0 57.6 57.6 57.6 57.6 47.99 38.39 38.4 0 57.6"/>
  <polygon class="cls-4" points="38.39 19.2 0 0 0 19.2 19.2 28.8 38.39 19.2"/>
  <polygon class="cls-1" points="38.39 19.2 57.6 9.6 57.6 0 0 0 38.39 19.2"/>
  <polygon class="cls-5" points="38.39 19.2 19.2 28.8 38.39 38.4 57.6 47.99 57.6 28.8 57.6 9.6 38.39 19.2"/>
  <path class="cls-1" d="M332.91,34.8a44.8,44.8,0,0,0-4.87.31c-3,.47-4.63,2-4.63,4.62,0,2.28,1.51,3.53,3.74,3.53,3.06,0,5.76-2.08,5.76-6.12Zm-7.83,13.7c-5.51,0-9-3.42-9-8.67,0-4.77,3.06-7.68,8.15-8.87a40.91,40.91,0,0,1,8.66-.73c0-4.09-1.66-5.5-5.91-5.5a19.28,19.28,0,0,0-7.89,1.87V20.89a22.62,22.62,0,0,1,8.82-1.71c8.93,0,12.2,4.05,12.2,11.68V42.17h3.52v5.7h-10L333.12,45H333a10.11,10.11,0,0,1-7.93,3.48M235.24,34.8a45.13,45.13,0,0,0-4.88.31c-3,.47-4.61,2-4.61,4.62,0,2.28,1.5,3.53,3.73,3.53,3.07,0,5.76-2.08,5.76-6.12Zm-7.83,13.7c-5.5,0-9-3.42-9-8.67,0-4.77,3.06-7.68,8.15-8.87a40.91,40.91,0,0,1,8.66-.73c0-4.09-1.66-5.5-5.91-5.5a19.28,19.28,0,0,0-7.89,1.87V20.89a22.69,22.69,0,0,1,8.82-1.71c8.92,0,12.2,4.05,12.2,11.68V42.17H246v5.7H236L235.45,45h-.1a10.15,10.15,0,0,1-7.94,3.48M124.76,34.8a45,45,0,0,0-4.87.31c-3,.47-4.62,2-4.62,4.62,0,2.28,1.5,3.53,3.73,3.53,3.07,0,5.76-2.08,5.76-6.12Zm-7.83,13.7c-5.5,0-9-3.42-9-8.67,0-4.77,3.05-7.68,8.14-8.87a41,41,0,0,1,8.66-.73c0-4.09-1.65-5.5-5.91-5.5A19.24,19.24,0,0,0,111,26.6V20.89a22.62,22.62,0,0,1,8.82-1.71c8.92,0,12.19,4.05,12.19,11.68V42.17h3.53v5.7h-10L125,45h-.11a10.15,10.15,0,0,1-7.94,3.48m153.7-14.74c0-5.24-2.6-8.71-6.59-8.71s-6.54,3.52-6.54,8.66c0,5.3,2.54,8.77,6.38,8.77,4,0,6.75-3.52,6.75-8.72m7.42,0c0,8.72-5,14.74-12.19,14.74-4.32,0-6.86-1.71-8.15-3.48h-.1v11.8l-7.26,3V25.4h-3.69V19.7H257l.47,3.69h.11c.93-1.46,3.11-4.21,8.25-4.21,7.52,0,12.19,5.76,12.19,14.58M172,19.18a10.89,10.89,0,0,0-9.08,4.21h-.1l-.47-3.69H151.55v5.7h4V47.87h7.32v-13c0-7,3.68-9.55,6.85-9.55,3,0,4.36,1.93,4.36,6.23V47.87h7.26v-18c0-7-3.22-10.69-9.39-10.69m33.27,22.63c-7.48,0-11.89-5-11.89-13.13,0-7.89,4.41-13.23,11.26-13.23a21.75,21.75,0,0,1,4.92.56V24L216,21.26V11.92a21.3,21.3,0,0,0-11.09-2.81c-11.47,0-19.31,7.06-19.31,19.67,0,12,7,19.72,19.31,19.72a23.89,23.89,0,0,0,11.23-2.81l-1.61-6.12a20.14,20.14,0,0,1-9.3,2.24m149.55.36V7.4l-7.32,3V47.87h10.85v-5.7ZM98,36.46c0-3.63-2.65-5.6-7.21-5.6h-7V42.12h7.06c5.09,0,7.16-2.29,7.16-5.66M83.77,25.2h5.92c4.2,0,6.23-2,6.23-4.83,0-3.27-2-4.92-5.81-4.92H83.77Zm22,11.67c0,7.32-5.75,11-14.42,11h-15V15.45H71.68V9.74H90.05c4.93,0,7.47.67,9.45,1.92a8.49,8.49,0,0,1,4,7.52c0,4-2.49,7.06-6.53,8.15v.1c5.44.94,8.76,4.51,8.76,9.44M280.12,25.4h4V47.87h7.32V19.7H280.12Zm4-10.57h7.32V7.93h-7.32ZM136.18,25.4h4V47.87h7.32V19.7H136.18Zm4-10.57h7.32V7.93h-7.32ZM306.66,19.7h7.41v5.7h-7.41V37.81c0,3.11.67,4.93,3.68,4.93a19.22,19.22,0,0,0,3.32-.47v5.45a25.29,25.29,0,0,1-5.7.78c-5.71,0-8.57-2.75-8.57-8.82V25.4h-4V19.7h4V14.87l7.27-3Z"/>
</svg>
