<?xml version="1.0" encoding="utf-8"?>
<!-- Generator: Adobe Illustrator 24.0.2, SVG Export Plug-In . SVG Version: 6.00 Build 0)  -->
<svg version="1.1" id="Layer_1" xmlns="http://www.w3.org/2000/svg" xmlns:xlink="http://www.w3.org/1999/xlink" x="0px" y="0px"
	 width="149.79px" height="25px" viewBox="0 0 149.79 25" style="enable-background:new 0 0 149.79 25;" xml:space="preserve">
<style type="text/css">
	.st0{fill:#FFFFFF;}
</style>
<path class="st0" d="M139.16,14.54c-0.41,0-1.47,0.04-2.04,0.13c-1.24,0.2-1.93,0.85-1.93,1.93c0,0.95,0.63,1.47,1.56,1.47
	c1.28,0,2.4-0.87,2.4-2.56V14.54z M135.88,20.27c-2.3,0-3.75-1.43-3.75-3.62c0-2,1.28-3.21,3.4-3.71c1.04-0.23,2.35-0.3,3.62-0.3
	c0-1.71-0.69-2.3-2.47-2.3c-1.07,0-2.13,0.26-3.3,0.78V8.73c1.13-0.48,2.39-0.72,3.69-0.72c3.73,0,5.1,1.69,5.1,4.88v4.73h1.48v2.39
	h-4.17l-0.24-1.19h-0.05C138.55,19.49,137.64,20.27,135.88,20.27 M98.33,14.54c-0.41,0-1.47,0.04-2.04,0.13
	c-1.24,0.2-1.93,0.85-1.93,1.93c0,0.95,0.63,1.47,1.56,1.47c1.28,0,2.41-0.87,2.41-2.56V14.54z M95.06,20.27
	c-2.3,0-3.75-1.43-3.75-3.62c0-2,1.28-3.21,3.4-3.71c1.04-0.23,2.34-0.3,3.62-0.3c0-1.71-0.69-2.3-2.47-2.3
	c-1.06,0-2.13,0.26-3.3,0.78V8.73c1.13-0.48,2.39-0.72,3.69-0.72c3.73,0,5.1,1.69,5.1,4.88v4.73h1.48v2.39h-4.16l-0.24-1.19h-0.04
	C97.73,19.49,96.81,20.27,95.06,20.27 M52.15,14.54c-0.41,0-1.47,0.04-2.04,0.13c-1.24,0.2-1.93,0.85-1.93,1.93
	c0,0.95,0.63,1.47,1.56,1.47c1.28,0,2.41-0.87,2.41-2.56V14.54z M48.88,20.27c-2.3,0-3.75-1.43-3.75-3.62c0-2,1.28-3.21,3.41-3.71
	c1.04-0.23,2.34-0.3,3.62-0.3c0-1.71-0.69-2.3-2.47-2.3c-1.06,0-2.13,0.26-3.3,0.78V8.73c1.13-0.48,2.39-0.72,3.69-0.72
	c3.73,0,5.1,1.69,5.1,4.88v4.73h1.47v2.39h-4.16l-0.24-1.19H52.2C51.54,19.49,50.63,20.27,48.88,20.27 M113.12,14.11
	c0-2.19-1.08-3.64-2.76-3.64c-1.63,0-2.73,1.47-2.73,3.62c0,2.21,1.06,3.66,2.67,3.66C111.97,17.75,113.12,16.28,113.12,14.11
	 M116.23,14.11c0,3.64-2.08,6.16-5.1,6.16c-1.8,0-2.86-0.71-3.41-1.45h-0.04v4.93L104.64,25V10.62h-1.54V8.23h4.33l0.2,1.54h0.04
	c0.39-0.6,1.3-1.76,3.45-1.76C114.27,8.02,116.23,10.42,116.23,14.11 M71.89,8.02c-1.67,0-3.04,0.7-3.8,1.76h-0.05l-0.19-1.54h-4.51
	v2.39h1.69v9.39h3.06v-5.44c0-2.91,1.54-3.99,2.86-3.99c1.26,0,1.82,0.8,1.82,2.6v6.83h3.04v-7.53C75.82,9.53,74.47,8.02,71.89,8.02
	 M85.8,17.47c-3.12,0-4.97-2.11-4.97-5.49c0-3.3,1.85-5.53,4.71-5.53c0.78,0,1.43,0.09,2.05,0.24v3.32l2.71-1.13v-3.9
	c-1.41-0.82-2.95-1.17-4.64-1.17c-4.79,0-8.07,2.95-8.07,8.22c0,5.01,2.91,8.24,8.07,8.24c1.86,0,3.55-0.54,4.7-1.18l-0.67-2.56
	C88.68,17.05,87.4,17.47,85.8,17.47 M148.31,17.62V3.09l-3.06,1.26v15.66h4.53v-2.39H148.31z M40.96,15.24
	c0-1.52-1.11-2.34-3.01-2.34h-2.93v4.71h2.95C40.09,17.6,40.96,16.65,40.96,15.24 M35.02,10.53h2.47c1.76,0,2.6-0.84,2.6-2.02
	c0-1.37-0.82-2.06-2.43-2.06h-2.65V10.53z M44.19,15.41c0,3.06-2.41,4.6-6.03,4.6h-6.29V6.45h-1.91V4.07h7.68
	c2.06,0,3.12,0.28,3.95,0.8c0.96,0.6,1.67,1.63,1.67,3.14c0,1.67-1.04,2.95-2.73,3.41v0.04C42.8,11.86,44.19,13.35,44.19,15.41
	 M117.09,10.62h1.67v9.39h3.06V8.23h-4.73V10.62z M118.76,6.19h3.06V4.75V3.31h-3.06V6.19z M56.92,10.62h1.67v9.39h3.06V8.23h-4.73
	V10.62z M58.59,6.19h3.06V4.75V3.31h-3.06V6.19z M128.18,8.23h3.1v2.39h-3.1v5.18c0,1.3,0.28,2.06,1.54,2.06
	c0.3,0,0.89-0.09,1.39-0.2v2.28c-0.76,0.2-1.71,0.33-2.39,0.33c-2.38,0-3.58-1.15-3.58-3.69v-5.97h-1.67V8.23h1.67V6.22l3.03-1.26
	V8.23z"/>
<path class="st0" d="M15.88,7.63L2.64,1.01h20.42v3.03L15.88,7.63z M23.06,18.91L9.32,12.03l13.74-6.87V18.91z M23.06,20.04v3.03
	H2.64l13.24-6.62L23.06,20.04z M1.01,22.75v-6.56l7.18-3.59l6.56,3.28L1.01,22.75z M1.01,15.06V9.01l6.05,3.03L1.01,15.06z
	 M14.75,8.19l-6.56,3.28L1.01,7.88V1.32L14.75,8.19z M0,0l0,24.07h24.07V0H0z"/>
<path class="st0" d="M139.16,14.54c-0.41,0-1.47,0.04-2.04,0.13c-1.24,0.2-1.93,0.85-1.93,1.93c0,0.95,0.63,1.47,1.56,1.47
	c1.28,0,2.4-0.87,2.4-2.56V14.54z M135.88,20.27c-2.3,0-3.75-1.43-3.75-3.62c0-2,1.28-3.21,3.4-3.71c1.04-0.23,2.35-0.3,3.62-0.3
	c0-1.71-0.69-2.3-2.47-2.3c-1.07,0-2.13,0.26-3.3,0.78V8.73c1.13-0.48,2.39-0.72,3.69-0.72c3.73,0,5.1,1.69,5.1,4.88v4.73h1.48v2.39
	h-4.17l-0.24-1.19h-0.05C138.55,19.49,137.64,20.27,135.88,20.27 M98.33,14.54c-0.41,0-1.47,0.04-2.04,0.13
	c-1.24,0.2-1.93,0.85-1.93,1.93c0,0.95,0.63,1.47,1.56,1.47c1.28,0,2.41-0.87,2.41-2.56V14.54z M95.06,20.27
	c-2.3,0-3.75-1.43-3.75-3.62c0-2,1.28-3.21,3.4-3.71c1.04-0.23,2.34-0.3,3.62-0.3c0-1.71-0.69-2.3-2.47-2.3
	c-1.06,0-2.13,0.26-3.3,0.78V8.73c1.13-0.48,2.39-0.72,3.69-0.72c3.73,0,5.1,1.69,5.1,4.88v4.73h1.48v2.39h-4.16l-0.24-1.19h-0.04
	C97.73,19.49,96.81,20.27,95.06,20.27 M52.15,14.54c-0.41,0-1.47,0.04-2.04,0.13c-1.24,0.2-1.93,0.85-1.93,1.93
	c0,0.95,0.63,1.47,1.56,1.47c1.28,0,2.41-0.87,2.41-2.56V14.54z M48.88,20.27c-2.3,0-3.75-1.43-3.75-3.62c0-2,1.28-3.21,3.41-3.71
	c1.04-0.23,2.34-0.3,3.62-0.3c0-1.71-0.69-2.3-2.47-2.3c-1.06,0-2.13,0.26-3.3,0.78V8.73c1.13-0.48,2.39-0.72,3.69-0.72
	c3.73,0,5.1,1.69,5.1,4.88v4.73h1.47v2.39h-4.16l-0.24-1.19H52.2C51.54,19.49,50.63,20.27,48.88,20.27 M113.12,14.11
	c0-2.19-1.08-3.64-2.76-3.64c-1.63,0-2.73,1.47-2.73,3.62c0,2.21,1.06,3.66,2.67,3.66C111.97,17.75,113.12,16.28,113.12,14.11
	 M116.23,14.11c0,3.64-2.08,6.16-5.1,6.16c-1.8,0-2.86-0.71-3.41-1.45h-0.04v4.93L104.64,25V10.62h-1.54V8.23h4.33l0.2,1.54h0.04
	c0.39-0.6,1.3-1.76,3.45-1.76C114.27,8.02,116.23,10.42,116.23,14.11 M71.89,8.02c-1.67,0-3.04,0.7-3.8,1.76h-0.05l-0.19-1.54h-4.51
	v2.39h1.69v9.39h3.06v-5.44c0-2.91,1.54-3.99,2.86-3.99c1.26,0,1.82,0.8,1.82,2.6v6.83h3.04v-7.53C75.82,9.53,74.47,8.02,71.89,8.02
	 M85.8,17.47c-3.12,0-4.97-2.11-4.97-5.49c0-3.3,1.85-5.53,4.71-5.53c0.78,0,1.43,0.09,2.05,0.24v3.32l2.71-1.13v-3.9
	c-1.41-0.82-2.95-1.17-4.64-1.17c-4.79,0-8.07,2.95-8.07,8.22c0,5.01,2.91,8.24,8.07,8.24c1.86,0,3.55-0.54,4.7-1.18l-0.67-2.56
	C88.68,17.05,87.4,17.47,85.8,17.47 M148.31,17.62V3.09l-3.06,1.26v15.66h4.53v-2.39H148.31z M40.96,15.24
	c0-1.52-1.11-2.34-3.01-2.34h-2.93v4.71h2.95C40.09,17.6,40.96,16.65,40.96,15.24 M35.02,10.53h2.47c1.76,0,2.6-0.84,2.6-2.02
	c0-1.37-0.82-2.06-2.43-2.06h-2.65V10.53z M44.19,15.41c0,3.06-2.41,4.6-6.03,4.6h-6.29V6.45h-1.91V4.07h7.68
	c2.06,0,3.12,0.28,3.95,0.8c0.96,0.6,1.67,1.63,1.67,3.14c0,1.67-1.04,2.95-2.73,3.41v0.04C42.8,11.86,44.19,13.35,44.19,15.41
	 M117.09,10.62h1.67v9.39h3.06V8.23h-4.73V10.62z M118.76,6.19h3.06V4.75V3.31h-3.06V6.19z M56.92,10.62h1.67v9.39h3.06V8.23h-4.73
	V10.62z M58.59,6.19h3.06V4.75V3.31h-3.06V6.19z M128.18,8.23h3.1v2.39h-3.1v5.18c0,1.3,0.28,2.06,1.54,2.06
	c0.3,0,0.89-0.09,1.39-0.2v2.28c-0.76,0.2-1.71,0.33-2.39,0.33c-2.38,0-3.58-1.15-3.58-3.69v-5.97h-1.67V8.23h1.67V6.22l3.03-1.26
	V8.23z"/>
<path class="st0" d="M15.88,7.63L2.64,1.01h20.42v3.03L15.88,7.63z M23.06,18.91L9.32,12.03l13.74-6.87V18.91z M23.06,20.04v3.03
	H2.64l13.24-6.62L23.06,20.04z M1.01,22.75v-6.56l7.18-3.59l6.56,3.28L1.01,22.75z M1.01,15.06V9.01l6.05,3.03L1.01,15.06z
	 M14.75,8.19l-6.56,3.28L1.01,7.88V1.32L14.75,8.19z M0,0l0,24.07h24.07V0H0z"/>
</svg>
