<?xml version="1.0" encoding="UTF-8"?>
<svg id="Layer_1" data-name="Layer 1" xmlns="http://www.w3.org/2000/svg" viewBox="0 0 374.52 52.56">
  <defs>
    <style>
      .cls-1 {
        fill: #73a333;
      }

      .cls-2 {
        fill: #b5c426;
      }

      .cls-3 {
        fill: #582c83;
      }
    </style>
  </defs>
  <path class="cls-3" d="M353.99,11.42h-3.2V51.86h3.2v-15.05c0-5.19,3.88-8.76,8.85-8.76,5.39,0,8.48,3.26,8.48,8.59v15.22h3.2v-16.2c0-6.54-4.49-10.65-11.12-10.65-3.62,0-7.33,1.52-9.41,5V11.42Zm-7.34,14.01h-12.19v-8.62h-3.2v8.62h-6.07v2.92h6.07v14.46c0,6.4,3.31,9.46,8.82,9.46,3.18,0,5.79-1.06,7.67-2.64l-1.51-2.39c-1.55,1.23-3.62,2.02-5.9,2.02-3.51,0-5.87-2.05-5.87-6.52v-14.4h12.19v-2.92Zm-24.56-14.01h-3.2V51.86h3.2V11.42Zm-33.34,27.24c0,5.95,4.3,10.61,10.31,10.61s10.28-4.55,10.28-10.61-4.3-10.64-10.28-10.64-10.31,4.66-10.31,10.64m23.59,13.2h-3.17v-5.08c-2.13,3.31-5.67,5.5-10.47,5.5-7.41,0-13.2-5.76-13.2-13.62s5.78-13.65,13.2-13.65c4.8,0,8.34,2.22,10.47,5.5v-5.08h3.17v26.43Zm-51.89-14.8h18.9c-.48-5.48-4.21-9.21-9.18-9.21-5.36,0-9.1,3.85-9.72,9.21m22.15,1.43c0,.48-.03,.93-.06,1.32h-22.16c.48,6.15,4.8,9.69,10.22,9.69,3.68,0,6.6-1.46,8.93-3.76l1.71,2.19c-3.34,3.4-7.02,4.35-10.84,4.35-7.72,0-13.29-5.56-13.29-13.62s5.65-13.65,13.09-13.65c7.05,0,12.3,5.59,12.38,13.48m-50.49-27.07h-3.2V51.86h3.2v-15.05c0-5.19,3.88-8.76,8.85-8.76,5.39,0,8.48,3.26,8.48,8.59v15.22h3.2v-16.2c0-6.54-4.49-10.65-11.12-10.65-3.62,0-7.33,1.52-9.41,5V11.42Zm-30.98,26.99c0,4.72,3.06,8.62,8.12,8.62s8.12-3.71,8.12-8.62-3.26-8.62-8.12-8.62-8.12,3.9-8.12,8.62m21.74,13.45h-5.87v-3.23c-1.85,2.39-4.63,3.93-8.45,3.93-7.52,0-13.45-5.93-13.45-14.15s5.93-14.16,13.45-14.16c3.82,0,6.6,1.57,8.45,3.96v-3.26h5.87v26.9Zm-31.62-16.91c0-6.29-4.52-10.7-10.92-10.7-2.75,0-6.1,.81-8.26,3.99v-3.28h-5.84v26.9h5.9v-14.91c0-4.61,3.18-7.11,6.97-7.11s6.26,2.53,6.26,7.05v14.97h5.9v-16.91Zm-49.15,1.15h13.96c-.64-4.18-3.09-6.63-6.82-6.63-4.19,0-6.52,2.7-7.13,6.63m19.97,2.27c0,.76-.06,1.52-.11,2.19h-19.88c.78,4.83,4.18,6.85,8,6.85,2.69,0,5.56-1.07,7.78-2.83l2.92,4.18c-3.29,2.81-6.99,3.79-11.07,3.79-8.06,0-13.76-5.62-13.76-14.15s5.48-14.16,13.39-14.16,12.69,5.73,12.72,14.13M112.87,11.42h-5.9V51.86h5.9v-14.91c0-4.61,3.17-7.11,6.96-7.11s6.26,2.53,6.26,7.05v14.97h5.9v-16.9c0-6.29-4.52-10.7-10.93-10.7-2.72,0-6.04,.82-8.2,3.91V11.42Zm-9.95,13.53h-10.31v-8.14h-5.9v8.14h-5.36v5.34h5.36v11.82c0,7.16,3.57,10.45,9.66,10.45,3.37,0,6.09-1.21,8.26-2.67l-2.33-4.69c-1.6,1.01-3.6,1.83-5.42,1.83-2.36,0-4.27-1.4-4.27-5.03v-11.71h10.31v-5.34Zm-45.9,13.45c0,4.72,3.06,8.62,8.11,8.62s8.12-3.71,8.12-8.62-3.26-8.62-8.12-8.62-8.11,3.9-8.11,8.62m21.74,13.45h-5.87v-3.23c-1.85,2.39-4.63,3.93-8.45,3.93-7.53,0-13.45-5.93-13.45-14.15s5.93-14.16,13.45-14.16c3.82,0,6.6,1.57,8.45,3.96v-3.26h5.87v26.9Z"/>
  <path class="cls-1" d="M27.87,15.44c0,1.82,1.47,3.3,3.3,3.3s3.3-1.47,3.3-3.3-1.48-3.3-3.3-3.3-3.3,1.48-3.3,3.3m19.24,1.65s.59,13.89-6.33,23.41c-6.93,9.52-18.75,11.08-18.75,11.08,0,0-.59-13.88,6.33-23.41,6.92-9.53,18.75-11.08,18.75-11.08"/>
  <path class="cls-2" d="M19.27,39.24v-.11s0,0,0,0c-.02-2.72-.48-11.04-4.87-17.08C9.08,14.73,0,13.54,0,13.54,0,13.54-.45,24.21,4.87,31.52c3.78,5.2,9.45,7.3,12.42,8.09v11.46c0,.55,.44,.99,.99,.99s.99-.44,.99-.99v-11.82Zm.22-14.3s-5.17-6.28-5.3-13.17C14.07,4.9,19.04,0,19.04,0,19.04,0,24.22,6.27,24.34,13.16c.12,6.89-4.85,11.78-4.85,11.78"/>
</svg>