<?xml version="1.0" encoding="UTF-8"?>
<svg id="Layer_1" data-name="Layer 1" xmlns="http://www.w3.org/2000/svg" viewBox="0 0 341.01 58.43">
  <path d="M226.04,17.6V57.67h12.64V17.6c-3.83,2.54-8.81,2.54-12.64,0Zm-12.31,30.08c-2.75,0-4.64-2.16-4.64-5.35v-14.53h11.34v-10.26h-11.34l-.11-11.77h-12.53l.11,39.2c0,7.94,5.29,13.34,13.07,13.34,4.1,0,7.99-.59,11.07-2v-9.99c-2.18,1.01-4.57,1.48-6.97,1.35Zm-38.23-30.83c-5.15-.08-9.97,2.54-12.69,6.91l-.43-6.16h-12.1V57.67h12.53v-21.01c.27-5.02,4.32-8.86,8.75-8.86,4.97,0,7.24,3.73,7.24,8.42v21.38h12.47v-23.33c0-10.15-6.18-17.44-15.77-17.44ZM232.36,0C227.93,0,224.59,2.97,224.59,7.13s3.35,7.24,7.78,7.24,7.78-3.02,7.78-7.24S236.84,0,232.36,0Zm82.08,34.07h-16.96c.38-5.4,4.27-7.88,8.53-7.88,4.81,0,8.42,2.7,8.42,7.34v.54Zm-8.75-17.17c-11.66,0-20.63,9.07-20.63,21.11s8.96,20.25,21.33,20.25c6.97,0,13.5-2.48,17.5-7.61l-9.61-4.37c-1.94,1.78-4.91,2.48-7.56,2.48-4.32,0-8.64-2.21-9.23-6.75h28.67c.43-1.62,.65-3.29,.65-4.97,0-12.37-9.02-20.14-21.11-20.14Zm-32.45,.7l-8.75,25.38-8.86-25.38h-13.61l16.31,40.07h12.2l16.31-40.07h-13.61Zm61.4,5.99c-3.08,.05-5.18-2-5.18-5.13s2-5.24,5.08-5.29,5.13,2,5.18,5.18c0,3.08-2.05,5.18-5.05,5.24h-.03Zm-.16-11.5c-3.94,.05-6.48,2.59-6.43,6.37,.05,3.78,2.65,6.26,6.59,6.21,3.83-.05,6.43-2.59,6.37-6.43-.05-3.83-2.65-6.21-6.53-6.16M22.03,47.47c-5.45,0-9.4-4.05-9.4-9.77s3.89-9.77,9.4-9.77c5.08,0,9.29,4.43,9.29,9.77s-4.21,9.77-9.29,9.77m0-30.56C11.29,16.9,0,23.98,0,38.23c0,11.88,7.99,20.2,18.09,20.2,5.78,0,10.15-2.32,13.01-6.43l.38,5.72h12.12v-19.01c0-14.47-10.67-21.82-21.57-21.82m44.01,30.78c-2.75,0-4.64-2.16-4.64-5.35v-14.53h11.34v-10.26h-11.31l-.11-11.77h-12.53l.11,39.2c0,7.94,5.29,13.34,13.07,13.34,4.1,0,7.99-.59,11.07-2v-9.99c-2.18,1.02-4.59,1.48-6.99,1.35m50.87-13.61c.38-5.4,4.27-7.88,8.53-7.88,4.81,0,8.42,2.7,8.42,7.34v.54h-16.96Zm8.21-17.17c-11.66,0-20.63,9.07-20.63,21.11s8.96,20.25,21.33,20.25c6.97,0,13.5-2.48,17.5-7.61l-9.61-4.37c-1.94,1.78-4.91,2.48-7.56,2.48-4.32,0-8.64-2.21-9.23-6.75h28.67c.43-1.62,.65-3.29,.65-4.97,0-12.37-9.02-20.14-21.09-20.14h-.03Zm-29.92,30.78c-2.75,0-4.64-2.16-4.64-5.35v-14.53h11.34v-10.26h-11.31l-.11-11.77h-12.53l.11,39.2c0,7.94,5.29,13.34,13.07,13.34,4.1,0,7.99-.59,11.07-2v-9.99c-2.19,1.01-4.59,1.48-6.99,1.35m239.54-29.59h-1.03v-1.67h1.19c.44-.05,.85,.26,.92,.7v.05c-.02,.53-.46,.94-.98,.93-.03,0-.06,0-.1,0m2.75-.86c0-1.3-.92-2.16-2.43-2.16l-2.97,.05,.05,6.59h1.62v-2.27h.97l1.4,2.27h1.89l-1.67-2.54c.71-.39,1.14-1.14,1.13-1.94"/>
</svg>