<?xml version="1.0" encoding="UTF-8"?>
<svg id="Layer_1" data-name="Layer 1" xmlns="http://www.w3.org/2000/svg" viewBox="0 0 170.15 69.31">
  <defs>
    <style>
      .cls-1 {
        fill: #f26e24;
      }
    </style>
  </defs>
  <path class="cls-1" d="M25.42,0h-6.84L.14,48.01H6.89l7.11-19.72,5.27-14.08c1.11-3.03,1.97-6.09,2.59-9.17,.74,2.6,1.87,5.92,3.4,9.96l7.64,20.64-18.9-7.35,21.9,14.68,1.94,5.03h7.24L25.42,0Z"/>
  <path d="M153.16,40.61c1.94-2.23,2.91-5.62,2.91-10.18,0-4.3-.98-7.56-2.93-9.78-1.95-2.21-4.38-3.32-7.28-3.32s-5.39,1.1-7.34,3.3c-1.94,2.21-2.92,5.54-2.92,9.99s.97,7.79,2.92,10c1.94,2.21,4.39,3.32,7.34,3.32s5.36-1.11,7.3-3.34m4.42-23.46c3.03,3.13,4.55,7.46,4.55,12.98,0,4.48-.67,8-2.01,10.56-1.34,2.57-3.3,4.56-5.86,5.98-2.57,1.42-5.37,2.13-8.4,2.13-4.87,0-8.81-1.56-11.81-4.68-3-3.12-4.5-7.62-4.5-13.49,0-6.44,1.79-11.21,5.37-14.31,2.99-2.58,6.64-3.86,10.94-3.86,4.78,0,8.69,1.56,11.72,4.7m-42.53,30.87l13.16-34.78h-6.06l-7.73,21.22c-.94,2.58-1.67,4.78-2.19,6.61-.68-2.42-1.42-4.76-2.23-7.01l-7.47-20.82h-6.22l13.23,34.78h5.5Zm-30.03,0h5.89V13.23h-5.89V48.01Zm-5.8-5.27c-1.07,.15-1.93,.23-2.59,.23-.87,0-1.54-.14-2.01-.42-.47-.28-.81-.67-1.02-1.15-.21-.48-.31-1.56-.31-3.24V17.81h5.93v-4.58h-5.93V1.08l-5.86,3.54V13.23h-4.32v4.58h4.32v20.01c0,3.54,.24,5.86,.72,6.96,.48,1.1,1.31,1.99,2.49,2.67,1.18,.68,2.84,1.01,4.98,1.01,1.31,0,2.79-.17,4.45-.52l-.85-5.21Zm-18.63,0l.85,5.21c-1.66,.35-3.15,.52-4.45,.52-2.14,0-3.8-.34-4.98-1.01-1.18-.68-2.01-1.57-2.49-2.67-.48-1.1-.72-3.42-.72-6.96V17.81h-4.32v-4.58h4.32V4.62l5.86-3.54V13.23h5.93v4.58h-5.93v20.34c0,1.68,.1,2.76,.31,3.24,.21,.48,.55,.86,1.02,1.15,.47,.28,1.14,.42,2.01,.42,.65,0,1.51-.08,2.59-.23"/>
  <path d="M167.86,65.47c.22,0,.37,.03,.45,.1,.08,.07,.12,.17,.12,.31,0,.16-.05,.28-.17,.35-.07,.05-.22,.07-.43,.07h-.69v-.83h.72Zm-1.16,2.41h.44v-1.17h.7c.18,0,.29,.01,.35,.03,.06,.02,.1,.06,.13,.11,.03,.05,.05,.14,.06,.27l.02,.35c.01,.16,.04,.3,.07,.41h.5l-.05-.07c-.07-.1-.1-.22-.1-.37v-.32c0-.2-.02-.34-.07-.42-.04-.08-.13-.15-.25-.22,.14-.09,.23-.18,.27-.25,.05-.1,.08-.23,.08-.37,0-.17-.04-.31-.12-.44-.08-.12-.17-.21-.29-.27-.12-.05-.32-.08-.59-.08h-1.17v2.81Zm3.12-1.39c0,.38-.09,.73-.28,1.06-.19,.32-.45,.58-.77,.77-.33,.19-.67,.28-1.04,.28s-.73-.09-1.05-.28c-.33-.19-.59-.44-.77-.77-.19-.33-.28-.68-.28-1.05s.09-.73,.28-1.06c.19-.33,.44-.59,.77-.78,.33-.19,.68-.28,1.06-.28s.72,.09,1.04,.28c.32,.19,.58,.45,.77,.78,.19,.33,.28,.68,.28,1.05m.34,0c0-.43-.11-.83-.33-1.21-.22-.38-.52-.68-.89-.9-.38-.22-.78-.32-1.22-.32s-.84,.11-1.22,.33c-.38,.22-.68,.52-.89,.9-.22,.38-.33,.79-.33,1.22s.11,.83,.33,1.21c.22,.38,.51,.68,.9,.89,.38,.22,.79,.33,1.22,.33s.84-.11,1.22-.33c.38-.22,.68-.52,.89-.9,.22-.38,.32-.78,.32-1.22m-8.24-10.27c-.77-.9-1.49-1.52-2.16-1.86-.66-.34-1.36-.51-2.1-.51-1.14,0-2.1,.36-2.88,1.1-.78,.73-1.17,1.61-1.17,2.63,0,.71,.24,1.42,.7,2.13,.47,.71,1.5,1.72,3.11,3.03,.84,.69,1.39,1.2,1.63,1.53,.25,.33,.37,.67,.37,1,0,.37-.16,.69-.49,.97-.33,.28-.73,.42-1.21,.42-.92,0-1.74-.65-2.44-1.95l-2.36,1.42c.55,1.1,1.22,1.91,2,2.42,.78,.51,1.69,.77,2.74,.77,1.34,0,2.43-.39,3.27-1.18,.84-.79,1.25-1.78,1.25-2.99,0-.62-.12-1.19-.35-1.72-.24-.52-.64-1.07-1.21-1.65-.23-.23-.88-.8-1.94-1.69-1.14-.97-1.83-1.6-2.05-1.89-.17-.22-.25-.45-.25-.7s.12-.47,.35-.67c.23-.2,.53-.29,.9-.29,.75,0,1.5,.51,2.23,1.52l2.07-1.83Zm-28.92,12.72h2.83v-6.54l4.54,6.54h3.32l-5.64-8.15,5.14-6.57h-3.36l-4,5.07v-5.07h-2.83v14.72Zm-14.7-9.32c.33-.23,.5-.62,.5-1.16,0-.32-.08-.6-.25-.84-.17-.24-.39-.41-.67-.51-.28-.1-.79-.15-1.54-.15h-.77v3.02h.88c.89,0,1.51-.12,1.84-.35m3.91,9.32h-3.06l-3.31-6.23h-.26v6.23h-2.8v-14.72h2.97c1.63,0,2.78,.15,3.47,.44,.69,.29,1.24,.77,1.66,1.44,.42,.67,.63,1.47,.63,2.39,0,.97-.23,1.78-.7,2.43-.46,.65-1.16,1.14-2.1,1.48l3.49,6.54Zm-24.97-3.78c.93-.96,1.4-2.15,1.4-3.55s-.47-2.59-1.41-3.56c-.94-.97-2.09-1.45-3.44-1.45s-2.51,.47-3.44,1.42c-.93,.95-1.39,2.15-1.39,3.61,0,1.63,.59,2.92,1.75,3.86,.91,.74,1.95,1.11,3.12,1.11,1.33,0,2.46-.48,3.39-1.44m1.96-9.05c1.5,1.51,2.25,3.34,2.25,5.51s-.74,3.97-2.22,5.46c-1.48,1.49-3.27,2.23-5.38,2.23s-4.05-.76-5.51-2.29c-1.46-1.53-2.19-3.34-2.19-5.44,0-1.41,.34-2.7,1.02-3.88,.68-1.18,1.62-2.12,2.81-2.81,1.19-.69,2.47-1.03,3.85-1.03,2.08,0,3.87,.75,5.37,2.26m-37.05,12.83h2.66l2.66-9.52,2.71,9.52h2.69l3.32-14.72h-2.76l-2.11,9.4-2.67-9.4h-2.33l-2.63,9.4-2.13-9.4h-2.76l3.33,14.72Zm-20.78-11.96h2.61v11.96h2.84v-11.96h2.68v-2.76h-8.14v2.76Zm-17.7,11.96h8.03v-2.75h-5.25v-3.87h5.25v-2.69h-5.25v-2.66h5.25v-2.74h-8.03v14.72ZM0,54.22H2.69l6.3,9.69v-9.69h2.8v14.72h-2.7l-6.29-9.66v9.66H0v-14.72Z"/>
</svg>