<?xml version="1.0" encoding="UTF-8"?>
<svg id="Layer_1" data-name="Layer 1" xmlns="http://www.w3.org/2000/svg" viewBox="0 0 299.05 54.93">
  <defs>
    <style>
      .cls-1 {
        fill: #003a57;
      }

      .cls-2 {
        fill: #00aeef;
      }
    </style>
  </defs>
  <path class="cls-1" d="M282.89,40.43h1.56c1.08,.02,2.16-.17,3.17-.56,.88-.34,1.68-.86,2.35-1.53,.64-.66,1.14-1.45,1.46-2.31,.34-.94,.51-1.94,.5-2.94,0-1-.17-1.99-.52-2.92-.33-.87-.83-1.66-1.48-2.33-.67-.67-1.47-1.19-2.35-1.53-1-.39-2.06-.57-3.13-.56h-1.56v14.67Zm-6.81-20.44h10.08c1.73-.01,3.44,.36,5.02,1.08,1.53,.7,2.92,1.67,4.1,2.87,1.18,1.2,2.11,2.62,2.76,4.17,1.34,3.18,1.34,6.76,.01,9.94-1.3,3.15-3.75,5.67-6.85,7.07-1.59,.72-3.31,1.09-5.06,1.08h-10.08V19.99h0Zm-28.21,26.21V19.99h6.81l12.59,16.03V19.99h6.78v26.22h-6.78l-12.59-16.03v16.03h-6.81Zm-2.04-20.44h-8.1v4.38h7.64v5.77h-7.64v4.52h8.1v5.77h-14.92V19.99h14.92v5.77Zm-29.9,5.94h1.29c1.1,.07,2.19-.22,3.1-.83,1.32-1.18,1.44-3.2,.27-4.52-.08-.09-.17-.18-.27-.27-.91-.61-2-.91-3.1-.83h-1.29v6.45Zm14.99,14.5h-8.48l-6.5-10.08v10.08h-6.81V19.99h10.6c1.3-.03,2.6,.19,3.82,.64,1.01,.38,1.93,.98,2.69,1.76,.7,.74,1.25,1.62,1.6,2.57,.36,1,.55,2.06,.54,3.13,.08,1.73-.43,3.44-1.44,4.85-1.08,1.31-2.59,2.21-4.26,2.52l8.24,10.74Zm-28.96-20.44v20.44h-6.81V25.76h-5.6v-5.77h18.01v5.77h-5.59Zm-25.65,5.94h1.29c1.1,.07,2.19-.22,3.1-.83,1.32-1.18,1.44-3.2,.27-4.52-.08-.09-.17-.18-.27-.27-.91-.61-2-.91-3.1-.83h-1.29v6.45Zm14.99,14.5h-8.48l-6.5-10.08v10.08h-6.81V19.99h10.6c1.3-.03,2.6,.19,3.82,.64,1.01,.38,1.93,.98,2.69,1.76,.7,.74,1.25,1.61,1.6,2.57,.37,1,.55,2.06,.54,3.13,.08,1.73-.43,3.44-1.44,4.85-1.08,1.32-2.59,2.21-4.26,2.52l8.24,10.74Zm-23.92-20.44h-8.1v4.38h7.64v5.77h-7.64v4.52h8.1v5.77h-14.92V19.99h14.92v5.77Zm-32.41,14.67h1.56c1.08,.02,2.16-.17,3.17-.56,.88-.34,1.68-.86,2.35-1.53,.64-.66,1.14-1.45,1.46-2.31,.34-.94,.51-1.94,.5-2.94,0-1-.17-1.99-.52-2.92-.33-.87-.83-1.66-1.48-2.33-.67-.67-1.47-1.19-2.35-1.53-1-.39-2.06-.57-3.13-.56h-1.56v14.67Zm-6.81-20.44h10.08c1.73-.01,3.45,.36,5.02,1.08,1.53,.7,2.92,1.67,4.1,2.87,1.18,1.2,2.11,2.62,2.76,4.17,1.34,3.18,1.34,6.76,.01,9.94-1.3,3.15-3.75,5.67-6.85,7.07-1.59,.72-3.31,1.09-5.06,1.08h-10.07V19.99h0Zm-10.29,0v20.44h8.17v5.77h-14.98V19.99h6.81Zm-8.81,26.22h-6.81V19.99h6.81v26.22Zm-24.84-26.22v14.25c0,.76,.03,1.55,.08,2.35,.04,.75,.22,1.49,.52,2.17,.29,.65,.77,1.2,1.37,1.58,.8,.45,1.72,.66,2.64,.61,.92,.05,1.83-.16,2.62-.61,.6-.39,1.07-.93,1.37-1.58,.31-.69,.49-1.42,.54-2.17,.06-.8,.08-1.58,.08-2.35v-14.25h6.78v15.19c0,4.08-.93,7.06-2.8,8.93-1.87,1.88-4.73,2.82-8.61,2.82s-6.75-.94-8.62-2.82-2.82-4.85-2.82-8.93v-15.19h6.82Zm-21.11,20.93h1.5c1.26,.09,2.53-.14,3.68-.66,1.17-.81,1.47-2.41,.66-3.58-.18-.26-.4-.48-.66-.66-1.15-.53-2.42-.75-3.68-.66h-1.5v5.57Zm0-10.64h1.25c2.13,0,3.19-.85,3.2-2.54s-1.06-2.54-3.2-2.54h-1.25v5.08Zm-6.81-10.28h10.15c1.99-.14,3.95,.48,5.49,1.74,1.32,1.32,2,3.14,1.88,5,.04,1.14-.2,2.27-.71,3.29-.52,.91-1.27,1.67-2.17,2.2,.87,.15,1.71,.44,2.49,.86,1.29,.69,2.22,1.88,2.59,3.29,.19,.73,.28,1.48,.28,2.23,.02,1.12-.2,2.24-.64,3.26-.41,.93-1.03,1.75-1.81,2.4-.83,.68-1.8,1.17-2.83,1.46-1.22,.34-2.49,.51-3.75,.49h-10.96V19.99Z"/>
  <path class="cls-2" d="M42.79,33.04h0c-.21-8.36-5.27-15.84-12.96-19.14l-2.63,10.55c3.1,1.97,4.98,5.38,5,9.06v.04c-.01,5.63-4.34,10.3-9.95,10.74l-2.64,10.56c.57,.05,1.14,.08,1.72,.08l1.3-.04c11.24-.66,20.06-9.91,20.16-21.17v-.68Z"/>
  <path class="cls-1" d="M15.63,42.66c-3.12-1.98-5.02-5.41-5.03-9.11v-.04c.03-5.63,4.37-10.29,9.98-10.72l2.63-10.56c-.33-.03-.66-.05-1-.07h0s-11.64-.01-11.64-.01V0H0V33.55c.02,8.56,5.13,16.28,12.99,19.65l2.63-10.55Z"/>
</svg>