<?xml version="1.0" encoding="UTF-8"?><svg id="Layer_1" xmlns="http://www.w3.org/2000/svg" viewBox="0 0 282.7 92.2"><defs><style>.cls-1,.cls-2{fill:#fff;}.cls-2{opacity:.5;}</style></defs><circle class="cls-2" cx="46.1" cy="46.1" r="46.1"/><path class="cls-1" d="M73.8,43.8c1.7-1.7,2.8-4,2.8-6.5,0-4.6-3.8-8-8.5-7.5l-7.1,.7c-.7,.1-1.4,.7-1.4,1.5v26.6c0,.7,.6,1.3,1.4,1.2l7.1-.7c4.7-.5,8.5-4.6,8.5-9.2,0-2.6-1.1-4.7-2.8-6.1ZM31.4,30.5l-7.1-.7c-4.7-.5-8.5,2.9-8.5,7.5,0,2.5,1.1,4.8,2.8,6.5-1.7,1.4-2.8,3.5-2.8,6,0,4.6,3.8,8.8,8.5,9.2l7.1,.7c.7,.1,1.4-.5,1.4-1.2V32c-.1-.8-.7-1.4-1.4-1.5Zm14.7,5.9h-7.1c-.7,0-1.4,.6-1.4,1.4v20.4c0,.8,.5,1.6,1.3,1.6h7.1c-.1,1.5-2.1,3.3-6.9,3.8h-.5c-.3,0-1.1,0-1.1,1.4v.4c0,.8,.6,1.4,1.3,1.4h7.1c4.7,0,8.5-4.5,8.5-9.2v-12.7c.2-4.7-3.6-8.5-8.3-8.5Z"/><path class="cls-1" d="M276,18.7v.9h-1.7v4.6h-1v-4.6h-1.7v-.9h4.4Zm5.6,5.5l-.2-3.3v-1.5h-.1c-.1,.5-.3,1.1-.4,1.7l-.9,3.1h-1.1l-.9-3.2c-.1-.4-.2-1.1-.4-1.6h-.1v1.5l-.2,3.3h-1l.4-5.5h1.6l.9,2.7c.1,.4,.2,.8,.3,1.4,.1-.5,.3-1,.4-1.4l.9-2.7h1.5l.4,5.5h-1.1ZM121.4,51.8v12.9h30.9c.5,0,1.2,.8,1.2,1.3v8.2c0,.6-.7,1.3-1.2,1.3h-42c-.5,0-1.1-.6-1.1-1.1V19.9c0-.6,.5-1.1,1.1-1.1h42c.5,0,1.2,.8,1.2,1.3v8.1c0,.6-.7,1.3-1.2,1.3h-30.9v11.5h28.2c.5,0,1.2,.8,1.2,1.3v8.1c0,.6-.7,1.3-1.2,1.3h-28.2v.1Zm41,23.7c-.5,0-1.1-.6-1.1-1.1V19.9c0-.6,.5-1.1,1.1-1.1h22.6c17,0,29.6,11.1,29.6,28.4s-10.7,28.4-29.5,28.4h-22.7v-.1Zm11.1-46v35.2h11.7c11.3,0,17.3-6.8,17.3-17.6s-7.3-17.6-17.5-17.6h-11.5Zm50,46c-.5,0-1.1-.6-1.1-1.1V19.9c0-.6,.5-1.1,1.1-1.1h27.4c12.1,0,18.6,6.8,18.6,15.6,0,4.5-1.7,8.1-4.6,10.7v.1c4.2,2.8,6.7,7.4,6.7,13.2,0,10.9-7.5,17-20.4,17h-27.7v.1Zm11.1-46v11.5h15.5c5.4,0,7.2-2.6,7.2-5.7s-2.4-5.9-8.1-5.9h-14.6v.1Zm15.4,35.2c6.8,0,9.5-2.3,9.5-6.8,0-4.2-3-7-9.7-7h-15.1v13.8h15.3Z"/></svg>