<?xml version="1.0" encoding="UTF-8"?>
<svg id="Layer_1" data-name="Layer 1" xmlns="http://www.w3.org/2000/svg" viewBox="0 0 287.7 43.2">
  <defs>
    <style>
      .cls-1 {
        fill: #002f53;
      }

      .cls-2 {
        fill: #c5004b;
      }
    </style>
  </defs>
  <path d="M283.5,43v-2.8l-2.6-4h1.7l1.7,2.8,1.7-2.8h1.7l-2.6,4v2.8h-1.6Zm-5.3,0l-3.3-4.6v4.6h-1.5v-6.9h1.5l3.2,4.4v-4.4h1.5v6.9h-1.4Zm-9.5-5.5l-1.1,3.1h2.3l-1.2-3.1Zm2,5.5l-.4-1.2h-3.1l-.4,1.2h-1.6l2.6-6.9h1.8l2.6,6.9h-1.5Zm-8-5.6h-1.6v1.9h1.6c.6,0,1-.4,1-.9,0-.6-.5-1-1-1m-3.1,5.6v-6.9h3.2c1.5,0,2.3,1,2.3,2.2s-.8,2.2-2.3,2.2h-1.7v2.5h-1.5Zm-3.4,0v-4.9l-1.9,4.9h-.6l-1.9-4.9v4.9h-1.5v-6.9h2l1.7,4.3,1.7-4.3h2.1v6.9h-1.6Zm-11.1-5.6c-1.3,0-2.1,1-2.1,2.2,0,1.3,.8,2.2,2.1,2.2s2.1-1,2.1-2.2c0-1.3-.9-2.2-2.1-2.2m0-1.3c2.1,0,3.6,1.5,3.6,3.5,0,2.1-1.5,3.5-3.6,3.5s-3.6-1.5-3.6-3.5,1.5-3.5,3.6-3.5m-11.2,3.5c0-2.1,1.6-3.5,3.6-3.5,1.6,0,2.4,.8,2.9,1.7l-1.3,.6c-.3-.6-.9-1-1.7-1-1.2,0-2.1,1-2.1,2.2,0,1.3,.9,2.2,2.1,2.2,.8,0,1.4-.4,1.7-1l1.3,.6c-.5,.9-1.4,1.7-2.9,1.7-2,.1-3.6-1.4-3.6-3.5m-6.3,3.4l-3.3-4.6v4.6h-1.5v-6.9h1.5l3.2,4.4v-4.4h1.5v6.9h-1.4Zm-9.9-5.6c-1.3,0-2.1,1-2.1,2.2,0,1.3,.8,2.2,2.1,2.2s2.1-1,2.1-2.2c0-1.3-.8-2.2-2.1-2.2m0-1.3c2.1,0,3.6,1.5,3.6,3.5,0,2.1-1.5,3.5-3.6,3.5s-3.6-1.5-3.6-3.5,1.5-3.5,3.6-3.5m-6.6,0h1.5v6.9h-1.5v-6.9Zm-5,6.9v-5.6h-2v-1.3h5.5v1.3h-2v5.6h-1.5Zm-5.7-5.5l-1.1,3.1h2.3l-1.2-3.1Zm2,5.5l-.4-1.2h-3.1l-.4,1.2h-1.7l2.6-6.9h1.8l2.6,6.9h-1.4Zm-8.3,0v-4.9l-1.9,4.9h-.6l-1.9-4.9v4.9h-1.5v-6.9h2l1.7,4.3,1.7-4.3h2.1v6.9h-1.6Zm-10.1-5.6h-1.5v1.9h1.5c.6,0,1-.4,1-.9,0-.6-.4-1-1-1m.9,5.6l-1.3-2.5h-1.1v2.5h-1.5v-6.9h3.2c1.4,0,2.3,.9,2.3,2.2,0,1.2-.8,1.9-1.5,2l1.5,2.6h-1.6v.1Zm-9.1-5.6c-1.3,0-2.1,1-2.1,2.2,0,1.3,.8,2.2,2.1,2.2s2.1-1,2.1-2.2c0-1.3-.8-2.2-2.1-2.2m0-1.3c2.1,0,3.6,1.5,3.6,3.5,0,2.1-1.5,3.5-3.6,3.5s-3.6-1.5-3.6-3.5,1.5-3.5,3.6-3.5m-9.7,6.9v-6.9h4.9v1.3h-3.4v1.5h3.3v1.3h-3.3v2.9l-1.5-.1Zm-6.4-2c.5,.5,1.2,.9,2.2,.9,.8,0,1.2-.4,1.2-.8,0-.5-.6-.7-1.4-.9-1.1-.3-2.6-.6-2.6-2.1,0-1.1,1-2.1,2.6-2.1,1.1,0,2,.3,2.7,1l-.8,1.1c-.6-.5-1.3-.7-2-.7s-1,.3-1,.7c0,.5,.6,.6,1.4,.8,1.1,.3,2.6,.6,2.6,2.1,0,1.3-.9,2.2-2.7,2.2-1.3,0-2.3-.4-2.9-1.1l.7-1.1Zm-3.7,2l-3.3-4.6v4.6h-1.5v-6.9h1.5l3.2,4.4v-4.4h1.5v6.9h-1.4Zm-9.5-5.5l-1.1,3.1h2.3l-1.2-3.1Zm2,5.5l-.4-1.2h-3.1l-.4,1.2h-1.6l2.7-6.9h1.8l2.6,6.9h-1.6Zm-9-5.6h-1.5v1.9h1.5c.6,0,1-.4,1-.9,0-.6-.4-1-1-1m.9,5.6l-1.3-2.5h-1.1v2.5h-1.5v-6.9h3.2c1.4,0,2.3,.9,2.3,2.2,0,1.2-.8,1.9-1.5,2l1.5,2.6h-1.6v.1Zm-8.9,0v-5.6h-2v-1.3h5.5v1.3h-2v5.6h-1.5Zm-10.7,0v-6.9h1.5v5.6h2.9v1.3h-4.4Zm-4.8-5.5l-1.1,3.1h2.3l-1.2-3.1Zm1.9,5.5l-.4-1.2h-3.1l-.4,1.2h-1.6l2.7-6.9h1.8l2.6,6.9h-1.6Zm-9.1,0v-5.6h-2v-1.3h5.5v1.3h-2v5.6h-1.5Zm-5-6.9h1.5v6.9h-1.5v-6.9Zm-4.6,0c1.4,0,2.3,.7,2.8,1.5l-1.2,.7c-.3-.5-.9-.9-1.6-.9-1.2,0-2.1,1-2.1,2.2,0,1.3,.9,2.2,2.1,2.2,.6,0,1.2-.3,1.5-.5v-.8h-1.9v-1.3h3.3v2.6c-.7,.8-1.7,1.3-2.9,1.3-2,0-3.6-1.4-3.6-3.6-.1-2,1.6-3.4,3.6-3.4m-6.7,0h1.5v6.9h-1.5v-6.9Zm-6.5,5.7h1.2c1.4,0,2.1-1,2.1-2.1,0-1.2-.7-2.1-2.1-2.1h-1.2v4.2Zm-1.5,1.2v-6.9h2.7c2.1,0,3.6,1.4,3.6,3.4,0,2.1-1.5,3.4-3.6,3.4l-2.7,.1Zm-9.8,0v-6.9h4.8v1.3h-3.4v1.5h3.3v1.3h-3.3v1.6h3.4v1.3l-4.8-.1Zm-3.4,0v-2.9h-3.2v2.9h-1.5v-6.9h1.5v2.7h3.2v-2.7h1.5v6.9h-1.5Zm-9.6,0v-5.6h-2v-1.3h5.5v1.3h-2v5.6h-1.5Zm221.4-19.3l-.3-1.8c-.8,.8-1.7,1.4-2.9,1.8-1.1,.4-2.4,.6-3.9,.6-3.1,0-5.6-1-7.3-3-1.8-2-2.7-4.7-2.7-8.2s1-6.3,3-8.2c2-2,4.8-2.9,8.4-2.9,2.8,0,5.1,.7,6.9,2.1,1.7,1.4,2.8,3.3,3.1,5.8h-6.6c-.3-.8-.7-1.5-1.3-1.9-.6-.4-1.3-.7-2.2-.7-1.4,0-2.4,.5-3.1,1.6-.7,1-1,2.6-1,4.7,0,1.9,.3,3.4,1,4.3,.7,1,1.8,1.4,3.2,1.4,1,0,1.9-.2,2.6-.7s1.2-1.1,1.3-1.9h-3.1v-4.5h9.5v11.6h-4.6v-.1Zm-40.8,0V2.5h6.6l6.1,9.9c.2,.3,.4,.7,.6,1.2,.2,.5,.4,1.1,.7,1.8-.1-.4-.1-.8-.1-1.2V2.6h6.7V23.8h-6.7l-6.1-9.8c-.2-.3-.4-.7-.6-1.2s-.4-1.1-.7-1.8c.1,.4,.1,.8,.1,1.2v11.6h-6.6v-.1Zm-11.3-21.2h7.1V23.7h-7.1V2.5Zm-16.3,9.1h3.2c1.1,0,1.9-.1,2.3-.4,.4-.3,.6-.8,.6-1.5s-.2-1.3-.6-1.6c-.4-.3-1.2-.4-2.5-.4h-3v3.9Zm-6.9,12.1V2.5h10.4c3.3,0,5.6,.5,7,1.4,1.4,1,2.1,2.5,2.1,4.7,0,1.3-.3,2.4-.9,3.2-.6,.9-1.4,1.5-2.6,2,1.2,.2,2.1,.7,2.6,1.5,.6,.7,.8,1.8,.9,3.2l.1,3v.1c0,.8,.2,1.3,.6,1.3v.8h-7c-.1-.5-.2-1-.3-1.3-.1-.4-.1-.7-.1-.9v-2.1c0-1.1-.2-1.9-.7-2.3-.4-.4-1.2-.7-2.3-.7h-3v7.3h-6.8Zm-21.1,0V2.5h17.4V7.6h-10.4v2.8h8.8v4.9h-8.8v3.3h10.8v5.2h-17.8v-.1Zm-21,0V2.5h17.4V7.6h-10.4v2.8h8.8v4.9h-8.8v3.3h10.8v5.2h-17.8v-.1Zm-24.6,0V2.5h6.6l6.1,9.9c.2,.3,.4,.7,.6,1.2,.2,.5,.4,1.1,.7,1.8-.1-.4-.1-.8-.1-1.2V2.6h6.7V23.8h-6.7l-6.1-9.8c-.2-.3-.4-.7-.6-1.2s-.4-1.1-.7-1.8c.1,.4,.1,.8,.1,1.2v11.6h-6.6v-.1Zm-11.4-21.2h7.1V23.7h-7.1V2.5Zm-8.6,21.2l-.3-1.8c-.8,.8-1.7,1.4-2.8,1.8s-2.4,.6-3.9,.6c-3.1,0-5.6-1-7.3-3-1.8-2-2.7-4.7-2.7-8.2s1-6.3,3-8.2c2-2,4.8-2.9,8.4-2.9,2.8,0,5.1,.7,6.9,2.1,1.7,1.4,2.8,3.3,3.1,5.8h-6.7c-.3-.8-.7-1.5-1.3-1.9-.6-.4-1.3-.7-2.2-.7-1.4,0-2.4,.5-3.1,1.6-.7,1-1,2.6-1,4.7,0,1.9,.4,3.4,1,4.3,.7,1,1.8,1.4,3.2,1.4,1,0,1.9-.2,2.6-.7s1.2-1.1,1.3-1.9h-3.1v-4.5h9.5v11.6h-4.6v-.1Zm-40.7,0V2.5h6.6l6.1,9.9c.2,.3,.4,.7,.6,1.2,.2,.5,.4,1.1,.7,1.8-.1-.4-.1-.8-.1-1.2V2.6h6.7V23.8h-6.7l-6.1-9.8c-.2-.3-.4-.7-.6-1.2-.2-.5-.4-1.1-.7-1.8,.1,.4,.1,.8,.1,1.2v11.6h-6.6v-.1Zm-21.1,0V2.5h17.4V7.6h-10.4v2.8h8.8v4.9h-8.8v3.3h10.8v5.2h-17.8v-.1Zm0,6.1h228.3v1H59.3v-1Z"/>
  <path class="cls-1" d="M.1,29.2c.3-2,1-4.1,2.3-6.2L16.7,4.3C19.8,1,22.3,.2,24.8,0V14l-11.5,15.2H.1Zm.2,4.5C.1,32.8,0,31.9,0,31H22.8v2.7H.3Zm1.9,4.3c-.6-.8-1.1-1.7-1.4-2.7H22.8v2.7H2.2Zm20.6,5.1H11.9c-3.2,0-6.1-1.3-8.2-3.4H22.8v3.4Z"/>
  <path class="cls-2" d="M52.1,29.2c-.3-2-1-4.1-2.3-6.2L35.5,4.3C32.4,1,29.9,.2,27.4,0V14l11.4,15.2h13.3Zm-.2,4.5c.2-.9,.3-1.8,.3-2.7H29.4v2.7h22.5Zm-1.9,4.3c.6-.8,1.1-1.7,1.4-2.7H29.4v2.7h20.6Zm-20.6,5.1h10.9c3.2,0,6.1-1.3,8.2-3.4H29.4v3.4Z"/>
</svg>