<?xml version="1.0" encoding="UTF-8"?>
<svg id="Layer_1" data-name="Layer 1" xmlns="http://www.w3.org/2000/svg" viewBox="0 0 286.5 48">
  <path d="M32.38,48c-2.87-.25-4.25-4.88-4.12-10.75,.25-5.88,1.37-11.38,4.25-11.88l1.13-.13c.62,6.88,2.87,11.88,6.62,12.25l15-.13c-.75,6.5-3.12,10.25-5.75,10.5l-17.13,.13m0,0c-2.87-.25-4.25-4.88-4.12-10.75,.25-5.88,1.37-11.38,4.25-11.88l1.13-.13c.62,6.88,2.87,11.88,6.62,12.25l15-.13c-.75,6.5-3.12,10.25-5.75,10.5l-17.13,.13M14.5,27.38c-1.88-.13-2.75-3.12-2.63-6.88,.13-3.87,.88-7.38,2.75-7.62l11.75-1.75c.13,0,.25-.12,.5-.12,1.62,0,2.75,3.5,2.62,8.12-.25,5-2,7.87-3.75,8.12l-11.12,.13m-.13,0c-1.88-.13-2.75-3.12-2.63-6.88,.13-3.87,.88-7.38,2.75-7.62l11.75-1.75c.13,0,.25-.12,.5-.12,1.62,0,2.75,3.5,2.62,8.12-.25,5-2,7.87-3.75,8.12l-11.12,.13M1.88,11.38C.63,11.25,0,9.13,0,6.5,.13,3.88,.63,1.38,1.88,1.13L10.13,0h.25C11.5,0,12.38,2.38,12.13,5.62c-.13,3.5-1.38,5.5-2.63,5.62H1.75m.12,.13C.63,11.25,0,9.13,0,6.5,.13,3.88,.63,1.38,1.88,1.13L10.13,0h.25C11.5,0,12.38,2.38,12.13,5.62c-.13,3.5-1.38,5.5-2.63,5.62H1.75m39.37,23.12c-3.12-.25-4.75-5.5-4.5-11.88,.25-6.5,1.5-12.63,4.75-13.12l20.25-2.87c.25-.12,.5-.12,.75-.12,2.87,0,4.75,6,4.38,14-.37,8.62-3.38,13.62-6.5,13.88l-19,.13m-.12,0c-3.12-.25-4.75-5.5-4.5-11.88,.25-6.5,1.5-12.63,4.75-13.12l20.25-2.87c.25-.12,.5-.12,.75-.12,2.87,0,4.75,6,4.38,14-.37,8.62-3.38,13.62-6.5,13.88l-19,.13m76.13-9.88l-6,11h-7l8.12-14.12-7.38-13h7.38l4.88,10,4.88-10h7.38l-7.38,13,8.12,14.13h-7l-6-11m25.25,2.37v1.5c0,.5,.12,.88,.38,1.25,.25,.37,.63,.62,1.13,.75,.5,.25,1.25,.25,2.12,.25h3.87l.5,.5v1.38c0,1.12-.25,1.88-1,2.25-.62,.5-1.75,.62-3.37,.62h-1.63c-1.63,0-3-.13-4.13-.5s-2-.75-2.62-1.38c-.75-.62-1.13-1.38-1.5-2.25-.25-.88-.5-1.88-.5-2.87V13.13h-3.75v-4.38l3.75-.25,1.63-7.38h4.88v7h7.62v4.88h-7.62v13.62m26-13.62h-6.5v22.5h-6.5V8.63c2.12-.12,3.88-.25,5.13-.37s2.37-.12,3.12-.12h4.75v4.88m20,18v-7h-7.5c-.75,0-1.38,.13-1.75,.25-.5,.13-.75,.37-1,.62s-.38,.62-.5,.88c0,.37-.13,.75-.13,1.12v1.25c0,.37,0,.75,.13,1.12,0,.37,.25,.62,.5,1,.25,.25,.62,.5,1,.62,.5,.13,1,.25,1.75,.25h7.5v-.13Zm-14.62-17.63l-.5-.5v-1.37c0-1.13,.25-1.88,1-2.25,.62-.5,1.75-.62,3.37-.62h8.12c1.63,0,3,.25,4.13,.62,1.12,.37,2.12,.88,2.88,1.62,.75,.62,1.38,1.5,1.63,2.38,.38,.88,.5,1.88,.5,3v19.38c-2.12,.13-4,.25-5.5,.37-1.5,.13-2.75,.13-4,.13h-5.75c-1.63,0-3-.13-4.13-.5-1.12-.37-2-.75-2.63-1.38-.75-.62-1.12-1.38-1.5-2.25-.25-.88-.5-1.88-.5-2.87v-3.5c0-1,.13-2,.5-2.87,.25-.88,.75-1.62,1.5-2.25,.75-.63,1.63-1,2.63-1.38,1.12-.37,2.5-.5,4.13-.5h3.37c.5,0,1.12,.12,1.88,.12,.75,.12,1.88,.25,3.37,.37v-1.13c0-.62,0-1.25-.13-1.75-.13-.62-.25-1-.62-1.5-.38-.37-.75-.75-1.38-1s-1.38-.37-2.5-.37h-10m46.75,22.25v-14.75h-13v14.75h-6.75V2h6.75V15.63h13V2h6.75V35.63h-6.75m25.62-4.88c1.63,0,2.75-.25,3.37-.75s.87-1.38,.87-2.5v-10.88c0-1.13-.25-2-.87-2.5s-1.75-.75-3.37-.75h-2.25c-1.63,0-2.75,.25-3.37,.75-.62,.5-.87,1.37-.87,2.5v10.88c0,1.12,.25,2,.87,2.5s1.75,.75,3.37,.75h2.25Zm-4.38,4.87c-1.63,0-3-.13-4.13-.5-1.12-.37-2-.75-2.63-1.38-.75-.62-1.12-1.38-1.5-2.25-.25-.88-.5-1.88-.5-2.87V15.37c0-1,.13-2,.5-2.87,.25-.88,.75-1.62,1.5-2.25,.75-.62,1.63-1,2.63-1.37,1.12-.37,2.5-.5,4.13-.5h6.5c1.63,0,3,.12,4.13,.5,1.12,.37,2,.75,2.63,1.37,.75,.62,1.12,1.37,1.5,2.25,.25,.88,.5,1.88,.5,2.87v13.25c0,1-.13,2-.5,2.87-.25,.88-.75,1.62-1.5,2.25-.75,.62-1.63,1.12-2.63,1.38-1.12,.37-2.5,.5-4.13,.5h-6.5m38.25-8.37V15.25c0-.5-.13-.75-.38-1.13-.25-.25-.5-.5-1-.75-.5-.12-1.12-.25-2-.25h-7.5V31h7.12c1,0,1.63-.13,2.12-.25s.87-.5,1.12-.75c.25-.37,.38-.75,.38-1.25s.13-1,.13-1.5h0Zm-2.12,8.63h-3.12c-.62,0-1.5-.13-2.37-.13-.87-.13-2-.25-3.25-.37v11.12h-6.5V8.75c2.12-.12,4-.25,5.5-.37s2.75-.12,4-.12h5.75c1.63,0,3,.12,4.13,.5,1.12,.37,2,.75,2.63,1.37,.75,.62,1.12,1.37,1.5,2.25,.25,.88,.5,1.88,.5,2.87v13.75c0,1-.13,2-.5,2.87-.25,.88-.75,1.62-1.5,2.25-.75,.62-1.63,1-2.63,1.38-1.12,.37-2.5,.5-4.13,.5M85.25,8.12c.62-.75,2-1,3.87-1h13.87l.5-.5v-1.62c0-1.13-.25-1.88-1-2.25-.62-.5-1.75-.62-3.37-.75h-13c-1.63,0-3,.12-4.13,.5-1.13,.37-2,.75-2.62,1.37-.75,.62-1.13,1.37-1.5,2.25-.25,.88-.5,1.88-.5,2.87V28.75c0,1,.12,2,.5,2.87,.25,.88,.75,1.62,1.5,2.25s1.63,1.12,2.62,1.38c1.13,.37,2.5,.5,4.13,.5h13c1.63,0,2.75-.25,3.37-.62,.62-.5,1-1.25,1-2.37v-1.62l-.5-.5h-13.87c-1.88,0-3.12-.37-3.87-1.12-.62-.75-1-1.62-1-2.75v-2.13c0-1,.25-2,.87-2.63,.62-.75,1.75-1.12,3.37-1.12h9v-4.87h-9c-1.63,0-2.75-.37-3.37-1.13-.62-.75-.87-1.62-.87-2.62v-1.25c0-1.13,.38-2,1-2.75"/>
</svg>