<?xml version="1.0" encoding="UTF-8"?>
<svg id="Layer_1" data-name="Layer 1" xmlns="http://www.w3.org/2000/svg" viewBox="0 0 160.2 53.8">
  <path d="M141.2,24.8h0l-.2,.9h7.3c4.6,0,6.7-1.4,6.7-4.4,0-2.5-2.1-4-5.4-4-4.6,0-7.5,2.7-8.4,7.5m4.5,13.2h0c7.5-.1,7.7-5.4,7.7-5.4h5s-1.1,10-12.8,10c-3.6,0-6.6-1.2-8.3-3.4-1.9-2.4-2.5-5.3-2-8.9l.4-2.6c1.1-6.7,2.6-15.1,14.3-15.1,3.2,0,5.9,.9,7.7,2.7,1.6,1.5,2.5,3.7,2.5,5.8,0,3.1-1.3,5.5-3.8,7-2.6,1.6-5.8,1.9-8.2,1.9h-7.9c-.5,2.8-.2,4.9,.9,6.1,1,1.4,2.5,2,4.5,1.9M20.1,21.5l.5-3.1H1.4l.8-5H21.4l.4-2.4C22.9,4,27.5,0,34.6,0h3.9l-.8,4.9h-3.6c-3.9,0-6.1,1.9-6.8,6.3l-.3,2.2h7.4l-.8,5h-7.4l-4.1,24.2c-1.1,7-5.8,11-12.9,10.9h-.4l.8-5.3h.3c4,0,6.1-1.7,6.8-6l2.6-15.7H0l.8-5H20.1ZM120.4,7.8c0,1.7-1.4,3.1-3.1,3.1s-3.1-1.4-3.1-3.1,1.4-3.1,3.1-3.1c1.8,0,3.1,1.4,3.1,3.1m-11.3,34.5l4.5-28.7h5.4l-4.5,28.7h-5.4Zm-1.9-28.7l-8.9,19.9-3.2-19.9h-5.2l-9.1,19.9-3-19.9h-5.5l4.6,28.7h5.7l8.9-19.9,3.1,19.9h5.5l12.8-28.7h-5.7Zm20.4,5.1l1.1-5.3h-5.3l-4.5,28.8h5.4l2.4-15.4c1.1-5.7,5.2-8.5,9.6-8.5h1.4l.8-5.1c-5.1-.7-8.9,1.9-10.9,5.5m-60.8,22.6c-1.3,8.2-6,12.5-13.5,12.5-4.6,0-8.2-1.7-10.6-4.6l3-3.7c2.1,2.5,4.6,3.6,7.6,3.6,4.5,0,7.3-2.6,8.2-7.8l.3-2.1h-.1c-2.4,2.3-5.3,3.5-8.4,3.5-5.8,0-8.6-2.9-8.6-8.5,0-1.1,.1-2.2,.3-3.4l2.7-17.3h5.3l-2.7,17.3c-.2,.9-.2,1.7-.2,2.4,0,3.2,1.4,4.7,4.5,4.7,3.3,0,6.2-2,8.1-5.5l3-19h5.4l-4.3,27.9Zm-33,.8L40.5,0h5.4l-6.7,42.1h-5.4Z"/>
</svg>