<?xml version="1.0" encoding="UTF-8"?>
<svg id="Layer_1" data-name="Layer 1" xmlns="http://www.w3.org/2000/svg" viewBox="0 0 236.25 86.87">
  <defs>
    <style>
      .cls-1 {
        fill: #f05661;
      }

      .cls-2 {
        fill: #021d44;
      }

      .cls-3 {
        fill: #0999b5;
      }
    </style>
  </defs>
  <path class="cls-3" d="M46.84,54.26h0s0,0,0,0l-15.56-10.84h0s0,0,0,0v21.56h0l15.56-10.73Zm-15.57,10.73v21.88L0,65.15V21.72l15.76,10.94v21.55l15.52,10.78Z"/>
  <polygon class="cls-2" points="31.27 64.98 31.27 86.87 62.55 65.15 62.55 43.43 31.27 64.98"/>
  <path class="cls-1" d="M62.55,43.43l-15.78-10.79-15.49,10.78,15.56,10.84,15.71-10.82Zm0-21.72l-15.78,10.93-15.49-10.76-15.52,10.77L0,21.72,31.27,0l31.27,21.71Z"/>
  <path class="cls-3" d="M232.69,37.76v16.52h-5.14v-16.52h-3.56v-4.95h3.56v-9.64h5.14v9.64h3.56v4.95h-3.56Zm-10.33,13.72c-2.07,2.11-4.95,3.39-8.12,3.39-6.33,0-11.38-5.05-11.38-11.33s5.05-11.33,11.38-11.33c3.17,0,6.06,1.29,8.12,3.4l-3.62,3.4c-1.15-1.24-2.71-1.97-4.5-1.97-3.49,0-6.24,2.94-6.24,6.51s2.75,6.47,6.24,6.47c1.79,0,3.44-.78,4.59-2.02l3.53,3.49Zm-33.35-19.27c2.57,0,4.86,1.1,6.65,2.94l.09-.04v-2.29h5.14v21.47h-5.14v-2.2l-.09-.09c-1.79,1.79-4.08,2.89-6.65,2.89-5.51,0-9.96-5.05-9.96-11.33s4.45-11.33,9.96-11.33m1.1,17.8c3.26,0,5.92-2.84,5.92-6.47s-2.66-6.52-5.92-6.52-5.92,2.89-5.92,6.52,2.71,6.47,5.92,6.47m-22.75,4.87c-2.62,0-4.87-1.06-6.7-2.94l-.09,.05v10.78h-5.14v-29.96h5.14v2.25l.09,.04c1.84-1.79,4.08-2.89,6.7-2.89,5.51,0,9.96,5.05,9.96,11.33s-4.45,11.33-9.96,11.33m-1.1-17.85c-3.3,0-5.96,2.89-5.96,6.47s2.66,6.52,5.96,6.52,5.92-2.89,5.92-6.52-2.71-6.47-5.92-6.47m-29.31,6.52v10.74h-5.14v-21.47h5.14v2.61l.09,.05c1.74-2.16,4.09-3.26,6.51-3.26,9.18,0,9.41,8.35,9.41,10.92v11.15h-5.14v-10.74c0-2.57-.05-6.52-5.37-6.52-3.03,0-5.51,2.89-5.51,6.52m-13.45,4.4l3.58,3.53c-2.06,2.11-4.95,3.39-8.12,3.39-6.33,0-11.38-5.05-11.38-11.33s4.91-11.33,11.06-11.33,11.01,5.05,11.01,11.33c0,1.01-.09,1.29-.09,1.29h-16.84c0,2.38,2.8,5.18,6.01,5.18,1.88,0,3.53-.83,4.77-2.06m.6-7.39l.05-.09c-1.15-2.11-3.17-3.53-5.51-3.53s-4.31,1.33-5.55,3.53l.05,.09h10.97Zm-34.55,14.68c.96,1.93,2.89,3.26,5.09,3.26,3.21,0,5.78-2.8,5.78-6.24v-.23l-.09-.05c-1.79,1.79-4.09,2.89-6.65,2.89-5.51,0-9.96-5.09-9.96-11.33s4.45-11.33,9.96-11.33c2.57,0,4.86,1.1,6.65,2.94l.09-.05v-2.29h5.14v19.46c0,6.15-4.54,11.1-10.69,11.1-4.13,0-7.71-2.2-9.63-5.55l4.31-2.57Zm5.23-5.18c3.26,0,5.97-2.89,5.97-6.52s-2.71-6.51-5.97-6.51-5.92,2.89-5.92,6.51,2.71,6.52,5.92,6.52"/>
</svg>