<?xml version="1.0" encoding="UTF-8"?>
<svg id="Layer_1" data-name="Layer 1" xmlns="http://www.w3.org/2000/svg" viewBox="0 0 222.75 43.8">
  <path d="M160.26,42.6h11.22c.36,0,.6-.3,.6-.6V1.8c0-.36-.3-.6-.6-.6h-11.22c-.36,0-.6,.3-.6,.6V42c-.06,.36,.24,.6,.6,.6M199.68,10.02l-5.34,15.78c-.06,.24,.12,.48,.36,.48h10.38c.24,0,.42-.24,.36-.48l-5.34-15.78c-.12-.18-.36-.18-.42,0m11.04,32.16l-1.98-5.76c-.06-.12-.18-.24-.36-.24h-16.98c-.18,0-.3,.12-.36,.24l-1.98,5.76c-.06,.24-.3,.42-.6,.42h-10.74c-.42,0-.72-.42-.6-.84L191.16,1.56c.06-.24,.3-.42,.6-.42h16.32c.24,0,.48,.18,.6,.42l14.04,40.2c.12,.42-.18,.84-.6,.84h-10.74c-.36,0-.6-.12-.66-.42M154.02,1.14h-12.72c-.18,0-.36,.06-.48,.24l-9.24,11.94c-.06,.12-.24,.12-.3,0L122.04,1.38c-.12-.18-.3-.24-.48-.24h-12.72c-.54,0-.84,.6-.48,1.02l15.48,19.5c.12,.12,.12,.3,0,.48l-15.48,19.5c-.3,.42-.06,1.02,.48,1.02h12.72c.18,0,.36-.06,.48-.24l9.24-11.94c.06-.12,.24-.12,.3,0l9.24,11.94c.12,.18,.3,.24,.48,.24h12.72c.54,0,.84-.6,.48-1.02l-15.48-19.5c-.12-.12-.12-.3,0-.48l15.48-19.5c.36-.42,.06-1.02-.48-1.02M46.92,42.6h11.22c.36,0,.6-.3,.6-.6V1.8c0-.36-.3-.6-.6-.6h-11.22c-.36,0-.6,.3-.6,.6V42c0,.36,.24,.6,.6,.6m52.2-20.7c0-6.48-4.8-11.7-11.46-11.7s-11.46,5.22-11.46,11.7,4.8,11.7,11.46,11.7,11.46-5.28,11.46-11.7m11.58,0c0,12.06-9.72,21.9-23.1,21.9s-23.1-9.78-23.1-21.9c.06-12.12,9.72-21.9,23.1-21.9s23.1,9.78,23.1,21.9M27.96,1.14h12.72c.54,0,.84,.6,.48,1.02l-15.48,19.5c-.12,.12-.12,.3,0,.48l15.48,19.5c.3,.42,.06,1.02-.48,1.02h-12.72c-.18,0-.36-.06-.48-.24l-11.7-15.18c-.06-.12-.18-.12-.3-.12h-3.66c-.12,0-.18,.06-.18,.18v14.7c0,.36-.3,.6-.6,.6H.6C.24,42.6,0,42.3,0,42V1.8C0,1.44,.3,1.2,.6,1.2H10.98c.36,0,.6,.3,.6,.6v14.76c0,.12,.06,.18,.18,.18h3.66c.12,0,.24-.06,.3-.12L27.48,1.38c.12-.12,.3-.24,.48-.24"/>
</svg>