<?xml version="1.0" encoding="UTF-8"?>
<svg id="Layer_1" data-name="Layer 1" xmlns="http://www.w3.org/2000/svg" xmlns:xlink="http://www.w3.org/1999/xlink" viewBox="0 0 255.29 56.23">
  <defs>
    <style>
      .cls-1 {
        fill: url(#linear-gradient);
      }

      .cls-2 {
        fill: #0e1e3e;
      }

      .cls-3 {
        fill: #09436d;
      }

      .cls-4 {
        fill: url(#linear-gradient-3);
      }

      .cls-5 {
        fill: url(#linear-gradient-4);
      }

      .cls-6 {
        fill: url(#linear-gradient-2);
      }

      .cls-7 {
        fill: url(#linear-gradient-6);
      }

      .cls-8 {
        fill: url(#linear-gradient-5);
      }
    </style>
    <linearGradient id="linear-gradient" x1="46.47" y1=".3" x2="16.52" y2="30.25" gradientUnits="userSpaceOnUse">
      <stop offset="0" stop-color="#005a8f"/>
      <stop offset="1" stop-color="#123a67"/>
    </linearGradient>
    <linearGradient id="linear-gradient-2" x1="6.03" y1="8.28" x2="43.24" y2="45.49" xlink:href="#linear-gradient"/>
    <linearGradient id="linear-gradient-3" x1="36.68" y1="55.88" x2="32.61" y2="9.38" xlink:href="#linear-gradient"/>
    <linearGradient id="linear-gradient-4" x1="43.12" y1="43.55" x2="40.07" y2="8.73" gradientUnits="userSpaceOnUse">
      <stop offset="0" stop-color="#fff" stop-opacity="0"/>
      <stop offset=".5" stop-color="#fff" stop-opacity=".5"/>
      <stop offset="1" stop-color="#fff" stop-opacity="0"/>
    </linearGradient>
    <linearGradient id="linear-gradient-5" x1=".83" y1="12.02" x2="43.53" y2="12.02" gradientUnits="userSpaceOnUse">
      <stop offset="0" stop-color="#fff" stop-opacity="0"/>
      <stop offset=".5" stop-color="#fff" stop-opacity=".5"/>
      <stop offset="1" stop-color="#fff" stop-opacity="0"/>
    </linearGradient>
    <linearGradient id="linear-gradient-6" x1="7.78" y1="23.13" x2="36.69" y2="52.03" gradientUnits="userSpaceOnUse">
      <stop offset="0" stop-color="#fff" stop-opacity="0"/>
      <stop offset=".5" stop-color="#fff" stop-opacity=".5"/>
      <stop offset="1" stop-color="#fff" stop-opacity="0"/>
    </linearGradient>
  </defs>
  <path class="cls-1" d="M53.78,8.24l-.02-.06s-.02-.06-.04-.09c-.01-.04-.03-.07-.04-.11,0-.01-.01-.02-.02-.03-.02-.04-.04-.08-.06-.12-.05-.09-.09-.19-.15-.27h0s0,0,0,0c-.5-.88-1.25-1.61-2.11-2.15C44.82,1.87,37.05,0,28.87,0c-7.3,0-14.26,1.49-20.27,4.34-2,.95-3.78,2.5-5.41,5.34L.83,13.78c.21-.36,.46-.7,.74-1,.39-.43,.84-.81,1.33-1.12,.23-.13,.46-.25,.69-.37,0,0,.02,0,.02-.01,.07-.04,.14-.07,.21-.11,.01,0,.02-.01,.04-.02,.07-.03,.14-.07,.2-.1,.02,0,.03-.02,.05-.02,.06-.03,.13-.06,.2-.1,.01,0,.03-.01,.04-.02,.07-.03,.13-.06,.2-.1,.01,0,.03-.01,.05-.02,.06-.03,.13-.07,.2-.1l.03-.02c.07-.04,.14-.07,.22-.1,0,0,.01,0,.02,0,1.84-.86,3.73-1.56,5.67-2.09h0s.03-.01,.05-.02c.08-.02,.15-.04,.23-.06h0c.28-.08,.56-.14,.84-.21,.02,0,.03,0,.05-.01,.05-.01,.12-.03,.16-.04,.03,0,.06-.02,.09-.02,.05-.01,.1-.02,.16-.04,.03,0,.07-.01,.09-.02,.06,0,.1-.02,.15-.03,3.16-.71,6.75-1.18,10.46-1.18,14.43,0,20.74,3.03,20.49,10.31,0,.09,0,.19-.02,.29-.33,6.89-3.73,17.15-14.55,25.23,.08,.05,.16,.11,.24,.16,6.17,3.86,11.96-.09,19.17-12.59,1.82-3.14,3.19-6.41,4.15-9.46,.02-.07,.04-.13,.06-.19,.18-.58,.35-1.16,.51-1.75,0-.02,0-.04,.01-.06,.35-1.33,.62-2.69,.81-4.06,0-.04,0-.08,.02-.12,.02-.15,.04-.29,.06-.44,.01-.08,.02-.16,.03-.24,.02-.19,.04-.38,.06-.56,.01-.14,.03-.28,.04-.41,.07-.84,.12-1.69,.14-2.54-.03-.74-.18-1.48-.47-2.17"/>
  <path class="cls-6" d="M1.23,13.15s-.03,.03-.04,.05c-.02,.03-.04,.05-.05,.08-.02,.03-.04,.06-.07,.09,0,.01-.02,.02-.02,.03-.03,.04-.05,.07-.08,.12-.05,.09-.11,.18-.16,.26h0s0,0,0,0C.3,14.65,.03,15.67,0,16.68c.19,7.41,2.46,15.07,6.55,22.15,3.65,6.32,8.42,11.6,13.89,15.38,1.82,1.25,4.06,2.02,7.33,2.01h4.74c-.42,0-.83-.04-1.23-.13-.57-.13-1.12-.33-1.63-.59-.22-.14-.45-.28-.67-.41,0,0-.02,0-.02-.02-.07-.04-.12-.08-.19-.13l-.04-.02c-.06-.04-.12-.08-.18-.12-.01,0-.03-.02-.05-.03-.06-.04-.12-.08-.18-.12-.01,0-.03-.02-.04-.03-.06-.04-.13-.08-.18-.12-.02,0-.03-.02-.04-.03-.06-.04-.12-.09-.18-.13-.01,0-.02-.01-.04-.02-.06-.05-.13-.09-.19-.14,0,0-.01,0-.01-.01-1.67-1.16-3.22-2.45-4.65-3.87-.01-.02-.02-.02-.03-.04-.06-.06-.11-.11-.16-.17h0c-.2-.21-.41-.41-.61-.62-.01-.02-.02-.02-.04-.04-.04-.04-.08-.09-.12-.12-.02-.02-.04-.05-.06-.07-.04-.04-.07-.08-.1-.12-.03-.02-.05-.05-.07-.07-.03-.04-.07-.07-.1-.11-2.2-2.38-4.4-5.26-6.25-8.48-7.21-12.49-7.74-19.48-1.32-22.89,.09-.04,.17-.09,.25-.13,6.13-3.16,16.72-5.34,29.12-.01,.01-.1,.01-.19,.02-.29,.25-7.27-6.06-10.31-20.48-10.31-3.64,0-7.15,.44-10.27,1.13-.07,.02-.14,.03-.2,.05-.59,.13-1.18,.27-1.76,.43-.02,0-.04,.01-.06,.02-1.34,.37-2.64,.81-3.93,1.33-.04,.01-.07,.03-.11,.05-.14,.05-.28,.11-.41,.17-.07,.03-.15,.06-.22,.09-.18,.08-.35,.15-.52,.23-.12,.06-.25,.11-.37,.17-.77,.35-1.53,.73-2.27,1.14-.62,.4-1.19,.9-1.64,1.49"/>
  <path class="cls-4" d="M31.75,56.18s.04,0,.06,0c.03,0,.06,0,.09,0h.12s.03,.01,.03,.01c.05,0,.09,0,.14,.01h0c.1,0,.2,0,.31,0h0c1.01,0,2.02-.28,2.92-.75,6.32-3.87,11.82-9.66,15.91-16.74,3.65-6.32,5.84-13.09,6.38-19.72,.17-2.2-.28-4.52-1.92-7.35l-2.37-4.1c.21,.36,.37,.74,.5,1.14,.18,.56,.28,1.14,.3,1.71,0,.26-.01,.52-.02,.78v.03c0,.08,0,.15-.01,.23,0,.01,0,.03,0,.04,0,.08,0,.15-.01,.22v.05c0,.07,0,.14-.02,.22,0,.02,0,.04,0,.05,0,.07-.01,.15-.02,.22,0,.02,0,.03,0,.05,0,.07,0,.15-.01,.22v.04c0,.08-.02,.16-.02,.24v.02c-.18,2.03-.52,4.02-1.03,5.96,0,.02,0,.03-.01,.05-.02,.08-.04,.15-.06,.23h0c-.07,.28-.16,.56-.23,.83,0,.02-.01,.04-.02,.05-.02,.05-.03,.11-.05,.16,0,.03-.02,.06-.02,.09-.02,.05-.04,.1-.05,.15,0,.03-.02,.06-.03,.09-.02,.05-.04,.1-.05,.14-.96,3.1-2.35,6.44-4.21,9.65-7.21,12.5-13,16.45-19.17,12.59-.08-.05-.16-.1-.24-.16-5.8-3.73-12.98-11.8-14.58-25.22-.09,.04-.17,.09-.25,.13-6.43,3.41-5.9,10.4,1.32,22.89h0c1.81,3.15,3.96,5.97,6.11,8.33,.04,.05,.09,.1,.14,.15,.41,.45,.83,.89,1.26,1.31,.01,.02,.03,.03,.04,.04,.99,.97,2.02,1.88,3.11,2.73,.03,.03,.06,.05,.1,.08l.35,.27c.06,.05,.12,.09,.19,.14,.15,.11,.31,.22,.45,.34,.11,.08,.23,.16,.34,.24,.69,.49,1.4,.95,2.13,1.4,.66,.34,1.38,.58,2.11,.68"/>
  <path class="cls-5" d="M28.94,42.67c.46,.29,.94,.55,1.44,.77,.5,.22,1.01,.4,1.54,.52,.52,.12,1.06,.19,1.6,.19,.54,0,1.07-.06,1.6-.18,1.04-.23,2.03-.7,2.93-1.28,.91-.59,1.73-1.29,2.5-2.04,1.54-1.51,2.88-3.23,4.12-5.01,1.24-1.78,2.38-3.63,3.47-5.51l.08,.33h0s-.2-.13-.2-.13l.12-.21c.51-.89,1-1.79,1.46-2.71,.23-.46,.45-.92,.66-1.39,.21-.47,.42-.94,.62-1.41,.39-.95,.76-1.91,1.1-2.88l.25-.73,.24-.73c.16-.49,.3-.98,.44-1.47v-.02s0,0,0,0c0,0,0,0,0,0v-.02s0,0,0,0h0c.25-.92,.46-1.85,.65-2.78,.09-.47,.16-.94,.24-1.41,.03-.23,.07-.47,.09-.7,.03-.24,.06-.47,.09-.71,.05-.47,.1-.95,.13-1.42,.02-.24,.04-.48,.05-.72l.02-.36v-.18s.01-.05,.01-.05h0s0,0,0,0h0v-.12c-.05-.94-.28-1.89-.74-2.73h0s0,0,0,0h0s0,0,0,0c.25,.41,.45,.85,.59,1.31,.14,.46,.23,.94,.27,1.42v.09s0,.02,0,.02h0v.02h0v.59c-.01,.24-.02,.48-.03,.72-.02,.48-.05,.96-.09,1.44-.07,.95-.19,1.91-.35,2.85-.16,.95-.35,1.89-.59,2.82v-.02s0,.04,0,.04c0,.02,0,.03-.02,.05h0c-.13,.49-.26,.99-.41,1.49l-.23,.74c-.08,.25-.16,.5-.24,.74-.33,.98-.69,1.95-1.08,2.92-.2,.48-.39,.96-.61,1.43-.21,.47-.43,.94-.66,1.41-.46,.93-.94,1.84-1.46,2.74l-.08-.33,.2,.12-.11,.21c-.55,.95-1.11,1.88-1.7,2.81-.58,.92-1.18,1.84-1.81,2.73-.63,.89-1.3,1.77-2,2.61-.7,.84-1.44,1.65-2.24,2.41-.8,.76-1.66,1.46-2.6,2.04-.94,.58-1.97,1.03-3.06,1.25-1.09,.21-2.22,.17-3.28-.12-.53-.14-1.04-.34-1.54-.58-.49-.24-.96-.53-1.41-.84"/>
  <path class="cls-8" d="M43.49,17.44c.02-.54,0-1.09-.05-1.63-.06-.54-.16-1.08-.32-1.59-.16-.52-.37-1.02-.63-1.48-.27-.47-.59-.9-.95-1.29-.73-.79-1.62-1.41-2.58-1.9-.96-.49-1.98-.86-3.02-1.15-2.09-.58-4.24-.88-6.4-1.06-2.16-.19-4.34-.24-6.51-.25l.24-.22-.02,.22h-.23c-1.02,0-2.05,.03-3.07,.1-.52,.03-1.03,.07-1.54,.13-.51,.05-1.02,.1-1.53,.17-1.02,.13-2.03,.29-3.04,.48l-.75,.15-.75,.16c-.5,.11-1,.23-1.5,.36h-.01s0,0,0,0h-.02s-.01,0-.01,0h0c-.92,.25-1.83,.53-2.73,.84-.45,.16-.89,.33-1.34,.5-.22,.09-.44,.18-.66,.27-.22,.09-.44,.18-.66,.28-.44,.19-.87,.39-1.3,.6-.22,.1-.43,.21-.65,.32l-.32,.16-.16,.08-.04,.02h0s0,0,0,0h0s0,0,0,0h-.02s-.07,.06-.07,.06c-.4,.25-.77,.55-1.11,.88-.34,.33-.64,.71-.89,1.12h0s0,0,0,0h0s0,0,0,0c.23-.42,.52-.81,.84-1.16,.33-.35,.7-.67,1.09-.95l.07-.05,.02-.02h0s0,0,0,0h.01s.04-.03,.04-.03l.16-.09,.31-.18c.21-.11,.42-.23,.63-.34,.43-.22,.85-.44,1.28-.64,.87-.41,1.75-.78,2.65-1.13,.9-.34,1.81-.64,2.74-.9h-.02s.03,0,.03,0c.01,0,.03,0,.05-.01h-.02c.5-.14,1-.27,1.51-.39l.76-.18c.25-.06,.5-.11,.76-.16,1.02-.21,2.03-.38,3.06-.52,.51-.07,1.03-.14,1.54-.19,.52-.05,1.03-.1,1.55-.13,1.04-.07,2.07-.11,3.11-.11l-.24,.22,.02-.22h.22c1.09,0,2.19,.02,3.28,.06,1.09,.05,2.18,.11,3.27,.21,1.09,.1,2.18,.24,3.26,.42,1.08,.18,2.16,.42,3.21,.73,1.05,.32,2.09,.71,3.06,1.23,.97,.52,1.88,1.19,2.61,2.02,.74,.83,1.26,1.84,1.54,2.9,.14,.53,.23,1.07,.26,1.62,.03,.55,.03,1.09-.02,1.64"/>
  <path class="cls-7" d="M14.34,17.44c-.48,.26-.94,.54-1.38,.86-.44,.32-.85,.68-1.22,1.07-.37,.39-.69,.83-.96,1.29-.27,.47-.49,.96-.65,1.47-.32,1.02-.41,2.11-.35,3.18,.05,1.08,.25,2.14,.51,3.19,.54,2.09,1.35,4.11,2.28,6.07,.92,1.97,1.96,3.88,3.04,5.76l-.32-.1,.2-.1,.11,.2c.51,.89,1.05,1.76,1.62,2.61,.29,.43,.58,.85,.88,1.27,.3,.42,.6,.83,.91,1.24,.62,.82,1.27,1.62,1.94,2.39l.51,.58,.52,.57c.34,.38,.7,.75,1.06,1.12h.01s0,.02,0,.02h.02s0,.02,0,.02h0c.65,.66,1.33,1.29,2.03,1.9,.7,.6,1.43,1.18,2.17,1.73,.74,.56,1.5,1.08,2.28,1.58l.07,.05h.02s0,.02,0,.02h0s0,0,0,0h.01s.04,.03,.04,.03c.05,.03,.1,.05,.15,.08,.1,.05,.21,.1,.32,.14,.21,.09,.43,.18,.64,.25,.44,.14,.89,.23,1.36,.27,.1,0,.2,.01,.31,.02h0c-.11,0-.21,0-.31,0h0c-.46-.01-.93-.09-1.38-.21-.23-.06-.45-.14-.67-.22-.1-.04-.21-.09-.32-.14-.05-.02-.11-.05-.16-.08l-.04-.02h-.01s0,0,0,0h0s-.02-.02-.02-.02l-.08-.04c-.8-.47-1.59-.98-2.35-1.51-.77-.53-1.51-1.1-2.23-1.69-.72-.59-1.42-1.22-2.09-1.87h.01s-.02-.01-.02-.01c-.01,0-.02-.02-.04-.04v.02c-.36-.37-.72-.74-1.08-1.11l-.53-.56c-.18-.19-.35-.39-.52-.58-.69-.78-1.35-1.57-1.98-2.39-.32-.41-.63-.82-.93-1.24-.3-.42-.6-.85-.89-1.27-.58-.86-1.13-1.74-1.64-2.64l.32,.1-.2,.1-.12-.2c-.55-.94-1.07-1.9-1.59-2.87-.5-.97-1-1.95-1.46-2.94-.46-.99-.88-2-1.27-3.03-.38-1.03-.71-2.08-.97-3.15-.25-1.07-.43-2.16-.46-3.27-.03-1.1,.09-2.22,.45-3.27,.35-1.06,.96-2.01,1.74-2.79,.39-.38,.82-.73,1.27-1.04,.46-.3,.94-.57,1.43-.8"/>
  <path class="cls-2" d="M170.36,34.26c1.24-3.41,2.52-6.91,3.87-10.43l3.65,10.43h-7.52Zm-20.2-9.2c-.18,2.27-.98,4.04-2.62,5.4-1.3,1.04-3.07,1.41-5.57,1.41h-.74v-11.82c0-1.25,.15-1.83,.52-2.14,.32-.27,.95-.46,2.09-.51,.16,0,.33-.01,.52-.01,1.54,0,3.08,.42,4.32,1.39,.93,1.22,1.52,2.93,1.52,5.28,0,.34-.01,.68-.04,1m102.32,14.44c-.99,2.61-1.93,4.33-2.93,5.43-1.2,1.36-3.13,1.67-5.74,1.67-1.8,0-3.35-.05-4.31-.46-.26-.64-.35-1.58-.35-3.09V22.26c0-4.59,.52-4.85,4.65-5.17v-1.77l-1.09-1.1h-10.7v27.57c0,.35,0,.67-.01,.97,0,2.4-1.95,4.35-4.35,4.35-.23,0-.45-.03-.67-.06h-.1c-1.65-.25-2.82-.72-4.27-2.04-.24-.25-.47-.52-.73-.82-3.34-3.97-8.2-9.76-11.9-14.88,2.92-2.98,5.85-5.95,8.62-8.46,3.13-2.82,4.96-3.45,8.56-3.76v-1.77l-1.08-1.1h-13.58v1.78l1.08,1.09,1.16,.11c.36,.05,.67,.1,.92,.17-.08,.39-.38,.87-.86,1.5-2.04,2.46-4.76,5.48-8.15,8.83-1.12,1.09-2.04,1.8-2.89,2.26v-7.59c0-4.59,.47-4.96,4.39-5.27v-1.77l-1.09-1.1h-14.94v1.78l1.09,1.09c1.45,.11,2.44,.23,3.13,.53,.31,.75,.39,1.89,.39,3.65v20.42c0,.38,0,.72-.01,1.04h0v.04c0,2.4-1.95,4.35-4.35,4.35-.94,0-1.81-.32-2.52-.84l-.06-.08c-.58-.8-1.09-1.98-1.75-3.76-3.49-9.16-6.87-18.6-10.26-27.87l-1.09-1.1-2.34,.58-11.73,30.16c-.45,1.06-1.61,1.68-2.83,1.68-.68,0-1.24-.24-1.77-.52l-6.99-12.25c3.28-1.32,5.96-3.52,6.58-7.12,.09-.51,.13-1.06,.13-1.63,0-2.72-.97-4.78-2.52-6.22-.18-.2-.37-.39-.56-.57-.45-.51-.97-.96-1.54-1.33-2.08-1.46-4.74-1.93-9.12-1.93h-9.77s-.02,2.5-.02,6.82v20.68c0,.34,0,.66-.01,.95h0c0,2.4-1.94,4.35-4.35,4.35-.93,0-1.77-.32-2.48-.82-.48-.7-.79-1.52-.79-2.44h0c0-.28,0-.59,0-.91V22.26c0-4.54,.47-4.85,4.59-5.17v-1.77l-1.08-1.1h-15.3v1.78l1.08,1.09c1.49,.12,2.5,.23,3.2,.54,.3,.73,.37,1.84,.37,3.54v20.68c0,.32,0,.6-.01,.88v.04c0,2.4-1.95,4.35-4.35,4.35-.93,0-1.77-.32-2.48-.81-.48-.7-.79-1.53-.79-2.44h0c-.02-.51-.04-1.09-.05-1.75l-.52-19.48c-.11-4.85-.12-7.31-.12-7.31l-1.08-1.1h-5.37l-11.09,24.01-10.38-22.91-1.09-1.1h-10.13v1.78l1.08,1.09c1.51,.13,2.56,.28,3.3,.63,.47,1.03,.43,2.72,.22,5.64l-.78,10.6c-.42,5.59-.78,8.15-1.04,9.92-.42,1.98-1.46,2.82-4.55,3.13v1.72l1.09,1.09h12.79v-1.72l-1.09-1.09c-1.62-.17-2.73-.35-3.48-.72-.16-.37-.25-.81-.28-1.37-.16-1.88-.16-4.33,.05-8.67l.68-13.39,10.56,25.56,1.09,1.09h1.31l11.57-26.31,.14,17.81c.05,5.22-.21,5.58-4.33,6.06v1.67l1.09,1.09h44.51v-1.67l-1.08-1.09c-1.46-.15-2.47-.3-3.16-.62-.32-.74-.39-1.85-.39-3.55v-7.96h1.25c1.22,0,2.04,.22,2.69,.67,.09,.13,.19,.27,.28,.42,1.56,2.71,2.76,6.45,4.32,8.85,.2,.29,.38,.57,.57,.84,.18,.31,.39,.61,.61,.89,.29,.36,.61,.7,.95,1.01,.15,.16,.3,.31,.45,.45l.09,.09c1.23,1.35,2.88,2.3,4.76,2.64,.5,.09,1,.14,1.52,.14,.2,0,.41-.01,.61-.02,3.12-.22,5.77-2.11,7.06-4.78,.07-.16,.15-.33,.22-.51l.03-.07h0s.06-.13,.06-.13l-.05,.13,.05-.12,.08-.2c.04-.1,.08-.21,.12-.31l-.02,.06c.76-1.97,1.5-5.13,2.15-7.03h10.13c.85,2.2,1.59,4.27,2.12,5.83,.73,2.14,.42,2.71-2.86,3.23v1.72l1.08,1.09h29.03v-1.67l-1.08-1.09c-1.52-.15-2.56-.3-3.26-.63-.33-.76-.41-1.89-.41-3.66v-9.71c.47-.09,.9-.02,1.4,.33,.08,.09,.15,.19,.24,.3,4.28,5.54,8.67,11.23,11.8,15.04l1.09,1.09h35.08c.47-1.51,1.56-6.73,1.93-8.77l-1.08-1.09-1.72-.47Z"/>
  <path class="cls-3" d="M168.87,34.26c1.46-4.01,2.96-8.18,4.58-12.34h.1l4.32,12.34h-9.01Zm-21.34-3.8c-1.3,1.04-3.07,1.41-5.57,1.41h-1.82v-12.92c0-1.25,.15-1.82,.52-2.14,.32-.27,.96-.46,2.09-.51,.16,0,.33-.01,.52-.01,3.44,0,6.93,2.03,6.93,7.76,0,.34-.01,.68-.04,1-.18,2.27-.98,4.04-2.62,5.41m9.37,13.75l-6.97-12.19c3.28-1.32,5.96-3.52,6.58-7.12,.09-.52,.13-1.06,.13-1.63,0-3.28-1.41-5.62-3.54-7.03-2.08-1.46-4.74-1.92-9.12-1.92h-9.77s-.02,2.5-.02,6.82v20.68c0,.34,0,.66-.01,.95h0c0,2.41-1.95,4.35-4.35,4.35s-4.35-1.95-4.35-4.35c0-.28-.01-.59-.01-.91V21.17c0-4.55,.47-4.85,4.6-5.17v-1.78h-15.3v1.78c4.18,.32,4.65,.63,4.65,5.17v20.68c0,.32,0,.6-.01,.87v.04c0,2.41-1.95,4.35-4.35,4.35s-4.35-1.95-4.35-4.35c-.03-.51-.04-1.09-.06-1.75l-.52-19.47c-.1-4.86-.11-7.31-.11-7.31h-5.37l-11.38,24.65-11.17-24.65h-10.13v1.78c4.7,.41,5.06,.94,4.59,7.36l-.78,10.6c-.42,5.59-.78,8.15-1.04,9.92-.42,1.98-1.46,2.82-4.55,3.13v1.72h12.8v-1.72c-3.55-.37-4.7-.78-4.86-3.18-.16-1.88-.16-4.33,.05-8.67l.73-14.41h.16l11.43,27.67h1.31l12.42-28.25h.21l.16,20.83c.05,5.22-.21,5.59-4.33,6.06v1.67h44.52v-1.67c-4.17-.41-4.64-.83-4.64-5.26v-7.96h1.25c2.19,0,3.13,.68,4.06,2.18,1.57,2.71,2.76,6.45,4.32,8.85,.2,.29,.38,.57,.56,.83,.19,.31,.39,.61,.62,.89,1.26,1.6,3.08,2.73,5.16,3.11,.5,.09,1,.14,1.52,.14,.2,0,.41-.01,.61-.02,3.12-.21,5.77-2.11,7.06-4.78,.08-.16,.15-.33,.23-.51l.03-.06h-.01s.06-.14,.06-.14h0s-.05,.14-.05,.14l.05-.12,.08-.2c.04-.1,.08-.21,.12-.31l-.02,.06c.76-1.97,1.5-5.13,2.14-7.02h10.78c1.04,2.6,1.92,5.1,2.55,6.92,.73,2.14,.42,2.71-2.86,3.23v1.72h29.03v-1.67c-4.28-.42-4.75-.78-4.75-5.38v-9.71c.84-.15,1.51,.11,2.72,1.72,4.28,5.54,8.67,11.23,11.8,15.03h35.08c.47-1.51,1.56-6.73,1.93-8.77l-1.72-.47c-.99,2.61-1.93,4.33-2.93,5.43-1.2,1.36-3.13,1.67-5.74,1.67-1.88,0-3.5-.05-4.44-.52-1.05-.53-1.31-1.46-1.31-4.13V21.17c0-4.6,.52-4.85,4.65-5.17v-1.78h-10.7v27.57c0,.35,0,.67-.01,.97h0c0,2.41-1.95,4.35-4.35,4.35-.22,0-.45-.02-.67-.06h-.1c-2.28-.36-3.64-1.09-6.08-3.96-3.34-3.97-8.2-9.76-11.9-14.88,2.93-2.98,5.85-5.95,8.62-8.46,3.13-2.82,4.96-3.44,8.56-3.76v-1.78h-13.58v1.78l1.15,.11c2.46,.31,2.5,.99,1.15,2.76-2.04,2.46-4.76,5.48-8.15,8.82-1.62,1.57-2.82,2.4-3.97,2.72v-9.14c0-4.59,.47-4.95,4.39-5.27v-1.78h-14.94v1.78c4.12,.32,4.6,.63,4.6,5.27v20.42c0,.38,0,.72-.01,1.04h0v.04c0,2.41-1.95,4.35-4.35,4.35-1.54,0-2.89-.8-3.66-2.01-.58-.8-1.09-1.98-1.75-3.76-3.49-9.16-6.87-18.6-10.26-27.87l-2.34,.58-11.73,30.16c-.42,1.01-1.61,1.68-2.83,1.68,0,0-1.91,.03-2.88-1.67"/>
</svg>