<?xml version="1.0" encoding="UTF-8"?>
<svg id="Layer_1" data-name="Layer 1" xmlns="http://www.w3.org/2000/svg" viewBox="0 0 110.12 33.25">
  <path d="M102.25,1h7.88v31.38h-7.88V1ZM15.5,.13C7.87,.13,0,2.75,0,2.75v29.75H8.25V8.25s2.88-1.25,7.25-1.25c5.38,0,7.5,2.88,7.5,7.38v18h8.13V14.38C31.12,4.75,26.62,.13,15.5,.13m84.5,.88h-9.88l-7.5,9.25-4-5.25c-2.13-2.5-5.38-4-8.75-4h-4.88l12.38,15.63-12.75,15.75h9.75l8-9.75,4.63,5.75c2,2.63,5.38,4,8.63,4h4.75l-12.88-16.13L100,1Zm-33.88,25.38c-2.38,3-7,7-14.88,6.88-10.25,0-17.25-6.88-17.25-16.63S41.12,0,50.37,0C57.38,0,63,4.13,65.5,10c.88,2,1.38,4.25,1.38,6.63l-24.13,4.25c1.5,3.5,4.88,5.5,8.63,5.5,4.75,0,7.63-2.38,9.38-4.38l5.38,4.38M50.5,6.88c-4.13,0-7.5,2.63-8.5,7.38l16.25-2.88c-1.13-2.88-4.13-4.5-7.75-4.5"/>
</svg>