<?xml version="1.0" encoding="UTF-8"?>
<svg id="Layer_1" data-name="Layer 1" xmlns="http://www.w3.org/2000/svg" viewBox="0 0 162 37">
  <defs>
    <style>
      .cls-1 {
        fill: #242424;
      }

      .cls-1, .cls-2 {
        fill-rule: evenodd;
      }

      .cls-2 {
        fill: #ffe01a;
      }
    </style>
  </defs>
  <g id="logo_norton_d" data-name="logo norton d">
    <g id="Norton_WBG_Horizontal" data-name="Norton WBG Horizontal">
      <path id="Combined-Shape" class="cls-1" d="M76.67,8.25c1.95,0,3.71,.4,5.27,1.19,1.56,.79,2.79,1.94,3.68,3.45,.9,1.51,1.35,3.32,1.35,5.44v.63c0,2.12-.45,3.93-1.35,5.44-.9,1.51-2.13,2.66-3.68,3.45-1.56,.79-3.31,1.19-5.27,1.19s-3.71-.4-5.27-1.19c-1.56-.79-2.79-1.94-3.68-3.45-.9-1.51-1.35-3.32-1.35-5.44v-.63c0-2.12,.45-3.93,1.35-5.44,.9-1.51,2.13-2.66,3.68-3.45,1.56-.79,3.31-1.19,5.27-1.19Zm48.91,0c1.95,0,3.71,.4,5.27,1.19,1.56,.79,2.79,1.94,3.68,3.45,.9,1.51,1.35,3.32,1.35,5.44v.63c0,2.12-.45,3.93-1.35,5.44-.9,1.51-2.13,2.66-3.68,3.45-1.56,.79-3.31,1.19-5.27,1.19s-3.71-.4-5.27-1.19c-1.56-.79-2.79-1.94-3.68-3.45-.9-1.51-1.35-3.32-1.35-5.44v-.63c0-2.12,.45-3.93,1.35-5.44,.9-1.51,2.13-2.66,3.68-3.45,1.56-.79,3.31-1.19,5.27-1.19Zm-69.46,.24c1.53,0,2.87,.35,4.02,1.05,1.15,.7,2.04,1.67,2.67,2.9,.63,1.23,.95,2.67,.95,4.31v11.75h-4.99v-11.35c0-1.48-.36-2.59-1.09-3.33-.73-.74-1.76-1.11-3.11-1.11-1.53,0-2.72,.51-3.57,1.53-.85,1.02-1.27,2.44-1.27,4.27v10h-4.99V8.81h4.91v2.58h.71c.32-.69,.91-1.34,1.78-1.96,.87-.62,2.19-.93,3.96-.93ZM109.03,2.69v6.11h5.39v4.13h-5.39v10.24c0,.79,.37,1.19,1.11,1.19h3.8v4.13h-5.55c-1.29,0-2.34-.4-3.15-1.21-.81-.81-1.21-1.89-1.21-3.23V12.93h-5.11c-1.44,.03-2.31,.58-3.13,1.25-.82,.67-1.23,1.71-1.23,3.12v11.19h-4.99V8.81h4.91v2.22h.71c.29-.79,.8-1.33,1.47-1.7,.67-.37,1.43-.52,2.33-.52h5.03V2.69h4.99Zm40.83,5.79c1.53,0,2.87,.35,4.02,1.05,1.15,.7,2.04,1.67,2.67,2.9,.63,1.23,.95,2.67,.95,4.31v11.75h-4.99v-11.35c0-1.48-.36-2.59-1.09-3.33-.73-.74-1.76-1.11-3.11-1.11-1.53,0-2.72,.51-3.57,1.53-.85,1.02-1.27,2.44-1.27,4.27v10h-4.99V8.81h4.91v2.58h.71c.32-.69,.91-1.34,1.78-1.96,.87-.62,2.19-.93,3.96-.93Zm-73.19,4.21c-1.53,0-2.8,.5-3.8,1.49-1,.99-1.51,2.41-1.51,4.27v.4c0,1.85,.5,3.27,1.51,4.27,1,.99,2.27,1.49,3.8,1.49s2.8-.5,3.8-1.49c1-.99,1.51-2.41,1.51-4.27v-.4c0-1.85-.5-3.27-1.49-4.27-.99-.99-2.26-1.49-3.82-1.49Zm48.91,0c-1.53,0-2.8,.5-3.8,1.49-1,.99-1.51,2.41-1.51,4.27v.4c0,1.85,.5,3.27,1.51,4.27,1,.99,2.27,1.49,3.8,1.49s2.8-.5,3.8-1.49c1-.99,1.51-2.41,1.51-4.27v-.4c0-1.85-.5-3.27-1.49-4.27-.99-.99-2.26-1.49-3.82-1.49Zm34.63-3.9l.43,1.89h.1l.43-1.89h.82v2.28h-.43v-1.89h-.1l-.43,1.89h-.68l-.43-1.89h-.1v1.89h-.43v-2.28h.82Zm-1.13,0v.39h-.76v1.89h-.43v-1.89h-.76v-.39h1.95Z"/>
      <path id="Fill-13" class="cls-2" d="M36.93,18.5c0,10.2-8.28,18.5-18.47,18.5S0,28.7,0,18.5,8.28,0,18.47,0c2.81,0,5.48,.63,7.87,1.77l-3.07,3.96c-1.5-.57-3.11-.88-4.81-.88-7.18,0-13.08,5.59-13.59,12.66-.01,.14-.02,.29-.02,.43,0,.19-.01,.38-.01,.56,0,7.53,6.11,13.65,13.63,13.65s13.63-6.12,13.63-13.65c0-1.01-.11-1.99-.32-2.93l3.56-4.59c1.03,2.3,1.6,4.85,1.6,7.52"/>
      <path id="Fill-16" class="cls-1" d="M33.17,7.32l-3.11,4.01-10.92,14.09-8.91-7.98,3.23-3.61,5.04,4.51L26.76,7.68l2.97-3.83c1.29,1,2.45,2.17,3.44,3.47"/>
    </g>
  </g>
</svg>