<?xml version="1.0" encoding="UTF-8"?>
<svg id="Layer_1" data-name="Layer 1" xmlns="http://www.w3.org/2000/svg" viewBox="0 0 308.04 37.69">
  <defs>
    <style>
      .cls-1 {
        fill: #024da0;
      }

      .cls-2 {
        fill: #a8cb3a;
      }
    </style>
  </defs>
  <path class="cls-1" d="M302.02,36.45c-.06-1.44-.05-2.88,0-4.32,0-.29,.27-.58,.42-.86,.29,.15,.66,.24,.84,.48,.58,.8,1.08,1.6,1.68,2.57,.57-.88,1.1-1.66,1.6-2.45,.5-.79,.89-.86,1.48-.2v5.28l-.88,.36c-.13-.27-.22-.56-.27-.86,.02-.92-.06-1.84-.23-2.74-.26,.35-.51,.7-.76,1.06-.8,1.23-1.03,1.22-1.89,0-.23-.38-.55-.71-.93-.94,0,.89,.04,1.78,0,2.67,0,.3-.3,.6-.46,.9-.24-.34-.58-.64-.59-.95"/>
  <path class="cls-1" d="M296.62,32.28c-.24-.06-.43-.33-.64-.5,.19-.16,.38-.46,.58-.46,1.26-.04,2.52-.05,3.78,0,.19,0,.38,.37,.56,.57-.2,.14-.38,.37-.6,.41-.44,.03-.89,.03-1.34,0v3.87c0,.4-.31,1.13-.48,1.13-.8,0-.56-.71-.58-1.18v-3.82c-.43,.05-.87,.04-1.3,0"/>
  <path class="cls-1" d="M276.87,15.49c-1.64-1.44-3.29-2.87-4.94-4.3-.49-.28-.65-.9-.37-1.39,.09-.15,.22-.28,.37-.37,3.29-2.86,6.57-5.74,9.88-8.57,.4-.32,.9-.51,1.42-.53,3.27-.04,6.54,0,9.82,0,.63,0,1.22,0,1.34,1.01-.14,.26-.32,.51-.52,.73-5.13,4.5-10.27,8.98-15.42,13.46-.4,.42-1.07,.45-1.49,.05-.03-.03-.06-.06-.08-.09"/>
  <path class="cls-1" d="M288.07,37.38c-1.19-.06-2.39-.06-3.58,0-1.36,.14-2.72-.36-3.66-1.35-2.86-2.61-5.81-5.1-8.72-7.65-.93-.8-.92-1.22,0-2.03,1.54-1.34,3.09-2.66,4.6-4,.44-.53,1.22-.61,1.76-.17,.06,.05,.12,.11,.17,.17,5.02,4.4,10.08,8.8,15.09,13.18,.33,.28,.38,.87,.57,1.31-.39,.23-.81,.4-1.26,.5-1.65,.07-3.3,.04-4.96,.04"/>
  <path class="cls-2" d="M253.89,.81c6.54,5.66,13.08,11.34,19.6,17.02,.87,.8,.88,1.22,0,1.97-6.55,5.71-13.11,11.41-19.67,17.1-.35,.27-.78,.42-1.22,.42-1.69,.05-3.38,0-5.06,0h-4.86c-.44-.1-.87-.27-1.26-.5,.18-.45,.26-1.02,.58-1.31,4.58-4.05,9.21-8.06,13.82-12.08,1.36-1.18,2.71-2.34,4.06-3.53,1.1-.97,1.1-1.18,0-2.12-5.94-5.18-11.88-10.35-17.82-15.53-.35-.27-.6-.65-.72-1.08-.07-.65,.45-.88,1.05-.88h10.35c.43,.04,.83,.22,1.14,.51"/>
  <path class="cls-1" d="M230.1,37.38c-.86,0-1.23-.36-1.26-1.18V2.33c0-1.92,.17-2.08,2.11-2.08h5.81c1.36,0,1.6,.26,1.6,1.6V35.84c0,1.44-.07,1.52-1.46,1.53-2.3,0-4.54-.02-6.8,.02"/>
  <path class="cls-1" d="M225.89,2.14v30.93c-.18,3.5-2,5.02-5.46,4.49-1.61-.23-3.11-.93-4.33-2.01-7.9-6.9-15.8-13.78-23.72-20.64-.35-.25-.73-.47-1.13-.65-.15,.44-.25,.9-.3,1.36v19.53c0,1.9-.33,2.23-2.19,2.23h-5.51c-1.28,0-1.75-.44-1.75-1.68V4.88c0-2.65,.9-3.95,3.2-4.87h1.9c2.99,.45,5.02,2.47,7.15,4.34,7.04,6.16,14.1,12.29,21.18,18.4,.38,.25,.8,.45,1.23,.58,.15-.41,.25-.84,.3-1.27V2.42c0-1.78,.34-2.12,2.07-2.13,1.74,0,3.66,0,5.49,0,1.42,.03,1.86,.51,1.86,1.84"/>
  <path class="cls-1" d="M154.99,19.52h-8.63c-1.08,0-1.26-.31-.68-1.16,1.42-2.09,2.87-4.15,4.3-6.23,.42-.62,.8-.58,1.19,0,1.45,2.11,2.93,4.21,4.36,6.32,.49,.76,.33,1.05-.54,1.07m22.94,15.94c-7.2-10.45-14.46-20.87-21.64-31.34-1.38-2-2.83-3.74-5.38-4.12h-.63c-1.81,.29-3.43,1.3-4.49,2.8-7.52,10.92-15.06,21.82-22.62,32.71-.29,.4-.4,.9-.31,1.39,.09,.27,.8,.44,1.23,.45,2.46,.04,4.93,0,7.39,.04,.67,.05,1.31-.29,1.64-.88,1.79-2.65,3.64-5.26,5.44-7.9,.3-.52,.87-.83,1.46-.8h21.02c.64-.07,1.27,.25,1.6,.8,1.81,2.67,3.65,5.33,5.53,8,.27,.38,.68,.64,1.14,.73,2.71,.05,5.42,.05,8.13,0,.42-.05,.78-.3,.98-.67-.01-.44-.18-.87-.48-1.2"/>
  <path class="cls-1" d="M133.18,.31c1.8,0,2.14,.35,2.14,2.18V6.71c0,1.41-.48,1.9-1.9,1.9h-12c-1.6,0-1.7,.09-1.7,1.66v25.11c0,1.6-.38,1.98-1.98,1.98h-5.49c-1.52,0-1.93-.4-1.93-1.95V10.41c0-1.72-.08-1.79-1.77-1.79h-11.88c-1.6,0-2.03-.45-2.04-1.99,0-1.54,0-2.95,0-4.43s.46-1.88,1.92-1.88h36.62Z"/>
  <path class="cls-1" d="M58.69,28.15c1.49,.5,3.05,.81,4.62,.9,4.64,.07,9.28,0,13.92-.14,.98-.06,1.95-.28,2.86-.63,1.6-.57,2.14-1.4,2.14-3.1V2.6c0-2.02,.28-2.29,2.34-2.29h5.18c1.46,0,1.92,.44,1.92,1.86V26.34c0,5.5-3.51,9.37-9.33,10.34-2.11,.39-4.25,.6-6.4,.62-5.94,0-11.88-.14-17.81-.41-3.07-.09-5.98-1.37-8.11-3.58-1.71-1.72-2.65-4.05-2.62-6.47V2.15c0-1.42,.39-1.83,1.8-1.84h5.7c1.43,0,1.9,.44,1.92,1.89V25.31c-.17,1.28,.62,2.49,1.86,2.84"/>
  <path class="cls-1" d="M44.38,2.05v31.14c-.33,3.68-2.26,5.09-5.88,4.3-1.48-.32-2.86-1.01-4-2.02-7.73-6.76-15.46-13.51-23.2-20.24-.15-.15-.31-.29-.48-.42-.35-.2-.71-.37-1.07-.55-.15,.37-.24,.76-.29,1.15v19.84c0,1.74-.38,2.13-2.08,2.13s-3.52-.05-5.27,0c-.81,.1-1.61-.23-2.11-.86V3.8C.5,2.07,1.24,.54,3.2,0h1.8c2.97,.4,4.99,2.4,7.1,4.22,7.11,6.26,14.25,12.47,21.4,18.64,.34,.22,.7,.39,1.08,.53,.17-.39,.29-.81,.35-1.23V2.42c0-1.74,.37-2.1,2.1-2.1h5.6c1.29,.02,1.74,.5,1.74,1.74"/>
</svg>