<?xml version="1.0" encoding="UTF-8"?>
<svg id="Layer_1" data-name="Layer 1" xmlns="http://www.w3.org/2000/svg" viewBox="0 0 239.98 81.76">
  <defs>
    <style>
      .cls-1 {
        fill: #fff;
      }

      .cls-2 {
        fill: #a32422;
      }

      .cls-3 {
        fill: #741113;
      }

      .cls-4 {
        fill: #ac2724;
      }

      .cls-5 {
        fill: #dc382c;
      }

      .cls-6 {
        fill: #494c4d;
      }
    </style>
  </defs>
  <path class="cls-2" d="M91.57,62.98c-5.08,2.66-31.43,13.49-37.1,16.47-5.68,2.97-8.72,2.89-13.16,.77-4.44-2.12-32.38-13.49-37.45-15.91C1.31,63.11,0,62.09,0,61.14v-9.64s36.51-7.92,42.4-10.06c5.89-2.14,7.93-2.19,12.93-.35,5.01,1.84,35.01,7.25,39.97,9.05v9.5c0,.99-1.14,1.95-3.74,3.34h0Z"/>
  <path class="cls-5" d="M91.57,53.39c-5.08,2.64-31.43,13.48-37.1,16.4s-8.72,2.9-13.16,.78S8.92,57.09,3.86,54.69c-5.06-2.4-5.16-4.08-.2-6.02,4.97-1.94,32.85-12.86,38.74-15s7.93-2.19,12.93-.35c5.01,1.84,31.25,12.26,36.17,14.08s5.16,3.31,.06,5.94v.05Z"/>
  <path class="cls-2" d="M91.57,47.28c-5.08,2.65-31.43,13.48-37.1,16.4-5.68,2.92-8.69,2.9-13.13,.77S8.92,51.03,3.86,48.61C1.31,47.4,0,46.38,0,45.42v-9.61s36.51-7.95,42.4-10.08c5.89-2.14,7.93-2.19,12.93-.33s35.01,7.23,39.97,9.04v9.5c0,.99-1.14,1.98-3.74,3.35Z"/>
  <path class="cls-5" d="M91.57,37.64c-5.08,2.66-31.43,13.49-37.1,16.41s-8.72,2.9-13.16,.78c-4.44-2.12-32.38-13.44-37.45-15.86-5.06-2.42-5.16-4.07-.2-6.01,4.96-1.94,32.85-12.88,38.74-14.97,5.89-2.09,7.93-2.22,12.93-.4s31.25,12.33,36.17,14.09c4.93,1.76,5.16,3.31,.06,5.94v.02Z"/>
  <path class="cls-2" d="M91.57,30.99c-5.08,2.66-31.43,13.49-37.1,16.41-5.68,2.92-8.69,2.9-13.13,.78-4.44-2.12-32.41-13.45-37.48-15.86C1.31,31.12,0,30.1,0,29.13v-9.64s36.51-7.92,42.4-10.05,7.93-2.19,12.93-.36c5.01,1.84,35,7.25,39.96,9.06v9.5c.01,1-1.13,1.98-3.72,3.34Z"/>
  <path class="cls-5" d="M91.57,21.36c-5.08,2.6-31.43,13.51-37.1,16.4-5.68,2.9-8.72,2.89-13.16,.78-4.44-2.11-32.38-13.46-37.45-15.86-5.06-2.41-5.16-4.08-.2-6.02C8.63,14.72,36.51,3.79,42.4,1.66c5.89-2.12,7.93-2.19,12.93-.35,5.01,1.84,31.25,12.27,36.17,14.08s5.16,3.31,.06,5.95v.02Z"/>
  <polygon class="cls-1" points="49.15 7.67 55.44 5.61 53.74 9.68 60.13 12.08 51.89 12.94 50.03 17.39 47.05 12.42 37.51 11.57 44.64 9 42.49 5.06 49.15 7.67 49.15 7.67 49.15 7.67"/>
  <polygon class="cls-1" points="49.55 33.67 34.14 27.27 56.22 23.87 49.55 33.67 49.55 33.67 49.55 33.67"/>
  <path class="cls-1" d="M28.18,14.55c6.51,0,11.8,2.05,11.8,4.56s-5.31,4.56-11.8,4.56-11.81-2.05-11.81-4.56,5.29-4.56,11.81-4.56Z"/>
  <polygon class="cls-3" points="69.91 13.3 82.97 18.46 69.92 23.62 69.91 13.3 69.91 13.3 69.91 13.3"/>
  <polygon class="cls-4" points="69.91 13.3 69.92 23.62 68.5 24.17 55.44 19.01 69.91 13.3 69.91 13.3 69.91 13.3"/>
  <path class="cls-6" d="M125.64,26.96c1.13-1.23,2.51-2.19,4.06-2.83,1.5-.64,3.12-1,4.75-1.05,1.18-.11,2.36,.27,3.25,1.05,.67,.64,1.03,1.54,.99,2.47,0,.92-.35,1.81-.99,2.47-.63,.7-1.53,1.09-2.47,1.06-4.06,.36-9.7,4.41-9.7,9.91v12.49c-.05,1.92-1.6,3.47-3.53,3.52-.96,.03-1.89-.37-2.52-1.09-.67-.65-1.05-1.54-1.05-2.47V26.45c0-.93,.39-1.82,1.05-2.47,.77-.56,1.7-.87,2.65-.89,1.93,.04,3.48,1.59,3.52,3.52l-.02,.35Z"/>
  <path class="cls-6" d="M168.41,38.42c0,.85-.31,1.67-.88,2.3-.68,.63-1.55,1-2.47,1.05h-20.83c.2,1.65,1,3.18,2.26,4.27,1.61,1.73,3.81,2.79,6.17,2.97,2.41,.41,4.89-.16,6.87-1.59,.7-.7,1.66-1.09,2.65-1.06,.85-.04,1.68,.28,2.28,.89,1.17,1.07,1.25,2.89,.17,4.06,0,0,0,0,0,0-.05,.06-.11,.11-.17,.17-3.1,2.87-7.22,4.4-11.45,4.23-4.35,.09-8.52-1.71-11.44-4.93-2.99-3.15-4.68-7.31-4.75-11.65-.09-4.37,1.63-8.58,4.75-11.64,2.85-3.1,6.89-4.84,11.11-4.76,4.1-.16,8.06,1.45,10.9,4.41,2.99,2.86,4.76,6.76,4.95,10.9v.35l-.13,.03Zm-15.69-9.34c-2.19,.04-4.3,.85-5.94,2.3-1.4,1.18-2.39,2.78-2.82,4.56h18.51c-.52-1.79-1.64-3.34-3.18-4.4-1.85-1.49-4.13-2.36-6.51-2.48"/>
  <path class="cls-6" d="M201.58,52.17c-.05,1.92-1.6,3.47-3.52,3.53-1.67-.07-3.1-1.21-3.53-2.83-2.62,1.88-5.78,2.87-9,2.83-4.26,.05-8.34-1.68-11.28-4.76-3.07-3.08-4.74-7.29-4.59-11.64-.03-4.32,1.62-8.49,4.59-11.63,2.92-3.14,7-4.93,11.28-4.95,3.17-.04,6.26,.95,8.81,2.83V13.21c-.02-.94,.36-1.84,1.06-2.47,.66-.68,1.56-1.06,2.5-1.06,.94-.02,1.84,.36,2.47,1.06,.67,.65,1.05,1.54,1.06,2.47V52.17h.16Zm-15.85-3.53c2.38,.05,4.64-.99,6.16-2.81,3.51-3.63,3.51-9.39,0-13.02-1.57-1.77-3.8-2.8-6.16-2.85-2.39-.08-4.67,.96-6.17,2.83-3.51,3.63-3.51,9.39,0,13.02,1.55,1.79,3.8,2.82,6.17,2.81"/>
  <path class="cls-6" d="M212,13.21v1.42c.03,1.01-.36,1.98-1.09,2.68-.65,.65-1.55,.98-2.47,.88-.93,.03-1.84-.35-2.46-1.05-.71-.69-1.09-1.65-1.06-2.64v-1.3c0-.93,.39-1.82,1.06-2.47,.65-.67,1.53-1.05,2.46-1.06,.94-.01,1.84,.38,2.47,1.07,.71,.62,1.1,1.53,1.08,2.47m-5.94,10.76c.64-.67,1.53-1.06,2.47-1.06,.94-.03,1.84,.36,2.47,1.06,.68,.69,1.04,1.63,1.01,2.6v25.78c.06,.95-.35,1.87-1.08,2.47-.65,.67-1.53,1.05-2.46,1.06-.94,.03-1.84-.36-2.47-1.06-.67-.64-1.06-1.53-1.06-2.47V26.6c-.02-.98,.36-1.92,1.06-2.6"/>
  <path class="cls-6" d="M237.01,26.44c.72,.5,1.23,1.25,1.41,2.11,.14,.9,.02,1.81-.35,2.64-.51,.72-1.26,1.22-2.12,1.41-.92,.17-1.87-.02-2.65-.53-2.47-1.58-4.39-2.46-5.99-2.46-1.41-.09-2.8,.35-3.91,1.22-.7,.53-1.05,.89-1.05,1.24-.05,.31,.01,.62,.18,.89,.2,.22,.44,.4,.7,.53,1.44,.9,3.07,1.45,4.76,1.58h0c2.19,.36,4.32,1.02,6.34,1.95,1.78,.74,3.26,2.05,4.23,3.71,2.63,4.06,1.47,9.49-2.59,12.12-.02,.01-.04,.02-.06,.04-2.47,1.76-5.43,2.69-8.46,2.64-4.06,0-7.93-1.58-11.63-4.56-.67-.59-1.11-1.41-1.24-2.3-.17-1.86,1.2-3.51,3.06-3.68,.86-.08,1.73,.18,2.41,.71,1.95,1.85,4.54,2.86,7.23,2.82,1.56,.05,3.1-.38,4.41-1.24,.7-.7,1.24-1.23,1.24-1.76s0-.7-.18-.88c0-.18-.36-.53-.89-.7-1.61-.99-3.41-1.63-5.29-1.86h0c-2.09-.3-4.12-.96-5.99-1.95-1.71-.83-3.17-2.11-4.23-3.69-.69-1.24-1.06-2.64-1.05-4.06,0-2.91,1.45-5.62,3.87-7.23,2.39-1.63,5.21-2.49,8.1-2.47,2.97,.18,6.17,1.41,9.69,3.7"/>
</svg>