<?xml version="1.0" encoding="UTF-8"?><svg id="logo" xmlns="http://www.w3.org/2000/svg" xmlns:xlink="http://www.w3.org/1999/xlink" viewBox="0 0 423.47 130.39"><defs><style>.cls-1{fill:#49505d;}.cls-2{fill:url(#_名称未設定グラデーション_78);}</style><linearGradient id="_名称未設定グラデーション_78" x1="51.44" y1="0" x2="51.44" y2="130.39" gradientUnits="userSpaceOnUse"><stop offset="0" stop-color="#00a8c6"/><stop offset=".15" stop-color="#00a9ce"/><stop offset=".19" stop-color="#0baace"/><stop offset=".26" stop-color="#2aadd0"/><stop offset=".35" stop-color="#5cb1d3"/><stop offset=".45" stop-color="#a1b8d6"/><stop offset=".54" stop-color="#dbbeda"/><stop offset=".71" stop-color="#f3a7ac"/><stop offset=".78" stop-color="#f199a0"/><stop offset=".89" stop-color="#ed7782"/><stop offset=".99" stop-color="#e95464"/></linearGradient></defs><g id="_パス_1"><path class="cls-2" d="M66.4,.52C46.81,7.49,29.68,20.06,17.15,36.66-13.02,73.32-4.94,105.59,53.84,98.79c30.15-3.01,18.1-39.14-7.83-20.23-35.01,25.66-22.2,69.32,21.51,44.4,44.68-25.29,56.15-91.09-20.02-76.65-19.32,3.98-16.6,28.07,2.62,24.29,13.23-2.79,30.37-23.17,30.37-38.35,0-9.45-5.66-13.63-10.35-11.13-3.6,1.92-3.4,7.25-.02,8.93,5.09,2.53-2.4,19.19-17.69,29.79-6.99,4.17-10.62-2.65-2.14-3.82,33.6-6.14,45.84,4.75,40.8,22.38-5.24,16.6-17.74,30.35-33.55,37.65-27.15,12.5-27.26-12.04-6.91-29.63,9.11-7.88,14.23,.09,5.83,1.62-17.75,3.24-62.21,6.69-38.89-33.95C31.21,30.34,53.89,15.19,70.8,10.24c6.28-1.83,4.37-12.71-4.39-9.72Z"/></g><g><path class="cls-1" d="M189.03,57.22h-15.93v-10.34h43.31v10.34h-15.93v40.65h-11.44V57.22Z"/><path class="cls-1" d="M220.14,72.52v-.15c0-14.5,11.44-26.37,27.17-26.37s27.03,11.73,27.03,26.23v.15c0,14.5-11.44,26.37-27.17,26.37s-27.03-11.73-27.03-26.22Zm42.47,0v-.15c0-8.74-6.41-16.03-15.44-16.03s-15.3,7.14-15.3,15.88v.15c0,8.74,6.41,16.03,15.44,16.03s15.3-7.14,15.3-15.88Z"/><path class="cls-1" d="M283.72,46.88h23.05c6.48,0,11.51,1.82,14.86,5.17,2.84,2.84,4.37,6.85,4.37,11.66v.15c0,8.23-4.44,13.4-10.93,15.81l12.46,18.21h-13.11l-10.93-16.32h-8.55v16.32h-11.22V46.88Zm22.08,24.77c5.46,0,8.6-2.91,8.6-7.21v-.15c0-4.81-3.35-7.28-8.81-7.28h-10.88v14.64h11.1Z"/><path class="cls-1" d="M335.95,46.88h38.2v9.98h-27.05v10.34h23.78v9.98h-23.78v10.71h27.42v9.98h-38.56V46.88Z"/><path class="cls-1" d="M407.3,67.35c-8.81-2.26-11-3.35-11-6.7v-.15c0-2.48,2.26-4.44,6.56-4.44,3.8,0,7.71,1.48,11.68,3.98,0,0,0,0,0,0l7.41-7.41c-5.17-4.15-11.51-6.48-18.94-6.48-10.42,0-17.85,6.12-17.85,15.37v.15c0,10.13,6.63,12.97,16.9,15.59,8.52,2.19,10.27,3.64,10.27,6.48v.15c0,2.99-2.77,4.81-7.36,4.81-5.52,0-10.13-2.16-14.5-5.61,0,0,0,0,0,0l-7.36,7.36c6.12,5.46,13.91,8.16,21.64,8.16,11,0,18.72-5.68,18.72-15.81v-.15c0-8.89-5.83-12.6-16.17-15.3Z"/><path class="cls-1" d="M151.87,67.35c-8.81-2.26-11-3.35-11-6.7v-.15c0-2.48,2.26-4.44,6.56-4.44,3.8,0,7.71,1.48,11.68,3.98,0,0,0,0,0,0l7.41-7.41c-5.17-4.15-11.51-6.48-18.94-6.48-10.42,0-17.85,6.12-17.85,15.37v.15c0,10.13,6.63,12.97,16.9,15.59,8.52,2.19,10.27,3.64,10.27,6.48v.15c0,2.99-2.77,4.81-7.36,4.81-5.52,0-10.13-2.16-14.5-5.61,0,0,0,0,0,0l-7.36,7.36c6.12,5.46,13.91,8.16,21.64,8.16,11,0,18.72-5.68,18.72-15.81v-.15c0-8.89-5.83-12.6-16.17-15.3Z"/></g></svg>