<?xml version="1.0" encoding="UTF-8"?>
<svg id="Layer_1" data-name="Layer 1" xmlns="http://www.w3.org/2000/svg" viewBox="0 0 328.18 54.23">
  <defs>
    <style>
      .cls-1 {
        fill: #ed601a;
      }
    </style>
  </defs>
  <path class="cls-1" d="M48.01,9.95l2,3.23,4.51-3.24c-2.14-3.46-3.95-6.36-5.08-8.16-1.1-1.77-3.42-2.32-5.19-1.22-1.11,.69-1.79,1.91-1.79,3.21v14.82l5.54-3.97v-4.67Zm-5.53,24.1l-2.98-2.71-4.6,3.3,6.81,6.19c1.54,1.4,3.92,1.29,5.33-.25,.63-.7,.98-1.6,.98-2.54v-12.81l-5.54,3.98v4.85h0Z"/>
  <path class="cls-1" d="M73.91,.44c-1.26-.65-2.78-.54-3.93,.29l-4.99,3.58-2.23,1.61L9.99,43.82l-4.45,3.19V7.98L28.39,28.71l4.6-3.3L6.32,1.2C4.77-.21,2.38-.09,.98,1.45,.35,2.15,0,3.05,0,3.99V50.45c0,2.08,1.68,3.77,3.77,3.77,.79,0,1.56-.25,2.21-.71l7.25-5.2L65.98,10.43l4.45-3.19v28.49c-3.77-6.16-7.56-12.31-11.36-18.45l-4.52,3.25c5.42,8.77,11.42,18.5,14.4,23.47,1.06,1.79,3.37,2.39,5.16,1.34,1.16-.68,1.86-1.93,1.86-3.27V3.8c0-1.42-.79-2.71-2.05-3.36"/>
  <path d="M123.32,45.03h-9.44L99.23,6.06h8.27l11.16,31.1,11.22-31.1h8.08l-14.64,38.97Zm185.64-16.03h11.94c-.67-3.45-2.76-5.4-5.88-5.4-3.42,0-5.43,2.06-6.07,5.4m19.23,2.5c0,.82-.04,1.64-.14,2.45h-19.12c.78,3.89,3.51,5.59,6.93,5.59,2.5-.05,4.91-.97,6.82-2.59l4.26,4.67c-3.06,2.81-6.96,4.09-11.48,4.09-8.26,0-14-5.62-14-14.11s5.56-14.28,13.63-14.28c7.76,0,13.08,5.76,13.11,14.16m-26.2-13.58l-1.08,7.21c-1.4-.57-2.89-.86-4.4-.86-3.36,0-5.67,2.06-5.67,6.06v14.69h-7.27V18.07h7.04v2.95c1.7-2.53,4.28-3.67,7.6-3.67,1.29-.03,2.57,.17,3.79,.58m-43.03,13.61c0,4.37,3.06,7.43,7.15,7.43s7.18-3.06,7.18-7.43-3.1-7.43-7.18-7.43-7.15,3.06-7.15,7.43h0Zm21.76,0c0,8.12-6.2,14.19-14.61,14.19s-14.55-6.06-14.55-14.19,6.17-14.19,14.55-14.19,14.61,6.06,14.61,14.19m-29.05-7.01h-8.37v20.5h-7.26V14.73c0-6.31,3.36-10.46,9.66-10.46,3.67,0,6.23,1.06,8.29,2.42l-2.9,5.66c-1.41-.81-2.99-1.26-4.62-1.31-2.09,0-3.17,1.27-3.17,3.78v3.25h8.37v6.46Zm-40.25,7.01c0,4.12,2.7,7.43,6.96,7.43s6.96-3.17,6.96-7.43-2.81-7.43-6.96-7.43-6.95,3.32-6.95,7.43h0Zm20.79,13.49h-7.09v-2.98c-1.75,2.17-4.37,3.67-8.07,3.67-7.43,0-13.05-6.09-13.05-14.19s5.62-14.19,13.05-14.19c3.7,0,6.29,1.5,8.07,3.7v-2.98h7.09v26.96Zm-30.66-20.5h-9.76v9.85c0,3.36,1.78,4.59,4.03,4.59,1.73,0,3.59-.86,5.07-1.75l2.67,5.67c-2.36,1.62-5.1,2.84-8.93,2.84-6.68,0-10.1-3.78-10.1-10.77V10.06h7.26v8.01h9.77v6.46Zm-19.79-6.59l-1.08,7.21c-1.4-.57-2.89-.86-4.4-.86-3.37,0-5.68,2.06-5.68,6.06v14.69h-7.28V18.07h7.04v2.95c1.7-2.53,4.28-3.67,7.6-3.67,1.29-.03,2.58,.17,3.8,.58m-41,11.07h11.94c-.67-3.45-2.76-5.4-5.87-5.4-3.42,0-5.43,2.06-6.06,5.4m19.23,2.5c0,.82-.04,1.64-.14,2.45h-19.12c.78,3.89,3.51,5.59,6.93,5.59,2.5-.05,4.91-.97,6.82-2.59l4.26,4.67c-3.06,2.81-6.96,4.09-11.48,4.09-8.27,0-13.99-5.62-13.99-14.11s5.56-14.28,13.63-14.28c7.75,0,13.07,5.76,13.1,14.16"/>
</svg>