<?xml version="1.0" encoding="UTF-8"?>
<svg id="Layer_1" data-name="Layer 1" xmlns="http://www.w3.org/2000/svg" xmlns:xlink="http://www.w3.org/1999/xlink" viewBox="0 0 361.93 60.53">
  <defs>
    <style>
      .cls-1 {
        fill: url(#linear-gradient);
      }

      .cls-2 {
        fill: #052b40;
      }
    </style>
    <linearGradient id="linear-gradient" x1="46.43" y1="13.08" x2="12.77" y2="46.74" gradientUnits="userSpaceOnUse">
      <stop offset="0" stop-color="#f29738"/>
      <stop offset="1" stop-color="#e63b37"/>
    </linearGradient>
  </defs>
  <path class="cls-1" d="M0,33.97l26.34,26.34c.15,.15,.32,.21,.49,.22h.04c.42-.01,.81-.39,.7-.88l-5.06-22.65L0,31.97v2Zm59.49-2.05c-.05,0-.11,0-.16,.01l-22.65,5.06-5.06,22.65c-.1,.49,.29,.87,.7,.88h.04c.17,0,.34-.07,.49-.22l27.14-27.14c.47-.48,.11-1.25-.5-1.25h0ZM25.85,0L0,25.85v2l22.51-5.03L27.57,.17c.01-.06,.02-.12,.02-.17h-1.74ZM31.61,0c0,.06,0,.11,.02,.17l5.06,22.65,22.65,5.06c.71,.15,1.18-.72,.66-1.23L33.35,0h-1.74Z"/>
  <path class="cls-2" d="M251.79,20.78h11.11v22.73h5.03V20.78h11.09v-5.03h-27.24v5.03Zm-10.86,11.4c-.22-.59-.5-1.13-.83-1.61-.42-.61-.9-1.13-1.44-1.56-.54-.43-1.11-.79-1.71-1.07-.6-.28-1.2-.49-1.81-.63-.61-.14-1.18-.21-1.72-.22h-11.62c-.95,0-1.7-.28-2.24-.84-.54-.56-.8-1.33-.8-2.29s.27-1.72,.8-2.3c.53-.58,1.28-.87,2.24-.87h17.13v-5.03h-17.13c-.81,0-1.69,.15-2.63,.44-.94,.29-1.82,.76-2.62,1.41-.81,.65-1.48,1.5-2.01,2.53-.53,1.04-.8,2.31-.8,3.82s.27,2.79,.8,3.83c.53,1.05,1.21,1.89,2.01,2.54,.81,.65,1.68,1.11,2.62,1.4,.94,.29,1.82,.44,2.63,.44h11.58c.13,0,.26,0,.38,.02,.32,.03,.61,.1,.89,.21,.38,.15,.7,.38,.97,.66,.26,.28,.47,.62,.61,1.01,.14,.38,.21,.81,.21,1.28,0,.95-.27,1.71-.8,2.29-.53,.57-1.29,.85-2.25,.85h-19.42v5.03h19.42c.54,0,1.12-.07,1.73-.19,.61-.13,1.22-.33,1.81-.6,.59-.27,1.17-.62,1.72-1.04,.55-.43,1.04-.94,1.45-1.55,.41-.61,.75-1.31,1-2.1,.25-.8,.38-1.69,.38-2.68s-.12-1.88-.37-2.67c-.05-.16-.11-.32-.17-.48m71.27-11.4h-8.85c-.16,0-.48,.02-.98,.07-.5,.05-1.07,.16-1.72,.34-.65,.18-1.34,.46-2.06,.83-.72,.37-1.39,.89-1.99,1.55-.61,.66-1.11,1.48-1.5,2.47-.39,.99-.59,2.18-.59,3.59v2.03h17.69v-10.88Zm4.84-3.48c.13,.31,.19,.64,.19,.99v25.23h-5.03v-6.82h-17.69v6.82h-5.03v-13.88c0-2.03,.35-3.89,1.05-5.59s1.67-3.17,2.9-4.4c1.24-1.23,2.7-2.18,4.39-2.86,1.69-.68,3.54-1.03,5.54-1.03h11.34c.35,0,.68,.06,.99,.19,.31,.13,.58,.31,.81,.54,.23,.23,.41,.5,.54,.81m34.38,12.1c.63-.05,1.21-.18,1.73-.4,.52-.21,.97-.5,1.36-.86,.38-.36,.68-.8,.88-1.31,.21-.51,.31-1.09,.31-1.75v-3.17c0-.28-.04-.5-.11-.65-.07-.15-.16-.26-.27-.33-.11-.07-.23-.11-.35-.13-.12-.01-.24-.02-.34-.02h-16.61v8.62h13.39Zm10.51,14.11h-7.78l-10.49-9.08h-5.63v9.08h-5.03V18.28c0-.35,.06-.68,.19-.99,.13-.31,.31-.58,.53-.81,.22-.23,.49-.41,.8-.54,.31-.13,.64-.19,1.01-.19h19.11c1.12,0,2.07,.2,2.85,.61,.77,.4,1.4,.92,1.89,1.53,.48,.61,.83,1.27,1.04,1.98s.32,1.38,.32,1.99v3.21c0,1.15-.14,2.17-.42,3.08-.29,.9-.67,1.7-1.15,2.39s-1.04,1.28-1.67,1.77c-.63,.49-1.29,.89-1.98,1.21-.69,.32-1.39,.55-2.09,.69-.7,.14-1.36,.21-1.98,.21l10.51,9.08ZM156.07,20.78h-8.85c-.15,0-.48,.02-.98,.07-.5,.05-1.07,.16-1.72,.34-.65,.18-1.34,.46-2.06,.83-.72,.37-1.39,.89-1.99,1.55-.61,.66-1.11,1.48-1.5,2.47-.39,.99-.59,2.18-.59,3.59v2.03h17.69v-10.88Zm4.84-3.48c.13,.31,.19,.64,.19,.99v25.23h-5.03v-6.82h-17.69v6.82h-5.03v-13.88c0-2.03,.35-3.89,1.04-5.59,.7-1.7,1.67-3.17,2.9-4.4,1.24-1.23,2.7-2.18,4.39-2.86,1.69-.68,3.54-1.03,5.54-1.03h11.34c.35,0,.68,.06,.99,.19,.31,.13,.58,.31,.81,.54,.23,.23,.41,.5,.54,.81m36.03,7.74c0,.88-.13,1.58-.41,2.11-.27,.53-.61,.94-1.03,1.24-.41,.3-.87,.51-1.38,.63-.5,.12-.99,.22-1.47,.3h-9.08c-.66,0-1.26-.1-1.79-.3-.54-.2-.99-.49-1.37-.86-.37-.37-.66-.82-.87-1.35-.21-.52-.31-1.11-.31-1.77V15.75h-5.03v9.29c0,1.14,.15,2.16,.44,3.07,.29,.91,.68,1.71,1.16,2.4s1.04,1.28,1.67,1.77c.63,.49,1.29,.89,1.98,1.21,.69,.31,1.39,.55,2.09,.69,.7,.14,1.37,.21,1.98,.21h2.01v9.12h5.07v-9.12h2.03c.62,0,1.28-.07,1.98-.21,.7-.14,1.4-.37,2.08-.69,.68-.32,1.35-.72,1.98-1.21,.64-.49,1.2-1.08,1.68-1.77,.48-.69,.86-1.49,1.15-2.39s.44-1.93,.44-3.08V15.75h-5.03v9.29ZM119.35,15.75h5.76l-11.95,26.02c-.2,.59-.33,.81-.7,1.18-.36,.37-.8,.61-1.32,.72-.53,.09-1.03,.03-1.5-.17-.47-.2-.84-.53-1.11-.97l-9.21-19.48-9.23,19.48c-.22,.38-.52,.67-.9,.87-.38,.21-.79,.31-1.23,.31-.61,0-1.03-.17-1.49-.56s-.77-.72-.97-1.38l-12.06-26.02h5.79l9.05,19.34,8.71-18.15c.22-.37,.52-.66,.9-.87s.99-.31,1.43-.31,1.08,.1,1.45,.31c.37,.21,.68,.5,.93,.87l8.76,18.23,8.9-19.41Z"/>
</svg>