<?xml version="1.0" encoding="UTF-8"?>
<svg id="Layer_1" data-name="Layer 1" xmlns="http://www.w3.org/2000/svg" viewBox="0 0 265.49 50.28">
  <defs>
    <style>
      .cls-1 {
        fill: #70004a;
      }
    </style>
  </defs>
  <path class="cls-1" d="M49.66,15.3c-3.13,.12-5.76,2.33-5.67,6.14,.07,3.17,2.66,5.67,5.95,5.62,2.74-.04,5.96-2.32,5.6-5.99,.27-3.7-3.11-5.88-5.88-5.77m198.73,21.29c0-3.83,.03-7.67-.02-11.5-.01-1.25,.51-2.2,1.36-3,1.18-1.12,2.42-1.06,3.48,.17,.5,.58,.92,1.22,1.32,1.87,1.35,2.2,3.34,3.05,5.85,2.83,2.28-.2,3.94-1.47,4.64-3.5,1.13-3.27,.14-5.88-2.98-7.52-1.59-.84-3.32-.9-5.07-.78-3.33,.23-5.74,1.91-7.42,4.73-.13,.22-.25,.45-.41,.64-.24,.29-.54,.55-.95,.42-.38-.12-.46-.47-.52-.81-.02-.14-.06-.28-.07-.42-.04-.65-.34-1.19-.75-1.68-1.06-1.27-2.4-1.98-4.07-1.99-1.88-.02-3.75-.01-5.62-.01-.2,0-.4,0-.59,.05-.6,.12-.8,.42-.73,1.03,.04,.34,.11,.68,.11,1.01,0,9.68,0,19.37,0,29.05,0,.4-.03,.79-.07,1.19-.09,.85,.14,1.14,1,1.21,.17,.01,.34,.01,.51,.01,3.29,0,6.59,0,9.89,0,.97,0,1.13-.17,1.13-1.15v-11.84h-.01Zm-37.25-8.98v.03c1.31,0,2.61,0,3.92,0,1.28-.01,1.79-.49,1.6-1.71-.28-1.79-.6-3.59-1.07-5.34-.35-1.32-1.07-2.51-2.2-3.37-1.57-1.19-3.49-1-4.84,.41-1.1,1.15-1.71,2.54-2.04,4.05-.29,1.3-.46,2.63-.66,3.95-.05,.3-.06,.63-.02,.93,.08,.63,.36,.91,.97,1.01,.25,.04,.51,.04,.76,.04,1.19,0,2.39,0,3.58,0m16.19,10.52c-.04,.32-.04,.63-.13,.9-1.14,3.16-2.69,6.08-5.24,8.35-1.32,1.18-2.88,1.9-4.61,2.25-1.11,.23-2.23,.41-3.36,.55-1.65,.21-3.29,.08-4.92-.22-1.48-.28-2.94-.58-4.35-1.16-3.75-1.54-6.63-3.99-8.46-7.63-1.11-2.22-1.71-4.56-1.76-7.04-.02-1.19-.06-2.39,0-3.57,.25-4.54,1.95-8.43,5.42-11.44,1.78-1.55,3.85-2.57,6.13-3.21,3.32-.93,6.7-.92,10.05-.5,2.9,.36,5.49,1.62,7.65,3.64,2.04,1.9,3.28,4.25,3.68,7.03,.07,.51,.13,1.02,.15,1.52,.04,.91-.25,1.2-1.13,1.19-2.73-.03-5.45-.07-8.17-.07-2.87,0-5.74,.06-8.6,.08-.85,0-1.7-.03-2.56-.05-.92-.02-1.4,.33-1.4,1.21-.01,2.87,.51,5.6,2.34,7.92,2.77,3.51,6.54,4.72,10.86,4.52,.98-.05,1.97-.28,2.92-.56,1.85-.55,3.3-1.72,4.55-3.16,.22-.25,.37-.57,.91-.55m-155.05-6.19c.05,1.42,.06,2.84,.17,4.25,.25,3.05,.42,6.12,1.5,9.04,.48,1.29,1.24,2.35,2.32,3.2,.89,.7,1.89,.79,2.87,.23,.53-.3,1.04-.7,1.44-1.16,1.54-1.76,2.17-3.97,2.38-6.18,.39-4.09,.71-8.2,.37-12.32-.22-2.71-.2-5.45-1.09-8.07-.49-1.45-1.16-2.76-2.31-3.81-.48-.44-1.04-.67-1.69-.72-1.47-.11-2.49,.62-3.3,1.74-.95,1.32-1.43,2.83-1.72,4.4-.59,3.1-.86,6.24-.94,9.4m-12.95,.99c-.19-2.62,.29-5.16,1.15-7.61,.57-1.64,1.49-3.12,2.68-4.41,2.29-2.5,5.07-4.13,8.34-5.01,1.89-.51,3.78-.77,5.72-.7,.45,.01,.91,.02,1.36,0,3.25-.13,6.33,.64,9.22,2.04,3.16,1.52,5.59,3.85,7.17,7.02,.96,1.93,1.34,4.03,1.63,6.15,.28,2.13,.22,4.25-.19,6.36-.27,1.39-.5,2.78-1.09,4.1-.88,1.99-2.1,3.7-3.74,5.1-1.96,1.67-4.21,2.83-6.68,3.43-3.78,.92-7.62,1.2-11.49,.49-1.6-.29-3.17-.64-4.67-1.27-2.25-.94-4.26-2.23-5.9-4.08-2.36-2.67-3.21-5.88-3.51-9.3-.07-.76,0-1.53,0-2.3M6.32,16.05c-1.82,0-3.64,0-5.46,0-.26,0-.61,.07-.75,.24-.25,.3-.02,.63,.16,.93,.19,.31,.38,.63,.53,.96,.71,1.64,1.4,3.29,2.11,4.92,.49,1.12,1.01,2.22,1.51,3.33,.45,.98,.89,1.96,1.33,2.95,.68,1.53,1.36,3.05,2.04,4.58,.74,1.66,1.47,3.32,2.2,4.98,.76,1.71,1.52,3.42,2.29,5.12,.6,1.32,1.17,2.65,1.85,3.92,.52,.96,1.37,1.57,2.54,1.6,1.42,.05,2.56-.68,3.2-2.1,.44-.96,.85-1.92,1.29-2.88,1-2.23,2.03-4.44,3-6.68,.96-2.21,1.85-4.45,2.78-6.67,.04-.1,.09-.21,.15-.3,.23-.35,.54-.61,.98-.59,.46,.02,.69,.35,.85,.73,.35,.87,.67,1.75,1.04,2.61,.67,1.57,1.35,3.12,2.04,4.68,.76,1.74,1.53,3.48,2.3,5.22,.62,1.4,1.2,2.82,1.92,4.17,.53,1.01,1.36,1.72,2.61,1.8,1.55,.11,2.58-.71,3.23-1.95,1.06-2.04,1.96-4.16,2.98-6.22,.42-.84,.42-1.61,.02-2.44-.58-1.2-1.12-2.42-1.66-3.64-2.69-6.01-5.39-12.03-8.06-18.05-.4-.9-.96-1.29-1.96-1.27-3.44,.05-6.88,.03-10.31,.03-.76,0-.9,.27-.59,.93,.7,1.48,1.38,2.98,2.05,4.48,.72,1.6,1.39,3.23,2.17,4.81,.35,.72,.34,1.3,0,2-.76,1.59-1.43,3.21-2.14,4.82-.5,1.11-1,2.22-1.51,3.33-.16,.34-.34,.67-.79,.68-.44,0-.54-.36-.67-.67-.58-1.33-1.14-2.66-1.72-3.99-.68-1.59-1.37-3.18-2.06-4.77-.76-1.74-1.53-3.48-2.3-5.22-.8-1.82-1.63-3.62-2.41-5.45-.31-.73-.79-1.02-1.58-1-1.73,.04-3.47,.01-5.2,.01h0Zm99.4,16.77c0,3.07,0,6.13,0,9.2,0,2.16,0,4.32,0,6.48,0,.8,.2,1.02,.97,1.08,.14,.01,.28,0,.43,0,2.93,0,5.85,0,8.78,0,.48,0,.97,.02,1.45-.02,.69-.05,.91-.31,.89-.97-.02-1.14-.06-2.27-.06-3.41,0-6.36,0-12.72,0-19.08,0-.58,.11-1.12,.43-1.62,.83-1.25,1.89-2.26,3.16-3.05,1.46-.91,2.93-.99,4.4-.02,.98,.65,1.69,1.51,2.13,2.59,.35,.86,.45,1.75,.44,2.67-.04,3.49-.1,6.99-.13,10.48-.03,3.32-.02,6.65-.03,9.97,0,.51-.02,1.02-.02,1.53,0,.66,.19,.86,.85,.92,.11,.01,.23,0,.34,0,3.27,0,6.53,0,9.8-.01,.23,0,.46,0,.68-.03,.55-.09,.73-.29,.74-.85,0-.34-.03-.68-.03-1.02,0-7.41,.02-14.83,0-22.24,0-.99-.1-1.99-.24-2.97-.45-3.18-2.37-5.19-5.24-6.39-1.56-.65-3.19-.94-4.9-.97-2.13-.04-4.13,.4-5.98,1.41-1.97,1.07-3.62,2.53-4.9,4.4-.19,.28-.43,.54-.71,.73-.47,.31-.9,.12-1.03-.43-.06-.24-.03-.51-.04-.76-.02-.34,0-.69-.08-1.01-.48-1.86-2.13-3.26-4.08-3.32-2.36-.07-4.72-.03-7.07-.01-.8,0-1,.27-1,1.05,0,5.23,0,10.45,0,15.68h.02Zm56.47-1.3c.15,2.34,.24,4.72,.48,7.09,.18,1.81,.63,3.59,1.61,5.16,.43,.68,.98,1.36,1.63,1.82,1.46,1.04,3.48,.7,4.77-.75,.5-.56,.89-1.24,1.27-1.9,.86-1.5,1.31-3.13,1.49-4.84,.13-1.24,.35-2.48,.42-3.72,.09-1.47,.16-2.95,.09-4.41-.07-1.41-.37-2.81-.5-4.22-.19-2.07-.87-3.99-1.86-5.79-.44-.79-1.03-1.5-1.81-2-1.04-.67-2.16-.87-3.32-.35-.93,.42-1.65,1.12-2.15,2-.9,1.57-1.43,3.29-1.62,5.07-.24,2.26-.33,4.53-.49,6.85m24.17-5.42c0,7.44,0,14.88,0,22.32,0,.97-.16,1.16-1.13,1.16-3.32,.01-6.65,.01-9.97,0-.9,0-1.07-.2-1.07-1.13,0-.96,0-1.93-.02-2.89,0-.11,0-.23-.02-.34-.1-.51-.44-.69-.86-.4-.39,.27-.77,.6-1.05,.97-1.5,2.01-3.48,3.29-5.89,3.95-1.64,.45-3.27,.69-4.97,.39-2.57-.45-4.94-1.34-6.86-3.15-1.96-1.85-3.25-4.12-3.98-6.73-.98-3.5-1.13-7.07-.68-10.64,.27-2.21,.72-4.43,1.73-6.47,1.53-3.07,3.73-5.48,6.89-6.92,1.95-.89,4.02-1.14,6.15-1.09,2.49,.05,4.81,.74,7.04,1.8,.3,.14,.56,.38,.85,.57,.66,.44,1.16,.21,1.22-.59,.03-.37,0-.74,0-1.11,0-4.6,.01-9.2,.01-13.8,0-.34-.07-.68-.1-1.01-.05-.56,.12-.79,.68-.88,.39-.06,.79-.06,1.19-.06,2.13,0,4.26-.01,6.39-.01,.14,0,.28,0,.43,0,1.87-.07,3.04,.93,3.78,2.52,.18,.39,.22,.88,.23,1.32,.03,1.7,.02,3.41,.02,5.11,0,5.71,0,11.42,0,17.13h0Z"/>
</svg>