<?xml version="1.0" encoding="UTF-8"?>
<svg id="Layer_1" data-name="Layer 1" xmlns="http://www.w3.org/2000/svg" viewBox="0 0 428.44 62.17">
  <defs>
    <style>
      .cls-1 {
        fill: #337ab7;
      }
    </style>
  </defs>
  <path class="cls-1" d="M345.64,41.75c.38,0,.77,0,1.15,0,.27,0,.42-.15,.42-.42,0-.59,0-1.17,0-1.76,0-.3-.17-.46-.46-.46-.7,0-1.4,0-2.1-.01-.34,0-.48,.19-.48,.52,0,.57,0,1.13,0,1.69,0,.3,.15,.46,.46,.46,.34,0,.68,0,1.02,0h0Zm-1.48,14.26c0,.71,.03,.74,.71,.76,.52,.01,1.04,.01,1.56,0,.73-.02,.77-.06,.79-.77,0-.29,0-.59,0-.88,0-3.31,0-6.61,0-9.92,0-.32,0-.63,0-.95-.02-.63-.13-.75-.77-.77-.54-.02-1.09-.01-1.63,0-.52,.01-.62,.11-.66,.64-.02,.2,0,.41,0,.61v5.43c0,1.95,0,3.9,0,5.84m-6.67-4.9c0,1.61,0,3.22,0,4.83,0,.81,.01,.82,.85,.83,.41,0,.82,0,1.23,0,.99-.01,1-.01,1-1.04,0-5.22,0-10.43,0-15.65,0-.2,0-.41-.01-.61-.01-.24-.15-.38-.39-.38-.75,0-1.5,0-2.24,0-.27,0-.41,.17-.42,.44,0,.18,0,.36,0,.54,0,2.61,0,5.21,0,7.82,0,1.07,0,2.13,0,3.2m-3.59-10.27c0-.34,0-.68,0-1.02-.02-.67-.06-.71-.76-.73-.39-.01-.77,0-1.16,0-1.17,0-1.17,0-1.17,1.16,0,5.19,0,10.38,0,15.57,0,.11,0,.23,0,.34,.02,.52,.08,.6,.59,.61,.61,.02,1.23,.02,1.84,0,.59-.02,.64-.08,.66-.69,.01-.34,0-.68,0-1.02,0-2.38,0-4.76,0-7.14v-7.07m-50.36,7.07v7.68c0,.2,0,.41,0,.61,.03,.49,.08,.55,.56,.57,.52,.02,1.04,.01,1.56,0,1.02-.01,1.02-.01,1.02-1.01,0-5.23,0-10.46,0-15.7,0-.14,0-.27,0-.41-.03-.48-.09-.55-.57-.57-.66-.02-1.31-.02-1.97,0-.52,.01-.57,.07-.6,.6-.01,.18,0,.36,0,.54v7.68h0Zm23.48,8.18c0,.62,.05,.67,.65,.68,.5,.01,1,.01,1.5,0,1.05,0,1.05,0,1.05-1.04,0-2.86,0-5.71,0-8.57,0-.97,.05-1.02,1.05-1.03,.39,0,.77-.01,1.16-.01,.33,0,.51-.16,.51-.5,0-.48,.02-.95,0-1.43-.02-.53-.18-.68-.71-.71-.41-.02-.82,0-1.22-.01-.7-.01-.76-.08-.78-.8,0-.34,0-.68,0-1.02,0-.68,0-1.36,0-2.04,0-.27-.05-.52-.39-.52-.79,0-1.59-.01-2.38,0-.28,0-.4,.18-.41,.44,0,.18-.01,.36-.01,.54,0,.91,0,1.81,0,2.72,0,.58-.09,.66-.68,.67-.34,0-.68,0-1.02,0-.29,0-.49,.13-.5,.43-.02,.59-.02,1.18-.01,1.77,0,.27,.16,.42,.43,.43,.32,.01,.64,.02,.95,.03,.72,.02,.83,.12,.83,.83,0,1.5,0,2.99,0,4.49,0,1.54,0,3.08,0,4.63m105.09-9.18c-1.09-2.11-2.87-3.3-5.16-3.71-2.74-.49-5.06,.36-6.93,2.41-2.3,2.51-2.26,6.58,.06,9.06,1.59,1.7,3.53,2.54,5.88,2.48,1.33-.04,2.55-.37,3.67-1.07,1.09-.67,1.91-1.6,2.49-2.73,.28-.55,.16-.74-.46-.75-.52-.01-1.05,.03-1.56-.02-.73-.07-1.25,.18-1.77,.73-1.6,1.64-3.8,1.41-5.34,.12-1.29-1.08-1.66-2.5-1.45-4.1,.34-2.48,2.74-4.02,5.16-3.38,.82,.22,1.4,.71,1.91,1.34,.15,.18,.37,.42,.56,.43,1.04,.04,2.08,.02,3.28,.02-.15-.37-.23-.6-.34-.81m-150.17,8.81c0,.2,0,.41,.02,.61,.01,.27,.15,.42,.42,.43,.7,0,1.41,0,2.11,0,.27,0,.41-.16,.42-.43,0-.2,.01-.41,.01-.61,0-1.86-.01-3.72,.01-5.58,0-.61,.09-1.22,.18-1.82,.19-1.28,.97-2.01,2.18-2.44,.93-.33,2.45,.26,2.92,1.08,.58,1.01,.66,2.11,.67,3.22,.03,2.02,.02,4.03,.05,6.05,0,.46,.09,.53,.59,.54,.59,.02,1.18,.02,1.77,0,.68-.02,.73-.06,.73-.76,0-2.18,.01-4.35,0-6.53,0-.86-.05-1.71-.23-2.56-.7-3.41-5.1-4.82-7.72-3.16-.25,.16-.47,.35-.72,.52-.46,.33-.61,.27-.71-.27-.09-.48-.12-.52-.61-.53-.48-.01-.95-.02-1.43,0-.49,.02-.59,.12-.63,.61-.02,.2-.02,.41-.02,.61,0,1.81,0,3.63,0,5.44s0,3.72,0,5.58m-47.63,.53c0,.38,.2,.53,.55,.52,.5,0,1,.01,1.5,0,.72-.02,.76-.05,.76-.79,0-1.61,0-3.22,0-4.83,0-2.27,0-4.53,0-6.8,0-.67-.18-.85-.84-.87-.43-.01-.86,0-1.29,0-.86,0-.93,.07-.95,.92,0,.14,0,.27,0,.41,0,1.79,0,3.58,0,5.37,0,.92-.17,1.8-.52,2.65-.49,1.19-1.82,1.85-3.07,1.55-1.32-.32-2.12-1.21-2.3-2.62-.07-.6-.11-1.22-.12-1.83-.02-1.88,0-3.76-.01-5.64,0-.67-.12-.79-.79-.81-.5-.02-1-.01-1.49,0-.6,.01-.74,.15-.79,.77-.01,.14,0,.27,0,.41,0,2.06-.01,4.12,0,6.19,0,.9,.03,1.8,.28,2.69,.44,1.6,1.49,2.6,2.97,3.22,.88,.37,1.8,.4,2.74,.37,1.05-.03,1.94-.4,2.65-1.18,.14-.15,.33-.26,.61-.47,.06,.36,.12,.57,.13,.78m181.21,.5c.24,0,.37-.14,.38-.38,0-.18,.01-.36,.01-.54,0-2.18,0-4.35,0-6.53,0-.59-.05-1.18-.13-1.76-.55-4.21-5.49-5.61-8.23-3.52-.13,.1-.25,.19-.39,.28-.38,.23-.5,.18-.6-.25-.12-.54-.12-.55-.65-.56-.34-.01-.68,0-1.02,0-.96,.02-1.14,.2-1.14,1.16,0,3.69,0,7.39,0,11.08,0,.18,.01,.36,0,.54,0,.34,.16,.5,.49,.5,.68,0,1.36,.02,2.04,0,.45-.01,.5-.08,.52-.53,.01-.16,0-.32,0-.48,0-1.99,0-3.99,0-5.98,0-.8,.11-1.59,.44-2.32,.45-.99,1.73-1.81,2.74-1.69,1.12,.13,2.08,.61,2.46,2.09,.19,.74,.27,1.52,.29,2.28,.04,1.47,0,2.95,.02,4.42,0,.7,.06,1.39,.1,2.2,.93,0,1.79,0,2.65,0m-102.31-12.81c0-.36-.19-.47-.52-.47-.45,0-.91,0-1.36,0-.96,0-.97,0-.97,.99,0,3.81,0,7.62,0,11.43,0,.14,0,.27,0,.41,0,.3,.14,.47,.45,.47,.75,0,1.5,0,2.24,0,.27,0,.42-.15,.42-.42,0-.2,.01-.41,.01-.61,0-2.02,0-4.04,0-6.05,0-.41,.03-.82,.09-1.22,.17-1.16,.77-1.96,1.88-2.46,1.2-.54,2.89,.06,3.4,1.26,.32,.76,.52,1.54,.52,2.37,0,2.09,0,4.17,0,6.26,0,.89,0,.89,.92,.9,.5,0,1,0,1.5,0,.76-.01,.77-.03,.77-.76,0-2.11,.02-4.22-.01-6.32-.01-.83-.13-1.67-.25-2.5-.57-3.79-5.54-5.35-8.33-3.04-.17,.14-.34,.28-.66,.53-.06-.36-.12-.55-.12-.74m-42.19,1.81c1.5-.11,3.37,1.03,3.92,2.45,.23,.59,.43,1.22,.46,1.83,.02,.54-.19,1.11-.35,1.64-.7,2.24-3,2.97-4.49,2.71-2.24-.39-3.64-2.03-3.64-4.24,0-2.41,1.7-4.23,4.1-4.41m4.36,9.61c.02,.3,.05,.61,.06,.91,0,.25,.07,.47,.36,.48,.68,0,1.36,0,2.04-.01,.24,0,.36-.16,.37-.4,0-.2,.01-.41,.01-.61,0-2.7,0-5.39,0-8.09,0-1.11,0-2.22,0-3.33,0-.71-.11-.81-.84-.83-.43-.01-.86-.01-1.29,0-.59,.01-.63,.06-.66,.68-.01,.28-.05,.55-.08,.84-.16-.03-.24-.02-.29-.05-.15-.1-.3-.2-.43-.32-1.22-1.11-2.65-1.6-4.29-1.56-2.8,.08-5.26,1.97-6.11,4.35-.7,1.95-.65,3.93,.18,5.83,.77,1.76,2.1,3,3.96,3.58,2.2,.69,4.25,.29,6.12-1.04,.23-.17,.47-.33,.71-.49,.06,.02,.12,.05,.18,.07m-4.38-24.53c0-3.47-.02-6.94,.01-10.41,.02-2.14,1.04-3.8,3.29-4.32,.41-.1,.82-.21,1.31-.33,0-1.08,0-2.14,0-3.21,0-.22-.05-.45-.08-.68-.03-.31-.21-.44-.5-.42-1.18,.06-2.31,.25-3.14,1.22-.22,.26-.46,.5-.7,.74-.12,.11-.27,.19-.52,.37-.07-.61-.13-1.09-.2-1.63-1.36,0-2.67,0-3.98,.01-.12,0-.27,.2-.34,.34-.06,.13-.03,.31-.03,.47,0,6.1,0,12.2,0,18.3,0,.24,.04,.48,.07,.76h4.81v-1.21m167.3,18.22c-.14,0-.27,.01-.41,0-.42-.04-.52-.19-.37-.58,.23-.62,.55-1.19,1.06-1.64,2.19-1.97,5.59-1.23,6.54,1.48,.21,.6,.13,.74-.5,.75-1.09,0-2.17,0-3.26,0h0c-1.02,0-2.04,0-3.06,0m9.3,3.69c-.86,0-1.72,0-2.58,0-.29,0-.43,.19-.61,.37-.32,.31-.65,.65-1.04,.86-1.9,1.03-4.34,.38-5.5-1.45-.16-.25-.35-.61-.29-.86,.1-.37,.54-.23,.84-.23,2.88,0,5.76,0,8.64,0,.2,0,.41-.01,.61,0,.35,.01,.55-.18,.65-.49,.06-.19,.09-.4,.11-.6,.08-.96-.09-1.92-.43-2.79-1.41-3.53-4.84-5.23-8.72-4.24-1.24,.32-2.25,1.02-3.14,1.94-1.78,1.84-2.33,4.09-1.81,6.47,.84,3.85,4.59,6.06,8.55,5.3,1.72-.33,3.09-1.28,4.17-2.63,.36-.45,.73-.91,.83-1.55-.11-.04-.19-.09-.27-.1m-109.41-3.69c-.14,0-.27,0-.41,0-.46-.04-.59-.2-.4-.61,.18-.41,.38-.83,.66-1.18,1.86-2.27,5.22-1.93,6.56,.27,.19,.31,.32,.65,.42,1,.11,.37,0,.49-.38,.53-.13,.01-.27,0-.41,0h-3.06c-1,0-1.99,0-2.99,0m6.55,3.7c-.14,0-.29,.19-.42,.3-.33,.28-.61,.62-.98,.83-2,1.17-4.65,.43-5.78-1.6-.07-.12-.13-.24-.16-.37-.07-.27,.03-.45,.31-.48,.22-.02,.45-.02,.68-.02,2.99,0,5.99,0,8.98,0,.72,0,.86-.09,.9-.79,.03-.65,.05-1.33-.09-1.95-.78-3.53-3.92-6.35-8.51-5.5-3.35,.62-6.09,3.9-5.62,7.84,.25,2.14,1.36,3.7,3.06,4.92,1.33,.95,2.83,1.27,4.44,1.22,2.49-.09,4.34-1.28,5.72-3.28,.2-.29,.32-.63,.56-1.11-1.16,0-2.12-.01-3.09,.01m46.24-3.7c-.64,0-.76-.19-.51-.8,.91-2.18,3.99-3.63,6.53-1.53,.55,.46,.84,1.12,1.07,1.79,.12,.35,0,.51-.37,.53-.43,.02-.86,0-1.29,0-.72,0-1.45,0-2.17,0h0c-1.09,0-2.17,0-3.26,0m9.55,3.69c-.86,0-1.72,0-2.58-.01-.29,0-.45,.17-.61,.37-.44,.54-1.01,.9-1.67,1.12-1.85,.61-3.79-.05-4.9-1.68-.19-.27-.49-.56-.31-.91,.17-.35,.57-.21,.87-.21,3.01,0,6.03,0,9.05,0,.82,0,.92-.1,.99-.93,.13-1.38-.17-2.69-.88-3.85-1.82-2.99-4.37-4-7.63-3.49-3.5,.54-5.97,3.94-5.74,6.91,.02,.25,0,.5,0,.75-.01,.76,.17,1.49,.51,2.16,1.3,2.62,3.41,4.03,6.35,4.17,2.25,.1,4.12-.73,5.63-2.36,.51-.55,.94-1.15,1.2-1.92-.16-.06-.22-.11-.28-.11m-180.16,4.03c.97,0,.98-.01,.98-.98,0-5.26,0-10.52,0-15.78,0-.16,0-.32,0-.48,0-.27-.13-.43-.41-.43-.79,0-1.59,0-2.38,0-.25,0-.37,.16-.38,.39-.01,.18-.01,.36-.01,.54,0,1.81,0,3.63,0,5.44,0,.82-.03,.86-.83,.86-1.61,0-3.22,0-4.83,0-.38,0-.77,.01-1.16,0-.59-.02-.7-.14-.72-.74,0-.18,0-.36,0-.54,0-1.75,0-3.49,0-5.24,0-.64-.07-.7-.7-.72-.5-.01-1,0-1.5,0-.89,.01-.89,.01-.89,.93,0,5.26,0,10.52,0,15.78,0,.16,0,.32,0,.48-.01,.35,.17,.49,.5,.49,.5,0,1,.02,1.5,.01,.35,0,.71-.04,1.07-.06,.01-.19,.03-.3,.03-.41,0-2.06-.01-4.13-.01-6.19,0-.82,.14-.98,.93-.98,1.9,0,3.81,0,5.71,0,.81,0,.89,.1,.9,.91,0,1.95,0,3.9,0,5.85,0,.26,.04,.53,.07,.88,.76,0,1.45,0,2.15,0m40.38-.01c.51-.01,.56-.07,.56-.62,0-2.65,.05-5.3-.01-7.96-.03-1.44-.48-2.79-1.63-3.76-1.7-1.43-3.67-1.65-5.76-1.12-.88,.22-1.59,.74-2.21,1.4-.37,.39-.44,.38-.82,0-.08-.08-.16-.16-.23-.25-.77-.8-1.71-1.28-2.81-1.38-1.45-.13-2.81,.07-3.88,1.2-.08,.08-.23,.1-.4,.17-.04-.23-.08-.4-.09-.57-.02-.28-.17-.41-.44-.41-.68,0-1.36,0-2.04,0-.28,0-.41,.16-.41,.43,0,.11,0,.23,0,.34,0,3.92,0,7.84,0,11.76,0,.22,.03,.44,.06,.74,.78,0,1.5,.01,2.22,0,.9,0,.9,0,.9-.91,0-2.27,0-4.53,0-6.8,0-.72,.18-1.39,.52-2.02,.26-.48,.65-.8,1.13-1.04,1.34-.67,3.19,.09,3.64,1.5,.19,.62,.3,1.28,.32,1.93,.04,1.47,.01,2.95,.01,4.42,0,.79,0,1.59,.01,2.38,0,.44,.09,.51,.52,.53,.54,.02,1.09,.01,1.63,.01,.97,0,.97,0,.97-.99,0-2.02,0-4.04,0-6.05,0-.77,.05-1.54,.37-2.27,.45-1.02,1.68-1.8,2.72-1.71,1.26,.1,2.07,.78,2.4,2.05,.1,.37,.13,.76,.13,1.14,.01,2.31,0,4.62,0,6.94v.88c.95,0,1.78,.01,2.61,0m117.28-2.37c-1.31,.23-2.47-.24-3.44-1.11-1.53-1.37-2.01-4.06-.45-5.92,2.09-2.49,5.46-1.89,6.87,.56,.39,.68,.6,1.41,.56,2.14-.02,2.26-1.38,3.94-3.54,4.32m2.77-9.98c-.64-.67-1.44-1.04-2.31-1.21-3.65-.73-7.28,1.53-8.2,5.13-.17,.67-.15,1.39-.16,2.09-.03,1.19,.32,2.29,.96,3.28,1.52,2.31,3.63,3.53,6.45,3.43,1.48-.05,2.73-.58,3.73-1.68,.11-.12,.27-.2,.43-.32,.23,.42,.04,.74-.03,1.05-.5,2.33-2.95,3.56-4.9,3.24-.9-.15-1.68-.51-2.4-1.05-.21-.16-.47-.35-.71-.35-.97-.03-1.95,0-2.92,.01-.05,0-.11,.07-.23,.15,.09,.2,.16,.4,.27,.59,.65,1.07,1.52,1.92,2.64,2.48,.5,.25,1.03,.51,1.58,.6,1.29,.23,2.59,.28,3.91,.08,1.21-.18,2.27-.66,3.19-1.41,1.72-1.41,2.54-3.26,2.54-5.47,0-3.51,0-7.03,0-10.54,0-.16,0-.32,0-.48-.03-.49-.09-.55-.56-.56-.57-.02-1.13-.01-1.7,0-.52,.01-.57,.07-.6,.6-.02,.3-.05,.6-.08,.92-.49-.03-.67-.35-.9-.58m-68.75-27.38c0-.07,0-.14-.01-.2-.31-1.77-1.22-3.18-2.71-4.15-2.43-1.59-5-1.63-7.57-.41-1.54,.73-2.76,1.88-3.21,3.59-.21,.79-.15,1.66-.17,2.49-.03,.93,.35,1.73,.9,2.44,.78,1,1.77,1.75,2.98,2.18,.55,.2,1.12,.37,1.67,.58,.95,.36,1.91,.7,2.84,1.12,1.16,.52,1.3,2.12,.49,3.01-1.1,1.22-3.41,.98-4.23-.46-.12-.22-.24-.44-.31-.68-.15-.46-.44-.65-.91-.65-1.2,0-2.4,0-3.6,0-.58,0-.68,.11-.6,.7,.23,1.7,.91,3.19,2.28,4.26,2.28,1.78,4.87,2.19,7.64,1.5,2.91-.73,5.19-3.29,5.13-6.68-.04-2.18-1.02-3.72-2.91-4.69-.88-.45-1.84-.75-2.77-1.1-.95-.35-1.95-.61-2.87-1.03-1.18-.54-1.29-1.89-.29-2.72,1.09-.91,2.64-.61,3.26,.68,.2,.42,.45,.56,.89,.55,1.2-.02,2.4,0,3.6-.01,.13,0,.26-.03,.43-.06,.03-.14,.06-.2,.06-.27m-19.24,10.15c-1.33-1.58-2.66-3.16-3.97-4.74-.41-.5-.4-.62-.04-1.13,.09-.13,.19-.25,.29-.38,2.1-2.71,4.19-5.41,6.29-8.12,.14-.18,.36-.34,.34-.65-1.71,0-3.39,0-5.06,0-.36,0-.51,.25-.68,.49-.82,1.14-1.64,2.28-2.46,3.43-1.2,1.68-2.39,3.36-3.59,5.04-.11,.16-.23,.41-.46,.27-.1-.06-.13-.31-.13-.47,0-3.81,.02-7.62,0-11.43,0-1.13,.12-2.26-.13-3.38-.13-.6-.06-.62-.67-.63-1.07-.01-2.13-.01-3.2,0-.73,0-.79,.09-.82,.84,0,.07,0,.14,0,.2,0,8.25,0,16.51,0,24.76,0,.24,.04,.48,.07,.8,1.59,0,3.11,.06,4.65-.03,.04-.4,.09-.74,.09-1.07,0-2.43,0-4.85,0-7.28,0-.3-.22-.7,.18-.84,.34-.12,.47,.29,.64,.51,2.11,2.75,4.22,5.51,6.31,8.28,.25,.33,.51,.47,.91,.46,1.45-.01,2.9,0,4.35,0h1.23c-1.45-1.71-2.79-3.3-4.13-4.9m-155.04,3.86c0-1.16,0-2.31,0-3.47,0-.41,0-.82-.08-1.22-.71-3.69-4.23-6.13-7.83-5.49-2.36,.42-4.04,1.73-5.09,3.86-.46,.93-.64,1.93-.65,2.96-.01,2.2,0,4.4,0,6.59,0,2.02,.67,3.74,2.15,5.17,1.95,1.88,4.24,2.28,6.73,1.6,2.83-.77,4.84-3.62,4.79-6.4-.03-1.2,0-2.4,0-3.6h0Zm113.58-15.4c3.21-.05,6.19,2.36,6.46,6.47-.25,3.56-2.6,6.27-6.25,6.33-3.57,.06-6.39-2.74-6.42-6.33,.02-4.2,3.47-6.44,6.21-6.48m11.12,4.71c-.36-2.32-1.44-4.26-3.16-5.86-2.98-2.77-6.51-3.53-10.4-2.76-2.28,.45-4.21,1.6-5.8,3.32-2.57,2.78-3.45,6.05-2.45,9.68,1.02,3.67,3.52,6.05,7.07,7.33,2.07,.74,4.21,.78,6.36,.33,2.56-.54,4.68-1.81,6.32-3.84,1.51-1.87,2.19-4.04,2.2-6.44-.04-.59-.05-1.18-.14-1.76m-37.73-5.24c.32,1.2,.64,2.41,.95,3.61,.72,2.74,1.43,5.48,2.16,8.22,.4,1.53,.81,3.06,1.24,4.59,.14,.52,.17,.53,.71,.53,.91,.01,1.81,0,2.72,0,.63,0,.63,0,.83-.64,.89-2.9,1.79-5.8,2.68-8.7,1.59-5.18,3.18-10.35,4.77-15.53,.12-.39,.25-.78,.34-1.17,.09-.38-.01-.54-.38-.55-1.36-.02-2.72,0-4.08,0-.34,0-.53,.2-.61,.53-.1,.4-.22,.78-.33,1.18-1.35,5.08-2.7,10.16-4.05,15.24-.1,.36-.22,.71-.33,1.05-.39-.05-.39-.32-.44-.52-.72-2.69-1.44-5.38-2.16-8.08-.77-2.89-1.52-5.78-2.29-8.67-.16-.61-.3-.72-.96-.74-.7-.01-1.4-.01-2.11,0-.76,0-.84,.07-1.04,.8-.54,2.01-1.08,4.03-1.61,6.04-.97,3.66-1.93,7.31-2.9,10.97-.03,.11-.12,.2-.27,.43-.11-.3-.19-.47-.24-.66-.46-1.68-.9-3.37-1.35-5.05-1.05-3.92-2.09-7.84-3.14-11.75-.18-.67-.29-.77-.99-.78-1.18-.01-2.36,0-3.54,0-.2,0-.39,.05-.68,.08,.08,.39,.13,.72,.22,1.03,.87,2.84,1.74,5.68,2.61,8.51,.87,2.82,1.74,5.63,2.6,8.45,.81,2.64,1.61,5.29,2.42,7.93,.18,.59,.19,.6,.8,.61,.86,0,1.72,0,2.59,0,.73,0,.75-.01,.93-.7,.87-3.28,1.73-6.57,2.6-9.86,.57-2.15,1.13-4.29,1.71-6.44,.05-.2,.02-.47,.41-.55,.07,.19,.16,.38,.21,.59M41.43,27.53c0-.79-.14-1.54-.42-2.25-.92-2.3-2.56-3.8-5.02-4.33-2.28-.49-4.26,.09-5.98,1.62-1.5,1.34-2.25,3.03-2.25,5.05,0,4.81,0,9.61,0,14.42,0,4.42,0,8.84,0,13.26,0,2.51,1.11,4.43,3.16,5.83,.77,.53,1.64,.69,2.53,.89,1.26,.28,2.47,.07,3.61-.32,2.61-.89,4.37-3.52,4.37-6.37,0-4.62,0-9.25,0-13.87s0-9.29,0-13.94M13.65,6.78c0-2.34-1.05-4.17-2.9-5.58-.84-.64-1.8-.89-2.83-1.07-1.41-.25-2.75-.05-4.05,.49-1.12,.47-1.93,1.32-2.67,2.26C.26,4.09,.06,5.53,.03,6.99c-.05,2.45-.01,4.9-.01,7.35C.01,27.94,0,41.54,.03,55.15c0,.85,.13,1.72,.37,2.54,.4,1.37,1.31,2.41,2.45,3.26,.86,.64,1.83,.93,2.88,1.1,1.53,.25,3.01,.07,4.34-.68,2.37-1.33,3.57-3.42,3.57-6.14,.01-8.03,0-16.05,0-24.08,0-8.12,.01-16.23,0-24.35M152.8,55.63c0,1.97,.85,3.54,2.26,4.84,.92,.84,2,1.33,3.27,1.53,1.23,.19,2.43,.17,3.56-.22,2.24-.78,3.73-2.38,4.3-4.71,.21-.87,.29-1.79,.29-2.69,.02-15.46,.01-30.93,0-46.39,0-.7-.05-1.4-.14-2.1-.26-2.06-1.3-3.64-3-4.8-.77-.52-1.62-.77-2.52-.95-1.34-.26-2.66-.16-3.86,.37-2.69,1.19-4.15,3.27-4.15,6.28,0,8.07,0,16.14,0,24.22s0,16.42,0,24.63m-27.78-24.57c0,8.14,0,16.28,0,24.42,0,2.65,1.27,4.55,3.52,5.88,.68,.41,1.44,.49,2.19,.66,1.23,.29,2.43,.1,3.54-.31,2.13-.78,3.54-2.35,4.12-4.56,.21-.8,.3-1.66,.3-2.49,.02-7.14,.01-14.29,.01-21.43,0-8.64,0-17.28,0-25.92,0-1.19-.17-2.36-.71-3.43-1.01-1.98-2.51-3.33-4.8-3.72-.96-.16-1.87-.14-2.82,0-.95,.15-1.79,.51-2.54,1.07-1.84,1.38-2.82,3.18-2.81,5.52,.02,8.09,0,16.19,0,24.29h0ZM96.99,7.71c0-.41,.01-.82-.01-1.22-.12-1.95-.92-3.57-2.38-4.87-.94-.84-2.04-1.28-3.29-1.49-1.35-.23-2.66-.12-3.86,.42-2.68,1.21-4.13,3.36-4.14,6.32-.02,16.19-.01,32.39,0,48.58,0,2.11,.9,3.81,2.46,5.17,.93,.81,2.02,1.2,3.25,1.42,1.19,.21,2.34,.1,3.41-.25,2.24-.74,3.65-2.36,4.31-4.63,.24-.82,.25-1.65,.25-2.49,0-7.87,0-15.74,0-23.61,0-7.78,0-15.56,0-23.34M55.53,31.05c0-8.03,0-16.06,0-24.08,0-2.67,1.17-4.67,3.39-6.05,1.39-.86,2.96-1.09,4.58-.77,.53,.1,1.1,.15,1.58,.38,2.62,1.26,4.12,3.33,4.12,6.27,.03,16.12,.01,32.25,.01,48.37,0,2.52-1.02,4.52-3.12,5.93-.68,.46-1.45,.68-2.25,.88-1.21,.3-2.35,.08-3.5-.11-.93-.15-1.72-.7-2.42-1.32-1.56-1.38-2.39-3.1-2.39-5.21,0-8.1,0-16.19,0-24.29h0Z"/>
</svg>