<?xml version="1.0" encoding="UTF-8"?>
<svg id="Layer_1" data-name="Layer 1" xmlns="http://www.w3.org/2000/svg" viewBox="0 0 145.2 65.6">
  <defs>
    <style>
      .cls-1 {
        fill: #23004b;
      }
    </style>
  </defs>
  <path class="cls-1" d="M18.83,35.36h10.89l-11.49,17.56H7.3l11.52-17.56ZM0,64.16H34.03v-8.42H5.5L0,64.16Zm21.41-31.6H3.1v-8.42H37.03l-5.49,8.42h-10.14ZM98,12.47c0-3.36,2.72-6.09,6.09-6.09s6.09,2.73,6.09,6.09-2.73,6.09-6.09,6.09h0c-3.32,.04-6.05-2.62-6.09-5.94,0-.05,0-.1,0-.15m1.42,13.22h9.26v39.87h-9.26V25.7Zm-15.59,39.9h9.17V0h-9.17V65.6Zm-38.3-24.62c1.12-5.9,5.34-9.28,11.43-9.28,6.56,0,9.84,3.93,10.68,9.28h-22.12Zm.02,6.57h31.69c.66-13.78-6.94-23.72-20.35-23.72-11.81,0-21,8.81-21,20.53s8.72,20.53,22.22,20.53c7.88,0,12.93-2.72,16.59-6.38l-5.53-5.81c-3.03,2.8-7.04,4.31-11.16,4.21-7.22,0-11.34-3.66-12.47-9.37m86.73-7.33c-6.18-1.59-8.62-2.25-8.62-5.25,0-2.34,1.96-3.65,5.52-3.65,3.15,0,6.13,1.41,8.15,3.84l5.52-5.42c-3.48-3.86-8.47-6.01-13.67-5.9-7.77,0-14.05,3.74-14.05,11.61s5.81,10.49,11.61,12.08c6.65,1.87,9.55,2.34,9.55,5.53,0,2.62-2.15,4.21-6.93,4.21-4.21,0-7.71-1.41-10.13-4.45l-5.7,5.53c3.04,3.54,8.58,6.51,16.4,6.51,11.15,0,15.27-5.53,15.27-12.27,0-8.34-6.74-10.77-12.92-12.36"/>
</svg>