<svg id="Layer_1" data-name="Layer 1" xmlns="http://www.w3.org/2000/svg" viewBox="0 0 360.26 88.07"><defs><style>.cls-1{fill:#fff;}.cls-2{fill:#e42b26;}.cls-3{fill:#1c2156;}.cls-4{fill:#23a6de;}.cls-5{fill:#abcae9;}</style></defs><title>Bain Capital Ventures logo</title><polygon class="cls-1" points="0 38.6 19.3 28.95 0 19.3 0 38.6"/><polygon class="cls-2" points="0 38.6 0 57.9 38.6 38.6 19.3 28.95 0 38.6"/><polygon class="cls-3" points="0 57.9 57.9 57.9 57.9 48.25 38.6 38.6 0 57.9"/><polygon class="cls-4" points="0 0 0 19.3 19.3 28.95 38.6 19.3 0 0"/><polygon class="cls-3" points="0 0 38.6 19.3 57.9 9.65 57.9 0 0 0"/><polygon class="cls-5" points="38.6 19.3 19.3 28.95 38.6 38.6 57.9 48.25 57.9 28.95 57.9 9.65 38.6 19.3"/><path class="cls-3" d="M354.74,51.94a44.33,44.33,0,0,0-4.9.31c-3,.47-4.65,2-4.65,4.65,0,2.3,1.51,3.55,3.76,3.55,3.08,0,5.79-2.09,5.79-6.16V51.94Zm-7.88,13.78c-5.53,0-9-3.45-9-8.71,0-4.8,3.08-7.73,8.19-8.93a41.35,41.35,0,0,1,8.71-.73c0-4.12-1.67-5.52-5.95-5.52a19.22,19.22,0,0,0-7.93,1.88V38a22.81,22.81,0,0,1,8.87-1.72c9,0,12.25,4.07,12.25,11.74V59.36h3.55v5.73h-10L355,62.23h-0.11a10.18,10.18,0,0,1-8,3.5M256.54,51.94a44.24,44.24,0,0,0-4.89.31c-3,.47-4.65,2-4.65,4.65,0,2.3,1.51,3.55,3.75,3.55,3.08,0,5.79-2.09,5.79-6.16V51.94Zm-7.87,13.78c-5.53,0-9-3.45-9-8.71,0-4.8,3.08-7.73,8.19-8.93a41.35,41.35,0,0,1,8.71-.73c0-4.12-1.67-5.52-5.94-5.52a19.23,19.23,0,0,0-7.93,1.88V38a22.84,22.84,0,0,1,8.87-1.72c9,0,12.26,4.07,12.26,11.74V59.36h3.54v5.73h-10l-0.57-2.86h-0.1a10.21,10.21,0,0,1-8,3.5M145.48,51.94a44.58,44.58,0,0,0-4.91.31c-3,.47-4.64,2-4.64,4.65,0,2.3,1.52,3.55,3.76,3.55,3.08,0,5.79-2.09,5.79-6.16V51.94ZM137.6,65.73c-5.53,0-9-3.45-9-8.71,0-4.8,3.08-7.73,8.19-8.93a41.32,41.32,0,0,1,8.71-.73c0-4.12-1.66-5.52-5.95-5.52a19.19,19.19,0,0,0-7.93,1.88V38a22.82,22.82,0,0,1,8.87-1.72c9,0,12.26,4.07,12.26,11.74V59.36h3.55v5.73h-10l-0.58-2.86h-0.1a10.2,10.2,0,0,1-8,3.5M292.12,50.9c0-5.26-2.6-8.76-6.62-8.76s-6.57,3.54-6.57,8.71,2.55,8.81,6.42,8.81c4,0,6.78-3.55,6.78-8.77m7.46,0c0,8.77-5,14.83-12.26,14.83-4.33,0-6.89-1.73-8.19-3.5H279V74.09l-7.3,3V42.5H268V36.77h10.43l0.47,3.7H279c0.94-1.46,3.13-4.23,8.29-4.23,7.56,0,12.26,5.79,12.26,14.66M193,36.24a11,11,0,0,0-9.13,4.23h-0.11l-0.47-3.7H172.4V42.5h4.07V65.09h7.36V52c0-7,3.7-9.59,6.88-9.59,3,0,4.38,1.93,4.38,6.26V65.09h7.3V47c0-7.09-3.23-10.75-9.43-10.75M226.39,59c-7.51,0-11.94-5.06-11.94-13.2,0-7.93,4.43-13.3,11.31-13.3a21.24,21.24,0,0,1,4.95.57v8l6.53-2.71V28.94a21.57,21.57,0,0,0-11.16-2.81c-11.53,0-19.4,7.09-19.4,19.77,0,12,7,19.83,19.4,19.83a24,24,0,0,0,11.29-2.83l-1.61-6.15A20.26,20.26,0,0,1,226.39,59m150.36,0.37v-35l-7.35,3V65.09H380.3V59.36h-3.55ZM118.56,53.62c0-3.65-2.66-5.64-7.25-5.64h-7V59.31h7.1c5.11,0,7.2-2.3,7.2-5.69M104.27,42.3h5.95c4.23,0,6.26-2,6.26-4.85,0-3.29-2-5-5.84-5h-6.37V42.3ZM126.33,54c0,7.35-5.79,11.05-14.5,11.05H96.7V32.49H92.11V26.75h18.47c5,0,7.52.68,9.5,1.93a8.54,8.54,0,0,1,4,7.56c0,4-2.5,7.1-6.57,8.19v0.11c5.48,0.94,8.82,4.54,8.82,9.5M301.67,42.5h4V65.09H313V36.77H301.67V42.5Zm4-10.64H313V24.93h-7.36v6.94ZM157,42.5h4V65.09h7.36V36.77H157V42.5Zm4-10.64h7.36V24.93H161v6.94Zm167.37,4.9h7.46V42.5h-7.46V55c0,3.13.68,5,3.7,5a19.79,19.79,0,0,0,3.34-.47v5.48a26,26,0,0,1-5.74.79c-5.74,0-8.61-2.77-8.61-8.87V42.5h-4V36.77h4V31.91l7.31-3v7.88Z" transform="translate(-20.04 -16.96)"/><polygon class="cls-3" points="88.2 69.23 83.59 83.84 79.03 69.23 75.14 69.23 81.42 87.78 85.52 87.78 91.8 69.23 88.2 69.23"/><polygon class="cls-3" points="94.81 69.23 94.81 87.78 107 87.78 107 84.8 98.49 84.8 98.49 79.54 106.15 79.54 106.15 76.62 98.49 76.62 98.49 72.12 106.73 72.12 106.73 69.23 94.81 69.23"/><polygon class="cls-3" points="122.84 69.23 122.84 82 114.93 69.23 110.98 69.23 110.98 87.78 114.46 87.78 114.46 74.34 122.78 87.78 126.32 87.78 126.32 69.23 122.84 69.23"/><polygon class="cls-3" points="129.39 69.23 129.39 72.12 134.71 72.12 134.71 87.78 138.37 87.78 138.37 72.12 143.65 72.12 143.65 69.23 129.39 69.23"/><path class="cls-3" d="M177.73,86.19h3.68V97.38c0,2.49-.38,4.18-1.63,5.58s-3,2.08-5.76,2.08-4.53-.67-5.76-2.08-1.66-3.07-1.66-5.55V86.19h3.68V97.59c0,1.61.18,2.34,0.76,3a4.34,4.34,0,0,0,5.93,0c0.59-.7.76-1.43,0.76-3V86.19Z" transform="translate(-20.04 -16.96)"/><path class="cls-3" d="M194.55,89.61a3.91,3.91,0,0,0-2.37-.62h-2.6v5.79h2.57a4,4,0,0,0,2.4-.62,2.89,2.89,0,0,0,0-4.55m1.66,15.13-4.33-7.21h-2.31v7.21H185.9V86.19h6.69a7.65,7.65,0,0,1,4.67,1.25,5.48,5.48,0,0,1-1.75,9.49l4.91,7.8h-4.21Z" transform="translate(-20.04 -16.96)"/><polygon class="cls-3" points="183.63 69.23 183.63 87.78 195.81 87.78 195.81 84.8 187.31 84.8 187.31 79.54 194.97 79.54 194.97 76.62 187.31 76.62 187.31 72.12 195.55 72.12 195.55 69.23 183.63 69.23"/><path class="cls-3" d="M225,105a9.89,9.89,0,0,1-6.86-2.77l1.84-2.6a8.09,8.09,0,0,0,5,2.28c2.19,0,3.3-.87,3.3-2.28s-1.37-1.92-2.11-2.22-3.09-1.14-3.59-1.34A5,5,0,0,1,219,91.25c0-2.4,1.69-5.35,6.66-5.35a9.22,9.22,0,0,1,6.23,2.45l-1.58,2.52a7.57,7.57,0,0,0-4.76-2c-1.9,0-3,.7-3,2.08s1.35,1.87,2,2.16,3,1.11,3.53,1.32c2.77,1,3.8,2.8,3.8,4.87,0,2.66-1.9,5.79-7,5.79" transform="translate(-20.04 -16.96)"/></svg>