<svg id="Layer_1" data-name="Layer 1" xmlns="http://www.w3.org/2000/svg" viewBox="0 0 358.38 91.34"><defs><style>.cls-1{fill:#fff;}.cls-2{fill:#e42823;}.cls-3{fill:#1c2156;}.cls-4{fill:#1ca5de;}.cls-5{fill:#abcae9;}</style></defs><title>bain-capital-pe-logo</title><polygon class="cls-1" points="0 38.41 19.2 28.8 0 19.21 0 38.41"/><polygon class="cls-2" points="0 38.41 0 57.6 38.4 38.41 19.2 28.8 0 38.41"/><polygon class="cls-3" points="0 57.6 57.6 57.6 57.6 48 38.4 38.41 0 57.6"/><polygon class="cls-4" points="0 0 0 19.21 19.2 28.8 38.4 19.21 0 0"/><polygon class="cls-3" points="0 0 38.4 19.21 57.6 9.6 57.6 0 0 0"/><polygon class="cls-5" points="38.4 19.21 19.2 28.8 38.4 38.41 57.6 48 57.6 28.8 57.6 9.6 38.4 19.21"/><path class="cls-3" d="M332.95,34.8a43.55,43.55,0,0,0-4.87.32c-3,.47-4.63,2-4.63,4.62,0,2.28,1.51,3.52,3.74,3.52,3.06,0,5.76-2.07,5.76-6.12Zm-7.83,13.7c-5.51,0-9-3.43-9-8.67,0-4.77,3.06-7.68,8.15-8.87a40.86,40.86,0,0,1,8.66-.73c0-4.1-1.66-5.5-5.91-5.5a19.24,19.24,0,0,0-7.89,1.87V20.9A22.62,22.62,0,0,1,328,19.19c8.92,0,12.19,4,12.19,11.68V42.17h3.52v5.71h-10L333.16,45h-.11a10.13,10.13,0,0,1-7.94,3.48M235.27,34.8a43.64,43.64,0,0,0-4.88.32c-3,.47-4.62,2-4.62,4.62,0,2.28,1.5,3.52,3.73,3.52,3.07,0,5.76-2.07,5.76-6.12Zm-7.83,13.7c-5.51,0-9-3.43-9-8.67,0-4.77,3.06-7.68,8.15-8.87a40.83,40.83,0,0,1,8.67-.73c0-4.1-1.66-5.5-5.91-5.5a19.21,19.21,0,0,0-7.89,1.87V20.9a22.63,22.63,0,0,1,8.82-1.71c8.93,0,12.2,4,12.2,11.68V42.17H246v5.71h-10L235.47,45h-.1a10.15,10.15,0,0,1-7.94,3.48M124.78,34.8a43.61,43.61,0,0,0-4.88.32c-3,.47-4.62,2-4.62,4.62,0,2.28,1.51,3.52,3.74,3.52,3.07,0,5.76-2.07,5.76-6.12Zm-7.84,13.7c-5.5,0-9-3.43-9-8.67,0-4.77,3.06-7.68,8.15-8.87a40.86,40.86,0,0,1,8.67-.73c0-4.1-1.66-5.5-5.91-5.5A19.21,19.21,0,0,0,111,26.61V20.9a22.61,22.61,0,0,1,8.82-1.71c8.92,0,12.19,4,12.19,11.68V42.17h3.53v5.71h-10L125,45h-.1a10.14,10.14,0,0,1-7.94,3.48M270.66,33.77c0-5.24-2.59-8.72-6.59-8.72s-6.54,3.53-6.54,8.66c0,5.3,2.54,8.77,6.38,8.77,4,0,6.75-3.52,6.75-8.72m7.42,0c0,8.72-5,14.74-12.19,14.74-4.31,0-6.86-1.72-8.15-3.48h-.1v11.8l-7.26,3V25.41h-3.69V19.7h10.38l.47,3.69h.1c.93-1.46,3.11-4.2,8.25-4.2,7.52,0,12.19,5.76,12.19,14.58M172,19.19a10.91,10.91,0,0,0-9.08,4.2h-.1l-.46-3.69h-10.8v5.71h4V47.88h7.32v-13c0-7,3.69-9.55,6.85-9.55,3,0,4.36,1.93,4.36,6.22V47.88h7.26v-18c0-7.05-3.21-10.69-9.39-10.69m33.27,22.63c-7.47,0-11.89-5-11.89-13.13,0-7.89,4.41-13.23,11.27-13.23a21.39,21.39,0,0,1,4.92.57V24l6.49-2.7V11.92A21.39,21.39,0,0,0,205,9.12c-11.47,0-19.32,7.06-19.32,19.67,0,12,7,19.72,19.32,19.72A23.88,23.88,0,0,0,216.2,45.7l-1.61-6.12a20,20,0,0,1-9.31,2.24m149.57.36V7.4l-7.33,3V47.88h10.85V42.17ZM98,36.47c0-3.64-2.65-5.61-7.21-5.61h-7V42.12h7.06c5.09,0,7.16-2.28,7.16-5.65M83.78,25.2H89.7c4.21,0,6.23-2,6.23-4.83,0-3.27-2-4.93-5.81-4.93H83.78Zm22,11.68c0,7.32-5.76,11-14.42,11H76.26V15.45H71.69V9.74H90.06c4.93,0,7.47.67,9.44,1.92a8.49,8.49,0,0,1,4,7.52c0,4-2.49,7.06-6.53,8.14v.11c5.45.93,8.77,4.51,8.77,9.44M280.15,25.41h4V47.88h7.32V19.7H280.15Zm4-10.58h7.32V7.93h-7.32ZM136.2,25.41h4V47.88h7.32V19.7H136.2Zm4-10.58h7.32V7.93h-7.32Zm166.5,4.88h7.42v5.71h-7.42v12.4c0,3.11.67,4.93,3.69,4.93a19.24,19.24,0,0,0,3.32-.47v5.45a25.47,25.47,0,0,1-5.7.78c-5.71,0-8.57-2.75-8.57-8.82V25.41h-4V19.7h4V14.87l7.27-3Z"/><path class="cls-3" d="M84.6,72.32A4,4,0,0,0,82,71.65h-2v6.4h2a4.09,4.09,0,0,0,2.68-.64,2.9,2.9,0,0,0,1.13-2.56,2.84,2.84,0,0,0-1.13-2.53m2.82,7.15a8.41,8.41,0,0,1-4.88,1.37H79.92v6.49H76.26V68.86h6.28a8,8,0,0,1,4.88,1.39,5.38,5.38,0,0,1,2,4.6,5.39,5.39,0,0,1-2,4.62"/><path class="cls-3" d="M101.3,72.27a3.89,3.89,0,0,0-2.36-.61H96.36v5.76h2.56a3.94,3.94,0,0,0,2.39-.61,2.88,2.88,0,0,0,0-4.53M103,87.33l-4.3-7.18h-2.3v7.18H92.69V68.87h6.66A7.63,7.63,0,0,1,104,70.11a5.46,5.46,0,0,1-1.75,9.45l4.89,7.76Z"/><polygon class="cls-3" points="110.9 87.33 110.9 68.86 114.57 68.86 114.57 78.1 114.57 87.33 110.9 87.33"/><polygon class="cls-3" points="128.16 87.33 124.08 87.33 117.83 68.86 121.7 68.86 126.23 83.4 130.83 68.86 134.41 68.86 128.16 87.33"/><path class="cls-3" d="M142.58,72.27l-2.73,8.14h5.44Zm4.95,15.06-1.34-4H139l-1.34,4H134l6.49-18.46h4.37l6.54,18.46Z"/><polygon class="cls-3" points="159.85 71.74 159.85 87.33 156.22 87.33 156.22 71.74 150.93 71.74 150.93 68.86 165.12 68.86 165.12 71.74 159.85 71.74"/><polygon class="cls-3" points="168.21 87.33 168.21 68.86 180.07 68.86 180.07 71.74 171.87 71.74 171.87 76.22 179.49 76.22 179.49 79.13 171.87 79.13 171.87 84.36 180.34 84.36 180.34 87.33 168.21 87.33"/><polygon class="cls-3" points="190.03 87.33 190.03 68.86 201.89 68.86 201.89 71.74 193.69 71.74 193.69 76.22 201.3 76.22 201.3 79.13 193.69 79.13 193.69 84.36 202.15 84.36 202.15 87.33 190.03 87.33"/><path class="cls-3" d="M214.11,71.63c-3.38,0-5.3,2.7-5.3,6.42s1.89,6.45,5.3,6.45,5.29-2.74,5.29-6.45-1.92-6.42-5.29-6.42m4.62,14.82A4.61,4.61,0,0,0,221,89.27l-2.9,2.07a5.67,5.67,0,0,1-2.77-3.87,4.65,4.65,0,0,1-1.22.15c-5.53,0-9-3.84-9-9.54s3.51-9.51,9-9.51,9,3.84,9,9.51-3.46,7.94-4.42,8.37"/><path class="cls-3" d="M237.62,68.86h3.67V80c0,2.47-.38,4.16-1.63,5.55s-3,2.07-5.73,2.07-4.5-.67-5.73-2.07-1.66-3.05-1.66-5.52V68.86h3.67V80.2c0,1.6.17,2.33.75,3a4.33,4.33,0,0,0,5.9,0c.58-.7.76-1.42.76-3Z"/><polygon class="cls-3" points="246.09 87.33 246.09 68.86 249.75 68.86 249.75 78.1 249.75 87.33 246.09 87.33"/><polygon class="cls-3" points="261.77 71.74 261.77 87.33 258.13 87.33 258.13 71.74 252.84 71.74 252.84 68.86 267.04 68.86 267.04 71.74 261.77 71.74"/><polygon class="cls-3" points="278.36 79.8 278.36 87.33 274.7 87.33 274.7 79.8 268.33 68.86 272.37 68.86 276.55 76.94 280.71 68.86 284.7 68.86 278.36 79.8"/></svg>