<svg xmlns="http://www.w3.org/2000/svg" width="359" height="87.72" viewBox="0 0 359 87.72"><title>logo</title><polygon points="0 19.23 0 38.46 19.23 28.85 0 19.23" style="fill:#fff"/><polygon points="19.23 28.85 0 38.46 0 57.7 38.47 38.46 19.23 28.85" style="fill:#d6001c"/><polygon points="0 57.7 57.7 57.7 57.7 48.09 38.47 38.46 0 57.7" style="fill:#1c2157"/><polygon points="38.47 19.23 0 0 0 19.23 19.23 28.85 38.47 19.23" style="fill:#479ed1"/><polygon points="38.47 19.23 57.7 9.61 57.7 0 0 0 38.47 19.23" style="fill:#1c2157"/><polygon points="38.47 19.23 19.23 28.85 38.47 38.46 57.7 48.09 57.7 28.85 57.7 9.61 38.47 19.23" style="fill:#a3cff0"/><path d="M333.52,34.86a44.82,44.82,0,0,0-4.88.31c-3,.47-4.63,2-4.63,4.63,0,2.29,1.5,3.54,3.74,3.54,3.07,0,5.77-2.08,5.77-6.14Zm-7.85,13.73c-5.51,0-9-3.44-9-8.68,0-4.79,3.07-7.7,8.16-8.9a41.75,41.75,0,0,1,8.68-.72c0-4.11-1.66-5.51-5.93-5.51a19.2,19.2,0,0,0-7.9,1.87V20.93a22.8,22.8,0,0,1,8.84-1.72c8.94,0,12.21,4.06,12.21,11.7V42.25h3.54V48h-10l-.56-2.86h-.11a10.11,10.11,0,0,1-7.95,3.49m-90-13.73a45,45,0,0,0-4.88.31c-3,.47-4.63,2-4.63,4.63,0,2.29,1.51,3.54,3.74,3.54,3.07,0,5.77-2.08,5.77-6.14Zm-7.84,13.73c-5.51,0-9-3.44-9-8.68,0-4.79,3.07-7.7,8.17-8.9a41.71,41.71,0,0,1,8.67-.72c0-4.11-1.66-5.51-5.92-5.51a19.17,19.17,0,0,0-7.9,1.87V20.93a22.75,22.75,0,0,1,8.83-1.72c8.95,0,12.22,4.06,12.22,11.7V42.25h3.53V48h-10l-.57-2.86h-.1a10.14,10.14,0,0,1-7.95,3.49M125,34.86a45.15,45.15,0,0,0-4.89.31c-3,.47-4.63,2-4.63,4.63,0,2.29,1.51,3.54,3.75,3.54,3.07,0,5.77-2.08,5.77-6.14Zm-7.86,13.73c-5.5,0-9-3.44-9-8.68,0-4.79,3.07-7.7,8.17-8.9a41.75,41.75,0,0,1,8.68-.72c0-4.11-1.66-5.51-5.93-5.51a19.17,19.17,0,0,0-7.9,1.87V20.93A22.76,22.76,0,0,1,120,19.21c8.94,0,12.21,4.06,12.21,11.7V42.25h3.54V48h-10l-.58-2.86h-.1a10.13,10.13,0,0,1-8,3.49m154-14.77c0-5.24-2.59-8.73-6.6-8.73S258,28.62,258,33.77s2.55,8.79,6.4,8.79,6.75-3.54,6.75-8.74m7.44,0c0,8.74-5,14.77-12.22,14.77-4.31,0-6.86-1.72-8.16-3.49h-.1V56.93l-7.28,3V25.45h-3.69V19.73H257.5l.47,3.7h.11c.93-1.46,3.11-4.22,8.26-4.22,7.54,0,12.22,5.77,12.22,14.61M172.31,19.21a10.89,10.89,0,0,0-9.1,4.22h-.11l-.47-3.7H151.82v5.72h4.05V48h7.34V34.91c0-7,3.68-9.56,6.86-9.56,3,0,4.37,1.92,4.37,6.24V48h7.27v-18c0-7.07-3.22-10.71-9.4-10.71m33.31,22.67c-7.48,0-11.89-5-11.89-13.15,0-7.91,4.41-13.26,11.27-13.26a21.13,21.13,0,0,1,4.93.57v8l6.5-2.7V11.93a21.5,21.5,0,0,0-11.12-2.8C193.82,9.13,186,16.2,186,28.83c0,12,7,19.76,19.34,19.76a23.91,23.91,0,0,0,11.25-2.82L215,39.64a20.2,20.2,0,0,1-9.33,2.24m149.84.37V7.41l-7.33,3V48H359V42.25ZM98.17,36.53c0-3.64-2.65-5.62-7.22-5.62h-7V42.2H91c5.09,0,7.17-2.3,7.17-5.67M83.93,25.25h5.93c4.21,0,6.23-2,6.23-4.84,0-3.27-2-4.94-5.82-4.94H83.93Zm22,11.69c0,7.33-5.77,11-14.46,11H76.39V15.47H71.81V9.75H90.22c4.94,0,7.49.68,9.46,1.93a8.51,8.51,0,0,1,4,7.53c0,4-2.5,7.08-6.55,8.16v.11c5.46.94,8.79,4.52,8.79,9.46M280.64,25.45h4V48H292V19.73H280.64Zm4-10.6H292V7.93h-7.34ZM136.43,25.45h4V48h7.33V19.73H136.43Zm4-10.6h7.33V7.93h-7.33Zm166.79,4.88h7.43v5.72h-7.43V37.88c0,3.12.67,4.93,3.69,4.93a19.41,19.41,0,0,0,3.33-.46v5.46a26,26,0,0,1-5.72.78c-5.72,0-8.58-2.76-8.58-8.84V25.45h-4V19.73h4V14.9l7.28-3Z" style="fill:#1c2157"/><path d="M343.62,87.72A9.91,9.91,0,0,1,336.76,85l1.84-2.6a8.08,8.08,0,0,0,5,2.27c2.19,0,3.29-.87,3.29-2.27s-1.37-1.93-2.1-2.22-3.09-1.14-3.58-1.34A5,5,0,0,1,337.64,74c0-2.4,1.69-5.34,6.65-5.34a9.14,9.14,0,0,1,6.21,2.45l-1.57,2.51a7.57,7.57,0,0,0-4.76-2c-1.89,0-2.94.7-2.94,2.08s1.34,1.86,2,2.16,3,1.1,3.53,1.31c2.77,1,3.79,2.8,3.79,4.87,0,2.66-1.89,5.78-6.94,5.78m-20.6-.3V68.9h11.91v2.89H326.7v4.49h7.64V79.2H326.7v5.25h8.49v3Zm-8,0V68.9h3.68V87.42Zm-7.64-15.63V87.42h-3.65V71.79h-5.31V68.9H312.7v2.89Zm-15,15.63V68.9h3.68V87.42Zm-7.78,0L276.32,74V87.42h-3.47V68.9h3.94l7.91,12.75V68.9h3.47V87.42ZM265.09,68.9h3.68V80.07c0,2.48-.38,4.17-1.63,5.57s-3,2.08-5.75,2.08-4.52-.67-5.75-2.08S254,82.58,254,80.1V68.9h3.67V80.28c0,1.6.18,2.33.76,3a4.33,4.33,0,0,0,5.92,0c.59-.7.76-1.43.76-3Zm-18.55,2.89V87.42h-3.65V71.79h-5.31V68.9h14.24v2.89Zm-15.4.52a3.88,3.88,0,0,0-2.36-.61h-2.6v5.78h2.57a3.91,3.91,0,0,0,2.39-.62,2.74,2.74,0,0,0,1.11-2.27,2.77,2.77,0,0,0-1.11-2.28m1.66,15.11-4.32-7.2h-2.3v7.2H222.5V68.9h6.68a7.7,7.7,0,0,1,4.67,1.25,5.48,5.48,0,0,1-1.75,9.49l4.9,7.78Zm-22-15.75c-3.39,0-5.31,2.71-5.31,6.45s1.9,6.48,5.31,6.48,5.31-2.75,5.31-6.48-1.93-6.45-5.31-6.45m0,16c-5.54,0-9.08-3.85-9.08-9.57s3.54-9.54,9.08-9.54,9.07,3.85,9.07,9.54-3.53,9.57-9.07,9.57M194.88,72.37a4,4,0,0,0-2.65-.67h-2v6.42h2a4.11,4.11,0,0,0,2.68-.64A2.94,2.94,0,0,0,196,74.91a2.84,2.84,0,0,0-1.14-2.54m2.83,7.18a8.47,8.47,0,0,1-4.9,1.37h-2.63v6.5h-3.67V68.9h6.3a8.06,8.06,0,0,1,4.9,1.4,5.38,5.38,0,0,1,2,4.61,5.42,5.42,0,0,1-2,4.64M178.6,72.37A4,4,0,0,0,176,71.7h-2v6.42h2a4.1,4.1,0,0,0,2.68-.64,2.94,2.94,0,0,0,1.14-2.57,2.84,2.84,0,0,0-1.14-2.54m2.84,7.18a8.53,8.53,0,0,1-4.91,1.37h-2.62v6.5h-3.68V68.9h6.3a8.11,8.11,0,0,1,4.91,1.4,5.4,5.4,0,0,1,2,4.61,5.42,5.42,0,0,1-2,4.64M158,71.67c-3.38,0-5.31,2.71-5.31,6.45s1.9,6.48,5.31,6.48,5.31-2.75,5.31-6.48-1.92-6.45-5.31-6.45m0,16c-5.54,0-9.07-3.85-9.07-9.57s3.53-9.54,9.07-9.54S167,72.46,167,78.15s-3.53,9.57-9.08,9.57m-21-.3V79.2h-8.11v8.22h-3.68V68.9h3.68v7.35H137V68.9h3.68V87.42ZM120.59,74.33a5.57,5.57,0,0,0-4.67-2.51c-3.21,0-5.43,2.48-5.43,6.27s2.13,6.3,5.37,6.3a6,6,0,0,0,4.81-2.54l1.9,2.48a8,8,0,0,1-7,3.39c-5,0-8.84-3.45-8.84-9.57s4.26-9.54,9-9.54a7.85,7.85,0,0,1,6.77,3.29ZM93,87.42V68.9h11.9v2.89H96.66v4.49h7.65V79.2H96.66v5.25h8.5v3ZM85.35,71.79V87.42H81.7V71.79H76.39V68.9H90.63v2.89Z" style="fill:#1c2157"/></svg>