<?xml version="1.0" encoding="UTF-8"?><svg id="Layer_1" xmlns="http://www.w3.org/2000/svg" viewBox="0 0 212.07 51.01"><defs><style>.cls-1{fill:#692f6c;}.cls-2{fill:#f05625;}</style></defs><polygon class="cls-2" points="56.93 50.71 68.19 26.56 49.22 26.56 37.94 50.71 56.93 50.71"/><path class="cls-1" d="m18.98,50.71l11.26-24.15h-12.31c-4.06,0-7.76,2.35-9.48,6.04L0,50.71h18.98Z"/><path class="cls-1" d="m35.08,36.96L17.88,0h12.31C34.25,0,37.94,2.35,39.66,6.03l9.57,20.54-14.14,10.4Z"/><path class="cls-1" d="m177.81,46.54c1.14,1.14,2.57,1.72,4.25,1.72s3.08-.58,4.23-1.72c1.14-1.16,1.72-2.6,1.72-4.3s-.58-3.13-1.72-4.3c-1.14-1.17-2.55-1.75-4.23-1.75s-3.11.58-4.25,1.75c-1.14,1.16-1.7,2.6-1.7,4.3s.56,3.16,1.7,4.3m-2.09,1.94c-1.72-1.68-2.6-3.76-2.6-6.24s.87-4.56,2.6-6.24c1.72-1.7,3.84-2.55,6.34-2.55s4.61.85,6.34,2.55c1.75,1.68,2.62,3.76,2.62,6.24s-.87,4.57-2.6,6.24c-1.72,1.67-3.86,2.53-6.36,2.53s-4.61-.85-6.34-2.53m-78.67-14.71h3.03v10.11c0,3.01,1.99,4.32,4.29,4.32s4.26-1.31,4.26-4.32v-10.11h3.03v10.43c0,4.51-3.49,6.74-7.3,6.74s-7.32-2.23-7.32-6.74v-10.43Zm17.9,0h2.83l9.5,11.74v-11.74h3.11v16.91h-2.63l-9.71-11.96v11.96h-3.12v-16.91Zm18.77,0h3.37v8.1l7.96-8.1h3.99l-7.32,7.45,7.53,9.46h-3.94l-5.86-7.3-2.38,2.35v4.95h-3.37v-16.91Zm30.4,14.26c.36.12.92.19,1.38.19,1.75,0,1.99-1.28,1.99-2.74v-11.72h3.03v11.57c0,2.79-.36,5.63-4.68,5.63-.58,0-1.14-.05-1.72-.19v-2.74Zm13.69-25.61c1.14,1.14,2.57,1.72,4.25,1.72s3.08-.58,4.23-1.72c1.14-1.16,1.72-2.6,1.72-4.3s-.58-3.13-1.72-4.3c-1.14-1.17-2.55-1.75-4.23-1.75s-3.11.58-4.25,1.75c-1.14,1.16-1.7,2.6-1.7,4.3s.56,3.16,1.7,4.3m-2.09,1.94c-1.72-1.68-2.6-3.76-2.6-6.24s.87-4.57,2.6-6.24c1.72-1.7,3.84-2.55,6.34-2.55s4.61.85,6.34,2.55c1.75,1.68,2.62,3.76,2.62,6.24s-.87,4.57-2.6,6.24c-1.72,1.67-3.86,2.53-6.36,2.53s-4.61-.85-6.34-2.53m18.01-14.71h2.76l6.44,9.49,6.41-9.49h2.73v16.9h-3.04v-11.44l-6.1,8.93-6.15-8.91v11.41h-3.04V9.67Zm-94.56,16.9V9.64h3.04v6.6h8.6v-6.6h3.01v16.92h-3.01v-7.58h-8.6v7.58h-3.04Zm47.88,0v-14.18h-5.05v-2.74h13.14v2.74h-5.05v14.18h-3.04Zm13.38-8.74h4.62c1.65,0,2.79-1.14,2.79-2.77s-1.09-2.67-2.55-2.67h-4.86v5.44Zm-3.04,8.74V9.64h7.97c1.53,0,2.82.51,3.88,1.55,1.07,1.02,1.6,2.28,1.6,3.81,0,2.21-1.24,4.03-3.08,4.81l4.1,6.75h-3.42l-3.62-6.02h-4.4v6.02h-3.04Zm20.66,3.63c0-.85.7-1.5,1.52-1.5s1.55.65,1.55,1.5-.7,1.48-1.55,1.48-1.52-.65-1.52-1.48m5.01,0c0-.85.73-1.5,1.55-1.5s1.52.65,1.52,1.5-.7,1.48-1.52,1.48-1.55-.65-1.55-1.48m-98.36-9.5l3.22-6.9,3.22,6.9h-6.43Zm1.94-11.05l-7.89,16.93h3.21l1.57-3.38h8.77l1.57,3.38h3.21l-7.89-16.93h-2.55Zm77.47,38.4c.36.12.92.19,1.38.19,1.75,0,1.99-1.28,1.99-2.74v-11.72h3.03v11.57c0,2.79-.36,5.63-4.68,5.63-.58,0-1.14-.05-1.72-.19v-2.74Zm-88.74-14.26h2.76l6.44,9.5,6.42-9.5h2.73v16.91h-3.04v-11.44l-6.11,8.94-6.16-8.92v11.42h-3.04v-16.91Zm41.76-7.22V9.64h3.04v14.18h6.65v2.74h-9.68Zm43.01,11.49c-.9-1.13-2.6-1.88-3.96-1.88s-2.31.76-2.31,1.8c0,.71.29,1.05.71,1.46.37.37,1.53.73,3.14,1.39,1.61.65,2.75,1.36,3.46,2.12.71.75,1.07,1.78,1.07,3.04,0,2.99-2.07,5.02-5.94,5.02-2.43,0-4.68-.9-6.19-2.98l1.1-2.36c1.4,1.57,3.15,2.61,5.12,2.61,2.12,0,2.87-1.12,2.87-2.22,0-.76-.27-1.27-.97-1.73-.71-.49-1.22-.71-2.48-1.17-1.56-.59-2.46-1.02-3.43-1.8-.97-.8-1.44-1.9-1.44-3.34s.51-2.46,1.51-3.31c1.02-.85,2.26-1.27,3.75-1.27,1.76,0,3.92.69,5.2,2.05l-1.19,2.55Zm-21.62-24.11c-.9-1.13-2.59-1.88-3.96-1.88s-2.31.75-2.31,1.8c0,.71.29,1.05.71,1.46.37.36,1.53.73,3.14,1.39,1.61.65,2.75,1.36,3.46,2.12.71.75,1.07,1.78,1.07,3.04,0,2.99-2.07,5.01-5.94,5.01-2.43,0-4.68-.9-6.19-2.98l1.1-2.36c1.4,1.57,3.14,2.61,5.11,2.61,2.12,0,2.87-1.12,2.87-2.21,0-.75-.27-1.26-.97-1.73-.71-.49-1.22-.71-2.48-1.17-1.56-.58-2.46-1.02-3.43-1.8-.97-.8-1.43-1.9-1.43-3.33s.51-2.46,1.51-3.31c1.02-.85,2.26-1.27,3.75-1.27,1.76,0,3.92.69,5.19,2.05l-1.19,2.55Z"/></svg>