<svg id="Layer_1" data-name="Layer 1" xmlns="http://www.w3.org/2000/svg" width="178.68" height="94.6" viewBox="0 0 178.68 94.6"><defs><style>.cls-1,.cls-2{fill:#fff;}.cls-2{opacity:0.5;isolation:isolate;}</style></defs><path class="cls-1" d="M1027.57,547a6.21,6.21,0,0,0-5.15.5,15,15,0,0,0-3.87,3,32.28,32.28,0,0,0-6.44,10.18,25.22,25.22,0,0,0-1.06,3.43,1.62,1.62,0,0,0,.25,1.35c.48.4,1-.14,1.34-.47a55.22,55.22,0,0,0,4.27-4.09,112,112,0,0,0,8.28-10.55c.77-1.07,1.53-2.15,2.38-3.34m-1,8.56-1.9,2.73a74.27,74.27,0,0,1-7.83,9.62,12.54,12.54,0,0,1-4.65,3.28,4.17,4.17,0,0,1-5.48-2.2c-.08-.18-.14-.36-.2-.54a9.51,9.51,0,0,1,0-5.13,35.49,35.49,0,0,1,13.66-20.74,13.36,13.36,0,0,1,8.6-3,10.08,10.08,0,0,1,2.19.33,4.47,4.47,0,0,1,1.76,7.6,2.44,2.44,0,0,0-.82,1.57,61.93,61.93,0,0,0-.67,12.47,23.88,23.88,0,0,0,.49,2.91,5.23,5.23,0,0,0,.59,1.35,1.93,1.93,0,0,0,2.55.95l.06,0a8.77,8.77,0,0,0,2.26-1.41,31.58,31.58,0,0,0,5.35-6.36c1.41-2.06,2.71-4.2,4.09-6.29a5.34,5.34,0,0,1,1.15-1.31,1.08,1.08,0,0,1,1.52.07,1.05,1.05,0,0,1,.26.6,2.31,2.31,0,0,1-.26,1.88c-2.94,4.72-5.84,9.47-9.77,13.47a28,28,0,0,1-2.84,2.36,6.39,6.39,0,0,1-1.44.82,4,4,0,0,1-5.36-1.48,15,15,0,0,1-2.12-5.48,40.42,40.42,0,0,1-.87-7.35,2,2,0,0,0-.08-.69h-.2m-55-9.72a23.44,23.44,0,0,0-1.79,1.67,21.09,21.09,0,0,0-5,13.88,9.68,9.68,0,0,0,.63,3,2.21,2.21,0,0,0,2.31,1.5,3.68,3.68,0,0,0,3.18-1.75,10.5,10.5,0,0,0,1.2-2.39,22.29,22.29,0,0,0,.39-13.82,20.15,20.15,0,0,0-.9-2.14m6.31,2.18a5.7,5.7,0,0,0,4.95,2.07,13.38,13.38,0,0,0,4.89-1.29,1.21,1.21,0,0,0,.61-.63,15.19,15.19,0,0,1,4.29-5.85,16.57,16.57,0,0,1,5.53-3.53,17.81,17.81,0,0,1,1.88-.47,2.54,2.54,0,0,1,2.5.63c1.08,1,2.11,2,3.12,3a2,2,0,0,1,.52,1,1.1,1.1,0,0,1-.77,1.36,1.15,1.15,0,0,1-.49,0c-.4,0-.79-.09-1.19-.17a8.73,8.73,0,0,0-5.37,1,17,17,0,0,0-4.82,3.57,7.28,7.28,0,0,0-1.87,3.25,1.61,1.61,0,0,0,.36,1.54q1.68,1.88,3.3,3.77c1.17,1.36,2.35,2.7,3.48,4.1a12.52,12.52,0,0,1,1.18,1.87,3.38,3.38,0,0,1-.1,3.62,9.28,9.28,0,0,1-6.56,4.53,10.39,10.39,0,0,1-6-.77,2.4,2.4,0,0,1-1.67-2.54c1.12-.36,2.27-.71,3.41-1.09a18,18,0,0,0,4.87-2.22,6.44,6.44,0,0,0,1.19-1.14.79.79,0,0,0,0-1.12l-.13-.1c-.8-.73-1.59-1.47-2.39-2.19a14.71,14.71,0,0,1-4.17-6c-.16-.46-.3-.93-.45-1.4l-.15-.09a17.79,17.79,0,0,1-9.92,1,33.48,33.48,0,0,1,0,4.25c-.49,3.89-1.53,7.6-4.44,10.45a8.09,8.09,0,0,1-7.47,2.28,6.57,6.57,0,0,1-4-2.55,12.61,12.61,0,0,1-2.45-6.22,21.87,21.87,0,0,1,3.81-15.92,12.79,12.79,0,0,1,8.52-5.6,11.63,11.63,0,0,1,4.88.1,5.1,5.1,0,0,1,2.75,1.78,3,3,0,0,1-.12,4.27,18.86,18.86,0,0,1-1.63,1.41m-61.07-29.46.41-.72a31.91,31.91,0,0,1,2-3.33,1.69,1.69,0,0,0,.38-1.66c-.07-.23-.09-.48-.15-.72l-2.64-11.06a5,5,0,0,0-.38-1c-3,5-4.83,10.44-6.68,16,3.69-1.16,4.31-.93,7.06,2.49m-16.23,28.56c.41-.16.64-.23.85-.33l3.18-1.51a119.07,119.07,0,0,1,12.69-5.15c1.85-.61,3.72-1.15,5.58-1.69.48-.13.71-.34.6-.84a1,1,0,0,0-.07-.45c-.71-4.86-1.41-9.71-2.13-14.57-.15-1-.35-1.91-.56-3.07-.19.36-.29.51-.37.67l-1.17,2.57a2.55,2.55,0,0,1-2.58,1.73,2.48,2.48,0,0,1-2.31-1.94,18,18,0,0,0-.94-2.22,14.11,14.11,0,0,0-1.08-1.68c-.27.16-.41.23-.53.32a26.08,26.08,0,0,0-4.52,5.25,3.5,3.5,0,0,0-.38.94c-1.55,5.33-3.11,10.66-4.64,16-.55,1.92-1,3.86-1.62,6M924,542.56c-1.72.55-3.37,1-5,1.61a141.3,141.3,0,0,0-19.42,8.71,1.57,1.57,0,0,0-.88,1.09c-1.32,5.45-2.77,10.89-4.13,16.34-1.08,4.34-2.11,8.69-3.16,13-.15.63-.23,1.28-.41,1.9a4.54,4.54,0,0,1-.56,1.35,2,2,0,0,1-2.15,1,11.19,11.19,0,0,1-1.86-.52,2.35,2.35,0,0,1-1-2.56c.34-1.54.72-3.07,1.09-4.6q2.7-10.87,5.39-21.74c.07-.3.11-.6.21-1.13-.41.23-.67.35-.91.49l-16.14,10a4.74,4.74,0,0,1-1.41.64,2.21,2.21,0,0,1-2.5-1.31A2.3,2.3,0,0,1,872,564c1.18-.84,2.4-1.63,3.61-2.42,5.78-3.76,11.68-7.32,17.74-10.6a1.54,1.54,0,0,0,.75-1.19c1.09-4,2.16-8.15,3.33-12.21,1.72-6,3.46-11.92,5.27-17.85,1.66-5.43,3.52-10.8,5.67-16.06a34.51,34.51,0,0,1,4.15-7.91,10.15,10.15,0,0,1,1.65-1.75,3.86,3.86,0,0,1,5.46.21,3.39,3.39,0,0,1,.33.42,13.38,13.38,0,0,1,2.08,4.42,91.92,91.92,0,0,1,2.92,12.24q1.37,7.62,2.6,15.25c.52,3.2.91,6.42,1.36,9.63a6.53,6.53,0,0,0,.17,1l2.6-.2a15.1,15.1,0,0,1,13,4.8,26.91,26.91,0,0,1,2,2.64c.14-1,.22-2.07.45-3.1a30.6,30.6,0,0,1,.92-3,4,4,0,0,1,.55-1,2,2,0,0,1,2.73-.77l.19.13a10.85,10.85,0,0,1,1.81,1.57c.85.8,1.63,1.69,2.52,2.44a3.86,3.86,0,0,0,3.31.82c.45-.09,1-.36,1.31.27a1.85,1.85,0,0,1,0,1.91,2.18,2.18,0,0,1-1.58.87,9.33,9.33,0,0,1-6.15-1.2c-.5-.3-1-.66-1.48-1s-1-.27-1.26.47a12.39,12.39,0,0,0-.39,2.27c-.22,4.6-.4,9.2-.59,13.8-.12,2.81-.23,5.62-.38,8.42a12,12,0,0,1-.43,2.44c-.22.93-.56,1.15-1.5,1.19-1.66.07-2.37-.36-2.66-2a43.58,43.58,0,0,1-.58-5.46c-.13-3.42-.13-6.85-.22-10.28a15.4,15.4,0,0,0-1.78-7.13,8.44,8.44,0,0,0-6.19-4.55,18.13,18.13,0,0,0-5.6-.06c.06.66.1,1.23.17,1.81.47,3.8,1,7.59,1.41,11.39s.8,7.81,1.2,11.71c.09.89.21,1.78.26,2.67a7.46,7.46,0,0,1,0,2.11,2.73,2.73,0,0,1-2.94,2.16,2.77,2.77,0,0,1-2.54-2.62c-.17-2-.27-4-.49-6-.64-5.83-1.32-11.65-2-17.48-.13-1.17-.28-2.33-.43-3.49-.05-.36-.13-.72-.23-1.21" transform="translate(-870.97 -493)"/><path class="cls-2" d="M900.55,547.15c.41-.16.64-.23.85-.33l3.18-1.51a119.07,119.07,0,0,1,12.69-5.15c1.85-.61,3.72-1.15,5.58-1.69.48-.13.71-.34.6-.84a1,1,0,0,0-.07-.45c-.71-4.86-1.41-9.71-2.13-14.57-.15-1-.35-1.91-.56-3.07-.19.36-.29.51-.37.67l-1.17,2.57a2.55,2.55,0,0,1-2.58,1.73,2.48,2.48,0,0,1-2.31-1.94,20.1,20.1,0,0,0-.88-2.27,16.62,16.62,0,0,0-1.09-1.68c-.27.16-.41.23-.53.32a26.08,26.08,0,0,0-4.52,5.25,3.5,3.5,0,0,0-.38.94c-1.55,5.33-3.11,10.66-4.64,16-.55,1.92-1,3.86-1.62,6" transform="translate(-870.97 -493)"/></svg>