<svg id="Layer_1" data-name="Layer 1" xmlns="http://www.w3.org/2000/svg" viewBox="0 0 178.68 94.63"><defs><style>.cls-1{fill:#16355c;}.cls-2{fill:#6ea0c1;}</style></defs><path class="cls-1" d="M157.19,54.25a6.24,6.24,0,0,0-5.15.5,15,15,0,0,0-3.87,3,32.22,32.22,0,0,0-6.44,10.18,23.88,23.88,0,0,0-1.06,3.43,1.6,1.6,0,0,0,.25,1.35c.48.4,1-.14,1.34-.47,1.45-1.33,3-2.64,4.27-4.09a112.34,112.34,0,0,0,8.28-10.55c.77-1.07,1.53-2.15,2.38-3.34m-1,8.56-1.9,2.73a74.43,74.43,0,0,1-7.83,9.62,12.54,12.54,0,0,1-4.65,3.28,4.18,4.18,0,0,1-5.68-2.74,9.41,9.41,0,0,1,0-5.13,35.49,35.49,0,0,1,13.66-20.74,13.43,13.43,0,0,1,8.6-3,10.94,10.94,0,0,1,2.19.33,4.48,4.48,0,0,1,1.76,7.6,2.42,2.42,0,0,0-.82,1.57,61.21,61.21,0,0,0-.67,12.47,22.1,22.1,0,0,0,.49,2.91,4.91,4.91,0,0,0,.59,1.35,1.92,1.92,0,0,0,2.61.92,8.84,8.84,0,0,0,2.26-1.41,31.36,31.36,0,0,0,5.35-6.36c1.41-2.06,2.71-4.2,4.09-6.29a5.34,5.34,0,0,1,1.15-1.31,1.07,1.07,0,0,1,1.78.67,2.34,2.34,0,0,1-.26,1.88c-2.94,4.72-5.84,9.47-9.77,13.47A27.08,27.08,0,0,1,166.3,77a6.39,6.39,0,0,1-1.44.82,4,4,0,0,1-5.36-1.48,14.69,14.69,0,0,1-2.12-5.48,39.55,39.55,0,0,1-.87-7.35c0-.23,0-.46-.08-.69l-.2,0m-55-9.72a22,22,0,0,0-1.79,1.67,21.07,21.07,0,0,0-5,13.88,9.54,9.54,0,0,0,.63,3,2.2,2.2,0,0,0,2.31,1.5,3.67,3.67,0,0,0,3.18-1.75,10.7,10.7,0,0,0,1.2-2.39,22.36,22.36,0,0,0,.39-13.82,21.52,21.52,0,0,0-.9-2.14m6.31,2.18a5.67,5.67,0,0,0,4.95,2.07,13.24,13.24,0,0,0,4.89-1.29,1.21,1.21,0,0,0,.61-.63,15.09,15.09,0,0,1,4.29-5.85A16.65,16.65,0,0,1,127.83,46a19.13,19.13,0,0,1,1.88-.47,2.57,2.57,0,0,1,2.5.63c1.08,1,2.11,2,3.12,3a2.09,2.09,0,0,1,.52,1.05,1.11,1.11,0,0,1-1.26,1.39,9.47,9.47,0,0,1-1.19-.17,8.79,8.79,0,0,0-5.37,1,17.21,17.21,0,0,0-4.82,3.57,7.19,7.19,0,0,0-1.87,3.25,1.58,1.58,0,0,0,.36,1.54q1.67,1.88,3.3,3.77c1.17,1.36,2.35,2.7,3.48,4.1a13.39,13.39,0,0,1,1.18,1.87,3.4,3.4,0,0,1-.1,3.62A9.26,9.26,0,0,1,123,78.68a10.32,10.32,0,0,1-6-.77,2.39,2.39,0,0,1-1.67-2.54c1.12-.36,2.27-.71,3.41-1.09a17.88,17.88,0,0,0,4.87-2.22,6.74,6.74,0,0,0,1.19-1.14.79.79,0,0,0-.1-1.22c-.8-.73-1.59-1.47-2.39-2.19a14.52,14.52,0,0,1-4.17-6c-.16-.46-.3-.93-.45-1.4,0,0,0,0-.15-.09a17.73,17.73,0,0,1-9.92,1,35.21,35.21,0,0,1,0,4.25c-.49,3.89-1.53,7.6-4.44,10.45A8.1,8.1,0,0,1,95.71,78a6.45,6.45,0,0,1-4-2.55,12.42,12.42,0,0,1-2.45-6.22,21.86,21.86,0,0,1,3.81-15.92,12.79,12.79,0,0,1,8.52-5.6,11.81,11.81,0,0,1,4.88.1,5.17,5.17,0,0,1,2.75,1.78,3.06,3.06,0,0,1-.12,4.27c-.47.49-1,.89-1.63,1.41M46.4,25.81l.41-.72a31.83,31.83,0,0,1,2-3.33,1.72,1.72,0,0,0,.38-1.66c-.07-.23-.09-.48-.15-.72Q47.72,13.85,46.4,8.32a6.49,6.49,0,0,0-.38-1c-3,5.05-4.83,10.44-6.68,16,3.69-1.16,4.31-.93,7.06,2.49M30.17,54.37c.41-.16.64-.23.85-.33,1.06-.5,2.12-1,3.18-1.51a118.23,118.23,0,0,1,12.69-5.15c1.85-.61,3.72-1.15,5.58-1.69.48-.13.71-.34.6-.84,0-.15,0-.3-.07-.45-.71-4.86-1.41-9.71-2.13-14.57-.15-1-.35-1.91-.56-3.07-.19.36-.29.51-.37.67L48.77,30a2.55,2.55,0,0,1-2.58,1.73,2.47,2.47,0,0,1-2.31-1.94,19.69,19.69,0,0,0-.94-2.22,17,17,0,0,0-1.08-1.68c-.27.16-.41.23-.53.32a26,26,0,0,0-4.52,5.25,3.37,3.37,0,0,0-.38.94c-1.55,5.33-3.11,10.66-4.64,16-.55,1.92-1,3.86-1.62,6m23.45-4.62c-1.72.55-3.37,1-5,1.61A142.68,142.68,0,0,0,29.2,60.1a1.56,1.56,0,0,0-.88,1.09C27,66.64,25.55,72.08,24.19,77.53c-1.08,4.34-2.11,8.69-3.16,13-.15.63-.23,1.28-.41,1.9a4.48,4.48,0,0,1-.56,1.35,2,2,0,0,1-2.15,1,10.68,10.68,0,0,1-1.86-.52,2.34,2.34,0,0,1-1-2.56c.34-1.54.72-3.07,1.09-4.6q2.7-10.87,5.39-21.74c.07-.3.11-.6.21-1.13-.41.23-.67.35-.91.49q-8.07,5-16.14,10a4.59,4.59,0,0,1-1.41.64,2.21,2.21,0,0,1-2.5-1.31,2.3,2.3,0,0,1,.79-2.81c1.18-.84,2.4-1.63,3.61-2.42,5.78-3.76,11.68-7.32,17.74-10.6a1.56,1.56,0,0,0,.75-1.19C24.76,53,25.83,48.88,27,44.82c1.72-6,3.46-11.92,5.27-17.85,1.66-5.43,3.52-10.8,5.67-16.06A34.49,34.49,0,0,1,42.09,3a10.13,10.13,0,0,1,1.65-1.75,3.86,3.86,0,0,1,5.79.63,13.57,13.57,0,0,1,2.08,4.42,93.88,93.88,0,0,1,2.92,12.24q1.36,7.62,2.6,15.25c.52,3.2.91,6.42,1.36,9.63,0,.3.1.6.17,1l2.6-.2a15.11,15.11,0,0,1,13,4.8,29.12,29.12,0,0,1,2,2.64c.14-1,.22-2.07.45-3.1a28.82,28.82,0,0,1,.92-3,3.73,3.73,0,0,1,.55-1,2,2,0,0,1,2.92-.64,11.65,11.65,0,0,1,1.81,1.57c.85.8,1.63,1.69,2.52,2.44a3.82,3.82,0,0,0,3.31.82c.45-.09,1-.36,1.31.27A1.86,1.86,0,0,1,90,50.93a2.17,2.17,0,0,1-1.58.87,9.25,9.25,0,0,1-6.15-1.2c-.5-.3-1-.66-1.48-1s-1-.27-1.26.47a11,11,0,0,0-.39,2.27c-.22,4.6-.4,9.2-.59,13.8-.12,2.81-.23,5.62-.38,8.42A12.83,12.83,0,0,1,77.74,77c-.22.93-.56,1.15-1.5,1.19-1.66.07-2.37-.36-2.66-2A41.12,41.12,0,0,1,73,70.73c-.13-3.42-.13-6.85-.22-10.28A15.57,15.57,0,0,0,71,53.32a8.48,8.48,0,0,0-6.19-4.55,18.42,18.42,0,0,0-5.6-.06c.06.66.1,1.23.17,1.81.47,3.8,1,7.59,1.41,11.39s.8,7.81,1.2,11.71c.09.89.21,1.78.26,2.67a7.81,7.81,0,0,1,0,2.11,2.72,2.72,0,0,1-2.94,2.16,2.76,2.76,0,0,1-2.54-2.62c-.17-2-.27-4-.49-6-.64-5.83-1.32-11.65-2-17.48-.13-1.17-.28-2.33-.43-3.49-.05-.36-.13-.72-.23-1.21"/><path class="cls-2" d="M30.17,54.37c.41-.16.64-.23.85-.33,1.06-.5,2.12-1,3.18-1.51a118.23,118.23,0,0,1,12.69-5.15c1.85-.61,3.72-1.15,5.58-1.69.48-.13.71-.34.6-.84,0-.15,0-.3-.07-.45-.71-4.86-1.41-9.71-2.13-14.57-.15-1-.35-1.91-.56-3.07-.19.36-.29.51-.37.67L48.77,30a2.55,2.55,0,0,1-2.58,1.73,2.47,2.47,0,0,1-2.31-1.94A21.66,21.66,0,0,0,43,27.52a19.22,19.22,0,0,0-1.09-1.68c-.27.16-.41.23-.53.32a26,26,0,0,0-4.52,5.25,3.37,3.37,0,0,0-.38.94c-1.55,5.33-3.11,10.66-4.64,16-.55,1.92-1,3.86-1.62,6"/></svg>