<?xml version="1.0" encoding="UTF-8"?><svg xmlns="http://www.w3.org/2000/svg" viewBox="0 0 139.74 27.26"><defs><style>.cls-1{fill:#fff;}</style></defs><g id="Layer_1" focusable="false"><path class="cls-1" d="m27.8,12.76c-.01-6.11-4.93-11.08-11.04-11.15C11.55-1.56,4.77.1,1.61,5.3c-2.74,4.5-1.91,10.3,1.97,13.86,2.41,5.82,9.09,8.58,14.9,6.16,1.78-.74,3.34-1.91,4.54-3.42,2.99-2.08,4.78-5.5,4.78-9.14Zm-9-8.39c-1.92-.86-4.04-1.18-6.13-.92,1.26-.54,2.62-.82,4-.81h.25c.7.5,1.33,1.08,1.89,1.73Zm2.99,4.23c3.24,4,2.84,9.83-.92,13.35-2.67,1.23-5.73,1.23-8.41.02,5.49-.73,9.59-5.41,9.59-10.94,0-.82-.09-1.63-.27-2.43Zm-10.61,12.66c-4.7-3.01-6.07-9.26-3.06-13.96.16-.25.33-.48.51-.72,3.7-2.48,8.6-2.17,11.96.75,2.03,5.28-.59,11.2-5.87,13.23-1.13.44-2.33.67-3.54.68h0ZM2.7,14.78c0,.87.1,1.75.3,2.6C-.51,12.95.24,6.51,4.67,3,7.66.63,11.74.12,15.23,1.7c-2.27.29-4.39,1.27-6.08,2.8-3.94,1.91-6.45,5.9-6.45,10.28Zm2.87,4.9c-1.94-3.37-1.71-7.57.59-10.71-1.56,4.31-.32,9.13,3.11,12.15-1.31-.23-2.57-.72-3.7-1.43h0Zm8.54,4.96c-2.91,0-5.67-1.29-7.54-3.51,1.23.54,2.56.86,3.9.92,2.22,1.48,4.91,2.12,7.56,1.78-1.24.54-2.57.81-3.92.81Zm6.33-19.34c-.57-.93-1.27-1.78-2.09-2.51,5.5.94,9.21,6.15,8.27,11.66-.26,1.53-.87,2.98-1.78,4.24,1.8-4.94-.02-10.48-4.4-13.39Zm21.94.59c-1.78,0-3.5.67-4.83,1.87V2.06h-2.44l-.02,11.09c0,4.02,3.25,7.29,7.27,7.3,4.02,0,7.29-3.25,7.3-7.27,0-4.02-3.25-7.29-7.27-7.3h-.02Zm0,12.14c-2.54-.03-4.65-2-4.85-4.53,0-.43.02-.93.02-.93.33-2.67,2.76-4.56,5.43-4.23s4.56,2.76,4.23,5.43c-.3,2.44-2.37,4.26-4.83,4.26Zm40.3-4.87c.02-4.02-3.23-7.29-7.25-7.3s-7.29,3.23-7.3,7.25c0,2.27,1.04,4.41,2.83,5.79-.17.58-.25,1.18-.25,1.78-.01,3.63,2.92,6.59,6.55,6.6,3.63.01,6.59-2.92,6.6-6.55,0-1.71-.65-3.35-1.83-4.58.42-.94.64-1.95.64-2.98Zm-12.14,0c-.05-2.69,2.08-4.91,4.77-4.96s4.91,2.08,4.96,4.77h0v.2c0,.52-.09,1.04-.27,1.53-2.78-1.28-6.08-.46-7.94,1.98-.97-.91-1.52-2.18-1.52-3.51Zm9.05,2.46c-1.34,2.3-4.29,3.09-6.6,1.75-.04-.02-.08-.05-.13-.07,1.57-2.07,4.37-2.76,6.72-1.68Zm3.25,5.05c0,3.07-2.49,5.57-5.57,5.57-3.07,0-5.57-2.49-5.57-5.57h0c0-.4.05-.79.13-1.18,1.08.62,2.31.95,3.56.95,2.48,0,4.79-1.28,6.12-3.38.86,1.01,1.33,2.28,1.33,3.61h0Zm25.96-14.78c-1.78,0-3.5.67-4.82,1.87V2.06h-2.43l-.02,11.09c0,4.02,3.25,7.28,7.27,7.29,4.02,0,7.28-3.25,7.29-7.27,0-4.02-3.25-7.28-7.27-7.29,0,0,0,0,0,0h0Zm0,12.14c-2.55,0-4.67-1.99-4.85-4.53l.03-.93c.33-2.67,2.76-4.56,5.43-4.22s4.56,2.76,4.22,5.43c-.3,2.44-2.38,4.26-4.83,4.26Zm24.58-12.75c-1.69-.12-3.35.42-4.65,1.5-3.53-1.92-7.95-.61-9.87,2.92-1.92,3.53-.61,7.95,2.92,9.87,2.96,1.61,6.65.98,8.9-1.54,3.42,1.23,7.18-.54,8.42-3.95,1.23-3.42-.54-7.18-3.95-8.42-.57-.2-1.16-.33-1.75-.37Zm-8.45,12.74c-2.68-.19-4.7-2.52-4.51-5.2.19-2.68,2.52-4.7,5.2-4.51h0c.52.04,1.03.17,1.51.38-.46.83-.73,1.75-.8,2.69-.01.16-.02.32-.02.47,0,1.88.81,3.67,2.22,4.92-.98.9-2.29,1.35-3.62,1.25h0Zm5.2-4.51c-.07.9-.38,1.76-.91,2.48-1.95-1.72-2.44-4.56-1.19-6.84,1.43.98,2.23,2.63,2.1,4.36h0Zm8.33-1.28c-.22,3.06-2.88,5.37-5.94,5.16,0,0,0,0,0,0-.4-.03-.79-.1-1.18-.21.69-1.04,1.11-2.24,1.21-3.49.18-2.47-.92-4.87-2.92-6.33,1.06-.78,2.36-1.16,3.68-1.07,3.06.22,5.37,2.89,5.16,5.95h0Zm-46.47-6.34c-4.02.07-7.22,3.38-7.16,7.4.06,3.93,3.23,7.09,7.16,7.16,1.79,0,3.51-.67,4.83-1.87v1.61h2.43v-7.01c.01-4.02-3.24-7.28-7.26-7.28Zm4.83,7.87c-.34,2.67-2.77,4.55-5.44,4.22s-4.55-2.77-4.22-5.44c.34-2.67,2.77-4.55,5.44-4.22,2.31.29,4.09,2.18,4.25,4.5l-.03.93Zm-33.12-.23c-.22,2.67-2.56,4.66-5.24,4.45-2.13-.17-3.9-1.72-4.35-3.81,0-.03-.09-.62-.09-.62v-7.52h-2.43v7.5c.2,4.01,3.62,7.1,7.63,6.9,3.71-.19,6.68-3.14,6.9-6.84v-7.55h-2.42v7.5Z"/><path class="cls-1" d="m136.99,4.77c0,.76.61,1.37,1.37,1.37s1.37-.61,1.37-1.37-.61-1.37-1.37-1.37-1.37.61-1.37,1.37Zm.3,0c0-.59.48-1.07,1.07-1.07.59,0,1.07.48,1.07,1.07,0,.59-.48,1.07-1.07,1.07-.59,0-1.07-.48-1.07-1.07h0Zm1.6.47l-.34-.36c.2-.01.36-.18.37-.38,0-.31-.19-.45-.5-.45h-.39c-.08.01-.13.08-.12.16v1.12c0,.08.07.15.15.15,0,0,0,0,0,0,.08,0,.15-.07.15-.15v-.43l.45.54s.07.05.12.05c.08,0,.15-.07.15-.15,0-.03-.01-.07-.04-.09Zm-.48-.56h-.2v-.35s.24,0,.24,0c0,0,0,0,0,0,.09,0,.16.09.15.18,0,.01,0,.02,0,.03-.02.09-.1.16-.2.14Z"/></g></svg>