<svg id="Layer_1" data-name="Layer 1" xmlns="http://www.w3.org/2000/svg" viewBox="0 0 2012.3 656.9"><defs><style>.cls-1{fill:#fff;}</style></defs><g id="Layer_1-2" data-name="Layer 1-2"><path class="cls-1" d="M180.2,160.8h-.4a23.37,23.37,0,0,0-5,1.9c-1.1.5-2.1,1-3.1,1.4a37.13,37.13,0,0,1-4.7,1.6,26.4,26.4,0,0,1-9.3.5c-11.2-1.4-19.9-10.5-25.4-21.8a58,58,0,0,0,11.7,1.7c9.5.6,21.8.5,29.7-.8a16.2,16.2,0,0,1,2.2-.1c10.4.5,13.9,17.6,13.9,17.6s-3.2-3.3-9.6-2M322,213.1c-18.7-12-22.7-42.5-22.7-42.5A550.93,550.93,0,0,1,223.1,139c-17-11.4-21-18.2-46.7-25.6,55-46.1,35.1-121.9,29.6-95.5-4.3,20.8-43.6,69.1-60.6,89.5-1.1,0-3.7.7-4.8.7,40.7-49,23.4-122.5,19-105.5C152.6,29.8,84,135.9,84,135.9S43.8,172,39.5,182.6c0,0,9.5-2.3,14.6-1.9,0,0-37.2,67.5-37.9,97.5,0,0,6.1-6.6,9.7-9-.2,9.1,10,71.4,14,95.4,4.6,27.7,4.5,57.1-23.6,66.7A45.44,45.44,0,0,1,0,433.7C44.2,492.7,136.9,657,136.9,657c39.6-28,64.6-66.6,71.3-85.4,1,.1,12.7,5.3,12.7,5.3,23.8-46.6,14-105.2,6.4-120.1,11.9,7,16.2,6,16.2,6-1.3-12.2-22.3-62.8-22.3-62.8,13.8,1.8,17.6-2.8,17.6-2.8-25.8-17.4-40.3-65.3-40.3-65.3,6,3.5,9,4.7,20.6,11.1-19.6-39.2-50.2-77-50.2-77,16.6,5,40.9-12.6,51.7-17.9a167.46,167.46,0,0,1,25.9-9.6c10.4.3,23.3,9.4,32.9,8.7,11.8-.8,36.4-27.1,39.7-26.9,3.6.2,6-5.2,2.9-7.2m1583,62.1v31h46.2V286.1Zm-37.5,54.7v35.9h39.8V506.1h-39.8V542h123.4V506.1H1951V329.9Zm-24.6,176.2V542H1727.3V506.1h17.4l-42.5-44.5-37.5,44.5h17.5V542H1574.3V506.1h43.4l59.6-71.1-65.4-69.2h-37.6V329.9h115.2v35.9h-22l44,46.6,38.3-46.6h-17.9V329.9h102.3v35.9h-37.7L1736,438l64.8,68.1Zm-406.7,4.3a40.27,40.27,0,0,1-13.7-5.7,30.89,30.89,0,0,1-9.1-9.6,25.17,25.17,0,0,1-3.3-13.4c0-6.5,1.1-11.7,3.2-15.5a19.24,19.24,0,0,1,8.3-8.4,34.57,34.57,0,0,1,12.5-4,112.74,112.74,0,0,1,15.4-1l57.9.5v42.4c-2.2,1.5-4.7,3.2-7.7,5a66,66,0,0,1-12,5.7,106,106,0,0,1-15.6,4.3c-11.2,2.2-24.5,2.5-35.9-.3m114.3-92.1c0-6.2-.2-13-.5-20.8a112.36,112.36,0,0,0-3-21.6,74.58,74.58,0,0,0-8.2-20.3,57.28,57.28,0,0,0-15.8-17.1c-6.7-4.9-15.3-8.7-25.5-11.5s-22.6-4.2-37.2-4.2a166.68,166.68,0,0,0-28.2,2.2,186.36,186.36,0,0,0-22.2,4.7,131.58,131.58,0,0,0-20.4,6.7l-1.5.6-8.6,48.2,36.7,7,5-27.7a149.51,149.51,0,0,1,14.9-3.1,156.76,156.76,0,0,1,25.6-1.9c8.4,0,15.4.9,21,2.6s9.9,3.9,13.1,6.7a25.56,25.56,0,0,1,7.1,9.5,45,45,0,0,1,3.4,11.9,68.32,68.32,0,0,1,.9,12.8c-.1,4.5-.1,8.8-.1,12.9v.6l-59-.5a143.15,143.15,0,0,0-31.9,3.6,77.15,77.15,0,0,0-26.4,11.6,56.23,56.23,0,0,0-18,20.7c-4.3,8.4-6.5,18.5-6.3,30.1a63.22,63.22,0,0,0,6.1,26.7,64.84,64.84,0,0,0,17.2,21.4,80.87,80.87,0,0,0,27,14,122,122,0,0,0,35.6,4.9c14.5,0,27.8-2.2,39.5-6.6a67.42,67.42,0,0,0,16.6-10.2l.2,9.8h43.5l-.6-123.7Zm-246.6,11.2a133.88,133.88,0,0,1-4.1,33.9,79.22,79.22,0,0,1-12.1,26.2,54.78,54.78,0,0,1-19.9,16.8c-7.9,4-17.2,6-27.6,6h-.7a108.79,108.79,0,0,1-21.3-1.8,113.37,113.37,0,0,1-16.2-4.2,57.64,57.64,0,0,1-11.4-4.9V376a72.48,72.48,0,0,1,12.8-7.7,104.4,104.4,0,0,1,16.5-5.9,91,91,0,0,1,22.1-2.7h.1c41.5,0,61.8,22.8,61.8,69.8m36.7-45.8a89.53,89.53,0,0,0-55.4-54.1,131,131,0,0,0-42.6-6.8,102.11,102.11,0,0,0-19.1,1.8,134.71,134.71,0,0,0-17.6,4.8,121.92,121.92,0,0,0-15.7,6.8c-4.3,2.2-8.2,4.5-11.8,6.8l-65.9-22.6-11.2,35.7,45.7,15.2V605.8h-40.3v35.9h124.2V605.8h-40.3V542.1a178.48,178.48,0,0,0,20.2,4.6,164.92,164.92,0,0,0,29.8,2.4,107.27,107.27,0,0,0,43.7-8.8,98.61,98.61,0,0,0,34.1-24.8,111.39,111.39,0,0,0,22-37.8c5.2-14.5,7.8-30.8,7.8-48.3,0-17.1-2.5-32.5-7.6-45.7"/><path class="cls-1" d="M997.2,512.3c-21.4,0-37-6.4-47.6-19.5s-16.1-32.3-16.1-56.5,5.4-43.5,16.1-56.8,26.3-19.8,47.6-19.8,37.6,6.7,48.3,19.8c10.9,13.4,16.3,32.5,16.3,56.8,0,24.5-5.5,43.5-16.2,56.5s-26.5,19.5-48.4,19.5m101.3-123.4a103.87,103.87,0,0,0-22.3-35.7,99.17,99.17,0,0,0-34.8-22.6,126,126,0,0,0-44.7-7.7c-15.8,0-30.4,2.6-43.5,7.8a98.32,98.32,0,0,0-34.3,22.5A99.62,99.62,0,0,0,896.6,389c-5.2,14-7.7,30-7.7,47.4s2.6,33.3,7.7,47.3a99.69,99.69,0,0,0,22.3,35.6,98.06,98.06,0,0,0,34.3,22.4,122,122,0,0,0,43.5,7.7,128.58,128.58,0,0,0,44.7-7.7,97.2,97.2,0,0,0,34.8-22.4,102.53,102.53,0,0,0,22.3-35.6c5.3-14,8-29.9,8-47.3s-2.6-33.5-8-47.5M889,542.6l-2.6,1a68.65,68.65,0,0,1-9.8,2.9,77.56,77.56,0,0,1-10.7,2c-4.4.4-8.7.7-13.2.7a90.27,90.27,0,0,1-30.9-5.1,61.68,61.68,0,0,1-23.7-15.6,69.71,69.71,0,0,1-14.8-25.7c-3.4-10.1-5.1-22-5.1-35.5V365.8H738.4V329.9h39.8V288.8l43-10.1v51.1h60v35.9h-60v80.5q0,9.6.3,21.3a84.78,84.78,0,0,0,3.5,21.7,38.68,38.68,0,0,0,9.8,16.5c4.5,4.4,11.2,6.9,20,7.5a114.24,114.24,0,0,0,15.5-1.1c6.8-1.2,7.4-1.2,7.7-1.2h2.4ZM675.7,492.9c-10.5,12.9-26.9,19.5-48.4,19.5-21,0-37.1-6.5-47.6-19.5-10.6-13.3-16-32.3-16-56.5s5.4-43.5,16-56.8,26.6-19.8,47.6-19.8c21.4,0,37.7,6.6,48.3,19.9,10.8,13.3,16.3,32.4,16.3,56.7s-5.5,43.4-16.2,56.5m53-104a102.79,102.79,0,0,0-22.4-35.6,96.29,96.29,0,0,0-34.7-22.5c-13.4-5.2-28.4-7.8-44.7-7.8a118,118,0,0,0-43.6,7.8A98.32,98.32,0,0,0,549,353.3c-9.5,9.6-16.9,21.7-22.2,35.7s-7.8,30-7.8,47.4,2.6,33.3,7.8,47.3A99.22,99.22,0,0,0,549,519.3a98.06,98.06,0,0,0,34.3,22.4,117.94,117.94,0,0,0,43.6,7.7c16.3,0,31.3-2.6,44.7-7.7a94.75,94.75,0,0,0,34.7-22.4,101.34,101.34,0,0,0,22.4-35.6c5.2-13.9,7.9-29.8,7.9-47.3s-2.7-33.6-7.9-47.5M505,517.4v.9c0,1.8-.3,2.1-7.8,7.1a134.4,134.4,0,0,1-17.9,9.7,176.48,176.48,0,0,1-26.3,9.7,113.32,113.32,0,0,1-32.2,4.5,117.6,117.6,0,0,1-43.5-7.9A96.94,96.94,0,0,1,343,518.9a100.76,100.76,0,0,1-22.2-35.8c-5.2-13.9-7.8-29.9-7.8-47.3s2.6-33.4,7.8-47.2A100.84,100.84,0,0,1,343,353a96.69,96.69,0,0,1,34.3-22.4,122,122,0,0,1,43.5-7.7,194,194,0,0,1,29.5,1.9,180.09,180.09,0,0,1,20.7,4,110,110,0,0,1,16.7,5.8l1.4.7L500,391.6l-36.8,8.1-6.4-34.8c-1.8-.6-4.9-1.5-10.3-3-6-1.5-14.5-2.2-25.4-2.2-21.1,0-37.1,6.6-47.6,19.5-10.7,13.2-16.1,32.3-16.1,56.6s5.4,43.4,16.1,56.8c10.5,13.1,26.5,19.7,47.6,19.7a93.85,93.85,0,0,0,24.2-3,129.64,129.64,0,0,0,20.1-7.1,111.1,111.1,0,0,0,18.6-10l2.5-1.7L505,517.4ZM1974.1,343.3v-.1a19.15,19.15,0,0,1,38.3-.1v.1a19.15,19.15,0,1,1-38.3.1Zm36-.1v-.1a17,17,0,0,0-33.9.1v.1a17,17,0,1,0,33.9-.1Zm-24.4-10.1h8.8c4.3,0,7.5,2.1,7.5,6.1a5.82,5.82,0,0,1-4.5,5.9l5.2,7.4h-4.5l-4.6-6.7h-4.1v6.7h-3.7l-.1-19.4Zm8.4,9.7c2.5,0,3.9-1.3,3.9-3.2,0-2.1-1.4-3.2-3.9-3.2h-4.7v6.4Z"/></g></svg>