<svg version="1.1" id="Layer_1" xmlns="http://www.w3.org/2000/svg" x="0" y="0" viewBox="0 0 2012.3 656.9" style="enable-background:new 0 0 2012.3 656.9" xml:space="preserve"><style>.st0{fill:#020302}</style><g id="Layer_1-2"><path class="st0" d="M180.2 160.8h-.4c-1.7.4-3.4 1.1-5 1.9-1.1.5-2.1 1-3.1 1.4-1.5.6-3.1 1.2-4.7 1.6-3 .7-6.2.9-9.3.5-11.2-1.4-19.9-10.5-25.4-21.8 3.8 1 7.8 1.5 11.7 1.7 9.5.6 21.8.5 29.7-.8.7-.1 1.5-.1 2.2-.1 10.4.5 13.9 17.6 13.9 17.6s-3.2-3.3-9.6-2M322 213.1c-18.7-12-22.7-42.5-22.7-42.5-26.2-8.6-51.6-19.2-76.2-31.6-17-11.4-21-18.2-46.7-25.6 55-46.1 35.1-121.9 29.6-95.5-4.3 20.8-43.6 69.1-60.6 89.5-1.1 0-3.7.7-4.8.7 40.7-49 23.4-122.5 19-105.5-7 27.2-75.6 133.3-75.6 133.3S43.8 172 39.5 182.6c0 0 9.5-2.3 14.6-1.9 0 0-37.2 67.5-37.9 97.5 0 0 6.1-6.6 9.7-9-.2 9.1 10 71.4 14 95.4 4.6 27.7 4.5 57.1-23.6 66.7-5.3 1.8-10.8 2.6-16.3 2.4C44.2 492.7 136.9 657 136.9 657c39.6-28 64.6-66.6 71.3-85.4 1 .1 12.7 5.3 12.7 5.3 23.8-46.6 14-105.2 6.4-120.1 11.9 7 16.2 6 16.2 6-1.3-12.2-22.3-62.8-22.3-62.8 13.8 1.8 17.6-2.8 17.6-2.8-25.8-17.4-40.3-65.3-40.3-65.3 6 3.5 9 4.7 20.6 11.1-19.6-39.2-50.2-77-50.2-77 16.6 5 40.9-12.6 51.7-17.9 8.3-3.9 17-7.1 25.9-9.6 10.4.3 23.3 9.4 32.9 8.7 11.8-.8 36.4-27.1 39.7-26.9 3.6.2 6-5.2 2.9-7.2M1905 275.2v31h46.2v-20.1zM1867.5 329.9v35.9h39.8v140.3h-39.8V542h123.4v-35.9H1951V329.9zM1842.9 506.1V542h-115.6v-35.9h17.4l-42.5-44.5-37.5 44.5h17.5V542h-107.9v-35.9h43.4l59.6-71.1-65.4-69.2h-37.6v-35.9h115.2v35.9h-22l44 46.6 38.3-46.6h-17.9v-35.9h102.3v35.9h-37.7L1736 438l64.8 68.1zM1436.2 510.4c-4.9-1-9.5-3-13.7-5.7-3.7-2.5-6.8-5.8-9.1-9.6-2.3-4.1-3.5-8.7-3.3-13.4 0-6.5 1.1-11.7 3.2-15.5 1.8-3.6 4.7-6.5 8.3-8.4 3.9-2.1 8.1-3.5 12.5-4 5.1-.7 10.2-1 15.4-1l57.9.5v42.4c-2.2 1.5-4.7 3.2-7.7 5-3.8 2.3-7.8 4.2-12 5.7-5.1 1.8-10.3 3.3-15.6 4.3-11.2 2.2-24.5 2.5-35.9-.3m114.3-92.1c0-6.2-.2-13-.5-20.8-.3-7.3-1.3-14.5-3-21.6-1.7-7.1-4.5-14-8.2-20.3-4-6.7-9.4-12.5-15.8-17.1-6.7-4.9-15.3-8.7-25.5-11.5s-22.6-4.2-37.2-4.2c-9.4-.1-18.9.7-28.2 2.2-7.5 1.1-14.9 2.7-22.2 4.7-7 1.7-13.8 3.9-20.4 6.7l-1.5.6-8.6 48.2 36.7 7 5-27.7c3.7-1 8.7-2.1 14.9-3.1 8.5-1.3 17-2 25.6-1.9 8.4 0 15.4.9 21 2.6s9.9 3.9 13.1 6.7c3.1 2.6 5.5 5.8 7.1 9.5 1.7 3.8 2.8 7.8 3.4 11.9.7 4.2 1 8.5.9 12.8-.1 4.5-.1 8.8-.1 12.9v.6l-59-.5c-10.7 0-21.4 1.2-31.9 3.6-9.5 2.2-18.4 6.1-26.4 11.6a56.17 56.17 0 0 0-18 20.7c-4.3 8.4-6.5 18.5-6.3 30.1.1 9.2 2.1 18.4 6.1 26.7 4.1 8.3 10 15.5 17.2 21.4 8 6.3 17.2 11.1 27 14 11.5 3.4 23.5 5 35.6 4.9 14.5 0 27.8-2.2 39.5-6.6 6-2.6 11.6-6 16.6-10.2l.2 9.8h43.5l-.6-123.7zM1303.9 429.5c.1 11.4-1.3 22.8-4.1 33.9-2.4 9.4-6.5 18.3-12.1 26.2-5.2 7.1-12 12.9-19.9 16.8-7.9 4-17.2 6-27.6 6h-.7c-7.1.1-14.3-.5-21.3-1.8-5.5-1-10.9-2.4-16.2-4.2-4-1.2-7.8-2.9-11.4-4.9V376c4-3 8.3-5.6 12.8-7.7 5.3-2.4 10.8-4.4 16.5-5.9 7.2-1.8 14.6-2.7 22.1-2.7h.1c41.5 0 61.8 22.8 61.8 69.8m36.7-45.8c-9.3-25.5-29.7-45.4-55.4-54.1-13.7-4.6-28.1-6.9-42.6-6.8-6.4 0-12.8.6-19.1 1.8-6 1.2-11.8 2.8-17.6 4.8-5.4 1.9-10.7 4.2-15.7 6.8-4.3 2.2-8.2 4.5-11.8 6.8l-65.9-22.6-11.2 35.7 45.7 15.2v234.5h-40.3v35.9h124.2v-35.9h-40.3v-63.7c6.7 1.9 13.4 3.5 20.2 4.6 9.8 1.7 19.8 2.5 29.8 2.4 15.9 0 30.6-3 43.7-8.8 13-5.7 24.7-14.2 34.1-24.8 9.8-11 17.2-23.9 22-37.8 5.2-14.5 7.8-30.8 7.8-48.3 0-17.1-2.5-32.5-7.6-45.7"></path><path class="st0" d="M997.2 512.3c-21.4 0-37-6.4-47.6-19.5-10.7-13.2-16.1-32.3-16.1-56.5s5.4-43.5 16.1-56.8 26.3-19.8 47.6-19.8 37.6 6.7 48.3 19.8c10.9 13.4 16.3 32.5 16.3 56.8 0 24.5-5.5 43.5-16.2 56.5s-26.5 19.5-48.4 19.5m101.3-123.4c-4.9-13.3-12.5-25.4-22.3-35.7-9.9-9.9-21.7-17.6-34.8-22.6-13.5-5.1-28.5-7.7-44.7-7.7-15.8 0-30.4 2.6-43.5 7.8-12.9 5-24.6 12.7-34.3 22.5-9.9 10.2-17.5 22.4-22.3 35.8-5.2 14-7.7 30-7.7 47.4s2.6 33.3 7.7 47.3c4.8 13.3 12.4 25.4 22.3 35.6 9.7 9.8 21.4 17.4 34.3 22.4 13.9 5.2 28.7 7.8 43.5 7.7 15.2.1 30.4-2.5 44.7-7.7a97.29 97.29 0 0 0 34.8-22.4c9.8-10.2 17.4-22.3 22.3-35.6 5.3-14 8-29.9 8-47.3s-2.6-33.5-8-47.5M889 542.6l-2.6 1c-3.2 1.2-6.5 2.2-9.8 2.9-3.5.9-7.1 1.6-10.7 2-4.4.4-8.7.7-13.2.7-10.5.1-21-1.6-30.9-5.1-9-3.3-17.1-8.6-23.7-15.6-6.7-7.4-11.8-16.2-14.8-25.7-3.4-10.1-5.1-22-5.1-35.5V365.8h-39.8v-35.9h39.8v-41.1l43-10.1v51.1h60v35.9h-60v80.5c0 6.4.1 13.5.3 21.3.2 7.3 1.4 14.6 3.5 21.7 1.8 6.2 5.2 11.9 9.8 16.5 4.5 4.4 11.2 6.9 20 7.5 5.2 0 10.4-.4 15.5-1.1 6.8-1.2 7.4-1.2 7.7-1.2h2.4l8.6 31.7zM675.7 492.9c-10.5 12.9-26.9 19.5-48.4 19.5-21 0-37.1-6.5-47.6-19.5-10.6-13.3-16-32.3-16-56.5s5.4-43.5 16-56.8 26.6-19.8 47.6-19.8c21.4 0 37.7 6.6 48.3 19.9 10.8 13.3 16.3 32.4 16.3 56.7s-5.5 43.4-16.2 56.5m53-104c-4.9-13.3-12.6-25.4-22.4-35.6-9.8-9.9-21.6-17.6-34.7-22.5-13.4-5.2-28.4-7.8-44.7-7.8-14.9-.2-29.7 2.5-43.6 7.8-12.9 5-24.6 12.7-34.3 22.5-9.5 9.6-16.9 21.7-22.2 35.7s-7.8 30-7.8 47.4 2.6 33.3 7.8 47.3 12.7 26 22.2 35.6c9.7 9.8 21.4 17.4 34.3 22.4 13.9 5.3 28.7 7.9 43.6 7.7 16.3 0 31.3-2.6 44.7-7.7 13.1-4.8 24.9-12.5 34.7-22.4 9.9-10.2 17.5-22.3 22.4-35.6 5.2-13.9 7.9-29.8 7.9-47.3s-2.7-33.6-7.9-47.5M505 517.4v.9c0 1.8-.3 2.1-7.8 7.1-5.7 3.7-11.7 6.9-17.9 9.7-8.5 3.9-17.3 7.2-26.3 9.7-10.5 3-21.3 4.6-32.2 4.5-14.9.1-29.6-2.5-43.5-7.9-12.9-5-24.6-12.6-34.3-22.5-9.8-10.2-17.4-22.4-22.2-35.8-5.2-13.9-7.8-29.9-7.8-47.3s2.6-33.4 7.8-47.2c4.8-13.3 12.4-25.4 22.2-35.6 9.7-9.8 21.4-17.5 34.3-22.4 13.9-5.2 28.7-7.8 43.5-7.7 9.9-.1 19.7.5 29.5 1.9 7 .9 13.9 2.3 20.7 4 5.7 1.5 11.3 3.4 16.7 5.8l1.4.7 10.9 56.3-36.8 8.1-6.4-34.8c-1.8-.6-4.9-1.5-10.3-3-6-1.5-14.5-2.2-25.4-2.2-21.1 0-37.1 6.6-47.6 19.5-10.7 13.2-16.1 32.3-16.1 56.6s5.4 43.4 16.1 56.8c10.5 13.1 26.5 19.7 47.6 19.7 8.2.1 16.3-1 24.2-3 6.9-1.8 13.6-4.2 20.1-7.1 6.5-2.7 12.7-6.1 18.6-10l2.5-1.7 18.5 26.9zM1974.1 343.3v-.1c0-10.6 8.5-19.1 19.1-19.2 10.6 0 19.1 8.5 19.2 19.1v.1c0 10.6-8.5 19.1-19.1 19.2-10.6 0-19.2-8.5-19.2-19.1zm36-.1v-.1c0-9.3-7.6-16.9-17-16.9s-16.9 7.6-16.9 17v.1c0 9.3 7.6 16.9 17 16.9s16.9-7.6 16.9-17zm-24.4-10.1h8.8c4.3 0 7.5 2.1 7.5 6.1.1 2.8-1.8 5.3-4.5 5.9l5.2 7.4h-4.5l-4.6-6.7h-4.1v6.7h-3.7l-.1-19.4zm8.4 9.7c2.5 0 3.9-1.3 3.9-3.2 0-2.1-1.4-3.2-3.9-3.2h-4.7v6.4h4.7z"></path></g></svg>