<?xml version="1.0" encoding="UTF-8"?><svg id="Layer_1" xmlns="http://www.w3.org/2000/svg" viewBox="0 0 127.58 127.58"><defs><style>.cls-1{fill:#ee3123;}</style></defs><path class="cls-1" d="m11.53,60.88c.38,0,.71-.24.71-.75v-3.9c0-.51-.33-.75-.71-.75s-.72.24-.72.75v3.9c0,.51.33.75.72.75m104.43-.98v-3.56c0-.58-.2-.91-.82-.91h-.48v5.39h.48c.59,0,.82-.29.82-.92m-28.38,42.67c-2.02,1.22-2.43,3.63-1.18,5.69,1.25,2.07,3.57,2.82,5.59,1.59,2.01-1.22,2.43-3.63,1.18-5.7-1.25-2.06-3.58-2.81-5.59-1.59m-64.1-9.48c-1.84,1.57-2.21,3.98-.68,5.77,1.53,1.8,3.97,1.82,5.81.25,1.84-1.56,2.21-3.98.68-5.77-1.53-1.8-3.97-1.82-5.81-.25m98.25-35.49v1h-1.82v2.17h2.1v1.06h-3.15v-7.38h3.15v.99h-2.1v2.17h1.82Zm-3.76,7.33h-8.68v-.9h8.68v.9Zm-2.21,20.75c-.98,2.27-2.69,3.27-4.41,3.38l-.3-2.49c1.08-.16,2-.57,2.52-1.77.43-1.01.21-1.88-.49-2.18-.84-.36-1.42.18-2.39,1.09l-.52.5c-1.51,1.44-2.96,2.21-4.95,1.35-1.83-.79-2.63-2.79-1.69-4.97.67-1.55,1.69-2.44,3.45-2.64l.4,2.43c-.93.1-1.42.42-1.72,1.12-.31.72-.05,1.36.55,1.62.73.32,1.23-.01,2.13-.87l.53-.5c1.78-1.7,3.2-2.48,5.24-1.6,2.2.95,2.66,3.2,1.66,5.52m-5.33,9.87l-8.88,1.11c-.88.11-2.35.06-2.35.06,0,0,1.22.77,1.94,1.36l4.17,3.46-1.59,1.92-10.05-8.33.17-.21,8.88-1.11c.85-.11,2.33-.04,2.33-.04,0,0-1.24-.8-1.92-1.37l-4.17-3.46,1.59-1.92,10.05,8.33-.17.21Zm-17.2,16.34c-3.19,1.93-7.18,1.06-9.17-2.21-1.98-3.27-.9-7.22,2.29-9.15,3.19-1.93,7.18-1.06,9.16,2.21,1.98,3.27.9,7.21-2.29,9.15m-14.98,6.18l-3.59-12.43,2.56-.74,3.59,12.43-2.56.74Zm-10.51,1.74l-2.66.12-.5-10.58-3.68.17-.11-2.34,10.03-.47.11,2.34-3.69.17.5,10.58Zm-13.11-5.18c-.89,3.15-3.5,4.05-6.33,3.25-2.88-.81-4.62-2.95-3.74-6.09l2.24-7.95,2.56.72-2.2,7.8c-.51,1.81.08,2.73,1.78,3.21,1.68.47,2.65,0,3.16-1.82l2.2-7.8,2.56.72-2.24,7.95Zm-15.72-2.89l-1.27,1.97-7.16-4.61,7-10.88,2.24,1.44-5.73,8.91,4.93,3.17Zm-17.91-11.33c-2.42-2.84-2.2-6.92.71-9.4,2.91-2.48,6.98-2.04,9.39.79,2.42,2.84,2.2,6.92-.71,9.4-2.91,2.48-6.98,2.04-9.39-.79m-4-12.05c-2.21.93-4.15-.3-5.13-2.63-.96-2.28-.49-4.21.63-5.53l2,1.51c-.64.89-.98,1.84-.47,3.05.43,1.02,1.21,1.45,1.91,1.16.84-.35.86-1.14.88-2.47v-.72c.01-2.09.47-3.66,2.47-4.5,1.84-.78,3.83.04,4.76,2.23.65,1.56.58,2.91-.5,4.32l-2.03-1.39c.58-.74.68-1.32.39-2.02-.3-.72-.95-.98-1.54-.73-.74.31-.84.89-.86,2.14v.72c-.02,2.46-.44,4.02-2.49,4.89m-7.22-24.33h8.68v.9h-8.68v-.9Zm-.01-7.79c0-1.2.91-1.81,1.77-1.81s1.77.6,1.77,1.81v3.9c0,1.2-.91,1.8-1.77,1.8s-1.77-.6-1.77-1.8v-3.9Zm-1.56.38h-1.06v-.24c0-.49-.21-.89-.75-.89-.58,0-.71.47-.71.95,0,.57.05.77.6.98l.81.32c.93.35,1.11.95,1.11,2.02,0,1.25-.46,2.17-1.82,2.17-1.03,0-1.81-.76-1.81-1.75v-.39h1.06v.33c0,.38.21.76.75.76.71,0,.77-.42.77-1.1,0-.79-.09-.91-.61-1.12l-.76-.31c-.91-.37-1.15-.98-1.15-1.9,0-1.12.6-2.02,1.82-2.02,1.06,0,1.76.85,1.76,1.67v.52Zm6.87-2.13h1.06v5.62c0,.52.28.77.65.77s.65-.25.65-.77v-5.62h1.06v5.72c0,.96-.77,1.72-1.71,1.72s-1.71-.76-1.71-1.72v-5.72Zm7.02,1c-.58,0-.71.47-.71.95,0,.57.05.77.6.98l.81.32c.94.35,1.11.95,1.11,2.02,0,1.25-.45,2.17-1.82,2.17-1.03,0-1.8-.76-1.8-1.75v-.39h1.06v.33c0,.38.21.76.75.76.71,0,.77-.42.77-1.1,0-.79-.09-.91-.61-1.12l-.76-.31c-.91-.37-1.15-.98-1.15-1.9,0-1.12.6-2.02,1.82-2.02,1.06,0,1.76.85,1.76,1.67v.52h-1.06v-.24c0-.49-.21-.89-.75-.89m-1.61-27.63c1.47-1.82,3.17-2.6,5.31-2.37l-.15,2.49c-1.15-.15-2.36.23-3.29,1.38-1.47,1.82-1.05,4.18.83,5.7,1.88,1.52,4.31,1.45,5.78-.37,1.05-1.3,1.01-2.53.61-3.79l2.41-.72c.66,1.97.39,4.06-1.17,6-2.33,2.89-6.37,3.41-9.35,1.01-2.98-2.4-3.3-6.45-.97-9.34m12.28-10.91l4.17,6.95c.97,1.62,2.04,1.82,3.56.91,1.5-.9,1.81-1.93.85-3.55l-4.16-6.95,2.29-1.37,4.24,7.09c1.68,2.81.55,5.33-1.98,6.84-2.56,1.53-5.32,1.34-7-1.47l-4.24-7.09,2.28-1.37Zm18.21-7.81l3.24,12.53-2.58.67-3.24-12.52,2.58-.67Zm12.48,6.21l-.67-.28c-1.92-.81-3.2-1.83-3.21-4,0-2,1.51-3.52,3.89-3.53,1.69,0,2.91.58,3.79,2.12l-2.07,1.34c-.46-.82-.95-1.14-1.72-1.14-.78,0-1.27.5-1.27,1.14,0,.8.5,1.12,1.64,1.61l.67.28c2.27.96,3.54,1.95,3.55,4.17,0,2.4-1.87,3.71-4.4,3.72-2.47,0-4.07-1.17-4.86-2.71l2.16-1.26c.57.93,1.32,1.61,2.63,1.61,1.1,0,1.81-.56,1.8-1.32,0-.91-.73-1.23-1.94-1.76m12.92-6.26l2.58.66-3.2,12.53-2.58-.66,3.2-12.53Zm11.65,3.69l.23.14,2.46,8.61c.24.83.4,2.3.4,2.3,0,0,.6-1.35,1.06-2.11l2.78-4.65,2.14,1.28-6.7,11.2-.23-.14-2.46-8.61c-.24-.85-.41-2.31-.41-2.31,0,0-.57,1.32-1.05,2.12l-2.78,4.66-2.14-1.28,6.69-11.2Zm11.83,51.01c0,19.92-16.14,36.07-36.06,36.07s-36.06-16.15-36.06-36.07S43.88,27.73,63.79,27.73s36.06,16.15,36.06,36.06m8.3-9.36l-1.52,7.38h-.93l-1.5-7.38h1.12l.84,5.15h.02l.85-5.15h1.12Zm1.74-22.91l-1.81,1.48-3.74-4.56-3.18,2.61,3.29,4.02-1.76,1.45-3.29-4.02-1.44,1.18,3.91,4.77-1.81,1.48-5.59-6.83,10-8.2,5.43,6.62Zm.38,22.91h1.06v7.38h-1.06v-7.38Zm3.33,0h1.57c1.19,0,1.85.72,1.85,1.91v3.45c0,1.37-.7,2.02-1.95,2.02h-1.47v-7.38ZM63.79,0C28.56,0,0,28.56,0,63.79s28.56,63.79,63.79,63.79,63.79-28.56,63.79-63.79S99.02,0,63.79,0m7.22,56.87c-1.09-4.32-3.58-6.55-7.28-6.55-3.97,0-6.77,2.67-6.77,6.44,0,1.61.51,3.14,1.44,4.36.97,1.26,1.13,1.41,4.75,4.28,3.04,2.39,3.85,3.45,3.85,5.1,0,1.76-1.21,2.98-2.96,2.98-2.14,0-3.5-1.57-4.01-4.71l-3.86,1.14c.82,4.98,3.43,7.38,7.86,7.38s7.12-2.71,7.12-6.67c0-1.77-.62-3.49-1.67-4.79-.86-1.06-1.67-1.8-3.85-3.53q-2.76-2.12-3.43-2.87c-.7-.74-1.09-1.73-1.09-2.63,0-1.53,1.13-2.67,2.61-2.67,1.64,0,2.81,1.29,3.43,3.88l3.85-1.14Zm-31.67,7.03v-.14c0-13.61,10.17-24.88,24.33-24.88,8.73,0,13.95,3.09,18.76,7.63l-3.71,3.98c-4.05-3.85-8.59-6.6-15.11-6.6-10.65,0-18.62,8.66-18.62,19.73v.14c0,11.13,8.04,19.86,18.62,19.86,6.6,0,10.92-2.54,15.53-6.94l3.57,3.5c-5.01,5.09-10.51,8.45-19.24,8.45-13.88,0-24.12-10.93-24.12-24.74m-.81.84h-8.52c0,.2,0,.39.02.59h8.52c-.01-.2-.01-.39-.02-.59m.18,2.49h-8.55c.02.2.05.39.07.59h8.55c-.03-.19-.05-.39-.07-.59m-.16-4.98h-8.53c0,.19,0,.39-.02.59h8.52c0-.2.01-.39.02-.59m1.23,9.96h-8.74c.05.2.11.39.17.59h8.76c-.07-.2-.13-.39-.19-.59m.93,2.49h-8.92c.07.2.13.39.2.59h8.98c-.09-.19-.18-.39-.27-.59m-1.92-14.95h-8.57c-.02.2-.05.39-.07.59h8.57c.03-.2.04-.39.07-.59m.33,9.97h-8.61c.03.2.07.39.1.59h8.63c-.05-.19-.09-.39-.13-.59m15.08-29.9h-14.26c-.19.19-.38.39-.57.59h13.48c.44-.21.89-.4,1.34-.59m-4.65,2.49h-11.87c-.16.19-.31.39-.46.59h11.52c.27-.2.54-.4.82-.59m-3.08,2.49h-10.66c-.13.19-.26.39-.38.59h10.44c.2-.2.4-.39.6-.59m-7.19,12.46h-8.66c-.04.19-.07.39-.11.59h8.64c.04-.2.08-.39.13-.59m2.68,19.93h-9.2c.08.2.17.39.27.59h9.29c-.12-.2-.24-.39-.35-.59m-1.93-22.42h-8.82c-.05.2-.11.39-.17.59h8.79c.06-.2.12-.39.19-.59m2.4-4.98h-9.4c-.09.2-.18.39-.27.59h9.31c.11-.2.24-.39.36-.59m1.76-2.49h-9.9c-.11.19-.22.39-.32.59h9.77c.15-.2.3-.4.45-.59m-3.12,4.98h-9.07c-.07.19-.13.39-.2.59h8.99c.09-.2.18-.39.27-.59m42.98,27.89l-.1.1h9.33c.11-.2.22-.39.32-.59h-10.06l.5.49Zm-2.44-2.39h12.93c.09-.2.18-.39.27-.59h-13.8l.6.59Zm-11.09-2.49h25.05c.07-.19.13-.39.2-.59h-24.84c-.13.2-.27.4-.41.59m10.85,7.47h10.38c.13-.19.26-.39.38-.59h-10.12c-.21.2-.43.39-.65.59m3.44-45.43h-42.05c-.24.19-.48.39-.72.59h43.5c-.24-.2-.48-.39-.72-.59m-13.04,35.46h24.58c.06-.2.12-.39.17-.59h-24.61c-.04.2-.09.4-.14.59m-1.58-7.55s.04.05.06.08h27.29c0-.2,0-.39.02-.59h-27.8c.15.17.29.33.43.51m1.4,2.57h25.74c.02-.2.05-.39.07-.59h-26.04c.08.19.16.39.23.59m.46,2.49h24.89c.04-.2.07-.39.11-.59h-25.04c.02.2.03.39.04.59m-8.27,27.27c1.89,0,3.74-.16,5.55-.46h-11.09c1.8.3,3.66.46,5.55.46m-15.22-12.91h-11.34c.15.19.3.39.46.59h11.7c-.28-.19-.55-.39-.82-.59m-2.84-2.49h-10.29c.13.2.25.4.38.59h10.5c-.2-.19-.4-.39-.6-.59m6.98,4.98h-13.32c.19.2.37.4.57.59h14.11c-.46-.18-.91-.38-1.36-.59m-9.1-7.48h-9.64c.11.2.22.39.32.59h9.76c-.15-.19-.3-.39-.44-.59m-.84,10.55h42.05c.24-.19.49-.39.72-.59h-43.49c.24.2.48.39.72.59m8.61,4.98h24.84c.47-.19.93-.38,1.39-.59h-27.62c.46.21.92.4,1.39.59m-5.04-2.49h34.92c.31-.19.62-.39.92-.59h-36.76c.3.2.61.4.92.59m31.87-7.47h11.69c.16-.19.31-.39.46-.59h-11.32c-.27.2-.55.39-.84.59m-4.7,2.49h14.12c.19-.19.38-.39.57-.59h-13.33c-.44.21-.89.4-1.36.59m-11.88-22.42c-.26-.21-.51-.41-.73-.59h-14.9c0,.2.03.39.04.59h15.6Zm3,2.49c-.19-.18-.41-.38-.65-.59h-17.73c.03.2.07.39.11.59h18.27Zm1.38,1.9h-4.83c.06.21.12.41.18.59h4.74c0-.2-.04-.39-.1-.59m-15.14-19.34h8.9c.44-.24.9-.43,1.4-.59h-9.74c-.19.19-.38.39-.56.59m14.42,21.83h-2.59c.55.35,1.08.35,1.35.35.49,0,.91-.13,1.24-.35m12.05-21.83c-.23-.2-.46-.39-.68-.59h-10.34c.46.14.92.33,1.37.59h9.65Zm-13.92-5.57c-1.51.02-2.96.22-4.34.59h9.51c-1.46-.38-2.98-.57-4.6-.59h-.57Zm-9.72,3.08h20.41c-.32-.21-.63-.4-.95-.59h-18.56c-.31.19-.61.38-.91.59m2.31,24.91c-.07-.19-.13-.39-.2-.59h-8.05c.09.2.18.39.28.59h7.97Zm18.08,6.88h-20.15c.3.21.6.4.91.59h18.29c.32-.19.64-.38.95-.59m-5.68,2.49h-9.02c1.37.35,2.8.54,4.29.54,1.73,0,3.29-.19,4.73-.54m-.66-19.34h29.81c0-.2,0-.39-.02-.59h-30.51c.26.21.5.4.71.59m-12.41,7.48c-.02-.09-.04-.17-.05-.26l-.05-.33h-8.41c.06.2.12.39.18.59h8.33Zm-6.38-17.44h8.16c.12-.2.26-.4.4-.59h-8.18c-.13.19-.26.39-.39.59m8.43,22.42c-.15-.19-.29-.38-.42-.59h-7.84c.13.2.26.4.4.59h7.87Zm3.72,2.49c-.52-.15-1-.35-1.45-.59h-8.6c.19.2.38.4.57.59h9.47Zm16.2-.59h-9.08c-.45.24-.93.43-1.44.59h9.83c.23-.19.45-.39.68-.59m-13.52-47.2c-1.89,0-3.74.16-5.54.46h11.09c-1.8-.3-3.65-.46-5.54-.46m18.83,15.41h9.52c-.13-.2-.25-.39-.38-.59h-9.79c.22.2.44.39.65.59m-.16,2.49h11.16c-.1-.2-.21-.39-.32-.59h-10.29l-.55.59Zm-2.32,2.49h14.68c-.09-.2-.18-.39-.27-.59h-13.87l-.55.59Zm-4.64-9.97h12.69c-.19-.2-.37-.4-.57-.59h-13.47c.46.18.91.38,1.35.59m.71-8.06h-24.84c-.47.18-.93.38-1.39.59h27.62c-.46-.21-.92-.4-1.39-.59m-5.91,20.52h25.48c-.07-.19-.13-.39-.2-.59h-25.7c.14.18.28.38.42.59m10.95-18.02h-34.92c-.31.19-.62.39-.92.59h36.77c-.3-.2-.61-.4-.92-.59m-1.62,8.06h10.72c-.15-.2-.3-.39-.46-.59h-11.09c.28.19.56.39.83.59m-32,12.46h8.55c.03-.2.08-.4.13-.59h-8.41c-.09.19-.19.39-.27.59m-1.42,4.98h10.67c-.09-.19-.18-.39-.26-.59h-10.32c-.04.19-.06.39-.09.59m.54-2.49h9.39c-.02-.2-.05-.39-.06-.59h-9.15c-.06.19-.12.39-.18.59m15.96-2.49h2.06c-.31-.22-.65-.34-1.02-.34-.4,0-.75.13-1.03.34m9.5,2.49h24.86c-.04-.2-.07-.39-.11-.59h-24.91l.16.59Zm-.7-2.49h25.03c-.05-.2-.11-.39-.17-.59h-25.08c.08.19.15.39.22.59m-25.52,7.47h12.7c-.19-.19-.35-.38-.52-.59h-12.15c-.01.19-.02.39-.03.59m16.28-4.98h3.92c-.06-.21-.12-.4-.18-.59h-3.92c.04.2.1.39.18.59m2.35,2.49h32.81c-.02-.2-.05-.39-.07-.59h-33.48c.19.15.42.34.74.59"/><path class="cls-1" d="m113.09,118.9v-2.95h-1.06v-.54h2.72v.54h-1.06v2.95m5.2,0v-3.49h-.86l-.95,2.3-.95-2.3h-.86v3.49h.61v-2.59l1.07,2.59h.26l1.07-2.59v2.59"/></svg>