<?xml version="1.0" encoding="UTF-8"?><svg id="Layer_1" xmlns="http://www.w3.org/2000/svg" viewBox="0 0 126 41.6"><defs><style>.cls-1,.cls-2,.cls-3,.cls-4,.cls-5{fill:#fff;}.cls-2{opacity:.25;}.cls-2,.cls-3,.cls-4,.cls-5{fill-rule:evenodd;}.cls-3{opacity:.5;}.cls-4{opacity:.75;}</style></defs><path class="cls-1" d="m74.48,30.29h-3.66v-10.4h-1.63v-3.13h2.37c1.61,0,2.92,1.31,2.92,2.92v10.62Z"/><path class="cls-1" d="m110.33,30.34h-2.37c-1.61,0-2.92-1.31-2.92-2.92V10.91h3.66v16.22h1.63v3.22Z"/><path class="cls-1" d="m118.89,16.41c-3.92,0-7.11,3.18-7.11,7.11s3.18,7.11,7.11,7.11,7.11-3.18,7.11-7.11-3.18-7.11-7.11-7.11Zm0,10.9c-2.1,0-3.79-1.7-3.79-3.79s1.7-3.79,3.79-3.79,3.8,1.7,3.8,3.79-1.7,3.79-3.8,3.79Z"/><path class="cls-1" d="m100.29,25.56c-.68,1.06-1.86,1.75-3.2,1.75-2.1,0-3.79-1.7-3.79-3.79s1.7-3.79,3.79-3.79c1.34,0,2.52.7,3.2,1.75l2.7-1.92c-1.28-1.89-3.44-3.13-5.9-3.13-3.92,0-7.11,3.18-7.11,7.11s3.18,7.11,7.11,7.11c2.46,0,4.62-1.25,5.9-3.14l-2.7-1.94Z"/><path class="cls-1" d="m66.97,30.28V10.92h-3.66v6.51c-1.07-.65-2.32-1.02-3.66-1.02-3.93,0-7.11,3.18-7.11,7.11s3.18,7.11,7.11,7.11c1.35,0,2.6-.37,3.67-1.02v.68h3.66Zm-7.33-2.97c-2.1,0-3.79-1.7-3.79-3.79s1.7-3.79,3.79-3.79,3.79,1.7,3.79,3.79c0,2.1-1.69,3.79-3.79,3.79Z"/><path class="cls-1" d="m88.1,26.1c0,1.34-.5,2.42-1.49,3.24-.97.82-2.22,1.22-3.74,1.22-1.01,0-2.07-.18-3.16-.53-1.09-.37-2.08-.92-2.96-1.63l1.67-2.4c1.42,1.1,2.92,1.66,4.52,1.66.49,0,.88-.09,1.16-.28.29-.2.43-.47.43-.79s-.2-.62-.61-.89c-.38-.27-.96-.53-1.72-.76-.74-.24-1.32-.44-1.72-.61-.38-.17-.83-.42-1.34-.74-1.03-.65-1.54-1.6-1.54-2.86s.5-2.32,1.51-3.11c1.01-.8,2.32-1.2,3.92-1.2s3.2.55,4.8,1.63l-1.42,2.55c-1.18-.82-2.36-1.22-3.54-1.22s-1.74.32-1.74.97c0,.36.19.64.56.84.37.2.99.44,1.84.71.86.27,1.46.48,1.82.64.37.14.81.36,1.32.66.95.56,1.42,1.53,1.42,2.89Z"/><circle class="cls-1" cx="72.61" cy="12.76" r="2.2"/><path class="cls-3" d="m31.28,3.56c2.57,0,4.97-.25,6.98-.68-.43,2.01-.68,4.41-.68,6.98s.25,4.97.68,6.98c-2.01-.43-4.41-.68-6.98-.68s-4.97.25-6.98.68c.43-2.01.68-4.41.68-6.98s-.25-4.97-.68-6.98c2.01.43,4.41.68,6.98.68Z"/><path class="cls-4" d="m9.87,37.63c-2.57,0-4.97.25-6.98.68.43-2.01.68-4.41.68-6.98s-.25-4.97-.68-6.98c2.01.43,4.41.68,6.98.68s4.97-.25,6.98-.68c-.43,2.01-.68,4.41-.68,6.98s.25,4.97.68,6.98c-2.01-.43-4.41-.68-6.98-.68Z"/><path class="cls-2" d="m26.82,26.88c1.82-1.82,3.34-3.69,4.46-5.42,1.12,1.73,2.64,3.6,4.46,5.42,1.82,1.82,3.69,3.34,5.42,4.46-1.73,1.12-3.6,2.64-5.42,4.46-1.82,1.82-3.34,3.69-4.46,5.42-1.12-1.73-2.64-3.6-4.46-5.42-1.82-1.82-3.69-3.34-5.42-4.46,1.73-1.12,3.6-2.64,5.42-4.46Z"/><path class="cls-5" d="m14.33,14.33c-1.82,1.82-3.34,3.69-4.46,5.42-1.12-1.73-2.64-3.6-4.46-5.42C3.6,12.51,1.73,10.99,0,9.87c1.73-1.12,3.6-2.64,5.42-4.46S8.76,1.73,9.87,0c1.12,1.73,2.64,3.6,4.46,5.42,1.82,1.82,3.69,3.34,5.42,4.46-1.73,1.12-3.6,2.64-5.42,4.46Z"/></svg>