<?xml version="1.0" encoding="UTF-8"?><svg id="Layer_1" xmlns="http://www.w3.org/2000/svg" viewBox="0 0 630.82 81.9"><defs><style>.cls-1{fill:#e58673;}.cls-2{fill:#f0da8e;}.cls-3{fill:#201f4d;}.cls-4{fill:#8891b4;}</style></defs><path class="cls-4" d="m87.66,17.75c.33,1.86.45,3.75.37,5.63-.04,3.61-.62,7.2-1.74,10.63-.54,1.68-1.17,3.41-1.82,5.06-.87,1.99-1.87,3.91-3,5.76-.88,1.41-1.84,2.77-2.87,4.07-1,1.34-2,2.66-3.12,3.92-2.34,2.61-4.85,5.07-7.5,7.37-1.41,1.26-2.89,2.43-4.45,3.5l-.23.15c0-.26-.07-.51-.1-.77-.45-2.91-1.12-5.77-2-8.58-.9-3.32-1.78-6.65-2.86-9.93-.49-1.5-.9-3-1.41-4.53s-1.1-3.12-1.7-4.67c-1.23-3.16-2.53-6.29-3.88-9.39-.77-1.75-1.52-3.51-2.32-5.24.91-2.49,1.81-5,2.87-7.38.68-1.53,1.37-3,2.15-4.51.9-1.84,1.99-3.59,3.23-5.22.64-.84,1.39-1.59,2.23-2.23,1.01-.76,2.21-1.21,3.47-1.3,2.84-.26,5.71.02,8.45.8,3,.99,5.76,2.57,8.13,4.66,2.55,2.15,4.71,4.73,6.38,7.63.8,1.43,1.38,2.97,1.72,4.57Z"/><path class="cls-2" d="m63.2,63.03c0,.26.07.51.1.77-.62.41-1.22.84-1.85,1.24-.3.21-.63.42-.93.62-.61.39-1.23.74-1.84,1.1-.86.44-1.77.76-2.72.94-1.83.45-3.75.31-5.5-.4-.83-.33-1.62-.76-2.34-1.28-.76-.6-1.44-1.31-2-2.1-.65-.87-1.18-1.81-1.57-2.82-.78-1.92-1.28-3.94-1.48-6-.12-2.26-.11-4.52.05-6.77.08-1.56.14-3.13.22-4.7.25-3.97.95-7.89,2.08-11.7.46-1.66,1-3.31,1.44-5s.94-3.07,1.49-4.57l.63-1.7c.8,1.73,1.55,3.49,2.32,5.24,1.33,3.1,2.63,6.23,3.88,9.39.6,1.55,1.17,3.1,1.7,4.67s.92,3,1.41,4.53c1.08,3.28,2,6.61,2.86,9.93.9,2.81,1.58,5.69,2.05,8.61Z"/><path class="cls-1" d="m63.3,63.8c.1.88.17,1.79.2,2.68.17,1.52.17,3.05,0,4.57-.16,1.16-.46,2.29-.89,3.38-.58,1.47-1.42,2.83-2.49,4-2,2-4.8,2.79-7.46,3.25-1.36.22-2.74.27-4.11.15-.98-.04-1.95-.23-2.87-.55-.9-.35-1.8-.7-2.69-1.12-1.41-.66-2.8-1.43-4.2-2.13s-2.76-1.3-4.09-2.12c-2.92-1.88-5.71-3.96-8.35-6.22-1.15-1-2.27-1.94-3.4-3s-2-1.93-3-2.88c-2.58-2.32-4.96-4.84-7.12-7.56-2.03-2.7-3.91-5.52-5.62-8.43-2.25-3.61-4.04-7.48-5.34-11.53-.71-2.21-1.23-4.47-1.56-6.76C.07,27.54-.03,25.54,0,23.53c.04-2.02.27-4.03.69-6,.44-1.91,1.16-3.74,2.13-5.44.9-1.64,2.01-3.16,3.29-4.52,1.21-1.29,2.62-2.39,4.18-3.23.7-.42,1.43-.77,2.19-1.07,1.9-.73,3.89-1.2,5.92-1.42,1-.22,1.93-.39,2.88-.53,1.86-.29,3.74-.41,5.62-.34h.2c.4-.02.8.02,1.19.13.74.08,1.48.22,2.21.4,1.87.49,3.67,1.22,5.35,2.18.69.41,1.36.85,2,1.33.97.65,1.89,1.38,2.75,2.17,2.6,2.41,4.32,5.66,6,8.83.83,1.54,1.59,3.11,2.32,4.72l-.63,1.7c-.55,1.5-1.07,3-1.49,4.57s-1,3.31-1.44,5c-1.13,3.81-1.83,7.73-2.08,11.7-.08,1.57-.14,3.14-.22,4.7-.12,2.22-.1,4.45.05,6.67.2,2.06.7,4.08,1.48,6,.38,1.01.89,1.97,1.52,2.84.56.79,1.24,1.5,2,2.1.72.52,1.5.95,2.33,1.28,1.75.71,3.67.85,5.5.4.95-.18,1.86-.5,2.72-.94.61-.36,1.23-.71,1.84-1.1.3-.2.63-.41.93-.62.68-.35,1.24-.83,1.86-1.24Z"/><path class="cls-3" d="m132.66,60.23l4.3,5c-1.55,1.89-3.56,3.35-5.84,4.23-5.92,2.18-12.46,1.88-18.15-.84-2.8-1.43-5.14-3.63-6.73-6.34-1.6-2.8-2.42-5.98-2.37-9.21-.07-3.19.71-6.34,2.25-9.14,1.49-2.67,3.7-4.86,6.37-6.34,5.64-2.98,12.38-3.04,18.08-.16,2.64,1.37,4.84,3.44,6.35,6,1.61,2.8,2.41,5.98,2.34,9.2l-26.57,5.26c.78,1.93,2.19,3.53,4,4.55,2.01,1.09,4.28,1.63,6.57,1.56,3.52.09,6.92-1.28,9.4-3.77Zm-18.18-15.48c-1.92,2.16-2.91,4.99-2.76,7.87v.07l19.64-3.77c-.51-2.05-1.72-3.87-3.41-5.14-1.79-1.32-3.98-2.01-6.21-1.95-2.73-.12-5.37.95-7.26,2.92Zm52.35-9.44c-2.36-.03-4.69.39-6.89,1.24-1.97.77-3.71,2.02-5.08,3.64v-4.5h-7.74v34.75h8.14v-17.56c0-3.39.87-5.98,2.61-7.78,1.88-1.86,4.45-2.84,7.09-2.7,2.27-.14,4.5.7,6.11,2.31,1.43,1.54,2.15,3.83,2.15,6.87v18.86h8.13v-19.9c0-5.03-1.33-8.83-4-11.39-2.65-2.56-6.15-3.84-10.52-3.84Zm44.59,0c-2.25-.03-4.49.36-6.6,1.14-1.9.7-3.61,1.83-5,3.29v-17.57h-8.13v48.27h8.13v-17.56c0-3.39.87-5.98,2.6-7.78,1.88-1.85,4.45-2.83,7.09-2.7,2.28-.15,4.51.7,6.12,2.31,1.43,1.54,2.14,3.83,2.14,6.87v18.86h8.14v-19.9c0-5.03-1.33-8.83-4-11.39-2.65-2.56-6.14-3.84-10.49-3.84Zm59.08.38v34.75h-7.74v-4.49c-1.33,1.64-3.05,2.91-5,3.71-2.08.84-4.3,1.27-6.54,1.24-3.16.05-6.27-.71-9.05-2.21-2.64-1.44-4.81-3.6-6.25-6.24-1.54-2.88-2.31-6.11-2.24-9.37-.07-3.25.7-6.47,2.24-9.33,1.45-2.62,3.62-4.78,6.25-6.21,2.78-1.51,5.91-2.27,9.07-2.22,2.13-.02,4.24.37,6.22,1.17,1.87.78,3.55,1.95,4.91,3.45v-4.25h8.13Zm-10.93,25.25c2-2.12,3.06-4.96,2.93-7.87.13-2.91-.93-5.75-2.93-7.87-1.95-1.99-4.64-3.08-7.42-3-2.77-.09-5.45,1-7.38,3-1.98,2.13-3.02,4.97-2.89,7.87-.13,2.9.91,5.74,2.89,7.87,1.92,2,4.61,3.09,7.38,3,2.78.09,5.48-1,7.42-3Zm41.33-25.63c-2.35-.03-4.69.39-6.89,1.24-1.97.77-3.71,2.02-5.07,3.64v-4.5h-7.74v34.75h8.13v-17.56c0-3.39.86-5.98,2.6-7.78,1.88-1.85,4.45-2.83,7.09-2.7,2.27-.14,4.5.7,6.11,2.31,1.43,1.54,2.15,3.83,2.15,6.87v18.86h8.13v-19.9c0-5.03-1.33-8.83-4-11.39-2.65-2.56-6.15-3.84-10.51-3.84Zm41.08,35.53c3.11.06,6.19-.67,8.95-2.12,2.53-1.35,4.58-3.45,5.89-6l-6.25-3.64c-.9,1.52-2.19,2.76-3.74,3.61-4.1,2.12-9.08,1.44-12.47-1.69-2.04-2.11-3.13-4.97-3-7.91-.13-2.93.95-5.79,3-7.9,3.37-3.16,8.35-3.86,12.46-1.76,1.54.85,2.83,2.1,3.74,3.61l6.25-3.64c-1.26-2.57-3.3-4.67-5.83-6-2.78-1.44-5.87-2.16-9-2.09-3.38-.06-6.72.72-9.72,2.28-2.76,1.45-5.07,3.63-6.67,6.31-3.2,5.71-3.2,12.67,0,18.38,1.6,2.7,3.92,4.89,6.7,6.34,3,1.53,6.33,2.29,9.69,2.22Zm47.29-10.61l4.3,5c-1.56,1.89-3.57,3.34-5.86,4.22-5.92,2.18-12.46,1.88-18.15-.84-2.8-1.43-5.14-3.63-6.73-6.34-1.6-2.8-2.42-5.98-2.37-9.21-.05-3.2.75-6.35,2.31-9.14,1.49-2.66,3.69-4.85,6.35-6.33,2.82-1.55,5.99-2.33,9.21-2.28,3.09-.04,6.14.69,8.88,2.12,2.63,1.37,4.83,3.45,6.34,6,1.61,2.8,2.41,5.98,2.34,9.2l-26.59,5.26c.78,1.93,2.19,3.53,4,4.55,2.01,1.09,4.28,1.63,6.57,1.56,3.52.09,6.92-1.28,9.4-3.77Zm-18.15-15.48c-1.92,2.16-2.91,4.99-2.76,7.87v.07l19.64-3.77c-.51-2.05-1.72-3.87-3.41-5.14-1.79-1.32-3.98-2.01-6.21-1.95-2.73-.11-5.37.95-7.26,2.92Zm70.32-9.44c-2.25-.03-4.5.36-6.61,1.14-1.9.7-3.61,1.83-5,3.29v-17.57h-8.13v48.27h8.13v-17.56c0-3.39.86-5.98,2.6-7.78,1.88-1.85,4.45-2.83,7.09-2.7,2.27-.14,4.5.7,6.11,2.31,1.44,1.54,2.15,3.87,2.15,6.87v18.86h8.13v-19.9c0-5.03-1.33-8.83-4-11.39-2.64-2.56-6.13-3.84-10.47-3.84Zm51.06,24.92l4.3,5c-1.56,1.89-3.57,3.34-5.86,4.22-5.92,2.18-12.46,1.88-18.15-.84-2.8-1.43-5.14-3.63-6.73-6.34-1.6-2.8-2.42-5.98-2.37-9.21-.05-3.2.75-6.35,2.31-9.14,1.49-2.67,3.7-4.86,6.37-6.34,5.64-2.98,12.38-3.04,18.08-.16,2.63,1.37,4.83,3.45,6.35,6,1.61,2.82,2.41,6.03,2.32,9.27l-26.59,5.2c.78,1.93,2.19,3.53,4,4.55,2.02,1.09,4.29,1.63,6.59,1.56,3.51.08,6.9-1.28,9.38-3.77Zm-18.18-15.48c-1.92,2.16-2.91,4.99-2.76,7.87v.07l19.64-3.77c-.51-2.05-1.72-3.87-3.41-5.14-1.8-1.33-3.99-2.01-6.22-1.95-2.72-.11-5.37.95-7.25,2.92Zm66.58-9.06v34.75h-7.78v-4.49c-1.33,1.64-3.05,2.91-5,3.71-2.08.84-4.3,1.27-6.54,1.24-3.14.05-6.25-.72-9.01-2.21-2.64-1.44-4.81-3.6-6.25-6.24-1.53-2.89-2.28-6.12-2.2-9.38-.07-3.25.7-6.47,2.24-9.33,1.45-2.62,3.62-4.78,6.25-6.21,2.78-1.51,5.91-2.27,9.07-2.22,2.13-.02,4.24.37,6.22,1.17,1.87.78,3.55,1.95,4.91,3.45v-4.24h8.09Zm-10.93,25.25c2-2.12,3.06-4.96,2.93-7.87.13-2.91-.93-5.75-2.93-7.87-1.95-1.99-4.64-3.08-7.42-3-2.77-.09-5.45,1-7.38,3-1.98,2.13-3.02,4.97-2.89,7.87-.13,2.9.91,5.74,2.89,7.87,1.92,2,4.61,3.09,7.38,3,2.78.09,5.48-1,7.42-3Zm21.6,9.5h8.13V22.17h-8.13v48.27Zm36.03-7.68c-1.31.99-2.91,1.5-4.55,1.44-1.32.08-2.61-.41-3.55-1.34-.91-1.08-1.36-2.46-1.27-3.87v-16.52h9.31v-6.51h-9.31v-7.93h-8.13v31.16c0,3.81,1.04,6.71,3.13,8.71,2.08,2,5.03,3,8.84,3,1.46,0,2.92-.19,4.33-.59,1.27-.34,2.45-.94,3.48-1.76l-2.28-5.79Zm28.75-27.45c-2.25-.03-4.5.36-6.61,1.14-1.9.7-3.61,1.83-5,3.29v-17.57h-8.13v48.27h8.13v-17.56c0-3.39.87-5.98,2.6-7.78,1.88-1.85,4.45-2.83,7.09-2.7,2.28-.14,4.5.7,6.12,2.31,1.43,1.54,2.14,3.83,2.14,6.87v18.86h8.13v-19.9c0-5.03-1.33-8.83-4-11.39-2.64-2.56-6.13-3.84-10.47-3.84Z"/></svg>