<?xml version="1.0" encoding="UTF-8"?><svg id="Layer_1" xmlns="http://www.w3.org/2000/svg" viewBox="0 0 125.58 27.1"><defs><style>.cls-1{fill:#0871b0;}</style></defs><path class="cls-1" d="m19.1,10.69c-.01-2.28-.58-4.05-1.7-5.3-1.12-1.25-2.82-1.88-5.1-1.88s-4.13.69-5.49,2.06c-1.36,1.37-2.13,3.08-2.32,5.12h14.61Zm4.16,3.35H4.49c0,1.57.23,2.93.71,4.09.47,1.16,1.12,2.12,1.94,2.86.79.73,1.73,1.28,2.82,1.64,1.09.36,2.29.55,3.6.55,1.73,0,3.48-.35,5.24-1.04,1.76-.7,3.01-1.38,3.75-2.06h.23v4.7c-1.45.61-2.94,1.12-4.45,1.54-1.52.41-3.11.62-4.77.62-4.25,0-7.58-1.15-9.96-3.46C1.19,21.18,0,17.91,0,13.67S1.14,6.16,3.43,3.7C5.71,1.23,8.72,0,12.46,0,15.91,0,18.58,1.02,20.45,3.04c1.87,2.03,2.81,4.91,2.81,8.64v2.35Zm25.83,4.87c0,2.35-.97,4.27-2.9,5.77-1.93,1.5-4.57,2.26-7.92,2.26-1.89,0-3.63-.23-5.21-.68-1.58-.45-2.91-.95-3.97-1.48v-4.86h.23c1.35,1.05,2.85,1.89,4.51,2.5,1.65.62,3.24.93,4.76.93,1.88,0,3.35-.31,4.42-.94,1.06-.62,1.59-1.61,1.59-2.95,0-1.01-.29-1.78-.87-2.3-.58-.52-1.69-.97-3.33-1.34-.61-.14-1.4-.3-2.38-.48-.98-.18-1.88-.38-2.68-.6-2.24-.6-3.82-1.48-4.76-2.64-.93-1.16-1.4-2.58-1.4-4.27,0-1.06.22-2.05.65-2.99.43-.94,1.1-1.77,1.99-2.51.86-.72,1.95-1.29,3.28-1.71C36.41.21,37.89,0,39.53,0,41.07,0,42.62.19,44.19.56c1.57.38,2.88.83,3.92,1.36v4.6h-.23c-1.1-.82-2.43-1.52-4-2.09-1.57-.57-3.11-.85-4.62-.85s-2.9.31-3.98.93c-1.08.62-1.62,1.53-1.62,2.75,0,1.06.33,1.86.98,2.39.64.54,1.67.98,3.11,1.31.79.18,1.67.37,2.66.55.98.18,1.8.35,2.45.5,1.99.46,3.53,1.25,4.61,2.37,1.08,1.14,1.62,2.64,1.62,4.51m26.96,7.45h-4.33v-2.83c-1.45,1.15-2.85,2.03-4.18,2.64-1.33.61-2.81.92-4.41.92-2.7,0-4.8-.82-6.3-2.47-1.5-1.64-2.25-4.06-2.25-7.24V.73h4.33v14.63c0,1.3.06,2.42.18,3.35.12.93.38,1.72.78,2.38.41.68.95,1.17,1.61,1.47.66.31,1.61.46,2.87.46,1.12,0,2.34-.29,3.66-.87,1.32-.58,2.56-1.33,3.71-2.23V.73h4.33v25.63Zm22.59-20.98h-.23c-.65-.14-1.27-.25-1.87-.31-.6-.06-1.32-.1-2.14-.1-1.33,0-2.61.3-3.85.89-1.24.59-2.43,1.35-3.58,2.28v18.21h-4.32V.73h4.32v3.79c1.71-1.38,3.22-2.35,4.53-2.92,1.3-.57,2.64-.86,4-.86.75,0,1.29.02,1.63.06.34.04.84.11,1.51.21v4.38Zm22.78,5.3c-.01-2.28-.58-4.05-1.7-5.3-1.12-1.25-2.82-1.88-5.1-1.88s-4.13.69-5.49,2.06c-1.36,1.37-2.14,3.08-2.32,5.12h14.61Zm4.16,3.35h-18.77c0,1.57.24,2.93.71,4.09.47,1.16,1.12,2.12,1.94,2.86.79.73,1.73,1.28,2.82,1.64,1.09.36,2.29.55,3.6.55,1.74,0,3.48-.35,5.24-1.04,1.75-.7,3.01-1.38,3.75-2.06h.23v4.7c-1.45.61-2.94,1.12-4.45,1.54-1.52.41-3.11.62-4.77.62-4.25,0-7.58-1.15-9.96-3.46-2.39-2.3-3.58-5.57-3.58-9.81s1.14-7.52,3.43-9.98C108.03,1.23,111.05,0,114.78,0c3.46,0,6.12,1.02,8,3.04,1.87,2.03,2.81,4.91,2.81,8.64v2.35Z"/></svg>