<?xml version="1.0" encoding="UTF-8"?><svg id="Layer_1" xmlns="http://www.w3.org/2000/svg" viewBox="0 0 164.05 56.45"><defs><style>.cls-1{fill:#fff;}</style></defs><path class="cls-1" d="m29.45,16.21c.08,4.02-.35,7.33-3.08,10.49-2.72,3.15-6.86,4.97-11,4.97C7.02,31.66.08,24.72.08,16.36S7.02.91,15.57.91c5.2,0,9.42,2.33,12.58,6.43l-2.41,2.25c-2.48-3.51-5.84-5.6-10.21-5.6-6.78,0-12.14,5.72-12.14,12.42,0,3.15,1.26,6.15,3.47,8.4,2.17,2.17,5.32,3.79,8.44,3.79,5.17,0,10.61-3.79,10.61-9.31h-8.83v-3.08h12.38Zm21.38,6.51l-3.59,8.44h-3.63L57.34,0l13.37,31.15h-3.67l-3.51-8.44h-12.7Zm6.43-14.98l-5.09,11.91h10.05l-4.97-11.91Zm32.3,23.42h-3.31V1.42h3.31v29.73Zm24.33-3.08h8.2v3.08h-11.51V1.42h3.31v26.65Zm26.68-25.28l-4.37,9.77-2.07-.8,3.6-10,2.83,1.03Zm19.8,14.52c-.42-.96-1.34-1.84-2.45-1.84s-2.22.84-2.22,1.99c0,1.65,2.07,2.26,4.18,3.14s4.18,2.15,4.18,5.17c0,3.41-2.76,5.86-6.09,5.86-3.03,0-5.4-1.72-6.36-4.56l2.72-1.15c.77,1.69,1.65,2.87,3.68,2.87,1.65,0,2.91-1.11,2.91-2.76,0-4.02-8.12-2.64-8.12-8.31,0-3.03,2.45-5.1,5.36-5.1,2.07,0,3.98,1.46,4.79,3.33l-2.57,1.34ZM3.09,52.26l-1.54,3.62H0l5.88-13.36,5.73,13.36h-1.57l-1.5-3.62H3.09Zm2.76-6.42l-2.18,5.11h4.31l-2.13-5.11Zm10.98,10.04h-1.42v-12.75h1.84c2.42,0,4.67.64,4.67,3.52,0,1.96-1.23,3.35-3.2,3.52l4.06,5.71h-1.74l-3.85-5.6h-.35v5.6Zm0-6.85h.44c1.61,0,3.23-.3,3.23-2.28,0-2.1-1.54-2.3-3.25-2.3h-.42v4.58Zm13.2,6.85h-1.42v-11.43h-3.08v-1.32h7.61v1.32h-3.11v11.43Zm8.43,0h-1.42v-12.75h1.42v12.75Zm10.78-10.26c-.51-.88-1.12-1.39-2.2-1.39s-2.11.81-2.11,1.98c0,1.1,1.13,1.61,2,2l.85.37c1.66.73,3.06,1.56,3.06,3.58,0,2.23-1.79,3.94-4.01,3.94-2.05,0-3.57-1.32-3.97-3.3l1.39-.39c.19,1.3,1.18,2.37,2.55,2.37s2.62-1.05,2.62-2.48-1.17-2-2.35-2.54l-.78-.34c-1.49-.68-2.77-1.44-2.77-3.26,0-1.98,1.67-3.25,3.57-3.25,1.42,0,2.62.73,3.3,1.98l-1.13.73Zm7.99,6.64l-1.54,3.62h-1.56l5.88-13.36,5.73,13.36h-1.57l-1.5-3.62h-5.44Zm2.76-6.42l-2.18,5.11h4.31l-2.13-5.11Zm9.65-3.25l9.94,10.41v-9.87h1.42v13.32l-9.94-10.4v9.82h-1.42v-13.29Zm24.03.54h2.1c2.32,0,4.26.85,4.26,3.45,0,1.03-.39,1.91-1.25,2.49,1.52.37,2.42,1.74,2.42,3.26,0,2.54-2.05,3.55-4.57,3.55h-2.96v-12.75Zm1.42,5.61h.54c1.61,0,2.98-.19,2.98-2.16s-1.22-2.13-2.96-2.13h-.56v4.29Zm0,5.82h1.42c1.59,0,3.26-.39,3.26-2.33s-1.89-2.27-3.45-2.27h-1.23v4.6Zm12.49-2.3l-1.54,3.62h-1.56l5.88-13.36,5.73,13.36h-1.57l-1.5-3.62h-5.44Zm2.76-6.42l-2.18,5.11h4.31l-2.13-5.11Zm16.41-2.71h1.91l-5.99,5.93,6.19,6.81h-1.96l-5.22-5.85-.36.35v5.49h-1.42v-12.75h1.42v5.46l5.43-5.46Zm5.9,0h6.61v1.32h-5.19v3.79h5.04v1.32h-5.04v5h5.19v1.32h-6.61v-12.75Zm12.84,12.75h-1.42v-12.75h1.84c2.42,0,4.67.64,4.67,3.52,0,1.96-1.23,3.35-3.2,3.52l4.06,5.71h-1.74l-3.85-5.6h-.36v5.6Zm0-6.85h.44c1.61,0,3.23-.3,3.23-2.28,0-2.1-1.54-2.3-3.25-2.3h-.42v4.58Zm8.72-5.9h1.64l3.25,5.68,3.25-5.68h1.64l-4.18,7.27v5.48h-1.42v-5.48l-4.18-7.27Z"/></svg>