<?xml version="1.0" encoding="UTF-8"?><svg id="Layer_1" xmlns="http://www.w3.org/2000/svg" viewBox="0 0 87.83 28.69"><defs><style>.cls-1{fill:#ff6300;}.cls-1,.cls-2{fill-rule:evenodd;}</style></defs><g id="Page-1"><g id="logo"><path id="hudl" class="cls-2" d="m41.03,9.31c-.93,0-1.86.18-2.73.51V2.57h-5.52v22.31h5.51v-11.09c.37-.15.77-.23,1.17-.23,1.17,0,1.68.57,1.68,1.62v9.69h5.51v-10.29c0-3.41-1.93-5.29-5.63-5.29h0Zm16.18,11.34c-.23.09-.65.14-1.17.14-1.02,0-1.56-.43-1.56-1.39v-9.83h-5.51v9.69c0,4.29,2.36,6,7.08,6,2.56,0,5.2-.45,6.68-1.14v-14.56h-5.51v11.09h0Zm16.66-11c-.53-.14-1.07-.22-1.62-.23-4.8,0-7.25,3.04-7.25,7.79,0,5.26,2.81,8.04,8.04,8.04,2.7,0,5.03-.48,6.34-1.14V2.57h-5.52v7.08h0Zm0,11.23c-.2.09-.57.11-.94.11-1.56,0-2.42-1.22-2.42-3.84,0-2.22.82-3.67,2.36-3.67.4,0,.82.09.99.17v7.22h0Zm8.44-18.3v22.31h5.52V2.57h-5.52Z"/><path id="mark" class="cls-1" d="m14.41,28.69c-2.28,0-4.26-1.56-4.8-3.77,0-.03-.03-.05-.05-.06-.65-.26-1.28-.57-1.87-.94-.02-.01-.03-.03-.04-.05-.87-2.27-1.1-4.73-.65-7.11,0-.03.03-.06.06-.07h.02s.06,0,.07.03c1.2,1.3,2.66,2.34,4.29,3.06.01,0,.02,0,.04,0,.02,0,.04,0,.05-.02,2.14-1.54,5.12-1.11,6.75.97.02.02.04.04.07.04h.01c.45-.06.91-.15,1.36-.25,2.68-.65,5.09-2.13,6.89-4.23.02-.02.04-.03.07-.03.02,0,.03,0,.04.01.04.02.06.06.04.11-1.08,3.82-3.85,6.94-7.52,8.46-.03.01-.05.03-.05.06-.52,2.22-2.5,3.8-4.78,3.8Zm-9.2-6.76s-.05,0-.07-.03c-2.79-2.83-4.1-6.79-3.56-10.73,0-.03,0-.06-.03-.08C-.11,9.54-.48,7.04.65,5.06c1.13-1.98,3.48-2.92,5.66-2.28.03,0,.06,0,.08-.02.55-.44,1.14-.83,1.75-1.17.01,0,.03-.01.04-.01,2.41.37,4.67,1.41,6.51,3.01.03.02.04.06.03.09,0,.03-.03.06-.07.07-1.73.39-3.37,1.14-4.8,2.19-.03.02-.04.05-.04.08.02.17.03.33.03.5-.02,2.45-1.82,4.51-4.24,4.86-.03,0-.06.03-.07.06-.17.42-.33.86-.45,1.3-.78,2.65-.7,5.47.22,8.07.01.03,0,.06-.01.08-.02.02-.05.04-.08.04h0Zm16.14-4.59s-.06-.01-.08-.04c-.02-.02-.02-.06-.01-.08.52-1.67.69-3.43.51-5.18,0-.03-.02-.06-.05-.07-1.73-.81-2.84-2.54-2.86-4.46,0-.64.12-1.28.36-1.88.01-.03,0-.06-.01-.09-.29-.39-.61-.76-.94-1.11-1.9-2-4.38-3.35-7.09-3.85-.04,0-.08-.05-.08-.09,0-.04.03-.08.07-.09,3.88-1,8.01-.13,11.15,2.36.02.01.04.02.06.02,0,0,.02,0,.03,0,.45-.13.91-.2,1.37-.2,2.02,0,3.84,1.23,4.59,3.1.75,1.88.27,4.02-1.21,5.41-.02.02-.03.05-.03.08.08.57.12,1.15.12,1.72,0,.05,0,.11,0,.16v.1s-.01.04-.03.06c-1.52,1.89-3.55,3.32-5.84,4.13h-.03Z"/></g></g></svg>