<?xml version="1.0" encoding="UTF-8"?><svg id="Layer_1" xmlns="http://www.w3.org/2000/svg" xmlns:xlink="http://www.w3.org/1999/xlink" viewBox="0 0 149.1 73.4"><defs><style>.cls-1{fill:url(#linear-gradient);}.cls-2,.cls-3{fill:#fff;}.cls-3{opacity:.5;}</style><linearGradient id="linear-gradient" x1="125.95" y1="51.86" x2="148.19" y2="72.68" gradientTransform="translate(0 74.29) scale(1 -1)" gradientUnits="userSpaceOnUse"><stop offset=".4" stop-color="#fff" stop-opacity=".5"/><stop offset="1" stop-color="#fff"/></linearGradient></defs><path class="cls-2" d="m31.6,70.4q.1,0,.1.1l.4.4c-.3.3-.6.6-1,.7-.4.2-.8.3-1.4.3-.5,0-.9-.1-1.3-.2-.4-.2-.7-.4-1-.7-.3-.3-.5-.6-.6-1s-.2-.9-.2-1.3c0-.5.1-.9.2-1.3.2-.4.4-.8.7-1,.3-.3.6-.5,1-.7s.8-.2,1.3-.2.9.1,1.2.2c.4.2.7.4.9.6l-.3.4s0,.1-.1.1h-.1q-.1,0-.2-.1c-.1-.1-.2-.1-.3-.2s-.3-.1-.5-.2-.4-.1-.7-.1-.6.1-.9.2c-.3.1-.5.3-.7.5s-.3.5-.5.8c-.1.3-.2.7-.2,1,0,.4.1.7.2,1.1s.3.6.5.8c.2.2.4.4.7.5s.6.2.9.2h.5c.1,0,.3-.1.4-.1s.2-.1.4-.2c.1-.1.2-.2.3-.3q.2-.3.3-.3c-.1,0,0,0,0,0Zm2.5-2.4c.1-.3.3-.5.5-.7s.5-.3.8-.3h.3c.1,0,.2.1.2.1l-.1.7c0,.1-.1.1-.1.1h-.5c-.1,0-.3,0-.4.1-.1,0-.2.1-.3.2s-.2.2-.2.3c-.1.1-.1.2-.2.4v2.9h-.9v-4.6h.5c.1,0,.2,0,.2.1,0,0,.1.1.1.2l.1.5Zm6.4,3.1c-.1.1-.2.2-.4.3-.1.1-.3.2-.5.2-.2.1-.3.1-.5.1h-.5c-.3,0-.6-.1-.9-.2-.3-.1-.5-.3-.7-.5s-.4-.5-.5-.8-.2-.7-.2-1.1c0-.3,0-.6.1-.9s.2-.5.4-.7.4-.4.7-.5.6-.2.9-.2.5,0,.8.1c.2.1.4.2.6.4.2.2.3.4.4.6.1.3.1.5.1.9v.3s-.1.1-.2.1h-3c0,.3,0,.5.1.7s.2.4.3.5.3.2.4.3c.2.1.4.1.6.1s.4,0,.5-.1c.1,0,.3-.1.4-.1.1-.1.2-.1.3-.1s.1-.1.2-.1.1,0,.2.1l.4.6Zm-.7-2.1c0-.2,0-.3-.1-.5,0-.1-.1-.3-.2-.4-.1-.1-.2-.2-.4-.3-.1-.1-.3-.1-.5-.1-.4,0-.7.1-.9.3-.2.2-.3.5-.4.9h2.5v.1Zm2-1.2c.3-.2.5-.4.8-.5s.6-.2,1-.2c.3,0,.5,0,.7.1s.4.2.5.4c.1.2.2.3.3.6.1.2.1.5.1.7v2.9h-.6s-.1-.1-.1-.2l-.1-.4c-.1.1-.2.2-.3.3-.1.1-.2.2-.4.2-.1.1-.3.1-.4.1h-.5c-.2,0-.4,0-.5-.1-.2,0-.3-.1-.4-.2-.1-.1-.2-.2-.3-.4,0-.1,0-.3,0-.5s0-.4.1-.5c.1-.2.3-.3.5-.5.2-.1.5-.2.9-.3.4-.1.8-.1,1.3-.1v-.3c0-.3-.1-.6-.2-.8s-.4-.3-.7-.3c-.2,0-.4,0-.5.1-.1,0-.2.1-.3.2s-.2.1-.2.2c-.1,0-.1.1-.2.1h-.2l-.1-.1-.2-.5Zm2.6,1.9c-.4,0-.7,0-.9.1-.3,0-.5.1-.6.2-.2.1-.3.2-.3.3-.1.1-.1.2-.1.3s0,.2.1.3c0,.1.1.2.2.2q.1.1.2.1h.7c.1,0,.2-.1.3-.1s.2-.1.3-.2.2-.2.3-.2v-1h-.2Zm3.8,2.1c-.4,0-.7-.1-.9-.3-.2-.2-.3-.5-.3-.9v-2.8h-.6l-.1-.1v-.4l.7-.1.2-1.4q0-.1.1-.1h.5v1.5h1.3v.6h-1.3v2.7c0,.2,0,.3.1.4s.2.1.3.1h.2q.1,0,.2-.1s.1,0,.1-.1h.2l.1.1.3.4c-.1.1-.3.2-.5.3-.2.2-.4.2-.6.2Zm3-6.1v.2c0,.1-.1.1-.1.2q-.1.1-.2.1h-.4c-.1,0-.1-.1-.2-.1q-.1-.1-.1-.2v-.4c0-.1.1-.1.1-.2q.1-.1.2-.1h.4c.1,0,.1.1.2.1q.1.1.1.2v.2Zm-.1,1.5v4.6h-.9v-4.6h.9Zm2.4.6l.3-.3c.1-.1.2-.2.3-.2.1-.1.3-.1.4-.1s.3-.1.5-.1c.3,0,.5,0,.7.1s.4.2.5.4c.1.2.2.3.3.5.1.2.1.5.1.7v2.9h-.9v-2.9c0-.3-.1-.6-.2-.8-.2-.2-.4-.3-.7-.3-.2,0-.4.1-.6.2s-.4.3-.5.4v3.4h-.9v-4.6h.5c.1,0,.2.1.2.2v.5Zm8.5-.5v.3c0,.1-.1.2-.2.2l-.5.1c0,.1.1.2.1.3v.3c0,.2,0,.4-.1.6s-.2.3-.4.5c-.2.1-.3.2-.5.3-.2.1-.4.1-.7.1-.2,0-.4,0-.6-.1-.1.1-.2.1-.2.2s-.1.1-.1.2,0,.2.1.2.2.1.3.1h1.1c.2,0,.4,0,.6.1.2,0,.3.1.5.2.1.1.3.2.3.3.1.1.1.3.1.5s0,.4-.1.6-.2.4-.4.5c-.2.1-.4.3-.7.3-.2.3-.5.3-.8.3s-.6,0-.9-.1-.5-.2-.6-.3c-.2-.1-.3-.2-.4-.4-.1-.1-.1-.3-.1-.5s.1-.4.2-.6.3-.3.6-.4c-.1-.1-.2-.1-.3-.2-.1-.1-.1-.2-.1-.4v-.2c0-.1.1-.1.1-.2s.1-.1.2-.2.2-.1.3-.2c-.2-.1-.4-.3-.5-.5s-.2-.5-.2-.7,0-.4.1-.6.2-.3.4-.5c.2-.1.3-.2.6-.3.2-.1.5-.1.7-.1.4,0,.7.1,1,.2h1.1v.1Zm-.9,4.7c0-.1,0-.2-.1-.3l-.2-.2c-.1,0-.2-.1-.4-.1h-1.4c-.2.1-.3.2-.4.3-.1.1-.2.2-.2.4,0,.1,0,.2.1.3,0,.1.1.2.2.2.1.1.2.1.4.1s.3.1.6.1c.2,0,.4,0,.6-.1.2,0,.3-.1.4-.2s.2-.1.3-.2c.1-.1.1-.2.1-.3Zm-1.4-2.5c.2,0,.3,0,.4-.1.1,0,.2-.1.3-.2.1-.1.1-.2.2-.3,0-.1.1-.2.1-.4,0-.3-.1-.5-.2-.6-.2-.2-.4-.2-.7-.2s-.5.1-.7.2c-.2.2-.2.4-.2.6,0,.1,0,.2.1.4,0,.1.1.2.2.3.1.1.2.1.3.2-.1,0,.1.1.2.1Zm8.1-2.4c.3,0,.6.1.9.2s.5.3.7.5.3.5.4.7c.1.3.2.6.2,1s-.1.7-.2,1-.2.5-.4.7c-.2.2-.4.4-.7.5-.3.1-.6.2-.9.2s-.6-.1-.9-.2-.5-.3-.7-.5-.3-.5-.4-.7c-.1-.3-.2-.6-.2-1s.1-.7.2-1,.3-.5.4-.7c.2-.2.4-.4.7-.5.3-.2.6-.2.9-.2Zm0,4c.4,0,.8-.1,1-.4s.3-.7.3-1.2-.1-.9-.3-1.2c-.2-.3-.5-.4-1-.4-.4,0-.8.1-1,.4s-.3.7-.3,1.2.1.9.3,1.2c.2.3.6.4,1,.4Zm4.4-3.2l.3-.3c.1-.1.2-.2.4-.2.1-.1.3-.1.4-.2.1,0,.3-.1.5-.1.3,0,.5.1.7.2s.4.3.5.5c.2.2.3.4.4.7.1.3.1.6.1,1,0,.3,0,.7-.1.9-.1.3-.2.5-.4.8-.2.2-.4.4-.6.5s-.5.2-.8.2-.5,0-.7-.1-.4-.2-.5-.4v2h-.9v-6.1h.5c.1,0,.2.1.2.2v.4Zm.1,2.7c.1.2.3.3.5.4s.4.1.6.1c.4,0,.7-.1.9-.4.1-.3.3-.7.3-1.3,0-.3,0-.5-.1-.7,0-.2-.1-.4-.2-.5s-.2-.2-.4-.3c-.1-.1-.3-.1-.5-.1-.3,0-.5.1-.7.2s-.4.3-.5.5v2.1h.1Zm5.4-2.7l.3-.3c.1-.1.2-.2.4-.2.1-.1.3-.1.4-.2.1,0,.3-.1.5-.1.3,0,.5.1.7.2s.4.3.5.5c.2.2.3.4.4.7.1.3.1.6.1,1,0,.3,0,.7-.1.9-.1.3-.2.5-.4.8-.2.2-.4.4-.6.5s-.5.2-.8.2-.5,0-.7-.1-.4-.2-.5-.4v2h-.9v-6.1h.5c.1,0,.2.1.2.2v.4Zm0,2.7c.1.2.3.3.5.4s.4.1.6.1c.4,0,.7-.1.9-.4.2-.3.3-.7.3-1.3,0-.3,0-.5-.1-.7,0-.2-.1-.4-.2-.5s-.2-.2-.4-.3c-.1-.1-.3-.1-.5-.1-.3,0-.5.1-.7.2s-.4.3-.5.5v2.1h.1Zm6.5-3.5c.3,0,.6.1.9.2s.5.3.7.5.3.5.4.7c.1.3.2.6.2,1s-.1.7-.2,1-.2.5-.4.7c-.2.2-.4.4-.7.5-.3.1-.6.2-.9.2s-.6-.1-.9-.2-.5-.3-.7-.5-.3-.5-.4-.7c-.1-.3-.2-.6-.2-1s.1-.7.2-1,.3-.5.4-.7c.2-.2.4-.4.7-.5.3-.2.6-.2.9-.2Zm0,4c.4,0,.8-.1,1-.4s.3-.7.3-1.2-.1-.9-.3-1.2c-.2-.3-.5-.4-1-.4-.4,0-.8.1-1,.4s-.3.7-.3,1.2.1.9.3,1.2c.3.3.6.4,1,.4Zm4.4-3.1c.1-.3.3-.5.5-.7s.5-.3.8-.3h.3c.1,0,.2.1.2.1l-.1.7c0,.1-.1.1-.1.1h-.5c-.1,0-.3,0-.4.1-.1,0-.2.1-.3.2-.1.1-.2.2-.2.3-.1.1-.1.2-.2.4v2.9h-.9v-4.6h.5c.1,0,.2,0,.2.1,0,0,.1.1.1.2l.1.5Zm4.3,3.8c-.4,0-.7-.1-.9-.3s-.3-.5-.3-.9v-2.8h-.6l-.1-.1v-.4l.7-.1.2-1.4q0-.1.1-.1h.5v1.5h1.3v.6h-1.2v2.7c0,.2,0,.3.1.4s.2.1.3.1h.2q.1,0,.2-.1s.1,0,.1-.1h.2l.1.1.3.4c-.1.1-.3.2-.5.3-.3.2-.5.2-.7.2Zm6-4.6v4.6h-.5c-.1,0-.2-.1-.2-.2l-.1-.5-.3.3c-.1.1-.2.2-.3.2-.1.1-.3.1-.4.1s-.3.1-.4.1c-.3,0-.5,0-.7-.1s-.4-.2-.5-.4c-.1-.2-.2-.3-.3-.5-.1-.2-.1-.5-.1-.7v-2.9h.9v2.9c0,.3.1.6.2.8.2.2.4.3.7.3.2,0,.4-.1.6-.2s.4-.3.6-.4v-3.4s.8,0,.8,0Zm2.5.6l.3-.3c.1-.1.2-.2.3-.2.1-.1.3-.1.4-.1s.3-.1.5-.1c.3,0,.5,0,.7.1s.4.2.5.4c.1.2.2.3.3.5.1.2.1.5.1.7v2.9h-.9v-2.9c0-.3-.1-.6-.2-.8-.2-.2-.4-.3-.7-.3-.2,0-.4.1-.6.2s-.4.3-.5.4v3.4h-.9v-4.6h.5c.1,0,.2.1.2.2v.5Zm5.6-2.1v.2c0,.1-.1.1-.1.2q-.1.1-.2.1h-.4c-.1,0-.1-.1-.2-.1q-.1-.1-.1-.2v-.4c0-.1.1-.1.1-.2q.1-.1.2-.1h.4c.1,0,.1.1.2.1q.1.1.1.2v.2Zm-.1,1.5v4.6h-.9v-4.6h.9Zm3.1,4.6c-.4,0-.7-.1-.9-.3s-.3-.5-.3-.9v-2.8h-.6l-.1-.1v-.4l.7-.1.2-1.4q0-.1.1-.1h.5v1.5h1.3v.6h-1.3v2.7c0,.2,0,.3.1.4s.2.1.3.1h.2q.1,0,.2-.1s.1,0,.1-.1h.2l.1.1.3.4c-.1.1-.3.2-.5.3-.2.2-.4.2-.6.2Zm3-6.1v.2c0,.1-.1.1-.1.2q-.1.1-.2.1h-.4c-.1,0-.1-.1-.2-.1q-.1-.1-.1-.2v-.4c0-.1.1-.1.1-.2q.1-.1.2-.1h.4c.1,0,.1.1.2.1q.1.1.1.2v.2Zm-.2,1.5v4.6h-.9v-4.6h.9Zm5.5,3.9c-.1.1-.2.2-.4.3-.1.1-.3.2-.5.2-.2.1-.3.1-.5.1h-.5c-.3,0-.6-.1-.9-.2s-.5-.3-.7-.5-.4-.5-.5-.8-.2-.7-.2-1.1c0-.3,0-.6.1-.9s.2-.5.4-.7c.2-.2.4-.4.7-.5.3-.1.6-.2.9-.2s.5,0,.8.1c.2.1.4.2.6.4s.3.4.4.6c.1.3.1.5.1.9v.3s-.1.1-.2.1h-3c0,.3,0,.5.1.7s.2.4.3.5c.1.1.3.2.4.3.2.1.4.1.6.1s.4,0,.5-.1c.1,0,.3-.1.4-.1.1-.1.2-.1.3-.1s.1-.1.2-.1.1,0,.2.1l.4.6Zm-.8-2.1c0-.2,0-.3-.1-.5,0-.1-.1-.3-.2-.4s-.2-.2-.4-.3c-.1-.1-.3-.1-.5-.1-.4,0-.7.1-.9.3s-.3.5-.4.9h2.5v.1Zm4.8-1h0q-.1.1-.2.1h-.2c-.1,0-.1-.1-.2-.1s-.2-.1-.3-.1h-.7c-.1,0-.2.1-.3.1q-.1.1-.2.2c0,.1-.1.2-.1.2,0,.1,0,.2.1.3.1.1.2.1.3.2s.2.1.4.1c.1,0,.3.1.4.1s.3.1.4.2c.1.1.3.1.4.2.1.1.2.2.3.3.1.1.1.3.1.5s0,.4-.1.6-.2.3-.3.5c-.1.1-.3.2-.6.3-.2.1-.5.1-.8.1s-.6-.1-.9-.2c-.3-.1-.5-.2-.7-.4l.2-.3.1-.1h.1q.1,0,.2.1c.1,0,.1.1.2.1s.2.1.3.1.3.1.5.1.3,0,.4-.1c.1,0,.2-.1.3-.2s.1-.1.2-.2c0-.1.1-.2.1-.3s0-.2-.1-.3c-.1-.1-.2-.1-.3-.2s-.2-.1-.4-.1c-.1,0-.3-.1-.4-.1s-.3-.1-.4-.2c-.1-.1-.3-.1-.4-.2-.1-.1-.2-.2-.3-.4-.1-.1-.1-.3-.1-.5s0-.3.1-.5.2-.3.3-.4.3-.2.5-.3c.2-.1.4-.1.7-.1s.6,0,.8.1.5.2.6.4v.4Z"/><path class="cls-3" d="m6.3,50.8v.9h-2.6v7h-1.1v-7H0v-.9h6.3Zm9.6,7.9h-1.1v-3.6h-4.3v3.6h-1.1v-7.9h1.1v3.5h4.3v-3.5h1.1s0,7.9,0,7.9Zm8.8-7.9v.9h-3.8v2.6h3.1v.8h-3.1v2.7h3.8v.9h-4.9v-7.9h4.9Zm8.8,5v3h-1.1v-7.9h2.3c.5,0,.9.1,1.3.2.4.1.7.3.9.5s.4.5.5.8.2.6.2,1-.1.7-.2,1c-.1.3-.3.6-.6.8-.2.2-.6.4-.9.5-.4.1-.8.2-1.3.2h-1.1v-.1Zm0-.9h1.3c.3,0,.6,0,.8-.1s.4-.2.6-.3c.2-.1.3-.3.4-.5.1-.2.1-.4.1-.7,0-.5-.2-.9-.5-1.2s-.8-.4-1.4-.4h-1.3s0,3.2,0,3.2Zm14.9-.1c0,.6-.1,1.1-.3,1.6s-.5.9-.8,1.3-.8.6-1.2.8c-.5.2-1,.3-1.6.3s-1.1-.1-1.6-.3c-.5-.2-.9-.5-1.2-.8-.3-.4-.6-.8-.8-1.3s-.3-1-.3-1.6.1-1.1.3-1.6.5-.9.8-1.3c.3-.4.8-.6,1.2-.8.5-.2,1-.3,1.6-.3s1.1.1,1.6.3.9.5,1.2.8c.3.4.6.8.8,1.3.2.4.3,1,.3,1.6Zm-1.1,0c0-.5-.1-.9-.2-1.3-.1-.4-.3-.7-.6-1-.2-.3-.5-.5-.9-.6-.3-.1-.7-.2-1.2-.2-.4,0-.8.1-1.2.2-.3.1-.6.3-.9.6-.2.3-.4.6-.6,1-.1.4-.2.8-.2,1.3s.1.9.2,1.3c.1.4.3.7.6,1,.2.3.5.5.9.6.3.1.7.2,1.2.2.4,0,.8-.1,1.2-.2.3-.1.6-.3.9-.6.2-.3.4-.6.6-1,.2-.4.2-.8.2-1.3Zm5.7.6v3.3h-1.1v-7.9h2.2c.5,0,.9.1,1.3.2.4.1.7.2.9.4.2.2.4.4.5.7s.2.6.2.9,0,.5-.1.8c-.1.2-.2.5-.4.7-.2.2-.4.4-.6.5s-.5.2-.8.3c.1.1.3.2.4.3l2.3,3.1h-1c-.2,0-.3-.1-.4-.2l-2.1-2.8c-.1-.1-.1-.2-.2-.2s-.2-.1-.3-.1c0,0-.8,0-.8,0Zm0-.7h1.1c.3,0,.6,0,.8-.1l.6-.3c.2-.1.3-.3.4-.5s.1-.4.1-.6c0-.5-.2-.8-.5-1.1-.3-.2-.8-.4-1.4-.4h-1.2v3h.1Zm13.1-3.9v.9h-2.6v7h-1.1v-7h-2.6v-.9h6.3Zm11.3,1.3c0,.1-.1.1-.1.1h-.1q-.1,0-.2-.1c-.1-.1-.2-.1-.3-.2-.1-.1-.3-.1-.5-.2-.2-.1-.4-.1-.6-.1s-.5,0-.6.1c-.2.1-.3.2-.5.3-.1.1-.2.2-.3.4-.1.1-.1.3-.1.5s.1.4.2.6c.1.1.3.3.4.4s.4.2.6.3.5.2.7.2c.2.1.5.2.7.3s.4.2.6.4.3.3.4.6c.1.2.2.5.2.8s-.1.7-.2,1c-.1.3-.3.6-.5.8-.2.2-.5.4-.8.5s-.7.2-1.1.2c-.5,0-1-.1-1.4-.3-.4-.2-.8-.4-1.1-.8l.3-.5.1-.1h.1c.1,0,.2,0,.3.1.1.1.2.2.4.3.1.1.3.2.5.3.2.1.5.1.8.1s.5,0,.7-.1.4-.2.5-.3c.1-.1.2-.3.3-.5.1-.2.1-.4.1-.6s-.1-.4-.2-.6c-.1-.2-.3-.3-.4-.4l-.6-.3c-.2-.1-.5-.1-.7-.2-.2-.1-.5-.2-.7-.3s-.4-.2-.6-.4-.3-.4-.4-.6c-.1-.2-.2-.5-.2-.9,0-.3.1-.6.2-.8.1-.3.3-.5.5-.7s.5-.4.8-.5.7-.2,1-.2c.4,0,.8.1,1.2.2.4.1.7.3,1,.6l-.4.6Zm4.9,3.7v3h-1.1v-7.9h2.4c.5,0,.9.1,1.3.2.4.1.7.3.9.5.2.2.4.5.5.8s.2.6.2,1-.1.7-.2,1-.3.6-.6.8c-.2.2-.6.4-.9.5-.4.1-.8.2-1.3.2h-1.2v-.1Zm0-.9h1.3c.3,0,.6,0,.8-.1l.6-.3c.2-.1.3-.3.4-.5s.1-.4.1-.7c0-.5-.2-.9-.5-1.2s-.8-.4-1.4-.4h-1.3v3.2Zm12.5-4.1v.9h-3.8v2.6h3.1v.8h-3.1v2.7h3.8v.9h-4.9v-7.9h4.9Zm9.1,6.3q.1,0,.2.1l.4.5c-.3.4-.7.7-1.2.9-.5.2-1,.3-1.7.3-.6,0-1.1-.1-1.6-.3-.5-.2-.9-.5-1.2-.8-.3-.4-.6-.8-.8-1.3-.2-.5-.3-1-.3-1.6s.1-1.1.3-1.6c.2-.5.5-.9.8-1.3.4-.4.8-.6,1.3-.8s1-.3,1.6-.3,1.1.1,1.5.3.8.4,1.1.7l-.3.5-.1.1h-.1s-.1,0-.2-.1c-.1,0-.1-.1-.2-.1-.1-.1-.2-.1-.3-.2-.1-.1-.2-.1-.4-.2-.1-.1-.3-.1-.5-.1s-.4-.1-.6-.1c-.4,0-.8.1-1.2.2-.4.1-.7.4-.9.6-.3.3-.5.6-.6,1s-.2.8-.2,1.3.1.9.2,1.3c.1.4.3.7.6,1,.2.3.5.5.9.6s.7.2,1.1.2h.6c.2,0,.4-.1.5-.1.2-.1.3-.1.4-.2s.3-.2.4-.3q.4-.2.5-.2Zm5.2,1.6h-1.1v-7.9h1.1v7.9Zm10.7,0h-.8c-.1,0-.2,0-.2-.1-.1,0-.1-.1-.1-.2l-.7-1.9h-3.6l-.7,1.9c0,.1-.1.1-.1.2q-.1.1-.2.1h-.8l3.2-7.9h1.1l2.9,7.9Zm-5.2-2.9h3l-1.2-3.2c-.1-.2-.2-.4-.2-.7,0,.2-.1.3-.1.4s-.1.2-.1.3l-1.4,3.2Zm9.2,2h3.4v.9h-4.5v-7.9h1.1v7Zm7.9.9h-1.1v-7.9h1.1v7.9Zm8.1-6.6c0,.1-.1.1-.1.1h-.1q-.1,0-.2-.1c-.1-.1-.2-.1-.3-.2-.1-.1-.3-.1-.5-.2-.2-.1-.4-.1-.6-.1s-.5,0-.6.1c-.2.1-.3.2-.5.3-.1.1-.2.2-.3.4-.1.1-.1.3-.1.5s.1.4.2.6c.1.1.3.3.4.4s.4.2.6.3c.2.1.5.2.7.2.2.1.5.2.7.3s.4.2.6.4c.2.2.3.3.4.6.1.2.2.5.2.8s-.1.7-.2,1c-.1.3-.3.6-.5.8-.2.2-.5.4-.8.5s-.7.2-1.1.2c-.5,0-1-.1-1.4-.3-.4-.2-.8-.4-1.1-.8l.3-.5.1-.1h.1c.1,0,.2,0,.3.1s.2.2.4.3c.1.1.3.2.5.3.2.1.5.1.8.1s.5,0,.7-.1.4-.2.5-.3c.1-.1.2-.3.3-.5s.1-.4.1-.6-.1-.4-.2-.6c-.1-.2-.3-.3-.4-.4-.2-.1-.4-.2-.6-.3-.2-.1-.5-.1-.7-.2-.2-.1-.5-.2-.7-.3s-.4-.2-.6-.4c-.2-.2-.3-.4-.4-.6-.1-.2-.2-.5-.2-.9,0-.3.1-.6.2-.8.1-.3.3-.5.5-.7s.5-.4.8-.5.7-.2,1-.2c.4,0,.8.1,1.2.2.4.1.7.3,1,.6l-.4.6Zm9.2-1.3v.9h-2.6v7h-1.1v-7h-2.6v-.9h6.3Z"/><rect class="cls-2" x=".1" y="61.8" width="149" height=".4"/><path class="cls-1" d="m140.5,4.4c0-2.4,1.9-4.3,4.3-4.3s4.3,1.9,4.3,4.3-1.9,4.3-4.3,4.3-4.3-2-4.3-4.3ZM129.7,0C127.3,0,125.4,1.9,125.4,4.3s1.9,4.3,4.3,4.3,4.3-1.9,4.3-4.3C134,2,132,0,129.7,0Zm15.1,15.1c-2.4,0-4.3,1.9-4.3,4.3s1.9,4.3,4.3,4.3,4.3-1.9,4.3-4.3-1.9-4.3-4.3-4.3Z"/><path class="cls-2" d="m12.9,34.9c0,1.4-.2,2.7-.5,3.9-.4,1.2-.9,2.2-1.6,3s-1.6,1.5-2.7,1.9c-1.2.5-2.5.7-3.9.7-.7,0-1.3,0-2-.1s-1.3-.2-2-.4l.3-3.5c0-.3.2-.6.4-.7.2-.2.5-.3.9-.3.2,0,.4,0,.7.1s.6.1,1.1.1c.6,0,1.1-.1,1.5-.2.4-.2.8-.4,1.1-.8.3-.4.5-.9.6-1.4.1-.6.2-1.3.2-2.2v-16.4h5.9s0,16.3,0,16.3Zm40.2-16.3v25.6h-5.2v-15.9c0-.4,0-.8.1-1.2l-6.8,13.2c-.2.4-.5.7-.9.9s-.8.3-1.2.3h-.8c-.5,0-.9-.1-1.2-.3-.4-.2-.6-.5-.9-.9l-6.8-13.2c0,.4.1.8.1,1.2v15.8h-5.2v-25.5h5.2c.2,0,.4,0,.5.1.2.1.3.1.4.3.1.1.2.3.4.5l6.6,13c.2.4.5.9.7,1.4s.4,1,.6,1.5c.2-.5.4-1,.6-1.5.2-.5.4-1,.7-1.4l6.6-13c.1-.2.2-.4.4-.5.1-.1.3-.2.4-.3.2-.1.3-.1.5-.1h5.2Zm20.8,0c1.8,0,3.3.2,4.5.5s2.3.8,3,1.4c.8.6,1.4,1.3,1.7,2.2.4.9.5,1.8.5,2.9,0,.6-.1,1.1-.2,1.7-.2.5-.4,1-.8,1.5s-.8.9-1.4,1.3c-.6.4-1.2.7-2,1,1.7.4,2.9,1.1,3.7,2,.8.9,1.2,2.1,1.2,3.5,0,1.1-.2,2.1-.6,3s-1,1.8-1.9,2.5c-.8.7-1.8,1.2-3,1.6-1.2.4-2.6.6-4.1.6h-10v-25.7h9.4Zm-3.5,4.4v6.3h3.1c.7,0,1.2,0,1.8-.1.5-.1,1-.3,1.3-.5.4-.2.6-.6.8-1,.2-.4.3-.9.3-1.5s-.1-1.1-.2-1.5c-.2-.4-.4-.7-.7-1-.3-.2-.7-.4-1.2-.5s-1.1-.2-1.7-.2c0,0-3.5,0-3.5,0Zm4.2,16.7c.8,0,1.4-.1,1.9-.3s.9-.5,1.2-.8c.3-.3.5-.7.6-1.1.1-.4.2-.8.2-1.2,0-.5-.1-.9-.2-1.3-.1-.4-.3-.7-.6-.9-.3-.3-.7-.5-1.2-.6s-1.1-.2-1.9-.2h-4.1v6.4s4.1,0,4.1,0Zm37.1,4.5h-4.6c-.5,0-.9-.1-1.2-.4-.3-.2-.6-.5-.7-.9l-1.6-4.5h-9.7l-1.5,4.5c-.1.3-.4.6-.7.9-.3.3-.7.4-1.2.4h-4.6l9.9-25.6h6.1l9.8,25.6Zm-9.5-9.8l-2.4-7c-.2-.4-.4-1-.6-1.6-.2-.6-.4-1.3-.6-2-.2.7-.4,1.4-.6,2-.2.6-.4,1.1-.6,1.6l-2.4,7h7.2Zm36.5,9.8h-5.9c-.4,0-.7-.1-.9-.3s-.4-.4-.6-.7l-5.1-9c-.1.3-.2.5-.3.7l-4.8,8.3c-.2.2-.4.5-.6.6-.2.2-.5.3-.9.3h-5.6l8.2-13.2-7.9-12.4h5.9c.4,0,.7.1.9.1.2.1.3.3.5.5l5.1,8.6c.1-.2.1-.3.2-.4.1-.1.2-.3.3-.4l4.5-7.7c.2-.3.3-.4.5-.6.2-.1.4-.2.7-.2h5.7l-8,12.2,8.1,13.6Zm8.8-18.3v18.2h-5.4v-18.2h5.4Z"/></svg>