<?xml version="1.0" encoding="UTF-8"?><svg id="Layer_1" xmlns="http://www.w3.org/2000/svg" viewBox="0 0 792 216"><defs><style>.cls-1{fill:#fdb735;}.cls-2{fill:#bfbdbd;}.cls-3{fill:#79726c;}</style></defs><path class="cls-2" d="m119,147.87v.3c-.04-.46-.04-.91,0-1.37,1.57-17.44,8.25-34.04,19.21-47.7-3.98-9.84-9.01-19.23-15-28-7.52,7.62-13.98,16.22-19.21,25.56,8.83,15.7,13.96,33.22,15,51.2"/><path class="cls-2" d="m104,48.23C78.17,22.95,44.01,7.96,7.92,6.07,3.8,5.83.26,8.97.01,13.1c0,.13-.01.27-.01.4v14.83c-.02,3.96,3.05,7.26,7,7.53,29.15,1.68,56.67,14.03,77.29,34.71l.53.56c5.27-7.76,11.26-15,17.89-21.63.43-.43.89-.84,1.32-1.27"/><path class="cls-2" d="m59.27,146.95c.85-16.43,4.43-32.6,10.59-47.85-2.07-2.61-4.29-5.1-6.64-7.46-14.78-14.81-34.3-23.95-55.14-25.82-4.1-.35-7.71,2.69-8.05,6.79-.02.22-.03.43-.03.65v15c.02,3.81,2.91,7,6.7,7.4,13.41,1.5,25.92,7.53,35.45,17.08,9.55,9.53,15.58,22.04,17.08,35.45.4,3.79,3.59,6.68,7.4,6.7h.08c-4.13-.01-7.47-3.38-7.45-7.51,0-.14,0-.28.01-.41"/><path class="cls-1" d="m201.07,35.86c3.95-.27,7.02-3.57,7-7.53v-14.83c-.01-4.13-3.38-7.47-7.51-7.45-.14,0-.28,0-.41.01-36.12,1.88-70.31,16.87-96.15,42.17.44.43.9.84,1.33,1.27,6.63,6.63,12.61,13.88,17.88,21.63l.53-.56c20.62-20.68,48.14-33.04,77.29-34.72"/><path class="cls-1" d="m69.86,99.1c10.93,13.67,17.59,30.26,19.14,47.69.04.46.04.92,0,1.38v-.3c1.04-17.99,6.17-35.5,15-51.2-5.22-9.33-11.67-17.92-19.17-25.54-5.99,8.77-11.01,18.16-15,28"/><path class="cls-3" d="m104,48.23c-.44.42-.89.83-1.32,1.27-6.61,6.63-12.59,13.88-17.85,21.63,7.5,7.61,13.95,16.2,19.17,25.53,5.23-9.33,11.69-17.92,19.21-25.53-5.26-7.75-11.23-14.99-17.84-21.63-.43-.43-.89-.84-1.33-1.27"/><path class="cls-3" d="m69.86,99.1c-6.16,15.25-9.74,31.42-10.59,47.84-.24,4.12,2.9,7.66,7.03,7.91.14,0,.28.01.41.01h14.83c.24,0,.47,0,.71-.07s.53,0,.78-.08c.34-.08.67-.19,1-.31.11,0,.22-.07.33-.11.35-.13.68-.3,1-.49.11-.06.22-.11.32-.18.27-.18.53-.38.78-.59.13-.11.25-.22.37-.34.2-.2.39-.41.57-.63.14-.17.27-.34.39-.52s.26-.41.38-.63c.12-.23.23-.46.33-.7.08-.2.16-.4.23-.62.08-.28.15-.56.2-.84,0-.2.07-.4.1-.61.04-.46.04-.92,0-1.38-1.57-17.43-8.23-34-19.17-47.66"/><path class="cls-1" d="m141.37,154.87h.07c3.82-.01,7.01-2.9,7.41-6.7,3.13-27.61,24.92-49.4,52.53-52.53,3.79-.4,6.68-3.59,6.7-7.4v-15c0-4.11-3.34-7.45-7.45-7.45-.21,0-.42,0-.63.03-20.84,1.87-40.36,11.01-55.14,25.82-2.35,2.36-4.57,4.85-6.65,7.46,6.16,15.25,9.74,31.42,10.6,47.84.24,4.12-2.9,7.66-7.03,7.91-.14,0-.28.01-.41.01"/><path class="cls-3" d="m119.05,148.16c0,.21.06.4.1.61.05.28.12.56.2.84.07.21.15.42.23.62.1.24.21.47.33.69.12.22.24.43.38.63.12.18.25.35.39.52.18.22.37.44.57.64l.37.32c.25.22.51.42.78.6l.32.18c.32.19.65.36,1,.49.1,0,.21.07.32.11.34.13.7.23,1.06.31.25,0,.52.06.78.08s.47.07.72.07h14.83c4.13-.01,7.47-3.38,7.45-7.51,0-.14,0-.28-.01-.41-.88-16.43-4.48-32.6-10.66-47.85-10.96,13.66-17.64,30.25-19.21,47.69-.04.46-.04.92,0,1.38"/><path class="cls-3" d="m247.81,149.2V8.4c.02-2.55,1.43-4.88,3.67-6.09C254.37.66,257.67-.14,261,0c3.43-.11,6.84.68,9.86,2.31,2.67,1.54,4,3.57,4,6.09v87.92l39.45-37.14c1.51-1.34,3.45-2.08,5.46-2.1,2.94,0,5.88,1.4,8.81,4.2,2.93,2.8,4.41,5.74,4.42,8.81-.05,1.91-.89,3.72-2.31,5l-24.76,22.49,30.85,44.07c.94,1.28,1.45,2.82,1.47,4.4,0,3.08-1.71,6.08-5.14,9s-6.82,4.39-10.18,4.41c-2.71.05-5.25-1.3-6.72-3.57l-28.33-41.76-13,12v23.07c0,2.1-1.4,4.06-4.2,5.87-2.88,1.85-6.25,2.8-9.68,2.73-3.34.13-6.64-.79-9.44-2.62-2.5-1.75-3.75-3.75-3.75-5.98Z"/><path class="cls-3" d="m350.31,116.67v-17.83c0-11.47,4.48-21.33,13.43-29.59,8.95-8.26,19.8-12.39,32.53-12.38,11.89,0,22.06,3.76,30.53,11.28,8.26,7.07,12.93,17.48,12.7,28.35.1,3.49-.43,6.98-1.58,10.28-.83,2.45-2.56,4.49-4.83,5.72-1.88,1.01-3.9,1.71-6,2.08-2.35.31-4.72.45-7.09.42h-42.6v3.15c-.17,5.65,2.32,11.04,6.72,14.58,4.47,3.71,10.42,5.56,17.83,5.56,5.49-.05,10.89-1.42,15.74-4,5.17-2.67,8.53-4,10.07-4,2.98.02,5.75,1.57,7.34,4.09,1.78,2.25,2.81,5,2.94,7.87,0,3.92-3.53,7.8-10.6,11.65-7.07,3.85-15.84,5.77-26.33,5.77-14.97,0-27.18-3.95-36.62-11.86-9.44-7.91-14.17-18.29-14.18-31.14Zm27.07-17.67h30.62c2.23,0,3.81-.36,4.72-1.08.91-.72,1.37-2.12,1.37-4.21.1-4.36-1.89-8.51-5.35-11.17-7.68-5.71-18.19-5.75-25.91-.1-3.52,2.57-5.56,6.71-5.46,11.07v5.49Z"/><path class="cls-3" d="m455,141.65c.11-2.84,1.07-5.58,2.76-7.87,1.84-2.73,3.96-4.09,6.37-4.09,2.1.18,4.11.91,5.84,2.1,2.95,1.69,6.04,3.13,9.23,4.3,4.36,1.56,8.96,2.3,13.59,2.2,10.33,0,15.5-2.93,15.51-8.78,0-3.27-1.72-5.85-5.15-7.76-3.91-2.09-8.07-3.67-12.38-4.7-4.83-1.22-9.69-2.68-14.58-4.39-4.86-1.68-9.17-4.64-12.48-8.57-3.43-4-5.15-9.14-5.14-15.41-.13-8.38,3.11-16.46,9-22.42,6-6.27,15.51-9.4,28.54-9.4,7.91-.13,15.78,1.23,23.19,4,6.79,2.67,10.18,5.88,10.18,9.65,0,2.38-.94,5.14-2.83,8.29-1.89,3.15-4.22,4.72-7,4.72-1.12,0-4.16-.87-9.13-2.62-4.48-1.66-9.22-2.55-14-2.62-4.76,0-8.4.95-10.91,2.86-2.51,1.91-3.77,4.02-3.78,6.33,0,2.31,1.26,4.22,3.78,5.71,2.92,1.65,6.09,2.82,9.39,3.47,4.03.9,8.01,2.02,11.92,3.35,4.07,1.35,8.03,3.02,11.83,5,3.81,2.07,6.97,5.14,9.16,8.88,2.57,4.42,3.85,9.48,3.7,14.59,0,9.69-3.39,17.31-10.17,22.87-6.78,5.56-16.26,8.34-28.44,8.35-10.49,0-19.45-1.82-26.86-5.46-7.41-3.64-11.13-7.83-11.14-12.58Z"/><path class="cls-3" d="m551.7,124.21V23.61c0-2.35,1.4-4.32,4.2-5.91,2.81-1.6,6-2.42,9.23-2.39,3.33-.08,6.63.72,9.55,2.32,2.73,1.55,4.09,3.46,4.09,5.75v34.75h24.76c2.13.04,4.06,1.27,5,3.19,1.3,2.28,1.96,4.88,1.89,7.51.07,2.63-.59,5.23-1.89,7.52-.94,1.92-2.87,3.15-5,3.19h-24.76v43.76c0,3.87.87,6.6,2.62,8.19,1.75,1.59,4.79,2.39,9.13,2.4h8.18c3.22-.18,6.34,1.11,8.5,3.51,2,2.31,3.07,5.28,3,8.34.09,3.13-.97,6.18-3,8.56-2.16,2.4-5.28,3.69-8.5,3.51h-8.18c-25.88,0-38.82-11.21-38.82-33.6Z"/><path class="cls-3" d="m631.36,149.2v-82.68c0-2.54,1.41-4.87,3.64-6.08,2.9-1.66,6.21-2.46,9.55-2.31,3.07-.12,6.11.69,8.71,2.33,2.16,1.29,3.48,3.62,3.46,6.14v8.68c2.37-5.11,5.98-9.54,10.49-12.91,4.33-3.52,9.74-5.46,15.32-5.51h6.51c2.52,0,4.79,1.2,6.82,3.6,1.97,2.3,3.04,5.23,3,8.26.06,3.09-1,6.11-3,8.47-2,2.4-4.27,3.6-6.82,3.6h-6.51c-6.43,0-12.07,2.86-16.9,8.58s-7.25,13.18-7.24,22.39v37.46c0,2.09-1.4,4.05-4.19,5.86-2.88,1.84-6.24,2.78-9.66,2.72-3.34.13-6.64-.79-9.44-2.62-2.5-1.75-3.75-3.75-3.74-5.98Z"/><path class="cls-3" d="m707.43,130.92c0-11.01,4.2-18.76,12.59-23.25,8.39-4.49,20.49-6.73,36.3-6.73h8.6v-2.81c.1-5.01-1.49-9.92-4.51-13.92-3.01-3.96-7.67-5.94-14-5.94-5.6-.16-11.15,1.07-16.16,3.57-4.48,2.38-7.07,3.57-7.76,3.57-2.8,0-5.04-1.4-6.72-4.2-1.65-2.79-2.5-5.97-2.46-9.21,0-4.05,3.6-7.59,10.81-10.6,7.21-3.01,14.96-4.54,22.77-4.51,15.25,0,26.58,3.88,34,11.65,7.42,7.77,11.12,17.52,11.11,29.25v51.41c0,2.38-1.26,4.41-3.78,6.09-2.82,1.76-6.11,2.64-9.44,2.52-3.12.12-6.2-.83-8.71-2.69-2.14-1.48-3.43-3.91-3.46-6.51v-6.51c-9.65,11.73-20.29,17.59-31.9,17.59-8,0-14.54-2.45-19.62-7.35-5.08-4.9-7.63-12.04-7.66-21.42Zm27.07-3.38c0,3.59,1,6.28,3,8.07,2.26,1.87,5.15,2.83,8.08,2.69,4.47,0,8.81-2,13-6,4.19-4,6.29-8.38,6.3-13.14v-4.16h-3.15c-8.53,0-15.2.83-20,2.49-4.8,1.66-7.21,5.01-7.23,10.05Z"/><path class="cls-3" d="m247.81,213v-26.54c-.08-.97.29-1.92,1-2.59.68-.56,1.55-.86,2.43-.83,1.03-.06,2.07.14,3,.59.98.74,1.77,1.72,2.3,2.83l4.52,7.89,4.52-7.89c.53-1.11,1.32-2.09,2.3-2.83.93-.45,1.97-.65,3-.59.88-.03,1.75.27,2.43.83.71.67,1.08,1.62,1,2.59v26.54c0,.67-.39,1.28-1,1.56-1.53.73-3.3.73-4.83,0-.61-.28-1-.89-1-1.56v-16.45l-4.21,7.2c-.46.81-1.34,1.3-2.27,1.25-.91.05-1.76-.45-2.15-1.27l-4.17-7.63v16.9c0,.67-.39,1.28-1,1.56-1.53.73-3.3.73-4.83,0-.63-.27-1.03-.88-1.04-1.56Z"/><path class="cls-3" d="m281.68,213v-27.86c-.02-.64.32-1.24.88-1.56.64-.38,1.37-.57,2.11-.55h15.62c.64-.02,1.23.32,1.53.88.36.62.55,1.34.53,2.06.02.75-.17,1.5-.55,2.15-.3.55-.88.89-1.51.88h-11.76v7.42h6.58c.61-.02,1.18.28,1.51.79.38.56.57,1.22.55,1.89,0,.64-.18,1.27-.53,1.8-.34.52-.92.82-1.54.79h-6.58v7.46h11.76c.63,0,1.21.33,1.51.88.38.65.57,1.4.55,2.15.02.72-.17,1.44-.53,2.06-.3.56-.89.9-1.53.88h-15.61c-.74.02-1.47-.17-2.11-.55-.56-.32-.9-.92-.88-1.57Z"/><path class="cls-3" d="m308,213.05v-27.95c.02-.59.33-1.14.83-1.45.63-.43,1.39-.65,2.15-.62h7.77c2.83-.15,5.62.74,7.85,2.5,1.96,1.67,2.94,4.28,2.94,7.85v11.36c0,3.57-.98,6.19-2.94,7.85-2.23,1.76-5.02,2.65-7.85,2.5h-7.77c-.76.03-1.52-.18-2.15-.61-.49-.31-.8-.85-.83-1.43Zm6.85-3.9h3.91c2.63,0,3.95-1.46,3.95-4.39v-11.37c0-2.93-1.32-4.39-3.95-4.39h-3.91v20.15Z"/><path class="cls-3" d="m336.49,213v-27.9c0-.67.39-1.27,1-1.54,1.53-.7,3.3-.7,4.83,0,.61.27,1.01.87,1,1.54v27.9c0,.67-.39,1.28-1,1.56-1.53.73-3.3.73-4.83,0-.61-.28-1-.89-1-1.56Z"/><path class="cls-3" d="m350.35,205v-11.61c0-3.57.97-6.18,2.92-7.85,2.15-1.74,4.85-2.63,7.61-2.5,2.82-.12,5.61.7,7.92,2.33,2.03,1.48,3.2,3.88,3.1,6.4.11.93-.17,1.86-.79,2.57-.77.53-1.7.77-2.63.68-2.2,0-3.33-.69-3.42-2.06-.09-2.63-1.39-3.95-3.91-3.95s-3.95,1.46-3.95,4.39v11.6c0,2.93,1.33,4.39,4,4.39.69.02,1.37-.11,2-.39.53-.25.94-.68,1.17-1.21.2-.43.35-.88.46-1.34.09-.48.16-.96.2-1.45.12-1.37,1.25-2.06,3.38-2.06.95-.09,1.89.15,2.68.68.62.71.9,1.64.79,2.57.11,2.61-1.05,5.1-3.1,6.71-2.28,1.71-5.08,2.58-7.92,2.46-2.76.13-5.46-.76-7.61-2.5-1.93-1.65-2.9-4.27-2.9-7.86Z"/><path class="cls-3" d="m375.8,212.31c.01-.16.04-.32.09-.48l8.16-26.77c.26-.77.85-1.38,1.6-1.69,1.83-.79,3.92-.79,5.75,0,.75.31,1.33.92,1.6,1.69l8.21,26.77c.05.16.08.32.09.48-.06.88-.61,1.65-1.42,2-.91.55-1.94.83-3,.83-1.26,0-2.01-.42-2.24-1.27l-1.49-5.49h-9.26l-1.49,5.49c-.23.85-.98,1.27-2.24,1.27-1.06,0-2.09-.28-3-.83-.79-.37-1.31-1.13-1.36-2Zm9.52-9.21h6.4l-3.2-11.76-3.2,11.76Z"/><path class="cls-3" d="m406.48,213v-27.9c0-.67.39-1.27,1-1.54,1.53-.7,3.3-.7,4.83,0,.61.27,1.01.87,1,1.54v24h10c.61,0,1.17.34,1.45.88.7,1.32.7,2.89,0,4.21-.28.54-.84.89-1.45.88h-13.85c-.74.02-1.47-.17-2.11-.55-.54-.31-.87-.89-.87-1.52Z"/><path class="cls-3" d="m440.09,186c-.02-.73.17-1.44.53-2.07.31-.56.9-.89,1.54-.87h19c.64-.02,1.24.32,1.54.88.36.63.55,1.34.53,2.07.02.75-.17,1.5-.55,2.15-.31.54-.89.88-1.51.87h-6.17v24c0,.67-.39,1.29-1,1.57-1.52.74-3.3.74-4.82,0-.61-.28-1-.9-1-1.57v-24.03h-6.05c-.62,0-1.2-.32-1.51-.87-.37-.65-.56-1.38-.53-2.13Z"/><path class="cls-3" d="m468.52,213v-27.86c-.02-.64.32-1.24.88-1.56.64-.38,1.37-.57,2.11-.55h15.62c.64-.02,1.24.32,1.54.88.36.62.55,1.34.53,2.06.02.75-.17,1.5-.55,2.15-.3.55-.88.89-1.51.88h-11.77v7.42h6.58c.61-.02,1.19.28,1.52.79.38.56.57,1.22.55,1.89,0,.64-.18,1.27-.53,1.8-.34.52-.92.82-1.54.79h-6.58v7.46h11.76c.63,0,1.21.33,1.51.88.38.65.57,1.4.55,2.15.02.72-.17,1.44-.53,2.06-.3.56-.9.9-1.54.88h-15.62c-.74.02-1.47-.17-2.11-.55-.56-.32-.89-.93-.87-1.57Z"/><path class="cls-3" d="m494.15,205v-11.61c0-3.57.97-6.18,2.92-7.85,2.14-1.74,4.85-2.63,7.61-2.5,2.82-.12,5.61.7,7.92,2.33,2.03,1.48,3.2,3.88,3.1,6.4.11.93-.17,1.86-.79,2.57-.77.53-1.7.77-2.63.68-2.19,0-3.33-.69-3.42-2.06-.09-2.63-1.39-3.95-3.9-3.95-2.67,0-4,1.46-4,4.39v11.6c0,2.93,1.33,4.39,4,4.39.69.02,1.37-.11,2-.39.52-.25.94-.68,1.16-1.21.2-.43.35-.88.46-1.34.09-.48.16-.96.2-1.45.15-1.33,1.3-2,3.45-2,.94-.09,1.88.15,2.67.68.62.71.9,1.64.79,2.57.11,2.61-1.05,5.1-3.1,6.71-2.28,1.71-5.08,2.58-7.92,2.46-2.76.13-5.47-.76-7.61-2.5-1.94-1.69-2.91-4.33-2.91-7.92Z"/><path class="cls-3" d="m521.79,213v-27.9c0-.67.39-1.27,1-1.54,1.53-.7,3.3-.7,4.83,0,.61.27,1.01.87,1,1.54v10.75h8.73v-10.75c0-.67.39-1.27,1-1.54,1.53-.7,3.3-.7,4.83,0,.61.27,1.01.87,1,1.54v27.9c0,.67-.39,1.28-1,1.56-1.53.73-3.3.73-4.83,0-.61-.28-1-.89-1-1.56v-11.88h-8.73v11.88c0,.67-.39,1.28-1,1.56-1.53.73-3.3.73-4.83,0-.61-.28-1-.89-1-1.56Z"/><path class="cls-3" d="m551.58,213v-27.86c0-.67.39-1.28,1-1.56.74-.39,1.58-.59,2.42-.58,1.01-.07,2.01.13,2.92.57.93.76,1.66,1.74,2.13,2.85l7.11,13.58v-14.9c0-.67.39-1.27,1-1.54,1.53-.7,3.3-.7,4.83,0,.61.27,1.01.87,1,1.54v27.9c0,.67-.39,1.28-1,1.56-.74.38-1.57.57-2.41.55-1.87,0-3.15-.61-3.82-1.84l-8.34-15.18v14.91c0,.67-.39,1.28-1,1.56-1.53.73-3.3.73-4.83,0-.61-.28-1.01-.89-1.01-1.56Z"/><path class="cls-3" d="m581,205v-11.61c0-3.57.98-6.18,2.94-7.85,4.69-3.34,10.98-3.34,15.67,0,1.96,1.67,2.94,4.28,2.94,7.85v11.61c0,3.57-.98,6.19-2.94,7.86-4.69,3.34-10.98,3.34-15.67,0-1.96-1.65-2.94-4.27-2.94-7.86Zm6.84,0c0,2.93,1.3,4.39,3.91,4.39s3.92-1.46,3.95-4.39v-11.61c0-2.93-1.32-4.39-3.95-4.39s-3.94,1.46-3.91,4.39v11.61Z"/><path class="cls-3" d="m609.59,213v-27.9c0-.67.39-1.27,1-1.54,1.53-.7,3.3-.7,4.83,0,.61.27,1.01.87,1,1.54v24h10c.61,0,1.17.34,1.45.88.7,1.32.7,2.89,0,4.21-.28.54-.84.88-1.45.88h-13.84c-.74.02-1.47-.17-2.11-.55-.55-.31-.88-.89-.88-1.52Z"/><path class="cls-3" d="m633,205v-11.61c0-3.57.98-6.18,2.94-7.85,4.69-3.34,10.98-3.34,15.67,0,1.96,1.67,2.94,4.28,2.94,7.85v11.61c0,3.57-.98,6.19-2.94,7.86-4.69,3.34-10.98,3.34-15.67,0-1.96-1.65-2.94-4.27-2.94-7.86Zm6.85,0c0,2.93,1.3,4.39,3.9,4.39s3.92-1.46,3.95-4.39v-11.61c0-2.93-1.32-4.39-3.95-4.39s-3.93,1.46-3.9,4.39v11.61Z"/><path class="cls-3" d="m661.19,205v-11.61c0-3.57.97-6.18,2.92-7.85,2.14-1.74,4.85-2.63,7.61-2.5,2.82-.12,5.61.7,7.92,2.33,2.03,1.49,3.19,3.89,3.09,6.4.11.93-.17,1.86-.79,2.57-.77.53-1.7.77-2.63.68-2.25,0-3.39-.69-3.42-2.06v-1c-.05-.34-.14-.68-.26-1-.11-.38-.32-.73-.61-1-.35-.28-.74-.5-1.16-.64-.6-.22-1.23-.33-1.86-.32-2.63,0-3.95,1.46-3.95,4.39v11.61c0,2.93,1.3,4.39,3.9,4.39s3.93-1.46,4-4.39v-1.49h-2.65c-.61.02-1.18-.27-1.52-.77-.75-1.12-.75-2.57,0-3.69.32-.51.89-.81,1.49-.81h7.37c.58-.03,1.14.21,1.52.64.36.42.55.96.54,1.51v4.61c0,3.57-.98,6.19-2.94,7.86-4.69,3.33-10.97,3.33-15.66,0-1.94-1.65-2.91-4.27-2.91-7.86Z"/><path class="cls-3" d="m689.32,213v-27.9c0-.67.39-1.27,1-1.54,1.53-.7,3.3-.7,4.83,0,.61.27,1.01.87,1,1.54v27.9c0,.67-.39,1.28-1,1.56-1.53.73-3.3.73-4.83,0-.61-.28-1-.89-1-1.56Z"/><path class="cls-3" d="m703.54,213v-27.86c-.02-.64.32-1.24.88-1.56.64-.38,1.37-.57,2.11-.55h15.62c.64-.02,1.23.32,1.54.88.36.63.54,1.34.53,2.06.02.75-.17,1.5-.55,2.15-.3.55-.89.89-1.52.88h-11.77v7.42h6.62c.61-.02,1.19.28,1.52.79.37.56.57,1.22.55,1.89,0,.64-.18,1.27-.53,1.8-.34.52-.92.82-1.54.79h-6.58v7.46h11.76c.63-.01,1.22.33,1.52.88.38.65.57,1.4.55,2.15.01.72-.17,1.43-.53,2.06-.31.56-.9.9-1.54.88h-15.66c-.74.02-1.47-.17-2.11-.55-.56-.32-.89-.93-.87-1.57Z"/><path class="cls-3" d="m728.29,209.85c.03-.9.34-1.76.9-2.46.45-.73,1.23-1.2,2.09-1.23.53.03,1.04.22,1.47.54.53.35,1.03.74,1.49,1.18,1.25,1.08,2.85,1.69,4.5,1.71,1.05.03,2.08-.22,3-.72.81-.41,1.31-1.26,1.28-2.17-.04-1.03-.57-1.98-1.43-2.54-1.07-.8-2.23-1.47-3.46-2-1.33-.59-2.7-1.26-4.1-2-1.4-.77-2.6-1.86-3.49-3.18-.98-1.45-1.48-3.16-1.43-4.91-.19-2.75,1.05-5.4,3.29-7,2.34-1.58,5.12-2.38,7.94-2.3.8,0,1.6.04,2.39.13.95.11,1.89.29,2.81.52.93.21,1.8.63,2.54,1.24.63.51,1,1.27,1,2.08-.02.85-.27,1.69-.72,2.41-.37.77-1.15,1.25-2,1.25-.79-.15-1.55-.43-2.24-.83-1.18-.56-2.47-.85-3.78-.83-1.15-.08-2.3.19-3.29.77-.66.39-1.08,1.09-1.1,1.86.03.74.4,1.42,1,1.85.78.6,1.64,1.08,2.57,1.42,1.15.45,2.27.97,3.36,1.54,1.17.6,2.29,1.29,3.35,2.06,1.09.83,1.97,1.9,2.57,3.14.69,1.44,1.04,3.02,1,4.61.13,2.67-.97,5.26-3,7-2.26,1.76-5.08,2.66-7.94,2.52-2.58.07-5.14-.54-7.42-1.75-2.1-1.17-3.15-2.48-3.15-3.91Z"/></svg>