<?xml version="1.0" encoding="UTF-8"?><svg id="Layer_1" xmlns="http://www.w3.org/2000/svg" viewBox="0 0 371.1 73"><path d="m46.6,1.9h21.2c.9,0,1.4,1,.8,1.7l-25.8,32.5c-.2.2-.2.5,0,.8l25.8,32.5c.5.7.1,1.7-.8,1.7h-21.2c-.3,0-.6-.1-.8-.4l-19.5-25.3c-.1-.2-.3-.2-.5-.2h-6.1c-.2,0-.3.1-.3.3v24.5c0,.6-.5,1-1,1H1C.4,71,0,70.5,0,70V3C0,2.4.5,2,1,2h17.3c.6,0,1,.5,1,1v24.6c0,.2.1.3.3.3h6.1c.2,0,.4-.1.5-.2L45.8,2.3c.2-.2.5-.4.8-.4m137.9,34.6c0,20.1-16.2,36.5-38.5,36.5s-38.5-16.3-38.5-36.5C107.6,16.3,123.7,0,146,0s38.5,16.3,38.5,36.5m-19.3,0c0-10.8-8-19.5-19.1-19.5s-19.1,8.7-19.1,19.5,8,19.5,19.1,19.5,19.1-8.8,19.1-19.5m-87,34.5h18.7c.6,0,1-.5,1-1V3c0-.6-.5-1-1-1h-18.7c-.6,0-1,.5-1,1v67c0,.6.4,1,1,1M256.7,1.9h-21.2c-.3,0-.6.1-.8.4l-15.4,19.9c-.1.2-.4.2-.5,0l-15.4-19.9c-.2-.3-.5-.4-.8-.4h-21.2c-.9,0-1.4,1-.8,1.7l25.8,32.5c.2.2.2.5,0,.8l-25.8,32.5c-.5.7-.1,1.7.8,1.7h21.2c.3,0,.6-.1.8-.4l15.4-19.9c.1-.2.4-.2.5,0l15.4,19.9c.2.3.5.4.8.4h21.2c.9,0,1.4-1,.8-1.7l-25.8-32.5c-.2-.2-.2-.5,0-.8l25.8-32.5c.6-.7.1-1.7-.8-1.7m94.5,68.4l-3.3-9.6c-.1-.2-.3-.4-.6-.4h-28.3c-.3,0-.5.2-.6.4l-3.3,9.6c-.1.4-.5.7-1,.7h-17.9c-.7,0-1.2-.7-1-1.4L318.6,2.6c.1-.4.5-.7,1-.7h27.2c.4,0,.8.3,1,.7l23.4,67c.2.7-.3,1.4-1,1.4h-17.9c-.6,0-1-.2-1.1-.7m-18.4-53.6l-8.9,26.3c-.1.4.2.8.6.8h17.3c.4,0,.7-.4.6-.8l-8.9-26.3c-.2-.3-.6-.3-.7,0m-65.7,54.3h18.7c.6,0,1-.5,1-1V3c0-.6-.5-1-1-1h-18.7c-.6,0-1,.5-1,1v67c-.1.6.4,1,1,1"/></svg>