<?xml version="1.0" encoding="UTF-8"?><svg id="Layer_1" xmlns="http://www.w3.org/2000/svg" viewBox="0 0 203.66 49.13"><defs><style>.cls-1{fill:#fff;}</style></defs><path class="cls-1" d="m172.71,24.41c0,4.31-3.5,7.81-7.81,7.81s-7.81-3.5-7.81-7.81,3.5-7.81,7.81-7.81h0c4.31,0,7.81,3.5,7.81,7.81m4.59,0c0-6.85-5.54-12.4-12.39-12.41s-12.4,5.54-12.41,12.39c0,6.85,5.54,12.4,12.39,12.41,0,0,0,0,.01,0,6.84,0,12.39-5.55,12.4-12.39m6.76,4.17c.07,4.74,4.18,8.22,10.1,8.22,5.46,0,9.47-3.24,9.5-7.69,0-4.91-3.65-6.17-7.83-6.93s-6-1.18-6-3.17,1.6-2.82,3.83-2.82c2.54,0,4.14,1.43,4.35,3.48h5.12c-.11-4.42-4-7.66-9.47-7.66s-9.09,3.1-9.09,7.38c0,4.95,3.62,6.27,7.73,7s6.06,1.21,6.06,3.27-1.78,3-4.18,3c-3,0-4.88-1.64-5-4l-5.12-.08Zm-59.26-16.36v24.37h5.2v-10.06h9.68v10.06h5.22V12.22h-5.2v9.78h-9.7v-9.78h-5.2Zm-27,0v4.49h7v19.88h5.23v-19.88h7v-4.49h-19.23Zm-13.44,24.37h5.22V12.22h-5.22v24.37Zm-23.78,0h14.9v-4.49h-9.68V12.22h-5.22v24.37Zm-39.31,6.54l-9.78-5.65c7.26-6.27,16.31-10.08,25.86-10.91v7.28l-16.08,9.28ZM5.19,24.77c4.12.1,8.18.95,12,2.5-3.78,2.05-7.29,4.57-10.45,7.48l-1.55-.9v-9.08ZM21.27,6l16.08,9.29v6.07c-4.86.31-9.64,1.37-14.18,3.14-5.47-3.17-11.68-4.86-18-4.92v-4.3L21.27,6ZM21.27,0L0,12.28v24.56l21.27,12.29,21.28-12.29V12.28L21.27,0Z"/></svg>