<?xml version="1.0" encoding="UTF-8"?><svg id="Layer_1" xmlns="http://www.w3.org/2000/svg" viewBox="0 0 113.25 18.89"><defs><style>.cls-1,.cls-2{fill:#fff;}.cls-2{opacity:.75;}</style></defs><path class="cls-1" d="m32.42,11.25c-.05.13-.14.24-.26.31-.12.07-.25.1-.39.08h-.63c-.14.02-.27-.01-.39-.08-.12-.07-.21-.18-.26-.31l-1.37-2.48v6.11s0,.09-.03.13-.04.08-.08.12c-.03.03-.07.06-.11.08-.04.02-.09.03-.13.03h-2.37s-.09,0-.14-.03c-.04-.02-.08-.04-.11-.08-.03-.03-.06-.07-.08-.12s-.03-.09-.03-.13V4.59c0-.09.04-.18.1-.25.07-.07.15-.1.25-.1h2.56c.23,0,.37.05.54.36l1.98,3.01,1.98-3.02c.16-.31.31-.36.54-.36h2.57s.09,0,.14.02c.04.02.08.04.11.08.03.03.06.07.08.11.02.04.03.09.03.14v10.3c0,.09-.04.18-.1.25-.07.07-.16.1-.25.1h-2.45c-.09,0-.18-.04-.25-.1-.06-.07-.1-.16-.1-.25v-6.11l-1.34,2.48Zm9.95,3.63c0,.28-.07.36-.35.36h-2.36c-.28,0-.35-.07-.35-.36v-4.2c.05-.85.26-1.68.61-2.46l1.38-3.62c.08-.23.21-.38.6-.38h4.28c.13-.02.26,0,.37.07.11.07.19.18.22.3l1.38,3.62c.35.78.55,1.61.61,2.46v4.18c0,.28-.08.35-.35.35h-2.4c-.34,0-.4-.11-.4-.35v-2.44h-3.26l.02,2.46Zm2.13-8.06h-1.11l-.98,3.15h3.11l-1.02-3.15Zm5.82-2.59c-.28,0-.35.07-.35.35v1.92c0,.28.07.35.35.35h2.12v8.02c0,.28.08.35.35.35h2.58c.28,0,.35-.07.35-.35V6.86h2.12c.28,0,.35-.08.35-.35v-1.92c0-.28-.07-.35-.35-.35h-7.51Zm13.01,6.9h3.11v3.75c0,.28.08.35.35.35h2.46c.28,0,.36-.07.36-.35V4.59c0-.27-.08-.35-.36-.35h-2.47c-.27,0-.35.07-.35.35v3.67h-3.11v-3.67c0-.27-.08-.35-.35-.35h-2.46c-.28,0-.35.07-.35.35v10.3c0,.28.08.35.35.35h2.46c.27,0,.35-.07.35-.35v-3.75Zm9,1.51c-.28,0-.36.08-.36.35v1.89c0,.28.08.35.36.35h6.77c.28,0,.36-.08.36-.35v-1.89c0-.27-.08-.35-.36-.35h-1.77v-5.77h1.77c.28,0,.36-.07.36-.35v-1.94c0-.28-.08-.35-.36-.35h-6.77c-.28,0-.36.07-.36.35v1.93c0,.27.08.35.36.35h1.78v5.77l-1.78.02Zm9.6.03c-.27,0-.35.08-.35.35v1.86c0,.28.08.35.35.35h5.02c1.98,0,3.07-.92,3.07-2.58v-1.67c0-1.48-.66-2.18-2.29-2.42l-2.37-.32c-.62-.09-.62-.15-.62-.73s0-.7.65-.7h3.7c.27,0,.35-.07.35-.35v-1.89c0-.27-.08-.35-.35-.35h-4.44c-1.98,0-3.07.91-3.07,2.58v1.67c0,1.48.66,2.18,2.28,2.42l2.38.33c.55.08.6.13.6.76s-.11.68-.63.68h-4.29Zm14.8-8.68c4.14,0,4.72,1.46,4.72,3.04v5.42c0,1.57-.57,3.02-4.72,3.02s-4.72-1.45-4.72-3.02v-5.42c0-1.58.57-3.04,4.72-3.04m0,8.87c1.1,0,1.56-.3,1.56-.99v-4.28c0-.67-.47-.95-1.56-.95s-1.56.28-1.56.95v4.29c0,.68.47.97,1.56.97m10.26-2.85l3.16,4.88c.07.11.17.19.29.26.12.06.24.1.37.1h2.07c.28,0,.35-.07.35-.35V4.59c0-.27-.07-.35-.35-.35h-2.38c-.27,0-.35.07-.35.35v5.12l-3.47-5.12c-.09-.12-.21-.22-.35-.28-.14-.06-.29-.09-.44-.07h-1.65c-.27,0-.35.07-.35.35v10.3c0,.28.08.35.35.35h2.39c.27,0,.35-.07.35-.35l.02-4.87Z"/><path class="cls-2" d="m7.67,14.36h-3.13v4.22c0,.17.14.32.32.32h2.33c.2,0,.34-.05.49-.33l1.78-2.73,1.78,2.72c.15.28.28.33.49.33h2.31c.18,0,.32-.14.32-.32v-4.22h-3.13l-1.78-2.72-1.78,2.72ZM.32,4.54C.14,4.54,0,4.68,0,4.86v2.33C0,7.39.05,7.52.33,7.67l2.73,1.78-2.72,1.79C.05,11.39,0,11.52,0,11.72v2.31C0,14.21.14,14.36.32,14.36h4.22v-3.13l2.72-1.78-2.72-1.78v-3.13H.32Zm14.04,0v3.13l-2.72,1.78,2.72,1.78v3.13h4.22c.18,0,.32-.14.32-.32v-2.33c0-.2-.05-.34-.33-.49l-2.73-1.78,2.72-1.79c.28-.15.33-.28.33-.49v-2.32c0-.18-.14-.32-.32-.32h-4.22ZM11.71,0C11.51,0,11.38.05,11.22.33l-1.78,2.73L7.65.33C7.5.05,7.37,0,7.17,0h-2.31C4.68,0,4.54.14,4.54.32v4.22h3.13l1.78,2.72,1.78-2.72h3.13V.32C14.36.14,14.21,0,14.04,0h-2.33Z"/></svg>