<?xml version="1.0" encoding="UTF-8"?><svg id="Layer_1" xmlns="http://www.w3.org/2000/svg" viewBox="0 0 159.44 67.32"><defs><style>.cls-1,.cls-2{fill:#fff;}.cls-2{opacity:.5;}</style></defs><path class="cls-2" d="m120.88,29.61h-22.97c1.48-7.69,2.96-15.33,4.45-23.05h13.79c-.4,2-.8,4.02-1.21,6.1h-7.46c-.69,3.6-1.37,7.14-2.07,10.77h3.16c2.14,0,4.28,0,6.41,0,.4,0,.69-.02.78-.55.36-2.07.75-4.13,1.18-6.18.27-1.32.3-1.31,1.69-1.31h5c-.93,4.8-1.84,9.52-2.75,14.23ZM130.92.32h-10.67c-.79,4.08-1.58,8.18-2.37,12.31h10.67c.79-4.1,1.57-8.18,2.37-12.31Z"/><path class="cls-1" d="m159.71,36.22c-.27,1.21-.53,2.42-.81,3.63-.07.29-.2.57-.28.82-1.76,0-3.42,0-5.08,0-.93,0-1.87.03-2.8.04-.58,0-1.04.22-.94.86.04.27.37.67.62.71.75.14,1.52.18,2.28.18,1.87,0,3.38.77,4.56,2.15.3.35.48.9.5,1.37.1,1.63-.26,3.17-1.07,4.61-.97,1.72-2.61,2.31-4.37,2.58-1.59.24-3.21.29-4.82.34-1.69.05-3.39.01-5.15.01.31-1.65.6-3.06.83-4.48.08-.5.37-.49.74-.49,2,0,4.01.01,6.01,0,.39,0,.82-.01,1.15-.18.28-.14.6-.5.61-.77.01-.26-.3-.69-.56-.78-1.31-.43-2.66-.76-3.99-1.15-1.21-.36-2.25-1.09-2.86-2.14-.39-.67-.54-1.65-.41-2.43.52-3.11,2.17-4.76,5.29-5,3.5-.26,7.03-.15,10.55-.21v.32Zm-43.48,31.42c.12-.57.24-1.13.39-1.78h-4.95c.2-1.05.38-2.02.57-3.02,1.51,0,2.95.01,4.39-.01.22,0,.56-.13.62-.28.16-.45.2-.94.3-1.46h-4.94c.15-.73.35-1.41.4-2.1.04-.57.3-.64.77-.63,1.49.02,2.99,0,4.49,0,.11-.63.22-1.21.33-1.82h-7.09c-.08.2-.18.39-.22.59-.38,1.9-.76,3.81-1.11,5.71-.3,1.6-.55,3.21-.82,4.82h6.9Zm9.63,0c.11-.56.22-1.13.35-1.76h-4.98c.16-.83.38-1.59.44-2.37.04-.59.28-.7.8-.69,1.44.03,2.88,0,4.33,0,.12-.61.22-1.16.34-1.78h-4.95c.19-.93.36-1.79.55-2.71,1.47,0,2.91.01,4.35-.01.23,0,.6-.13.64-.28.14-.48.16-1,.23-1.54-2.25,0-4.38,0-6.52.01-.18,0-.48.18-.51.33-.36,1.72-.67,3.44-1.01,5.16-.37,1.88-.75,3.75-1.12,5.63h7.06Zm-33.21,0c.27-1.39.57-2.77.78-4.17.08-.53.27-.66.76-.65,1.44.02,2.88,0,4.35,0,.13-.59.25-1.14.39-1.79h-5.02c.19-.95.37-1.81.55-2.7,1.49,0,2.93.01,4.37-.01.23,0,.61-.12.65-.27.14-.48.17-1,.24-1.56-2.25,0-4.39-.01-6.52.02-.19,0-.5.27-.54.46-.26,1.07-.45,2.15-.66,3.23-.48,2.47-.96,4.95-1.45,7.42h2.09Zm40.92,0c.61-3.08,1.22-6.16,1.85-9.3h3.7c.11-.64.22-1.22.32-1.82h-9.2c-.11.6-.21,1.18-.33,1.84h3.4c-.28,1.45-.55,2.82-.79,4.19-.3,1.69-.58,3.39-.87,5.09h1.93Zm-26.64,0c.05-.58.11-1.16.17-1.81h-4.66c.6-3.1,1.2-6.13,1.8-9.21h-2.07c-.32,1.6-.64,3.18-.94,4.77-.4,2.08-.79,4.17-1.19,6.26h6.9ZM11.18,46.83c1.56,0,3.05-.03,4.55.02.47.01.71-.19.94-.53.66-1.02,1.34-2.03,2-3.05.77-1.17,1.53-2.34,2.29-3.51.06.03.11.05.17.08-.88,4.52-1.76,9.03-2.64,13.58h6.05c1.55-7.92,3.08-15.8,4.64-23.76-2.23,0-4.29-.02-6.35.02-.24,0-.56.24-.71.46-2.13,3.16-4.24,6.35-6.36,9.52-.29.43-.62.84-.98,1.34-1.03-3.76-2.02-7.36-3.03-10.96-.05-.16-.32-.36-.5-.37-2.11-.03-4.22-.02-6.34-.02-1.55,7.94-3.09,15.82-4.64,23.77h6.04c.91-4.64,1.82-9.28,2.77-14.09.73,2.61,1.41,5.04,2.1,7.49Zm67.99,6.61c.16,0,.42-.31.46-.52.56-2.81,1.09-5.64,1.65-8.45.18-.9.33-1.82.65-2.67.42-1.13,1.46-1.07,2.47-1.1,1.59-.06,1.84.94,1.64,1.96-.69,3.58-1.43,7.14-2.16,10.74h6.3c.08-.39.16-.72.22-1.06.69-3.71,1.39-7.42,2.05-11.14.21-1.17-.29-3.17-1.59-4.04-1.25-.84-2.56-1.26-4.04-1.26-1.3,0-2.59,0-3.91,0,.46-2.37.95-4.84,1.44-7.35h-6.28c-1.61,8.27-3.21,16.54-4.83,24.91,2.02,0,3.98.01,5.95-.02Zm48.86-5.83c.4-2.44,1.2-4.82,1.04-7.34-.06-1.03-.39-1.91-1.09-2.64-1.26-1.31-2.94-1.62-4.63-1.7-1.61-.08-3.27-.11-4.85.17-3.73.66-5.78,2.29-6.45,5.96-.38,2.09-.84,4.16-1.24,6.24-.33,1.7-.63,3.4-.94,5.1h6.26c.3-1.52.58-2.99.88-4.45.37-1.82.72-3.64,1.15-5.44.49-2.01.57-2.9,3.15-2.84,1.01.02,1.67.75,1.47,1.76-.5,2.6-1.03,5.19-1.54,7.79-.2,1.05-.37,2.1-.56,3.2h6.21c.39-2,.81-3.9,1.13-5.81Zm-30.5-7.03c1.86.04,3.73.06,5.59.14,1.1.04,1.53.67,1.26,1.76-.31,0-.62,0-.94,0-1.85,0-3.7-.09-5.54.03-1.75.11-3.2.87-4.18,2.43-.88,1.4-1.13,2.9-1.09,4.51.03,1.35.55,2.4,1.66,3.14,1.9,1.28,4.09,1.19,6.23,1.23,1.42.02,2.84-.15,4.26-.3,1.82-.19,3.47-.65,3.93-3.21.29-1.62.66-3.23.94-4.85.25-1.47.57-2.95.6-4.43.04-1.62-.52-3.1-2.02-4.02-1.19-.73-2.53-1.06-3.89-1.11-2.32-.08-4.65-.04-6.97-.03-.22,0-.62.14-.65.27-.33,1.43-.6,2.87-.91,4.42.67,0,1.2,0,1.73,0Zm1.75,8.93c-.65-.06-.89-.57-.87-1.21.04-1.54.66-2.42,2.28-2.31.35.02.69,0,1.04,0,1.34.01,1.9.74,1.6,2.06-.11.46-.2.92-.36,1.63-1.24-.05-2.47-.07-3.69-.18Zm-59.18-2.89c1.87-.24,3.59-.93,4.4-2.86.29-.69.52-1.44.59-2.18.24-2.23-.21-3.99-2.55-4.96-2.47-1.03-5.09-.94-7.65-.45-2.97.57-4.93,2.48-5.97,5.29-.96,2.58-1.67,5.2-.94,7.98.51,1.93,1.77,3.23,3.65,3.81.86.27,1.82.27,2.74.29,2,.04,4.01.01,6.01.01,1.38,0,1.41,0,1.69-1.23.27-1.21.46-2.45.69-3.74-2.63,0-5.14,0-7.65,0-1.25,0-1.46-.22-1.5-1.46,2.21-.16,4.36-.22,6.48-.49Zm-4.88-5.96c.41-.73,1.81-1.21,2.66-1.01.37.09.78.12,1.11.3.52.29.66.83.52,1.39-.15.6-.41,1.22-1.11,1.29-1.31.13-2.63.16-4.18.25.41-.91.66-1.59,1.01-2.22Zm103.13-4.81c.41-2.1.8-4.11,1.19-6.14h-6.26c-.24,1.24-.46,2.42-.69,3.6-.62,3.17-1.27,6.34-1.84,9.52-.36,1.99-.72,3.99-.85,6-.11,1.75,1.09,3.68,3.07,4.25,2.35.68,4.73.21,7.11.41.32-1.67.62-3.25.94-4.92-1.19,0-2.23,0-3.27,0-.99,0-1.53-.47-1.45-1.44.11-1.23.34-2.44.55-3.66.17-.97.38-1.93.58-2.89,1.58,0,3.05-.02,4.52.01.52.01.68-.19.76-.67.22-1.32.49-2.63.76-4.07h-5.12Zm-72.7.25c-1.76.14-3.38.99-4.5,2.36-2.35,2.89-3.08,6.29-2.7,9.94.29,2.83,2.17,4.39,4.72,4.76,2.38.34,4.81.28,7.23.34.24,0,.65-.37.7-.63.31-1.4.54-2.83.8-4.27-.19-.01-.37-.03-.55-.03-1.63,0-3.27.04-4.9-.01-1.11-.03-1.78-.73-1.71-1.84.08-1.23.18-2.48.52-3.65.43-1.49,1.63-2.64,3.39-2.53,1.6.1,3.2.02,4.85.02.3-1.54.59-3.05.93-4.77-3.03.1-5.91.09-8.77.31Zm-12.1-.14c-1.08.08-2.22.42-3.18.94-1.99,1.08-2.82,3.04-3.3,5.13-.59,2.61-1.08,5.24-1.6,7.87-.23,1.17-.44,2.34-.67,3.54h6.26c.32-1.64.64-3.28.97-4.91.42-2.03.8-4.06,1.29-6.07.24-.99.67-1.9,2.01-1.77.54.05,1.1-.07,1.64-.15.22-.03.55-.08.62-.22.74-1.43,1.44-2.89,2.19-4.4-2.15,0-4.21-.1-6.25.04Z"/></svg>