<?xml version="1.0" encoding="UTF-8"?><svg id="Layer_1" xmlns="http://www.w3.org/2000/svg" viewBox="0 0 128 45"><defs><style>.cls-1,.cls-2,.cls-3{fill:#fff;}.cls-2{opacity:.5;}.cls-3{opacity:.75;}</style></defs><path class="cls-1" d="m68.57,30.97c-.03-.75.22-1.48.7-2.06.22-.25.48-.44.78-.58.3-.14.62-.21.95-.21s.65.07.95.21c.3.14.56.33.78.58.45.59.69,1.31.69,2.05s-.24,1.46-.69,2.05c-.22.25-.48.44-.78.58-.3.14-.62.21-.95.21s-.65-.07-.95-.21c-.3-.14-.56-.33-.78-.58-.48-.57-.73-1.3-.7-2.05Zm0,7.52v-4.35h.09c.58.78,1.44,1.17,2.59,1.17.52.01,1.03-.09,1.51-.29.48-.2.9-.51,1.25-.9.76-.87,1.14-2,1.09-3.16.06-1.16-.33-2.29-1.08-3.17-.35-.39-.77-.69-1.25-.9-.48-.2-.99-.3-1.51-.29-.46,0-.92.08-1.35.26-.29.1-.55.25-.79.43-.12.12-.27.27-.45.47h-.09l-.17-1h-1.48v11.7h1.65Zm-10.09-4.12c.32.32.7.57,1.12.73.42.16.87.24,1.32.22.64,0,1.26-.16,1.81-.5.22-.14.43-.31.62-.5h.08l.17.83h1.5v-8.35h-1.67v5.01c0,.27-.05.53-.16.77-.11.24-.27.46-.47.64-.21.2-.45.35-.71.45-.27.1-.55.15-.83.14-.27,0-.53-.04-.78-.15-.25-.1-.47-.25-.65-.45-.19-.18-.33-.4-.43-.65-.1-.24-.15-.5-.14-.77v-5.01h-1.67v5.01c-.03.47.04.93.2,1.37s.4.85.71,1.19Zm-2.22-3.4c.02-.58-.07-1.15-.27-1.69-.2-.54-.51-1.03-.91-1.45-.81-.77-1.88-1.2-3-1.2s-2.19.43-3,1.2c-.4.42-.71.91-.91,1.45s-.29,1.11-.27,1.69c-.03.57.07,1.15.27,1.68.2.54.51,1.03.9,1.45.81.77,1.88,1.21,3,1.21s2.19-.43,3-1.21c.4-.42.71-.91.91-1.45.2-.54.29-1.11.27-1.69h.01Zm-6.68,0c-.04-.75.22-1.48.7-2.05.23-.24.51-.44.82-.57.31-.13.64-.2.98-.2s.67.07.98.2c.31.13.59.33.82.57.46.59.71,1.32.71,2.06s-.25,1.47-.71,2.06c-.23.24-.51.44-.82.57-.31.13-.64.2-.98.2s-.67-.07-.98-.2c-.31-.13-.59-.33-.82-.57-.49-.57-.75-1.31-.71-2.06h.01Zm-5.2,4.19v-5.13c0-1.16.59-1.74,1.76-1.74h1.33v-1.49h-1.5c-.12,0-.23,0-.35.03l-.29.05c-.08.02-.16.05-.24.09l-.19.09c-.06.03-.12.07-.17.12l-.13.13s-.06.07-.11.13l-.11.12h-.08l-.17-.74h-1.42v8.34h1.67Zm-3.41,0v-5.19h-4.34v1.42h2.66v.08c-.02.28-.1.55-.22.8s-.3.47-.52.65c-.57.51-1.31.78-2.07.74-.41.01-.81-.06-1.19-.22-.38-.16-.71-.39-.99-.69-.59-.7-.89-1.6-.84-2.52-.05-.91.25-1.81.84-2.51.27-.3.61-.54.98-.7.38-.16.78-.23,1.19-.22.58,0,1.15.18,1.61.53.45.32.78.78.96,1.3h1.85c-.24-.95-.76-1.81-1.5-2.45-.8-.71-1.84-1.09-2.91-1.06-.63-.01-1.26.11-1.84.36-.58.25-1.1.61-1.54,1.08-.46.49-.82,1.06-1.06,1.69s-.35,1.3-.32,1.97c-.02.67.09,1.34.32,1.96.24.63.59,1.2,1.05,1.69.42.46.93.83,1.49,1.08s1.18.38,1.8.37c.79.02,1.57-.22,2.22-.67.25-.19.47-.42.66-.68h.09l.17,1.17h1.42Z"/><path class="cls-1" d="m69.91,22.67c.46.06.93-.05,1.32-.31.39-.26.66-.66.77-1.11l3.68-10.27h-1.75l-2.17,6.35h-.33l-2.42-6.35h-1.75l3.42,8.94-.27.74c-.04.13-.11.25-.2.34-.05.05-.11.09-.17.12-.06.03-.13.04-.2.04h-1.67v1.48l1.75.03Zm-13.48-3.34v-5.25c0-.24.04-.47.13-.68.09-.22.23-.41.41-.57.35-.33.82-.51,1.3-.5.22-.01.45.03.66.11.21.08.4.21.56.37.16.17.28.37.36.59.08.22.11.45.1.69v5.26h1.67v-5.26c0-.23.04-.47.13-.68.09-.22.23-.41.4-.57.35-.33.82-.51,1.3-.5.22-.01.45.03.65.11.21.08.4.21.55.37.16.17.28.37.36.59.08.22.11.45.1.69v5.26h1.67v-5.3c.03-.86-.27-1.69-.85-2.33-.27-.3-.61-.53-.98-.69-.37-.16-.77-.23-1.18-.22-.74-.01-1.47.19-2.11.59-.25.16-.47.36-.65.58h-.09c-.14-.21-.31-.41-.5-.58-.5-.4-1.12-.6-1.75-.59-.57,0-1.12.18-1.59.5-.22.14-.41.31-.59.5h-.09l-.17-.83h-1.48v8.35h1.65Zm-3.07-4.18c.02-.58-.07-1.15-.27-1.69-.2-.54-.51-1.03-.91-1.45-.81-.77-1.88-1.2-3-1.2s-2.19.43-3,1.2c-.4.42-.71.91-.91,1.45-.2.54-.29,1.11-.27,1.69-.02.58.07,1.15.27,1.69.2.54.51,1.03.91,1.45.81.77,1.88,1.21,3,1.21s2.19-.43,3-1.21c.4-.42.71-.91.91-1.45.2-.54.29-1.11.27-1.69Zm-6.67,0c-.04-.75.22-1.49.71-2.06.23-.24.51-.44.82-.57.31-.13.64-.2.98-.2s.67.07.98.2c.31.13.59.33.82.57.49.57.74,1.31.71,2.06.04.75-.22,1.49-.71,2.06-.23.24-.51.44-.82.57-.31.13-.64.2-.98.2s-.67-.07-.98-.2c-.31-.13-.59-.33-.82-.57-.49-.57-.74-1.31-.71-2.06Zm-8.81,4.18v-5.01c0-.27.05-.53.16-.77.11-.24.27-.46.47-.64.21-.2.45-.35.71-.45.27-.1.55-.15.83-.14.27,0,.53.04.78.15.25.1.47.25.65.45.19.18.33.4.43.65.1.24.15.5.14.77v5.01h1.67v-5.01c.03-.47-.04-.93-.2-1.37-.16-.44-.4-.84-.71-1.19-.32-.32-.69-.57-1.11-.73-.42-.16-.86-.24-1.31-.22-.64,0-1.26.16-1.8.5-.22.14-.43.31-.62.5h-.08l-.17-.83h-1.51v8.35h1.67Zm-3.05-4.18c.02-.58-.07-1.15-.27-1.69-.2-.54-.51-1.03-.91-1.45-.81-.77-1.88-1.2-3-1.2s-2.19.43-3,1.2c-.4.42-.7.91-.91,1.45-.2.54-.29,1.11-.27,1.69-.03.58.07,1.15.27,1.69.2.54.51,1.03.91,1.45.81.77,1.88,1.2,3,1.2s2.19-.43,3-1.2c.4-.42.71-.91.91-1.45.2-.54.3-1.11.27-1.69Zm-6.67,0c-.04-.75.22-1.49.71-2.06.23-.24.51-.44.82-.57.31-.13.64-.2.98-.2s.67.07.98.2c.31.13.59.33.82.57.49.57.75,1.31.71,2.06.04.75-.22,1.49-.71,2.06-.23.24-.51.44-.82.57-.31.13-.64.2-.98.2s-.67-.07-.98-.2c-.31-.13-.59-.33-.82-.57-.49-.57-.75-1.31-.71-2.06Zm-4.93,2.36c-.41.34-.93.51-1.46.48-.34,0-.67-.06-.98-.19-.31-.13-.59-.33-.81-.58-.49-.57-.75-1.31-.72-2.06-.04-.75.22-1.49.71-2.06.22-.25.5-.45.81-.59.31-.13.65-.2.98-.19.48-.04.96.09,1.35.37.4.27.68.67.82,1.13h1.67c-.2-.79-.63-1.5-1.22-2.06-.35-.33-.76-.58-1.22-.74-.45-.16-.93-.23-1.41-.2-.56-.02-1.11.08-1.62.29-.52.21-.98.52-1.37.91-.4.42-.71.91-.91,1.45-.2.54-.29,1.11-.27,1.69-.02.58.07,1.15.27,1.69.2.54.51,1.03.91,1.45.39.4.86.71,1.37.92.52.21,1.07.31,1.63.29.54,0,1.07-.1,1.57-.3.44-.17.84-.44,1.16-.79.28-.3.52-.63.72-.99.17-.32.29-.67.37-1.02h-1.67c-.12.43-.37.82-.72,1.11h.02Zm-9.37.23c-.37.23-.81.35-1.25.34-.62.02-1.23-.21-1.69-.63-.47-.45-.76-1.06-.82-1.7h6.43l.03-.23c.03-.3.05-.5.05-.6.01-.54-.08-1.08-.28-1.58-.2-.5-.5-.96-.87-1.34-.37-.38-.82-.68-1.31-.88-.49-.2-1.02-.3-1.55-.29-.55-.02-1.1.08-1.62.29-.51.21-.98.52-1.37.91-.4.42-.71.91-.91,1.45-.2.54-.29,1.11-.27,1.69-.02.58.07,1.15.27,1.69.2.54.51,1.03.91,1.45.39.4.86.71,1.37.92.52.21,1.07.3,1.63.29.88.03,1.74-.25,2.43-.79.6-.47,1.05-1.09,1.33-1.8h-1.77c-.17.35-.43.63-.76.83h0Zm-2.92-4.9c.22-.21.49-.37.77-.47.29-.1.59-.15.9-.14.3,0,.6.04.88.15.28.11.54.27.76.47.45.44.73,1.02.79,1.64h-4.93c.1-.62.39-1.2.84-1.65h0ZM1.75,19.33v-3.18h.74l3.09,3.18h2.2l-3.09-3.18c.4-.02.78-.13,1.14-.3.36-.17.68-.42.94-.72.53-.65.8-1.48.76-2.32.04-.89-.27-1.77-.86-2.44-.3-.3-.67-.54-1.07-.69-.4-.15-.83-.22-1.26-.2H0v9.86h1.75Zm0-8.19h2.51c.21-.01.42.02.61.1.19.08.36.2.5.36.28.34.42.77.4,1.21.02.44-.12.87-.4,1.21-.14.15-.31.28-.5.36-.19.08-.4.11-.61.1H1.75v-3.34Z"/><path class="cls-1" d="m125.04,39.68c.32-.11.62-.29.86-.52.65-.54,1.18-1.22,1.54-1.99.36-.77.55-1.61.56-2.46v-12.97c0-.13-.03-.25-.09-.37-.06-.11-.15-.21-.26-.28-.11-.07-.23-.11-.36-.12-.13,0-.26.01-.37.07l-7.75,3.42c-.4.18-.74.46-.97.83-.24.36-.36.79-.36,1.23v5.56c0,.23-.08.45-.22.63-.14.18-.34.3-.57.34-3.54.66-7.13,1-10.73.99-4.02-.07-8.02-.61-11.91-1.63,3.25,1.97,7.95,4.34,11.54,5.51,7.17,2.34,14.08,2.89,19.09,1.76Z"/><path class="cls-3" d="m125.04,39.68c-5,1.11-11.92.58-19.09-1.76-3.59-1.17-8.29-3.54-11.54-5.51h-.04l.63-2.27-10.14,4.61,6.3,9.2.62-2.22-.03.19c3.6,1.02,10.1,2.14,14.58,2.14,7.54,0,14.27-1.66,18.69-4.26.22-.13.43-.27.63-.43-.18.14-.39.25-.6.32Z"/><path class="cls-1" d="m125.64,39.37c.09-.06.17-.13.27-.21-.1.07-.19.13-.27.21Z"/><path class="cls-2" d="m88.47,4c-.35.05-.68.17-.99.35-.86.52-1.58,1.25-2.08,2.13-.5.87-.77,1.86-.78,2.87v22.13l10.17-4.17v-15.33c0-.23.08-.45.22-.63.14-.18.34-.3.57-.35,3.54-.66,7.13-1,10.73-1,3.81-.02,7.62.44,11.32,1.35-3.42-2.24-7.13-4.02-11.02-5.28-6.71-2.22-13.21-2.87-18.16-2.08"/><path class="cls-3" d="m127.12,9.27L120.87.06l-.59,2.08C115.77.68,111.05-.05,106.32,0,98.78,0,92.05,1.66,87.62,4.26l-.14.09c.3-.18.64-.3.99-.35,4.93-.79,11.43-.15,18.16,2.08,3.89,1.27,7.6,3.04,11.02,5.29h.03l-.7,2.48,10.15-4.58Z"/></svg>