<?xml version="1.0" encoding="UTF-8"?><svg id="Layer_1" xmlns="http://www.w3.org/2000/svg" viewBox="0 0 324.18 57.91"><defs><style>.cls-1{fill:#f0562e;}</style></defs><path class="cls-1" d="m34.35,16.66c-2.68-3.75-6.28-5.63-10.8-5.63-1.84,0-3.64.46-5.4,1.38-1.76.92-2.64,2.41-2.64,4.48,0,1.69.73,2.91,2.18,3.68s3.29,1.42,5.51,1.95c2.22.54,4.61,1.09,7.18,1.67,2.56.57,4.96,1.46,7.18,2.64,2.22,1.19,4.06,2.81,5.51,4.88s2.18,4.9,2.18,8.5c0,3.29-.71,6.07-2.13,8.33-1.42,2.26-3.26,4.08-5.51,5.46-2.26,1.38-4.81,2.38-7.64,2.99-2.83.61-5.67.92-8.5.92-4.29,0-8.23-.61-11.83-1.84-3.6-1.22-6.82-3.45-9.65-6.66l9.19-8.62c1.76,1.99,3.66,3.62,5.69,4.88,2.03,1.26,4.5,1.9,7.41,1.9.99,0,2.03-.12,3.1-.34,1.07-.23,2.07-.61,2.99-1.15.92-.53,1.67-1.21,2.24-2.01s.86-1.74.86-2.81c0-1.91-.73-3.33-2.18-4.25-1.46-.92-3.29-1.67-5.51-2.24s-4.61-1.11-7.18-1.61-4.96-1.3-7.18-2.41-4.06-2.66-5.51-4.65c-1.46-2.01-2.18-4.76-2.18-8.29,0-3.06.63-5.72,1.9-7.98,1.26-2.26,2.93-4.12,5-5.57s4.44-2.53,7.12-3.22C18.43.35,21.15,0,23.91,0c3.68,0,7.31.63,10.91,1.9,3.6,1.26,6.51,3.43,8.73,6.49l-9.2,8.26Z"/><path class="cls-1" d="m53.19,28.96c0-4.37.78-8.33,2.35-11.89,1.57-3.56,3.69-6.61,6.38-9.13,2.68-2.53,5.86-4.48,9.53-5.86C75.13.7,79.03,0,83.17,0s8.04.69,11.72,2.07,6.85,3.33,9.53,5.86c2.68,2.53,4.8,5.57,6.38,9.13,1.57,3.56,2.35,7.52,2.35,11.89s-.79,8.33-2.35,11.89c-1.57,3.56-3.7,6.61-6.38,9.13-2.68,2.53-5.86,4.48-9.53,5.86-3.68,1.38-7.58,2.07-11.72,2.07s-8.04-.69-11.72-2.07-6.85-3.33-9.53-5.86-4.81-5.57-6.38-9.13c-1.56-3.57-2.35-7.53-2.35-11.89Zm13.79,0c0,2.14.36,4.21,1.09,6.2.73,1.99,1.8,3.75,3.22,5.28s3.12,2.76,5.11,3.68,4.25,1.38,6.78,1.38,4.79-.46,6.78-1.38,3.69-2.14,5.11-3.68c1.42-1.53,2.49-3.29,3.22-5.28s1.09-4.06,1.09-6.2-.36-4.21-1.09-6.2c-.73-1.99-1.8-3.75-3.22-5.29-1.42-1.53-3.12-2.76-5.11-3.68-1.99-.92-4.25-1.38-6.78-1.38s-4.79.46-6.78,1.38c-1.99.92-3.7,2.15-5.11,3.68-1.42,1.53-2.49,3.29-3.22,5.29-.73,1.98-1.09,4.05-1.09,6.2Z"/><path class="cls-1" d="m123.26,28.96c0-4.37.78-8.33,2.35-11.89,1.57-3.56,3.69-6.61,6.38-9.13,2.68-2.53,5.86-4.48,9.53-5.86C145.2.7,149.1,0,153.24,0s8.04.69,11.72,2.07c3.68,1.38,6.85,3.33,9.53,5.86,2.68,2.53,4.81,5.57,6.38,9.13,1.57,3.56,2.35,7.52,2.35,11.89s-.79,8.33-2.35,11.89c-1.57,3.56-3.7,6.61-6.38,9.13-2.68,2.53-5.86,4.48-9.53,5.86-3.68,1.38-7.58,2.07-11.72,2.07s-8.04-.69-11.72-2.07c-3.68-1.38-6.85-3.33-9.53-5.86s-4.81-5.57-6.38-9.13c-1.56-3.57-2.35-7.53-2.35-11.89Zm13.79,0c0,2.14.36,4.21,1.09,6.2s1.8,3.75,3.22,5.28,3.12,2.76,5.11,3.68,4.25,1.38,6.78,1.38,4.79-.46,6.78-1.38,3.69-2.14,5.11-3.68c1.42-1.53,2.49-3.29,3.22-5.28s1.09-4.06,1.09-6.2-.36-4.21-1.09-6.2-1.8-3.75-3.22-5.29c-1.42-1.53-3.12-2.76-5.11-3.68-1.99-.92-4.25-1.38-6.78-1.38s-4.79.46-6.78,1.38c-1.99.92-3.7,2.15-5.11,3.68-1.42,1.53-2.49,3.29-3.22,5.29-.73,1.98-1.09,4.05-1.09,6.2Z"/><path class="cls-1" d="m196.09,1.39h13.1v8.85h.23c1.3-2.76,3.29-5.15,5.97-7.18,2.68-2.03,6.32-3.04,10.91-3.04,3.68,0,6.79.61,9.36,1.84,2.56,1.23,4.65,2.83,6.26,4.83,1.61,1.99,2.76,4.29,3.45,6.89s1.03,5.32,1.03,8.16v34.81h-13.79v-27.94c0-1.53-.08-3.23-.23-5.11s-.56-3.64-1.21-5.28c-.65-1.65-1.67-3.02-3.04-4.14-1.38-1.11-3.26-1.67-5.63-1.67s-4.23.38-5.8,1.15-2.87,1.8-3.91,3.1c-1.03,1.3-1.78,2.8-2.24,4.48-.46,1.69-.69,3.45-.69,5.28v30.1h-13.79V1.39h.02Z"/><path class="cls-1" d="m296.49,48.94h-.34c-1.99,3.14-4.52,5.42-7.58,6.83-3.06,1.42-6.43,2.13-10.11,2.13-2.53,0-5-.34-7.41-1.03s-4.56-1.72-6.43-3.1c-1.88-1.38-3.39-3.1-4.54-5.17s-1.72-4.48-1.72-7.24c0-2.99.54-5.53,1.61-7.64,1.07-2.11,2.51-3.87,4.31-5.29s3.89-2.54,6.26-3.39c2.37-.84,4.84-1.47,7.41-1.9,2.57-.42,5.15-.69,7.75-.8,2.6-.12,5.05-.17,7.35-.17h3.45v-1.49c0-3.45-1.19-6.03-3.56-7.75s-5.4-2.58-9.08-2.58c-2.91,0-5.63.52-8.16,1.55s-4.71,2.43-6.55,4.19l-7.24-7.24c3.06-3.14,6.64-5.4,10.74-6.78C276.75.69,280.98,0,285.34,0c3.91,0,7.2.44,9.88,1.32s4.9,2.01,6.66,3.39,3.12,2.97,4.08,4.77,1.65,3.62,2.07,5.46.67,3.62.75,5.34.11,3.24.11,4.54v31.71h-12.41v-7.59h0Zm-.8-17.11h-2.87c-1.92,0-4.06.08-6.43.23s-4.61.52-6.72,1.09c-2.11.57-3.89,1.42-5.34,2.53-1.46,1.11-2.18,2.66-2.18,4.65,0,1.3.29,2.39.86,3.27.57.88,1.32,1.63,2.24,2.24.92.61,1.95,1.05,3.1,1.32s2.3.4,3.45.4c4.75,0,8.25-1.13,10.51-3.39s3.39-5.34,3.39-9.25v-3.09h-.01Z"/><path class="cls-1" d="m317.21,53.39h-1.26v-.67h3.26v.67h-1.27v3.46h-.73v-3.46Z"/><path class="cls-1" d="m319.73,52.73h1.12l1.1,2.89,1.11-2.89h1.11v4.13h-.7v-3.43h-.01l-1.25,3.43h-.51l-1.25-3.43h-.01v3.43h-.7v-4.13h0Z"/></svg>