<?xml version="1.0" encoding="UTF-8"?><svg id="Layer_1" xmlns="http://www.w3.org/2000/svg" viewBox="0 0 200.73 31.54"><defs><style>.cls-1{fill:#121c4e;}.cls-2{fill:#1947ba;}</style></defs><path class="cls-2" d="m4.8,12.71H.01c0-.16-.02-.33,0-.5.1-1.72.71-3.28,1.55-4.77,1.06-1.89,2.56-3.37,4.39-4.48C7.9,1.78,10.01.86,12.3.45,13.71.19,15.14-.06,16.59.01c.58.03,1.16.09,1.74.16.63.07,1.27.14,1.9.25.83.15,1.63.42,2.44.7,2.19.73,4.08,1.94,5.77,3.46,1.21,1.09,2.18,2.38,2.84,3.87.35.79.68,1.6.81,2.46.02.13.03.25.18.33.06.03.1.14.11.22.04.4.07.81.11,1.25h-5.06c-.06-.33-.09-.65-.17-.96-.37-1.47-1.23-2.64-2.32-3.66-.87-.82-1.87-1.47-2.97-1.95-.83-.36-1.67-.68-2.56-.85-.54-.1-1.09-.14-1.63-.2-.52-.06-1.04-.14-1.56-.15-.43,0-.87.09-1.3.14-.36.04-.73.04-1.09.1-2.15.35-4.13,1.14-5.86,2.48-.29.22-.55.49-.83.73-.18.16-.29.41-.58.42-.06,0-.12.12-.17.19-.28.41-.6.8-.83,1.24-.23.45-.48.91-.56,1.43-.05.33-.14.65-.23,1.04Z"/><path class="cls-2" d="m185.54,26.16c.14.03.31.04.44.1.83.4,1.66.81,2.48,1.21,0,.06.02.11,0,.14-.56,1.07-1.25,2.06-2.33,2.62-.8.42-1.62.83-2.52,1.05-.93.23-1.88.27-2.83.24-1.54-.06-2.97-.5-4.21-1.4-1.66-1.2-2.77-2.79-3.28-4.79-.27-1.07-.33-2.15-.25-3.24.26-3.35,2.34-6.13,5.57-7.19,1.09-.36,2.23-.48,3.38-.34,1.28.16,2.43.6,3.57,1.23,1.36.74,2.19,1.85,2.77,3.2.5,1.18.77,2.41.72,3.7-.02.43-.1.85-.16,1.32h-12.26c-.09,1.54.91,3.39,2.91,4.17,1.89.74,4.35.47,5.99-2.01Zm-8.91-4.91h8.6c-.02-.58-.17-1.1-.42-1.59-.52-1.02-1.32-1.72-2.44-2.05-1.24-.37-2.41-.24-3.54.39-1,.56-1.57,1.46-1.99,2.48-.1.23-.14.49-.22.78Zm-33.41,2.75h-12.37c.03.24.04.44.08.63.29,1.46,1.09,2.57,2.4,3.29.4.22.84.4,1.28.52.3.08.64.03.96.04.64.02,1.26-.03,1.87-.24.98-.33,1.74-.95,2.34-1.78.24-.34.27-.35.63-.16.77.39,1.54.78,2.36,1.2-.05.12-.09.26-.16.38-.79,1.38-1.89,2.42-3.38,3.01-.57.23-1.15.45-1.75.54-.75.11-1.52.12-2.28.09-.89-.03-1.76-.19-2.62-.47-.5-.17-.96-.4-1.4-.69-1.24-.83-2.21-1.9-2.93-3.22-.88-1.63-1.03-3.37-.91-5.17.05-.79.23-1.57.52-2.29.6-1.52,1.54-2.81,2.93-3.73.99-.66,2.05-1.15,3.23-1.31.95-.13,1.91-.2,2.88,0,.53.11,1.06.18,1.56.39.39.16.78.31,1.14.52,1.23.72,2.24,1.66,2.83,2.98.65,1.45,1.05,2.95.87,4.57-.03.29-.04.58-.07.9Zm-3.6-2.74c.12-.63-.09-.99-.35-1.58-.53-1.18-1.52-1.86-2.74-2.17-.78-.2-1.57-.15-2.34.05-1.19.31-2.09,1.03-2.67,2.12-.22.41-.38.85-.56,1.28-.03.08,0,.19,0,.3h8.68Zm31.04,9.39c0-2.89,0-5.77,0-8.66,0-.89.01-1.77-.15-2.65-.21-1.13-.62-2.15-1.45-2.98-1.15-1.15-2.55-1.76-4.17-1.84-1.66-.08-3.17.33-4.39,1.52-.06.06-.13.12-.21.14-.2.06-.31.2-.42.36-.04.06-.11.1-.19.16-.03-.64.04-1.24-.03-1.83h-3.24c-.08.82-.04,15.95.04,16.26.59.09,3.06.06,3.37-.04,0-.05.02-.11.02-.17,0-3.28.02-6.56.01-9.84,0-.43.19-.81.26-1.22,0-.03.05-.09.08-.09.22,0,.23-.21.3-.33.68-1.18,1.73-1.71,3.05-1.75,1.78-.06,3.21,1.02,3.56,2.71.11.51.13,1.05.13,1.57.01,2.9,0,5.8,0,8.7,0,.15,0,.31,0,.48h3.42c0-.2,0-.36,0-.52Zm-57.09-.26c0-3.34,0-6.68-.03-10.02,0-.61-.19-1.23-.31-1.84-.03-.17-.14-.31-.2-.48-.19-.58-.49-1.09-.91-1.53-.89-.93-1.92-1.55-3.21-1.8-.89-.17-1.76-.28-2.66-.14-1.41.23-2.62.82-3.48,2.01-.03.04-.07.06-.18.15v-1.89c-1.12,0-2.2-.02-3.27.02-.1.87-.06,15.98.04,16.28h3.37c0-.17,0-.32,0-.46,0-2.7,0-5.39,0-8.09,0-.53.03-1.05.05-1.58.02-.59.2-1.13.49-1.65.83-1.48,2.59-1.89,4.01-1.58.77.17,1.3.73,1.98,1.04.02,0,.03.05.05.07.33.44.58.92.68,1.45.1.58.17,1.18.17,1.77.02,2.9,0,5.8,0,8.7,0,.11.02.22.03.34h3.35c0-.29,0-.53,0-.78Zm4.7-19.25c0,.15-.02.28-.02.41,0,.35,0,.7-.01,1.05-.06,1.37-.94,2.22-2.31,2.24-.17,0-.34,0-.5.01v3.08c.96.02,1.89,0,2.82.02.01.1.02.14.02.18.02,2.78.02,5.56.05,8.34.01.9.27,1.75.72,2.53.87,1.5,2.28,2.15,3.91,2.34.73.09,1.49-.03,2.24-.07.12,0,.24-.08.33-.11v-2.94c-.1,0-.18.01-.25.02-.62.08-1.23.09-1.84-.05-.91-.2-1.59-.91-1.67-1.93-.02-.31-.03-.61-.03-.92,0-2.4-.01-4.8-.02-7.2,0-.05.02-.11.05-.21h1.22c.41,0,.82,0,1.23,0,.4-.01.81.05,1.21-.04v-3.05h-3.7v-3.7h-3.45Zm75.17,7.24c.05,2.81-.11,5.62.1,8.43.03.46.1.94.28,1.35.62,1.47,1.63,2.53,3.24,2.95,1.22.31,2.43.29,3.65.05.08-.61.06-2.59-.03-2.87-.53,0-1.06.02-1.58,0-1.01-.05-1.86-.67-2.06-1.64-.08-.39-.13-.78-.13-1.17-.01-2.37,0-4.74,0-7.12,0-.13.01-.25.02-.42h1.26c.41,0,.82,0,1.23,0,.4-.01.81.05,1.2-.04v-3.05h-3.71v-3.69h-3.46c0,.19,0,.35,0,.5,0,.38.02.77-.02,1.14-.09.74-.39,1.37-1.08,1.75-.38.21-.79.3-1.22.3-.17,0-.34,0-.52.01,0,.55,0,1.05,0,1.55,0,.51,0,1.01,0,1.54h2.84c0,.18,0,.31,0,.44Zm-97.81,12.63c0-7.41,0-14.82-.02-22.23,0-.01-.02-.02-.03-.03,0-.01-.02-.02-.03-.03-.77-.07-3.19-.04-3.5.04v22.4h3.52c.02-.07.05-.11.05-.15Zm50.45.14h3.43c0-.2,0-.38,0-.55,0-2.91,0-5.83,0-8.74,0-.39.03-.79.1-1.18.29-1.46,1.15-2.4,2.6-2.77.63-.16,1.27-.16,1.92-.15.18,0,.37,0,.55-.01v-3.08c-.13,0-.23-.03-.33-.02-.57.03-1.14.04-1.7.12-1.26.16-2.32.69-3.06,1.76-.06.09-.13.16-.27.32v-1.99h-3.25v16.29Z"/><path class="cls-1" d="m67.6,31.18h-5.24c-1.41-2.64-2.82-5.26-4.23-7.89h-3.66v7.88h-4.75V8.83c.08-.01.16-.04.25-.04,3.03,0,6.05-.01,9.08.02.79,0,1.6.11,2.38.29,1.08.24,2.11.68,2.96,1.43.81.71,1.46,1.52,1.84,2.56.4,1.08.59,2.18.57,3.32,0,.44-.08.89-.16,1.33-.22,1.22-.71,2.32-1.57,3.23-.62.66-1.36,1.16-2.24,1.49.33.58.65,1.14.97,1.71.32.57.63,1.15.94,1.72.32.59.65,1.18.97,1.77.32.58.64,1.15.95,1.73.31.57.64,1.13.95,1.77Zm-13.11-11.75c1.3,0,2.55,0,3.8,0,.53,0,1.04-.11,1.54-.28.98-.32,1.66-.96,1.92-1.98.15-.61.2-1.24.06-1.86-.12-.49-.26-.98-.59-1.38-.51-.6-1.19-.93-1.93-1.07-.64-.12-1.3-.16-1.96-.18-.79-.03-1.59,0-2.38,0-.14,0-.29,0-.45,0v6.76ZM7.36,26.4c.26.91.71,1.73,1.34,2.41,1.25,1.34,2.82,2.16,4.64,2.47.31.05.62.15.93.17.48.03.97.04,1.45.03.87-.02,1.76,0,2.62-.12.97-.14,1.92-.41,2.81-.84,2.04-.97,3.22-2.57,3.58-4.77.17-1.05.04-2.1-.32-3.11-.26-.73-.66-1.36-1.2-1.91-.63-.65-1.36-1.17-2.19-1.53-.68-.3-1.36-.6-2.1-.75-.68-.14-1.36-.32-2.03-.52-.89-.26-1.84-.36-2.68-.79-.54-.27-1.04-.58-1.4-1.09-.38-.53-.37-1.12-.21-1.69.27-.95,1.03-1.41,1.92-1.67,1.21-.34,2.42-.29,3.59.16.64.25,1.19.63,1.47,1.3.14.34.24.7.38,1.09h4.52c.01-.07.03-.13.03-.18-.05-.31-.14-.62-.15-.94-.01-.68-.3-1.27-.59-1.84-.69-1.33-1.78-2.26-3.13-2.89-.96-.44-1.97-.71-3.02-.82-1.3-.14-2.59-.09-3.88.17-.66.13-1.29.32-1.9.58-1.94.81-3.38,2.11-3.99,4.2-.05.16-.12.32-.14.49-.04.27-.04.55-.06.83-.07.87.04,1.73.35,2.54.29.74.76,1.38,1.37,1.9,1.02.88,2.19,1.49,3.48,1.86,1.38.39,2.77.7,4.15,1.1.71.21,1.41.45,2.06.86,1.15.72,1.23,2.37.24,3.32-.7.67-1.59.97-2.53,1.07-.65.07-1.31.05-1.96-.07-.72-.13-1.39-.4-1.96-.88-.56-.48-1-1.04-1.1-1.8-.03-.19-.09-.38-.13-.58h-4.53c-.08.8.09,1.53.29,2.25Zm24.83-2.99c-.03-.15-.08-.29-.08-.42,0-2.27,0-4.54,0-6.81-.14-.03-.27-.09-.41-.09-1.31,0-2.61,0-3.92,0-.11,0-.22.02-.34.03,0,.1-.02.17-.02.25,0,2.39,0,4.77,0,7.16,0,.48,0,.97.1,1.44.16.73.41,1.43.77,2.09.96,1.77,2.35,3.02,4.26,3.68.62.21,1.24.39,1.87.56.29.08.59.13.88.15.38.03.76.02,1.14.02.68,0,1.36.06,2.02-.02.75-.1,1.51-.28,2.23-.52,1.47-.49,2.74-1.28,3.75-2.5,1.1-1.33,1.62-2.84,1.75-4.52.04-.51.03-1.02.03-1.54,0-4.39,0-8.79,0-13.18,0-.11-.01-.23-.02-.36h-4.78c0,.16,0,.29,0,.42,0,3.94.01,7.88,0,11.82,0,.86.03,1.71-.09,2.57-.08.61-.28,1.15-.56,1.66-.42.75-1.07,1.27-1.86,1.62-.89.38-1.83.49-2.78.39-.89-.1-1.69-.49-2.37-1.07-.09-.07-.17-.15-.25-.24-.7-.74-1.07-1.63-1.16-2.63-.05.02-.11.03-.21.06Zm53.09-14.6h-14.96v22.36h4.74v-9.23h9.28v-3.93h-9.25v-5.29h10.22c.09-.56.06-3.63-.03-3.91Zm-52.85,14.33c0-2.23,0-4.47,0-6.7,0-.08-.01-.16-.02-.25-.11,0-.2,0-.28,0,0,2.27,0,4.54,0,6.81,0,.14.05.27.08.42.1-.03.16-.05.21-.06,0-.07.02-.14.02-.22Z"/></svg>