<?xml version="1.0" encoding="UTF-8"?><svg id="Layer_1" xmlns="http://www.w3.org/2000/svg" viewBox="0 0 79.86 64.48"><defs><style>.cls-1{fill:#fff;}</style></defs><path class="cls-1" d="m38.1,55.96c.36-.03.68-.07.98-.15.37-.09.66-.23.86-.41.2-.19.3-.4.3-.65,0-.33-.18-.61-.54-.84-.29-.18-.67-.31-1.14-.37-.47-.07-1.19-.11-2.16-.11h-4.94v2.57h5.03c.72,0,1.25-.02,1.6-.04Z"/><path class="cls-1" d="m39.48,0L0,20.3v44.18s79.87,0,79.87,0V20.02L39.48,0Zm.1,43.07c.47.41.71.92.71,1.51s-.24,1.09-.72,1.51c-.48.42-1.06.63-1.73.63s-1.24-.21-1.72-.63c-.48-.42-.71-.93-.71-1.51s.24-1.09.71-1.51c.48-.42,1.05-.62,1.72-.62s1.26.21,1.74.62Zm-29.32-2.66v-17.96c0-.59-.45-1.04-1.36-1.34-.62-.21-.93-.45-.93-.72v-.77c0-.27.31-.4.93-.4h11.21c.53,0,.79.12.79.37v.8c0,.27-.31.51-.93.72-.91.3-1.36.75-1.36,1.34v18.15c0,2.42,1.65,3.63,4.96,3.63,3.62,0,5.42-1.42,5.42-4.26v-17.52c0-.59-.46-1.04-1.37-1.34-.62-.21-.93-.45-.93-.72v-.77c0-.27.31-.4.93-.4h8.01c.53,0,.79.12.79.37v.8c0,.27-.31.51-.93.72-.91.3-1.37.75-1.37,1.34v17.63c0,2.08-1.09,3.71-3.27,4.88-2.18,1.18-5.03,1.77-8.55,1.77s-6.4-.58-8.66-1.75c-2.25-1.16-3.37-2.68-3.37-4.57Zm17.39,20.29h-.31c-.05-.14-.14-.24-.25-.29-.11-.05-.3-.07-.57-.07h-10.46v-.18c.25-.03.41-.09.49-.15.08-.06.12-.17.12-.33v-6.32c0-.16-.04-.26-.12-.33-.08-.06-.25-.11-.49-.15v-.18h2.73v.18c-.24.04-.41.09-.49.15-.08.07-.12.18-.12.33v6.25h8.34c.27,0,.46-.03.57-.07.11-.05.2-.14.25-.29h.31v1.45Zm13.86-1.29c-.4.34-.95.58-1.62.72-.68.14-1.66.21-2.92.21h-7.61v-.18c.24-.03.4-.09.49-.15.08-.06.12-.17.12-.33v-6.32c0-.15-.04-.27-.12-.33-.09-.07-.25-.11-.49-.15v-.18h7.79c.77,0,1.4.04,1.9.11.5.07.95.19,1.33.35.88.37,1.32.9,1.32,1.59,0,.74-.62,1.28-1.85,1.62,1.52.3,2.28.91,2.28,1.84,0,.45-.21.85-.62,1.19Zm18.23-6.53c-.24.04-.41.09-.49.15-.08.06-.13.17-.13.33v6.31c0,.15.04.26.13.33.09.07.25.12.49.15v.18h-2.73v-.18c.25-.03.41-.09.49-.15.08-.06.12-.17.12-.33v-5.76l-5.55,6.42-5.5-6.42v5.76c0,.15.04.26.12.33.08.07.25.12.49.15v.18h-2.58v-.18c.24-.03.4-.09.49-.15.08-.06.12-.17.12-.33v-6.31c0-.16-.04-.27-.12-.33-.08-.07-.25-.11-.49-.15v-.18h3.38v.18c-.31.07-.47.14-.47.24,0,.04.1.19.32.43l4.35,5.04,4.37-5.08c.16-.18.23-.3.23-.38,0-.1-.16-.17-.47-.24v-.18h3.42v.18Zm2.56-1.4h-.04s-.02-.05-.03-.06c-.01-.01-.03-.02-.05-.02h-.48v1.18s0,.04.02.05c.01.01.03.02.06.03v.04h-.48v-.04s.05-.02.06-.03c.01-.01.02-.03.02-.05v-1.18h-.48s-.04,0-.05.02c-.01.01-.02.03-.03.06h-.04v-.4h.04s.02.05.03.06c.01.01.03.02.05.02h1.3s.04,0,.05-.02c.01-.01.02-.03.03-.06h.04v.4Zm2.13-.29s-.05.02-.06.03c-.01.01-.02.03-.02.05v1.31s0,.04.02.05c.01.01.03.02.06.03v.04h-.48v-.04s.05-.02.06-.03c.01-.01.02-.03.02-.05v-.95l-.6,1.07-.57-1.07v.95s0,.04.02.05c.01.01.03.02.06.03v.04h-.46v-.04s.05-.02.06-.03c.01-.01.02-.03.02-.05v-1.31s0-.04-.02-.05c-.01-.01-.03-.02-.06-.03v-.04h.6v.04s-.05.03-.05.06c0,.02,0,.03.02.05l.42.8.43-.79s.03-.06.03-.08c0-.03-.02-.05-.06-.05v-.04h.59v.04Zm-1.08-6.44c-2.38,1.39-5.21,2.08-8.49,2.08-1.46,0-3.17-.19-5.13-.56-.62-.13-1.07-.19-1.33-.19-.24,0-.55.06-.94.18-.29.08-.52.12-.68.12h-1.79c-.6,0-.9-.16-.9-.47v-6.58c0-.45.32-.66.97-.66h1.54c.4,0,.68.07.81.2.13.14.32.6.56,1.39.98,3.05,3.22,4.58,6.71,4.58,1.82,0,3.25-.38,4.29-1.15,1.04-.77,1.56-1.7,1.56-2.8s-.55-2.18-1.67-3.14c-1.11-.96-3.26-2.27-6.45-3.91-2.47-1.26-4.22-2.23-5.26-2.93-1.04-.69-1.88-1.47-2.52-2.34-.63-.88-.95-1.84-.95-2.88,0-1.93,1-3.52,3-4.76,2-1.25,4.44-1.87,7.31-1.87,1.31,0,2.73.18,4.24.54.67.17,1.12.25,1.37.25s.5-.05.79-.14c.29-.09.65-.13,1.08-.13h1.33c.69,0,1.04.16,1.04.47v5.78c0,.29-.26.44-.79.44h-1.65c-.43,0-.71-.05-.84-.17-.13-.11-.37-.53-.7-1.26-1.13-2.53-2.96-3.79-5.5-3.79-1.37,0-2.46.28-3.29.84-.83.56-1.24,1.2-1.24,1.94,0,.85.49,1.72,1.46,2.61.97.89,2.9,2.06,5.8,3.5,3.71,1.85,6.28,3.48,7.7,4.88,1.42,1.4,2.13,2.92,2.13,4.56,0,2.21-1.19,4.01-3.58,5.4Zm7.79,1.34c-.48.42-1.06.63-1.73.63s-1.24-.21-1.72-.63c-.48-.42-.72-.93-.72-1.51s.24-1.09.72-1.51c.48-.42,1.05-.62,1.72-.62s1.26.21,1.74.62c.48.41.72.92.72,1.51s-.24,1.09-.72,1.51Z"/><path class="cls-1" d="m40.05,57.28c-.31-.21-.71-.36-1.19-.43-.49-.07-1.23-.11-2.24-.11h-5.15v2.89h5.24c.76,0,1.31-.02,1.67-.04.36-.03.7-.08,1.02-.16.39-.1.68-.26.89-.47.21-.21.32-.45.32-.73,0-.36-.19-.68-.57-.93Z"/></svg>