<?xml version="1.0" encoding="UTF-8"?><svg id="Layer_1" xmlns="http://www.w3.org/2000/svg" viewBox="0 0 449.41 98.46"><defs><style>.cls-1{fill:#db0101;}.cls-2{fill:#080404;}</style></defs><path class="cls-1" d="m69.77,98.28h-11.18V14.87c-.65.47-1.15.78-1.6,1.16-2.12,1.81-4.22,3.65-6.36,5.44-1.19.99-1.91,2.12-2.27,3.71-1.26,5.59-2.75,11.13-4.1,16.7-1.35,5.58-2.61,11.19-3.99,16.77-1.1,4.48-2.38,8.92-3.45,13.41-1.74,7.26-3.37,14.54-5.05,21.81-.26,1.13-.53,2.26-.79,3.4-.16.68-.47,1.05-1.28,1.04-3.17-.05-6.33-.03-9.5,0-.8,0-1.2-.32-1.49-1.03-3.38-8.44-6.76-16.88-10.16-25.32-2.83-7.01-5.69-14-8.49-21.02-.16-.39-.09-1.14.19-1.39,2.61-2.39,5.28-4.71,7.94-7.04.12-.11.29-.16.6-.33,4.87,12.15,9.72,24.25,14.7,36.66.35-.66.66-1.04.76-1.48,2.21-9.29,4.38-18.6,6.61-27.89,2.25-9.37,4.54-18.73,6.81-28.1.09-.36.14-.73.19-1.1.31-2.41,1.67-4.07,3.52-5.6,5.22-4.34,10.31-8.84,15.44-13.28.35-.3.65-.64.98-.96.57-.56,1.1-.56,1.73,0,8.5,7.36,17.01,14.7,25.53,22.04,4.13,3.56,8.3,7.08,12.41,10.67.43.38.77,1.12.77,1.69.02,17,0,34-.06,51,0,1.08.53,1.13,1.3,1.13,4.62-.01,9.25-.01,13.87-.02.49,0,.99,0,1.6,0,.05,1.01.11,1.91.12,2.8.02,2.5,0,5,.04,7.5.01.82-.27,1.11-1.08,1.11-8.71-.01-17.42,0-26.12,0-.84,0-1.16-.3-1.15-1.19.04-18.96.07-37.92.04-56.88,0-.71-.47-1.61-1.01-2.1-4.91-4.44-9.88-8.81-14.84-13.18-.23-.2-.56-.29-.84-.43-.13.32-.36.65-.36.97,0,2.46.05,4.92.05,7.37.01,21.21.02,42.42.02,63.63,0,.53-.05,1.07-.08,1.75Z"/><path class="cls-2" d="m131.42,32.24c3.81,0,7.5-.01,11.19.03.31,0,.79.31.91.6,6.51,16.07,12.99,32.16,19.48,48.24.41,1.01.84,2.01,1.35,3.24,2.24-5.58,4.33-10.83,6.44-16.07,2.49-6.2,5-12.39,7.49-18.58,2.17-5.38,4.36-10.74,6.46-16.14.41-1.04.95-1.38,2.01-1.37,3.45.05,6.91.02,10.57.02-.32.72-.57,1.26-.8,1.81-4.59,11.35-9.18,22.7-13.77,34.05-3.9,9.64-7.8,19.28-11.67,28.94-.36.89-.78,1.31-1.81,1.29-3.37-.06-6.75-.04-10.12.02-.91.02-1.32-.32-1.65-1.13-6.48-16.13-12.97-32.26-19.48-48.37-2.11-5.22-4.28-10.41-6.42-15.62-.12-.29-.14-.61-.21-.93Zm274.23,66.05c3.51,0,6.92.02,10.33-.04.25,0,.7-.64.7-.99,0-4.25-.07-8.5-.09-12.74,0-.47.06-1.06.34-1.37.79-.88,1.71-1.65,2.67-2.55.15.23.21.35.29.44,4.64,5.4,9.3,10.78,13.93,16.19.67.78,1.42,1.13,2.48,1.11,3.91-.07,7.83-.04,11.75-.06.34,0,.68-.06,1.3-.12-7.34-8.39-14.5-16.56-21.55-24.61,7.15-6.3,14.25-12.55,21.61-19.03-.7-.12-1.01-.23-1.31-.23-4.75,0-9.5-.02-14.25.02-.56,0-1.24.23-1.66.6-4.49,3.97-8.94,7.99-13.41,11.98-.66.59-1.36,1.14-2.23,1.87,0-.56,0-.8,0-1.04.07-11.46.14-22.91.21-34.37,0-.8-.05-1.25-1.12-.94-3.33.98-6.69,1.82-9.99,2.71v63.17Zm-105.63-43.64c-2.62.73-5.24,1.49-7.86,2.22-1.02.28-1.97.22-2.97-.34-2.43-1.35-5.13-2-7.86-2.25-4.51-.41-8.76.55-12.68,2.86-6.62,3.9-10.32,9.77-11.29,17.28-.47,3.66.4,7.22,1.92,10.64,3.35,7.49,9.27,11.75,17.12,13.11,4.18.72,8.46.05,12.35-2.05.45-.24,1.02-.28,1.63-.43v2.51h11.02v-43.77c-.43.07-.92.09-1.38.22Zm-31.65,21.22c.2-5.03,4.18-10.66,10.96-10.57,6.59.08,10.76,4.78,10.92,9.71.25,7.7-4.07,12.25-11.11,12.25-5.96,0-11.02-5.15-10.77-11.4Zm129.26,21.15c0-8,.03-16-.02-24-.04-7.22-3.15-12.73-9.35-16.48-3.53-2.13-7.44-2.7-11.38-2.2-3.1.4-5.97,1.8-8.43,3.85-.35.3-.82.46-1.48.83.15-1.77.26-3.15.39-4.69-1.33.3-2.49.53-3.63.84-2.16.58-4.28,1.31-6.46,1.79-.91.2-1.14.54-1.14,1.38.02,12.37.03,24.75.03,37.12,0,.67-.1,1.34,0,1.99.04.31.41.82.64.82,3.21.04,6.41.02,9.62-.04.63-.01.94-.38.93-1.14-.07-5.66-.07-11.33-.11-17,0-1.16-.21-2.32-.15-3.47.08-1.7-.06-3.56.57-5.07,1.77-4.23,4.98-6.5,9.77-6.34,3.66.12,6.18,1.78,7.86,4.95.96,1.81,1.26,3.74,1.26,5.74.02,7.04,0,14.08,0,21.12v1.2h11.01c.03-.5.07-.87.07-1.23Zm-167.53-30.39c0,6.25,0,12.5,0,18.75,0,1.91.21,3.78.93,5.59,1.63,4.11,5.95,7.24,10.36,7.33,3.21.06,6.41,0,9.62.04.86.01,1.06-.39,1.05-1.15-.03-2.96-.06-5.91-.04-8.87,0-.79-.28-.99-1.04-.95-1.7.08-3.41.12-5.12.08-3.41-.09-4.83-1.56-4.83-4.95-.01-5.17.01-10.33,0-15.5,0-.52-.08-1.04-.14-1.66.45-.03.94-.08,1.43-.08,2.75,0,5.5-.04,8.25.03,1.11.03,1.55-.25,1.5-1.47-.1-2.79-.1-5.58-.04-8.37.02-.95-.27-1.24-1.19-1.22-2.91.04-5.83,0-8.75.03-.73,0-1.15-.07-1.14-.99.07-4.41.09-8.83.11-13.24,0-.32-.06-.63-.1-1.03-.46.05-.84.05-1.19.15-2.77.74-5.51,1.56-8.29,2.24-1.13.27-1.46.85-1.44,1.93.05,3.16,0,6.33.08,9.5.03,1.15-.27,1.53-1.46,1.48-2.36-.1-4.72-.03-6.98-.03v10.89h8.42c0,.69,0,1.1,0,1.51Zm92.46-34.31c-3.07.83-6.15,1.68-9.22,2.53-.65.18-1.02.51-1,1.31.08,3.33.1,6.66.1,9.99.01,15.53,0,31.06.01,46.6,0,1.82,0,3.63,0,5.55,3.14,0,6.33-.05,9.52.03,1.15.03,1.37-.4,1.37-1.45-.05-19.78-.07-39.56-.1-59.34,0-1.7,0-3.4,0-5.22-.28,0-.5-.04-.69,0Zm-119.92,65.92h10.91v-43.99h-10.91v43.99Zm132.38-44.05c-.8,0-.79.51-.79,1.1.01,13.95.02,27.9.03,41.85,0,.36.05.71.08,1.05h10.94v-44c-3.52,0-6.89,0-10.25,0Zm-132.39-15.32v10.92c.22.06.37.14.53.14,3.24,0,6.48-.03,9.73-.01.83,0,.83-.48.82-1.06-.03-1.29-.08-2.58-.09-3.86-.01-2.03,0-4.06,0-6.13h-10.99Zm131.74.05c-.03.16-.08.36-.09.56-.03,3.21-.04,6.42-.08,9.62-.01.83.54.8,1.09.8,2.42,0,4.83-.02,7.25-.02.9,0,1.8,0,2.65,0v-10.96h-10.83Z"/></svg>