<?xml version="1.0" encoding="UTF-8"?><svg id="Layer_1" xmlns="http://www.w3.org/2000/svg" viewBox="0 0 102 47"><defs><style>.cls-1{fill:#23004b;}</style></defs><path class="cls-1" d="m92.92,29.61c-4.34-1.12-6.05-1.58-6.05-3.69,0-1.64,1.38-2.57,3.88-2.57s4.41,1.18,5.72,2.7l3.88-3.82c-2.11-2.3-5.2-4.14-9.61-4.14-5.46,0-9.87,2.63-9.87,8.16s4.08,7.37,8.16,8.49c4.67,1.32,6.71,1.65,6.71,3.88,0,1.84-1.51,2.96-4.87,2.96-2.97,0-5.41-.99-7.12-3.13l-4.01,3.89c2.14,2.49,6.03,4.57,11.52,4.57,7.83,0,10.72-3.88,10.72-8.62,0-5.86-4.74-7.57-9.08-8.68h0Zm-52.16,11.73c3.62,0,6.26-1.45,7.84-2.96l3.89,4.08c-2.57,2.57-6.12,4.48-11.66,4.48-9.48,0-15.61-6.13-15.61-14.42s6.45-14.42,14.75-14.42c9.42,0,14.75,6.98,14.29,16.66h-22.26c.79,4.02,3.69,6.59,8.76,6.59h0Zm6.78-11.2c-.59-3.75-2.9-6.52-7.51-6.52-4.28,0-7.24,2.37-8.04,6.52h15.54ZM58.88.31h6.45v46.08h-6.45V.31Zm17.46,18.05h-6.51v28h6.51v-28Zm-7.5-9.29c0-2.43,1.98-4.21,4.27-4.21s4.28,1.79,4.28,4.21c0,2.55-1.98,4.28-4.28,4.28s-4.27-1.72-4.27-4.28Zm-46.69,15.17l3.86-5.9H2.18v5.92l19.98-.02ZM0,46.43h23.91s0-5.91,0-5.91H3.86s-3.86,5.91-3.86,5.91Zm5.13-7.9h7.67s8.08-12.34,8.08-12.34h-7.65s-8.1,12.34-8.1,12.34Z"/></svg>