<?xml version="1.0" encoding="UTF-8"?><svg id="Layer_1" xmlns="http://www.w3.org/2000/svg" width="358.38" height="87.67" viewBox="0 0 358.38 87.67"><defs><style>.cls-1{fill:#fff;}.cls-2{fill:#242359;}.cls-3{fill:#1ba7e0;}.cls-4{fill:#a4caeb;}.cls-5{fill:#ed1c24;}</style></defs><polygon class="cls-1" points="0 38.4 19.2 28.8 0 19.2 0 38.4"/><polygon class="cls-5" points="0 38.4 0 57.6 38.4 38.4 19.2 28.8 0 38.4"/><polygon class="cls-2" points="0 57.6 57.6 57.6 57.6 48 38.4 38.4 0 57.6"/><polygon class="cls-3" points="0 0 0 19.2 19.2 28.8 38.4 19.2 0 0"/><polygon class="cls-2" points="0 0 38.4 19.2 57.6 9.6 57.6 0 0 0"/><polygon class="cls-4" points="38.4 19.2 19.2 28.8 38.4 38.4 57.6 48 57.6 28.8 57.6 9.6 38.4 19.2"/><path class="cls-2" d="M306.72,19.7h7.42v5.71h-7.42v12.44c0,3.11,.68,4.97,3.68,4.97,1.12-.06,2.23-.22,3.32-.47v5.45c-1.87,.47-3.78,.74-5.71,.79-5.71,0-8.57-2.76-8.57-8.82v-14.35h-3.98v-5.7h3.98v-4.83l7.27-2.98v7.81Zm-166.5-4.87h7.32V7.93h-7.32v6.9h0Zm-3.98,10.57h3.98v22.47h7.32V19.71h-11.3v5.7Zm147.89-10.58h7.29V7.93h-7.32v6.9h.03Zm-3.98,10.57h3.98v22.47h7.29V19.71h-11.27v5.7Zm-174.42,11.44c0,7.31-5.76,10.99-14.42,10.99h-15.05V15.45h-4.57v-5.71h18.37c4.97,0,7.48,.68,9.45,1.92,2.58,1.61,4.09,4.48,3.98,7.52,0,3.98-2.49,7.06-6.54,8.15v.11c5.45,.94,8.77,4.52,8.77,9.45m-21.95-11.68h5.92c4.21,0,6.23-1.99,6.23-4.82,0-3.27-1.99-4.97-5.81-4.97h-6.34v9.8Zm14.22,11.26c0-3.63-2.65-5.61-7.21-5.61h-6.96v11.27h7.06c5.08,0,7.16-2.29,7.16-5.66m256.79,5.72V7.37l-7.31,2.98V47.88h10.84v-5.7h-3.53Zm-149.57-.36c-7.47,0-11.88-5.03-11.88-13.13s4.41-13.23,11.25-13.23c1.66,0,3.31,.19,4.92,.57v7.96l6.5-2.7V11.92c-3.38-1.92-7.22-2.89-11.1-2.79-11.47,0-19.3,7.05-19.3,19.67,0,11.94,6.96,19.73,19.3,19.73,3.92,0,7.77-.97,11.23-2.81l-1.6-6.12c-2.88,1.48-6.08,2.25-9.32,2.24m-33.21-22.64c-3.53-.15-6.91,1.42-9.08,4.21h-.11l-.47-3.68h-10.83v5.7h4.05v22.47h7.32v-13.02c0-6.96,3.68-9.54,6.84-9.54,2.98,0,4.36,1.92,4.36,6.23v16.33h7.26V29.88c0-7.05-3.21-10.69-9.38-10.69m106.07,14.56c0,8.72-4.97,14.75-12.2,14.75-4.31,0-6.85-1.72-8.15-3.48h-.14v11.81l-7.26,2.98V25.41h-3.68v-5.7h10.38l.47,3.68h.1c.94-1.45,3.11-4.21,8.25-4.21,7.52,0,12.2,5.76,12.2,14.58m-7.39,0c0-5.23-2.59-8.71-6.59-8.71s-6.54,3.52-6.54,8.66,2.54,8.76,6.39,8.76,6.74-3.53,6.74-8.72m-153.72,14.76c-5.5,0-8.95-3.43-8.95-8.67,0-4.77,3.06-7.69,8.15-8.88,2.85-.55,5.76-.79,8.66-.73,0-4.1-1.65-5.49-5.92-5.49-2.73,.05-5.42,.69-7.89,1.87v-5.69c2.8-1.15,5.8-1.73,8.82-1.71,8.95,0,12.2,4.05,12.2,11.68v11.28h3.53v5.7h-9.95l-.58-2.84h-.1c-2,2.29-4.92,3.57-7.96,3.48m7.82-13.72c-1.63,.01-3.26,.12-4.88,.31-2.99,.47-4.62,1.99-4.62,4.63,0,2.29,1.51,3.53,3.74,3.53,3.06,0,5.76-2.08,5.76-6.13v-2.34Zm102.65,13.71c-5.5,0-8.95-3.43-8.95-8.66,0-4.77,3.06-7.69,8.15-8.88,2.86-.55,5.76-.79,8.67-.73,0-4.1-1.66-5.49-5.91-5.49-2.73,.05-5.42,.69-7.89,1.87v-5.68c2.8-1.15,5.8-1.73,8.82-1.71,8.95,0,12.2,4.05,12.2,11.68v11.28h3.52v5.7h-9.95l-.57-2.84h-.1c-2,2.29-4.92,3.57-7.96,3.48m7.8-13.72c-1.63,.01-3.25,.12-4.86,.31-2.98,.47-4.63,1.99-4.63,4.63,0,2.29,1.5,3.53,3.73,3.53,3.06,0,5.76-2.08,5.76-6.13v-2.34Zm89.85,13.71c-5.5,0-8.95-3.43-8.95-8.66,0-4.77,3.06-7.69,8.15-8.88,2.86-.55,5.76-.79,8.67-.73,0-4.1-1.66-5.49-5.92-5.49-2.73,.05-5.42,.69-7.89,1.87v-5.68c2.8-1.15,5.8-1.73,8.82-1.71,8.95,0,12.19,4.05,12.19,11.68v11.28h3.53v5.7h-9.95l-.55-2.84h-.11c-1.99,2.3-4.92,3.58-7.96,3.48m7.81-13.72c-1.63,.01-3.26,.12-4.87,.31-2.98,.47-4.63,1.99-4.63,4.63,0,2.29,1.5,3.53,3.74,3.53,3.06,0,5.76-2.08,5.76-6.13v-2.34Z"/><polygon class="cls-2" points="87.74 68.87 83.15 83.4 78.62 68.87 74.75 68.87 80.99 87.32 85.07 87.32 91.32 68.87 87.74 68.87"/><polygon class="cls-2" points="94.31 68.87 94.31 87.32 106.44 87.32 106.44 84.36 97.98 84.36 97.98 79.12 105.6 79.12 105.6 76.22 97.98 76.22 97.98 71.74 106.17 71.74 106.17 68.87 94.31 68.87"/><polygon class="cls-2" points="122.2 68.87 122.2 81.57 114.33 68.87 110.4 68.87 110.4 87.32 113.86 87.32 113.86 73.95 122.14 87.32 125.66 87.32 125.66 68.87 122.2 68.87"/><polygon class="cls-2" points="128.71 68.87 128.71 71.74 134.01 71.74 134.01 87.32 137.65 87.32 137.65 71.74 142.9 71.74 142.9 68.87 128.71 68.87"/><path class="cls-2" d="M156.87,68.87h3.66v11.13c0,2.48-.38,4.16-1.62,5.55-1.24,1.39-2.98,2.07-5.73,2.07s-4.51-.67-5.73-2.07c-1.22-1.4-1.65-3.05-1.65-5.52v-11.16h3.66v11.34c0,1.6,.18,2.33,.76,2.98,1.66,1.55,4.24,1.55,5.9,0,.59-.7,.76-1.42,.76-2.98v-11.34Z"/><path class="cls-2" d="M175.25,87.32l-4.31-7.17h-2.3v7.17h-3.65v-18.45h6.65c1.64-.1,3.27,.34,4.65,1.24,2.35,1.88,2.72,5.32,.84,7.66-.67,.83-1.57,1.45-2.58,1.78l4.88,7.76h-4.19Zm-1.65-15.04c-.7-.45-1.53-.67-2.36-.62h-2.59v5.76h2.56c.84,.05,1.68-.16,2.39-.62,1.25-.98,1.47-2.79,.49-4.04-.14-.18-.31-.35-.49-.49"/><polygon class="cls-2" points="182.67 68.87 182.67 87.32 194.79 87.32 194.79 84.36 186.33 84.36 186.33 79.12 193.95 79.12 193.95 76.22 186.33 76.22 186.33 71.74 194.53 71.74 194.53 68.87 182.67 68.87"/><path class="cls-2" d="M203.89,87.58c-2.55,0-4.99-.99-6.82-2.75l1.83-2.59c1.34,1.31,3.1,2.12,4.97,2.27,2.18,0,3.28-.87,3.28-2.27s-1.36-1.91-2.1-2.21c-.74-.3-3.07-1.13-3.57-1.33-2.12-.63-3.57-2.58-3.56-4.79,0-2.39,1.68-5.32,6.63-5.32,2.3,0,4.51,.88,6.2,2.44l-1.57,2.51c-1.3-1.2-2.97-1.9-4.73-1.99-1.89,0-2.98,.7-2.98,2.07s1.34,1.86,1.99,2.15c.65,.29,2.99,1.1,3.51,1.31,2.75,1,3.78,2.79,3.78,4.84,0,2.65-1.89,5.76-6.96,5.76"/></svg>