<?xml version="1.0" encoding="utf-8"?>
<!-- Generator: Adobe Illustrator 26.2.1, SVG Export Plug-In . SVG Version: 6.00 Build 0)  -->
<svg version="1.1" id="Layer_1" xmlns="http://www.w3.org/2000/svg" xmlns:xlink="http://www.w3.org/1999/xlink" x="0px" y="0px"
	 viewBox="0 0 1600 787.2" style="enable-background:new 0 0 1600 787.2;" xml:space="preserve">
<style type="text/css">
	.st0{fill:#1F4E9D;}
	.st1{fill:#A4CAED;}
	.st2{fill:#F7F4F4;}
	.st3{fill:#AFA7A4;}
	.st4{fill:#E4121F;}
	.st5{fill:#D0CDC9;}
	.st6{fill:#00A8E4;}
</style>
<path class="st0" d="M1600,506.8v252.1H0V376.5c3.4-0.2,6.7-0.4,10.1-0.4c54.2,0,101.4,30,126,74.3c33.2,4.6,62.2,22.1,82,47.3
	c6.9-1.7,14-2.6,21.4-2.6c18.7,0,36,5.9,50.2,15.8c1.6-0.3,3.2-0.4,4.8-0.4c15.3,0,27.9,11.6,29.4,26.5c16-10.3,35.1-16.4,55.6-16.4
	c39.5,0,73.8,22.4,90.9,55.1c10.5-5.2,22.2-8.1,34.7-8.1c21.6,0,41.1,8.7,55.3,22.7c9.7-39,44.9-68,86.9-68
	c26.7,0,50.7,11.7,67.1,30.2c3.4-0.4,6.8-0.7,10.3-0.7c24.1,0,45.6,11,59.8,28.2c6.1-13.4,19.6-22.7,35.3-22.7
	c2.2,0,4.3,0.2,6.4,0.5c17-12.7,37.4-20.9,59.7-23.1c8.4-65.9,64.7-116.8,132.9-116.8c45.5,0,85.7,22.7,109.9,57.4
	c6.7-1.3,13.6-2,20.7-2c45.1,0,83.6,28.4,98.6,68.4c15.3-12.2,34.7-19.5,55.8-19.5c35.4,0,66.1,20.6,80.6,50.5
	c2.6-0.4,5.3-0.6,8-0.6c17.8,0,33.6,8.7,43.3,22.1c1.1-0.1,2.2-0.1,3.3-0.1c9.9,0,19.1,3,26.7,8.2c0.5-0.9,1-1.8,1.5-2.6
	c2.1-31,27.9-55.4,59.4-55.4c10.6,0,20.6,2.8,29.2,7.7c0.7,0,1.5-0.1,2.2-0.1c1.6,0,3.1,0.1,4.7,0.2c-0.3-2-0.5-4.1-0.5-6.2
	C1562.1,524.8,1579,507.5,1600,506.8"/>

</svg>
