<?xml version="1.0" encoding="utf-8"?>
<!-- Generator: Adobe Illustrator 26.2.1, SVG Export Plug-In . SVG Version: 6.00 Build 0)  -->
<svg version="1.1" id="Layer_1" xmlns="http://www.w3.org/2000/svg" xmlns:xlink="http://www.w3.org/1999/xlink" x="0px" y="0px"
	 viewBox="0 0 1600 787.2" style="enable-background:new 0 0 1600 787.2;" xml:space="preserve">
<style type="text/css">
	.st0{fill:#1F4E9D;}
	.st1{fill:#A4CAED;}
	.st2{fill:#F7F4F4;}
	.st3{fill:#AFA7A4;}
	.st4{fill:#E4121F;}
	.st5{fill:#D0CDC9;}
	.st6{fill:#00A8E4;}
</style>
<g>
	<rect x="1355.8" y="440.4" class="st2" width="55.7" height="319.4"/>
	<polygon class="st3" points="1383.6,40.6 1347.6,112.7 1311.5,184.7 1383.6,184.7 1455.7,184.7 1419.6,112.7 	"/>
	<rect x="1311.5" y="184.7" class="st4" width="144.2" height="64"/>
	<rect x="1311.5" y="248.8" class="st5" width="144.2" height="64"/>
	<polygon class="st5" points="1405.8,501.7 1383.6,457.3 1361.4,501.7 	"/>
	<polygon class="st4" points="1405.8,501.7 1450.3,501.7 1405.8,412.8 1383.6,457.3 	"/>
	<polygon class="st6" points="1316.9,501.7 1361.4,501.7 1383.6,457.3 1361.4,412.8 	"/>
	<polygon class="st3" points="1347.6,384.9 1383.6,456.9 1419.6,384.9 1455.7,312.8 1383.6,312.8 1311.5,312.8 	"/>
	<path class="st4" d="M1383.6,171c11,0,19.9-10.1,19.9-22.5c0-12.4-9-22.5-19.9-22.5c-11,0-19.9,10.1-19.9,22.5
		C1363.6,160.9,1372.6,171,1383.6,171"/>
</g>
</svg>
