<?xml version="1.0" encoding="utf-8"?>
<!-- Generator: Adobe Illustrator 26.2.1, SVG Export Plug-In . SVG Version: 6.00 Build 0)  -->
<svg version="1.1" id="Layer_1" xmlns="http://www.w3.org/2000/svg" xmlns:xlink="http://www.w3.org/1999/xlink" x="0px" y="0px"
	 viewBox="0 0 1600 787.2" style="enable-background:new 0 0 1600 787.2;" xml:space="preserve">
<style type="text/css">
	.st0{fill:#1F4E9D;}
	.st1{fill:#A4CAED;}
	.st2{fill:#F7F4F4;}
	.st3{fill:#AFA7A4;}
	.st4{fill:#E4121F;}
	.st5{fill:#D0CDC9;}
	.st6{fill:#00A8E4;}
</style>

<path class="st1" d="M1600,594.5v206.9H0V527.9c31.5,0.5,56.8,26.1,56.8,57.7c0,6.3-1,12.3-2.9,18c8.5,3.1,16.4,7.4,23.6,12.6
	c8.1-4.3,17.2-6.7,27-6.7c21,0,39.4,11.2,49.5,27.9c11.4-8.2,25.5-13.1,40.7-13.1c21.7,0,41,9.9,53.8,25.4
	c5.5-12,17.6-20.4,31.7-20.4c2,0,3.9,0.2,5.7,0.5c17.9-13.3,40-21.2,64-21.2c7.4,0,14.7,0.8,21.7,2.2c1.4-13.4,12.7-23.8,26.4-23.8
	c13.8,0,25.1,10.5,26.4,23.8c14.4-9.3,31.5-14.7,50-14.7c35.5,0,66.4,20.1,81.8,49.6c9.4-4.6,20-7.2,31.2-7.2
	c19.4,0,36.9,7.8,49.7,20.5c8.7-35.1,40.4-61.2,78.2-61.2c24,0,45.6,10.5,60.3,27.2c3-0.4,6.1-0.6,9.3-0.6c21.7,0,41,9.9,53.8,25.4
	c5.5-12,17.6-20.4,31.7-20.4c2,0,3.9,0.2,5.7,0.5c17.9-13.3,40-21.2,64-21.2c3.1,0,6.1,0.1,9.1,0.4c4.3-14.6,17.8-25.3,33.9-25.3
	c10,0,19,4.2,25.5,10.8c0.5,0,1-0.1,1.5-0.1c7.3,0,14.2,3.1,20,8.4c10.7-4.3,22.4-6.7,34.6-6.7c35.5,0,66.4,20.1,81.8,49.6
	c9.4-4.6,20-7.2,31.2-7.2c19.4,0,36.9,7.8,49.7,20.5c8.7-35.1,40.4-61.2,78.2-61.2c31.9,0,59.4,18.5,72.5,45.4
	c2.4-0.4,4.8-0.5,7.2-0.5c16,0,30.2,7.8,39,19.9c1-0.1,2-0.1,3-0.1c8.9,0,17.2,2.7,24,7.4c6.5-12.2,19.3-20.5,34.1-20.5
	c3.9,0,7.6,0.6,11.1,1.6c5.6-15.5,20.5-26.5,37.9-26.5c1.4,0,2.8,0.1,4.2,0.2c-0.3-1.8-0.4-3.7-0.4-5.6c0-19.5,15.8-35.3,35.3-35.3
	c10,0,19,4.2,25.5,10.8C1599.3,594.5,1599.7,594.5,1600,594.5"/>


</svg>
