<?xml version="1.0" encoding="utf-8"?>
<!-- Generator: Adobe Illustrator 26.2.1, SVG Export Plug-In . SVG Version: 6.00 Build 0)  -->
<svg version="1.1" id="Layer_1" xmlns="http://www.w3.org/2000/svg" xmlns:xlink="http://www.w3.org/1999/xlink" x="0px" y="0px"
	 viewBox="0 0 1600 787.2" style="enable-background:new 0 0 1600 787.2;" xml:space="preserve">
<style type="text/css">
	.st0{fill:#1F4E9D;}
	.st1{fill:#A4CAED;}
	.st2{fill:#F7F4F4;}
	.st3{fill:#AFA7A4;}
	.st4{fill:#E4121F;}
	.st5{fill:#D0CDC9;}
	.st6{fill:#00A8E4;}
</style>

<path class="st2" d="M1425.5,787.2h-250.4c-0.5-1.5-0.9-3-1.3-4.6c0.2,1.5,0.4,3,0.6,4.6H288.1h-66.2c4.6-13.9,17.7-23.9,33.1-23.9
	c14.3,0,26.7,8.7,32,21.1c0-0.7,0-1.4,0-2.1c0-31.4,25.5-56.9,56.9-56.9c6.2,0,12.1,1,17.7,2.8c16-31.7,48.8-53.5,86.8-53.5
	c30,0,56.8,13.6,74.6,34.9c13.8-18.9,36.2-31.2,61.4-31.2c35.1,0,64.6,23.8,73.4,56.1c10-8,22.8-12.8,36.6-12.8
	c21.4,0,40.2,11.5,50.5,28.7c8.4-4.9,18.2-7.6,28.7-7.6c2.4,0,4.8,0.2,7.2,0.4c7.2-34.2,37.5-59.8,73.8-59.8
	c30.9,0,57.4,18.5,69.1,45.1c6.3-2,13-3,20-3c8.1,0,15.8,1.4,23,4.1c15.4-24.6,44.2-41.2,77.1-41.2c40.4,0,74.6,24.9,85.4,59
	c3.3-1.4,6.8-2.1,10.4-2.1c15.1,0,28,12.9,33,30.9c-1-5.4-1.5-11-1.5-16.7c0-50.2,39.3-90.9,87.8-90.9c38.2,0,70.7,25.3,82.8,60.6
	c0.6,0,1.3,0,1.9,0C1384.4,729.1,1418.6,754.2,1425.5,787.2"/>
<path class="st2" d="M128.6,787.2h-250.4c-0.5-1.5-0.9-3-1.3-4.6c0.2,1.5,0.4,3,0.6,4.6h-886.3h-66.2c4.6-13.9,17.7-23.9,33.1-23.9
	c14.3,0,26.7,8.7,32,21.1c0-0.7,0-1.4,0-2.1c0-31.4,25.5-56.9,56.9-56.9c6.2,0,12.1,1,17.7,2.8c16-31.7,48.8-53.5,86.8-53.5
	c30,0,56.8,13.6,74.6,34.9c13.8-18.9,36.2-31.2,61.4-31.2c35.1,0,64.6,23.8,73.4,56.1c10-8,22.8-12.8,36.6-12.8
	c21.4,0,40.2,11.5,50.5,28.7c8.4-4.9,18.2-7.6,28.7-7.6c2.4,0,4.8,0.2,7.2,0.4c7.2-34.2,37.5-59.8,73.8-59.8
	c30.9,0,57.4,18.5,69.1,45.1c6.3-2,13-3,20-3c8.1,0,15.8,1.4,23,4.1c15.4-24.6,44.2-41.2,77.1-41.2c40.4,0,74.5,24.9,85.4,59
	c3.3-1.4,6.8-2.1,10.4-2.1c15.1,0,28,12.9,33,30.9c-1-5.4-1.5-11-1.5-16.7c0-50.2,39.3-90.9,87.8-90.9c38.2,0,70.7,25.3,82.8,60.6
	c0.6,0,1.3,0,1.9,0C87.6,729.1,121.7,754.2,128.6,787.2"/>
<path class="st2" d="M1520,787.2h250.4c0.5-1.5,0.9-3,1.3-4.6c-0.2,1.5-0.4,3-0.6,4.6h886.3h66.2c-4.6-13.9-17.7-23.9-33.1-23.9
	c-14.3,0-26.7,8.7-32,21.1c0-0.7,0-1.4,0-2.1c0-31.4-25.5-56.9-56.9-56.9c-6.2,0-12.1,1-17.7,2.8c-16-31.7-48.8-53.5-86.8-53.5
	c-30,0-56.8,13.6-74.6,34.9c-13.8-18.9-36.2-31.2-61.4-31.2c-35.1,0-64.6,23.8-73.4,56.1c-10-8-22.8-12.8-36.6-12.8
	c-21.4,0-40.2,11.5-50.5,28.7c-8.4-4.9-18.2-7.6-28.7-7.6c-2.4,0-4.8,0.2-7.2,0.4c-7.2-34.2-37.5-59.8-73.8-59.8
	c-30.9,0-57.4,18.5-69.1,45.1c-6.3-2-13-3-20-3c-8.1,0-15.8,1.4-23,4.1c-15.4-24.6-44.2-41.2-77.1-41.2c-40.4,0-74.6,24.9-85.4,59
	c-3.3-1.4-6.8-2.1-10.4-2.1c-15.1,0-28,12.9-33,30.9c1-5.4,1.5-11,1.5-16.7c0-50.2-39.3-90.9-87.8-90.9c-38.2,0-70.7,25.3-82.8,60.6
	c-0.6,0-1.3,0-1.9,0C1561,729.1,1526.9,754.2,1520,787.2"/>

</svg>
