<?xml version="1.0" encoding="utf-8"?>
<!-- Generator: Adobe Illustrator 22.0.0, SVG Export Plug-In . SVG Version: 6.00 Build 0)  -->
<svg version="1.1" id="Layer_1" xmlns="http://www.w3.org/2000/svg" xmlns:xlink="http://www.w3.org/1999/xlink" x="0px" y="0px"
	 viewBox="0 0 149.8 25" style="enable-background:new 0 0 149.8 25;" xml:space="preserve">
<style type="text/css">
	.st0{fill:#ffffff;}
</style>
<title>baincapitalTopLogo</title>
<path class="st0" d="M139.2,14.5c-0.7,0-1.3,0.1-2,0.1c-1.2,0.2-1.9,0.9-1.9,1.9c0,0.8,0.5,1.4,1.3,1.5c0.1,0,0.2,0,0.2,0
	c1.3,0,2.4-1,2.4-2.3c0-0.1,0-0.2,0-0.3L139.2,14.5z M135.9,20.3c-1.9,0.2-3.6-1.2-3.7-3.1c0-0.2,0-0.3,0-0.5c0-2,1.3-3.2,3.4-3.7
	c1.2-0.2,2.4-0.3,3.6-0.3c0-1.7-0.7-2.3-2.5-2.3c-1.1,0-2.3,0.3-3.3,0.8V8.7c1.2-0.5,2.4-0.7,3.7-0.7c3.7,0,5.1,1.7,5.1,4.9v4.7h1.5
	V20h-4.2l-0.2-1.2l0,0C138.4,19.8,137.2,20.3,135.9,20.3 M98.3,14.5c-0.7,0-1.3,0.1-2,0.1c-1.2,0.2-1.9,0.9-1.9,1.9
	c0,0.8,0.5,1.4,1.3,1.5c0.1,0,0.2,0,0.2,0c1.3,0,2.4-1,2.4-2.3c0-0.1,0-0.2,0-0.3L98.3,14.5z M95.1,20.3c-1.9,0.2-3.6-1.2-3.7-3.1
	c0-0.2,0-0.3,0-0.5c0-2,1.3-3.2,3.4-3.7c1.2-0.2,2.4-0.3,3.6-0.3c0-1.7-0.7-2.3-2.5-2.3c-1.1,0-2.3,0.3-3.3,0.8V8.7
	C93.7,8.2,95,8,96.2,8c3.7,0,5.1,1.7,5.1,4.9v4.7h1.5V20h-4.2l-0.2-1.2l0,0C97.6,19.8,96.4,20.3,95.1,20.3 M52.2,14.5
	c-0.7,0-1.3,0-2,0.1c-1.2,0.2-1.9,0.9-1.9,1.9c0,0.8,0.5,1.4,1.3,1.5c0.1,0,0.2,0,0.2,0c1.3,0,2.4-1,2.4-2.3c0-0.1,0-0.2,0-0.3
	L52.2,14.5z M48.9,20.3c-1.9,0.2-3.6-1.2-3.7-3.1c0-0.2,0-0.3,0-0.5c0-2,1.3-3.2,3.4-3.7c1.2-0.2,2.4-0.3,3.6-0.3
	c0-1.7-0.7-2.3-2.5-2.3c-1.1,0-2.3,0.3-3.3,0.8V8.7C47.5,8.2,48.8,8,50.1,8c3.7,0,5.1,1.7,5.1,4.9v4.7h1.5V20h-4.2l-0.2-1.2l0,0
	C51.4,19.8,50.2,20.3,48.9,20.3 M113.2,14.1c0-2.2-1.1-3.6-2.8-3.6s-2.7,1.5-2.7,3.6s1.1,3.7,2.7,3.7S113.2,16.3,113.2,14.1
	 M116.3,14.1c0,3.6-2.1,6.2-5.1,6.2c-1.3,0.1-2.6-0.4-3.4-1.5l0,0v4.9l-3,1.2V10.6h-1.5V8.2h4.3l0.2,1.5l0,0c0.7-1.2,2-1.8,3.4-1.8
	C114.3,8,116.2,10.4,116.3,14.1 M71.9,8c-1.5-0.1-2.9,0.6-3.8,1.8l0,0l-0.2-1.5h-4.6v2.4H65V20h3.1v-5.4c0-2.9,1.5-4,2.9-4
	s1.8,0.8,1.8,2.6V20h3v-7.5C75.8,9.5,74.5,8,71.9,8 M85.8,17.5c-3.1,0-5-2.1-5-5.5s1.8-5.5,4.7-5.5c0.7,0,1.4,0.1,2.1,0.2V10
	l2.7-1.1V5c-1.4-0.8-3-1.2-4.6-1.2c-4.8,0-8.1,2.9-8.1,8.2c0,5,2.9,8.2,8.1,8.2c1.6,0,3.2-0.4,4.7-1.2l-0.7-2.6
	C88.5,17.2,87.1,17.5,85.8,17.5 M148.3,17.7V3.1l-3.1,1.3V20h4.5v-2.4L148.3,17.7z M41,15.2c0-1.5-1.1-2.3-3-2.3h-3v4.7h3
	C40.1,17.6,41,16.6,41,15.2 M35,10.5h2.5c1.8,0,2.6-0.9,2.6-2c0-1.4-0.8-2.1-2.4-2.1H35V10.5z M44.2,15.4c0,3.1-2.4,4.6-6,4.6h-6.3
	V6.4H30V4.1h7.7c1.4-0.1,2.7,0.2,4,0.8c1.1,0.7,1.7,1.9,1.6,3.1c0,1.6-1.1,3.1-2.7,3.4l0,0C42.8,11.8,44.2,13.3,44.2,15.4
	 M117.1,10.6h1.7V20h3.1V8.2h-4.7L117.1,10.6z M118.8,6.1h3.1V3.3h-3.1V6.1z M56.9,10.6h1.7V20h3.1V8.2h-4.7V10.6z M58.6,6.2h3.1
	V3.3h-3.1L58.6,6.2z M128.2,8.2h3.1v2.4h-3.1v5.2c0,1.3,0.3,2.1,1.5,2.1c0.5,0,0.9-0.1,1.4-0.2V20c-0.8,0.2-1.6,0.3-2.4,0.3
	c-2.4,0-3.6-1.1-3.6-3.7v-6h-1.7V8.2h1.7v-2l3-1.3L128.2,8.2z"/>
<path class="st0" d="M15.9,16.4l7.2,3.6v3H2.6L15.9,16.4z M1,16.2l7.2-3.6l6.6,3.3L1,22.8V16.2z M1,9l6.1,3L1,15.1V9z M9.3,12
	l13.7-6.8v13.8L9.3,12z M1,7.9V1.3l13.8,6.9l-6.6,3.3L1,7.9z M2.6,1h20.4v3l-7.2,3.6L2.6,1z M0,0v24.1h24.1V0H0z"/>
<path class="st0" d="M139.2,14.5c-0.7,0-1.3,0.1-2,0.1c-1.2,0.2-1.9,0.9-1.9,1.9c0,0.8,0.5,1.4,1.3,1.5c0.1,0,0.2,0,0.2,0
	c1.3,0,2.4-1,2.4-2.3c0-0.1,0-0.2,0-0.3L139.2,14.5z M135.9,20.3c-1.9,0.2-3.6-1.2-3.7-3.1c0-0.2,0-0.3,0-0.5c0-2,1.3-3.2,3.4-3.7
	c1.2-0.2,2.4-0.3,3.6-0.3c0-1.7-0.7-2.3-2.5-2.3c-1.1,0-2.3,0.3-3.3,0.8V8.7c1.2-0.5,2.4-0.7,3.7-0.7c3.7,0,5.1,1.7,5.1,4.9v4.7h1.5
	V20h-4.2l-0.2-1.2l0,0C138.4,19.8,137.2,20.3,135.9,20.3 M98.3,14.5c-0.7,0-1.3,0.1-2,0.1c-1.2,0.2-1.9,0.9-1.9,1.9
	c0,0.8,0.5,1.4,1.3,1.5c0.1,0,0.2,0,0.2,0c1.3,0,2.4-1,2.4-2.3c0-0.1,0-0.2,0-0.3L98.3,14.5z M95.1,20.3c-1.9,0.2-3.6-1.2-3.7-3.1
	c0-0.2,0-0.3,0-0.5c0-2,1.3-3.2,3.4-3.7c1.2-0.2,2.4-0.3,3.6-0.3c0-1.7-0.7-2.3-2.5-2.3c-1.1,0-2.3,0.3-3.3,0.8V8.7
	C93.7,8.2,95,8,96.2,8c3.7,0,5.1,1.7,5.1,4.9v4.7h1.5V20h-4.2l-0.2-1.2l0,0C97.6,19.8,96.4,20.3,95.1,20.3 M52.2,14.5
	c-0.7,0-1.3,0-2,0.1c-1.2,0.2-1.9,0.9-1.9,1.9c0,0.8,0.5,1.4,1.3,1.5c0.1,0,0.2,0,0.2,0c1.3,0,2.4-1,2.4-2.3c0-0.1,0-0.2,0-0.3
	L52.2,14.5z M48.9,20.3c-1.9,0.2-3.6-1.2-3.7-3.1c0-0.2,0-0.3,0-0.5c0-2,1.3-3.2,3.4-3.7c1.2-0.2,2.4-0.3,3.6-0.3
	c0-1.7-0.7-2.3-2.5-2.3c-1.1,0-2.3,0.3-3.3,0.8V8.7C47.5,8.2,48.8,8,50.1,8c3.7,0,5.1,1.7,5.1,4.9v4.7h1.5V20h-4.2l-0.2-1.2l0,0
	C51.4,19.8,50.2,20.3,48.9,20.3 M113.2,14.1c0-2.2-1.1-3.6-2.8-3.6s-2.7,1.5-2.7,3.6s1.1,3.7,2.7,3.7S113.2,16.3,113.2,14.1
	 M116.3,14.1c0,3.6-2.1,6.2-5.1,6.2c-1.3,0.1-2.6-0.4-3.4-1.5l0,0v4.9l-3,1.2V10.6h-1.5V8.2h4.3l0.2,1.5l0,0c0.7-1.2,2-1.8,3.4-1.8
	C114.3,8,116.2,10.4,116.3,14.1 M71.9,8c-1.5-0.1-2.9,0.6-3.8,1.8l0,0l-0.2-1.5h-4.6v2.4H65V20h3.1v-5.4c0-2.9,1.5-4,2.9-4
	s1.8,0.8,1.8,2.6V20h3v-7.5C75.8,9.5,74.5,8,71.9,8 M85.8,17.5c-3.1,0-5-2.1-5-5.5s1.8-5.5,4.7-5.5c0.7,0,1.4,0.1,2.1,0.2V10
	l2.7-1.1V5c-1.4-0.8-3-1.2-4.6-1.2c-4.8,0-8.1,2.9-8.1,8.2c0,5,2.9,8.2,8.1,8.2c1.6,0,3.2-0.4,4.7-1.2l-0.7-2.6
	C88.5,17.2,87.1,17.5,85.8,17.5 M148.3,17.7V3.1l-3.1,1.3V20h4.5v-2.4L148.3,17.7z M41,15.2c0-1.5-1.1-2.3-3-2.3h-3v4.7h3
	C40.1,17.6,41,16.6,41,15.2 M35,10.5h2.5c1.8,0,2.6-0.9,2.6-2c0-1.4-0.8-2.1-2.4-2.1H35V10.5z M44.2,15.4c0,3.1-2.4,4.6-6,4.6h-6.3
	V6.4H30V4.1h7.7c1.4-0.1,2.7,0.2,4,0.8c1.1,0.7,1.7,1.9,1.6,3.1c0,1.6-1.1,3.1-2.7,3.4l0,0C42.8,11.8,44.2,13.3,44.2,15.4
	 M117.1,10.6h1.7V20h3.1V8.2h-4.7L117.1,10.6z M118.8,6.1h3.1V3.3h-3.1V6.1z M56.9,10.6h1.7V20h3.1V8.2h-4.7V10.6z M58.6,6.2h3.1
	V3.3h-3.1L58.6,6.2z M128.2,8.2h3.1v2.4h-3.1v5.2c0,1.3,0.3,2.1,1.5,2.1c0.5,0,0.9-0.1,1.4-0.2V20c-0.8,0.2-1.6,0.3-2.4,0.3
	c-2.4,0-3.6-1.1-3.6-3.7v-6h-1.7V8.2h1.7v-2l3-1.3L128.2,8.2z"/>
<path class="st0" d="M15.9,16.4l7.2,3.6v3H2.6L15.9,16.4z M1,16.2l7.2-3.6l6.6,3.3L1,22.8V16.2z M1,9l6.1,3L1,15.1V9z M9.3,12
	l13.7-6.8v13.8L9.3,12z M1,7.9V1.3l13.8,6.9l-6.6,3.3L1,7.9z M2.6,1h20.4v3l-7.2,3.6L2.6,1z M0,0v24.1h24.1V0H0z"/>
</svg>
