<svg id="Layer_1" data-name="Layer 1" xmlns="http://www.w3.org/2000/svg" viewBox="0 0 3182 1645.81">
    <defs>
        <style>.cls-1{fill:#f55e21;}.cls-2{fill:#265eac;}.cls-3{fill:#fcb836;}.cls-4{fill:#1c2156;}</style>
    </defs>
    <path class="cls-1"
          d="M3182,0a13.71,13.71,0,0,0-6.91,2.09c-3.4,2-5.88,5.29-8.13,8.55-11.15,16.15-18,34.94-25.65,52.89-7.72,18.11-14.73,36.52-23.11,54.33-20.63,43.9-42.94,89.34-73,127.67-5.54,7.07-13.59,12.68-22.56,13.2-10.73.62-20.64-6.06-27.72-14.14s-12.19-17.72-19.08-26c-5.5-6.59-15.25-15.69-24.63-15.3-9,.36-16.15,9.09-20.7,15.94-11.4,17.13-19.27,35.17-27.59,53.77-6.27,14-14.88,27.58-27.65,36.13s-30.37,11.13-43.59,3.29c-18.55-11-21.76-36.34-34.63-53.65-3.63-4.88-8.8-9.45-14.88-9.31-7.6.18-12.89,7.35-17,13.72s-9.73,13.43-17.33,13.17c-7.13-.24-12.17-6.84-16-12.85-8.51-13.23-14.77-27.7-22.21-41.53-5.1-9.49-15.62-32.69-30-27.59-7.83,2.77-11.61,13.24-13.3,20.56-8,34.4-32.35,135.07-36.05,151.11-4.07,17.62-12.37,56.06-36,51.11-8.14-1.7-15.76-11.34-19.16-18.37-2.57-5.32-3.83-11.25-6.9-16.29s-8.87-9.2-14.58-7.74c-5.4,1.37-8.42,6.94-10.81,12-8.81,18.55-17.54,37.15-26.39,55.68-6.88,14.43-16.16,28.89-31.73,34.93-14.36,5.58-29.86,5.17-42.47-4.78-5.5-4.34-11.21-10.54-18.09-9.19-3.69.73-6.57,3.56-9,6.45-8.44,10.15-15.18,23.65-28,26.89-19.36,4.89-26.59-16.15-34-29.3-5.82-10.28-16.3-28.25-30.4-19.23-10,6.4-14.54,17.57-19.42,27.81l-17,35.64c-12.3,27.67-26.16,54.77-40.09,81.51-2.43,4.66-5,9.4-8.82,13S2228,612,2223,610.65c-9.65-2.52-13-15.75-22.41-19-8.09-2.83-16.84,3.22-21.25,10.57s-6.12,16-10.23,23.55-12.18,14.16-20.54,12.3c-8-1.79-12.41-10.23-15.72-17.75Q2123,598,2113.17,575.73c-4.59-10.43-8.79-30.9-24.64-26-4.55,1.4-8,5.14-12.42,7-9.16,3.87-19.92-1.49-26.31-9.11s-9.9-17.2-15.16-25.64c-2.64-4.23-6-8.37-10.67-10.08-7.58-2.76-16.08,1.84-21.23,8s-8.15,13.93-12.79,20.54-12,12.38-20,11.49c-8.76-1-14.66-9.18-19.15-16.77-15.54-26.38-25.25-55.44-37.9-83.22-1.91-4.2-5.14-9.13-9.71-8.41-3.83.61-5.74,4.86-7,8.53l-14.45,42.39a24.12,24.12,0,0,1-3.48,7.35c-1.7,2.14-4.36,3.71-7.07,3.37-4.13-.53-6.44-4.93-8-8.77q-3.65-8.62-7.27-17.27c-1.12-2.67-2.31-5.44-4.48-7.37-5.47-4.85-9.07.07-11.3,4.9-7,15.08-13.24,30.5-19.93,45.7-13.37,30.37-27.31,60.55-43.78,89.39-7.72,13.51-16.16,26.94-28,37.1-13.09,11.28-29.5,16.67-46.67,14.27-17.7-2.49-32.65-15.66-45.33-27.26q-20-18.24-39-37.44c-8.27-8.35-15-15.59-27.56-12.44-12,3-22.94,34.58-30.6,52.53-7.72,18.11-14.73,36.52-23.11,54.33-20.63,43.9-42.94,89.34-73,127.67-5.54,7.07-13.59,12.68-22.56,13.2-10.73.62-20.64-6.06-27.72-14.14s-12.19-17.72-19.08-26c-5.5-6.59-15.25-15.69-24.63-15.3-9,.36-16.15,9.09-20.7,15.94-11.4,17.13-19.27,35.17-27.59,53.77-6.27,14-14.88,27.58-27.65,36.13s-30.37,11.13-43.59,3.29c-18.55-11-21.76-36.34-34.63-53.65-3.63-4.88-8.8-9.45-14.88-9.31-7.6.18-12.89,7.35-17,13.72s-9.73,13.43-17.33,13.17c-7.13-.24-12.17-6.84-16-12.85-8.51-13.23-14.77-27.7-22.21-41.53-5.1-9.49-15.62-32.69-30-27.59-7.83,2.77-11.61,13.24-13.3,20.56-8,34.4-32.35,135.07-36,151.11-4.07,17.62-12.37,56.06-36,51.11-8.14-1.7-15.76-11.34-19.16-18.37-2.57-5.32-3.83-11.25-6.9-16.29s-8.87-9.2-14.58-7.74c-5.4,1.37-8.42,6.94-10.81,12-8.81,18.55-17.54,37.15-26.39,55.68-6.88,14.43-16.16,28.89-31.73,34.93-14.36,5.58-29.86,5.17-42.47-4.78-5.5-4.34-11.21-10.54-18.09-9.19-3.69.73-6.57,3.56-9,6.45-8.44,10.15-15.18,23.65-28,26.89-19.36,4.89-26.59-16.15-34-29.3-5.82-10.28-16.3-28.25-30.4-19.23-10,6.41-14.54,17.57-19.42,27.8q-8.49,17.84-17,35.65c-12.3,27.67-26.16,54.77-40.09,81.51-2.43,4.66-5,9.4-8.82,13S646,1187,641,1185.65c-9.65-2.52-13-15.75-22.41-19.05-8.09-2.83-16.84,3.22-21.25,10.57s-6.12,16-10.23,23.55-12.18,14.16-20.54,12.3c-8-1.79-12.41-10.23-15.72-17.75Q541,1173,531.17,1150.73c-4.59-10.43-8.79-30.9-24.64-26-4.55,1.4-8,5.14-12.42,7-9.16,3.87-19.92-1.49-26.31-9.11s-9.9-17.2-15.16-25.64c-2.64-4.23-6-8.37-10.67-10.08-7.58-2.76-16.08,1.84-21.23,8.05s-8.15,13.93-12.79,20.54-12,12.38-20,11.49c-8.76-1-14.66-9.18-19.15-16.77-15.54-26.38-25.25-55.44-37.89-83.22-1.92-4.2-5.15-9.13-9.72-8.41-3.82.61-5.74,4.86-7,8.53q-7.21,21.2-14.45,42.39a24.12,24.12,0,0,1-3.48,7.35c-1.7,2.14-4.36,3.71-7.07,3.37-4.13-.53-6.44-4.93-8-8.77q-3.65-8.62-7.27-17.27c-1.12-2.67-2.31-5.44-4.48-7.37-5.47-4.85-9.07.07-11.3,4.9-7,15.08-13.24,30.5-19.93,45.7-13.37,30.37-27.31,60.55-43.78,89.39-7.71,13.51-16.16,26.94-28,37.1-13.09,11.28-29.5,16.67-46.67,14.27-17.7-2.49-32.64-15.66-45.33-27.26q-20-18.24-39-37.44c-10.21-10.3-18.74-25.09-35.06-23.21-.14,0-.27.06-.41.08v495.5l3182,.19Z"/>
    <path class="cls-2"
          d="M3131.3,87.65q3.15-7.65,6.3-15.28V1645.81h-6.3V87.65m-71.9,1558.16h6.3V216.65q-3.09,4.78-6.3,9.47Zm-71.9,0h6.3V243.25c-2.25-2.69-4.3-5.52-6.3-8.4Zm-71.91,0h6.3V233.49c-2.21,4-4.29,8-6.3,12.06Zm-71.9,0h6.3V317.14a38.87,38.87,0,0,1-6.3-.45Zm-71.91,0h6.3V250.3a18.39,18.39,0,0,0-6.3,4.3Zm-71.9,0h6.3V215.54a99.58,99.58,0,0,0-6.3-10.38ZM2628,375.54V1645.81h6.29V349c-1.92,8-3.35,14.06-4.05,17.09-.63,2.73-1.37,6-2.24,9.46m-71.91,1270.27h6.3V376.52a12.18,12.18,0,0,0-6.3-2Zm-71.9-1168.25V1645.81h6.29V474.58a41.78,41.78,0,0,1-5.79,2.79l-.5.19m-69.05-7.71q-1.45,1.75-2.86,3.62V1645.81h6.3V466.28a28.31,28.31,0,0,0-3.44,3.57M2340.36,450v1195.8h6.29V457.07a40.85,40.85,0,0,0-6.29-7.06m-71.91,1195.8h6.3V536.6q-3.11,6.48-6.3,12.93ZM2196.55,590.9V1645.81h6.29V592.67a14.18,14.18,0,0,0-2.3-1.07,12.65,12.65,0,0,0-4-.7m-71.9,1054.91h6.29V616.05q-3.15-7.14-6.29-14.28Zm-71.91,0H2059V555.13a31.79,31.79,0,0,1-6.29-4.47Zm-71.9-1096.56V1645.81h6.29V544a28.89,28.89,0,0,1-6.29,5.27m-71.91-103.46v1200h6.3V457.12c-.77-1.72-1.53-3.44-2.31-5.16a21.58,21.58,0,0,0-4-6.17M1837,483.47V1645.81h6.29V471.63a18.4,18.4,0,0,0-3.21,5.05q-1.56,3.39-3.08,6.79m-71.91,1162.34h6.3V620.25c-2,3.29-4.1,6.53-6.3,9.68Zm-71.9,0h6.29V662.75a48.54,48.54,0,0,1-6.29-1.67Zm-71.91,0h6.3V608.53q-3.16-3.1-6.3-6.24Zm-72-983.16q3.15-7.65,6.3-15.28v998.44h-6.3V662.65m-71.9,983.16h6.3V791.65q-3.09,4.79-6.3,9.47Zm-71.9,0h6.3V818.25c-2.25-2.69-4.3-5.52-6.3-8.4Zm-71.91,0h6.3V808.49c-2.21,4-4.29,8-6.3,12.06Zm-71.9,0h6.3V892.14a38.87,38.87,0,0,1-6.3-.45Zm-71.91,0h6.3V825.3a18.39,18.39,0,0,0-6.3,4.3Zm-71.9,0h6.3V790.54a99.58,99.58,0,0,0-6.3-10.38ZM1046,950.54v695.27h6.29V924c-1.92,8-3.35,14.06-4,17.09-.63,2.73-1.37,6-2.24,9.46m-71.91,695.27h6.3V951.52a12.18,12.18,0,0,0-6.3-2Zm-71.9-593.25v593.25h6.29V1049.58a41.78,41.78,0,0,1-5.79,2.79l-.5.19m-69-7.71q-1.46,1.76-2.86,3.62v597.34h6.3V1041.28a28.31,28.31,0,0,0-3.44,3.57M758.36,1025v620.8h6.29V1032.07a40.85,40.85,0,0,0-6.29-7.06m-71.91,620.8h6.3V1111.6q-3.11,6.48-6.3,12.93Zm-71.9-479.91v479.91h6.29V1167.67a14.18,14.18,0,0,0-2.3-1.07,12.65,12.65,0,0,0-4-.7m-71.9,479.91h6.29V1191.05q-3.15-7.14-6.29-14.28Zm-71.91,0H477V1130.13a31.79,31.79,0,0,1-6.29-4.47Zm-71.9-521.56v521.56h6.29V1119a28.89,28.89,0,0,1-6.29,5.27m-71.91-103.46v625h6.3V1032.12c-.77-1.72-1.53-3.44-2.31-5.16a21.58,21.58,0,0,0-4-6.17M255,1058.47v587.34h6.29V1046.63a18.4,18.4,0,0,0-3.21,5q-1.56,3.39-3.08,6.79m-71.91,587.34h6.3V1195.25c-2,3.29-4.1,6.53-6.3,9.68Zm-71.9,0h6.29V1237.75a48.54,48.54,0,0,1-6.29-1.67Zm-71.91,0h6.3V1183.53q-3.16-3.1-6.3-6.24Z"/>
    <polygon class="cls-3"
             points="3129.46 230.78 3129.16 231.21 3059.86 478.24 2988.09 632.09 2917.68 691.65 2847.67 787.07 2775.96 605.77 2701.03 691.56 2631.29 729.39 2558.86 681.38 2482.53 754.17 2412.54 780.41 2343.1 942.66 2272.04 818.48 2199.09 909.36 2128.16 859.46 2056.57 890.38 1984.52 820.18 1910.94 860.09 1840.43 877.08 1766.35 846.34 1694.34 919.15 1622.87 979.38 1582 993.95 1531.89 1042.62 1460.2 1132.86 1386.41 1193.53 1315.95 1341.58 1245.55 1309.21 1172.39 1426.08 1100.7 1514.65 1030.84 1571.48 959.25 1523.83 888.76 1564.37 812.61 1379.76 740.67 1558.6 669.34 1645.35 599.17 1712.22 530 1670.6 455.98 1545.68 383.78 1652.26 312.11 1555.09 238.69 1645.09 168.74 1677.81 98.39 1614.21 97.79 1613.68 23.76 1595.83 -18.09 1624.01 -18.09 1631.6 24.98 1602.61 94.76 1619.42 167.62 1685.29 242 1650.49 311.86 1565.35 384 1663.17 455.62 1557.43 525.4 1675.17 600.04 1720.09 673.94 1649.63 745.84 1562.22 812.68 1396.44 885.68 1573.4 959.01 1531.23 1031.22 1579.29 1104.92 1519.33 1177.51 1429.73 1247.94 1317.24 1318.96 1349.88 1391.49 1197.5 1464.46 1137.5 1536.66 1046.73 1582 1000.63 1625.52 985.12 1698.6 923.76 1767.85 853.77 1839.92 883.68 1912.82 866.11 1983.45 827.93 2055.2 897.83 2127.42 866.64 2200.3 917.91 2271.16 829.63 2343.91 956.76 2417.27 785.36 2485.34 759.84 2559.57 689.4 2630.96 736.73 2704.53 696.82 2773.9 617.69 2846.01 799.99 2922.03 696.22 2992.68 636.45 2993.2 636 3065.74 480.42 3134.93 233.94 3182 166.54 3182 155.55 3129.46 230.78"/>
    <polygon class="cls-4"
             points="3131.99 308.62 3060.29 398.86 2986.51 459.53 2916.04 607.58 2845.64 575.21 2772.49 692.08 2700.79 780.65 2630.94 837.49 2559.34 789.83 2488.85 830.37 2412.7 645.76 2340.77 824.6 2269.43 911.35 2199.26 978.22 2130.09 936.6 2056.07 811.68 1983.87 918.26 1912.2 821.09 1838.78 911.09 1768.83 943.81 1698.48 880.22 1697.88 879.68 1623.85 861.83 1529.37 964.78 1529.07 965.21 1459.77 1212.24 1388 1366.09 1317.59 1425.65 1247.58 1521.07 1175.87 1339.77 1100.94 1425.56 1031.19 1463.39 958.77 1415.38 882.44 1488.17 812.45 1514.41 743.01 1676.66 671.94 1552.48 599 1643.36 528.07 1593.46 456.48 1624.38 384.43 1554.18 310.85 1594.09 240.34 1611.08 166.26 1580.34 94.25 1653.15 22.78 1713.38 -18.09 1727.95 -18.09 1734.63 25.43 1719.12 98.51 1657.76 167.76 1587.77 239.82 1617.68 312.73 1600.11 383.35 1561.93 455.11 1631.83 527.33 1600.64 600.21 1651.91 671.07 1563.63 743.82 1690.76 817.18 1519.36 885.25 1493.84 959.48 1423.4 1030.87 1470.72 1104.44 1430.82 1173.81 1351.69 1245.92 1533.99 1321.94 1430.22 1392.59 1370.45 1393.11 1370 1465.65 1214.42 1534.83 967.94 1625.07 868.61 1694.85 885.42 1767.71 951.29 1842.1 916.49 1911.95 831.35 1984.09 929.17 2055.71 823.43 2125.49 941.17 2200.13 986.09 2274.03 915.63 2345.93 828.22 2412.78 662.44 2485.77 839.4 2559.1 797.23 2631.31 845.29 2705.01 785.33 2777.6 695.73 2848.04 583.24 2919.05 615.88 2991.58 463.5 3064.55 403.5 3136.75 312.73 3182 264.32 3182 255.11 3131.99 308.62"/>
</svg>