<?xml version="1.0" encoding="utf-8"?>
<!-- Generator: Adobe Illustrator 22.0.0, SVG Export Plug-In . SVG Version: 6.00 Build 0)  -->
<svg version="1.1" id="Layer_1" xmlns="http://www.w3.org/2000/svg" xmlns:xlink="http://www.w3.org/1999/xlink" x="0px" y="0px"
	 viewBox="0 0 358.4 60.3" style="enable-background:new 0 0 358.4 60.3;" xml:space="preserve">
<style type="text/css">
	.st0{fill:#F7F5F4;}
	.st1{fill:#E52823;}
	.st2{fill:#1C2156;}
	.st3{fill:#1CA6DF;}
	.st4{fill:#ABCAE9;}
</style>
<title>bain-capital-pe-logo</title>
<polygon class="st0" points="0,38.4 19.2,28.8 0,19.2 "/>
<polygon class="st1" points="0,38.4 0,57.6 38.4,38.4 19.2,28.8 "/>
<polygon class="st2" points="0,57.6 57.6,57.6 57.6,48 38.4,38.4 "/>
<polygon class="st3" points="0,0 0,19.2 19.2,28.8 38.4,19.2 "/>
<polygon class="st2" points="0,0 38.4,19.2 57.6,9.6 57.6,0 "/>
<polygon class="st4" points="38.4,19.2 19.2,28.8 38.4,38.4 57.6,48 57.6,28.8 57.6,9.6 "/>
<path class="st2" d="M333,34.8c-1.6,0-3.3,0.1-4.9,0.3c-3,0.5-4.6,2-4.6,4.6c0,2.3,1.5,3.5,3.7,3.5c3.1,0,5.8-2.1,5.8-6.1V34.8z
	 M325.1,48.5c-5.5,0-9-3.4-9-8.7c0-4.8,3.1-7.7,8.1-8.9c2.9-0.5,5.8-0.8,8.7-0.7c0-4.1-1.7-5.5-5.9-5.5c-2.7,0.1-5.4,0.7-7.9,1.9
	v-5.7c2.8-1.2,5.8-1.7,8.9-1.7c8.9,0,12.2,4,12.2,11.7v11.3h3.5v5.7h-10l-0.6-2.9H333C331,47.3,328.1,48.6,325.1,48.5 M235.3,34.8
	c-1.6,0-3.3,0.1-4.9,0.3c-3,0.5-4.6,2-4.6,4.6c0,2.3,1.5,3.5,3.7,3.5c3.1,0,5.8-2.1,5.8-6.1V34.8z M227.4,48.5c-5.5,0-9-3.4-9-8.7
	c0-4.8,3.1-7.7,8.1-8.9c2.9-0.5,5.8-0.8,8.7-0.7c0-4.1-1.7-5.5-5.9-5.5c-2.7,0.1-5.4,0.7-7.9,1.9v-5.7c2.8-1.2,5.8-1.7,8.8-1.7
	c8.9,0,12.2,4,12.2,11.7v11.3h3.5v5.7h-10l-0.5-2.9h-0.1C233.4,47.3,230.5,48.6,227.4,48.5 M124.8,34.8c-1.6,0-3.3,0.1-4.9,0.3
	c-3,0.5-4.6,2-4.6,4.6c0,2.3,1.5,3.5,3.7,3.5c3.1,0,5.8-2.1,5.8-6.1V34.8z M116.9,48.5c-5.5,0-9-3.4-9-8.7c0-4.8,3.1-7.7,8.2-8.9
	c2.9-0.5,5.8-0.8,8.7-0.7c0-4.1-1.7-5.5-5.9-5.5c-2.7,0.1-5.4,0.7-7.8,1.9v-5.7c2.8-1.2,5.8-1.7,8.8-1.7c8.9,0,12.2,4,12.2,11.7
	v11.3h3.5v5.7h-10L125,45h-0.1C122.9,47.3,120,48.6,116.9,48.5 M270.6,33.8c0-5.2-2.6-8.7-6.6-8.7s-6.5,3.5-6.5,8.7s2.5,8.8,6.4,8.8
	C267.9,42.5,270.6,39,270.6,33.8 M278.1,33.8c0,8.7-5,14.8-12.2,14.8c-4.3,0-6.9-1.7-8.1-3.5h-0.1v11.8l-7.3,3V25.4h-3.7v-5.7h10.4
	l0.5,3.7h0.1c0.9-1.5,3.1-4.2,8.2-4.2C273.4,19.2,278.1,24.9,278.1,33.8 M172,19.2c-3.5-0.2-6.9,1.4-9.1,4.2h-0.1l-0.5-3.7h-10.8
	v5.7h4v22.5h7.3v-13c0-7,3.7-9.5,6.9-9.5c3,0,4.4,1.9,4.4,6.2v16.3h7.3v-18C181.4,22.8,178.1,19.2,172,19.2 M205.2,41.8
	c-7.5,0-11.9-5-11.9-13.1c0-7.9,4.4-13.2,11.2-13.2c1.7,0,3.3,0.2,4.9,0.6v8l6.5-2.7v-9.4c-3.3-1.9-7.1-2.9-11-2.8
	c-11.5,0-19.3,7.1-19.3,19.7c0,12,7,19.7,19.3,19.7c3.9,0,7.8-1,11.2-2.8l-1.6-6.1C211.7,41.1,208.5,41.8,205.2,41.8 M354.9,42.2
	V7.4l-7.3,3v37.5h10.9v-5.7L354.9,42.2z M98,36.5c0-3.6-2.7-5.6-7.2-5.6h-7v11.3h7.1C95.9,42.1,98,39.8,98,36.5 M83.8,25.2h5.9
	c4.2,0,6.2-2,6.2-4.8c0-3.3-2-4.9-5.8-4.9h-6.3V25.2z M105.8,36.9c0,7.3-5.8,11-14.4,11h-15V15.4h-4.7V9.7h18.4
	c4.9,0,7.5,0.7,9.4,1.9c2.6,1.6,4.1,4.5,4,7.5c0,4-2.5,7.1-6.5,8.1v0.1C102.4,28.4,105.7,32,105.8,36.9 M280.1,25.4h4v22.5h7.3V19.7
	h-11.3V25.4z M284.1,14.8h7.3V7.9h-7.3V14.8z M136.2,25.4h4v22.5h7.3V19.7h-11.3V25.4z M140.2,14.8h7.3V7.9h-7.3V14.8z M306.7,19.7
	h7.4v5.7h-7.4v12.4c0,3.1,0.7,4.9,3.7,4.9c1.1-0.1,2.2-0.2,3.3-0.5v5.5c-1.9,0.5-3.8,0.7-5.7,0.8c-5.7,0-8.6-2.8-8.6-8.8V25.4h-4
	v-5.7h4v-4.8l7.3-3L306.7,19.7z"/>
</svg>
