<?xml version="1.0" encoding="utf-8"?>
<!-- Generator: Adobe Illustrator 17.0.0, SVG Export Plug-In . SVG Version: 6.00 Build 0)  -->
<!DOCTYPE svg PUBLIC "-//W3C//DTD SVG 1.1//EN" "http://www.w3.org/Graphics/SVG/1.1/DTD/svg11.dtd">
<svg version="1.1" id="Layer_1" xmlns="http://www.w3.org/2000/svg" xmlns:xlink="http://www.w3.org/1999/xlink" x="0px" y="0px"
	 width="912px" height="897px" viewBox="0 0 912 897" enable-background="new 0 0 912 897" xml:space="preserve">
<path fill="#212355" d="M344.069,118.985c0.671-0.087,1.35-0.175,2.028-0.255c4.065-0.503,8.159-0.898,12.282-1.197
	c1.087-0.08,2.167-0.183,3.255-0.248c4.838-0.292,9.706-0.475,14.624-0.475c4.97,0,9.896,0.19,14.8,0.482
	c1.328,0.08,2.642,0.204,3.963,0.306c3.86,0.292,7.691,0.672,11.501,1.138c1.117,0.139,2.233,0.277,3.349,0.43
	c10.268,1.408,20.338,3.445,30.168,6.086L375.616-0.761l-61.344,125.504C323.978,122.21,333.94,120.313,344.069,118.985"/>
<path fill="#212355" d="M288.822,158.503c-5.116,2.197-10.107,4.598-15.004,7.152c-1.379,0.714-2.766,1.416-4.123,2.159
	c-4.437,2.43-8.735,5.058-12.975,7.765c-2.043,1.313-4.079,2.641-6.079,4.013c-3.561,2.445-7.02,5.014-10.421,7.656
	c-2.16,1.685-4.305,3.386-6.407,5.144c-3.269,2.744-6.451,5.597-9.56,8.523c-1.613,1.526-3.247,3.029-4.817,4.598
	c-3.59,3.598-7.035,7.334-10.377,11.181c-1.102,1.262-2.218,2.51-3.291,3.794c-3.729,4.496-7.298,9.13-10.676,13.924
	c-0.467,0.664-0.949,1.313-1.408,1.985c-7.75,11.253-14.544,23.265-20.207,35.985l-1.766,3.955l-1.24,3.072
	c-5.386,13.311-9.443,26.957-12.158,40.83c-0.007,0.044-0.015,0.087-0.022,0.124c-1.335,6.831-2.328,13.712-3.007,20.638
	c-0.029,0.314-0.044,0.642-0.073,0.956c-0.642,6.824-0.992,13.69-0.992,20.587c0,6.655,0.335,13.288,0.941,19.893
	c0.022,0.299,0.037,0.613,0.066,0.919c1.948,20.338,6.743,40.4,14.347,59.862l1.175,3.007c4.028,9.881,8.692,19.354,13.939,28.374
	c0.285,0.474,0.547,0.956,0.824,1.431c2.357,3.984,4.867,7.845,7.451,11.647c1.226,1.802,2.503,3.569,3.788,5.327
	c1.146,1.584,2.328,3.138,3.51,4.685c25.323,32.905,59.614,58.556,99.226,73.195c0.898,0.329,1.817,0.635,2.722,0.956
	c3.357,1.19,6.75,2.299,10.173,3.335c4.108,1.234,8.253,2.336,12.421,3.32c1.233,0.299,2.466,0.584,3.707,0.861
	c4.765,1.044,9.56,1.985,14.384,2.715c0.35,0.051,0.715,0.08,1.065,0.138c4.546,0.665,9.114,1.154,13.705,1.533
	c1.211,0.102,2.423,0.197,3.634,0.277c4.955,0.328,9.939,0.562,14.96,0.562c4.707,0,9.436-0.183,14.179-0.504
	c0.445-0.029,0.883-0.065,1.321-0.102c14.529-1.073,29.205-3.62,43.807-7.656l8.363-2.321c0.066-0.021,0.124-0.044,0.19-0.066
	V151.411c-48.23-15.537-100.48-14.318-148.535,4.451L288.822,158.503z"/>
<path fill="#212355" d="M501.374,151.166c4.386,2.606,8.698,5.32,12.902,8.181c1.058,0.715,2.058,1.481,3.102,2.211
	c2.561,1.802,5.101,3.635,7.589,5.531c2.058,1.563,4.072,3.161,6.071,4.78c1.183,0.956,2.343,1.934,3.503,2.912
	c19.959,16.77,37.101,36.612,50.842,58.913c0.533,0.861,1.073,1.722,1.598,2.591c0.883,1.481,1.854,2.912,2.708,4.415
	l43.632-134.889l-131.984,45.333C501.352,151.151,501.36,151.158,501.374,151.166"/>
<path fill="#212355" d="M467.819,564.74c76.865-34.948,130.474-112.405,130.474-202.194c0-4.963-0.226-9.91-0.555-14.851
	c-0.08-1.233-0.183-2.467-0.285-3.692c-0.379-4.612-0.876-9.209-1.54-13.778c-0.051-0.314-0.08-0.634-0.124-0.949
	c-0.737-4.882-1.678-9.72-2.744-14.536c-0.248-1.131-0.511-2.255-0.781-3.386c-1.029-4.357-2.175-8.692-3.467-12.983
	c-2.321-7.655-5.006-15.142-8.1-22.426c-2.284-5.385-4.831-10.611-7.509-15.755c-0.759-1.467-1.51-2.933-2.306-4.378
	c-2.379-4.335-4.948-8.553-7.604-12.706c-1.379-2.152-2.773-4.291-4.226-6.393c-2.379-3.445-4.867-6.809-7.429-10.107
	c-1.766-2.27-3.554-4.517-5.4-6.713c-2.671-3.175-5.429-6.254-8.268-9.268c-1.555-1.657-3.101-3.328-4.707-4.94
	c-3.568-3.554-7.275-6.97-11.077-10.283c-1.299-1.131-2.576-2.27-3.897-3.372c-4.466-3.707-9.085-7.261-13.85-10.618
	c-0.679-0.482-1.35-0.978-2.036-1.452c-10.83-7.451-22.389-13.96-34.569-19.485V564.74z"/>
<path fill="#212355" d="M481.446,584.581h263.37c6.765-21.688,10.377-43.836,10.377-66.006c0-90.351-55.936-172.289-138.37-206.267
	c0.022,0.102,0.036,0.204,0.058,0.299c0.693,3.372,1.292,6.779,1.846,10.202c0.117,0.672,0.263,1.335,0.365,2.014
	c0.628,4.035,1.146,8.1,1.569,12.194c0.015,0.08,0.029,0.16,0.036,0.241c0.854,8.319,1.292,16.755,1.292,25.287
	C621.99,460.42,564.456,545.094,481.446,584.581"/>
<path fill="#212355" d="M132.691,394.71c-0.088-0.664-0.168-1.32-0.256-1.985c-0.496-4.072-0.898-8.173-1.197-12.311
	c-0.08-1.08-0.183-2.159-0.248-3.247c-0.285-4.838-0.474-9.705-0.474-14.625c0-4.977,0.197-9.91,0.489-14.814
	c0.08-1.306,0.197-2.605,0.299-3.912c0.292-3.882,0.671-7.735,1.146-11.566c0.139-1.095,0.27-2.197,0.423-3.291
	c1.408-10.276,3.444-20.353,6.086-30.191L12.952,363.185l125.496,61.337C135.916,414.808,134.026,404.847,132.691,394.71"/>
<path fill="#212355" d="M755.19,608.284H387.449h-2.963h-8.232c-4.262,0-8.494-0.109-12.705-0.328
	c-0.204-0.007-0.401-0.036-0.605-0.044c-0.898-0.052-1.788-0.146-2.686-0.205c-1.562-0.102-3.123-0.226-4.678-0.357
	c-1.547-0.132-3.101-0.204-4.641-0.365c-0.518-0.051-1.029-0.146-1.547-0.197c-1.999-0.219-3.969-0.496-5.955-0.759
	c-1.365-0.183-2.737-0.321-4.101-0.526c-0.285-0.044-0.569-0.08-0.861-0.131c-0.934-0.139-1.861-0.343-2.788-0.496
	c-3.167-0.533-6.319-1.073-9.443-1.722c-0.124-0.022-0.255-0.045-0.387-0.066c33.941,82.514,115.901,138.494,206.318,138.494
	c25.17,0,50.332-4.416,74.793-13.136l17.179-6.123l-1.379,18.185c-0.292,3.781-0.576,7.393-0.576,11.078
	c0,75.866,58.665,138.172,132.999,144.237V608.284z"/>
<path fill="#212355" d="M911.887,751.584c0-75.866-58.658-138.187-132.992-144.251v288.489
	C853.229,889.757,911.887,827.45,911.887,751.584"/>
<path fill="#212355" d="M285.584,590.983c-1.635-0.649-3.247-1.35-4.868-2.036c-0.014,0-0.022-0.007-0.037-0.014
	c-36.444-15.34-68.663-39.32-93.927-70.101c-0.073-0.094-0.146-0.197-0.226-0.291c-3.642-4.444-7.13-9.028-10.465-13.756
	c-1.627-2.285-3.24-4.576-4.787-6.918c-1.015-1.547-2.014-3.095-2.992-4.663c-5.875-9.319-11.129-19.054-15.734-29.147
	C62.249,493.757,0.043,578.877,0.043,674.585c0,56.104,20.981,107.377,55.454,146.485L285.584,590.983z"/>
<path fill="#212355" d="M681.296,896.424c-48.288-28.701-81.208-80.66-82.755-140.427c-21.827,6.173-44.077,9.289-66.364,9.289
	c-101.568,0-193.459-63.861-229.918-157.46L72.064,838.022c39.502,36.239,92.117,58.402,149.819,58.402H681.296z"/>
<path fill="#212355" d="M164.851,237.465c0.007-0.014,0.014-0.029,0.022-0.036c2.612-4.394,5.334-8.714,8.202-12.924
	c0.679-1.008,1.416-1.97,2.109-2.963c1.839-2.62,3.715-5.218,5.663-7.765c1.518-2.007,3.08-3.977,4.663-5.94
	c1.014-1.248,2.051-2.474,3.087-3.7c16.719-19.872,36.481-36.948,58.687-50.646c0.927-0.576,1.854-1.153,2.788-1.715
	c1.46-0.876,2.86-1.824,4.342-2.671l-134.889-43.625L164.851,237.465z"/>
</svg>
