<svg id="Layer_1" data-name="Layer 1" xmlns="http://www.w3.org/2000/svg" width="358.37" height="91.36" viewBox="0 0 358.37 91.36">
  <defs>
    <style>
      .cls-1 {
        fill: #fff;
      }

      .cls-2 {
        fill: #e52823;
      }

      .cls-3 {
        fill: #1c2156;
      }

      .cls-4 {
        fill: #1ca6df;
      }

      .cls-5 {
        fill: #abcae9;
      }
    </style>
  </defs>
  <polygon class="cls-1" points="0 38.41 19.2 28.81 0 19.21 0 38.41"/>
  <polygon class="cls-2" points="0 38.41 0 57.61 38.4 38.41 19.2 28.81 0 38.41"/>
  <polygon class="cls-3" points="0 57.6 57.6 57.6 57.6 48.01 38.4 38.41 0 57.6"/>
  <polygon class="cls-4" points="0 0 0 19.2 19.2 28.8 38.4 19.2 0 0"/>
  <polygon class="cls-3" points="0 0 38.4 19.2 57.6 9.61 57.6 0 0 0"/>
  <polygon class="cls-5" points="38.4 19.21 19.2 28.8 38.4 38.41 57.6 48 57.6 28.8 57.6 9.61 38.4 19.21"/>
  <path class="cls-3" d="M333,34.81a41.76,41.76,0,0,0-4.87.31c-3,.47-4.63,2-4.63,4.62,0,2.28,1.51,3.52,3.74,3.52,3.06,0,5.76-2.07,5.76-6.11Zm-7.83,13.7c-5.51,0-9-3.43-9-8.67,0-4.77,3.07-7.68,8.15-8.87a41.34,41.34,0,0,1,8.67-.73c0-4.1-1.66-5.5-5.92-5.5a19.44,19.44,0,0,0-7.89,1.87V20.9A22.84,22.84,0,0,1,328,19.19c8.93,0,12.2,4,12.2,11.68V42.18h3.52v5.7h-10L333.17,45h-.11a10.11,10.11,0,0,1-7.93,3.48m-89.85-13.7a41.93,41.93,0,0,0-4.88.31c-3,.47-4.62,2-4.62,4.62,0,2.28,1.51,3.52,3.74,3.52,3.06,0,5.76-2.07,5.76-6.11Zm-7.83,13.7c-5.51,0-9-3.43-9-8.67,0-4.77,3.06-7.68,8.14-8.87a41.34,41.34,0,0,1,8.67-.73c0-4.1-1.67-5.5-5.91-5.5a19.28,19.28,0,0,0-7.89,1.87V20.9a22.82,22.82,0,0,1,8.82-1.71c8.92,0,12.2,4,12.2,11.68V42.18H246v5.7H236L235.42,45h-.09a10.13,10.13,0,0,1-7.94,3.48M124.73,34.81a41.76,41.76,0,0,0-4.87.31c-3,.47-4.63,2-4.63,4.62,0,2.28,1.51,3.52,3.74,3.52,3.06,0,5.76-2.07,5.76-6.11Zm-7.84,13.7c-5.5,0-9-3.43-9-8.67,0-4.77,3.06-7.68,8.14-8.87a41.34,41.34,0,0,1,8.67-.73c0-4.1-1.66-5.5-5.91-5.5a19.28,19.28,0,0,0-7.89,1.87V20.9a22.82,22.82,0,0,1,8.82-1.71c8.92,0,12.19,4,12.19,11.68V42.18h3.53v5.7h-10L124.87,45h-.11a10.13,10.13,0,0,1-7.94,3.48M270.54,33.77c0-5.25-2.59-8.71-6.59-8.71s-6.54,3.52-6.54,8.66,2.55,8.77,6.38,8.77c4,0,6.75-3.53,6.75-8.72m7.42,0c0,8.72-5,14.74-12.19,14.74-4.32,0-6.86-1.71-8.15-3.48h-.11V56.84l-7.25,3V25.41h-3.69v-5.7h10.37l.47,3.68h.1c.94-1.45,3.12-4.2,8.26-4.2C273.29,19.19,278,25,278,33.77M172,19.19a10.93,10.93,0,0,0-9.09,4.2h-.1l-.46-3.68h-10.8v5.7h4V47.88h7.31v-13c0-7,3.69-9.55,6.86-9.55,3,0,4.36,1.93,4.36,6.23V47.88h7.26v-18c0-7-3.22-10.68-9.39-10.68m33.27,22.63c-7.47,0-11.89-5-11.89-13.14,0-7.88,4.42-13.22,11.27-13.22a21.94,21.94,0,0,1,4.91.56v8l6.49-2.7V11.94A21.42,21.42,0,0,0,205,9.14c-11.48,0-19.32,7.06-19.32,19.67,0,12,7,19.72,19.32,19.72a23.91,23.91,0,0,0,11.23-2.81l-1.62-6.13a20,20,0,0,1-9.3,2.25m149.57.36V7.4l-7.32,3V47.88h10.85v-5.7ZM98,36.47c0-3.64-2.65-5.61-7.21-5.61h-7V42.12h7.06c5.09,0,7.16-2.28,7.16-5.65M83.79,25.21h5.92c4.21,0,6.23-2,6.23-4.83,0-3.27-2-4.92-5.81-4.92H83.79Zm22,11.67c0,7.32-5.76,11-14.43,11h-15V15.46H71.79V9.74H90.17c4.92,0,7.46.68,9.44,1.93a8.49,8.49,0,0,1,4,7.52,8.23,8.23,0,0,1-6.53,8.14v.11c5.45.93,8.77,4.52,8.77,9.44M280.27,25.41h4V47.88h7.32V19.71H280.16Zm4-10.58h7.32V8h-7.32ZM136.2,25.41h4V47.88h7.32V19.71H136.2Zm4-10.58h7.32V8H140.2Zm166.5,4.88h7.41v5.7H306.7V37.82c0,3.11.68,4.93,3.69,4.93a19.55,19.55,0,0,0,3.31-.47v5.45a24.93,24.93,0,0,1-5.7.78c-5.71,0-8.57-2.75-8.57-8.82V25.41h-4v-5.7h4V14.88l7.27-3Z"/>
  <path class="cls-3" d="M270.58,68.85h-4L262.42,77l-4.19-8.09h-4.05l6.38,11v7.54h3.67V79.84Zm-23.31,2.88V87.35h-3.65V71.73h-5.3V68.85h14.22v2.88Zm-15.9,15.61H235V68.85h-3.67ZM222.7,68.85h3.67V80c0,2.48-.38,4.17-1.64,5.57s-3,2.07-5.73,2.07-4.52-.67-5.74-2.07S211.6,82.49,211.6,80V68.85h3.67V80.21c0,1.6.17,2.33.76,3a4.38,4.38,0,0,0,5.94,0c.58-.7.76-1.43.76-3Zm-23.45,2.77c-3.38,0-5.3,2.7-5.3,6.43s1.89,6.47,5.3,6.47,5.3-2.74,5.3-6.47-1.92-6.43-5.3-6.43m4.63,14.85a4.72,4.72,0,0,0,2.27,2.83l-2.91,2.06a5.66,5.66,0,0,1-2.77-3.87,4.58,4.58,0,0,1-1.22.15c-5.54,0-9.06-3.85-9.06-9.56s3.52-9.52,9.06-9.52,9.06,3.84,9.06,9.52-3.47,8-4.43,8.39m-28.54.87V68.85h11.88v2.88H179v4.49h7.63v2.91H179v5.24h8.47v3ZM166.2,71.85a7.81,7.81,0,0,0-6.76-3.29c-4.72,0-9,3.4-9,9.52s3.81,9.56,8.82,9.56a8,8,0,0,0,7-3.38l-1.89-2.48a6,6,0,0,1-4.81,2.53c-3.23,0-5.35-2.5-5.35-6.29s2.21-6.26,5.41-6.26a5.54,5.54,0,0,1,4.66,2.51Zm-22.84-3H147V87.34h-3.67Zm-3.23,18.49v-3h-7.34V68.85h-3.67V87.34Zm-19.6-7.83a5.06,5.06,0,0,0-2.42-.52h-3v5.62h3a5.07,5.07,0,0,0,2.45-.53,2.82,2.82,0,0,0,.63-3.94,2.9,2.9,0,0,0-.63-.63M119.75,72a4.12,4.12,0,0,0-2.1-.41h-2.51v4.83h2.51a3.86,3.86,0,0,0,2.1-.49,2.33,2.33,0,0,0,1-2,2.19,2.19,0,0,0-1-2m3.58,14.15a9.34,9.34,0,0,1-5.07,1.16H111.5V68.85h6.38a8.91,8.91,0,0,1,4.57.9,4.15,4.15,0,0,1,2,3.67,4,4,0,0,1-3.18,4v.06c2.62.44,4.25,2.19,4.25,4.58a4.78,4.78,0,0,1-2.15,4.16m-19.77-6c0,1.6-.18,2.33-.76,3a4.34,4.34,0,0,1-5.91,0c-.58-.7-.76-1.43-.76-3V68.85H92.5V80c0,2.48.41,4.17,1.66,5.54s3.06,2.07,5.74,2.07,4.51-.7,5.74-2.07,1.63-3.09,1.63-5.57V68.85H103.6Zm-18.93-7.9A4,4,0,0,0,82,71.66H80v6.4h2a4,4,0,0,0,2.68-.64,2.92,2.92,0,0,0,1.14-2.56,2.83,2.83,0,0,0-1.14-2.54m2.82,7.17a8.44,8.44,0,0,1-4.88,1.37H80v6.5H76.34V68.86h6.3a8,8,0,0,1,4.88,1.4,6.35,6.35,0,0,1,.25,9c-.08.08-.16.17-.25.25"/>
</svg>
